<svg version="1" xmlns="http://www.w3.org/2000/svg" width="664" height="1085.333" viewBox="0 0 498.000000 814.000000"><path d="M187.6 2.7c-.4.5-4 1.3-7.9 1.9-29.9 4.7-37.9 6.3-48.2 10.1-6.7 2.4-20.3 9.8-21.6 11.6-.4.5-1.2.6-1.9.2-.7-.4-1.5-.3-1.9.2-.3.5-3.3 2.2-6.6 3.7s-6.2 3.1-6.5 3.5c-1.3 1.7-13.1 11.4-18.1 14.8-3.1 2.1-7.4 6-9.4 8.8-2.1 2.7-4.4 5.4-5.1 6-1.8 1.4-9.5 12.1-12.6 17.5-1.4 2.5-3 6.7-3.7 9.5-4.8 21.8-6.5 31-5.8 32.9.3.7.1 3.3-.5 5.7-1.2 5.6.6 18.4 3.6 25.4 6.8 15.7 14.5 23 30.5 29 6.5 2.4 21.9 2.1 33.2-.6 7.5-1.9 8.8-2.5 7.7-3.6-1.1-1.1-2.5-1-7.8.6-6.2 1.7-17.6 3.7-19.3 3.3-.4-.2-3.8-.5-7.5-.8-3.7-.3-7.9-1.2-9.4-2-2.4-1.2-2.8-2.1-2.8-5.7 0-4.2 1.4-11.4 2.3-12.4.3-.2 2.8.3 5.5 1.3 4.7 1.7 5.3 1.7 12 .1 3.8-.9 8.1-1.7 9.4-1.7 3.2 0 8.8-1.9 8.8-3.1 0-.5-2.6-.6-5.7-.2-3.2.4-8.6.6-12.1.5-4.5-.2-6.2.1-5.7.8.4.6 1.4.9 2.2.6.8-.3 1.2-.2.9.3-1.3 2.1-7.2 1.8-12.4-.7-2.8-1.3-5.2-2.8-5.2-3.3s-.6-.9-1.4-.9c-.7 0-1.6-1.1-1.9-2.5-.4-2.4-.3-2.4 1.3-1 2.1 1.9 2.7 1.9 2.7 0 0-.8-.4-1.2-.9-.9-.4.3-.8-.1-.8-.9 0-1.5-4.5-5.8-5.3-5-1.3 1.2-4.7-1-4.7-3.1 0-1.2-.9-3.2-2-4.4-1.1-1.2-2-2.6-2-3.2 0-.5-.4-1-1-1-.5 0-1-.6-1-1.4 0-1.5-1.8-3.1-2.6-2.4-.7.7 4.6 9.8 5.7 9.8.6 0 .7.5.4 1.1-.4.5.1 1.9 1.1 3 2.5 2.7-.2 2.4-2.9-.4-3.2-3.2-9.4-16.7-7.7-16.7 1.6 0 1.1-3-.6-3.7-.8-.3-1.3-1.2-1-1.9.3-.7.1-1.6-.3-1.8-.5-.3-.6-1.7-.3-3.2.4-2.5.6-2.3 2.9 2.2 1.3 2.7 2.2 5.9 2 7.2-.3 1.6 0 2.2.8 1.8.7-.2 1.9.8 2.6 2.2.8 1.5 2 3.1 2.6 3.5.7.4 1.3 1.5 1.3 2.3 0 .8.5 1.2 1 .9.6-.4.9-.3.8.2-.4 1.4 3.4 6.4 6.1 7.8 1.4.8 4.4 3 6.5 4.9 2.2 2 4.7 3.7 5.5 3.7.9.1 3.2.2 5.1.4 1.9.1 4 .3 4.5.5 2.9.7 5.1.3 6.2-1 1-1.2 1.2-1.2 1.3-.1 0 1.6 7.9.7 12.3-1.4 1.5-.7 2.7-.9 2.7-.4s.5.9 1 .9c.6 0 1-.9 1-2 0-2.2 1.5-2.7 2.4-.8.3 1 .9.8 1.9-.5 1.1-1.3 1.6-1.5 2-.5.4 1 .7 1.1 1.8 0 .7-.6 2.1-1.2 3.1-1.2s2.6-.8 3.6-1.8c1-.9 2.8-1.8 4.1-2 1.3-.1 3.7-.9 5.5-1.6 1.7-.8 4.1-1.7 5.4-2.1 1.2-.3 2.2-1 2.2-1.5s.6-.7 1.4-.4c.8.3 1.7.1 2.1-.5.3-.6 1.5-1.1 2.6-1.1 1 0 1.9-.5 1.9-1 0-.6.7-1 1.5-1s1.5-.4 1.5-.9c0-.6 1.4-1.8 3-2.8 3.2-1.9 6.4-6.9 5.4-8.4-.9-1.5-2.1-.1-2.8 3.1-.6 3.4-2.6 3.2-2.6-.3 0-1.6-.3-1.8-.9-.9-.4.7-1.5 1.4-2.4 1.6-.9.1-2.5 1.2-3.5 2.3-1 1.2-3 2.5-4.5 2.8-1.5.4-2.7 1.2-2.8 1.9 0 .6-.4.2-.9-.9-.7-1.5-.9-1.6-.9-.4-.1.9-1.6 2.2-3.3 3-1.8.7-3.7 1.9-4.1 2.6-.4.7-1.3 1.3-2 1.3s-4.5 1.6-8.6 3.6-10.1 4-13.4 4.4c-3.3.5-6.3 1.4-6.8 2.1-.4.8-2 1-4.5.6-2.9-.5-4-.2-5 1.1-1.3 1.6-1.3 1.6-1.4-.2 0-1.5-.3-1.6-1.5-.6-.8.7-1.2 1.6-1 2 .3.5-.7.7-2.1.6-1.6-.2-3.3-1.4-4.3-2.9-1-1.7-2.4-2.7-3.9-2.7-2.1 0-2.3-.3-1.7-3.1.7-2.9.6-3.1-1.6-2.4-2.2.7-2.3.6-.8-1 2.1-2.1 8.7-1.2 6.9 1-.7.9-.6 1.6.7 2.6 1.1.9 1.4 1 .9.1-.5-.8.1-1.2 2.1-1.3 2.7 0 2.7-.1.6-.9-1.3-.5-2.3-1.4-2.3-1.9 0-1 3.9-.3 5.7 1.1.6.5 1.2.5 1.5-.1.5-1.5 22.1-4.1 23-2.7.6.8.8.8.8-.1 0-.6 1.3-1.4 2.9-1.8 6.5-1.4 18.4-6.5 24.2-10.4 3.3-2.2 6.7-4.1 7.4-4.1.7 0 2.3-1.6 3.5-3.6 1.3-2 2.8-3.3 3.6-3 .8.3 1.2-.2 1.1-1.3-.1-1.7 4.1-7.9 5.4-8 1.7-.2 2.5 21.8.9 24.9-.5 1-5.2 4.8-10.4 8.4-5.2 3.7-9.8 7.1-10.1 7.6-.3.5-1.2.7-2 .3-.8-.3-1.5.1-1.5.8 0 .7-.3 1-.6.7-.3-.4-2-.2-3.7.4-1.8.5-3.9 1.1-4.7 1.2-.8.2-3.6 1.3-6.3 2.5-2.6 1.3-5.6 2.1-6.7 1.8-1.3-.3-2 0-2 .8s-1.3 1.5-3.2 1.7c-3.5.3-5.2 2.8-2 2.8 1.1 0 6.5-1.6 12.1-3.5 5.5-1.9 10.7-3.5 11.6-3.5.8 0 3.2-1 5.3-2.3 2-1.2 5.9-3.4 8.5-4.7 8.5-4.4 9.1-4.8 13.6-9.4l4.4-4.5-.2-15c-.1-14.1-.3-15.3-2.8-20.1-2.7-5.3-4.3-6.4-4.3-3 0 2.1-5.9 11.9-7.3 11.9-1.6.2-6.7 4.5-6.7 5.8 0 2.6 2.2 1.2 8.9-5.8 5.3-5.5 6.9-6.7 7.4-5.5.4 1.1-.9 3.6-3.8 7.2-2.5 3-5.2 6.6-6.1 7.9-1.7 2.6-10.7 9.5-12.4 9.5-.6 0-1 .4-1 1 0 .5-.5 1-1 1-.6 0-2.9.9-5.3 1.9-5.3 2.4-9.6 3.7-17.5 5.2-3.4.6-6.5 1.5-6.7 2-.3.4-2 .3-3.8-.2-4.1-1.2-5-1.1-4.2.1.3.5-.1 1-1 1s-1.3-.5-1-1c.3-.6.2-1-.4-1-.5 0-1.3.5-1.6 1.1-.4.6-1.4.8-2.3.4-.8-.3-1.9 0-2.3.7-.6 1-1.3.9-3.1-.1-1.3-.7-2.8-1.1-3.4-1-.5.1-1.6 0-2.4-.4-.8-.3-3.2-1.1-5.3-1.7-5.7-1.8-11.7-11.7-17.4-28.9-5-15.2-6-23.8-3.1-26.7 1.6-1.6 1.7-1.5 2.3 1.2 3.1 14.5 8.8 28.9 15.7 39.6 2.9 4.4 3.7 5 10.2 6.9 6 1.8 8.7 2.1 17.1 1.6 10.3-.6 20.5-2.4 20.5-3.5 0-1.5-16.4.2-18.5 1.8-.5.5-3 .5-5.3 0-2.4-.4-5.2-.5-6.3-.3-1.1.3-3.3 0-4.9-.6-1.7-.6-4.4-1.6-6-2.2-5.4-2-14.2-20-19.2-39.1-1.9-7.4-2.1-9-.9-11.1 2.7-5 16.1-19.5 21.3-23 2.9-1.9 8.4-6 12.1-9 3.7-3 8.7-6.3 10.9-7.3 2.2-1.1 6.4-3.2 9.2-4.7C126 19.2 134 16 145.6 13.5c6.5-1.4 12.7-2.8 13.7-3.1.9-.3 1.7-.2 1.7.3 0 .7-2.4 1.9-10.7 5.4-1.8.8-3.3 1.7-3.3 2.1 0 1 2.7 1 3.2 0 .2-.4 3-1.8 6.3-3.1s6.7-3 7.5-3.7c.8-.7 2.9-1.4 4.5-1.7 1.7-.3 4.3-1 5.8-1.6 3.2-1.2 10.7-1.5 10.7-.4 0 .5-1.6 3.3-3.5 6.3s-3.5 5.8-3.5 6.3c0 .4-1.3 3.4-2.9 6.7-1.6 3.2-3.2 7.2-3.6 9-.4 1.8-1.5 5.1-2.5 7.4-1 2.2-2.5 9.5-3.4 16.1-.9 6.7-2 13.4-2.5 15l-.8 3-2-4c-2.5-4.9-4.7-17.3-3.8-21.7.4-1.8 1.8-5.7 3.2-8.6 1.5-2.8 2.4-5.5 2-5.8-.9-.9-3.7 2.2-3.7 4 0 .9-.4 1.6-1 1.6-.5 0-1 .9-1 1.9 0 1.1-.4 2.3-1 2.6-1.5.9-1.2 14.2.4 20.3 1.3 4.9 7.9 16.2 9.4 16.2.4 0 1.8 1.9 3.1 4.3 2.2 4 2.3 5.3 2.5 25.2.1 18.2-.1 21.5-1.6 24.4-1 1.9-1.8 4-1.8 4.8 0 .7-.4 1.2-.8 1-1-.2-3.6 2.1-12.1 10.3-3.1 3.1-6.7 6.3-8.1 7.2-1.8 1.1-2.2 1.9-1.5 2.7 1.4 1.4 5.5-1.3 5.5-3.5 0-.8.4-1.3.8-1 .4.3 4.7-3.3 9.5-7.9 12-11.4 12.1-11.7 12-38V92.4l-3.2-6.4c-1.7-3.6-3.1-7.8-3.1-9.5.1-5.2 3.9-26.7 6-33.6 2.2-6.9 12.7-29.3 16-34 2.8-3.9 2.5-9-.4-6.2zm-137.8 88c.6 3.2 2.6 10.3 4.5 15.8 2.9 8.7 3.2 10.1 1.8 10.6-2.4 1-3.2.1-2.5-2.7.4-1.4.2-2.4-.5-2.4-.6 0-1.1-.7-1.1-1.5s-.4-1.5-1-1.5c-1.3 0-1.3 2.7.1 3.6.6.3.9 1.7.6 3-.2 1.5.1 2.4.8 2.4.7 0 1.1 1 1 2.2-.1 1.3 0 1.5.2.5.5-2 1.4-2.2 3.2-.5 1 1.1 1.1 1 .6-.5-.4-.9-.3-1.7.3-1.7.5 0 2.3 2.7 4.1 5.9 3.5 6.6 9 12.1 12.4 12.2 1.9.1 1.8.2-.6.9-1.6.5-3.5.6-4.4.3-1-.4-1.4 0-1.2 1.3.2 1 0 2.5-.4 3.1-.5.8-.3 1.3.3 1.3.7 0 .6.5-.2 1.4-1.4 1.5-3.8.7-6.6-2.1-1.9-1.8-.7-1.6 2.6.4l2.7 1.8-2.8-3.8c-2.8-3.8-3-7.2-.3-8.9 1.6-1-2.5-3.8-4.6-3.2-1.3.4-1.6.1-1.2-1 .3-.8.1-2.3-.5-3.3-.9-1.6-1-1.4-1.1 1 0 1.6-.4 2.6-.9 2.3-.5-.3-1.1.1-1.5.9-.3.8-1 1.5-1.5 1.5-1.4 0-.1-3.2 1.8-4.7 1.4-1.1 1.2-1.2-1.1-1.3-1.7 0-2.8-.6-2.8-1.3 0-2.2-3.3-8.2-3.8-6.9-.6 1.8-2.2.4-2.2-1.9 0-1-.4-1.9-.8-1.9s-.7-1.5-.5-3.3c.3-4.1 2.6-12.7 3.4-12.7.3 0 .4-1.3.1-3-.5-3.4.5-8 1.7-8 .4 0 1.3 2.6 1.9 5.7zM152 126.9c0 .5-.7 1.2-1.6 1.5-1.4.5-1.5.4-.4-.9 1.4-1.7 2-1.9 2-.6zm-93 4.5c0-1.4.3-1.5 1.2-.6.8.8.8 1.5-.1 2.6-1 1.2-1.5 1.1-3.6-.7-1.3-1.2-2.1-2.6-1.8-3.1.4-.5 1.4.1 2.5 1.3 1.6 2 1.8 2.1 1.8.5zM51.9 149c3.2 3 7.3 6.4 9.2 7.5 2.5 1.6 3.4 2.7 3.2 4.5-.6 9.6-1.4 16.4-1.8 16.8-.3.3-.5 0-.5-.6 0-.7-.6-1.2-1.3-1.2-2.5 0-11.6-10.6-15-17.5-3.6-7.4-5.2-13.1-6.3-23l-.6-6 3.6 7c2.3 4.3 6 9.2 9.5 12.5zm86.5-13c-.6.6-1.5.5-2.4-.1-1.3-.9-1.2-1 .3-.5.9.3 1.7 0 1.7-.6s.3-.8.7-.5c.4.4.2 1.2-.3 1.7zm-79.6 11.6c.5-.3 1.2.3 1.5 1.3.3 1.2-.1 2.2-1 2.5-1.9.8-2.8.8-2 0 .3-.4-.1-1.3-.9-2.1s-1.1-1.9-.8-2.5c.4-.7.9-.6 1.4.2.4.7 1.2 1 1.8.6zm13.2 0c0 .8-.4 1.2-1 .9-.5-.3-1-1-1-1.6 0-.5.5-.9 1-.9.6 0 1 .7 1 1.6zm31 .8c0 .3-.4.8-1 1.1-.5.3-1 .1-1-.4 0-.6.5-1.1 1-1.1.6 0 1 .2 1 .4zm-24 2.4c0 .5-1.3.9-3 .9-1.6 0-3-.3-3-.7 0-.3 1.4-.7 3-.8 1.7-.1 3 .2 3 .6zm19.5.2c.3.5.1 1-.4 1-.6 0-1.1-.5-1.1-1 0-.6.2-1 .4-1 .3 0 .8.4 1.1 1z"/><path d="M46 97.9c0 .6.5 1.3 1 1.6.6.3 1-.1 1-.9 0-.9-.4-1.6-1-1.6-.5 0-1 .4-1 .9zm.1 4.7c0 1.1.3 1.4.6.6.3-.7.2-1.6-.1-1.9-.3-.4-.6.2-.5 1.3zM45 107c0 .5.5 1 1.1 1 .5 0 .7-.5.4-1-.3-.6-.8-1-1.1-1-.2 0-.4.4-.4 1zm19.5 27.1c.4.6-.1 1.7-1.1 2.4-1.8 1.3-1.8 1.4-.1 1.5.9 0 1.7.8 1.7 1.7.1 1.1.6.7 1.4-1.2.9-2 1-3.4.3-4.3-1.2-1.5-3.1-1.6-2.2-.1zM140 22.4c-1.9 1.3-4.5 3.4-5.7 4.7-1.2 1.3-4.7 4.9-7.7 7.9-4.4 4.2-5.9 5.2-6.5 4.1-.6-.9-1.8-1.2-3.5-.7-2.3.6-2.6 1.2-2.6 4.6 0 3.3.3 4 2 4 1.1 0 2.8-1 3.8-2.2.9-1.1 2.5-2.9 3.5-4 .9-1 1.7-2.3 1.7-2.8 0-.6.6-1 1.3-1 .6 0 4-2.8 7.4-6.3 7.7-7.6 8.9-8.7 10.3-8.7.5 0 1-.5 1-1 0-1.5-1.2-1.2-5 1.4zm-21.4 19.2c-.3.9-.6 1.8-.6 2 0 .3-.4.3-1-.1-1.1-.7-.2-3.5 1.2-3.5.6 0 .7.7.4 1.6zm-12.9 6.2c-3.2 1.9-4.2 4.8-3.4 9.7.7 4.5-1 5.9-4.8 3.9-1.6-.8-3.1-1.1-3.4-.7-.3.4-1.6.9-2.9 1.1-3.3.3-4.8 2.2-6.5 8-1.6 5.3-1.3 8.2 1 11.9.8 1.2 1 2.4.5 2.7-.5.3-.7 1.8-.4 3.2l.5 2.7 1.8-3.6c1.3-2.5 2.8-3.7 4.9-4.2 1.6-.4 3-1.1 3-1.7 0-.6.7-.7 1.6-.4 1.1.4 1.9-.3 2.7-2.4.6-1.6 1.5-3 2-3s.6-2 .3-4.5c-.7-4.6.5-8.5 2.7-8.5.7 0 2.8-1 4.7-2.1 3.2-2 3.3-2.2 1.6-3.5-1.3-.9-1.6-1.8-1-3.1.7-1.6.8-1.6 1.1.4.7 3.6 2.3 2.6 2.3-1.3 0-2.3-.6-4.2-1.7-5-2.3-1.7-3.2-1.7-6.6.4zm.2 8.4c0 3.1-.1 3.1-1 1-.5-1.3-.7-2.8-.3-3.3 1-1.6 1.4-.9 1.3 2.3zm-6.5 9.6c.2.4.7 2.4 1.1 4.5.6 2.9.4 3.7-.8 3.7-1 0-1.3.7-1 2.4.4 1.8 0 2.5-1.8 2.9-3 .8-3.9-.1-1.6-1.7.9-.7 1.7-1.8 1.7-2.5 0-.6.5-1.9 1.1-3 .9-1.3.9-2.2 0-3.7-1.1-1.7-1.2-1.7-.8.7.3 2.1 0 2.5-1.5 2.1-1-.2-1.9-1.2-1.9-2.1-.1-.9-.5 0-.9 1.9l-.7 3.5-.2-3.8c-.1-3.5.1-3.8 2.1-3.2 1.7.6 2 .4 1.5-.9-.5-1.1-.1-1.6 1.3-1.6 1 0 2.1.3 2.4.8zM89.3 79.9c1 1.1.9 1.3-.3.9-1.8-.6-4.1-4.8-3.3-6.2.4-.5 1 .1 1.5 1.4.5 1.3 1.4 3.1 2.1 3.9zm205.9 6.8c-1.7.7-4.8 7-5.6 11.5-.7 3.7-.8 3.8-5.1 3.8-3.2 0-5.1.6-6.5 2-2.4 2.4-2.5 4.4-.2 8.9 2 4.1 9.2 8.2 14.7 8.4 2.9.1 4.3.9 7.3 4.3 5.9 6.7 9.7 11.6 12.5 16.4 1.4 2.5 5.8 8.1 9.7 12.5 3.9 4.4 7.3 9.1 7.7 10.5.3 1.4 1.7 3.9 3 5.6 1.2 1.7 2.3 3.6 2.3 4.2 0 .6.4 1.2.8 1.4 1.5.6 10.9 13.4 11.7 15.9.4 1.3 1.7 3.3 2.9 4.4 1.2 1.1 3.4 3.8 5 6s3.9 5 5.1 6.2c1.1 1.2 3 4.1 4.2 6.5 1.2 2.4 3.3 5.4 4.5 6.8 6.2 6.7 7 8.6 6.3 15.4-.6 5.3-.4 6.9 1.4 10.4 2.5 4.8 6.8 8.1 10.7 8.2 6.5 0 7.4-.4 8.3-3.5 1.6-5.5 1.9-7.5 1.1-8-.5-.3-.5-1.7-.1-3.2.7-2.5 1.1-2.7 4.8-2.5 7.5.6 9.8-2.3 7.1-8.5-1.4-3.1-6.1-8.3-7.5-8.3-.5 0-2.5-1.2-4.4-2.6-1.9-1.4-4.8-3.2-6.6-4-1.7-.9-3.7-2.9-4.3-4.5-.7-1.6-1.6-2.9-2.1-2.9-.4 0-1.1-1-1.5-2.3-.4-1.2-4.1-5.6-8.3-9.7-4.2-4.1-8.4-8.7-9.3-10.1-.9-1.5-5.5-7.4-10.2-13.2-4.6-5.8-9-11.6-9.7-12.9-.6-1.3-1.5-2.5-1.9-2.8-.8-.6-11.3-16.8-15-23.1-1.4-2.4-4.6-6.6-7.1-9.5-8-8.9-10-13.3-9.8-20.7.3-9.5-3.9-15.7-11.6-17-1.6-.3-3.6-.3-4.3 0zm6.9 2.6c3.8 2.9 5.3 6.9 5.1 13-.3 6.3 1.8 12.2 5.8 16.5 1.1 1.1 2 2.4 2 2.7 0 .6 8.9 11.7 10 12.5.4.3 2.2 3.4 4 7 1.9 3.6 4.5 7.9 5.9 9.5 1.4 1.7 4.4 5.7 6.6 9 2.2 3.3 4.6 6.4 5.3 6.8.6.4 1.2 1.4 1.2 2.1 0 .7 1.4 2.5 3 4.1 1.7 1.6 3 3.4 3 3.9 0 1 5.1 8.1 8.3 11.6.8.8 2.6 3.3 4 5.5 1.5 2.2 4 5.1 5.7 6.4 3.4 2.7 3.9 5.7 1 6.6-1.1.3-2.7 1.4-3.6 2.2-1.5 1.5-1.8 1.5-3.4-.8-1.6-2-1.7-2.5-.4-3.2.8-.4 1.9-.5 2.4-.2.6.3 1 .4 1 .1 0-.2.3-1.2.7-2.1.5-1.4.2-1.6-1.8-1.1-2 .6-2.1.5-.6-.4.9-.6 1.7-1.6 1.7-2.2 0-.7-.5-.6-1.5.2-.8.7-1.5.9-1.5.4 0-.4-.5-.3-1.2.4-1.4 1.4-4.2 1.6-3.3.2.3-.5-.1-2-.9-3.2-.9-1.2-1.6-3.6-1.7-5.3 0-2.6-.2-2.7-.9-1-.6 1.4-.9 1.5-1 .5 0-.8-.9-2.6-2-4s-2-3.4-2-4.5-1.3-3.9-2.8-6.2c-1.5-2.3-4-6.4-5.7-9-1.6-2.6-3.3-5.3-3.7-5.8-.4-.6-3.8-5.3-7.5-10.5s-6.9-9.7-7.3-10c-.3-.3-1.4-1.6-2.3-3-.9-1.3-1.7-1.9-1.7-1.2 0 .6-.5 1.2-1 1.2-.6 0-1-.7-.8-1.5.2-1.1-10.4-12.5-11.7-12.5-.2 0-.6.8-.8 1.7-.4 1.4-.5 1.2-.6-.5-.1-1.2-.7-2.2-1.6-2.2-.8 0-1.5-.5-1.5-1 0-.6-.6-1-1.3-1-.7 0-2.3-.9-3.5-2-2.3-2.2-6.2-2.7-6.2-.9 0 1.8-5.9.2-9.7-2.7-6.8-5.1-4.8-12.1 3.2-10.8 2.2.3 4.7 1 5.6 1.4 1.3.7 1.5-.1 1.5-5.8-.1-9.5 3.8-14.5 8.5-10.9zm27.4 61.9c.6.8 2.1 3.4 3.4 5.9 1.3 2.4 3.9 6.2 5.6 8.4 3 3.7 13 23.3 12.3 24-.4.4-16.2-23.1-18.3-27.3-.9-1.8-2.4-4.1-3.3-5-1.4-1.4-10.2-12-16.2-19.5-.8-1-2.5-3.1-3.7-4.5-1.3-1.5-2.3-3.4-2.3-4.2 0-1.2 19.5 18 22.5 22.2zm-16-21.2c.3.5.1 1-.4 1-.6 0-1.1-.5-1.1-1 0-.6.2-1 .4-1 .3 0 .8.4 1.1 1zm66.2 78.2c1.3 1.2 2.3 2.6 2.3 3.2 0 1.7 11.3 12.6 13.1 12.6 1.4 0 8.1 4.4 10.2 6.8 1 1.1 1.7 2.9 1.5 3.9-.4 1.9-3.3 2.1-11 .7-3.4-.5-3.8-.4-3.8 1.5 0 1.1.8 3.7 1.7 5.6 1.7 3.5 1.7 3.8-.2 7.3-2.6 4.8-5.6 5.3-9.4 1.5-3.6-3.7-5.9-13-3.9-16.2 1.4-2.4.1-5.1-7.4-15.1-2.7-3.4-4.8-6.6-4.8-7.1s1.2-1.5 2.8-2.1c1.5-.7 3.4-2 4.2-3 1.9-2.2 1.9-2.2 4.7.4zM83.3 91.2c-.6.7-.7 2.2-.3 3.3.7 1.8.8 1.7 1.5-.8.8-3.2.3-4.3-1.2-2.5zM259 92c-9.3 1-29 8.5-29 11.1 0 .5-1.8 1.4-4 2-4.7 1.4-7.1 3.6-5.2 4.8.7.4 3.6.9 6.4 1 2.8.1 6.7.9 8.7 1.7 3.6 1.5 14.8 1.7 15.6.3.9-1.4 8.1-4.6 12-5.3 5.2-1 10.9-4 13.3-7.1 1.1-1.4 2.3-2.5 2.6-2.5 1.6 0 4.9-4.1 4-4.9-1.2-1.3-16.3-2-24.4-1.1zm18.5 3.2c1.1 1.1-11.6 7.9-15.1 8-1.9.1-3.1.5-2.7 1.1.4.6-.5.7-2.3.3-3.3-.9-3.4-.9-5.3-.7-1.1.1-1.1.4-.1 1.6 1 1.3.7 1.7-2.5 3.1-3.3 1.3-5 1.4-12.3.4-7.8-1.1-8.4-1.4-6.6-2.7 1-.8 2.9-1.6 4.2-2 1.2-.3 2.2-.9 2.2-1.4 0-.5.7-.9 1.5-.9s1.5-.5 1.5-1c0-.6.7-1 1.5-1 .9 0 2.7-.8 4.2-1.7 1.4-.9 4.8-1.8 7.5-1.9 2.7-.1 5.4-.6 5.8-1 1.1-1 17.5-1.2 18.5-.2zM228 107c0 .5-.4 1-1 1-.5 0-1-.5-1-1 0-.6.5-1 1-1 .6 0 1 .4 1 1z"/><path d="M248 105.5c0 .8.4 1.5.8 1.5.5 0 .9-.7.9-1.5s-.4-1.5-.9-1.5c-.4 0-.8.7-.8 1.5zm-168-8c0 .8.6 1.5 1.4 1.5 2.2 0 2.8-1.7 1-2.4-2.2-.9-2.4-.8-2.4.9zm-1.5 5.2c-1.1 1-1.5 2.7-1.3 4.5.3 1.5.1 2.8-.4 2.8-.4 0-.8 1.1-.8 2.5s.5 2.5 1.1 2.5c.5 0 .7-.5.4-1-.4-.6-.1-1.8.6-2.6.6-.8.9-1.7.5-2.1-.3-.3 0-1.3.8-2.2 1.8-2.2 3-6.1 1.7-6.1-.5 0-1.7.7-2.6 1.7zm58.9 9.7c-1 .8-4.1 2.6-6.9 4.1-5.8 3.2-7.1 4.2-6.3 5.1.4.3 2.7-.6 5.2-2s4.6-2.2 4.6-1.8c0 .4.4.2.8-.4.4-.7 2.2-1.8 4.1-2.6 2.8-1.1 3.1-1.5 1.9-2.5-1.1-1-1.9-.9-3.4.1zm20.7.2c0 1.1.3 1.4.6.6.3-.7.2-1.6-.1-1.9-.3-.4-.6.2-.5 1.3zm91.2 7.5c-3.9 1.1-4.9 2.5-3.3 4.4 1 1.2.9 1.5-.4 1.5-.9 0-1.6.5-1.6 1.1 0 .7 1.2.9 3.6.5 2.6-.5 4.4-.2 7 1.3 2.2 1.3 3.4 1.6 3.4.8 0-1.6-1.3-3.2-2.5-3.3-.5 0-2.3-.4-3.8-.8-2.1-.6-2.5-1.1-1.5-1.7 3.8-2.5 17.2.9 22.2 5.5 3.9 3.6 4.7 5 7.5 13.1 2.4 6.8 2.6 9.8.9 14.5l-1.1 3.4-3.2-9.8c-3.4-10.3-8.4-17.2-12.9-17.8-1.3-.2-2.2-1.2-2.4-2.6-.4-2.7-2.2-3-2.2-.3 0 1.1 1.1 2.8 2.5 3.9s2.5 2.3 2.5 2.6c0 .3.8 1.5 1.8 2.5 5.2 5.8 7.2 10.7 8.1 19.9.5 4.5.5 10.3 0 12.8s-.6 5.1-.3 5.6c.8 1.3 4.4-2.1 4.4-4.3 0-1 .5-2.1 1-2.4.6-.3 1-1.7 1-3.1 0-1.3.4-2.4.9-2.4 1.5 0 3.6-9.3 3.6-16.5 0-8.6-2.6-14.4-9.9-22.1-4.7-5-5.6-5.4-11.6-6.4-7.6-1.2-9.4-1.1-13.7.1zM119 121.5c0 .8.9 1.5 2 1.5 2.4 0 2.7-1.5.4-2.4-2.2-.9-2.4-.8-2.4.9zm70 8.7c-8.1 5.4-9.7 7.2-10.5 12.5-1.3 8.6 8.2 19.3 17 19.3 2.7 0 9.8-4.7 14.4-9.4 4.1-4.2 6.9-14.2 5-17.9-1.7-3.1-4.9-7.1-4.9-6.1 0 .5-.4.2-.9-.5-.6-1-3.2-1.6-7.3-1.9-6-.4-6.6-.2-12.8 4zm20.7 2.3c3.4 3.4 3.5 3.8 3 8.6-.4 2.8-1.4 6.4-2.4 8-2.9 4.4-12.4 10.8-16.1 10.7-6.5-.2-14.9-11.1-13.6-17.7.4-1.8 1.3-3.1 2.2-3.1.8 0 3.9-2.3 6.8-5 5.1-4.8 5.5-5 10.9-5 5.2 0 6 .3 9.2 3.5zM85.6 146.7c-.6 1.4-.5 1.5.5.6.7-.7 1-1.5.7-1.8-.3-.3-.9.2-1.2 1.2zm4.4-.6c0 .5.5.7 1 .4.6-.3 1-.8 1-1.1 0-.2-.4-.4-1-.4-.5 0-1 .5-1 1.1zm-8.8 2c.2.7 1 1.5 1.7 1.7.8.3 1.2-.1.9-.9-.2-.7-1-1.5-1.7-1.7-.8-.3-1.2.1-.9.9zM70 155c0 .5.5 1 1.1 1 .5 0 .7-.5.4-1-.3-.6-.8-1-1.1-1-.2 0-.4.4-.4 1zm6.1 3.6c1.3 1.6 2.9 1.9 2.9.5 0-.5-.9-1.1-2.1-1.4-1.6-.4-1.8-.3-.8.9zm158.4 1.4c-.4.6-1.5.8-2.6.5-1-.4-1.9-.2-1.9.4 0 .6-.7.8-1.5.5-.8-.4-1.7.1-2.1 1-.3.9-1.2 1.6-1.9 1.6-1.6 0-3 7.8-2.1 11.4.3 1.3 2.1 3.3 3.8 4.4 4 2.5 10.9 3.3 11.6 1.4.3-.9-.4-1.2-1.9-1.1-4.4.4-5.9-.1-5.9-1.9 0-1.4-.2-1.5-1-.2-1.5 2.4-2.5.1-2.5-6.1 0-8.1 1.9-9.9 9.8-9.2 3.9.4 5.7 1 5.7 1.9 0 .8.5 1.4 1 1.4 1.7 0 1.1-4.2-.7-5.6-2.1-1.6-6.9-1.8-7.8-.4zm-81.2 4.2c-2 1-4.6 6.2-4.2 8.4.3 2.1-.2 2.8-1.1 1.4-1.3-2.2-2.1-.8-2.9 5.5-.8 5.7.5 14.5 2.1 14.5.4 0 .8.7.8 1.6 0 2 4.2 8.2 6.9 10.1 1.2.8 1.9 1.9 1.6 2.4-.4.5-.1.9.5.9s1.3-.7 1.7-1.6c.3-1 .8-1.2 1.2-.5.9 1.4 12 2.2 14.2 1 1.2-.6 2-.5 2.4.2.8 1.1 6.2.3 8.3-1.3.6-.6 1.2-1.7 1.2-2.5 0-1.2-.7-1.4-3-1-1.6.4-3 .3-3-.1 0-.5-2.2-1.8-4.9-3-8.7-3.8-18.1-14.3-18.1-20.3 0-1-.4-2-1-2.4-.5-.3-.7-1.2-.4-1.9.3-.8.1-1.7-.5-2-.6-.4-.5-2.1.5-4.8 2.2-6.2 1.9-6.7-2.3-4.6zm-.3 6.2c-1.5 1.9-.2 11.7 1.8 13.3 1 .8 1.1 1.3.4 1.3-2.1 0-1.3 2.5 1.9 6.1 1.6 1.9 3.3 3.4 3.7 3.4 2.4.2 5.2 1.9 5.2 3.1 0 .8.5 1.2 1 .9.6-.3 1-.2 1 .3 0 1.1 6.6 4.2 9 4.2 1.1 0 2 .4 2 .8 0 1.5-10.1 1.2-13.5-.4-1.9-.9-4.3-1.3-5.3-1-1.5.5-2.9-.5-6.1-4.3-2.2-2.7-4.1-5.6-4.1-6.4 0-.9-.4-1.9-1-2.2-.5-.3-1-1.5-1-2.5s-.6-2.1-1.2-2.3c-.8-.3-.6-.6.5-.6 1.8-.1 2.5-2.1.7-2.1-.5 0-1-.7-1-1.6 0-.8.4-1.3.9-1 .5.3 1.4-1.6 2.1-4.2 1.7-6.1 3.2-9.1 3.8-7.4.2.7-.1 1.9-.8 2.6zm91.3-4.9c-.6 1.4-.7 2.5-.2 2.5 2 0 .7 4.8-2.2 8.3-1.7 2.1-2.8 4.1-2.4 4.5.3.4 1.3-.2 2-1.3.8-1.1 2-2.6 2.6-3.3 1.6-1.9 2.6-7.2 1.9-10.4l-.5-2.8-1.2 2.5zm-109.2 2.6c-1.8 2.1-3.7 3.7-4.1 3.4-.5-.3-1.1-.1-1.5.5-.3.5-1.7 1-3.1 1-2.2 0-2.3.3-1.4 2 .8 1.4.8 2 0 2-.6 0-1.3-.7-1.6-1.5-.4-.8-1.4-1.5-2.3-1.4-1 0-1.1.2-.3.6.6.2 1.2.9 1.2 1.4 0 1.1-2.3.7-3.2-.6-.4-.6-.8 0-.8 1.2s-.3 2.3-.7 2.6c-.5.2-.2.2.5 0 1.7-.4 1.1 1.4-3.4 11.3-1.9 4.1-3.4 7.9-3.4 8.5 0 .5-2.2 6.2-4.9 12.7-2.7 6.4-6.6 16.5-8.5 22.4-2 5.9-5.7 15.5-8.1 21.4-2.5 5.9-4.5 11.7-4.5 13 0 5.4-3.2 11.9-8 16.4-4.7 4.4-8 11.6-6.5 14 1.1 1.8 7.2 1 10.8-1.4l3.6-2.5 1.3 3.5c2.6 7.3 10.8 2.1 10.8-6.9 0-1.8-.4-3.7-.9-4.2-.5-.6-.5-3.7.1-7.5.5-3.6 1.3-8.8 1.7-11.5.5-3.4 1.1-4.9 2-4.7 1 .2 1.2-.4.7-2.3-.5-1.8-.2-2.5.9-2.5.8 0 1.5-.5 1.5-1.1 0-.6.7-1.7 1.5-2.5.8-.9 1.5-2.6 1.5-3.9 0-1.3.6-2.6 1.3-2.8.8-.4.8-.6 0-.6-1.3-.1-.5-4.1 1.2-5.6.7-.6 3.8-7.5 7-15.5 3.1-8 6.1-15.4 6.5-16.5 3.4-8.5 4-10.8 3.1-11.9-.6-.7-.6-1.7-.1-2.6.6-.8 1-1.1 1-.5 0 .5 1.6-2 3.6-5.8 1.9-3.7 3.2-7.2 2.9-7.7-.3-.6-.1-1 .4-1 .6 0 1.1-1.1 1.1-2.5 0-3.1 3.9-9.3 6.3-10.1.9-.3 1.7-1 1.7-1.5 0-.6.5-.7 1-.4.6.3 1 .2 1-.3 0-1.7-1.3-2.2-2.7-1-1 .8-1.7.9-2.1.1-.4-.7-2 .5-4.1 2.8zm-4.4 12.4c-2 5.6-3.1 6.6-4.1 4-.3-.8-.1-1.5.5-1.5.7 0 .9-1 .5-2.5-.4-1.7 0-3.1 1.4-4.5 3.3-3.3 3.9-1.5 1.7 4.5zm-6.7 2.7c0 2.5-2.1 11.4-3.8 16.3-.6 1.6-1.8 6-2.7 9.7-1 3.7-2.3 7.2-3.1 7.9-.8.6-1.4 1.9-1.4 2.9 0 1.9-1.9 5.7-10.8 21.4-3.4 6-6.2 11.2-6.2 11.5 0 .4-.9 1.2-2 1.9-2.5 1.5-2.5.9-.1-3.7 1.1-2 2.7-6.1 3.7-9.1 2.3-7.4 12.3-32.3 13.5-33.5.5-.5.9-1.7.9-2.6 0-1.4 2.6-8.8 8.1-22.7.5-1.2 1.5-2.2 2.4-2.2.9 0 1.5.9 1.5 2.2zm-20.7 66.5c-.3 1-1.8 3.8-3.2 6.3-1.8 3.1-2.7 4-2.9 2.8-.2-1 1.1-3.8 2.8-6.3 3.3-4.7 4.3-5.7 3.3-2.8zM97 262c0 .5-.4 1-1 1-.5 0-.6.8-.3 1.7.6 1.5.4 1.6-.9.5-1.1-.9-1.8-1-2.3-.2-.9 1.5-2.5.2-1.8-1.6.3-.8 1.2-1.3 1.9-1 .7.3 1.6.1 1.9-.4.8-1.3 2.5-1.3 2.5 0zm-2 6.2c0 .5-.7.8-1.6.8-1.1 0-1.4.6-.9 2 .3 1.1.3 2.5-.1 3.2-1 1.6-1.2 7-.3 8.3.4.5 1.2 3.5 1.8 6.6 1.4 6.4.4 10.3-2.8 11.2-1.6.4-2.4-.2-3.7-2.9-2.2-4.6-3-4.9-5.6-2-2.4 2.6-8.2 4.4-9.2 2.8-2-3.2 6.2-15.2 10.4-15.2 2 0 3-1.9 3-5.4 0-1.3 1.1-3.5 2.5-4.8 1.5-1.5 2.3-3.2 1.9-4.1-.4-1.1.1-1.5 2-1.3 1.4 0 2.6.4 2.6.8zm-.3 7c-.3.8-.6.5-.6-.6-.1-1.1.2-1.7.5-1.3.3.3.4 1.2.1 1.9zM289 167.9c0 3.9.1 4 5.8 6 3.1 1.2 6.9 2.8 8.4 3.6 1.4.8 3.5 1.5 4.7 1.5 2 0 2-.1.3-2.1-3.5-4.3-10.4-10.4-13-11.6-5-2.2-6.2-1.7-6.2 2.6zm6.8.5c1.5.8 3.6 2.4 4.7 3.7 2 2.2 2 2.2 0 1.4-1.1-.4-3.3-1-5-1.4-2.1-.5-3.1-1.4-3.3-2.9-.4-2.6 0-2.7 3.6-.8zM114 178.1c0 .5.5.7 1 .4.6-.3 1-.8 1-1.1 0-.2-.4-.4-1-.4-.5 0-1 .5-1 1.1zm173 3.6c0 .7.6 1.3 1.4 1.3.8 0 1.8 1 2.2 2.2.3 1.3 1.3 3 2 3.9 5.1 5.8 2.5 24.3-4.6 33.3-10.7 13.4-11.4 14.6-8.7 14.6 2 0 7.8-4.6 6.9-5.5-.4-.5-.2-.5.5-.1s2.1-.1 3.1-1.1c1.1-1 4.1-3.8 6.7-6.2 3.8-3.5 5.3-5.8 7.2-11.3 2.3-7 3.3-20.8 1.5-20.8-.5 0-1.4-1.1-2-2.4-.6-1.3-2.4-3.9-4.2-5.9-2.7-3.1-3.6-3.5-7.5-3.4-2.8.1-4.5.7-4.5 1.4zm13.9 10.6c1.1 3.3 1.2 16.7.1 16.7-.3 0-1.4 2.1-2.4 4.7-1.6 4.5-9 14.3-10 13.3-.2-.3 1.3-2.5 3.5-5 4.5-5.1 4.5-5.2 6.3-15.4.9-5.4 1-7.6.2-7.7-.8 0-.8-.2 0-.5.6-.3.9-1.6.6-2.9-.2-1.4-.9-2.2-1.5-1.8-.6.3-.7.1-.3-.6.4-.6-.2-2.4-1.3-4-2.9-4-2.6-4.6.8-2.2 1.6 1.2 3.4 3.6 4 5.4zm-45.9 8.3c-4 2.7-5 4.5-5 9.1 0 5.3 2.3 9.1 6.7 11 4.1 1.7 7.7.8 9.7-2.3 2-2.9 2-3.4.1-3.4-.8 0-1.5.7-1.5 1.5 0 .9-1 1.9-2.2 2.4-2 .7-2.5.4-3.5-2.3-.6-1.8-1.2-2.3-1.2-1.4-.1 1.1-.9 1.8-2.2 1.8-1.9 0-2-.2-.8-1.7 1.1-1.3 1.1-1.7.2-2-1.7-.6-1.7-7.4 0-9.7 1.1-1.5 2.1-1.7 5.4-1.1 4.4.7 5.8 3 5.4 8.7-.1 1.6.2 2.8.8 2.8.6 0 .8-.7.5-1.5-.5-1.1-.2-1.3 1.2-.8s1.6.3 1-1.3c-.5-1-1.2-3.3-1.6-5-.9-4-1.9-5.6-3-4.9-.5.3-1.1.1-1.5-.5-1-1.5-5.8-1.2-8.5.6zm-91.8 15.9c-.7 1.4-1.5 4.3-1.8 6.4-1 6.3 4.8 17.1 9.3 17.1 1.5 0 1.4-.2-.4-1.5-2-1.4-3.8-5.5-2.5-5.5.7 0 .9-2.4 1.2-10.9 0-3.2-.5-4.9-1.9-6.2-2.5-2.4-2.6-2.4-3.9.6zm2.9 9.5c-.9 2.2-1 2-1-2.1-.1-2.5.2-4.9.7-5.3 1.1-1.2 1.4 4.7.3 7.4zm19.4-1.8c-3.2 1.8-3.5 2.9-3.1 10.4.4 6.8 4.4 18.4 6.4 18.4.4 0 1.6 1.3 2.5 3 1 1.6 2.4 3 3 3 .7 0 1.8.9 2.4 2 1.2 1.8 11.1 7 13.3 7 1.9 0 1-4.2-1-4.7-1.1-.3-2-1-2-1.5s-.4-.7-.9-.3c-.5.3-1.2-.5-1.4-1.7-.4-2-.4-1.9-.6.4-.1 2.9-2.3 3.8-3.7 1.6-.5-.8-.2-.9.9-.5 1.4.5 1.7 0 1.6-2.6 0-2.7-.2-2.9-.9-1.2s-.9 1.5-.9-1.2c-.1-2.1-1-4.1-2.8-5.9-1.6-1.5-2.2-2.3-1.6-2 1 .5 1.1.1.4-1.6-.4-1.3-1.1-2.2-1.5-2.1-.3.2-1.1.3-1.7.3-.6 0-.7.5-.2 1.2.8 1.4.9 1.7 1.9 6.3.7 2.7.6 2.9-.9 1.6-1-.7-1.7-2-1.7-2.7 0-.8-.6-1.4-1.4-1.4-1.7 0-5.3-7.5-6.2-12.9-.6-3.6-.4-4.1 1.2-4.1s1.7-.2.4-1c-.8-.5-1-1-.4-1 .5 0 1.5.5 2.2 1.2.9.9 1.2.9 1.2-.1 0-.7.4-1 .9-.7.5.3 1.1-.3 1.4-1.4.5-2-2-5-4.2-5-.7 0-.9-.5-.6-1 .8-1.2.5-1.2-2 .2zm13.9 34.3c-1 2.6-2.1.7-1.6-2.7.5-3 .6-3.1 1.3-1 .5 1.2.6 2.9.3 3.7z"/><path d="M190.4 235.7c.3 1 .8 3 1.2 4.5 1 4.3 2.6 3.3 2.2-1.4-.2-3.2-.8-4.4-2.1-4.6-1.4-.3-1.8.1-1.3 1.5zM407 254.8c-6.4 6.4-5.3 11.8 2.9 14.7 6.4 2.2 9.6 1.9 13.2-1.3 2.8-2.5 3.1-3.2 2.5-6.5-.4-2-1.3-4.3-2.1-5.1-.8-.8-1.5-1.9-1.5-2.4s-1.3-1.2-2.9-1.5c-1.6-.3-4-.9-5.5-1.3-2.2-.5-3.3.1-6.6 3.4zm12.4 1.4c.6.7 1.8 2.7 2.5 4.5 2.4 5.9-2.5 9.9-9.2 7.3-4.1-1.7-5.7-3.7-5.7-7.1 0-2.9 2.1-5.1 2.8-3 .3.8.9.5 1.9-.8 1.6-2.3 5.8-2.8 7.7-.9zM249 252.8c-1.3.5-1.3 8.2 0 8.2.6 0 1-.5 1-1.1 0-.6.9-.8 2-.4s2 .2 2-.4c0-.6 1.2-2.2 2.7-3.6 1.5-1.4 2.3-2.6 1.8-2.6-2.2-.4-8.5-.4-9.5-.1zm10 4.7c0 1.4-.7 3.7-1.6 5-1 1.5-1.2 2.5-.5 2.5 1.2 0 4.1-5.2 4.1-7.4 0-.8-.4-1.8-1-2.1-.6-.4-1 .5-1 2zm-7.8 5.2c.2.9.8 1.8 1.5 2 .7.3.9-.3.6-1.6-.6-2.5-2.6-2.8-2.1-.4zm-39.2 3.8c0 .8.5 1.5 1 1.5.6 0 1-.7 1-1.5s-.4-1.5-1-1.5c-.5 0-1 .7-1 1.5zm215.3 9.3c-1.8.8-3.3 2.2-3.3 2.9 0 1.6 0 1.6-3.7-.2-2.7-1.3-3.4-1.3-6.6 0-6.6 2.7-7.5 7.5-3 16.6 3.6 7.3 5.7 14.5 4.9 16.5-.3.8-.1 1.4.5 1.4s.8.4.5.9c-.3.5-.1 3.3.5 6.2.6 3 1 7 1 9.1-.1 3.2.1 3.6 2.2 3.1s2.1-.5.3.9c-1.7 1.3-1.8 2-.8 6 .6 2.5 1.4 8.1 1.7 12.4.4 4.3 1.5 11.1 2.6 15 1 3.8 2.1 9.5 2.3 12.5.2 2.9 1.1 9.2 1.9 13.9 2.5 13.5 4.8 29.1 5 34.3.2 3.7-.2 4.8-1.5 5.3-1 .3-1.8.9-1.8 1.3 0 1.2 12.7 13.5 14.8 14.3 2.2.8 8 1 11 .2 2-.6 2.2-1.1 1.6-4.2-.4-1.9-1.9-5.4-3.4-7.6-3.1-4.8-4.5-10.9-6-26.1-.6-6.1-2.2-20.2-3.5-31.5-1.4-11.3-2.9-25.7-3.5-32-.6-6.3-1.8-16.4-2.6-22.4-1-7.6-1.2-14.5-.7-23 1.1-19.7 1-23.4-.7-24.9-2.4-2.3-6.2-2.6-9.7-.9zm7.5 3.9c1.3 3.2 1 6.4-1.1 11.3-1 2.4-1.3 6.2-1.1 12.2l.4 8.7-3.8 1c-9.3 2.5-9.2 2.5-9.2.2 0-1.8.6-2.1 4.3-2.1 3.9 0 6.7-1.3 6.7-3.1 0-.4-1.7-.3-3.7.2-6.5 1.5-8.3 1.2-8.3-1.4 0-1.2-1.3-4.7-3-7.8-1.6-3.1-3.4-7.5-3.9-9.8-.7-3.5-.6-4.5 1.1-6.6 2-2.5 4.4-2.5 3.4.1-.3.8-.1 1.4.4 1.4.6 0 1-.7 1-1.5 0-1.3.3-1.3 2-.3 1.1.7 2 2.1 2 3 0 1 .6 1.8 1.3 1.8 1.6 0 3.7-2 3.7-3.6 0-6.2 5.8-8.9 7.8-3.7zm-1.6 39.5c.2 5.7.2 6.1 1.1 7.5.4.7.7 4.3.6 8-.1 3.8.3 8.6.9 10.8.5 2.2 1.3 6.5 1.6 9.5l.6 5.5-1.7-3.3c-.9-1.9-2.6-3.8-3.7-4.2-1.2-.5-1.8-.9-1.4-.9.4-.1-.7-1.6-2.3-3.4-1.6-1.7-3.2-4.1-3.4-5.2-3-14.9-3.6-18.6-3.7-22l-.2-4 4.2-.3c2.3-.2 4.2-.7 4.2-1.3 0-.5.7-.9 1.5-.9 1.1 0 1.5 1.2 1.7 4.2zm.9 42.3c.3 4.3-.4 7.1-2.3 10.2-1.1 1.8-2.1 3.3-2.3 3.3-.2 0-.3-1.5-.3-3.4s-.3-3.9-.6-4.5c-.4-.5-.1-1.3.5-1.7.7-.4.8-.9.1-1.3-.6-.3-1.3-2.5-1.5-4.8l-.5-4.2 3.4 2.2c1.8 1.2 3.4 3.1 3.5 4.2zm6.1 15.7c.4 3.6.2 4.8-.8 4.8-2.6 0-4.1-4.7-3-9.5 1-4.2 1.1-4.3 2.2-2.2.6 1.2 1.4 4.3 1.6 6.9zM435 386c0 .5 1.1 1 2.5 1s2.5.3 2.6.7c0 .5.3 1.9.5 3.3s.6 4.7.7 7.5c.2 2.7.7 5.8 1.2 6.8.5 1.3.2 2.2-1.4 3.3-2.2 1.6-2.9 4.4-1.1 4.4.6 0 1-.5 1-1 0-.6.5-1 1-1 .6 0 1 .7 1 1.6 0 .8-.4 1.3-.9.9-.5-.3-1.2-.1-1.6.5-.3.5-1.3 1-2.2 1-1.2 0-1.4-.9-1.1-3.9.2-2.2 0-3.7-.4-3.5-.5.3-.8-.4-.8-1.5 0-1 .5-2.1 1.1-2.3.9-.3.9-.9 0-2.5-.6-1.2-.8-2.9-.5-3.7.3-.9.2-1.6-.4-1.6-.5 0-1.2-1.8-1.6-3.9-.3-2.2-.9-4.6-1.2-5.5-.3-.9-.1-1.6.5-1.6s1.1.4 1.1 1zm8.7 34.2c-.3 2.7-.8 3.4-3 3.6-1.9.2-2.7-.1-2.7-1.2 0-.8-.3-2.1-.6-3-1-2.5 2.1-1.9 3.4.6 1 2.2 1.1 2.2 1.1.2.1-1.9.9-3.4 1.8-3.4.2 0 .2 1.5 0 3.2zm1.3 8.7c.5 1.1 1 2.9 1 4s1.1 2.5 2.6 3.3c5.2 2.6 7.1 9.8 2.6 9.8-1 0-3.8-1.8-6.2-4-2.5-2.2-5-4-5.6-4-.6 0-1.8-.8-2.7-1.8-1.5-1.6-1.5-1.9.3-2.9 1-.7 1.7-2 1.5-3-.4-2.6.3-3.3 3-3.3 1.4 0 2.9.8 3.5 1.9z"/><path d="M419.6 290.7c-.6 1.4-.5 1.5.5.6.7-.7 1-1.5.7-1.8-.3-.3-.9.2-1.2 1.2zm.4 3.3c0 .5.5 1 1.1 1 .5 0 .7-.5.4-1-.3-.6-.8-1-1.1-1-.2 0-.4.4-.4 1zm-142-5.4c0 2.3.3 2.5 2.5 2 2.6-.7 3.1 0 1.6 2.3-.8 1.3-1.2 1.3-2.7 0-1.6-1.3-1.7-1.2-1.1.4.4 1 .7 2 .7 2.2 0 .1 1.7-.3 3.8-1.1 4.6-1.6 9.7-1.8 12.5-.3 2.8 1.5 8.4 7.7 9 10 .5 1.7-.3 1.8-8.8 1-.6-.1-1-2.4-.9-5.1 0-2.8-.4-5-.9-5s-.7 1.8-.3 4.4c.7 4.3.6 4.4-2.5 5.1-5 1.1-2.1 2.3 6.6 2.7 9.1.4 9.2.5 9.4 10.9.1 4.7-.4 6.1-3.1 10-3.3 4.5-6.5 7.3-8.3 7.4-.5 0-2.2.8-3.7 1.8s-3.2 1.6-3.7 1.3c-.5-.4-1.2-.2-1.5.3-.4.5-4.2.8-8.6.7-6.8-.1-8 .1-7.5 1.4.4 1.2.3 1.2-.8-.1-1-1.3-7.3-2.7-13-2.9-.5 0-.7-.8-.5-1.8.1-.9-.1-2.3-.5-3-.5-.7-.3-1.2.7-1.2.9 0 1.7-1.5 2.1-4 .4-2.2 1.1-4 1.6-4 1.2 0 1.1.6-.2 3.3-1 2.1-.9 2.1 1-.2 2.3-2.5 2.8-4.7.9-3.5-.8.5-.9 0-.6-1.4.4-1.2.2-2.2-.3-2.2-1.6 0-5.9 7.4-7.5 12.8-2.4 8.2-2.8 5.4-.6-3.6 1.9-7.3 3.1-9.7 7.1-13.9.7-.8 1.5-2.8 1.7-4.6.4-4.5.4-4.5 1.6-1.7 1.7 4 1.8 5.4.6 7.8-1 1.8-.9 2.5.1 3.1.7.5 1.2 1.1 1.2 1.5-.2 1.6 0 1.6 1.4.2.8-.8 1.5-1.8 1.5-2.1 0-1.4 6.1-6.3 8.7-7 1.6-.4 2.2-1 1.6-1.2-.7-.3-1.3-.9-1.3-1.4 0-.6.8-.5 2 .1 1.6.9 2 .8 2-.5 0-.8.9-1.5 2-1.5s2-.5 2-1c0-1.3-1-1.3-4.9.1-4.4 1.6-5.8-.2-6-7.9-.1-1.3-.5-2-1.1-1.7-.5.3-1 .1-1-.4 0-.6 1-1 2.1-.8 1.2.1 2.4-.4 2.6-1.1.3-.6-.2-1.2-1.1-1.2-2 0-9.6 6.8-9.6 8.6 0 1.9.6 1.8 3-.6 3-3 3.7-2.5 3.8 2.7.1 3.6-.3 5-1.9 6.1-1.2.8-1.8 2-1.4 2.9.4 1.3.3 1.4-1 .3-.8-.7-1.5-1.9-1.5-2.6 0-.8-.4-1.4-1-1.4-.5 0-1-1.6-1-3.5 0-2.4-.5-3.5-1.5-3.5-.8 0-1.5.5-1.5 1.1 0 .5-.4.7-1 .4-.6-.4-1 .5-1 1.9s-.4 2.6-1 2.6c-.5 0-1 .6-1 1.4 0 .7-.6 1.9-1.4 2.5-.8.7-1.7 2.4-2.1 3.9-.4 1.5-1.2 3.3-1.8 4-.6.8-1.1 2.6-1.2 4-.1 1.5-.4 3.4-.8 4.2-.3.8-.7 2.4-.9 3.5-.3 1.6-1.1 2-3.8 2-1.9 0-4.5-.3-5.7-.7-1.3-.4-2.3-.2-2.6.5-.7 2.1-1.7.2-1-2.1.3-1.3 1-1.9 1.7-1.5.6.4.5-.1-.3-1-.9-1.1-1-1.7-.2-1.7.6 0 1-.3 1-.8-.4-2.3.3-4.2 1.5-4.2 1.5 0 4.6-5.7 4.6-8.4 0-.9.5-1.6 1-1.6.6 0 1-.6 1-1.4 0-1.6 5.6-7.6 7.1-7.6.5 0 .8-.4.5-.8-1-1.6 8.6-6.7 19.7-10.5 2.2-.8 3.3-3.5 1.9-4.9-1.1-1.1-7.2-.1-7.2 1.2 0 .4.9.6 2 .3s2-.1 2 .4c0 1.1-3 1.3-4.5.4-1.7-1.2-6.5.4-6.5 2.1 0 .6.8.7 1.8.4 2.4-.9-1 1.8-6.7 5.2-4.8 2.8-11.1 8.7-11.1 10.3 0 .6-1.2 2.6-2.7 4.6-1.5 2-3.4 5.6-4.3 8.1-.9 2.5-2 4.7-2.6 4.9-.5.2-1.8-2.8-2.7-6.6-1-3.8-3.4-9.9-5.3-13.6-1.9-3.7-3.3-6.9-3.1-7.1.2-.3 1.6 0 3.1.6 3.9 1.5 11.4 1.2 19.3-.6 8.3-1.9 10-3.2 4-3-2.5 0-4.3.4-4.1.8.3.4-.7 1-2.2 1.4-1.6.4-2.9.2-3.4-.6-.6-1-.9-.9-1.3.1-.4 1.2-.7 1.1-1.6-.1-.8-1.2-1.1-1.2-1.1-.2 0 1.1-1.2 1.3-5.2.8-9.6-1-11-1.3-11.7-2.4-.3-.6-2.6-1.5-5-2.1-4.4-1-7.9-3.1-5-3.1.7 0 .1-.7-1.5-1.5-3.5-1.9-4-1.9-3.3 0 .4.8.2 1.7-.3 2-.9.6-1.4-.8-1.1-2.8.2-1.1-2.4-.8-3.8.5-.8.7-1.1.8-.8.3.3-.6-1.9-1-5.8-1.1-5.7-.1-6.2 0-5.7 1.8.3 1.3.7 1.6 1.2.8.4-.7 1.6-1 2.6-.8 2.4.4 2 4.5-.6 7.2-2.1 2.2-4 1.4-3.3-1.4.3-1.1 0-2-.6-2s-1.1.9-1.1 2.1c0 1.2-.8 2.3-2 2.6-1.1.3-2 .9-2 1.4 0 1.3 2.8 1.1 3.6-.2.5-.8.8-.8 1.3 0 1 1.6 9.1 2.2 9.2.8 0-.7.4-.2.9 1 .6 1.3 1.8 2.3 3 2.3 1.5 0 2 .7 2 2.6 0 2.2.2 2.5 1.5 1.4 1.6-1.4 3.3-.5 6.8 3.5 4 4.6 9.3 20.5 6.8 20.5-.3 0-1.2 1.3-1.9 3-.8 1.6-2 3-2.7 3-.7 0-1.6.6-1.8 1.2-.4 1-.6 1-.6 0-.1-1.9-4.1-1.5-4.1.5 0 1.3-.3 1.4-.8.6-.6-.9-1.6-1-3.8-.3-5.1 1.6-12.9 2.9-13.4 2.2-.3-.4-1.4-1.2-2.5-1.8-1.6-.9-2.3-.8-3.3.2-1.6 1.8-1.5 2.5.3 1.8.8-.4 2.1-.2 2.8.4.6.5 2.4 1.2 4 1.6 3.2.8 3.4 2 .8 6.2-2.3 3.8-6.5 4.9-11.8 3-4.4-1.5-6.2-4.4-6.3-10.1-.1-3.7-.2-3.8-1.1-1.5-2.2 5.4 0 10.2 6.8 14.7 3.8 2.6 15.1-.2 13.9-3.4-.4-1.1-.2-1.3.9-1 1 .5 1.8-.5 2.6-3.1 1-3.6 1.3-3.8 8.3-5.5 4-.9 8.8-1.7 10.7-1.7 1.9 0 3.9-.4 4.5-.8 1.7-1.6 9.1-3.2 14.5-3.2 3 0 8.3.9 11.9 2 8.4 2.7 21.2 5 27.3 5 4.5 0 4.9.2 7.5 4.3 1.5 2.3 3.4 4.2 4.2 4.2 1.8-.1 1.5-2.1-.5-4.2-1.8-1.7-1.9-2.9-.4-3.9.6-.3 1.5 0 2 .7.7 1.2.9 1.2.9 0 0-1 .3-1.1 1.4-.2 1.1.9 1.7.8 2.9-.4.9-.8 2.2-1.5 2.9-1.5.8 0 3.2-1.8 5.3-4 3-3.1 4.5-4 6.2-3.5 1.7.4 2.1.2 1.7-1-.4-.8-1-1.5-1.5-1.5s-.9-.5-.9-1c0-.6.8-1 1.9-1 2.2 0 3.7-3.5 4.6-10.8.6-4.3.2-6.7-2.1-13.3-2.4-6.8-3.3-8.3-5.9-9.4-1.6-.7-2.3-1.4-1.5-1.4 2.5-.2-7-4.1-10-4.1-2.1 0-3.4-.9-4.9-3.3-1.1-1.7-2.1-2.5-2.1-1.7 0 1.3-.1 1.3-1 0s-1.1-1.3-2.1 0c-.8 1.1-1.2 1.2-1.6.2-.8-2.1-2.3-1.3-2.3 1.4zm-74.5 2.7c1.7.5 3.4 1.6 3.8 2.4.4.7 1.5 1.3 2.2 1.3.8 0 1.5.9 1.5 2s.5 2 1.1 2c.5 0 .8-.4.5-.9-.4-.5-.3-1.6 0-2.5.5-1.3 1.1-1.3 5.1.2 4.6 1.8 5.5 2.9 10.3 13.5 1.2 2.7 2.7 6.5 3.2 8.5 1.9 7.7 3.5 16.2 2.9 16.3-.3.1-2.2 0-4.1 0-1.9-.1-4.9.3-6.6.8-2.2.6-3.6.5-4.3-.2-1.8-1.8-1.2-2.9.9-1.7 1.1.6 2 .9 2.1.8.6-2.7.6-5.9-.2-6.3-.5-.4-.9-2.2-.9-4.1 0-2.6.3-3.3 1.3-2.8.9.6.9.5 0-.7-.6-.8-1.4-3.4-1.6-5.9-.7-5.5-5-17.3-6.6-17.8-.6-.2-.1 2.1 1.3 5.1 2.9 6.5 3.7 11.8 1.9 12.4-.8.3-1.3-.5-1.3-2.1 0-1.4-.4-2.6-1-2.6-.5 0-1-.6-1-1.3 0-.7-1-1.3-2.2-1.4-2.9-.3-4-2.4-2.2-4.4.8-.8 1.1-1.9.8-2.2-.4-.4-1.8.6-3 2.1-1.3 1.5-2.4 2.1-2.4 1.4 0-.6-.7-1.2-1.5-1.2s-1.5-.5-1.5-1c0-.6.3-1 .8-1 .4 0 .8-1.6.9-3.5.2-2.6-.1-3.5-1.2-3.5-1 0-1.5 1-1.5 3.1 0 2.8-.2 3.1-2.5 2.5-1.5-.4-2.5-.2-2.5.4 0 .6-.5.8-1 .5-1.2-.8-.3-7.3 1.3-9.3.6-.7 1.7-1 2.6-.6.9.3 3 1.1 4.6 1.7zm82.5.3c0 .8-.4 1.2-1 .9-.5-.3-1-1-1-1.6 0-.5.5-.9 1-.9.6 0 1 .7 1 1.6zm-43 26.9c0 .8-.4 1.5-1 1.5-.5 0-.7-.7-.4-1.5.4-.8.8-1.5 1-1.5.2 0 .4.7.4 1.5z"/><path d="M222.1 325.6c0 1.1.3 1.4.6.6.3-.7.2-1.6-.1-1.9-.3-.4-.6.2-.5 1.3zm-37-36.9c-.1.7-.7 1.3-1.5 1.3-1.6 0-2.9 2.7-1.7 3.4 1.2.8 4.4-3.1 3.8-4.6-.4-1-.6-1-.6-.1zm72.4 2.3c-.3.5.1 1 .9 1 .9 0 1.6-.5 1.6-1 0-.6-.4-1-.9-1-.6 0-1.3.4-1.6 1zm-79.5 5.3c0 1.8-2.3 6.7-3.2 6.7-.4 0-.5.7-.2 1.5s.1 3.7-.6 6.4c-.7 2.9-.9 6.8-.4 9.6.8 5.9 2.3 4 1.9-2.5-.3-5.4 1.5-13.2 3.2-14.3.8-.5 1.1-1.8.7-3.1-.3-1.3-.1-2.7.5-3.1.6-.3.9-1.1.6-1.6-.9-1.3-2.5-1.1-2.5.4zm105-.5c0 2.1 2.5 9.2 3.2 9.2.4 0 .1-2.1-.7-4.6-1.4-4.7-2.5-6.7-2.5-4.6zm16 5.8c0 .8.5 1.2 1 .9.6-.4.8-1.1.5-1.6-.9-1.4-1.5-1.1-1.5.7zm-224 4.6c-4.1 1.1-5 2.3-5 6.1 0 2.7 2.5 8.7 3.6 8.7.3 0 .3-.4-.1-.9-.3-.5-.1-1.2.4-1.5.6-.4.4-1.7-.4-3.2-2.5-4.9-.6-6.1 9.3-5.5 4.1.3 4.9-.3 3.4-2.5-1.1-1.7-7.3-2.3-11.2-1.2zm211 2.3c0 .8.5 1.5 1 1.5.6 0 1-.7 1-1.5s-.4-1.5-1-1.5c-.5 0-1 .7-1 1.5z"/><path d="M85.4 312.6c.3.9.6 2 .6 2.5s.4.9 1 .9c.5 0 .9-1.1.8-2.5-.1-1.4-.9-2.5-1.6-2.5-.9 0-1.2.6-.8 1.6zm.3 6.1c-.4.3-.7 1.1-.7 1.7 0 .6.5.5 1.2-.2.6-.6.9-1.4.7-1.7-.3-.3-.9-.2-1.2.2zm-10.4 1.8c0 .8.9 1.5 1.9 1.5 1.7 0 1.8-.2.4-1.5-.8-.8-1.6-1.5-1.9-1.5-.2 0-.4.7-.4 1.5zm5.5 1.2c.7.3 1.6.2 1.9-.1.4-.3-.2-.6-1.3-.5-1.1 0-1.4.3-.6.6zm95.3 3.3c-1 1.8-.8 8.6.2 9.2.8.5.6.8-.5.8-1 0-1.8.4-1.8 1 0 .5.6.7 1.4.4 1.4-.5 4.6 2 4.6 3.8 0 .6.6.6 1.5-.2 1.8-1.5 2-3.5.3-2.4-.6.4-.8.3-.5-.4 1-1.6-.2-3.9-2.3-4.5-1.3-.3-2-1.6-2.3-4.3-.2-2.2-.5-3.7-.6-3.4zm-96.5 6.9c-.4.5.3.7 1.4.4 2.3-.6 2.6-1.3.6-1.3-.8 0-1.7.4-2 .9zm-18.9 3.5c-.4 1-.1 1.3.8.9.8-.3 1.2-.9.9-1.4-.7-1.2-1.1-1.1-1.7.5zm9.3-.5c0 .6.4 1.3 1 1.6.6.3.7-.1.4-.9-.7-1.8-1.4-2.1-1.4-.7zm6 .1c0 .5-.7 1-1.5 1-1 0-1.5 1-1.5 2.8 0 4.3 1.3 4.8 2.6 1 .6-1.8 1.6-3.2 2.2-3.1.6.2.9-.4.6-1.2-.7-1.7-2.4-2-2.4-.5z"/><path d="M88.7 335.6c-.7 1.2-2.1 12.5-2 16.1.1 1.3-.3 2.3-.8 2.3s-.9 1.2-.9 2.7c0 4.3-1.1 5-7.5 5.4l-6 .4-.6-3.5c-.4-1.9-.7-2.9-.8-2.3 0 .7-.4 1.3-.9 1.3-.4 0-.6-1.9-.4-4.3.2-3.5-.1-4.5-2.3-6-3-2.1-3.4-.8-.4 1.8 1.6 1.6 1.9 2.7 1.4 6.3-.4 2.7-.2 4.1.4 3.8.6-.4.6.5.1 2.5-.7 2.3-.6 3.5.5 4.5 1.9 1.9 2.5 1.8 2.5-.6 0-1.7.7-2 3.9-2 2.1 0 5.3-.3 7-.6 2.7-.6 3.1-.4 3.1 1.5 0 1.2.6 2.1 1.5 2.1.8 0 1.5-.7 1.5-1.6 0-.8-.4-1.3-.9-1-.5.3-1.1-.1-1.5-.9-.3-.8-.1-1.5.5-1.5s.8-.7.5-1.6c-.5-1.4-.4-1.5.8-.5 1.2 1 1.4.5 1.2-2.9 0-2.2.3-4 .9-4 .5 0 .4-.5-.3-1.2-1.7-1.7-1.5-2.8.4-2.8.9 0 1.2-.5.8-1.2-1.1-1.8-1.3-5.2-.3-5.8.4-.3.4-2.1 0-4s-1-3-1.4-2.4zm-.7 20.3c0 .6-.4 1.3-1 1.6-.5.3-1-.1-1-.9 0-.9.5-1.6 1-1.6.6 0 1 .4 1 .9zm88-17.5c0 .9.5 1.6 1 1.6.6 0 1-.4 1-.9 0-.6-.4-1.3-1-1.6-.5-.3-1 .1-1 .9zM62 342c0 3.2.3 3.8 1.6 3.3 1.2-.4 1.2-.8.3-1.3-.6-.5-1-1.9-.7-3.4.3-1.4.1-2.6-.3-2.6-.5 0-.9 1.8-.9 4zm242.7-.3c-.9 2.4-2 4.3-2.4 4.3-.5 0-1.3 1.1-2 2.5-.9 1.9-.8 2.5.1 2.5 2 0 5.6-4.4 5.6-6.8 0-1.5.5-2 1.5-1.6.8.4 1.5.1 1.5-.5s-.4-1.1-.9-1.1-1.1-.8-1.3-1.8c-.2-1.1-.9-.2-2.1 2.5z"/><path d="M76 341c0 .5.5 1 1 1 .6 0 1-.5 1-1 0-.6-.4-1-1-1-.5 0-1 .4-1 1zm212.1 10.4c-2 2.4-.7 4.4 2.3 3.9 1.4-.3 2.3-.9 2.1-1.4-.3-.4 1.2-1 3.2-1.2 3.6-.3 3.5-.4-.9-.5-2.5-.1-4.8-.7-5-1.3-.2-.7-.9-.5-1.7.5zm2.4 1.6c.3.5.1 1-.4 1-.6 0-1.1-.5-1.1-1 0-.6.2-1 .4-1 .3 0 .8.4 1.1 1zm-130.9 8.5c.3 1.5.1 2.4-.5 2.1-1.4-.9-2.2 4.1-1.9 11.7.1 4.3.6 6.3 1.3 5.9.5-.3.3.5-.6 1.8-1.8 2.7-1.5 12.4.3 14.7.6.7.6 1.3.1 1.3-1.4 0-3.4 6-2 6 .7.1.5.6-.4 1.3-2 1.6-3.1 4.5-1.9 5.2.6.4 1 1.7 1 3.1 0 1.3.4 2.4.9 2.4.6 0 .9-1.8.8-3.9 0-2.2-.5-3.7-.9-3.5-1.6 1-.8-.6 1.4-2.8 1.2-1.2 1.7-2.3 1.1-2.5-1.2-.4-.5-4.3.7-4.3 1.3 0 2.3 9.4 1.1 9.8-1.5.5-1.4 2.3 0 2 .7-.2 1.7 2.8 2.6 7.7 1.5 8.7 1.2 11.5-1.1 9.6-1-.8-1.6-.9-2.1-.1-.3.5 0 1 .9 1 .8 0 1.7.6 1.9 1.2.4 1 .8.9 1.6-.2.6-.9 1.1-1 1.1-.3 0 .6.8 1.4 1.8 1.6 1.4.4 1.4.6-.5 1.2-1.6.5-2.3 1.6-2.5 4.4-.2 2-.6 3.5-1 3.3-.5-.1-.7-.3-.6-.5.7-.7-5.7-6.6-7.8-7.1-2.8-.7-3.3-3.6-.6-3.6 1 0 1.3-.3.6-.8-1.9-1.2-2.1-3.7-.5-4.9 2.1-1.5 1.1-2.4-1.7-1.6-1.7.4-2.1 1.1-1.7 2.4.4 1.1.2 1.9-.3 1.9-.6 0-1.3 2.4-1.7 5.2-.4 2.9-1.2 5.9-1.7 6.5-.7.9-.7 1.3.3 1.3s1 .3.1 1.2c-1.6 1.6-1.5 2.8.1 2.8 1.4 0 4.3-6.8 3.3-7.7-.3-.4-.6 0-.6.7s-.2 1.1-.5.8c-1.3-1.3.8-3.5 2.8-3.1 5.4 1.3 12 12 11.5 18.6-.1 1.9.3 4.2 1 5 .6.7 1 1.6.8 1.8-.2.2-.6 2.6-.9 5.4-.3 2.7-1.1 6.6-1.6 8.5-1.6 5-1.4 5.9.9 5.3 2.2-.6 2.6-1.8 1-2.8-.5-.3-1-1.1-1-1.6 0-.6.4-.8.9-.5 1 .7 3.7-7.2 3.3-9.6-.2-1 .2-1.8.7-1.8.6 0 1.1-.7 1.1-1.6 0-.8-.4-1.2-1-.9-.5.3-1-.1-1-.9 0-.9.6-1.5 1.3-1.3.6.1 1.1-.4 1-1.1-.2-.6.1-1.2.5-1.2.5 0 .9-1.5.9-3.3.2-6.7.7-10.7 1.6-10.7.4 0 .1-.7-.7-1.6-2-1.9-2-2.5-.1-1.8.8.4 1.5.1 1.5-.5 0-.7-.7-1.4-1.5-1.7-.8-.4-1.2-1-.9-1.6.3-.5 1.1-.5 1.9.2 1 .9 1.5.2 2.3-3.4.5-2.5.8-5.8.6-7.3-.1-1.5.2-3 .7-3.4.6-.3 1-2.5 1.1-4.9 0-2.4.7-5.9 1.5-7.7.7-1.9 1.4-4.9 1.5-6.8.1-1.9.5-3.5.9-3.5s1-1.2 1.3-2.7c.4-1.4 2-4.5 3.6-6.8s2.6-4.6 2.2-4.9c-.3-.4 0-.5.8-.2 1 .4 2.8-1.3 5.3-4.9 4.8-7 5-11.2.6-14.9-1.7-1.4-4.1-2.6-5.5-2.6-3.6 0-2.9 1.7.7 1.8 4 .1 5.2 1.3 5.1 5.1-.1 4.3-2.7 8.6-9.1 15.2-5.3 5.4-6.1 6.8-9.5 16.9-2 6-3.6 12.7-3.6 14.8 0 2.1-.7 6.2-1.6 9.1-.8 2.8-1.2 6.1-.9 7.1.4 1.1.2 2-.4 2-.5 0-1.1.6-1.4 1.2-.2.7-.3.3-.1-.8.2-1.2-.3-2.7-1.1-3.4-.8-.7-1.5-2.3-1.5-3.6 0-1.3-.7-2.7-1.5-3.1-1-.6-1.1-1.3-.5-2.3.7-1 1-1.1 1-.3 0 .7.4 1.3.9 1.3 1.2 0 .3-8.1-1.4-12.8-1.3-3.5-1.4-3.5-1.4-1-.1 1.6-.6 2.8-1.1 2.8-.6 0-1-1.2-1-2.8 0-1.5-.9-7.1-2.1-12.4-2.2-9.6-2.2-9.8-.3-11.9 1.7-1.9 1.7-2.3.3-4.7-.8-1.5-1.4-4.5-1.3-6.6.3-4.2 2.9-10.5 4.4-10.7.6-.1 1.4-.2 1.9-.3 2.3-.3 2.2-1.6-.2-1.6-1.4 0-3.2-.3-4.1-.6-1.2-.4-1.4 0-1 2.1zm17.4 48.9c0 .3-.4.8-1 1.1-.5.3-1 .1-1-.4 0-.6.5-1.1 1-1.1.6 0 1 .2 1 .4zm-11 5.9c0 2-2.5-.1-2.8-2.4-.2-2.3-.2-2.3 1.3-.5.8 1.1 1.5 2.4 1.5 2.9zm9 12.9c0 1.7-.2 1.8-1.5.4-.8-.8-1.5-1.6-1.5-1.9 0-.2.7-.4 1.5-.4s1.5.9 1.5 1.9zm-7 9.6c0 1.3.2 1.4.9.4.6-1 1-.8 1.4.9.4 1.3.2 2.8-.3 3.3-.6.6-1 2.3-1 3.8 0 1.8-.5 2.8-1.5 2.8-.9 0-1.2.6-.9 1.5.4.8.2 1.5-.4 1.5-1.4 0-2.7-9.3-1.3-9.8.6-.2.9-.8.6-1.2-.8-1.4.6-6.1 1.6-5.4.5.3.9 1.3.9 2.2zm0 17.5c1.1.5.9.6-.4.4-1.1-.1-2.1-.9-2.3-1.7-.3-1-.2-1.1.4-.4.4.6 1.5 1.4 2.3 1.7z"/><path d="M168 442c0 .5.5 1 1 1 .6 0 1-.5 1-1 0-.6-.4-1-1-1-.5 0-1 .4-1 1zm.3-81.5c0 .8.8 1.5 1.7 1.5.9 0 3.1 1.6 5 3.5s3.9 3.5 4.4 3.5c1.1-.1-9.4-10-10.5-10-.3 0-.6.7-.6 1.5zm137.1 2.7c-1.6 1.3-3.8 3.1-4.9 4.1-1.4 1.2-2.8 1.6-4.5 1.2-4.1-1-10.6-1.4-11.6-.7-1.9 1.3-3.4 6.4-3.4 11.1 0 4.4 2 8.8 5.1 11.1 1.3 1 8.8 17.8 11.8 26.5 10.3 29.7 13.4 39.8 14.6 46.6.7 4.1 2.2 9.5 3.3 12 3.5 7.8 4.7 13.2 4.7 22.4 0 9.9 1.2 13.5 5.7 16.8 3.3 2.4 7.8 1.7 7.8-1.3 0-1.1.5-2 1-2 .6 0 1-.7 1-1.5 0-2.2.7-1.9 6 2.5 8.3 7 14.8 4.8 12.7-4.3-.5-2-1.3-3.7-1.7-3.7-.5 0-1.1-1.3-1.5-2.9-.3-1.6-1.5-3.7-2.6-4.7-1-.9-1.9-2.1-1.9-2.7 0-.5-.7-2.3-1.5-4-1.3-3-1.9-5.1-4.7-16.6-.6-2.5-1.7-5.1-2.4-5.9-.8-.7-1.4-2.3-1.4-3.6 0-1.2-.4-2.6-.9-3.1-.5-.6-1.2-3-1.5-5.4-.3-2.5-1.2-4.8-1.8-5.3-1-.6-1-.8-.1-.8 1 0 1-.6.1-2.5-.6-1.4-1.5-2.5-1.9-2.5-.4 0-.5-.9-.2-2s0-2-.6-2-1.1-.8-1.1-1.9c0-1-.7-2.4-1.5-3.1-1.8-1.5-2.1-4.5-.3-3.4.8.5.9.2.5-1-.4-1-.7-2-.7-2.2 0-.3-.4-.2-1 .1-.6.3-.7-.1-.4-.9.4-1.1 0-1.6-1-1.6-1.9 0-2.2-1.6-.4-2.2.9-.3.8-1-.5-2.3-1.3-1.3-1.5-2-.7-2.5.9-.5.7-2-.5-5.6-.9-2.7-1.9-6.3-2.2-7.9-.3-1.7-.9-3.2-1.4-3.3-.5-.2-.7-.8-.3-1.3.3-.5 0-.9-.6-.9s-.9-.3-.6-.8c.2-.4.1-2.3-.4-4.2-.5-2.4-.8-2.8-.9-1.3-.1 1.3-.6 2.3-1.2 2.3-1.6 0-.1-15.1 1.7-17.1.9-1 1.3-3.8 1.3-8.2-.1-5.8-.4-6.8-2.5-8.2-3.3-2.1-6.6-1.9-10 .7zm8.4 0c.7.7 1.2 3.7 1.2 6.8 0 4.3-.5 6.1-1.9 7.4-1.7 1.6-1.8 3.5-1.6 33.9.3 27.6.1 31.8-1 29.7-.8-1.4-1.1-3.4-.9-4.6.3-1.2-.1-2.8-1-3.7-.9-.9-2.1-3.8-2.6-6.4-.8-4.3-2.7-8.9-5.5-13.3-.5-.8-1-2-1.1-2.5-.6-3-3.6-9.8-5.8-13.4-1.4-2.2-2.6-4.4-2.6-4.9 0-.4-1.5-2.2-3.4-4-4.4-4.1-5.7-10.6-3.2-15.8 1.3-2.9 2.1-3.4 4.8-3.4 1.8 0 4.2.7 5.2 1.5 2.2 1.7 5.2 2 5.8.6.6-1.5 9.9-9.1 11.2-9.1.6 0 1.7.5 2.4 1.2zm1.2 38.2c0 1.4.4 2.7.9 3 1.5 1 4.4 13 3.2 13.4-.6.2-1.1.8-1.1 1.3 0 .6.4.8.8.5.4-.3 1.3.8 1.9 2.4.9 2.4.8 2.9-.8 3.3-1.1.3-1.9.1-1.9-.4s-.5-.9-1.1-.9c-.6 0-.8.9-.3 2.2.8 3 1.6 3.6 2.1 2 .7-1.8 3.1-1.4 4.3.7 1.5 2.9 1.3 3.1-2.2 2.4-3.6-.6-9-3.2-7-3.3.6 0 1.2-.7 1.2-1.5s.6-2.4 1.3-3.5c.9-1.6.9-2.2 0-2.8-.8-.5-.9-1.9-.3-4.7.9-4.1.5-5.9-1.1-5-.5.4-1-1.1-1-3.2-.1-2.1-.3-4.8-.4-6.1-.1-1.2.2-2.2.6-2.2.5 0 .9 1.1.9 2.4zm-.6 15c-.3 1.5-.8 2.5-1.1 2.3-.2-.3-.1-1.7.3-3.1.3-1.5.8-2.5 1.1-2.3.2.3.1 1.7-.3 3.1zm8.1-.4c.3.5.1 1-.4 1-.6 0-1.1-.5-1.1-1 0-.6.2-1 .4-1 .3 0 .8.4 1.1 1zm-6.8 15.7c-.9 1.4 1.9 3.2 3.4 2.2 2.4-1.5 5.9-1.1 5.9.8 0 .9-.3 1.3-.7 1-.7-.8-7.3 3-8.9 5.2-.9 1.2-1.1.3-.9-3.9.4-6.4.3-6 1.1-6 .3 0 .3.3.1.7zm11.6 10.5c1 2.9 2.2 6.9 2.6 8.8.5 1.9 1.8 6 2.9 9 1.1 3 2.3 7.1 2.7 9 .3 1.9 2 7.8 3.6 13.2 1.6 5.3 2.9 10.1 2.9 10.6 0 .6 2.3 4.8 5 9.3 4.7 7.8 6.1 11.9 4.1 11.9-2.5 0-6-2.2-10.3-6.5-5.7-5.6-7.9-5.6-8.4-.1-.6 7.2-4.2 7.2-7 0-1.3-3.6-1.5-5.6-.8-10.7.7-4.6.5-7.3-.5-10.7-.8-2.5-1.7-4.7-2-5-.3-.3-.8-1.4-.9-2.5-.2-1.1-.9-2.4-1.5-2.8-.9-.6-.9-1 0-1.3.9-.4.7-1.1-.6-2.6-1.9-1.9-3.4-6.8-2.5-7.8.3-.2.9.2 1.4 1 .6.8 1 1.1 1 .6 0-.5-.8-1.8-1.7-2.8-1.4-1.6-1.5-2.3-.5-3.8 1.5-2.5 1.5-3-.2-3-2.1 0-3-5.6-1.6-9.1.7-1.6 1.7-2.9 2.2-2.9.5 0 .7-.4.4-.9-.4-.5.4-.7 1.6-.3 1.3.3 1.9.1 1.5-.5-.6-1 2.7-5.3 4.1-5.3.5 0 1.6 2.4 2.5 5.2zM339 471c0 1.1-.2 2-.4 2s-.6-.9-.9-2c-.3-1.1-.1-2 .4-2s.9.9.9 2zm7 23c0 .5-.2 1-.4 1-.3 0-.8-.5-1.1-1-.3-.6-.1-1 .4-1 .6 0 1.1.4 1.1 1z"/><path d="M315 449.5c0 1.1.4 2.7 1 3.5.8 1.2 1 1.2 1.6-.4.4-1.1 0-2.4-1-3.4-1.5-1.5-1.6-1.5-1.6.3zm-134.7-86c-1.8 2-1.6 3.5.5 3.5 2.4 0 4.2-1.9 3.5-3.6-.7-1.8-2.4-1.7-4 .1zm-98.1 3.7c-.7.7-2.5 1.4-4 1.6-1.5.1-3.4.3-4.2.4-.8.1-2.6-.1-4-.5l-2.5-.6.1 14c0 10.9.3 14.2 1.4 14.9 2.1 1.3 3.1.1 1.7-2.1-1-1.6-.9-2.1.2-2.8 1-.7 1.1-.9.1-1.3-1.8-.6-2.3-5-.8-6.1 1-.7 1-1 .1-1.4-.7-.2-1.3-1.1-1.3-1.9 0-.9.5-1.2 1-.9.6.4 1-.6 1.1-2.2.3-7 .1-6.8 5.7-7.3 5.8-.6 6.2-.5 6.2 2.2 0 1 .6 1.8 1.3 1.8.7.1.6.5-.5 1.3-1.1.9-1.6 2.9-1.6 6.5-.1 2.9.3 5.2.7 5.2.5 0 .7-1.1.6-2.5-.2-1.4.1-2.5.6-2.5s.6-1.2.3-2.6c-.4-1.6-.2-2.9.6-3.4.9-.6.9-1.2 0-3-1.1-2-1-2.2.4-1.7 1.2.5 1.6 0 1.6-1.8 0-1.7-.4-2.3-1.4-1.9-.8.3-1.6-.2-1.8-1.1-.2-1.3-.5-1.4-1.6-.3zm-.2 22.5c0 .2.6 1.1 1.4 1.8 1.2 1.2 1.5 1.2 1.9.1.3-.8-.2-1.6-1.4-1.9-1-.3-1.9-.3-1.9 0zm.3 5.8c0 2.2.2 3 .4 1.7.2-1.2.2-3 0-4-.3-.9-.5.1-.4 2.3zm79.9 1.5c0 1.9.2 2.7.5 1.7.2-.9.2-2.5 0-3.5-.3-.9-.5-.1-.5 1.8zm-95.5 1.6c-.8.8 3.4 3.3 4.6 2.7 1.3-.7.7-2.5-.7-2-.7.3-1.8.1-2.3-.4-.5-.5-1.2-.6-1.6-.3zm14.8 2.4c-.3.5-.1 1 .4 1 .6 0 1.1-.5 1.1-1 0-.6-.2-1-.4-1-.3 0-.8.4-1.1 1z"/><path d="M65.4 404.7c-1.1 5.7-.9 9.4.6 10.3 1.4.9.6 6-1 6-.6 0-1 2.3-1 5.2 0 2.8.3 4.9.6 4.5.7-.7 3.4 1.7 3.4 3.1 0 .5.9 1.7 2 2.7 1.1 1 2 2.6 2 3.6s.4 2 .9 2.3c1.8 1.2 1.8-.8 0-6-1.9-5.3-1.8-8.1.2-6.9.5.4.9.1.9-.5s-.8-1-1.7-.8c-1.2.2-1.7-.3-1.5-1.4.1-.9-.2-1.9-.8-2.3-.6-.3 0-1.7 1.5-3.3 2.4-2.6 3.3-5.2 1.7-5.2-3.1 0-6.6 10.5-4 12.1 1 .7 1 1.1.1 2-1.5 1.5-2 1.1-2.5-2.1-.1-1.4-.7-2.8-1.3-3.2-.6-.5-.6-.8.2-.8.6 0 1.5-1.5 1.8-3.3.4-1.7 1.2-3.5 1.7-3.8.6-.4.4-1.2-.4-2-.7-.8-1.4-2.5-1.5-3.9-.1-1.4 0-1.9.3-1.3 1.2 2.7 2.5 1.2 1.9-2-1.6-8-3-9-4.1-3zm14.6 1.7c0 .6.9 1.7 1.9 2.3 1.7 1.1 2 1 1.8-.7-.1-2-3.7-3.6-3.7-1.6zm-.5 4.5c-.2.5.4 1.1 1.5 1.4 1.1.3 2 .2 2-.3 0-1.2-2.8-2.1-3.5-1.1zm-3.5 3.6c-.8.9-.8 1.5-.2 1.5 1.2 0 2.6-1.9 1.9-2.6-.2-.2-1 .2-1.7 1.1zm77 0c-.1 1.1-.2 2.4-.1 2.9s-.4 1.3-1.1 1.7c-.7.4-1 1-.8 1.2 1.1.9 9 1.5 9 .6 0-.5-.7-.9-1.6-.9-2.1 0-4.1-2.2-4.7-5.1-.4-2-.5-2.1-.7-.4z"/><path d="M64 418.1c0 .5.5.7 1 .4.6-.3 1-.8 1-1.1 0-.2-.4-.4-1-.4-.5 0-1 .5-1 1.1zm15 5.9c0 1.3 2 1.3 4 0 1.2-.8.9-1-1.2-1-1.6 0-2.8.4-2.8 1zm-5.9 1.6c0 1.1.3 1.4.6.6.3-.7.2-1.6-.1-1.9-.3-.4-.6.2-.5 1.3zm5.9 7.3c0 4.6 1.3 8.1 2.5 6.9.4-.4.4-1.2-.1-1.9-.4-.7-.8-2.7-1-4.4-.2-2.8 0-3.2 1.7-2.8 1 .3 1.9.1 1.9-.5 0-.5-1.1-1.2-2.5-1.4-2.4-.5-2.5-.3-2.5 4.1zm-5-.7c0 .7.5 2 1 2.8.8 1.2 1 1.1 1-.7 0-1.2-.4-2.5-1-2.8-.5-.3-1 0-1 .7zm-9 3.3c0 .8.9 2.3 1.9 3.2 1.1.9 1.7 2.2 1.4 2.8-.2.7 0 1.6.5 1.9.5.3.9-.8 1-2.4 0-1.7-.3-3-.8-3-.4 0-1-.9-1.3-2-.6-2.3-2.7-2.7-2.7-.5zm.5 5.5c.3.5.8 1 1.1 1 .2 0 .4-.5.4-1 0-.6-.5-1-1.1-1-.5 0-.7.4-.4 1zm-1.8 1.7c-1 1-.8 8.1.2 8.7 1.5 1 6-1.9 5.2-3.3-.5-.7-1.2-1.3-1.7-1.3-2.4-.1-3.4-1.2-2.9-2.9.7-2 .3-2.4-.8-1.2zm1.8 6.3c.3.5.1 1-.4 1-.6 0-1.1-.5-1.1-1 0-.6.2-1 .4-1 .3 0 .8.4 1.1 1zm5.7-3.8c-1.9 1.9-1.4 2.9.8 1.6 2-1.3 2.7-2.8 1.2-2.8-.4 0-1.3.5-2 1.2zm398.1-.5c-2 .8-1.6 1.9 3.3 8.9 4.4 6.3 4.7 7 5.2 15l.5 8.4 4.2 2c2.3 1.1 5.3 2 6.8 2 2.3 0 2.7-.4 2.7-2.9 0-1.6-.7-3.6-1.5-4.4-.8-.8-1.2-1.7-.9-2 .3-.2-.5-3.4-1.7-7.1-1.7-5.1-3.3-7.7-6.8-11.1-6.1-5.8-10.2-9.5-10.4-9.4-.1 0-.8.3-1.4.6zm13.7 16.2c0 1.6.9 5.8 2 9.3 1.1 3.4 2 6.4 2 6.5 0 .2-.6.3-1.4.3-1.6 0-2.6-2.1-2.6-5.8 0-1.5-.7-5.1-1.4-8-1.2-4.5-1.2-5.2 0-5.2.9 0 1.4 1.1 1.4 2.9zM146 447c0 .5.7 1 1.6 1 .8 0 1.2-.5.9-1-.3-.6-1-1-1.6-1-.5 0-.9.4-.9 1zm282.9 3.7c-1.6 3.6-3.4 10.1-5.9 20.8-.7 2.7-1.8 6.7-2.6 8.8-2.1 5.7-.9 14.3 2.7 18.8 3.6 4.7 6.9 10.6 6.9 12.4 0 1.9 4.6 4.9 6 4 .8-.5.7-1.2-.3-2.3-2.3-2.7-5.1-16-5.2-24.7 0-5.5.6-9.6 1.8-13 2.3-6.2 2.9-11.9 2.1-21.3-.8-8.4-2.8-9.7-5.5-3.5zm-.4 23.8c-2.1 5.5-2.6 8.5-2.5 14.5.3 9.6.2 10-1.4 7.1-1.9-3.5-1.1-11.5 2.6-26.6 3.3-12.9 3.3-13 3.6-7.5.2 4.1-.4 7.4-2.3 12.5zM79 449c-.8.5-1.2 1.2-.9 1.5.4.3 1.2-.1 1.9-1 1.4-1.7 1.1-1.9-1-.5zm67 1.7c0 1.5-.2 1.6-1 .3-.5-.8-1.2-1.1-1.6-.7-.4.4-.2 1.3.4 1.9 1.7 1.7 1.5 3.1-.3 2.4-.9-.3-1.5 0-1.5.9s.6 1.2 1.5.9c1.1-.4 1.3-.2.9.9-.3.8 0 1.8.7 2.2.7.5 1 .3.7-.6-.3-.8-.1-2.2.4-3.2 1.5-2.9 1.9-6.7.8-6.7-.5 0-1 .8-1 1.7zm-80.8 4c-1.3 1.4-1.9 2.9-1.5 3.3.4.5 1.8-.7 3-2.6 2.6-4 1.8-4.5-1.5-.7zm12.3-1.7c-.4.6-.8 5.5-1 10.8-.2 5.3-.6 12.9-1 16.8-.5 4.9-.4 7.4.4 7.8.7.5 1.1-.2 1.2-1.6.5-16.4 1-23.3 1.8-24.1.6-.6.5-2.1-.1-3.9-.8-2.3-.8-3.2.3-3.9 1-.6 1.1-1.1.3-1.9-.9-.9-1.4-.9-1.9 0zM63 454.1c0 .5.5.7 1 .4.6-.3 1-.8 1-1.1 0-.2-.4-.4-1-.4-.5 0-1 .5-1 1.1zm4.7 2.2c-1.1 2.9-.9 4.3.4 3 .6-.6.9-1.9.7-2.9-.3-1.8-.4-1.8-1.1-.1zm377.2 3.4c-1.1 2.9-.2 21.6 1 20.9.3-.2.5 1.5.3 3.7-.2 2.4.6 7 1.7 10.6 1.2 3.5 2.1 6.8 2.1 7.3 0 .6 1.1 1.9 2.4 2.9 1.4 1.1 2.8 3 3.2 4.2.9 3 5.1 8.4 8.3 10.6 3.2 2.3 9.1 3.7 9.1 2.2 0-1.3-3.9-7-6.7-9.8-1.2-1.3-2.4-3.3-2.7-4.5-2.1-11.7-7.5-37.2-8.3-39.8-3.2-9.9-8.2-13.9-10.4-8.3zm6.9 13.5c1.9 7.6 3.1 14.3 5.1 27 .4 2.7.6 4.8.5 4.8-1.7 0-3.4-1.7-3.4-3.4 0-1.2-.4-2.6-.8-3.1-1.1-1.3-2.9-10-3.8-19-.4-3.9-.8-7.3-.8-7.7-.1-.3-.4-.9-.7-1.2-.8-.8.1-5.6 1.1-5.6.4 0 1.6 3.7 2.8 8.2zm-311-11.2c-.3 2.5-.9 5.5-1.3 6.7-.4 1.4-.3 2.3.3 2.3 1.2 0 2.6-7.5 2-11.1-.3-1.6-.6-1-1 2.1zm-76.4 1.1c0 1.1.6 1.9 1.3 1.9.7 0 1.3-.6 1.3-1.4 0-.8-.6-1.6-1.3-1.9-.8-.3-1.3.3-1.3 1.4z"/><path d="M143.4 462.8c1 1.7-1.6 9.1-3.5 9.7-2 .7-2.7 3.5-.9 3.5.6 0 1 1.2 1.1 2.7.1 2.6.2 2.5 1-.7.5-1.9 1.4-4.4 1.9-5.5 2.7-6.2 3.1-10.5.9-10.5-.6 0-.8.4-.5.8zM62.2 465c0 1.4.2 1.9.5 1.2.2-.6.2-1.8 0-2.5-.3-.6-.5-.1-.5 1.3zm18 1.5c0 1.6.2 2.2.5 1.2.2-.9.2-2.3 0-3-.3-.6-.5.1-.5 1.8zm-15.7 5.4c-.3.5-.2 1.2.3 1.5.5.3.9-.1.9-.9 0-1.7-.3-1.9-1.2-.6zm8 1.1c-.3.5-.1 1 .4 1 .6 0 1.1-.5 1.1-1 0-.6-.2-1-.4-1-.3 0-.8.4-1.1 1zm-3.7 1.7c-1 .2-1.8.9-1.8 1.4 0 .6.8.5 2-.1 1.1-.6 2-1.3 2-1.5 0-.3-.1-.4-.2-.4-.2.1-1.1.3-2 .6zm-8.8 3.2c0 1.8.4 2.1 2.1 1.6 1.4-.5 1.9-.4 1.5.4-.5.7-.1.9.8.5.9-.3 1.6-1.3 1.6-2.1 0-1-.6-1.3-1.6-.9-.9.4-2.3.1-3-.5-1.1-.9-1.4-.7-1.4 1zm76.4 2.6c-.3.8-.3 1.9.1 2.6.4.6.1 1.5-.6 2-1 .6-.8.9.9.9 2.6 0 4.1-2.8 2.2-4-.7-.4-.9-1.3-.6-1.9.4-.6.2-1.1-.4-1.1-.6 0-1.3.7-1.6 1.5zM58.8 485c-.3 1.7-.1 3.3.4 3.6.4.3.8.1.8-.5s.6-.8 1.4-.5c2.4.9 2.8-1.4.6-3.6-2.6-2.6-2.7-2.6-3.2 1zm103.4-1.8c-1.4 1.4-1.6 4.2-.2 3.3.6-.3 1-.1 1 .4 0 .6.5 1.1 1.1 1.1.8 0 .8-.4 0-1.4-.6-.7-.9-2.1-.5-3 .7-1.9.3-2.1-1.4-.4zm-97.2 4c0 .5 2.1.8 4.7.8 2.5 0 4.3-.3 4-.6-.9-1-8.7-1.1-8.7-.2zm69.2 2.8c0 1.4.2 1.9.5 1.2.2-.6.2-1.8 0-2.5-.3-.6-.5-.1-.5 1.3zm27.2-.2c.5 1.4.3 2.2-.4 2.2-.6 0-1 .6-.7 1.2.2.7-.5 3.3-1.5 5.8-1.3 3-1.6 4.6-.8 4.8.8.3.8.8 0 1.7-.9 1-.9 1.9-.1 3.2 1.1 1.7 1.1 1.7.9-.2-.1-1.1.1-2.6.6-3.4.5-.8.4-1.6-.4-2.1-.9-.5-.9-.9-.1-1.4.6-.4 1.1-.4 1.1 0s.9-.3 2-1.6c2.4-2.7 2.7-4.8.4-2.5-.9.9-1.9 1.3-2.2 1-.4-.3-.2-.9.3-1.3.6-.4 1.6-2 2.3-3.5 1-2.4 1-3.1-.4-4.5-1.5-1.5-1.6-1.4-1 .6zM76.5 492c.1 2.2 1.5 4 1.5 2 0-.7.8-1.9 1.8-2.6 1.5-1.2 1.5-1.3-.9-1.4-1.9 0-2.5.5-2.4 2zm54.8-.2c-1.3.8-1.4 6.2-.2 6.2.5 0 .9-1 .9-2.3 0-1.8.2-1.9 1-.7.9 1.3 1 1.3 1 0 0-2.3-1.4-4-2.7-3.2zm-3.1 4.7c0 1.6.2 2.2.5 1.2.2-.9.2-2.3 0-3-.3-.6-.5.1-.5 1.8zm-71.5 3.2c-1 1.8-2 5.4-2.2 8-.3 2.7-.3 4.1.1 3.3 1.5-3.8 1.7-4.5 1.9-5.3.2-.4.4-.9.5-1.2.1-.3.3-1.1.4-1.8.1-.6.9-1.1 1.9-.9 1 .2 1.7-.3 1.7-1.3 0-.9-.4-1.4-.9-1-.5.3-1.1-.3-1.3-1.2-.3-1.4-.8-1.1-2.1 1.4zm68.3-1.2c0 .8.4 1.5 1 1.5.5 0 .7-.7.4-1.5-.4-.8-.8-1.5-1-1.5-.2 0-.4.7-.4 1.5zm-55.8 6.2c-4 4.2-5 5.9-4.1 6.7.9.8 1 .8.6 0-.7-1.1 2.8-4.8 5.1-5.6 1.1-.3 4.8-6.8 3.9-6.8-.1 0-2.6 2.6-5.5 5.7zm71.4 4.8c-.3.8-.1 1.5.4 1.5.6 0 1-.7 1-1.5s-.2-1.5-.4-1.5-.6.7-1 1.5zM39 514.3c-1.4.7-5.3 2.3-8.7 3.6-7.4 2.7-13.8 8.9-12.8 12.2.4 1.3.2 1.9-.7 1.7-.8-.2-1.2.5-1.1 1.7.1 1.1-.3 2.3-.9 2.6-.6.4-.7 1.6-.3 3l.8 2.4.8-2.3c.5-1.2 1.3-2.2 1.9-2.2.6 0 .8-.5.5-1-.4-.6-.2-1.6.3-2.3.5-.7 1.2-2.2 1.5-3.5.4-1.9.2-2.2-1.1-1.7-1.3.5-1.2.2.3-1.5 1.1-1.2 2.1-1.7 2.3-1.1.6 1.8 2.2 1.2 2.2-.8 0-2.5 2-3.8 2.1-1.4 0 1.2.5.9 1.4-1.2 1.2-2.6 2-2.7 1.6-.3-.3 2 2.1.5 2.9-1.8.8-1.9 1.6-2.5 2.9-2.1 1.3.3 2.1-.1 2.4-1.4.3-1.1 1.1-1.7 1.9-1.4.8.3 2.8-.1 4.4-1 2.9-1.5 2.9-1.5.4-1.5-1.4 0-3.6.6-5 1.3zm51.2.7c0 1.4.2 1.9.5 1.2.2-.6.2-1.8 0-2.5-.3-.6-.5-.1-.5 1.3zm56.8 0c0 .5.5 1 1 1 .6 0 1-.5 1-1 0-.6-.4-1-1-1-.5 0-1 .4-1 1zm-94.8 7.5c-1.2 1.9-1.9 3.5-1.4 3.5 1.4 0 6.2-5.1 5.7-6.1-1-1.6-1.9-1-4.3 2.6zm281 3c-2.2 1.9-2.7 3.3-3 8.6-.5 9 .6 10.2 9.8 10.7 6.4.4 7.3.2 9.3-1.9 2-2.2 2.6-4.6 2.8-11.8.1-2.4.4-3 1-2 1.2 1.9 1.1.2-.1-2.1-2.3-4.3-15.5-5.2-19.8-1.5zm6 3.4c-.1.7.2 1 .8.6.6-.3.8-1.1.5-1.6-.7-1 3.8-1.2 7.4-.2 2.2.5 2.3 1 1.8 5.3-.8 6.8-3.9 9.7-9.8 9.2-2.5-.2-5-1.1-5.6-2-1.6-1.9-1.7-8.2-.2-8.2.5 0 .7-.5.4-1-.3-.6.1-1.3.9-1.6.9-.3 1.3-1.1 1-1.6-.4-.6.2-.8 1.2-.6 1.1.2 1.8 1 1.6 1.7zM90 525c0 .5.5 1 1.1 1 .5 0 .7-.5.4-1-.3-.6-.8-1-1.1-1-.2 0-.4.4-.4 1zm34.2 4.1c-2.3 4.3-2.9 8.9-1.2 8.9.5 0 .9-1 .7-2.3-.1-1.4.3-2.1 1.1-1.9 1 .2 1.2-.5.7-2.8-.4-2-.3-3 .5-3 .6 0 .8.4.5 1-.4.6 1.3 1 4.4 1 6.5 0 9.9 1.6 10.4 4.9.3 2.2.4 2.1.6-.7 0-2.1-.4-3.5-1.4-3.8-.8-.4-1.5-1-1.5-1.5 0-.6.9-.5 2 .1s2 .8 2 .6c0-1.3-4.2-2.7-5.3-1.7-.8.6-1.8.6-2.7.1-1.3-.9-1.3-1 0-1.1 2.6-.1-2.3-1.8-5.6-1.8-2.6-.1-3.4.5-5.2 4zm-75.2.1c0 2.8 1.6 5.5 2.7 4.5.4-.5.2-1.2-.5-1.6-.7-.4-1-1.5-.7-2.3.4-.9.2-1.9-.4-2.3-.7-.4-1.1.3-1.1 1.7zm-2.9 5.8c-.1.8-.4 2.5-.7 3.8-.5 1.7-.3 2.1.9 1.6 1.2-.4 1.4 0 1 1.8-.4 1.8-.3 2 .6.8 1.3-1.8 1.4-5.3.2-4.5-.5.3-1.2-.7-1.4-2.2-.2-1.6-.5-2.1-.6-1.3zm2.9 1c0 .6.7 1 1.5 1s1.5-.2 1.5-.4-.7-.6-1.5-1c-.8-.3-1.5-.1-1.5.4zm28 1.5c0 .8.4 1.5 1 1.5.5 0 .7-.7.4-1.5-.4-.8-.8-1.5-1-1.5-.2 0-.4.7-.4 1.5zm7 2.1c0 .8.5 1.2 1 .9.6-.3 1-1 1-1.6 0-.5-.4-.9-1-.9-.5 0-1 .7-1 1.6z"/><path d="M354.3 540.4c-1.1 1.4-2.3 4.3-2.7 6.5l-.6 4-4.3-1.9c-2.3-1.1-4.8-2-5.5-2-2.4 0-6.2 4.8-6.2 7.9 0 4.2 3.5 9.8 6.5 10.3 3.7.8 3.7-.1-.1-3.7-2.6-2.5-3.4-4-3.4-6.8 0-3.1.4-3.8 2.5-4.3 3.9-1 8.3 1.3 8.7 4.4.2 2.1.9 2.8 2.9 3l2.7.3-.5-7.4c-.6-8.2-.3-8.7 5.2-9.4 2.5-.3 3.6 0 4.3 1.4 1.7 3.4 2.2 8.5 1.1 12.7-1 4.1-.8 4.7 3.4 12.9 2.5 4.7 5.7 10.3 7.1 12.6 3.2 5 3.4 6.4.4 2.5-1.3-1.6-3.1-3.7-4-4.6-1-1-1.8-2.5-1.8-3.4 0-.8-.4-1.3-.9-.9-.6.3-1.4-.3-2-1.2-.6-1.1-1.1-1.3-1.1-.5 0 .7-.5 1-1.1.7-.6-.4-.8-1.2-.6-1.9.3-.6-.1-1.9-.7-2.9-1.4-1.8-6.6-4.1-7.4-3.2-.3.3-.1.5.5.5.5 0 1 .7 1 1.5 0 1.9.4 1.9-5.3-.5-4.2-1.8-4.9-1.9-6.2-.6-1.3 1.3-1.1 1.9 1.7 5.3 4.1 5 4 4.8 8 12.3 1.9 3.6 3.7 6.7 4.1 7 .3.3 1.5 2.3 2.6 4.5 2.9 5.9 8.5 15.8 10 17.5.7.9 3.6 6.1 6.5 11.5 2.8 5.5 5.6 10.5 6.1 11.2.5.7 1.8 2.7 2.7 4.5 1 1.8 3.2 5.9 4.9 9.2 1.7 3.2 3.8 8.2 4.8 11.2 1 3.4 2.3 5.6 3.5 5.9 1.1.4 1.9 1.2 1.9 1.8 0 .7 1.5 3.5 3.3 6.2 8.2 12.6 8.9 14.2 8.2 19.9-.6 5-.5 5.4 2 7.5 1.5 1.1 3.6 2.1 4.6 2.1 2.2 0 9.4-7.3 11.2-11.2.6-1.5 1.5-2.8 1.9-2.8.5 0 .8-1.3.8-2.8 0-1.5.6-3.4 1.3-4.1.9-1.1.9-1.4 0-1.8-.8-.3-1.1-1.4-.7-2.9.4-1.5.2-2.4-.5-2.4-.6 0-1.1.6-1.1 1.2 0 1.8-4.9-4.4-5-6.2 0-.8-1.5-3.8-3.2-6.5-4.9-7.6-8.8-15.4-8.8-17.5 0-1-.6-2-1.2-2.3-.7-.2-3.8-5.3-6.8-11.3-3-5.9-6.1-11.4-6.7-12.2-.7-.7-1.3-2-1.3-2.7 0-1.5-3.9-9.6-5-10.5-.4-.3-1.5-2.1-2.6-4-1-1.9-2.3-3.9-2.7-4.5-.4-.5-2.8-4.4-5.3-8.5-2.4-4.1-5-8.4-5.7-9.4-3.8-6.1-7.4-12.2-7.4-12.6 0-.3-1-2.5-2.2-4.9-1.8-3.5-2.1-5.3-1.6-8.8 1.4-9.8-1.4-15.8-8.1-16.9-3.6-.5-4.3-.3-6.1 2zm2.1 35.1c-.4.8-1 1.2-1.5.9-1.4-.8-1-2.4.6-2.4.9 0 1.2.6.9 1.5zm5.8 4.7c-.5 2.2 1.1 2.3 3.2.2.9-.8 1.7-1.3 1.7-1 .1.3.3 1 .4 1.6.1.5.3 1.6.4 2.2.1.7 1.7 2.3 3.6 3.5 1.9 1.3 4.2 3.7 5.1 5.5.9 1.8 2.8 4.1 4.1 5.1 1.6 1.3 2.3 2.6 1.9 3.9-.7 2.8 1.4 7.3 2.7 5.6.5-.9.7-.2.3 1.8-.3 1.7.1 4.3.9 5.7 1.8 3.5 3.2 12.5 2.6 16.4 0 .4-.7-.2-1.5-1.3-.8-1-1.2-2.9-.9-4.2.3-1.3.1-2.2-.7-2.2-.6 0-.8.5-.4 1.2.5.7.3.8-.5.3-.7-.4-2.1-2.7-3.1-5-1-2.4-2.6-5.2-3.5-6.2-4.4-5-6.5-8.3-6.5-10.2 0-1.2-1.1-3.2-2.5-4.5-1.4-1.3-2.5-2.9-2.5-3.6 0-.7-1.3-2.9-2.9-4.9-1.6-2-3.9-5.5-5.1-7.9-2.2-4.1-2.2-4.3-.4-5.6 1.6-1.2 2-1.2 3 .2.6.8.9 2.4.6 3.4zm35.6 41.7c.7 1.8.9 3.7.6 4.2-.3.5.2.9 1 .9 1.4 0 3.3 3.5 2.8 5.2-.1.5.3.8.8.8.6 0 1 1.6 1 3.5s-.4 3.5-1 3.5c-.5 0-1-.5-1-1s-.3-.9-.7-.9c-2.4.4-3.5-.3-2.9-1.7.3-.9-.3-2.8-1.3-4.3-1.5-2.1-1.8-3.7-1.4-7.2.3-2.4.2-4-.3-3.6-.7.6-3.2-6.8-3.3-9.8-.1-1.5 4.4 6.6 5.7 10.4zm4.1 19.9c-.9.1-2.1 1.3-2.7 2.5-1 2.1-1.1 2.1-1.1.1-.1-2.6 1.7-4.4 3.8-3.6 1.5.6 1.5.7 0 1zm8.4 7.7c-1 .7-2.1 1.1-2.6.8-.4-.3-1.7.5-2.8 1.8l-1.9 2.2v-2.1c0-1.2.3-2.1.8-2 1.3.3 6.3-2.5 5.4-3.1-.5-.3-1.3-2.2-1.6-4.1l-.7-3.5 2.6 4.4c2.4 4.1 2.4 4.4.8 5.6zm1.7 3.5c0 .5.7 1 1.5 1 1.6 0 1.8 2 .5 6l-.8 2.5-.7-2.3c-.8-2.4-2.1-2.9-2.8-1-.3.7-.6.2-.6-1.1-.1-1.7.3-2.2 1.4-1.7.9.3 1.5 0 1.5-.9 0-.8-.4-1.5-1-1.5-.5 0-1-.5-1-1 0-.6.5-1 1-1 .6 0 1 .4 1 1zm-7 7.4c0 2.6-.6 1.8-1.4-1.9-.5-2.2-.4-2.6.4-1.5.5.8 1 2.4 1 3.4zm15.6 5.3c-1 1.1-4.6-3.9-4.6-6.5 0-2.5.2-2.4 2.5 1.7 1.4 2.4 2.3 4.6 2.1 4.8zm-12.1-3.7c.3.5.1 1-.4 1-.6 0-1.1-.5-1.1-1 0-.6.2-1 .4-1 .3 0 .8.4 1.1 1zm7.8 1.5c.9.4 1.7 1.5 1.7 2.4 0 2.4 1.1 3.3 2.6 2 .9-.7 1.6-.2 2.8 2.2.9 1.8 1.6 3.5 1.6 3.9 0 .4 1.6 2.5 3.5 4.6 2.1 2.3 3.5 4.8 3.5 6.4 0 3.4-5.8 12.3-7.6 11.6-.8-.3-1.4.4-1.6 1.7-.4 3-4.2 3-4.6-.1-.3-1.6.2-2.2 1.6-2.2 2.3 0 3.7-2.9 2.2-4.4-.5-.5-1-2-1-3.2 0-1.3-.7-2.9-1.5-3.8-1.4-1.4-1.4-1.7.3-3.4 1.9-1.9 1.9-2 .1-3.2-1.3-1-1.6-2.1-1.2-4.2.3-1.6.1-2.8-.5-2.8-.5 0-1.3-1.6-1.6-3.5-.7-3.6-1.2-4-3.4-2.6-1 .6-1 1 .3 2.1.9.8 1.3 2 .9 3.2-.3 1.2.1 2.7 1.1 3.9 1.4 1.5 1.5 2.2.6 3.3-.7.9-.8 1.7-.2 2 .5.3 1.1 0 1.4-.6.2-.7.8-1 1.2-.6.4.4.5 1.4.1 2.3-.8 2.3-4.6-.3-4.6-3.2 0-1.3-.6-2.3-1.3-2.3-1.8 0-4.7-5.2-4.7-8.4 0-2.7 1.4-3.5 2.4-1.4.3.7.3.3 0-.9-.4-1.8-.1-2.1 1.8-1.9 1.3.2 3.1.7 4.1 1.1z"/><path d="M363.6 583.8c-.3.6.3 1.2 1.5 1.5 1.2.3 1.9.1 1.6-.6-.5-1.5-2.4-2-3.1-.9zm15.9 20.2c.3.5 1.1 1 1.6 1 .6 0 .7-.5.4-1-.3-.6-1.1-1-1.6-1-.6 0-.7.4-.4 1zm5.5 16.6c0 .8.5 1.2 1 .9.6-.4.8-1.1.5-1.6-.9-1.4-1.5-1.1-1.5.7zm16 14.8c0 .9.5 1.6 1 1.6.6 0 1-.4 1-.9 0-.6-.4-1.3-1-1.6-.5-.3-1 .1-1 .9zm-278.3-95.7c-.2.4.4 1.6 1.5 2.5 1.3 1.4 1.8 1.5 1.8.4 0-1.6-2.6-4-3.3-2.9zM12 542.5c-2.3 6-4.1 11.7-3.8 12 .7.6 4.8 1.6 4.8 1.1 0-.2-.7-1.2-1.6-2-1.3-1.4-1.3-1.8-.1-3.6.7-1.1 1.7-1.7 2-1.3.4.3.7.1.7-.5 0-.7-.4-1.2-1-1.2-.5 0-1-.7-1-1.7 0-1.3.4-1.1 2.1.8l2.1 2.4-.8-3c-1.3-5.6-2.1-6.3-3.4-3zm67.3-1c-.8 2.2.6 3.3 1.7 1.5 1.3-2 1.2-3 0-3-.6 0-1.3.7-1.7 1.5zm-34.6 1.2c-1.3 1.2-.7 5 .8 5 1.1 0 1.3-.7.8-2.6-.7-3.2-.8-3.3-1.6-2.4zm93.1 0c.7.3 1.6.2 1.9-.1.4-.3-.2-.6-1.3-.5-1.1 0-1.4.3-.6.6zm2.2 9.3c-1.3.8-1.3 1 .2 1 .9 0 2-.5 2.3-1 .8-1.3-.5-1.3-2.5 0zm-5 3.2c-1.1 1.2-2 2.6-2 3 0 .5 1.1-.3 2.5-1.8s2.5-2.9 2.5-3c0-.9-1.1-.2-3 1.8zm15.6 3.1c.6 4 .4 4.6-2.6 7.1l-3.3 2.7.6 7.7c.3 4.2 1.8 12.1 3.2 17.5 1.4 5.4 3 12.8 3.5 16.5 1.8 11.7 2 12.6 3.6 19.2.8 3.6 2.3 10.7 3.4 15.8 1 5.1 2.2 9.7 2.5 10.2.3.5.1 1.9-.6 3.1-.8 1.5-.8 1.9 0 1.5.6-.4 1.1-.3 1.1.3 0 .5-.5 1.3-1.1 1.6-.6.5-.4 1.1.6 1.9 1 .7 1.8 3.3 2.2 6.8.5 5.2.7 5.6 2.4 4.7 1.2-.6 1.9-2 1.8-3.7-.2-2.4-.2-2.4-.6-.4-.8 3.9-2.3 1.3-2.3-3.8 0-2.7-.4-5.1-.9-5.4-.5-.3-1.2-3.2-1.6-6.3-.4-3.2-.9-7.4-1.1-9.3-.3-1.9-.9-5.3-1.5-7.5s-1.1-5-1.1-6.3c0-1.2-.4-2.5-.9-2.8-.4-.2-.6-1.1-.2-1.9.3-.8 0-1.5-.6-1.5-1.4 0-1.5-2.7-.1-3.2.5-.2.7-1.3.4-2.5-.4-1.3-1-2-1.5-1.7-.5.3-.9-.2-.9-1 0-.9.5-1.6 1-1.6.6 0 1-.4 1-1 0-.5-.7-.7-1.5-.4-1 .4-1.6-.1-1.7-1.7-.1-1.3-.2-3.3-.3-4.4-.1-1.1-.5-2.8-.9-3.8-.5-.9-.5-2.9-.2-4.5.5-2 .4-2.3-.4-1.2-.5.8-1 1.2-1 .9 0-.3-1.1-6.6-2.5-13.9-2.4-13.4-2.4-19.6.1-18.6.8.3 1.4-.1 1.4-.9s.9-1.5 2.1-1.5c1.4 0 1.8-.4 1.2-1.2-.7-1.3-.8-1.8-1.1-7.1-.1-1.5-.6-2.7-1.2-2.7s-.7 1.8-.4 4.3zm-103.4.2c0 1.6.2 2.2.5 1.2.2-.9.2-2.3 0-3-.3-.6-.5.1-.5 1.8zM6 558.3c0 .7.7 2.2 1.5 3.3 1.2 1.6 1.4 1.7 1.5.2 0-2.3-1.1-4.8-2.1-4.8-.5 0-.9.6-.9 1.3zm35.1.3c0 1.1.3 1.4.6.6.3-.7.2-1.6-.1-1.9-.3-.4-.6.2-.5 1.3zm74.7 1c-1.5.8-3.2 2.3-3.8 3.3-1 2.1-.4 5.1 1.1 5.1.5 0 .9.9.9 1.9 0 2.1 1.7 3.7 2.7 2.7.3-.3.1-1.2-.6-2-.6-.8-1.1-1.8-.9-2.2.1-.5-.2-1.9-.6-3.2-.9-2.6.9-5.4 3.2-5 .8.2 1.7-.3 1.9-1 .6-1.6-.5-1.5-3.9.4zm7.2-.6c0 .5.5 1 1.1 1 .5 0 .7-.5.4-1-.3-.6-.8-1-1.1-1-.2 0-.4.4-.4 1zm3 1.6c.1 1.4 2.4 3.9 3.8 4.2.8.1 1.1-.2.7-.8-.4-.6-.1-1.9.7-2.8 1.2-1.5 1.1-1.6-.4-.3-1.5 1.1-2.1 1.1-3.3.1-.8-.7-1.5-.9-1.5-.4zm-79 3.9c0 1.4.4 2.5.9 2.5.4 0 .6-1.1.3-2.5-.2-1.4-.6-2.5-.8-2.5-.2 0-.4 1.1-.4 2.5zm81 3.5c0 .5.5 1 1.1 1 .5 0 .7-.5.4-1-.3-.6-.8-1-1.1-1-.2 0-.4.4-.4 1zm-80.2.6c-.9.8 2.7 10.3 4.5 12.1 1.5 1.5 1.6 1.4 1.4-.5 0-1.1-.5-1.8-.9-1.6-.4.3-.8.4-.8.2 0-1.5-3.8-10.7-4.2-10.2zm73.2 5.9c0 .8.5 1.5 1.1 1.5.7 0 .9 1.2.5 3.3-.4 2.1.1 5.3 1.2 8.8 1.1 3 2.2 7.1 2.6 9.1.4 2.1 1.1 3.8 1.5 3.8.9 0-1.1-9.8-2.9-14.5-.8-2-.6-3 .5-4.1 1.8-1.9 2-3.8.3-2.8-1 .6-1 .4 0-.7 1.3-1.4 1.6-3 .5-2.8-2.1.3-3.3-.2-3.3-1.6 0-.8-.4-1.5-1-1.5-.5 0-1 .7-1 1.5zm13.8 15.9c-.3 1.4-.1 3.1.3 3.8.6.8.9-.1.9-2.5 0-4.2-.6-4.8-1.2-1.3zm-6.8-.4c0 .5.5 1 1 1 .6 0 1-.5 1-1 0-.6-.4-1-1-1-.5 0-1 .4-1 1zm3 3c0 .5.5 1 1 1 .6 0 1-.5 1-1 0-.6-.4-1-1-1-.5 0-1 .4-1 1zm5.8 1.5c-.3 1.4-.2 2.8.2 3 .4.3 1 1.8 1.3 3.5.4 1.8 1.3 3 2.2 3 1.8 0 1.9.5.5 3.1-.7 1.3-.7 1.9 0 1.9.5 0 1-.5 1-1.1 0-.5.4-.8 1-.4.5.3.6 1.3.3 2.2-.4 1.1-.3 1.4.5.9.7-.4 1.2-.3 1.2.3 0 .5-.5 1.3-1 1.6-.6.4-.8 1.1-.5 1.6.4.5.8 3 1 5.6.2 2.7 1.1 11.8 1.9 20.3.9 8.5 1.6 16.4 1.6 17.4 0 2.3-1.3 1.3-1.6-1.2-.2-.9-.6-3.5-.9-5.7-.4-2.2-.9-5.8-1.1-7.9-.2-2.2-1.2-4.9-2.2-6-2.6-3-4.4-6.9-4.5-10-.1-1.4-.5-2.6-.9-2.6-.5 0-.8-.8-.9-1.8 0-.9-1.1-3.9-2.3-6.6-1.6-3.4-2.6-4.5-3.1-3.5-.5.7-.4 1.4.3 1.7.7.2 1.2.8 1.2 1.4 0 1.4 8.1 24 9 25.3 1 1.4 4.7 18.7 5.5 25.5.3 3 1.5 9.2 2.6 13.8 1.5 6.2 1.7 8.7.9 10.2-1.3 2.3-.2 5 1.1 2.9 1.4-2.3 2.2 3.7.8 6.3-1.8 3.3-1.9 7.7-.2 7.1.7-.3 1.3-1 1.2-1.7-.3-2.8.2-5.4 1.5-7.2 1.4-1.8 1.5-1.8 2.5.6l1 2.5-.2-2.7c-.1-1.5-.6-2.6-1.1-2.5-1.5.3-3.6-4.5-3.6-8.2 0-3-1.3-9.1-2.8-13.1-1.4-3.9-2.9-12.6-2.2-13.3.4-.5 1 1.4 1.4 4.2.8 5.8 2.5 11.3 3.4 10.7.4-.2.7 1.3.7 3.5.1 4.9 1 5.8 3.4 3.1 1-1.2 2.3-2.2 3-2.2.6 0 1.1-.7 1.1-1.6 0-1.4-.3-1.4-1.5-.4-1.2 1-1.5.9-1.5-.4 0-1-.4-1.4-1-1.1-1.5.9-1.2-.2.7-3.2 1.7-2.6 1.7-2.7 0-2-.9.3-1.7.2-1.7-.2 0-.5.7-1.1 1.5-1.4 1.7-.7 1.5-8.1-.3-11.2-1.1-1.9-1.1-1.9-1.3.5l-.1 2.5-.9-2.5c-.5-1.6-.6.2-.3 5 .3 4.9.2 7-.4 6.1-.8-1.1-1.1-1-1.4.5-.5 1.8-.5 1.8-1.3 0-.4-1-.4-2.1.1-2.5 1.2-.8 1.5-6.1.4-6.1-.5 0-1.1.6-1.3 1.2-.3.8-.6.6-.6-.5-.1-.9.4-1.7.9-1.7.6 0 1-1.4 1-3 0-1.7-.5-3-1.1-3-.8 0-.8-.4 0-1.4.6-.7.9-2.1.5-3-.3-.9-.1-1.6.5-1.6s1.1 1.6 1.1 3.7c0 5.9 1.1 3 1.5-3.7.1-3.8-.1-5.7-.6-4.9-.6 1-.9.7-1.1-1.1-.1-1.4-.2-3.4-.3-4.5-.1-1.1-.3-4.3-.5-7-.2-3.2-.4-4-.7-2.3-.6 4.2-1.8 3.4-1.8-1.1 0-2.2.2-3.6.5-3.1s1.2.5 2 0c1-.7 1.1-1 .3-1-.7 0-1.3-.8-1.3-1.8 0-1.4-.2-1.5-1-.2-.8 1.2-1 1.1-1-.7 0-1.6-.4-2.1-1.5-1.7-.8.4-1.5.4-1.5.1 0-1 2.4-6.2 3.1-6.7.4-.3-.1-2.2-1.1-4.3-1-2.1-1.9-4-2-4.2-.3-1.8-1.9-4.8-1.9-3.8-.1.6-1 .9-2 .6-1.9-.5-2-1.8-.6-5.6.4-.9.4-1.7 0-1.7s-1.4.8-2.2 1.7c-1.3 1.6-1.4 1.6-1-1 .5-3.4-.9-3.6-1.5-.2zm8.2 9.5c0 .5-.4 1-1 1-.5 0-1-.5-1-1 0-.6.5-1 1-1 .6 0 1 .4 1 1zm2 9.1c-.7 1.1-1.4 1.9-1.6 1.6-.7-.7.7-3.7 1.7-3.7.6 0 .5.9-.1 2.1zm4 22.9c0 1.6-.4 3-.9 3s-.8-1.2-.6-2.8c.4-3.4.4-3.2 1-3.2.3 0 .5 1.3.5 3zm.5 10c.5 1.9.4 2.1-.4 1-.7-1-1.1-1.1-1.1-.3 0 .7-.4 1.3-.8 1.3-.5 0-.7-1.4-.4-3.1.5-3.3 1.6-2.9 2.7 1.1zM129 607c0 1.1.4 2 .9 2s.7-.9.4-2c-.3-1.1-.7-2-.9-2-.2 0-.4.9-.4 2z"/><path d="M149 616c0 .5.5 1 1.1 1 .5 0 .7-.5.4-1-.3-.6-.8-1-1.1-1-.2 0-.4.4-.4 1zm15.2 38.5c0 1.6.2 2.2.5 1.2.2-.9.2-2.3 0-3-.3-.6-.5.1-.5 1.8zm3.9 21.3c-.1.7-.5 1-1.1.7-1.9-1.2-.3 11 2.1 15.8 1.3 2.4-1.3 7.7-6.3 12.7-2.2 2.2-3.6 4-3.2 4 1.4-.1 7.1-5.5 8.4-8 .8-1.5 1.5-1.9 1.9-1.1.5.7 1.2.3 1.9-1.4 1.6-3.6 1.4-4.5-.3-1.5-.8 1.4-1.4 2-1.5 1.3 0-2.2 1.2-4.3 2.6-4.3 1.6 0 1.8-.9.5-2.9-.6-1-1-1-1.6-.1-.6.9-1 .9-1.6-.1-1.3-2-1.1-2.7.8-3.1 1.5-.3 1.5-.4.1-1.9-.9-.9-1.4-2.6-1.1-4 .2-1.3 0-3.5-.6-4.9-.5-1.4-1-1.9-1-1.2zm-11.1 8.3c0 .5.5.7 1 .4.6-.3 1-.8 1-1.1 0-.2-.4-.4-1-.4-.5 0-1 .5-1 1.1zm302.5.8c-5.7.6-6 .8-6.3 3.4-.3 2.3.2 2.9 2.7 3.8 2.6.9 3 1.5 2.5 3.5-.4 1.5-.2 2.4.5 2.4.6 0 1.1-.7 1.1-1.5 0-1.7 4.5-2.1 5.5-.5.3.5.1 1-.4 1-.6 0-1.1.5-1.1 1.1 0 1.5 8.4.2 15.3-2.4 3.6-1.4 5.7-2.7 5.7-3.8 0-1.9-9.8-6.4-15.5-7.1-2.2-.2-6.7-.2-10 .1zm7.2 3.7c-.3.3-1.2.4-1.9.1-.8-.3-.5-.6.6-.6 1.1-.1 1.7.2 1.3.5zm6.2 1c1.7.4 3.1 1.1 3.1 1.5 0 1-4.5.2-7-1.2-1.8-1-.3-1.1 3.9-.3zm-316.3 0c.7.3 1 1.5.8 2.7-.4 2.1-.4 2.1.5.2 1-2.3.5-3.5-1.2-3.4-.9 0-.9.2-.1.5zm63.2.2c-1.6.2-2.8.8-2.8 1.3 0 1.3 3.4 1.1 4.7-.2.8-.8 1.8-.6 3.8.7 2.2 1.4 2.8 1.5 3.5.4 1.7-2.7-.5-3.2-9.2-2.2z"/><path d="M194.4 691.1c-.3.6-1.7.9-3 .6-2.8-.5-5.9 1.4-5.3 3.2.3.7 5.2 2.8 10.9 4.7 8.6 2.9 11.4 3.4 15.3 2.8 3.8-.5 4.7-.9 4.2-2.1-.4-1.3-.3-1.3.9-.4 1.6 1.3 4.6.5 4.6-1.3 0-.7 1.1-1.8 2.5-2.4 1.4-.6 2.5-1.6 2.5-2.1 0-1.5-2.9-2.1-4.2-.8-3.4 3.3-11.3 4.9-15.8 3.2l-3.5-1.3 5.3-.1c2.8-.1 5.2-.6 5.2-1.1 0-.6-.9-1-2-1s-2-.4-2-1c0-.5-.7-.7-1.5-.4-.8.4-1.5.1-1.5-.5s-1.8-1.1-4.1-1.1c-3.2 0-4 .3-3.5 1.5.4 1.1-.2 1.5-2.2 1.4-1.7-.1-2-.3-.9-.6.9-.2 1.7-.9 1.7-1.4 0-1.3-2.7-1.1-3.6.2zm9.6.9c0 .5-.5 1-1.1 1-.5 0-.7-.5-.4-1 .3-.6.8-1 1.1-1 .2 0 .4.4.4 1zm-51.8 17.2c.5 1.5 2.8 2.3 2.8 1 0-.5-.7-1.3-1.6-1.6-1-.4-1.4-.1-1.2.6zm249.4 2.5c-1.4 1.6-4 4.4-5.8 6.4-1.8 2-4 4.9-4.8 6.5-.8 1.6-2.5 4.2-3.7 5.7-1.3 1.6-2.3 3.5-2.3 4.2 0 .8-.8 2-1.8 2.7-1.7 1.2-3.5 5.4-3.7 8.6 0 .7-.7 1.7-1.5 2.2-1.2.8-1.2 1.2-.2 1.8 1 .7 1 1.1-.2 2.1-.8.7-1.8 2.6-2.1 4.2-.4 1.7-2.7 6.9-5.1 11.5-4.4 8.6-5.7 14.4-3 14.4.7 0 3.8-3.7 6.7-8.2 3-4.5 6.5-9.6 7.9-11.3 5.3-6.2 14.5-23.6 15.1-28.3.4-3.3 7.6-15.7 10.7-18.2l3.7-3-3-.1c-1.7 0-2.4-.3-1.7-.6.6-.2 1.2-1.1 1.2-1.9 0-2.4-3.8-1.6-6.4 1.3zm-3.7 11c-.5 1.4-1.6 3.8-2.4 5.2-1.7 3.2-3.9 8.5-5.6 13.3-.7 2.1-1.7 3.8-2.1 3.8-.4 0 .2-2.4 1.4-5.3 1.1-2.8 2.9-7.4 4-10 1.7-4.6 4.6-9.7 5.4-9.7.2 0-.1 1.2-.7 2.7zm-12.3 26.1c-1.8 1.6-1.8 1.6-.6-.6.6-1.3 1.4-2.1 1.8-1.8.3.4-.2 1.4-1.2 2.4zm-4.6 9.1c0 .6-.4 1.3-1 1.6-.5.3-1-.1-1-.9 0-.9.5-1.6 1-1.6.6 0 1 .4 1 .9zm41.7-38.2c-1.3 2.1-3 5.6-3.7 7.8-.7 2.2-2.7 7.6-4.5 12-5 12.2-7.6 24.1-8.1 36.1-.1 3.8-.7 9-1.4 11.3-.9 3.5-.9 4.5.1 5.2 1.9 1.1 3.4-.5 5.4-5.9.9-2.6 2.9-7.9 4.3-11.7 1.5-3.9 2.7-7.4 2.7-7.8 0-.5.8-1.4 1.8-2.1.9-.7 1.7-2.4 1.6-3.7-.2-5.3 3.8-19.8 8.6-31.3 2.8-6.7 1.2-13.6-3.1-13.6-.7 0-2.4 1.7-3.7 3.7zm2.9 8.8c-.4 1.4-1.1 2.5-1.6 2.5-1.3 0-1.3-1.6.1-4.2 1.4-2.6 2.3-1.6 1.5 1.7zm-2.8 6.9c-2.9 2.8-3.6 2.4-1.4-.9.9-1.4 2.1-2.3 2.7-1.9.6.3.1 1.5-1.3 2.8zm-3.3 6.5c.3.5.1 1.2-.5 1.6-.5.3-1-.1-1-.9 0-1.8.6-2.1 1.5-.7zm-3.5 15.3c-.1 1.8-.8 4.4-1.6 5.8-1.5 2.5-1.5 2.4-1-1.5.3-2.2.6-4.8.6-5.8 0-.9.5-1.7 1-1.7.6 0 1 1.5 1 3.2zm-275.2-37.5c-1 .2-1.8.8-1.8 1.3 0 1.1-7 8-8.1 8-.5 0-.9.3-.9.8 0 .4-4.4 3.6-9.7 7.1-7.2 4.7-11.1 8-14.8 12.8-2.7 3.5-6 7-7.2 7.8-6.4 4.3-15.4 23.9-11.5 25.2.6.3 1.2-.2 1.2-1 0-.9.7-2.3 1.6-3.1.8-.9 1.2-2.1.9-2.7-1-1.4 1.9-3.8 8.8-7.4 3.1-1.6 5.7-3.4 5.7-4 0-.5.5-.3 1 .5.8 1.2 1.7.6 5.2-3.4 2.4-2.7 9.1-9.7 14.9-15.5 5.8-5.9 11.1-11.6 11.8-12.9.6-1.2 1.8-2.2 2.6-2.2.7 0 1.4-.8 1.4-1.8 0-.9.4-3.6.9-6 .5-2.3.7-4.1.3-4.1-.3.1-1.4.3-2.3.6zm-4 11.3c-1.3 2.2-3.1 4-4 4-1.1 0-1.5.5-1.2 1.5.4.8.1 1.5-.4 1.5-.6 0-4.2 3-7.9 6.7-3.8 3.8-8.6 8.3-10.6 10.1-2.1 1.8-3.5 3.7-3.2 4.2.4.6-.1 1-.9 1-.9 0-2.9 1.3-4.4 3-1.6 1.6-3.4 3-3.9 3-.6 0-2.3.7-3.9 1.5-1.5.8-3.1 1.2-3.4.8-.3-.3.1-.8.8-1 .6-.3 1.2-.9 1.2-1.5s1.7-2.7 3.8-4.7c2.1-2 4.8-5.1 6.1-6.9 1.2-1.7 2.9-3.2 3.7-3.2.8 0 1.4-.4 1.4-1 0-1.5 4.2-6 5.7-6 .7 0 1.3-.7 1.3-1.5s.7-1.5 1.5-1.5c1.9 0 5.1-1.9 8.1-4.8 1.3-1.2 3-2.2 3.9-2.2.8 0 1.5-.5 1.5-1 0-1.2 5-5.9 6.3-6 .4 0-.3 1.8-1.5 4z"/><path d="M106 757.1c0 .5.5.7 1 .4.6-.3 1-.8 1-1.1 0-.2-.4-.4-1-.4-.5 0-1 .5-1 1.1zm40.9-26.7c-1.9 1.9-4.1 4.7-4.9 6.2-.8 1.6-1.8 3.1-2.1 3.4-.3.3-2.3 2.7-4.3 5.4-2.7 3.6-3.6 5.6-3.2 7.2.5 1.7.2 2.2-.7 1.9-.7-.3-2 1-3.2 3.2-1.1 2.1-3 5.6-4.4 7.8-1.6 2.7-2.5 5.6-2.5 8.9-.1 3.2-.6 5.1-1.5 5.4-1 .3-1.1-.2-.6-1.9l.7-2.4-1.7 2.3c-.9 1.2-1.4 2.6-1.1 3.1.4.5.2 1.1-.4 1.3-1 .3-3.2 12.7-3.4 19.7-.1 2.8.4 4.6 1.2 4.8.7.3 1.2-.4 1.2-1.6 0-1.2.4-2.1.8-2.1.8 0 5.6-10.4 5.8-12.5.2-2.6 9.9-21.3 10.8-20.8.5.4.7 0 .4-.8-.7-1.9 1.5-5.1 3.3-4.7.7.2 1.3-.4 1.4-1.3 0-1 1.2-2.8 2.8-4.3 1.5-1.4 2.7-2.9 2.7-3.4s.7-1.5 1.5-2.2c1.3-1.1 1.3-1.5.3-2.2-1-.6-.7-1 .9-1.4 2.3-.6 3.9-4.4 2.2-5.4-.6-.4-.6-1.5.1-3.1 1-2.2 1-2.3.6-.2-.3 1.5.1 2.3 1 2.3s1.4-1.1 1.4-3c0-1.7-.4-3-1-3-.5 0-1-.5-1-1 0-.6.7-1 1.5-1s1.5-.4 1.5-1c0-.5-.8-.7-1.7-.4-1.7.5-1.7.5 0-.9 2-1.6 2.3-5.7.4-5.7-.7 0-2.8 1.5-4.8 3.4zm.3 8c-1.3 2.6-1.9 5.1-1.5 6.1.4 1.3.3 1.6-.5 1.1s-1.2.1-1.2 1.7c0 3.9-2.2 7.3-4.5 6.9-1.7-.4-1.8-.2-.6 1.2 1.2 1.5.8 2.3-3.8 6.9-2.9 2.9-6.4 7.3-7.9 9.9-2.9 5.1-4.5 5.6-5 1.8-.4-2.1-.2-2.3 1.3-1 1.4 1.2 1.6 1.1 1-1.1-.6-2.7 2.3-9.4 4.2-9.4.6 0 1.5-.3 1.9-.8.4-.4.2-.7-.4-.7-.7 0-1.2-.4-1.2-.9s.7-.8 1.6-.7c.9 0 1.9-.5 2.2-1.3.3-1 0-1.2-1.2-.8-.9.4-1.6.2-1.6-.3 0-.6.8-1 1.9-1 1 0 2.4-.7 3.1-1.5 1.9-2.3 4.8-8.4 5.5-11.6.4-1.6 1.3-2.9 2.1-2.9s1.4-.9 1.4-2.1c0-1.1.4-1.7 1-1.4.5.3 1.2-.6 1.6-2 .5-1.9 1-2.3 1.7-1.6.8.8.4 2.4-1.1 5.5zM122 782.5c-.7.8-1.8 1.5-2.4 1.4-.7 0-.6-.2.2-.6.6-.2 1-.9.6-1.4-.3-.5.2-.9 1.2-.9 1.3 0 1.4.3.4 1.5zm-.6 4.1c.5 1.2.2 1.5-1 1s-1.4-.1-.8 1.6c.6 2 .5 2.1-.9 1-1.7-1.4-1.1-5.2.8-5.2.7 0 1.6.7 1.9 1.6zm-4.4 6.5c0 1.6-.4 2.8-.9 2.5-.8-.5-.3-5.6.5-5.6.2 0 .4 1.4.4 3.1z"/><path d="M126.9 766.6c-.5 1.5-1.2 3.2-1.5 3.8-.3.6.4 0 1.5-1.4s2.1-3.1 2.1-3.8c0-2-1-1.4-2.1 1.4z"/></svg>