<svg height="100" preserveAspectRatio="xMidYMid meet" viewBox="0 0 100 100" width="100" xmlns="http://www.w3.org/2000/svg"><g transform="matrix(.1 0 0 -.1 0 100)"><path d="m210 962c-22-13-45-39-67-78-31-56-32-64-33-171 0-99 3-121 30-200 79-226 142-314 262-358 74-28 306-29 335-3 11 10 24 18 31 18 19 0 77 77 95 127 14 39 17 83 17 239v191l-33 62c-42 80-80 127-117 146-58 30-167 45-328 45-134 0-162-3-192-18zm440-56c25-9 53-19 62-22 10-3 39-41 65-83l48-76 3-173c5-232-10-281-102-339-23-15-60-27-94-30-61-7-61-9-10 61 15 21 39 64 53 95s29 63 33 71c21 40 44 129 39 144-11 27-31 19-95-40-61-55-142-94-194-94-30 0-91 38-118 73-27 34-47 34-62 1-11-24-10-29 10-42 12-8 22-21 22-29 0-22 77-174 102-200 25-27 22-28-20-8-34 18-90 76-125 132-13 21-42 92-65 159-37 107-42 130-42 211v91l48 44c27 23 51 51 55 62 7 17 17 18 175 13 115-4 181-10 212-21zm-23-539c-41-81-93-157-106-157-20 0-96 79-114 119-12 25-23 50-25 54-2 5 5 4 16-2 37-20 109-13 176 18 35 16 66 34 70 40s11 11 16 11-10-37-33-83z"/><path d="m336 878c-9-27-26-210-21-219 10-15 34-10 44 10 6 10 12 63 13 117 3 87 1 99-15 102-9 2-19-2-21-10z"/><path d="m557 863c-7-12 12-198 23-228 7-17 16-25 28-23 19 4 19 9 6 158-8 86-11 95-31 98-11 2-23 0-26-5z"/></g></svg>
