<svg height="100" preserveAspectRatio="xMidYMid meet" viewBox="0 0 100 100" width="100" xmlns="http://www.w3.org/2000/svg"><g transform="matrix(.1 0 0 -.1 0 100)"><path d="m285 921c-64-7-85-16-153-69-50-40-58-53-83-143-15-54-20-108-22-252-2-199 0-207 64-303 20-29 25-44 17-52-17-17-1-42 25-40 13 1 37-8 54-20 30-21 40-22 250-22 120 0 244 4 276 10 85 13 145 47 164 90 58 134 62 163 38 300-8 47-15 98-15 114 0 48-69 176-125 231-27 28-72 62-100 75-27 13-61 31-75 40-71 47-153 58-315 41zm311-102c166-85 232-175 259-353 8-50 17-110 21-132 6-40-2-82-29-146-7-16-14-28-17-28s-27 17-55 38c-66 49-191 140-234 169-25 17-48 23-89 23-88 0-128-17-162-68-17-25-30-50-30-57 0-6-24-35-54-64l-54-53-38 78-39 78 3 160c4 213 22 284 88 343 29 25 60 43 83 47 20 4 56 11 81 15 96 19 152 9 266-50zm-83-499c14-11 28-20 32-20 8 0 239-180 243-190 1-3-14-12-35-20-26-9-114-14-278-17-229-3-241-3-265 17l-25 20 56 54c31 29 67 75 80 101 27 54 60 74 125 75 27 0 50-7 67-20z"/><path d="m507 813c-8-14 13-317 22-326 5-5 17-7 26-4 14 6 15 25 9 159-4 84-11 159-17 166-11 13-33 16-40 5z"/><path d="m204 796c-3-8 0-25 7-38s14-65 15-123c2-102 9-120 41-94 22 19 13 207-11 244-18 28-44 33-52 11z"/></g></svg>
