<svg height="100" preserveAspectRatio="xMidYMid meet" viewBox="0 0 100 100" width="100" xmlns="http://www.w3.org/2000/svg"><g transform="matrix(.1 0 0 -.1 0 100)"><path d="m395 970c-13-15-31-20-66-20-57 0-85-21-124-93-50-91-69-312-44-493 13-94 23-115 86-176 74-73 148-98 288-98 107 0 113 1 156 30 53 35 104 96 139 165 24 47 25 59 25 220 0 159-2 175-27 245-38 106-96 171-169 189-30 7-78 21-107 32-71 25-133 25-157-1zm210-71c85-24 137-70 159-138 8-25 22-66 31-91 14-37 16-71 13-185-4-133-6-143-35-195-18-34-52-73-89-103l-59-49-105 5c-73 2-114 9-135 20-16 9-35 17-42 17-19 0-112 95-117 121-41 180-29 437 25 527 42 71 45 72 131 72 70 0 80 2 85 19 4 16 9 18 36 9 18-5 64-18 102-29z"/><path d="m377 834c-4-4-7-16-7-26 0-22-23-24-40-3-17 20-49 19-57-2-4-11 3-24 22-39l28-22-23-36c-40-66-2-92 45-30l27 36 27-24c41-37 89-68 105-68 7 0 16-7 20-15 10-27 44-16 71 22 14 21 25 43 25 50 0 25 20 12 72-47 37-42 59-60 73-58 37 5 26 33-37 97-54 54-62 68-63 102-1 21-6 44-12 50-17 17-43 3-43-23 0-21-2-20-33 10-36 35-55 40-64 16-4-10 9-30 35-57l41-42-26-43c-19-31-28-40-34-30-4 7-32 30-61 52-52 37-54 40-54 84 1 34-3 47-14 50-9 1-19 0-23-4z"/><path d="m444 506c-3-7-4-19-2-26 2-8-10-16-29-20-55-12-63-25-63-100 0-74 15-121 56-169 23-28 31-31 83-31 50 0 61 4 85 29 23 24 29 41 33 93 7 87-9 140-61 193-44 46-91 60-102 31zm92-103c13-19 18-47 19-89 0-74-20-104-71-104-47 0-79 54-79 134 0 57 0 58 35 71 56 20 76 18 96-12z"/></g></svg>
