<svg version="1" xmlns="http://www.w3.org/2000/svg" width="565.333" height="989.333" viewBox="0 0 424.000000 742.000000"><path d="M149.5 2.9c-.3.5-2.7 1.7-5.4 2.7-2.8 1-4.8 2.1-4.5 2.5.2.5-.3 1.7-1.3 2.9-1 1.1-1.8 2.4-1.8 2.8 0 .4-.4 1.3-.9 2-.5.9-.1 1.8 1 2.8 1.8 1.3 1.8 1.4.1.8-1-.4-1.7-.3-1.6.2.4 2.3-.2 4.5-1.1 3.9-.5-.3-1 .2-1 1.2-.1 1.4-.7 1.1-3-1.4-1.7-1.9-2.7-3.9-2.4-4.8.7-1.7 2.3-2 2.5-.5.1.5.2 1.4.3 1.9 0 .5.5 1.3.9 1.8.5.4.7-.1.6-1.3-.2-1.1.4-3.2 1.4-4.7 1.7-2.6 1.7-2.7-.3-2.7-1.1 0-2 .4-2 1 0 .5-1 1-2.3 1-1.3 0-3.2.7-4.3 1.5-1.8 1.4-1.8 1.6-.1 2.9.9.7 1.5 2 1.2 2.8-.4.9.2 1.4 1.6 1.5 1.2.1 2.7.7 3.3 1.4.8.9.4 1-1.9.5-2.2-.5-2.6-.4-1.5.4 2.5 1.6 5.3 1.1 8.5-1.6 1.7-1.5 2.3-2.3 1.5-1.8-.8.4-.1-.6 1.5-2.3 2.5-2.6 4.1-3.2 8.8-3.7 5.7-.6 6-.5 9.2 2.7 3.5 3.5 5.5 8.4 3.9 9.6-2.6 1.8-2.4 13.4.3 18.6 3.1 6.2 8.4 25.2 7.8 28.3-.3 1.5-.8 4.5-1.1 6.7-.4 2.2-1 4.2-1.4 4.5-.7.4-1.3 3.6-2.4 12.2-.1 1-.5 2-.8 2.4-.4.3-.4 1.3-.1 2.2.4 1 .2 1.3-.5.8-1.1-.6-1.8 1.9-1.3 4.6 0 .5-.3.8-.8.8-.4 0-1.1 1.5-1.4 3.2-.4 1.8-.9 4.3-1.3 5.5-.4 1.5-.2 2.3.6 2.3.7 0 1-.7.6-1.5-.3-.9 0-1.5.8-1.5.7 0 1.4-1 1.4-2.3 0-1.2.9-5.1 2.1-8.6 1.1-3.5 2.1-7 2.1-7.8 0-.8.8-4.2 1.9-7.6 3.4-11.5 4.1-15.1 2.8-15.9-.9-.6-.9-.8.1-.8 1.6 0 1.5-4.1-.2-6.5-.7-1-1.1-2.7-.8-3.8.3-1.3.1-1.8-.5-1.4-.7.5-.9 0-.6-1.2.3-1-.3-3.3-1.1-5-.9-1.7-1.4-3.1-1.1-3.1.3 0-.7-2.6-2.3-5.8-2.6-5.3-3.5-12.2-2-14.8.3-.5.9-2.8 1.2-5 .6-3.2.3-4.5-.9-5.8-.9-.9-1.4-1.6-1.1-1.6.3 0-1-1.5-2.9-3.3-3.1-3-3.9-3.3-8.7-3.1-2.9.1-6.5.5-8 .8-1.6.4-2.8.3-2.8-.2 0-1.8 3.6-5.6 7.8-8.3 3.8-2.4 5.2-2.7 9.1-2.3 8.4 1.1 12.4 3.1 15.8 8.2 3.5 5.1 5.6 14.8 3.5 16.1-.6.4-1.3 2.7-1.6 5.1-.3 2.5-.7 5.5-1 6.7-.5 2.4 2 14.1 3.4 15.8 2 2.4 6 14.7 6 18.4 0 2.1-.7 5.6-1.6 7.7-1.8 4.2-5.9 19.7-6.8 25.4-.3 1.9-1 5-1.5 6.7-.5 1.8-.8 3.3-.5 3.3.3 0 0 .8-.5 1.8-.9 1.8-1.8 7.9-2.5 17.7-.2 2.7-.7 4.9-1 4.8-.3-.1-2.8-.5-5.4-.8-6.2-.8-12.1-3.4-10.3-4.5.8-.4 1.1-1.2.7-1.8-.3-.6.2-1.6 1.1-2.2 1.7-1 1.6-1.1-.2-.8-1.1.2-2.1 1.2-2.3 2.3-.2 1.1-.8 2.4-1.3 2.9-1.3 1.4-7.8-4.1-8.6-7.2-1.1-4.8-5.2-10.2-10-13.4-4.2-2.7-12.7-2.4-19.1.7-2.9 1.4-5.8 2.5-6.5 2.5-2.4 0-3.7 2.1-2.2 3.6.9 1 3 1.2 7.8.7l6.5-.6 5.1 4.8c3 2.9 5 5.4 4.7 6.2-.3.8-.2 1.1.4.8 1.1-.7 3.5 3.7 4.5 8.5 1.8 8.5 6.9 13.5 16 16 6.4 1.7 12.9 6.5 15 11 .8 1.9 1.9 7.5 2.4 12.5.5 4.9 1 9.7 1.2 10.5.3.9-.8 1.7-3.3 2.4-2.1.5-4 .7-4.4.4-1.2-1.3-.6-9.9.9-11.4 1.1-1.1.8-3.4-.4-3.4-.5 0-.7.4-.4 1 .3.5.2 1-.2 1-1.6 0-3.1 5.9-2.6 9.9.5 3.4.2 4.1-2.1 5.6-1.4.9-2.3 2.1-2 2.6.3.5-.1.6-.9.4-.7-.3-3 .6-5.1 2-2 1.4-4.3 2.5-5.1 2.5-.8 0-2.3.8-3.3 1.7-1 1-2.5 1.9-3.3 2.1-3.7.7-6.9 2.6-6.9 4.1 0 1-.3 1.2-.8.5-.8-1.3-18.2 11.8-18.2 13.7 0 .6-.9 2.2-2 3.6s-2 3.3-2 4.1c0 .9-.8 2.4-1.7 3.5-1 1.1-1.2 1.7-.5 1.3.6-.4 1.2-.3 1.2.3 0 .5-.5 1.1-1 1.3-.6.2-1.2 1.4-1.5 2.7-1 5.5-2.3 3.8-3.5-4.6-.6-4.8-1.6-9.7-2.1-10.8-.9-1.9-.9-1.8-.5.2.2 1.3 0 2.6-.5 2.9-.8.5-1.3-.9-1-2.9 0-.4-.4-.7-1-.7-1.2 0-.2 3.8 1.6 6 1.5 1.8 3.6 11.1 3.5 16-.1 6.6-.4 9-1.2 9-.4 0-.6 1.7-.4 3.7.2 2.1.2 3.3-.1 2.6-.2-.7-1-1-1.7-.7-1.2.5-1.8 7.6-2 22.1-.1 3.5-.5 6.3-.9 6.3-.5 0-.5.5-.2 1.1.4.6.7 5.3.6 10.5-.1 6.2.2 9.4 1 9.4.6 0 .3.7-.5 1.6-2 1.9-2 2.5-.1 1.8.8-.4 1.5-.1 1.5.5s-.7 1.1-1.5 1.1-1.5.7-1.5 1.6c0 1 .6 1.4 1.4 1.1 1-.4 1.4.4 1.4 3.1v3.7l-1.4-3-1.4-3 .7 3.5c.4 1.9.7 8.4.7 14.5.1 6 .4 11.5.8 12.1.4.6.5 1.4.1 1.8-.4.3-.7 12.5-.7 27-.1 14.6 0 26.4.1 26.2.7-.6 1.4-21.4 1.9-51.6.3-18.4.7-37.1.9-41.5.2-4.4-.1-8.6-.6-9.5-.8-1.1-.9-1-.4.7.3 1.2.1 2.4-.4 2.8-.7.4-.9-2.7-.6-8.7 1.6-30.1 1.8-32.8 3.2-32.8.8 0 1.3-1.1 1.3-3 0-6.9 4.1-20.7 5.9-19.6.4.3 1.3-1.7 2-4.3 1.7-6.6 6.5-11.3 15.1-14.6 3.8-1.5 7.9-3.4 9.2-4.4 1.3-1 2.9-1.6 3.6-1.4.7.3 1-.1.6-1.1-.7-1.8-2.9-2.1-3.9-.7-.3.5-1.9 1.2-3.5 1.6-1.7.4-3 1-3 1.4 0 .4-1.1 1.3-2.5 1.9-4.5 2-2.6-.6 3.3-4.7 3.1-2.2 6.2-4.5 6.8-5 .6-.5 2.1-1.2 3.5-1.6 3.2-1 5-2.5 4.3-3.7-.3-.5.4-.4 1.5.4 1.8 1.1 2.3 1.1 3-.1.5-.8 1.4-1 2.1-.6.8.5 1.1.4.6-.3-.9-1.4 10-7.5 12.4-6.9 1.4.4 1.8 0 1.5-1.5-.3-1.5 0-1.8 1.5-1.3 1 .3 3.3-.1 4.9-.9 1.7-.9 4.1-1.6 5.5-1.6 1.3 0 2.6-.4 2.8-.8.5-1.2 13.8-4 18.1-3.7 2.1.1 4-.2 4.3-.7.3-.5.9-.6 1.4-.3.4.2 2.5.7 4.6 1 2.2.3 5.7.8 7.9 1.1 2.2.3 8.1 2.6 13.1 5s9.4 4.4 9.8 4.4c.3 0 2.3.7 4.4 1.7 2 .9 3.9 1.7 4.2 1.7 4.1 1.1 11.4 10 14.9 18.2 2.8 6.7 7.9 25.8 8.1 30.2 0 .7-.5 1-1.1.6-.8-.4-.9.1-.3 1.7.4 1.3.8 9.1 1 17.4.2 15.8.8 26 1.8 31 .3 1.6.7 3.8.9 4.9.4 2.4 3.5 4.6 5.3 3.9 2.3-.9 1.6-2.2-.9-1.7-1.5.2-2.4-.1-2.4-1 0-.8.8-1.1 1.9-.8 1.3.3 1.8-.1 1.8-1.7 0-1.1-.6-2.1-1.2-2.1-1 0-1-.2 0-.9.9-.5 1.2-2.2.9-4.7-.3-3.3-.5-3.6-1.2-1.7-.4 1.3-1.2 2-1.9 1.6-.7-.4-.7-.2.1.8.8 1 1 2.5.4 4.5-1.9 6.5-3.6-6.8-3.5-26.4.1-11.8.9-17 2.1-13.5.3.7 1.2 1.3 2.1 1.3 1.3 0 1.2-.3-.4-1.5-1.8-1.4-1.8-1.6 1.6-4.5 3.5-3.1 10.5-7 12.4-7 2.3 0 7.9-4.8 9.7-8.2 1-2 2.4-6.8 3.1-10.6 1-5.7.9-7.5-.3-10.3-.7-1.9-1.3-3.7-1.2-4.1.2-.4-2.9-3.5-6.7-7-3.8-3.5-7-6.8-7-7.5 0-.7-.6-1.6-1.3-2-2.1-1.2-7-12.1-8.8-19.3-2.9-11.8-1.1-17.5 8-25.5 1.9-1.7 4.4-4 5.7-5.1 1.3-1.2 2.5-1.9 2.8-1.6.7.6 4.6-3.3 4.6-4.5 0-.5 1.4-2.3 3-4.1 1.7-1.8 3-3.9 3-4.6 0-.6.4-1.6.9-2.2 1.2-1.2 2.5-8.7 2.5-15.1.1-2.8.4-4.9.9-4.6.4.2.7.1.7-.3 0-1.7-2.6-8-3.7-9.2-.7-.7-1.3-1.8-1.3-2.3 0-.5-.6-.9-1.4-.9-.8 0-1.6-.7-2-1.5-.3-.8-1.7-1.5-3.1-1.5-1.4 0-2.5-.5-2.5-1.1 0-.5-.4-.8-.9-.4-1.8 1-7.4 1.3-10.5.4-1.7-.5-3.4-.5-3.9 0-1 1 7.5 3.1 12.6 3.1 4.1 0 10.8 3.8 12.4 7 1.6 3.2 1.6 13 0 20.1-2 8.1-7.8 17.1-14 21.5-2.9 2.1-5.6 4.2-6.2 4.8-.5.6-2.6 2.3-4.6 3.8-3.8 2.8-5.6 7.3-6.3 15.3-.8 9.2 8.9 29.4 17.6 36.7 7.1 6.1 9.8 10.7 9.8 17.1 0 11.2-5.2 21-11.9 22.3-1.7.4-3.1 1.1-3.1 1.7 0 1-5.5-4.4-9-8.9-.8-1.1-3.1-3.1-5.1-4.6-2.7-2-3.9-3.9-4.8-7.5-.7-2.6-1.7-5.7-2.2-6.8-.5-1.1-1.3-3.2-1.8-4.7-2.2-6-13.5-18.8-16.6-18.8-2.8 0-3.4-8.7-1.1-16.4.8-2.6 1.8-7.6 2.1-11 .6-5.5.4-6.9-1.9-11.4-3.3-6.5-6.3-9.3-16-14.8-7.4-4.2-11.6-7.2-18.5-13.4-2.2-2-3.1-2.3-3.9-1.3-1.7 1.7-.4 4.3 2.2 4.3 1.1 0 5.8 2.6 10.3 5.8 4.5 3.1 11 7.5 14.4 9.7 4.5 2.9 7.2 5.4 9.3 9 3.7 6.3 3.7 10.5 0 25.3-1.4 5.8-1.5 8-.7 10.3.6 1.6 1.1 2.9 1 2.9-1 0-11.7-4.6-17.2-7.4-7.6-3.8-13.2-5.3-21-5.7-6.1-.3-10.6-3.5-13.2-9.4-.9-2.2-2-4.2-2.3-4.5-.3-.3-1.4-2.5-2.5-5-1-2.5-2.4-5.2-3.1-6-.6-.8-1.5-3.5-1.9-6-.9-5.4-2.4-8.5-5.9-12.3-2.5-2.7-2.6-3.3-2.1-9 .8-7.5 1-8.6 1.8-11.2.3-1.1.8-3.1 1.1-4.5.3-1.4 1.2-5.7 2-9.5.8-3.9 1.7-8.4 1.9-10 .2-1.7.6-3.7 1-4.5 2-5.4 3.7-11.8 3.7-14.2 0-1.7.4-2.7 1-2.3.6.4 1-1.6 1-5.4 0-5.9-2.6-15-5.7-19.8-1.8-2.7-2.8-7.4-2.7-13.3 0-5.7.9-11.8 1.7-12.7 1.4-1.3.6-10.3-1.2-14.6-2.1-4.8-8.9-12-10.8-11.3-.6.3-1.7-.2-2.3-1-1.5-1.7-4-1.8-4-.2 0 .8-.3.9-.8.3-.9-1.3-7-1.7-7.7-.6zm-17.4 117.6c1.7 1.7 4.5 5.9 6.2 9.4 2 4.1 4.2 7 6.1 8.2 1.7 1 3.7 2.3 4.4 2.9.8.8 1.2.8 1.2 0s.6-.7 2.1 0c1.1.6 4.8 1.6 8.2 2.1 8.8 1.4 13.5 6.2 15.3 15.4 1.1 5.9 11.1 25.6 14.6 28.7l3.1 2.8h-4.2c-2.3 0-7.7.9-12.1 2.1-4.4 1.1-8.4 1.8-8.9 1.5-.4-.3-1.1-4.3-1.5-8.8-1-12-3-16.9-8.5-21.1-2.5-1.9-6.8-4-9.6-4.7-9.7-2.7-13.8-7.3-16.3-18.8-.6-2.3-1.7-4.8-2.5-5.6-.9-.9-2.4-2.6-3.4-3.8-1-1.3-3.6-3.8-5.7-5.7-3.8-3.2-4.2-3.3-9.9-2.7-6.8.7-6.8.3 0-3 3.8-1.9 6.1-2.3 11.5-2.1 5.9.2 7.1.6 9.9 3.2zm72.4 17.5c.3.5.1 1-.4 1-.6 0-1.1-.5-1.1-1 0-.6.2-1 .4-1 .3 0 .8.4 1.1 1zM274 251.3c4.6 4.6 4.7 4.9 2.7 5.7-1.2.4-3.3 2-4.6 3.4-2.8 3-5 3.4-5.2.8-.1-.9-.3-4-.5-6.8-.2-2.9-1-7.1-1.8-9.4l-1.4-4.2 3 2.8c1.7 1.6 5.2 5.1 7.8 7.7z"/><path d="M174.1 182.6c0 1.1.3 1.4.6.6.3-.7.2-1.6-.1-1.9-.3-.4-.6.2-.5 1.3zM284.8 92.6c-.3.3-3 .7-5.9 1-10.4.8-17.5 3.6-17.3 6.8.2 1.8-1.1 2.2-2.1.6-.3-.6-1.6-.9-2.8-.9-1.5.1-1.7.3-.6.6 2.2.6 4 4.9 3.3 7.9-.8 3.1-2.6 3.2-2 .1.7-4-.8-5.3-3.3-2.8-2.1 2.1-2.1 2.1-2.1.1 0-1.1.7-2 1.5-2s1.5-.4 1.5-.9c0-2-2.2-2.2-6-.5-4.2 1.9-4.4 3.2-1.6 9.4 1.2 2.6 5.4 5.2 6.9 4.3.5-.3-.5-1.2-2.2-1.9-1.7-.7-3.1-1.4-3.1-1.6-.1-.2-.3-2.1-.7-4.3l-.5-4 3.3 4.2c4.9 6.1 9.3 5.6 10.1-1.2.3-2.7.7-3 3.8-3.1 1.9-.1 5.4.8 7.8 1.9 3.2 1.6 4.5 1.8 5.4.9.9-.9.8-1.2-.6-1.2-1 0-2.9-.9-4.2-1.9-1.8-1.4-3.4-1.8-6.4-1.4-3.5.5-4 .3-4-1.5 0-3.8 11.4-6.7 26-6.6 10.9.1 18 5.9 23 19 6.1 15.7 4.4 24.1-9.2 44.9-5.8 8.9-7.4 12.1-8.2 16.6-.7 3.8.9 13 2.7 16.4.6 1.1 1 2.3.9 2.7-.1.3.5 1.2 1.3 1.8.8.7 1.5 1.9 1.5 2.6 0 .8.4 1.4.8 1.4.5 0 1.5 1.1 2.2 2.5.7 1.4 2 2.5 2.7 2.5.8 0 1.2.4.9.9-.3.5.1 2.1.8 3.7 7 14.4 7.9 17.7 8 27.5 0 10.7-.6 12.2-9.7 22.6-4.1 4.5-13.8 12.3-15.5 12.3-1.9 0-11.3 9.3-13.8 13.6-3.4 5.8-4.8 10.9-3.5 13.2.8 1.3 1 .9 1.1-2.4 0-2.7.8-5.1 2.5-7.4 1.4-1.9 2.5-4 2.5-4.8 0-.7.3-1.1.8-.9.9.4 5.2-4 4.4-4.7-.3-.3-.1-.6.4-.6.6 0 2-.9 3.1-2 1.8-1.6 2.3-1.7 3.3-.5.6.8 2.7 1.9 4.6 2.5 6.7 2.2 12.1 6 13.5 9.3 1.8 4.2 1.8 20.6.1 27.2-1.5 5.4-5.1 15.4-6.2 17-.4.5-1.5 3.2-2.5 6-2 5.5-4.1 9.2-6.5 11.5-.9.8-4.4 5.1-7.8 9.6-4.4 5.7-7.5 8.7-10.7 10.3-2.6 1.3-4.4 2.6-4 2.9.7.8 9.7-3.8 10.8-5.5.4-.7 2.5-3.3 4.5-5.7 2-2.4 4.5-5.3 5.5-6.5 1.6-2 1.9-2.1 5.5-.6 2 .9 3.9 2 4 2.5.5 1.3 2.2 1.3 2.2 0 0-.6-2-1.9-4.5-3l-4.4-1.9 3.4-5.3c1.9-2.9 3.5-5.6 3.5-6 0-.4.4-1.7.9-3s.8-2.5.8-2.8c0-.3 1-2.4 2.2-4.8 1.2-2.4 3.4-8.9 4.8-14.5 2-8 2.4-11.8 2.1-18.2-.5-9.7-2.4-13.8-7.6-16.2-2-.9-3.9-2-4.2-2.3-.3-.3-2.4-1.2-4.7-2-4.6-1.4-5.5-2.9-2.3-3.7 1.1-.3 1.7-.9 1.4-1.4-.3-.5.1-.9.8-.9.7 0 2.7-1.2 4.3-2.8 1.6-1.5 3.2-2.7 3.5-2.7.3 0 .4-.4.2-.8-.1-.5.7-1.1 1.8-1.4 1.1-.3 2-1.1 2-1.8s1.1-2.4 2.5-3.9 2.5-3.1 2.5-3.7c0-.5.5-.9 1.1-.9.5 0 .8-.4.5-.9-.4-.5-.2-1.1.4-1.3.5-.1 1-1.8 1.2-3.6.1-1.9.6-3.6 1-3.8 1.1-.7 1-16.4-.1-16.4-.5 0-1.1-1.8-1.5-4-.3-2.2-1-4-1.5-4s-1.5-1.7-2.2-3.8c-1.3-4.1-2.2-5.6-8.6-15.4-4.5-6.8-5.9-10.3-7.2-19-.9-5.5.5-9.1 8.2-21.1 2-3.1 3.7-6.1 3.7-6.5 0-.4 1.5-3 3.3-5.7 1.9-2.8 3.7-6.4 4.2-8 1.2-4.7 1.6-15.3.5-16-.5-.3-.7-1.2-.4-2 .3-.8-.1-2.7-.9-4.2-.9-1.5-2.9-5.8-4.5-9.4-1.9-4.2-4.1-7.4-6.2-8.9-5.2-3.7-18.4-7.3-20.2-5.4zm-28.1 16c-.3.3-1.2.4-1.9.1-.8-.3-.5-.6.6-.6 1.1-.1 1.7.2 1.3.5z"/><path d="M202.5 110.5c-2.7.8-5.2 1.4-5.5 1.5-.3 0-1.4 1.6-2.5 3.6-1.3 2.4-3.2 4.1-5.8 5.1-4.4 1.8-7.7 7.2-7.7 12.8 0 3.6 2.2 5 3.4 2 .3-.8 1-1.5 1.6-1.5.6 0 .8.4.5 1-.3.5-.1 1.8.5 2.7 1 1.6 1.1 1.6.6.1-.6-2.1 2.1-4.4 4.9-4 2.3.3 5.5-3.3 5.5-6.3 0-1 .7-1.5 1.8-1.3 1.7.4 1.8 1.1.6 6-.4 1.6-.2 2.8.4 2.8 1.3 0 2.5-8.1 1.4-9.2-1.6-1.6-5.2-1.8-5.2-.3 0 3.5-2.4 6.5-5.1 6.5-1.5 0-3.1.5-3.4 1-.5.8-1.1.8-2 0-1-.8-1.7-.5-3 1.2-1.6 2.3-1.6 2.3-1.1-1.5 1.1-7.4 5.4-12.5 9.5-11.4 1.2.3 2.2-.8 3.6-3.5 2.1-4.4 3.4-5.3 8.5-6.3 4.8-.9 7.6 2 6.6 6.7-1.8 8.1-1.7 8.9.9 13.3 3.1 5.5 7.3 8.6 14.8 11.4 9.1 3.3 13.5 5.9 17.8 10.3 5.4 5.6 7.1 9.9 7.2 18.6.1 4.6.4 6.9 1.1 6.2 1.3-1.3 1.3-12.3-.1-15.1-.6-1.3-1.6-3.8-2.2-5.4-2.6-6.6-7.1-9.9-21.5-15.5-4.8-1.9-9.7-4.4-10.7-5.5-6.4-6.8-7.6-9.6-6.5-14.3 1.9-7.7 1.9-8.2-.8-10.7-1.5-1.4-2.8-2.5-2.9-2.4-.1 0-2.4.7-5.2 1.4zM155.4 123.7c-.4 1-.8 2-.8 2.3-.1.3-.7 1.5-1.4 2.7-1 1.9-1 2.3 0 2.3 1.7-.1 6-9 4.3-9-.7 0-1.6.8-2.1 1.7zM59.5 149c.4.6-.9 1-3.3 1-3.7 0-7.5 2.4-7.1 4.6.4 2.3-1.5 5.3-3.8 5.9-1.3.3-4 0-5.8-.7-2.8-.9-3.9-.9-6 .2-3.1 1.6-5.5 8.4-3.7 10.2.9.9 1.2.4 1.2-2.1 0-1.8.5-4.1 1-5.2.9-1.5 1.3-1.7 2.4-.7.8.7 1.2 1.6 1 2-.2.4 0 .9.6 1.3.5.3 1 1.5 1 2.7 0 1.6-.5 1.9-2.5 1.5-1.4-.2-2.4-.2-2.1 0 .3.3 0 1.1-.7 1.8-.9.9-1.6.9-2.9.1-2.3-1.4-2.4-6.3-.2-8.7 1.5-1.6 1.4-1.7-.5-1.2-1.3.3-2.2 1.6-2.6 3.7-.7 4.4-.3 7.6 1.1 7.6.6 0 2.6.3 4.4.7 2.8.5 3.2.4 2.7-1-.5-1.2-.1-1.7 1.3-1.7 1 0 2.2-.5 2.5-1 .4-.7 2.3-.1 5.1 1.5 3.1 1.8 5.6 2.5 8.4 2.3 5.6-.3 5-1.7-.6-1.5-2.5.1-4.8-.3-5.2-.9-.4-.5-2.3-1.9-4.2-3.1l-3.4-2.2 2.7-.6c1.5-.4 2.7-1.3 2.7-2.1s.9-1.4 1.9-1.4c3.1 0 5.1-1.1 5.1-2.7 0-.8.7-3 1.6-4.9 1.5-3.2 1.9-3.4 6.5-3.2 3.1.2 4.9.7 4.9 1.5 0 .7.6 1 1.3.8.6-.3 2.4.5 3.9 1.7 1.5 1.3 3.9 3.1 5.3 4.1 1.5 1.1 2.4 2.1 2.1 2.4-.3.3-.1 1.4.4 2.4.8 1.3.6 1.9-.8 2.2-.9.3-.4.5 1.3.6 2.2.1 2.6.4 1.6 1-.8.5-2.1.7-2.9.3-1-.3-1.3-.1-.8.6.4.7 1.7 1 3 .6 2.1-.5 2.2-.2 2.3 5.1 0 3.1.3 5.9.6 6.2.4.3.2 1.4-.4 2.5-.8 1.5-.6 2.3 1.1 3.8 1.3 1.1 1.7 2.1 1 2.5-.5.3-1 1-1 1.6 0 1 5.1 3.5 9.1 4.3 1.4.3 3.6 1.5 4.9 2.6 1.8 1.6 2 2.2 1 3.4-1.6 2-5.3-.1-4.6-2.7.2-.9 0-1.5-.5-1.1-1.5.9-1 2.8 1.1 4.7 2.5 2.1 5 2.2 5 .1 0-.9.6-1.4 1.3-1.1.6.2 1.1 1 .9 1.6-.1.7.2 1 .8.6 3-1.8-7.7-10.5-12.9-10.5-1.4 0-2.2-1.2-3.1-4.9-1.4-6.1-1.5-6.5-2.4-12.6-1.2-8.4-2.8-14.5-3.5-14-.5.2-1.4-.7-2.1-2-.7-1.4-2.1-2.7-3-3-1.6-.5-3.1-1.6-7.7-5.5-1.9-1.6-6.5-3.2-5.8-2zm-23 12c.4.6 1 .8 1.5.5 1-.6 4 .4 4 1.5 0 .4-1.1 1-2.5 1.3-1.4.2-2.3.2-2.1-.1.3-.2-.5-1.3-1.7-2.3-1.2-1-1.7-1.8-1-1.9.6 0 1.5.5 1.8 1z"/><path d="M58.3 153.7c-2 .7-1.5 4.1.6 4.8 2 .6 6.1-1.3 6.1-2.7 0-.5-1.4-.8-3.1-.8-1.7 0-2.8-.4-2.4-1 .7-1.1.6-1.1-1.2-.3zm3.3 4.1c-.4.3-1.4-.2-2.4-1.2-1.6-1.8-1.6-1.8.6-.6 1.3.6 2.1 1.4 1.8 1.8zM146.1 171.5c-.8 4.9-1.4 9.3-1.3 9.7.1.5-.2.8-.8.8-.5 0-1 1.1-1 2.5s-.4 2.5-.8 2.5c-.8 0-3.4 4.8-3.3 6 0 .3-.7 1.6-1.5 2.9-1.2 1.7-1.4 3.5-.9 6.7.9 5.9 2.3 5.6 1.8-.4-.4-4 .1-5.7 3.1-11.5 2-3.7 3.3-6.7 3-6.7-.3 0 .1-.7 1-1.5 1.8-1.8 2.9-8.2 2.4-15-.3-4.8-.4-4.6-1.7 4zM56.4 169.9c-.2.2-.4 1.1-.4 1.9 0 1.2.4 1.1 2.1-.4 2-1.8 2.2-1.8 3.3-.2.7 1 1.6 1.5 1.9 1.1.6-.5 1.1 4.3 1 8.4-.1.7.4 1.3.9 1.3 1.5 0-.1-9.2-1.9-11.2-1.4-1.6-5.7-2.1-6.9-.9zM160.1 177.6c-.6 1.5-.9 2.9-.6 3.3.8.7 2.5-2.1 1.9-3.1-.3-.4 0-.8.5-.8.6 0 1.1-.5 1.1-1 0-1.9-1.7-1-2.9 1.6zM251 181.6c0 .8-.4 1.2-1 .9-.5-.3-1 .2-1.1 1.2 0 1-.4 5.1-.8 9-.4 4-.3 7.3.1 7.3s.8-2.1.8-4.8c.1-2.6.9-7.1 1.9-10 1-2.8 1.4-5.2.9-5.2-.4 0-.8.7-.8 1.6zM65 184.6c0 .8.5 1.2 1 .9.6-.4.8-1.1.5-1.6-.9-1.4-1.5-1.1-1.5.7zM65 188.5c0 .8.5 1.5 1.1 1.5.6 0 .8.7.5 1.6-.8 2.1.4 9.4 1.6 9.4.7 0 .6-4-.2-6-.1-.3-.2-.9-.1-1.4.1-.5-.1-2.2-.4-3.7-.7-3-2.5-4-2.5-1.4zM279.2 189.6c1 1 2 1.6 2.2 1.3.3-.3-.5-1.1-1.7-1.8-2.1-1.3-2.1-1.2-.5.5zM283 192.4c0 .2.7.9 1.5 1.6 1.3 1.1 1.4 1 .9-.4-.5-1.4-2.4-2.3-2.4-1.2zM344.7 198.4c-1.3 1-1.8 2.9-2 6.5 0 2.8.2 5.3.5 5.7.4.3-.2 1.4-1.3 2.5-2.7 2.7-2.4 3.9 1.1 4.5 1.7.4 3 1 3 1.4 0 1 5.7 7.8 11.1 13.1 3.8 3.9 6.2 5.2 13 7.3 4.5 1.4 9.1 2.6 10.1 2.6 1.8 0 2.5.3 8.7 3.4 1.8.9 3.6 1.4 3.9 1.1.3-.3 0-.5-.7-.5s-1-.4-.7-.9c.6-1-6.2-3.5-12.4-4.6-5-.9-15.1-4.6-17.4-6.5-8.7-6.9-16.4-19-16.8-26.3-.1-2 .1-4 .4-4.3.7-.7 5.8 6.6 5.8 8.2 0 .6 1.7 2.7 3.8 4.6 4.7 4.2 17 8.4 30.5 10.3 13.3 1.8 19.5 5.3 25.9 14.5l1.7 2.5-.9-3.4c-1.3-4.7-3.1-6.4-11.3-10.5-5.6-2.8-9.5-3.9-17.7-5.1-15.8-2.2-29-7.9-29-12.5 0-.8-1.8-4-4-6.9-2.3-3-3.9-6-3.6-6.8.6-1.6.6-1.6-1.7.1zM325.9 201c-6.9 1.9-8.6 5.1-5.3 9.8 1.6 2.3 7.4 3.2 7.4 1.1 0-.6-.6-.9-1.2-.6-2.3.8-4.8-1.3-4.8-3.9 0-1.7-.4-2.3-1.2-1.9-.7.4-.4-.1.7-1 1.9-1.5 2-1.5 2.9 1.4.8 2.6 1.4 3.1 4.1 3.1 3.3 0 4.5-1.3 4.5-4.9 0-2.3-3.8-4-7.1-3.1zm4.5 4.5c-.4.8-1.2 1.5-2 1.5-2 0-1.7-1.8.4-2.3.9-.3 1.8-.5 1.9-.6.1 0 0 .6-.3 1.4zM68.7 204.7c1.2 7.4 6 12.7 12.5 13.8 4.2.8 7.8 3.1 7.8 5.1 0 .8.4 1.2 1 .9 1.9-1.2-2.2-5.5-6.4-6.7-4.6-1.3-12.1-5.6-11.2-6.5.3-.3-.1-1.2-.9-2s-1.5-2.8-1.5-4.4c0-1.6-.4-2.9-.9-2.9-.4 0-.6 1.2-.4 2.7zM101.5 206.5c.3 1.6.6 3.6.7 4.2.1 1.5 1.8 1.8 1.8.4 0-.5-.7-2.4-1.5-4.2l-1.6-3.4.6 3zM24.7 212.8c.2 1 1.7 2.3 3.3 3 4.5 2 7.8 5 9.4 8.5 4.5 9.9 4.7 10.6 3.5 19.1-2 15.3-1.5 21 2.7 28.5 1 1.8 2.5 4.4 3.2 5.8.8 1.3 2 2.7 2.7 2.9.7.3 2.8 2.7 4.6 5.5 3.3 4.8 6 6.8 3.9 2.9-.6-1.1-1.5-2-2-2-.6 0-1-.5-1-1.1 0-.7-1.8-3.1-4-5.5-6.3-6.8-9.3-14.4-9.4-23.4 0-4.1.4-10.7.8-14.5.7-6.2.6-8-1.4-13.5-2.2-6.2-6-11.2-10.5-13.8-2.3-1.3-1.8-1.4 6-1.4 8.2.1 11.5 1.2 15.6 5.4 4.8 5 7.4 12.9 6.5 19.5-1.9 13.6-1.9 18.9.3 23.3 1.2 2.4 2.1 4.9 2.1 5.5 0 .6 2.5 3.5 5.5 6.5 3.1 3.1 6.2 7.3 7.1 9.7.9 2.4 2 4.3 2.3 4.3 1.2 0 2.9 5.6 4 13 .6 4.1 1.4 9.1 1.7 11 .4 1.9.7 10.7.8 19.5.1 16.4 0 17.2-5.2 34.5-2.8 9.1-2.1 21.6 1.9 33.3 1.8 5.3 4.1 10.6 5.1 11.7 1.9 2 7.8 2.8 7.8 1.1 0-.4-1.1-.6-2.4-.4-3.5.7-5.5-2.1-9-12.4-3.2-9.8-4.6-23.4-2.8-28 .6-1.6 1.3-4.2 1.6-5.8.3-1.7 1.4-6.2 2.6-10 2.6-8.6 3.1-16.3 1.8-32.5-2.1-28-5.5-38.6-15.9-49.5-7-7.3-9.2-13.7-8.3-24 1.6-17.6.4-23.9-5.6-30.7-4.7-5.4-9.6-7-20.5-6.7-4 .1-7.7-.1-8.3-.5-.6-.3-.8.1-.5 1.2z"/><path d="M26.2 219c-.7 1.1-.8 2-.3 2 .9 0 2.4-3 1.8-3.6-.1-.2-.8.6-1.5 1.6zM102.6 219.8c.6.4 1.4 1.4 1.7 2.2.4 1 .6.8.6-.8.1-1.5-.5-2.2-1.6-2.2s-1.4.3-.7.8zM90.6 227.5c.4.8.8 1.5 1 1.5.2 0 .4-.7.4-1.5s-.4-1.5-1-1.5c-.5 0-.7.7-.4 1.5zM361 238.8c0 .4.9.8 2 .9 1.1.1 1.8-.2 1.5-.8-.7-1.1-3.5-1.2-3.5-.1zM393 244.4c0 .2.7.7 1.6 1 .8.3 1.2.2.9-.4-.6-1-2.5-1.4-2.5-.6zM301.1 249.6c0 1.1.3 1.4.6.6.3-.7.2-1.6-.1-1.9-.3-.4-.6.2-.5 1.3zM138.5 250c2.7 1.2 4.3 1.2 2.5 0-.8-.5-2.2-.9-3-.9-1 0-.8.3.5.9zM401.2 254c0 1.4.2 1.9.5 1.2.2-.6.2-1.8 0-2.5-.3-.6-.5-.1-.5 1.3zM415.4 254.5c-.3.8-.4 2-.2 2.7.3.7.7.1 1-1.5.6-2.9.1-3.6-.8-1.2zM401.9 258.2c-.9 1.9-.3 6.8.8 7.2 1 .4 1.1.1.5-1.2-.5-.9-.7-2.7-.6-4 .1-1.8-.3-2.9-.7-2zM294 261.3c0 .1-.4 1.8-1 3.7-.9 3.2-.8 3.3.5 1.6 1.4-1.9 2.1-5.6 1-5.6-.3 0-.5.1-.5.3zM401.5 267.9c-.3.5-.1 1.2.5 1.6.5.3 1-.1 1-.9 0-1.8-.6-2.1-1.5-.7zM186 275.1c-2.5.5-8.1 1.6-12.5 2.4-4.4.9-11.5 2.2-15.9 3-4.3.9-8.6 1.9-9.5 2.4-.9.5-3.1 1.1-4.9 1.4-1.8.3-4.4 1.3-5.7 2.1-1.3.9-3.2 1.6-4.2 1.6s-3.6.9-5.8 2c-5.6 2.8 2.3.8 16-4.1 6.7-2.4 23.6-5.9 39.8-8.4 15.6-2.4 25.8-1.3 43.7 4.5 8.4 2.7 15.4 6 16.3 7.6.5.8 2.2 1.4 4 1.3l3.2-.1-3.2-.9c-4-1.2-4.4-2.4-.5-1.4 1.6.4 2.3.3 1.7-.3-1.6-1.4-25.5-9.8-31.5-11-16.7-3.3-22.5-3.7-31-2.1zM399.1 276c-.1 1.4-1 3.6-2.1 5s-2 2.9-2 3.5c0 .5 1.2-.7 2.6-2.8 1.5-2.2 2.4-4.7 2.1-6-.4-2-.4-2-.6.3zM272.1 282.8c-.7 2.1-1.1 4.7-.8 5.8.3 1.3.5 1.1.6-.9 0-1.5.8-4.1 1.6-5.7.9-1.7 1.2-3 .7-3s-1.4 1.7-2.1 3.8z"/><path d="M176.6 285.2c.3.5 1 .6 1.5.3 1.3-.9 1.1-1.2-.6-1.2-.8 0-1.2.4-.9.9zM215.5 286c.3.5.8 1 1.1 1 .2 0 .4-.5.4-1 0-.6-.5-1-1.1-1-.5 0-.7.4-.4 1zM284.6 286.2c1.6 2.9 3.8 4.8 5.6 4.8 2 0 7.9 7.6 9 11.7 1.9 7.1-5.2 25.7-11.6 30.3-1.9 1.4-3.9 3.5-4.5 4.7-.8 1.8-1.9 2.3-4.6 2.3-1.9 0-3.5.5-3.5 1.1 0 .8 1.2.9 3.8.4 2.7-.5 5.2-2.2 9-6 2.8-3 5.2-5.9 5.2-6.5 0-.5.3-1 .8-1 .8 0 3.2-4.9 3.2-6.7 0-.7.4-1.3.8-1.3 1.2 0 3.2-8.5 3.2-13.9 0-4-.7-5.9-4.1-11-3.1-4.6-4.6-6.1-6.4-6.1-1.4 0-2.9-.9-3.5-2-.6-1.1-1.5-2-2.1-2-.6 0-.7.6-.3 1.2zM192.4 288.9c-4.6 2.8-6.9 10.6-4.1 14.2 1.6 2.1 7.3 5 8.1 4.1.4-.3.4.1 0 1.1-.6 1.6.3 2.2 3.3 1.8.7-.1 1 .5.7 1.2-.4 1.1.4 1.4 3.6 1.1 5.2-.4 6.3-1.1 5.7-3.5-.3-1.2.4-2.7 2.2-4.2 3.1-2.6 4.3-5 3.5-7.2-.9-2.2-2.6-1.8-1.9.4.3 1.1 0 2.1-.9 2.4-1 .4-1.3-.2-1.2-1.9 0-1.3.4-2.4.9-2.4.4 0 .7-.6.7-1.3 0-1.7-4.4-5.9-5.3-5-.4.3-.7.1-.7-.5 0-.7-1-1.1-2.2-1.1-1.3 0-3.2-.1-4.3-.4-1.1-.2-2.3.1-2.7.7-.5.8-.8.7-.8-.2 0-1.7-1-1.5-4.6.7zm8 5c.9 1.6 1.3 3.1 1.1 3.5-.3.3.1.2.7-.4 2-1.7 2.8-1.1 2.8 2.1 0 2-.4 2.8-1.1 2.3-.7-.4-2.5-.7-4-.6-1.7 0-2.8-.4-2.6-1.1.1-.7-.4-1.1-1.2-.9-.9.2-1.1-.3-.7-1.3.3-.9.6-2 .6-2.3 0-.4.5 0 1 .8.7 1.1 1 1.1 1 .2 0-.7.5-1 1.1-.6.7.4 1 .1.7-.7-.3-.8-1.1-1.5-1.9-1.5-3.1-.3-3.3-.6-1.4-1.4 1.1-.5 2.1-.9 2.2-.9.1-.1.9 1.2 1.7 2.8zm6.3.3c-.3.8-.6.5-.6-.6-.1-1.1.2-1.7.5-1.3.3.3.4 1.2.1 1.9zm-3.2-.3c.3.5.1 1.2-.5 1.6-.5.3-1-.1-1-.9 0-1.8.6-2.1 1.5-.7zm-10 2.1c.3.5.1 1-.4 1-.6 0-1.1-.5-1.1-1 0-.6.2-1 .4-1 .3 0 .8.4 1.1 1zm14.5 2c0 .5-.5 1-1.1 1-.5 0-.7-.5-.4-1 .3-.6.8-1 1.1-1 .2 0 .4.4.4 1zm-13 3.6c0 2-.7 1.7-2-.6-.9-1.6-.8-1.8.5-1.4.8.4 1.5 1.2 1.5 2zm12.5 2.4c-.3.5-1 1-1.6 1-.5 0-.9-.5-.9-1 0-.6.7-1 1.6-1 .8 0 1.2.4.9 1zm-4.5.4c0 .2-.7.6-1.5 1-.8.3-1.5.1-1.5-.4 0-.6.7-1 1.5-1s1.5.2 1.5.4zm5 5.5c0 .4-1.1.6-2.5.3-1.4-.2-2.5-.6-2.5-.8 0-.2 1.1-.4 2.5-.4s2.5.4 2.5.9zM385.2 292.1c-4.1 3.9-4.1 4-1.5 3.7 1.6-.2 3.8-1.3 5.1-2.6 1.3-1.2 2.7-2.2 3.2-2.2.6 0 1-.5 1-1.2 0-.6-.3-.8-.7-.5-.3.4-1.1.3-1.7-.2-.7-.6-2.6.4-5.4 3zM31 290.2c1.4.5 4.5 1 6.8.9 3.4-.1 5.2.5 8.1 2.8 3.2 2.5 3.9 3.9 4.9 9.3.7 3.5 1.1 7.2.8 8.3-1.4 6.7-4.1 13.9-6 16.3-3.5 4.2-6.8 9.1-7 10.5-1.7 8.3-1.7 10.9-.2 14.1.9 1.9 1.6 3.8 1.6 4.3s1.1 2.4 2.5 4.3 2.5 4.1 2.5 4.9c.1.9.9 3.4 2 5.6 3.2 6.7 2.1 25.1-1.8 29.7-1.3 1.5-1.3 1.8-.1 1.8.9 0 1 .3.3.8-2.1 1.3-3.4 15.9-2 22.4.4 1.9.2 2.8-.6 2.8-.9.1-.8.4.2 1.3 1.1.8 1.6 3.2 1.7 7.2.1 4.2.7 6.3 1.8 7.2 1 .6 1.4 1.6 1 2.2-.3.6-.1 1.1.5 1.1s.8.4.5 1c-.3.5-.1 1 .5 1s.9.3.7.7c-.3.5-.1 1.7.3 2.8.7 1.8.9 1.8 1.5.3.4-.9-.5-4-2-7.3-3-6.7-4-13.1-4-27 .1-12.2.6-16.6 2.2-18.3.7-.7 1.3-2.7 1.3-4.3 0-1.6.4-2.9.8-2.9.5 0 .9-.6.9-1.3 0-.7.3-2.5.7-4 .3-1.5.2-2.7-.2-2.7-.5 0-.7-3.2-.5-7.1.2-5.2 0-6.8-.9-6.3-.8.5-.9.2-.5-.9.3-1 .2-1.7-.2-1.7-.5 0-1.4-1.4-2-3.2-.6-1.7-2.2-4.5-3.4-6.2-4.3-5.6-5.1-13-2.2-21.5.9-2.8 2.5-5.7 3.5-6.4 1-.7 2.4-2.5 3.1-4 .7-1.5 1.5-2.7 1.9-2.7.7 0 1.2-2 2.3-8 .2-.9.6-2 .9-2.6 1.2-1.8 0-14.1-1.6-17.2-.8-1.6-3.6-4.4-6.2-6.1-4.1-2.6-5.6-3.1-10.8-3-5.2 0-5.7.2-3.6 1.1zM27 291c0 .5.5 1 1.1 1 .5 0 .7-.5.4-1-.3-.6-.8-1-1.1-1-.2 0-.4.4-.4 1zM21 293.5c0 1.4.2 2.5.4 2.5s.6-1.1.8-2.5c.3-1.4.1-2.5-.3-2.5-.5 0-.9 1.1-.9 2.5z"/><path d="M31.4 294.5c.1 2.9 1.1 3.3 2.1.8.6-1.6.8-1.5 2.5.7 1 1.3 1.7 2.7 1.5 3-.2.3 0 2.1.5 4l.8 3.5.1-3.8c.1-4.1-1.3-7.5-3.8-9.4-2.5-2-3.9-1.5-3.7 1.2zM59.6 295.7c2.7 6.4 1.5 33.6-1.6 36.3-1 .9-3 10-2.9 13.3.1 3.1.2 3 .9-.8.4-2.2 1.2-5.5 1.8-7.3.6-1.7.8-3.2.4-3.2s-.1-.4.6-.8c2-1.3 4.2-14.3 4-24.3-.1-8.8-2-16.9-3.9-16.9-.4 0-.1 1.7.7 3.7zM122.3 294.7c-1.4.3-2.3 1.2-2.3 2.3 0 1.1 1 2.2 2.3 2.6 1.2.3 2.9 1.2 3.7 1.9.8.7 3.6 2.4 6.1 3.8 2.5 1.3 5.4 2.9 6.5 3.5 5.3 2.9 14 6.2 19.2 7.2 3.1.7 7.5 1.6 9.7 2.2 11.1 2.7 18.6 3.6 25.5 3.2 15.8-.9 18.8-1.4 28-4.5 8.8-2.9 25-10.3 25-11.4 0-.7-4 1-11 4.5-19.5 9.8-44 12.2-66 6.4-1.4-.3-6.3-1.3-11-2.2-4.7-.9-8.7-1.9-9-2.2-.3-.4-2.7-1.8-5.5-3.2-6.7-3.4-14.2-7.4-19-10.4-3.2-1.9-3.6-2.4-1.8-2.4 1.2 0 2.5-.5 2.8-1 .3-.6.3-.9-.2-.9-.4.1-1.8.4-3 .6zM27 296c0 .5.5 1 1 1 .6 0 1-.5 1-1 0-.6-.4-1-1-1-.5 0-1 .4-1 1zM406.5 296c-.3.5-.2 1 .4 1 .5 0 1.3-.5 1.6-1 .3-.6.2-1-.4-1-.5 0-1.3.4-1.6 1z"/><path d="M155.6 298.5c-.3.8-.1 1.5.3 1.5.5 0 1.1-.7 1.5-1.5.3-.8.1-1.5-.3-1.5-.5 0-1.1.7-1.5 1.5zM20.8 299.2c1 1.3 1 1.7 0 2.1-.7.3 1.3.5 4.5.5 3.9 0 5.7-.5 5.7-1.3 0-1-.8-1.1-3.5-.2-3 .9-3.8.7-5.7-.9-1.6-1.3-1.9-1.4-1-.2zM402.5 299c-.3.5-.1 1 .4 1 .6 0 1.1-.5 1.1-1 0-.6-.2-1-.4-1-.3 0-.8.4-1.1 1zM158.1 301.7c0 1.2.2 1.4.6.4.5-1.1.7-1.1 1.5 0 .8 1.2.9 1.2.6 0-.6-2.2-2.8-2.5-2.7-.4zM398.5 303c-1 1.1-1.4 2-.8 2 .5 0 2-.9 3.3-2 1.6-1.4 1.9-2 .8-2-.8 0-2.3.9-3.3 2zM250.5 304c-1 1.1-1.6 2.2-1.3 2.5.3.3 1.3-.4 2.3-1.5 1-1.1 1.6-2.2 1.3-2.5-.3-.3-1.3.4-2.3 1.5zM357.6 304.7c-2.2.3-5.1 1.3-6.4 2.4-1.4 1-3.3 1.9-4.4 1.9-1.1 0-1.6.4-1.3 1 .3.5-.1 1-1 1-2.3 0-6.5 3-6.5 4.6 0 .8-.4 1.4-1 1.4-1.7 0-7.7 6.7-10.8 12.2-1.9 3.3-3.8 9.1-5.2 15.5-3.6 17.7-6.5 24.6-13.4 32.9-3.3 4-5 4.3-7.1 1-1.7-2.5-10.3-7.6-12.9-7.6-.9 0-1.6-.5-1.6-1 0-1.1 4.9-1.4 7.5-.4 1.2.5 1.3.9.5 1.4-.8.5-.7.9.5 1.3 1 .4 1.4.3.9-.4-.4-.8.4-.9 2.7-.3 4.1.9 8.6.7 10.8-.6 1.1-.6-.1-.7-3.4-.3-3.5.3-6.2 0-8.9-1.1-2.1-.9-5.3-1.6-7.1-1.6-3.8 0-13.5 5.7-13.5 8 0 1.2.2 1.2.9.1.6-.9 1.1-1 1.5-.2.4.6.4 1.2-.1 1.2-.4.1 1 .5 3.2.9s6.1 1.4 8.8 2.3c2.6.8 4.7 1.1 4.7.6 0-.5-.7-.9-1.5-.9s-1.5-.4-1.5-1c0-.5-.7-.6-1.7-.3-1.1.4-1.4.3-.9-.5.4-.7.2-1-.7-.7-.7.3-2.4.1-3.8-.4l-2.4-1 2.5-.1c2.1-.2 2-.3-.9-1-1.9-.5-4-.6-4.8-.3-2.6 1-1.2-.6 1.9-2.2 3-1.5 3.5-1.4 8.5.6 3 1.2 5 2.6 4.6 3.2-.4.6-.1.7.6.2.8-.4 2.3.4 4.1 2.4l2.9 3.1-3 2.1c-1.6 1.1-2.9 1.7-2.9 1.2 0-.4-.4-.3-.8.3-1.5 2.3-7.9 4.7-13.2 5-6.5.3-7.8 1.8-1.8 2.1 4.9.3 11.8-1.3 11.8-2.8 0-.6.4-.8.9-.5 1.1.7 7.1-2.2 7.1-3.4 0-.9 3.9-2.5 5.2-2.2.4.1.5-.5.2-1.3-.5-1.1-.2-1.3 1.2-.8 1.1.4 1.5.3 1-.5-.4-.7.2-1.4 1.6-1.7 1.6-.4 3.5-2.8 6.1-7.6 2-3.8 3.7-7.6 3.7-8.4 0-.9.9-4.2 2-7.4 1-3.2 2.1-7.7 2.2-10 .2-2.2.6-4.1 1.1-4.1.4 0 .7-1.2.7-2.8 0-1.5.7-3.8 1.5-5.2.8-1.4 1.9-3.7 2.6-5.3.6-1.5 1.5-2.7 1.9-2.7.5 0 1.2-.9 1.5-2 .3-1.1 1.2-2 1.8-2 .7 0 3.1-1.8 5.5-4s4.7-4 5.3-4c.6 0 .7-.5.4-1-.3-.6-.1-1 .5-1 .7 0 2.6-.6 4.3-1.4 1.8-.7 5.1-2.1 7.5-3.1 2.3-1 4.2-2.2 4.2-2.7 0-.4-.1-.7-.2-.6-.2.1-2.1.3-4.2.5zM37 309.9c0 1.1-.5 2.3-1 2.6-.6.4-.8 1-.6 1.4.3.4-.4 1.4-1.5 2.1-1 .8-1.9 2-1.9 2.7 0 .7-.9 1.8-2 2.5s-2 2.1-2 3.1-.5 1.5-1 1.2c-.6-.4-1-.3-.9.2.3 1.9-.2 3.4-1 2.9-.8-.6-3.7 6-4.3 9.9-.2 1.1-.7 2.3-1.3 2.7-.6.5-.3.8.7.8 1.2 0 1.9-1.4 2.7-5.1.6-2.8 2.2-6.5 3.6-8.3 1.4-1.8 2.5-3.6 2.5-3.9 0-.7.6-1.4 5.8-7.1 1.2-1.4 2.2-3.2 2.2-4 0-.8.5-1.8 1-2.1.6-.3 1-1.3 1-2.1s-.4-1.4-1-1.4c-.5 0-1 .9-1 1.9zM243.4 310.2l-1.9 2.3 2.3-1.9c2.1-1.8 2.7-2.6 1.9-2.6-.2 0-1.2 1-2.3 2.2zM389.5 309c.3.5.8 1 1.1 1 .2 0 .4-.5.4-1 0-.6-.5-1-1.1-1-.5 0-.7.4-.4 1zM384.5 311.8c-1 1-.5 2.2.9 2.2.8 0 1.6-.6 1.9-1.3.5-1.3-1.7-1.9-2.8-.9z"/><path d="M349.5 316c.3.5.8 1 1.1 1 .2 0 .4-.5.4-1 0-.6-.5-1-1.1-1-.5 0-.7.4-.4 1zM374 321.6c-2.5 2.4-5.2 4.3-6 4.2-2.1-.3-6 1.2-6 2.2 0 .5.5 1.2 1 1.5.6.3 1 .2 1-.2 0-.5 2-1.5 4.5-2.2 2.5-.7 4.3-1.7 4-2.1-.3-.5.3-1.1 1.3-1.4 2.5-.8 8-6.6 6.1-6.5-.8.1-3.4 2.1-5.9 4.5zM418 324.3c-2.5 1.2-4.7 2.4-5 2.7-.3.3-3.8 2.5-7.9 5-4 2.4-7.8 4.9-8.5 5.5-.6.7-2.8 1.8-4.9 2.6-2 .7-3.7 1.7-3.7 2.1 0 .4-.3.7-.7.6-1.1-.3-13.7 6.3-14.1 7.3-.2.5-.8.9-1.2.9-1.2 0-13.4 7.6-18.9 11.7-3.4 2.6-4.7 3-5.7 2.2-2.8-2.3-1.5 1.1 1.4 3.7 1.5 1.3 4.6 4.3 7 6.6 2.3 2.4 4.2 3.7 4.2 2.9 0-.7-2.2-3.5-5-6.1-4.7-4.4-6.5-7.1-3.8-5.4.7.5.8.3.3-.6-.5-.9-.2-1 1.4-.5 1.7.5 2 .3 1.4-1.1-.4-1.1-.3-1.5.4-1.1.6.4 1.4-.1 1.7-1 .6-1.5.8-1.5 1.6-.3.8 1.3 1 1.2 1-.2 0-1 1.9-3 4.3-4.4 2.3-1.5 6.2-4 8.7-5.7 2.5-1.6 5.1-3 5.8-3 .6 0 1.2-.5 1.2-1 0-.6.3-.7.7-.4.3.4 1.6-.1 2.7-1 2-1.7 2-1.7.7 0-2.5 3.1-.3 3.1 2.7-.1 1.9-2 4.2-3.2 6.8-3.6 2.1-.4 5.6-1 7.7-1.5 3.1-.7 3.7-.6 3.3.5-.8 2.2.8 1.6 2.3-.7 1-1.8 1.5-1.9 2.2-.8.6.9.9 1 .9.2 0-.7 2.9-2.8 6.5-4.8 4.5-2.5 6.5-4.3 6.5-5.6 0-1-.6-1.9-1.4-1.9-1.9 0-6.7 5-5.9 6.3.3.5 0 .7-.8.5-.8-.3-3.2.5-5.4 1.8-4.9 2.8-13.2 4.9-11.5 2.9.6-.7 3.8-3 7.2-5 4.8-2.8 6.3-3.3 7-2.3.6.9.8.8.6-.6-.2-1.3 1.2-2.6 5.2-4.8 8.9-4.7 9.7-6.7 1-2.5zm1.5 6.7c-1 1.1-2.1 1.8-2.3 1.5-.3-.3.3-1.2 1.4-2 2.7-2 3-1.8.9.5zM270.5 324.1c-.4.6-.5 1.2-.2 1.5.2.3.7-.2 1-1.1.7-1.7.1-2-.8-.4z"/><path d="M423.2 328.5c0 1.6.2 2.2.5 1.2.2-.9.2-2.3 0-3-.3-.6-.5.1-.5 1.8zM356.3 332.5c-2.4 2.6-3.6 4.6-3 4.8 1.4.6 7.7-6.1 7.7-8 0-1.8 0-1.8-4.7 3.2zM271.3 335.8c0 3.5.3 5.9.7 5.5.4-.4.4-3.3 0-6.3l-.8-5.5.1 6.3zM89.6 334.6c-.4.9-.4 1.9-.1 2.2.2.3.7-.3 1.1-1.2.4-.9.4-1.9.1-2.2-.2-.3-.7.3-1.1 1.2zM308.6 337.7c-.6 1.4-.5 1.5.5.6.7-.7 1-1.5.7-1.8-.3-.3-.9.2-1.2 1.2zM350.8 339.8c-1.2.2-1.8 1.3-1.8 2.9 0 1.5-.7 3.4-1.5 4.3-1.2 1.4-1.3 1.7-.1 1.7s6.2-8.6 5.4-9.1c-.2-.1-1.1-.1-2 .2zM271 344.5c0 .8.5 1.5 1 1.5.6 0 1-.7 1-1.5s-.4-1.5-1-1.5c-.5 0-1 .7-1 1.5zM19.3 348c-.3 3.6 1.2 3.2 1.9-.5.3-1.5.1-2.5-.6-2.5-.6 0-1.2 1.4-1.3 3zM273.2 348c-1.3 1.1-2.2 2.5-2 3.1.4 1.1 1.1.6 4.6-3.6 1.8-2.1.2-1.8-2.6.5zM54.2 352c0 1.9.2 2.7.5 1.7.2-.9.2-2.5 0-3.5-.3-.9-.5-.1-.5 1.8zM377.8 350.8c-3.8 2.3-3.6 3.5.2 1.4 1.6-.9 3-2 3-2.5 0-.9.1-.9-3.2 1.1zM223.5 351.1c-2.5 1.2-6.9 7.5-6.1 8.7.3.5-.2.9-1 .9s-2.5-2.2-3.7-4.9c-2.3-5.1-4.2-6.1-5.2-2.8-.3 1.1-1 2-1.4 2-.5 0-1.4 1.3-2.1 3-1.6 3.8-3.9 5.8-4.8 4.2-2.3-3.6-6.6-8.2-7.7-8.2-.8 0-1.7 1-2.1 2.2-.3 1.2-1.3 3.7-2.1 5.7l-1.5 3.6-2.4-3c-1.3-1.7-2.4-3.5-2.4-4.2 0-1.8-3.3-2-5.3-.3-1 .8-2.5 2.8-3.4 4.4l-1.5 2.8-3.7-4.1c-4.8-5.3-6.9-5.3-7.7-.1-.4 2.2-1 4.2-1.3 4.5-.4.2-2.8-.3-5.4-1.2-4.5-1.5-4.9-1.5-6.1.3-.8 1-1.3 2.8-1.1 4.1.3 2.8 0 2.8-3.2.3-1.4-1.1-3.1-2-3.7-2-.6 0 .1.8 1.5 1.8 1.4.9 3.4 2.5 4.5 3.6 1 1 1.9 1.5 2 1 .1-.5.5-2.6.9-4.7.5-3 1-3.7 2.8-3.7 1.2.1 3.3.7 4.7 1.5 2.9 1.7 5.4 1.9 4.5.5-.3-.6-.1-1 .4-1 .6 0 1.1-1 1.1-2.3 0-4.8 1.5-5 5.6-.8 4 4.3 6.4 5.2 6.4 2.6 0-.9 1.2-2.7 2.8-4l2.7-2.4 3.7 4.2 3.8 4.2 2.1-2.4c1.1-1.4 2.3-3.7 2.6-5.3.7-3.7 1.5-3.5 4.9.9 3.3 4.5 4.3 5.3 5.9 4.7 1.7-.7 4.6-6 3.7-6.9-.4-.5-.2-.5.5-.1.6.3 1.8-.3 2.6-1.4 1.4-2.1 1.5-2 3.4 1.2 1 1.8 2.2 4.1 2.6 5 1 2.8 1.9 2.2 5.7-3.5 4.8-7.1 5.4-7.4 6.2-2.5 1.1 6.1 2.2 6.7 5.7 3.1 3.4-3.6 4.1-3.3 4.1 1.4 0 4.4 1.9 4.2 4.9-.4 2.3-3.6 2.4-3.6 4-1.6 2.7 3.3 4.6 3.4 7 .3 2.5-3.4 1.1-5-1.9-2-2.6 2.6-2.9 2.6-4.1-1-1.2-3.3-3.3-3.9-4.5-1.3-.4 1-.7 2.1-.6 2.4 0 .3-.6.6-1.4.6-.9 0-1.8-1.3-2.1-2.9-.7-3.7-1.9-3.5-5.8.9l-3.2 3.7.4-3.1c.5-3-1-7.4-2.5-7.2-.4 0-1.6.5-2.7 1zM19.7 353.5c-.4.8-.2 1.7.3 2 .6.4 1-.3 1-1.4 0-2.5-.6-2.7-1.3-.6zM271.9 353.7c0 .5-.2 1.8-.5 3-.4 2.6 1.1 3.1 2 .8.3-.8.1-1.5-.4-1.5s-.7-.7-.4-1.5c.4-.8.3-1.5 0-1.5s-.6.3-.7.7zM314.4 356.1c-.3.6-2.4.9-4.5.7-2.2-.2-3.9 0-3.9.4 0 1.4 7.6.9 9.6-.7 1-.8 1.4-1.5.7-1.5-.6 0-1.5.5-1.9 1.1zM53.6 359.1c-.8 4.3-.8 7.9.2 7.9.4 0 .8-2.5.9-5.5.3-6.2-.1-7-1.1-2.4zM19.6 358.3c.3 1 .9 1.5 1.2 1.2.3-.3 0-1.1-.7-1.8-1-.9-1.1-.8-.5.6zM364.2 361.5c-1.2 1.4-1.9 2.5-1.6 2.5.4 0 1.7-1.1 3-2.5s2-2.5 1.5-2.5c-.4 0-1.7 1.1-2.9 2.5zM271.8 362.5c.2 1.4.6 2.5.8 2.5.2 0 .4-1.1.4-2.5s-.4-2.5-.9-2.5c-.4 0-.6 1.1-.3 2.5zM339.9 364.7c-1.3 1.4-1.7 2.3-.9 1.9.8-.4.6 0-.4.8-1.1.9-1.4 1.6-.8 1.6.7 0 .2 1.1-1 2.5s-2.8 2.3-3.5 2.1c-1-.4-1.2.1-.7 1.8.3 1.4 0 2.9-1 3.8-.8.9-1.2 1.8-.9 2.2.3.3-.5 1-1.9 1.5s-2.8 1.7-3.2 2.6c-1.2 3.3-.6 3.6 1.8.8s2.5-2.8 5.4-1.1c1.7 1 3.8 1.8 4.9 1.7 1 0 .2-.7-1.9-1.6-4-1.6-4.7-3.3-2.3-5.3.8-.7 1.2-1.7.8-2.3-.3-.6-.1-.7.5-.3.7.4 1.2 1.4 1.2 2.2 0 .8.4 1.4.9 1.4s1.3.9 1.6 2.1c.4 1.1.9 1.8 1.1 1.6.6-.5-2.8-8.1-3.8-8.5-.4-.2-.4-1-.1-1.8.5-1.3.8-1.3 1.5-.2.8 1 .9.9.5-.4-.3-.9.3-2.4 1.4-3.4 1-.9 1.9-2.5 1.9-3.6 0-1.2.8-1.8 2.3-1.9 1.7-.1 1.8-.2.4-.6-.9-.2-1.5-.9-1.2-1.4 1.1-1.7-.2-.9-2.6 1.8zM121.8 363.7c.7.3 1.6.2 1.9-.1.4-.3-.2-.6-1.3-.5-1.1 0-1.4.3-.6.6zM123.6 365.2c-1.5 1.4-2.2 1.5-2.9.6-.5-.8-.6.3-.2 2.7.4 2.2 1.1 4.6 1.7 5.2 1.2 1.5 3.8 1.7 3.8.3 0-.5.6-.7 1.4-.4 1 .4 1.2-.2 1-2.3-.4-2.4-.3-2.5.5-.8.7 1.5 1 1.6 1 .4.1-.8-.9-2.9-2.1-4.5-2.2-3-2.3-3-4.2-1.2zm1.5 3c.1 2.2.1 2.2.9-.2.9-2.4.9-2.4.7.4-.1 1.9-.8 3-1.9 3.2-1.8.2-3.4-2.9-2.3-4.6 1.1-1.8 2.5-1.1 2.6 1.2zM358 365c.8.5 2 1 2.5 1 .6 0 .3-.5-.5-1s-1.9-1-2.5-1c-.5 0-.3.5.5 1zM272.7 366.7c-1.4 1.4-.7 3.2 1 2.6 1.1-.4 1.3-.8.5-1.1-.7-.2-1-.8-.6-1.3.6-1 0-1.2-.9-.2zM26.2 369.5c.6 1.4 1.3 2.4 1.4 2.2.6-.6-.9-4.7-1.7-4.7-.5 0-.3 1.1.3 2.5zM357 368c0 .5.5 1 1.1 1 .5 0 .7-.5.4-1-.3-.6-.8-1-1.1-1-.2 0-.4.4-.4 1zM53 373c0 2.2.5 3 1.8 2.9.9 0 1.2-.3.5-.5-.6-.3-.9-1.6-.7-3 .2-1.3 0-2.4-.6-2.4-.5 0-1 1.3-1 3zM273 374.5c-.8.9-.8 1.5-.2 1.5 1.2 0 2.6-1.9 1.9-2.6-.2-.2-1 .2-1.7 1.1zM54.4 380.1c.3 1.7.6 4.9.6 7 0 2.2.5 3.9 1.1 3.9.7 0 .9-1.4.5-3.8-.3-2-.7-5.2-.8-7-.1-1.7-.6-3.2-1.1-3.2-.5 0-.7 1.4-.3 3.1zM242 378.2c0 .7-.4 1.9-.9 2.7-.7 1.1-1.4 1-3.9-.8-3.7-2.6-5.2-2.7-5.2-.2 0 1.1-.4 2.3-1 2.6-.5.3-1 .2-1-.3 0-1.1-6.6-4.2-7.4-3.5-.3.4-.6 1.9-.6 3.5 0 3.1-.6 3.4-3.4 1.3-2.7-2.1-3.2-1.9-4.6 1.5-.7 1.7-2 3-3 3-.9 0-3.4-1.4-5.5-3-2.1-1.7-4.1-3-4.6-3-.4 0-1 1.4-1.4 3.1-1 4.3-4.2 5.3-7.8 2.3-3.7-3.1-3.9-3-5.6.8-2.5 6-3 6.1-7.1 2.4-6.5-5.8-7.4-6-9.3-2-.9 1.8-2.2 3.4-2.9 3.4-.6 0-2.6-1.6-4.4-3.6-3.2-3.4-6.3-4.2-5.6-1.3.2.8 0 1.1-.4.6-.4-.4-1.6 0-2.6 1-1 .9-1.9 1.3-1.9 1-.1-.4-.2-1-.3-1.5-.3-1.5-3.2-4.9-4.8-5.5-1.5-.5-1.8-.1-1.8 2.3 0 1.7.5 3 1.1 3 .6 0 .8-.9.4-2.3-.5-1.5.7-.7 3.9 2.8 4.7 5.2 4.7 5.2 7.5.6.6-1 1.3-1.1 2.7-.3 1 .6 1.5 1.2 1.1 1.2-1.1 0 1.1 2.2 4.3 4.3 2.5 1.6 2.6 1.5 4.9-1.8 1.3-1.9 2.7-3.5 3.1-3.5.4 0 2.6 1.8 5 4 4 3.7 6.9 5.3 5.5 3-.3-.6-.1-1 .5-1s1.8-1.6 2.6-3.5 1.7-3.5 2-3.5c.2 0 1.8 1 3.3 2.1 1.6 1.2 3.4 1.9 3.9 1.5.6-.3 1.3 0 1.5.6.3.7.6.3.6-1 .1-1.2.6-2.2 1.1-2.2.6 0 1-.6 1-1.4 0-2.7 1.9-2.7 5.2-.2 1.8 1.3 4.5 2.7 6 3.1 2.3.6 2.7.3 3.3-2.4.6-3 2.8-4.1 4-2.1.3.5 1.5 1 2.5 1 2.2 0 3.9-2.2 2.2-2.8-.8-.2-.8-.7.1-1.6.9-1.1 1.9-.9 4.9 1 3.5 2.3 4.4 2.1 3.9-.9-.3-1.6 3-1.9 4.7-.5 3.4 3 7.2 2.3 7.2-1.3 0-1 .3-1 1.2-.1 1.7 1.7 2.8 1.5 2.8-.4 0-.8-.4-1.3-.9-1-.5.3-1.4-.1-2.1-.9-1.5-1.8-4-2-4-.3zM273 379.4c0 1.4.5 2.8 1 3.1.6.4 1-.7 1-2.4s-.4-3.1-1-3.1c-.5 0-1 1.1-1 2.4zM28.1 379.9c-.8.5-.9 1.1-.3 1.5.5.3 1.2-.1 1.6-.9.6-1.7.6-1.8-1.3-.6zM278.5 383c-.3.5-.1 1 .4 1 .6 0 1.1-.5 1.1-1 0-.6-.2-1-.4-1-.3 0-.8.4-1.1 1zM366.4 387.2c2 2.3 3.6 4.5 3.6 4.9 0 .4 1 .9 2.3 1.2l2.2.6-2.4-2c-1.3-1-2-1.9-1.6-1.9.5 0-.2-.8-1.3-1.9-1.2-1-1.9-2.1-1.5-2.5.3-.3-.1-.6-1-.6s-1.7-.5-1.7-1c0-.6-.5-1-1.1-1-.6 0 .6 1.9 2.5 4.2zM27.2 386.5c.3 1.4.1 2.5-.6 2.5-.8 0-.8.2 0 .8.6.4 1.3 1.4 1.6 2.2.3.8.5-.6.4-3.3 0-2.6-.5-4.7-.9-4.7-.5 0-.7 1.1-.5 2.5zM275 388c0 1.9.3 2.1 1.2 1.2.9-.9.9-1.5 0-2.4-.9-.9-1.2-.7-1.2 1.2zM340 387.3c0 .7 9.5 7.2 10.3 6.9.4-.1.7.3.7.8 0 .6 1.8 2.7 4 4.7 2.2 2.1 4 4.4 4 5.3 0 2.1 2.3 7 3.3 7 .4 0 2.1 1.4 3.7 3 4.1 4.2 10.1 6.2 16.9 5.6 8-.8 12-2.3 11.8-4.7-.2-2.5-.9-2.4-2.6.2-1 1.8-1.5 1.9-2.2.8-.7-1.2-1-1.1-2.1.2-.7.9-3.4 2-6 2.3-3.7.6-5.5.3-8.5-1.3-5.9-3.1-10.4-7.9-12.4-13-1-2.5-2.3-4.5-2.8-4.4-.6.2-1.1-.6-1.1-1.8 0-1.1-.4-1.8-.9-1.5-.5.3-1.5-.1-2.2-1-1.1-1.3-.9-1.4 1.4-.9 2.3.6 2.6.4 2.1-.9s-1.4-1.5-3.4-1.1c-2.1.5-3.6-.1-6.9-3-3.6-2.9-7.1-4.5-7.1-3.2zM314.1 390.6c-2.4.7-5.2 2-6.1 2.9-.9.8-2.4 1.5-3.3 1.5-.9 0-1.9.4-2.2 1-.3.5-1.7 1-3.1 1-1.3 0-2.4.5-2.4 1.1 0 .5-.4.8-.9.5-1.2-.8-5.4.8-7.4 2.9-.9.9-2.6 1.8-3.8 2-2.9.6-3.7 1.5-1.3 1.6 1.8 0 1.8.1-.1 1-1.8.8-1.7.9.4.5 1.6-.3 3 .1 3.8 1.2 1.3 1.5 1.3 1.5.4-.4-1.3-2.8 1.3-5 8.2-6.8 7.6-2 10.7-3.4 10.7-4.7 0-.6.6-.9 1.4-.6.8.3 1.6.1 1.8-.5.2-.6 1.5-1.3 2.8-1.5 2.7-.4 9.3-4.3 7-4.2-.8.1-3.5.7-5.9 1.5zM25.5 394.3c-.4 1.3-.7 3.1-.9 4-.1.9-.5 2-.9 2.3-1.1 1.1-.8 5.4.4 5.4.5 0 .7-.4.4-1-.3-.5-.1-1.8.4-2.8 1-1.9 2.3-10.2 1.6-10.2-.3 0-.7 1-1 2.3zM57 396.9c.6 3.6 4 9.8 4 7.4 0-.7-.4-1.4-.9-1.7-.5-.3-1.2-2.6-1.5-5.1-.4-2.5-1.1-4.5-1.5-4.5-.5 0-.5 1.7-.1 3.9zM339 394c0 .5.5 1 1.1 1 .5 0 .7-.5.4-1-.3-.6-.8-1-1.1-1-.2 0-.4.4-.4 1zM375 396.1c0 2.1 7 7.8 10.3 8.3 1.8.3 6.8.8 11.2 1.1 10.9.6 11.7 1 14.3 5.8 2.5 4.8 2.7 6.3 1 7-1.8.6-.7 1.5 2.5 2.1 2.8.5 3.3-.3 1.8-3.2-.6-.9-2-3.8-3.2-6.4-1.2-2.6-2.9-5-3.8-5.3-.9-.4-6.1-1-11.6-1.4-10.4-.8-13.8-2-19.4-6.7-1.8-1.5-3.1-2-3.1-1.3zM318.4 397.8c-.5.4.6 2.2 2.4 4 3.7 3.8 4.2 3 .9-1.5-1.3-1.8-2.7-2.9-3.3-2.5zM63.2 410c2.2 3.8 3.8 5.1 3.8 3 0-.6-.4-1-.9-1s-1.4-1.4-2.1-3c-.7-1.7-1.7-3-2.2-3-.5 0 .2 1.8 1.4 4zM323 407.1c0 .3.9.9 1.9 1.2 1.3.3 1.8 0 1.5-.7-.5-1.3-3.4-1.8-3.4-.5zM23.3 407.8c-.7.4-.9 1.3-.4 2.1.6.9 1 .7 1.4-.8.3-1.2.4-2.1.4-2.1-.1 0-.7.4-1.4.8zM327 411.6c0 1.2.7 3.5 1.5 5 1.9 3.8 2 .7 0-3.7-1.1-2.6-1.4-2.9-1.5-1.3z"/><path d="M373 412c-1.3.8-1.2 1 .3 1 .9 0 1.7-.5 1.7-1 0-1.2-.1-1.2-2 0zM21.6 413.6c-.4.9-.4 1.9-.1 2.2.2.3.7-.3 1.1-1.2.4-.9.4-1.9.1-2.2-.2-.3-.7.3-1.1 1.2zM294 415c0 .6.6 1 1.3 1 .6 0 2.6 1.6 4.2 3.6 1.7 2 3.5 4.2 4.2 4.9 1.7 1.8 11.9 2.8 18.7 2 7.9-1 13.6.8 18.6 5.9l4.1 4.1 10.4.1c6.6.1 11 .5 11.9 1.3.8.7 2.7 1.6 4.3 2 2.7.7 2.6.8-2.5 2.5-2.9 1-5.6 2.4-5.8 3.1-1 2.4-6 3.7-11.3 3-4.2-.6-12.7-4.8-15.1-7.5-1.6-1.7-6.9-3-12.6-3-5 0-8.4.7-14.1 3-6.5 2.6-8 2.9-11.3 2-5.2-1.4-8.3-4.1-14.6-12.5-4.1-5.6-6.6-7.9-10.6-9.9-5.4-2.7-6.8-3.1-6.8-1.9 0 .5 2.3 1.9 5 3.2 2.8 1.3 6.2 3.7 7.6 5.5 4.6 5.6 4.9 6.1 5.2 6.9.6 2 6.1 7.1 9.7 9 4.8 2.4 9.2 2.3 15.1-.4 12.8-5.8 27.4-4.1 27.4 3.1 0 1.6-.6 3.1-1.2 3.3-.8.3-.6.6.5.6 1.2.1 1.7-.7 1.7-2.9v-3l4 2.6c3.2 2.1 5.6 2.8 11.3 3.1 6.8.4 7.4.3 10.5-2.5 1.8-1.7 5.4-3.5 8.2-4.2 4.9-1.2 7.6-3 4.5-3-.9 0-4-1.1-7-2.5-4.8-2.3-6.1-2.5-12.8-1.9-8.1.7-11.4-.3-15.4-5-3.9-4.5-7.9-5.4-22.1-5.3-14 .1-13 .5-18.6-6.3-2.9-3.5-6.6-5.8-6.6-4zM388 414.4c0 .2.7.6 1.5 1 .8.3 1.5.1 1.5-.4 0-.6-.7-1-1.5-1s-1.5.2-1.5.4zM398.3 414.7c-1.3.2-2.3.8-2.3 1.3 0 .6.9.6 2.3.1 1.5-.6 3.7-.4 6.2.5 5.6 1.9 6.6 1.7 2.5-.6-3.5-1.9-4.6-2.1-8.7-1.3zM67 416c0 .5.5 1 1 1 .6 0 1-.5 1-1 0-.6-.4-1-1-1-.5 0-1 .4-1 1zM91.8 416.7c-.2.5 0 4.6.3 9.3l.6 8.5v-9.3c0-8.6-.1-10.3-.9-8.5zM68.7 419.6c.2.7 1.1 1 1.9.7 1.9-.7 1.8-1-.5-1.6-1.3-.3-1.8-.1-1.4.9zM331.3 419.7c-1.6.6-1.7 3-.1 3.9.7.5.9.2.5-.8-.3-.9 0-2.1.6-2.7 1.2-1.2 1-1.3-1-.4zM422 422.2c-1.2 2.2-1.2 2.2.6.6 1-1 1.5-2 1.2-2.4-.4-.3-1.2.5-1.8 1.8zM73 422c0 .6-.5.8-1.2.4-.8-.5-.8-.1.2 1.2.8 1 1.5 2 1.6 2.2.1.1.4-.6.7-1.8.3-1.1.1-2.3-.4-2.6-.5-.3-.9 0-.9.6zM263 422.9c-.6 1.2-.7 2.1-.1 2.1 1 0 2.4-3 1.7-3.7-.2-.3-.9.5-1.6 1.6zM76 423.9c0 .5.7 1.2 1.6 1.5 1.4.5 1.5.4.4-.9-1.4-1.7-2-1.9-2-.6zM419 423.9c0 .8-.8 1.1-2 .8-1.1-.3-1.8-.1-1.4.4.3.5-.2.9-1 .9-.9 0-1.6.4-1.6.9 0 .6 1.2.6 3-.1 3.1-1 4.6-2.5 3.6-3.5-.3-.4-.6-.1-.6.6zM81 427c.8.5 2 1 2.5 1 .6 0 .3-.5-.5-1s-1.9-1-2.5-1c-.5 0-.3.5.5 1zM262.1 426.7c.1.5.1 1-.1 1.3-.7 2.1-.7 6.1.2 6.6.6.4.5 1-.3 1.5-.9.6-1 1.2-.4 1.6.6.5 1 1.4 1.1 2 .1.7.2 2 .3 2.8 0 .8.8 1.5 1.7 1.5 1.3 0 1.4-.3.5-1.3-.6-.8-.8-1.7-.4-2 .3-.4.2-.7-.3-.7s-.8-3.1-.7-7c.1-3.8-.3-7-.8-7s-.8.3-.8.7zM409 429c-1.3.8-1.2 1 .3 1 .9 0 1.7-.5 1.7-1 0-1.2-.1-1.2-2 0zM80 430.9c0 .5.5 1.3 1 1.6.6.3 1 .2 1-.4 0-.5-.4-1.3-1-1.6-.5-.3-1-.2-1 .4zM403 432.5c0 1.3.4 1.4 2.3.4 3.3-1.7 3.3-1.9.4-1.9-1.8 0-2.7.5-2.7 1.5zM83.3 436.5c0 1.5.5 2.5 1.3 2.5 1.7 0 1.7-1 0-3.3-1.2-1.6-1.3-1.5-1.3.8zM396.1 435.4c-1.5.9-2 1.6-1.2 2 .6.4 1.1.2 1.1-.5 0-.6.8-.9 2-.6 1 .3 2.4 0 2.9-.7 1.4-1.7-1.8-1.8-4.8-.2zM91.3 436.5c0 .8.4 1.2.9.9.5-.3.6-1 .3-1.5-.9-1.3-1.2-1.1-1.2.6zM91.5 439.8c-1.6 1.9-2.3 3.3-1.6 3.1 1.6-.6 5.7-5.7 5-6.2-.2-.2-1.7 1.2-3.4 3.1zM391.3 439c.1.5-.7 1.5-1.8 2.3-1.1.9-1.8 1.8-1.5 2 .3.3 1.8-.5 3.3-1.7 2.3-1.9 2.6-2.4 1.3-2.9-.9-.4-1.5-.2-1.3.3zM205.3 444.7c-.3 1-1.4 3.6-2.4 5.8-2.4 5.3-5.7 15.4-6.1 18.7-.2 1.5-.7 3-1.1 3.4-.3.4-.4 2.5-.2 4.8.2 2.2.7 9.3 1 15.6.3 6.3.9 15.3 1.3 20 2.5 28-2.4 49-19.3 83.2-5.2 10.5-9.7 20.7-10 22.7-.3 2-1 6.3-1.6 9.5-.6 3.2-1.2 8.4-1.4 11.5-.4 5.4-2.3 16.6-4.3 24.4-3 11.6-20.3 28.7-34.7 34.4l-3 1.1 3.3.1c1.7.1 3.2-.4 3.2-1 0-.5.5-.7 1-.4.6.3 1 .1 1-.4 0-.6.6-1.1 1.4-1.1.8 0 2.1-.6 2.8-1.3.7-.6 3.1-2.5 5.3-4.1 10.1-7.5 20.7-21 20.9-26.6.1-1.6.4-3 .8-3 .8 0 2.3-6.9 1.9-8.8-.1-.8.2-1.9.8-2.5.5-.7 1.2-4.2 1.5-7.7.3-3.6.6-6.5.6-6.5.3 0 1-4.5 1.4-9.5.2-3 .7-6.9 1.1-8.5.7-3.1 6.4-15.6 7.5-16.5.4-.3 1-1.7 1.3-3.1.4-1.5 2.7-6.2 5.2-10.7 2.5-4.4 4.5-8.5 4.5-9.2 0-.7.8-2.4 1.8-3.8 1-1.5 2.4-5 3.1-7.7.7-2.8 2.2-7.8 3.3-11.3 1.1-3.5 1.8-7.9 1.6-9.8-.2-1.9 0-3.4.5-3.4s.7-.9.4-2c-.3-1.1-.1-2.3.5-2.6.6-.4.5-1-.3-1.5-.9-.6-1-.9-.2-.9 1.5 0 1.1-25.9-.6-35.5-1.3-7.1-1.4-10.6-.7-25 .3-8 3.9-22.5 5.5-22.5.5 0 .8 1.5.6 3.2-.2 1.8-.6 6.7-1 10.9-.9 8.7.4 13.9 6.2 24.9 4.3 8.2 11.3 15 11.3 11 0-.6-.6-1-1.3-1-3.3 0-12-14.4-14.1-23.5-1.1-4.2-.9-14.7.3-17.7.6-1.6.6-4.1 0-6.8-1.1-5 .2-9.6 2.9-10.3 1.2-.3.9-.5-.6-.6-1.3-.1-2.5.6-2.9 1.6zM385.5 444c.3.5.8 1 1.1 1 .2 0 .4-.5.4-1 0-.6-.5-1-1.1-1-.5 0-.7.4-.4 1zM382.6 445.5c-.3.8-.1 1.5.4 1.5.6 0 1-.7 1-1.5s-.2-1.5-.4-1.5-.6.7-1 1.5zM265 446.5c0 .8.5 1.5 1 1.5.6 0 1 .6 1 1.3 0 .7 1.2 2.7 2.8 4.4 2 2.3 3.8 3.2 7 3.6 2.3.3 4.2.1 4.2-.4s-1.3-.9-2.8-.9c-3 0-9.6-5.6-10.7-9.1-.7-2.3-2.5-2.6-2.5-.4z"/><path d="M171 449.1c-.7 1.3-1.6 2.6-2 2.9-2.8 2.2-7.7 16.9-6.5 19.7 1.3 3 1.5 5.3 2.2 18.5.5 11.7.4 13-1.7 17.3-1.2 2.5-4.4 6.7-7.1 9.3-2.7 2.6-4.9 5.1-4.9 5.6s-1 1.7-2.2 2.7c-1.1 1.1-1.7 1.9-1.2 1.9s.4.4-.2.8c-2 1.4-9.2 11.7-12.8 18.5-4.7 8.7-5.6 19.4-2.5 28.4 2.1 6.1 2.5 15.7.9 21.5-4.3 15.3-28.4 33-36.4 26.7-1.3-1-2.9-1.9-3.4-1.9-.6 0-1.8-2.3-2.7-5.1-1.6-4.7-1.6-5.4-.1-9.3 1.9-5 2.2-19.6.4-21.4-.7-.7-2-1.2-3-1.2-1.4 0-1.3.4.7 2.5 2.2 2.1 2.5 3.3 2.5 9.2 0 4.9-.6 7.9-2 10.6-3.2 6-.6 13.9 6 17.6 3.7 2.1 4.6 2.2 8.7 1.2 2.5-.7 6.3-2.1 8.5-3.2 4.7-2.4 15.3-12.7 19.7-19.3 3-4.3 3.4-5.7 3.9-13.7.4-6.8.1-10-1.3-14.1-1.1-3.3-1.8-8.2-1.7-12.9 0-6.8.4-8.5 3.8-15 3.3-6.5 10.8-18.2 13.9-21.5.5-.7 2.4-2.9 4.1-5 1.8-2.2 4.3-5.1 5.6-6.5 3.9-4.2 7-9.7 6.2-11-.4-.8-.3-.9.5-.5 1.4.9.6-26.1-.8-27.8-2.7-3.2.3-18.1 4.5-22.8 1.9-2 3.4-1.5 3.4 1.3 0 1 .5 1.9 1 1.9.6 0 1 .5 1 1.1 0 .5-.4.7-1 .4-.6-.4-1 1.9-1 6.2 0 4.8.3 6.3 1 5.3.6-.9 1-1 1-.3 0 .6-.4 1.5-1 1.8-.9.6-.4 11.4.7 14.5.3.8.7 2.4.8 3.5.2 1.1 1.5 6.4 2.9 11.6 2.3 8.2 2.5 10.5 1.8 16-.5 3.5-.7 8.8-.4 11.6.2 2.9 0 5.3-.5 5.3s-1 1.5-1.1 3.2c-.3 3.6-2.1 9.7-3.4 11.3-.4.5-.8 1.7-.8 2.6 0 1-.4 1.9-.8 2.1-1.8.7-7.3 8.9-11.2 16.6-3.8 7.5-4.2 9-4.6 17.5-.2 5-.6 11.7-.9 14.7-.3 3-.7 10-1.1 15.5-.7 12.9-1.1 16.6-1.9 18.8-.4 1-.3 1.7.4 1.7.6 0 1.4-1.4 1.8-3 .3-1.7.9-3 1.4-3 .5 0 .4-1.2-.1-2.6-.7-1.6-.7-2.3 0-1.9.6.4 1.1-1.1 1.1-3.7.1-2.4.3-5.3.4-6.5.1-1.3-.3-2.3-.9-2.3-.8 0-.8-.2 0-.8.8-.5.9-2.3.4-5.5-.4-2.8-.3-4.7.3-4.7.5 0 .5-.6-.2-1.3-.8-1-.7-1.7.2-2.6.7-.7 1.2-4.2 1.3-8.4 0-4 .4-9 .8-11.2.7-4.4 7.4-18.3 10.9-22.6 4.9-6.1 5.8-7.5 6.4-9.9.3-1.4 1.4-4.1 2.4-6.1 1.4-2.7 2-7.1 2.5-16.5.3-7.1.7-14 .8-15.3.3-3.1-1.9-11.5-4.3-16.3-1-2.1-1.4-3.5-.8-3.1.6.4.8-.3.4-1.8-.4-1.3-.7-3.4-.7-4.7 0-1.3-.6-2.2-1.6-2.2-.8 0-1.2-.5-.9-1 .4-.6 1.1-.7 1.7-.4.8.5.9.1.4-1.2-.4-1-.8-2.4-.9-2.9-.1-.6-.6-1.3-1.2-1.7-.7-.5-.6-.8 0-.8 1.4 0 .7-7-.9-8.9-.9-1.2-.8-1.3.3-.6 1.1.6 1.3.4.8-.8-.3-.9-.3-1.8.1-2.1 1.2-.7.1-9.6-1.2-9.6-.6 0-.5-.5.4-1.1 1.2-.9 1.2-1-.4-.5-1.1.4-2.3.1-2.7-.5-.4-.8-1.1-.4-1.9 1.2zM146.4 449c-3.3 1.3-7.8 7.6-6.9 9.7.6 1.6.8 1.6 1.6-.5 1.2-3 1.7-2.8 1.1.5-.3 1.6-2.4 4.5-4.6 6.6-3.4 3.2-3.5 3.4-.6 1.1 2.9-2.2 3.6-2.4 3.8-1.1.2.9-.1 2.5-.7 3.5-.8 1.5-.7 2.1.4 2.5.8.4 1.4-.1 1.4-1.1-.1-4.7 1-7.6 3.2-8.9l2.4-1.4-2.4.7c-2.1.5-2.3.4-1.6-1.2.4-1.1 1-2.8 1.3-3.9.3-1.1 1.4-2.8 2.4-3.9s1.8-2.3 1.8-2.8c0-.9.1-.9-2.6.2zM375.5 449c-.4.7.3.9 2 .6 3.7-.7 4.4-1.6 1.2-1.6-1.4 0-2.9.5-3.2 1zM236.4 450.5c1.1.8 2.2 1.2 2.5.9.6-.6-1.9-2.4-3.4-2.4-.5.1-.1.7.9 1.5zM337.5 451.9c-.3.5-.2 1.2.3 1.5.5.3.9-.1.9-.9 0-1.7-.3-1.9-1.2-.6zM372.8 451.7c-1 .2-1.8.9-1.8 1.4 0 1.3 1.2 1.1 3.4-.6 2-1.5 1.6-1.7-1.6-.8zM234.7 454.7c-1.2 2.4-1.9 5.8-4.3 22-.3 1.8-.1 3.3.3 3.3s.8 2.4.8 5.2c.1 6.4 3.2 13.8 5.7 13.8 1 0 1.8-.5 1.8-1 0-.6-.4-1-.9-1s-1.9-2.3-3.1-5.2c-1.9-4.5-2.1-6.3-1.6-14.7.3-5.3.7-11.2.9-13.1.3-1.9.5-4.3.6-5.3.1-2.1 2.1-2.3 2.1-.2 0 1.4 1.3 2 3.5 1.5.6-.1.5.4-.1 1-1.3 1.3-.7 5 .7 5 .4 0 1.3 1.7 1.9 3.7.9 3.6 10.5 15.3 12.4 15.3.5 0 3.5 1.3 6.7 3l5.8 2.9 5.8-1.5c11.8-3.2 12-3.3 15.1-1.4 1.7 1 3.3 1.6 3.7 1.2.4-.4.5-.3.4.3-.5 1.7 3.1 7.5 4.7 7.5.8 0 1.3.4 1 .8-.9 1.5 1.1 3.3 5 4.7 2.1.7 3.7 1.7 3.4 2.2-.3.4-1.1.7-1.7.5-.7-.2-1.3.4-1.3 1.3 0 .8-.4 1.5-1 1.5-.5 0-1 .4-1 1 0 .5.7.7 1.5.4.8-.4 1.5-1.3 1.5-2.1s.4-1.2.8-.9c1.3.8 8.5-7 7.9-8.6-.3-.8-.6-.5-.6.7-.1 1.7-.3 1.7-1.1.5-.8-1.3-1-1.2-1 .2 0 1-.5 1.8-1.1 1.8-.5 0-.7.4-.4 1 .9 1.4-1.3 1.2-3.2-.3-2.7-2.1-6.6-6.2-11-11.3-4-4.6-4.5-4.9-9-4.9-2.6.1-7.2.8-10.2 1.6-5.8 1.7-7.7 1.4-15.7-2.8-5-2.7-11.9-10.2-14.5-16.1-1.2-2.6-2.4-4-3.1-3.6-.7.5-.8.3-.3-.5.4-.8-.2-3.4-1.5-6.2-1.9-3.9-2.6-4.6-3.7-3.7-1.1.8-1.2.7-.7-.6 1-2.7-.4-1.8-1.9 1.1zM366.8 455.4c-2.6 1.9-2.2 2.6.7 1.3 1.4-.7 2.5-1.5 2.5-2 0-1.1-1.3-.8-3.2.7zM49 456.9c0 .6.5 1.3 1 1.6.6.3 1-.1 1-.9 0-.9-.4-1.6-1-1.6-.5 0-1 .4-1 .9zM282 457.4c0 1.9 2.9 2.6 9.5 2.4 6.9-.2 11.4 1.4 11.9 4.3.5 3.1 1.8 5.9 2.7 5.9.5 0 .9.5.9 1.1 0 1.8 4.2 5 5.7 4.5.7-.3 1.3 0 1.3.6 0 .7 1.8.8 5.8.3 9-1.1 11.2-1.2 11.2-.4 0 .4 1.4 1 3 1.4 1.7.4 3 1 3 1.5s1.4.4 3-.1c3.9-1.4 3.8-2.3-.3-2.6-4.5-.4-5.9-.7-8.4-2.1-1.4-.8-3-.9-4.5-.3-4.3 1.6-11.8 2.3-11.8 1.1 0-.6-.8-1-1.7-.8-1 .2-1.7-.3-1.5-1 .1-.6-.4-1.2-1.2-1.2-.8 0-1.8-.5-2.2-1.2-.4-.7-.3-.8.4-.4s1.2.3 1.2-.3c0-.5-.4-1.3-1-1.6-.5-.3-1.7-2.1-2.6-4-2.1-4.5-6.8-6.6-14.1-6.3-3.2.1-6.8-.4-8-1-1.9-1.1-2.3-1-2.3.2zM109 459.6c-.6 1.4-1 2.9-1 3.3 0 .4-1.5 3.6-3.4 7.1-4.4 8.5-5.2 11.2-3.2 10.4.8-.3 1.2-1.2 1-1.9-.3-.7-.1-1.6.5-2 .6-.3 1.1-1.5 1.1-2.6 0-1 .4-1.9.9-1.9 1 0 5.1-9.1 5.1-11.4 0-.9.5-1.6 1-1.6.6 0 1-.5 1-1 0-2-2.1-.9-3 1.6z"/><path d="M137 460.5c0 .8-.6 1.5-1.4 1.5-.8 0-2.2 1.4-3 3.2-1.9 3.6-1.9 3.8-.7 3.8.5 0 1.4-1.4 2.1-3 .7-1.7 1.9-3 2.6-3 .8 0 1.4-.2 1.4-.4s.3-1.1.6-2c.3-.9.1-1.6-.5-1.6s-1.1.7-1.1 1.5zM49 461.4c0 .9.5 1.6 1 1.6.6 0 1-.4 1-.9 0-.6-.4-1.3-1-1.6-.5-.3-1 .1-1 .9zM358.3 462.5c0 .8.4 1.2.9.9.5-.3.6-1 .3-1.5-.9-1.3-1.2-1.1-1.2.6zM111.5 466c-.4 1.7-.5 3.4-.2 3.6.3.3.8-.9 1.2-2.6.4-1.7.5-3.4.2-3.6-.3-.3-.8.9-1.2 2.6zM355.1 464.4c-1.6 1.9-1.1 2.9.8 1.7.7-.5 1.2-1.4.9-2.1-.3-.9-.8-.7-1.7.4zM51 464.7c0 1.5 4.2 5.9 5.3 5.5.4-.1.7.2.7.6 0 .4.9.8 2 .9 2.9.2 2.4-1.4-.7-2.2-1.5-.3-3.7-1.8-5-3.3-1.3-1.5-2.3-2.1-2.3-1.5zM337.1 466.6c0 1.1.3 1.4.6.6.3-.7.2-1.6-.1-1.9-.3-.4-.6.2-.5 1.3zM351.1 467.4c-.8 1-.9 1.6-.1 2.1.5.3 1 .5 1.1.3.4-1.8.7-3.8.4-3.8-.1 0-.8.6-1.4 1.4zM129 472.1c0 1.3.4 1.8 1.3 1.3.9-.6.9-.5 0 .8-.7.8-.9 1.9-.5 2.3.4.5-.1.5-1 .2-1.3-.5-1.6-.1-1.2 1.9.3 1.6.1 2.3-.6 1.9-.5-.3-1-.1-1 .4 0 .6.7 1.1 1.5 1.1s1.5-.5 1.5-1c0-.6 1-3.2 2.3-5.8l2.3-4.8-2.3-.2c-1.7-.1-2.3.3-2.3 1.9zM63.6 471.9c-.3.4.6.6 1.9.3 1.4-.2 2.5-.6 2.5-.8 0-.8-3.9-.4-4.4.5zM336.1 472.6c0 1.1.3 1.4.6.6.3-.7.2-1.6-.1-1.9-.3-.4-.6.2-.5 1.3zM345 472c0 .5.5 1 1 1 .6 0 1-.5 1-1 0-.6-.4-1-1-1-.5 0-1 .4-1 1zM109.5 473c-.3.5-.1 1 .4 1 .6 0 1.1-.5 1.1-1 0-.6-.2-1-.4-1-.3 0-.8.4-1.1 1zM139.1 478.6c-.2 4.1.1 5.5 1 5.2.7-.2 1.4-1.1 1.7-1.9.3-1.1.2-1.1-.7.1-.8 1.1-.9.3-.7-3.3.2-2.6.1-4.9-.3-5.2-.4-.2-.9 2.1-1 5.1zM109.6 476.5c-.3.8-.1 1.5.4 1.5.6 0 1-.7 1-1.5s-.2-1.5-.4-1.5-.6.7-1 1.5zM108.5 483c-.4 1.7-.5 3.4-.2 3.6.2.3.7-1 1.1-2.7.8-4.2 0-5-.9-.9zM98.1 484.1c-.7 1.2-1 2.3-.8 2.6.3.3 1.1-.5 1.7-1.7 1.5-2.8.8-3.5-.9-.9zM125 484.5c0 .8-.8 2.3-1.8 3.3s-1.8 3-1.8 4.5c.1 1.4-.1 2.4-.5 2.1-.4-.2-1.8 2-3.2 4.9-3.4 7-3.8 8.5-2.4 9.1.7.2.4.5-.5.5-1.6.1-2.2 1.4-2.1 4.8.1.7-.3 1.3-.8 1.3s-.9.5-.9 1c0 .7.6.7 2 0 1.2-.6 2-2.1 2-3.5s.5-2.5 1.1-2.5c.6 0 .8-.9.4-2-.4-1.2-.2-2 .5-2s1-.7.6-1.5c-.3-.8-.1-1.5.3-1.5 1.2 0 5.1-6.7 5.1-8.9 0-.9.5-2.2 1.2-2.9.7-.7.9-1.2.4-1.2-.4 0 0-1 .8-2.2 1.8-2.6 2.1-4.8.6-4.8-.5 0-1 .7-1 1.5zM332.5 484c-.3.5-1.1.8-1.8.6-.7-.1-.9-.1-.4.1.4.3.4 1 0 1.6-.3.7.3.3 1.5-.7 1.2-1.1 2.2-2.1 2.2-2.3 0-.6-.9-.3-1.5.7zM141.7 485.7c-.3.5-.1 1.7.4 2.8.7 1.7.8 1.7.8-.8.1-2.7-.4-3.4-1.2-2zM95.6 489.5c-.9 2.6-.7 3.2.5 1.2.6-1 .9-2.1.6-2.3-.2-.3-.7.2-1.1 1.1zM105 491.6c0 .8.5 1.2 1 .9.6-.3 1-1 1-1.6 0-.5-.4-.9-1-.9-.5 0-1 .7-1 1.6zM321.8 490.8c-1.2.5-1.4 1.2-.9 2.1.7 1.1 1.1.9 2-.8.7-1.1 1-2.1.9-2-.2 0-1.1.3-2 .7zM143.2 494c0 1.4.2 1.9.5 1.2.2-.6.2-1.8 0-2.5-.3-.6-.5-.1-.5 1.3zM102 496.1c-1.7 3-.6 3.4 1.4.4.9-1.4 1.2-2.5.7-2.5-.6 0-1.5.9-2.1 2.1zM318.3 494.7c-1.5.5-1.7 2.3-.4 2.3.5 0 1.1-.7 1.5-1.5.3-.8.4-1.5.3-1.4-.1 0-.8.3-1.4.6zM90.5 497.8c-.5.4-1.6 1.5-2.4 2.5-1.2 1.5-1.2 1.7 0 1.2.8-.3 2-1.4 2.7-2.5 1.3-2.2 1.3-2.4-.3-1.2zM144.4 498.2c.3 1 .1 1.8-.4 1.8-.6 0-.9 1.5-.9 3.2.2 2.8.2 2.9.6.8.3-1.4.9-3 1.3-3.5.5-.6.4-1.7-.2-2.5-.8-1.2-.9-1.2-.4.2zM98.6 500.8c-1 3-8.4 10.2-10.6 10.2-.5 0-1.2.4-1.5 1-1.7 2.8 2.7.4 7.9-4.3 4.2-3.8 5.7-5.8 5.4-7.2-.4-1.9-.5-1.8-1.2.3zM236.6 500.8c.6.4 1.9 2.2 2.8 3.9 1.6 3.3 3.3 4.6 2.3 1.9-.3-.8-.1-1.6.5-1.8 1.8-.6-2.4-4.8-4.7-4.8-1.2 0-1.6.3-.9.8zM83.3 503.8c-.3 1.2-.9 2.2-1.3 2.2s-1.2 1.1-1.8 2.5c-.6 1.4-1 2.5-.8 2.5.9 0 5.8-8.1 5.2-8.7-.4-.4-.9.3-1.3 1.5z"/><path d="M76 508.4c-1.4 4.2-1 10.4.7 11 .7.3 1-.1.7-.8-.3-.8 1.1-1.9 3.7-2.9 2.4-.9 4-1.9 3.7-2.3-.4-.3-1.5-.1-2.6.5-4.3 2.3-5.3 1.5-4.6-3.9.7-5.8 0-6.5-1.6-1.6zM220.1 508.6c1.2 4.9 1.2 19.9.1 23.9-.5 1.6-.8 5.8-.8 9.2.1 3.3-.2 5.9-.6 5.6-1.1-.6-1 .5.3 2.8.7 1.5.7 2.4-.1 3.4-.8 1-.8 1.4.2 1.8 1 .4 1 .6.1.6-1.8.1-1.6 1.8.2 1.8.9 0 1.5-1 1.6-2.6.1-7.5.8-21.7 1.4-29.6.4-5 .6-9.5.6-10 0-1.1-.9-5-1.1-5-.1 0-.3-.8-.5-1.9-.2-1-.8-2.3-1.4-2.9-.6-.6-.6.4 0 2.9zM242.7 507.3c-.3.9-.3 2.8 0 4.4.3 1.5.6 3.8.6 5.1.1 1.2.6 2.1 1.2 1.9 1.1-.5.8-9.3-.4-11.5-.7-1.2-.9-1.2-1.4.1zM141.5 510c-.4 1.7-.5 3.4-.2 3.6.2.3.7-1 1.1-2.7.3-1.8.4-3.4.2-3.6-.2-.3-.7 1-1.1 2.7zM298.5 512c-1 1.1-1.6 2.2-1.3 2.5.3.3 1.3-.4 2.3-1.5 1-1.1 1.6-2.2 1.3-2.5-.3-.3-1.3.4-2.3 1.5zM294.5 514.1c.4.6-.2 1.3-1.4 1.6-1.2.3-2.1 1.2-2.1 1.9 0 1.8.6 1.8 3-.3 2.1-1.9 2.7-4.3.9-4.3-.5 0-.7.5-.4 1.1zM139 516.5c0 .8.2 1.5.4 1.5s.6-.7 1-1.5c.3-.8.1-1.5-.4-1.5-.6 0-1 .7-1 1.5zM63.9 517.3c-2 .4-5 2.1-6.7 3.7-1.7 1.5-3.3 2.6-3.6 2.4-.3-.2-.4-.1-.1.2.2.4-.2 1.3-1 2.1S51 528 51 529c0 3-1.2 5.3-2 4-.4-.7-.7.3-.7 2.1 0 4-.7 8-2.1 10.6-.5 1-1 6.3-1.1 11.8-.1 5.5-.5 11.3-1 13-.5 1.6-1.1 4.6-1.4 6.5l-.6 3.5 1.4-3c1.6-3.7 2.2-7.4 3-19.5.6-9.7.9-11.3 4.4-23.5 2-6.8 5.6-12.5 8-12.5.6 0 1.1-.4 1.1-.9 0-1.3 5.8-3.1 10.1-3.1 2.2 0 3.9-.4 3.9-.9 0-1.1-5.2-1-10.1.2zM106.7 519.8c-1.5 1.5-2.4 3.1-2 3.5.3.4.1.7-.6.7-1.8 0-10.3 4-12.3 5.8-1 .8-1.8 1.2-1.8.8 0-1-12.6 6-16.6 9.2-1.9 1.5-3.4 3.2-3.4 3.8 0 .6-.7 1.7-1.5 2.4s-2 3-2.7 5.1c-.6 2.2-1.5 3.9-2.1 3.9-.5 0-.7.9-.4 2 .3 1.1.1 2-.5 2-.5 0-.7.4-.3.9.3.5.1 1.2-.5 1.6-.5.3-.7 1.7-.4 3.1.4 1.4.2 2.4-.5 2.4s-.7.8-.2 2.2c.5 1.4.3 4.5-.5 7.8-.7 3-1.3 7.1-1.4 9.1 0 2.3-.6 3.9-1.5 4.3-.8.3-1.5 1.5-1.5 2.6 0 1.2-.5 3-1 4.1-.6 1-.7 1.9-.3 1.9 1.1 0 6-10.7 7.2-16 .6-2.5 1.3-7.9 1.5-12 .6-9.1 1.6-14.9 2.7-15.6.5-.3.9-1.9.9-3.5 0-1.8.4-2.8 1-2.4.6.3 1 .2 1-.3s1.1-2.2 2.4-3.7c1.4-1.6 2.3-3.2 2-3.7-.3-.4.2-.8 1.2-.8.9 0 2.4-.8 3.3-1.8 1.7-1.8 6.6-5.2 7.6-5.2.4 0 .3.6 0 1.2-.4.7-.1.6.7-.2 1.4-1.6 4.9-3.7 13.4-8 5.8-2.9 10.8-7.3 10.2-9-.2-.6-1.6.2-3.1 1.8zM136.2 519.5c-.6 1.4-.7 2.5-.2 2.5.9 0 2.5-3.9 1.8-4.6-.3-.2-1 .7-1.6 2.1zM244.4 519.8c-.5.4-.9 3.1-.9 5.9 0 2.9-.2 5.3-.5 5.3s-.6 1.7-.7 3.7c-.1 2.1-1.2 6.5-2.6 9.8-1.4 3.2-2.3 7-2.1 8.2.3 1.4-.1 2.3-.8 2.3-.9 0-.8.3.2 1 1.2.7 1.2 1 .1 1-.8 0-1.1.6-.6 1.7.7 1.8 1.2 6 1.7 13.5.2 2.1.4 3.8.6 3.8 1.2 0 6.2-4.7 6.2-5.8 0-1.2-.4-1.1-2 .3-1.5 1.4-2 1.5-2.1.4-.1-3.1-1-6.4-1.7-6.6-1-.4-.2-14.6.9-15.8.5-.5.9-1.7.9-2.7 0-1 .4-1.8.9-1.8 1.3 0 2.6-5 3.4-13.5.3-2.8.8-6.2 1.2-7.6.7-2.8-.4-4.3-2.1-3.1zM286.1 521.8c-.1 1.3-.5 2-1.1 1.7-.5-.3-1 .1-1 .9 0 .9-.9 1.6-2 1.6-1.6 0-1.8.3-.9 1.2.9 1 2 .4 5.3-2.7 2.4-2.2 4.1-4.2 3.9-4.4-.1-.2-.9.1-1.7.8-1.1.9-1.5.9-1.9-.1-.3-.7-.6-.3-.6 1zM130.1 526.7c-3.6 4.1-7.4 10.9-6.9 12.5.2.6 1.3-.8 2.3-3.1 1.1-2.2 2.3-4.1 2.8-4.1.4 0 .7-.6.7-1.3 0-.6 1.4-2.7 3.1-4.5 1.6-1.7 2.6-3.2 2.1-3.2-.4 0-2.3 1.7-4.1 3.7zM277.6 531.7c-.4.5-1.2.8-1.7.8s-1 .4-1.1 1c0 .5-.8 1.5-1.7 2.2-.9.6-1.4 1.4-1.1 1.7.3.2 2.3-1.1 4.5-3s3.5-3.4 2.9-3.4c-.6 0-1.4.3-1.8.7z"/><path d="M86.6 538.5c-.3.8-.1 1.5.3 1.5.5 0 1.1-.7 1.5-1.5.3-.8.1-1.5-.3-1.5-.5 0-1.1.7-1.5 1.5zM268.8 538.8c-.3 1.1 0 1.9.8 1.9s1.4-.9 1.4-1.9c0-1-.4-1.8-.9-1.8s-1.1.8-1.3 1.8zM82.4 541.3c.3 1 .6 2 .6 2.1 0 .2 1.2.1 2.7-.2 2.2-.4 2.5-.2 2 1.2-.4 1-.3 1.5.3 1.1 1.9-1.2 1-3.5-1.3-3.5-1.3 0-2.9-.6-3.6-1.3-1.1-1-1.3-.9-.7.6zM121.9 542.3c-.1.4-.2 1-.3 1.4-.1.5-.5 1.4-.9 2-.5.7-.4 1.3.2 1.3 1.1 0 2.5-3.9 1.7-4.7-.3-.4-.7-.3-.7 0zM264.9 544c-1.3 1-2 1.9-1.5 2 .6 0 .2.6-.9 1.3-1.2 1-1.4 1.6-.7 2.1.7.4 1.2.2 1.2-.4 0-.6.4-.9.8-.6.5.3 1.5-.7 2.3-2.2.8-1.5 1.8-3 2.4-3.4.6-.5.6-.8-.1-.8s-2.2.9-3.5 2zM119 551.5c0 .8.4 1.5 1 1.5.5 0 .7-.7.4-1.5-.4-.8-.8-1.5-1-1.5-.2 0-.4.7-.4 1.5zM258 552.2c0 1.1 1.2 1 3-.2 1.2-.7 1-.9-.8-.7-1.2 0-2.2.5-2.2.9zM253.2 556.6c-.6.7-1.2 1.5-1.2 1.8 0 .7 4-.5 4.5-1.4.9-1.4-2-1.8-3.3-.4zM218.5 559.8c.6.4 1.7 2.7 2.5 5.2.8 2.6 1.5 3.8 1.7 2.8.3-.9 0-2.5-.5-3.5s-.8-2.6-.7-3.6c.2-1.2-.3-1.7-1.8-1.7-1.2 0-1.7.4-1.2.8zM97.5 562.9c-.3.5-.2 1.2.3 1.5.5.3.9-.1.9-.9 0-1.7-.3-1.9-1.2-.6zM249 562.8c0 .7-.4 1.1-.9.8-.5-.4-.8.2-.7 1.1.2 1.1-.5 2-1.8 2.3-1.8.5-1.8.7-.5 1.2 2.3.9 6.1-3.2 4.9-5.2-.7-1.1-1-1.1-1-.2zM100.1 565c0 .8.8 2.6 1.9 4 1.9 2.4 1.9 2.4 1.3.2-.3-1.2-.9-2.2-1.3-2.2-.5 0-1.1-.8-1.3-1.8-.3-1.2-.5-1.3-.6-.2zM178 570.1c0 .5.5.7 1 .4.6-.3 1-.8 1-1.1 0-.2-.4-.4-1-.4-.5 0-1 .5-1 1.1zM241.5 575.1c-.4.6-.5 1.2-.2 1.5.2.3.7-.2 1-1.1.7-1.7.1-2-.8-.4zM88.5 577.7c-4.4 1.1-3.1 1.8 2.8 1.5 4.9-.2 6.9.2 9.5 1.8 3.6 2.2 3.7 3.3.7 12.5-1.3 4.2-1 10.1.7 12.2 1.2 1.5 6.6 1.7 8.7.4.8-.5 1.6-1.9 1.8-3 .4-2.9-.5-2.6-1.7.4-.5 1.4-1.7 2.5-2.7 2.5-1.5 0-1.5-.2.3-1.6 1.5-1.2 1.2-1.2-1 .1-2.8 1.7-3 1.7-4.3-.1-1.6-2.2-1.7-7-.2-11.3 1.2-3.4 1.9-3.7 5.2-2 2.1 1 2.1.9-.1-.8l-2.3-1.9 2.1-2.7c1.2-1.5 1.7-2.7 1.2-2.7s-1.7 1-2.5 2.2l-1.6 2.3-.1-2.5c0-1.4-.6-3.2-1.3-4.1-1.8-2.4-10.8-4.3-15.2-3.2zM118.3 579.4c0 1.8.3 2.4.9 1.8.7-.7.7-1.6 0-2.8-.8-1.4-.9-1.3-.9 1zM237 578c0 .5.7.7 1.5.4.8-.4 1.5-.8 1.5-1 0-.2-.7-.4-1.5-.4s-1.5.4-1.5 1zM235.4 581.6c.3.8.1 1.6-.4 1.9-.4.3-1 .1-1.2-.5-.2-.6-.9 0-1.7 1.2-1.3 2.1-1.3 2.2.1 1 1.1-.9 1.7-.9 2-.2.2.6 1.1-.2 2-1.8 1.5-2.5 1.5-2.9.2-2.9-.8 0-1.3.6-1 1.3zM40 583c0 1.1.4 2 .8 2s.8-.9.8-2-.4-2-.8-2-.8.9-.8 2zM38 590.5c0 .8-.4 1.5-1 1.5-.5 0-1 .7-1 1.5 0 .9-.7 1.8-1.5 2.1-.8.4-1.5 1.1-1.5 1.7 0 .5.9.2 2.1-.9 2.7-2.4 5.3-7.4 3.9-7.4-.5 0-1 .7-1 1.5zM115.1 591.6c0 1.1.3 1.4.6.6.3-.7.2-1.6-.1-1.9-.3-.4-.6.2-.5 1.3zM147.2 593.7c-.7 2.2-.7 4.4-.2 5.9.6 1.4.6 2.6-.1 2.9-.5.4-.7 1-.4 1.5.6 1 1.6 11.8 1.8 20.2.1 3.7-.2 5.9-1 6.2-.9.4-.9 1.1 0 3 .6 1.3 1.5 2.3 1.8 2 .3-.2 1.4.5 2.3 1.5 1.3 1.4 1.4 2.4.7 4.2-.5 1.3-1.2 4-1.6 5.9-1.6 9.3-17.3 31-26.5 36.4-2.5 1.5-5.2 3.1-6 3.6-.8.5-5.9 3-11.2 5.5-12.3 5.8-18.7 11.7-19 17.2v5.3c.1.8.3 2.8.3 4.5.1 1.6.7 3.6 1.3 4.4.8 1.1.8 1.3-.1.7-.7-.4-1.3-.2-1.3.3 0 .6.5 1.1 1.1 1.1.5 0 .7.4.4 1-.3.5-.1 1 .5 1s.9.4.6.9c-.7 1.1 1.3 5 3.9 7.7 2.5 2.5 7.5 4.8 7.5 3.3 0-.6.6-.7 1.7-.1 2.7 1.6 6.8-1.4 13.1-9.4 3.9-5.1 4.3-7.3.7-5-3.2 2.1-6.5 1.3-10.1-2.5-3.3-3.4-3.9-9-1.5-14.6 1.7-4.2 2-4.3 15.6-5.9 5.5-.6 5.8-.8 3-1.6-3.3-.9-10.7-.4-14.5 1-4.1 1.6-6.6 6.1-7.3 13-.5 5.3-.3 6.6 1.3 8.2 1 1 1.6 2 1.4 2.3-.3.2.2.7 1.1 1.1 1.1.4 1.4.2.9-.6-.4-.7-.3-.8.4-.4s1.2 1.4 1.2 2.3c0 1.1.8 1.4 3.4 1.1 4-.4 3.8.7-1.3 5.8-3.4 3.5-7.4 3.8-12.7 1.1-4-2-7.5-9.1-8.2-16.1-.3-2.8-1-5.4-1.6-5.8-.8-.6-.8-.8 0-.8.6 0 1.4-1.8 1.7-4 .7-5.3 3.8-7.9 17.2-14.6 6-3 11.2-5.8 11.5-6.2.3-.4 2.4-1.6 4.7-2.6 2.3-1 5.2-3.2 6.5-4.9 1.3-1.7 3.1-3.8 4.1-4.6 3.7-3.2 12.4-14.7 14.4-19.1 2.9-6.3 6.4-19.1 5.5-20.4-.4-.6-.8-2.5-.9-4.1 0-1.7-.4-5.9-.7-9.5-.4-3.6-.8-10.7-.9-15.7-.1-5.1-.5-9.3-.8-9.3-.3 0-.3-1.5 0-3.3l.5-3.2.7 3c.7 3 .7 3 .8.3.1-2.6-1.1-4-3.5-4.4-.6-.1-1.6 1.4-2.2 3.3zm3.7 23.2c.1 6.4-.6 4.7-1.3-2.9-.3-4.2-.2-5.6.3-4 .5 1.4.9 4.5 1 6.9zm-1.2 10.3c-.3.7-.5.2-.5-1.2s.2-1.9.5-1.3c.2.7.2 1.9 0 2.5zm3 4.4c-.3.3-1.2.4-1.9.1-.8-.3-.5-.6.6-.6 1.1-.1 1.7.2 1.3.5zM225.3 594.2c.1.7-.4 1.2-1 1-.7-.1-1.3.3-1.3.9 0 1.7 3.4.5 3.8-1.4.2-.9-.1-1.7-.7-1.7s-1 .6-.8 1.2zM4.2 598.8c-1.7 1.1-3.5 7.6-2.2 8 .5.2 1 1.2 1 2.3 0 1 .5 1.9 1 1.9.6 0 1 .8 1 1.7.1 1 .9 2.7 1.8 3.9 2.3 2.7 6.2 4.9 6.2 3.4 0-.5-.4-1-1-1-1.5 0-6-5.3-6-7.2 0-1-.4-1.8-.8-1.8-1.6 0-1.7-7.9-.2-9.4 1.3-1.3 2.2-.3 2.4 2.8.1 2.8 2.7 4.3 4.8 2.9.7-.4 3.3-.8 5.8-1 5.9-.3 7-.5 7-1.4 0-.3 1-.9 2.2-1.2 1.2-.4 2-.9 1.7-1.1-.3-.3-3.6.3-7.2 1.3-3.7 1-7 1.5-7.3 1-.2-.4-1.1-.6-1.9-.2-2 .7-4.5-1.4-4.5-3.8 0-2-1.6-2.4-3.8-1.1zM30.8 599.7c.7.3 1.6.2 1.9-.1.4-.3-.2-.6-1.3-.5-1.1 0-1.4.3-.6.6zM52.7 600.7c-.4.3-.7 1.4-.7 2.3 0 1-.7 2.3-1.5 3-.8.7-1.5 1.7-1.5 2.3 0 1.4 3.8-3.1 4.6-5.5.6-2.1.2-3.2-.9-2.1zM220.5 602c.3.5.8 1 1.1 1 .2 0 .4-.5.4-1 0-.6-.5-1-1.1-1-.5 0-.7.4-.4 1zM217 604c-1 .6-1.1 1-.2 1 1.9 0 1.4 2.1-.7 2.7-1.1.3-1.7 1.1-1.5 1.8.3.7-.3 1.5-1.3 1.8-1.4.4-1.5.5-.2.6.9 0 2.7-1.5 4-3.4 1.3-1.9 2.8-3.5 3.2-3.5.5 0 .5-.5.2-1-.8-1.2-1.6-1.2-3.5 0z"/><path d="M138.2 608.6c1 1 2 1.6 2.2 1.3.3-.3-.5-1.1-1.7-1.8-2.1-1.3-2.1-1.2-.5.5zM178 608c0 .5.5 1 1 1 .6 0 1-.5 1-1 0-.6-.4-1-1-1-.5 0-1 .4-1 1zM41.7 614c-1.6 1.7-4 3.3-5.5 3.7-1.5.3-3.7 1.3-4.9 2-2.2 1.4-9.9 1.3-15.1-.3-1.2-.3-2.2-.2-2.2.4 0 1.4 1.6 1.8 9 2.1 5.1.2 7.6-.3 12-2.2 4.9-2.2 12.8-8.8 10.4-8.7-.5.1-2.2 1.4-3.7 3zM211.2 613.5c.3.3-1 2.1-2.8 3.9-1.9 1.9-3.4 4.1-3.4 5 0 .8-.9 2-2 2.6-1.1.6-1.9 1.4-1.8 1.8.1.4-.3 1.7-1 2.8-.6 1.2-.8 2.5-.4 3s0 .3-.9-.4c-1-.8-4.6-1.1-10.2-.9-5.5.1-8.3-.2-7.9-.8.3-.6-.1-.4-1 .3-1.3 1-1.8 1-3-.1-1.7-1.8-7-2.9-6.5-1.3.2.6 1.3 1.1 2.5 1 1.2 0 1.9.3 1.6.7-.7 1.2 7.9 2.2 15.9 1.7 5.3-.2 7.4 0 7.4.9 0 .6-.5 1.1-1.1 1-.6-.1-1.1.8-1 2 0 1.3-.5 2.3-1.1 2.3-.6 0-1.8 1.1-2.5 2.5s-1.7 2.5-2.2 2.5c-1 0-4.2 7.1-3.9 8.8.1.7-.8 1.6-2.1 2.2-1.3.5-1.7.9-1 .9.6.1 1.2.6 1.2 1.1 0 .6-.3.9-.7.9-2-.3-2.6.2-1.3 1.1 1.3.8 1.3 1-.2 1-2 0-3.4 3.8-1.9 5.3.8.8 1.1.6 1.1-.6 0-.9.6-1.7 1.3-1.7.9 0 .9-.2-.1-.9-1.1-.7-1.1-.9.2-1.4 1.3-.5 5.9-8.8 6-11 .1-.4.7-1.2 1.5-1.6.7-.5 1-1.4.7-2-.4-.6 0-1.1.8-1.1.9 0 1.6-.5 1.6-1 0-1.6.3-2.1 3.8-5.9 1.8-2 3.5-4.6 3.8-5.8.4-1.3 1-2.3 1.5-2.3s.9-.6.9-1.3c0-.8.9-2.4 2-3.7 1.1-1.3 2-3.1 2-4.2 0-1 .4-1.8.8-1.8 1.2 0 5.2-3.9 5.2-5 0-.6-.5-1-1.2-1-.6 0-.9.2-.6.5z"/><path d="M179 637c0 .5.5 1 1.1 1 .5 0 .7-.5.4-1-.3-.6-.8-1-1.1-1-.2 0-.4.4-.4 1zM177.2 668.5c.2 1.2-.2 1.9-1 1.7-1.4-.3-3.5 4.5-2.8 6.5.3.7 0 1.3-.6 1.3s-.9.3-.5.6c.3.3-.3 1.5-1.4 2.7-2.2 2.4-2.5 3.9-.6 3.1 1.7-.6 4.9-7.2 4.2-8.5-.4-.5-.3-.9.2-.9 1.6 0 4.1-5.7 3.1-7.1-.7-1.1-.8-.9-.6.6zM167 687.1c0 .5.5.7 1 .4.6-.3 1-.8 1-1.1 0-.2-.4-.4-1-.4-.5 0-1 .5-1 1.1zM166.5 690c.3.5.1 1-.4 1-.6 0-1.1.7-1.1 1.5 0 2.6 2.5 1.6 2.6-1 .1-1.4-.2-2.5-.8-2.5-.5 0-.6.4-.3 1zM164.5 696c.3.5.1 1-.6 1s-.9.3-.6.7c.4.3.2 1.2-.4 2-.9 1-.8 1.3.2 1.3 1.1 0 1.1.2-.1 1-.8.5-1.1 1.2-.7 1.6 1.1 1.1 2.8-.9 3-3.5.1-1.1.5-2.1.9-2.1s.8-.7.8-1.5-.7-1.5-1.6-1.5c-.8 0-1.2.4-.9 1zM161.4 705.8c.3.5.1 1.2-.6 1.4-.8.3-.6.7.5 1.1 2 .7 2.4-1.7.5-2.9-.6-.4-.8-.3-.4.4zM158.6 710.6c-.3.8 0 1.4.6 1.4.7 0 .7.4-.1 1.3-.6.8-.8 1.7-.4 2 .3.4.1.7-.6.7s-.9.5-.5 1.1c.3.6 0 1.5-.7 2-1.2.7-1.1.9.1.9 1.8 0 4.4-5.4 3.7-7.5-.3-.7-.1-1.5.6-1.8.6-.2.4-.6-.5-1-1-.3-1.9 0-2.2.9zM155.5 722c.3.5.1 1-.4 1-.6 0-1.1.7-1.1 1.6 0 .8.5 1.2 1 .9.6-.3 1-.1 1 .4 0 .6-.7 1.1-1.6 1.1-.9 0-1.4.8-1.3 1.7.1 1 0 2.1-.1 2.5-.1.5-.3 1.1-.5 1.5-.4 1.7-1.7 4.9-2.5 6.4-1 1.9-.4 2.9 1.8 2.9.8 0 1.2-.6.9-1.5-.4-.8-.2-1.7.4-2.1.6-.4.6-1.1-.2-2-1-1.2-1-1.5.1-1.2 1.3.3 2.8-3.7 3.4-8.8.1-1.1.5-2.5.9-3.1.7-1.1-.1-2.3-1.5-2.3-.5 0-.6.4-.3 1z"/></svg>