<svg preserveAspectRatio="xMidYMid meet" viewBox="0 0 1202 2178" xmlns="http://www.w3.org/2000/svg"><path d="m338.634 591.421c-4.726 11.816-8.87 48.293-22.82 52.944-13.197 4.399-35.167 13.499-43.816 26.471-11.065 16.599-8.662 39.233-17.343 56.595-18.532 37.063-47.938 63.487-61.158 103.147-9.893 29.679-2.255 63.997-2.255 94.393 0 7.646 7.057 21.487 2.739 30.123-22.593 45.185-11.49 106.478-34.203 151.9-4.685 9.369 2.409 66.89 7.302 76.677.756 1.51-15.088 36.138-17.288 40.537-6.403 12.806 1.83 32.853-4.564 45.64-10.785 21.571-37.302 28.964-47.466 49.292-14.454 28.909-35.518 47.304-49.292 74.851-7.914 15.827-42.918 20.963-31.948 42.902 17.16 34.32 72.008-20.486 85.804-27.384 5.398-2.7 15.364-18.257 20.995-18.257 5.253 0-.14 12.534-.913 13.692-4.574 6.861-33.81 45.624-15.518 54.769 4.727 2.363 16.837-7.962 20.995-10.041 23.571-11.784 21.282-39.826 31.036-59.333 2.794-5.589 18.267-19.62 24.646-16.43 17.447 8.724-20.511 46.434-20.511 57.88 0 20.885 30.199 69.196 54.658 56.968 47.252-23.624 9.128-100.722 9.128-134.184 0-18.447-7.473-46.894-15.518-62.984-3.544-7.088 2.576-19.494-.913-26.471-1.809-3.618-4.539-24.696-2.738-28.297 14.462-28.925 29.661-60.291 43.704-88.377 15.618-31.238-2.967-80.726 13.637-113.935 15.847-31.695 22.914-70.987 42.307-100.077 1.945-2.918 5.807-31.948 8.215-31.948 2.384 0 6.563 15.379 7.731 17.716 11.226 22.452 2.231 47.769 10.041 71.2 19.149 57.443 22.605 119.305 41.934 177.292 9.865 29.595-7.165 68.301 2.683 97.846 32.966 98.902 26.845 207.24 26.845 315.002 0 40.272 10.143 96.657-2.738 135.303-21.842 65.528-22.599 135.418-22.599 206.551 0 52.124 12.653 71.873 23.733 122.289.646 2.936 10.483 21.021 12.283 21.021 2.453 0 33.959 24.138 35.638 25.926 5.769 6.146 62.467 31.786 77.218 28.623 53.576-11.486 14.934-19.465 67.356-9.045 38.82 7.716 74.171 35.354 121.758 33.346 30.48-1.286 43.43 28.328 57.381 22.437 9.388-3.964 20.878-22.29 25.559-29.311 20.796-31.193 7.28-59.806-9.557-93.481-5.391-10.781-50.453-12.789-55.784-26.055-8.723-21.708-56.129-21.826-81.447-30.924-17.799-6.396-45.681-17.384-54.976-35.973-12.624-25.248-12.984-44.224-25.559-69.374-8.92-17.841-6.539-44.264-12.779-62.984-23.817-71.452-36.612-147.577-17.772-216.917 9.077-33.408.7-75.062 15.946-105.553 27.072-54.139 53.163 28.954 59.333 47.466 12.173 36.52-.265 80.171 16.804 114.309 14.016 28.031-1.912 70.117 12.779 99.496 10.448 20.894 15.499 52.258 25.933 73.128 22.703 45.41 43.458 68.194 97.866 73.576 17.969 1.777 34.04 12.301 51.542 16.678 38.864 9.717 78.513 19.965 117.586.429 14.025-7.012 23.836-74.343 8.216-82.153-22.817-11.409-50.263 1.03-73.812-6.819-23.21-7.735-59.956-24.231-72.43-49.181-6.852-13.702-6.479-31.213-12.78-43.815-15.816-31.633-5.226-83.896-13.208-118.706-10.654-46.46-8.499-96.083-1.286-142.313 13.475-86.366 0-186.407 0-274.296 0-38.211-.913-75.755-.913-113.935 0-13.431 4.064-36.974-1.825-48.753-18.555-37.108-7.303-105.025-7.303-147.875 0-12.381 4.526-36.59-.913-47.467-3.822-7.644-12.174-58.177-7.302-67.921 7.131-14.262 55.737-2.627 69.581-5.477 31.39-6.462 52.912-24.113 81.001-38.157 21.348-10.674 36.163-41.009 48.379-59.333 10.989-16.484 33.814-39.277 50.205-50.205 8.07-5.38 25.265-6.717 30.123-16.43 12.198-24.392 19.152-53.47 30.854-77.351 21.821-44.531 65.516-67.766 108.292-71.033 13.083-.999-5.476-16.366-5.476-25.558 0-11.054 26.662-21.524 20.994-32.862-11.889-23.779-85.204 22.039-68.461.913 5.137-6.482 18.346-81.7-10.953-85.804-3.503-.491-16.421 12.746-17.344 15.518-5.182 15.548 2.315 41.217-16.431 47.466-9.21 3.07-30.09-76.736-54.768-27.384-15.47 30.935 60.634 61.825 46.553 104.06-4.43 13.288-39.206 6.52-49.125 26.361-11.421 22.841-13.564 47.448-24.162 70.66-10.797 23.647-80.336 47.013-103.148 58.42-26.983 13.492-16.047 41.254-45.641 51.117-12.138 4.046-55.408 10.012-66.302 4.564-13.591-6.795-18.58-27.089-31.949-33.774-12.403-6.202-53.932-1.317-58.294-10.041-10.899-21.8 6.104-65.484 13.748-88.417 3.794-11.383-12.95-50.717-17.344-63.897-11.221-33.661-21.875-71.99-37.37-102.981-11.63-23.263-49.955-22.239-69.374-31.949-30.773-15.387-57.616-35.816-72.112-64.809-19.808-39.619 4.816-102.409-14.121-140.281-3.456-6.913 1.978-20.691-.912-26.472-9.35-18.7-42.217-33.316-52.944-54.769-3.726-7.453-9.986-35.572-17.343-39.251-8.973-4.486-25.292 1.826-35.06 1.826-57.931 0-95.71 14.548-128.858 64.27-22.721 34.081-60.396 55.45-83.066 89.456-17.489 26.233-12.38 112.258 1.341 139.701 7.513 15.025 5.08 35.003 14.605 49.292 35.583 53.374 77.591 100.896 106.204 158.123 17.447 34.893 40.164 46.918 40.164 83.979" fill="#8b0dd9" stroke="#000"/><path d="m435.707 308.096c-10.885 16.327-18.763 65.926 4.564 77.59 17.807 8.903 45.67-12.309 57.507-6.39 11.208 5.604 14.787 19.26 25.559 24.646 12.306 6.153 44.657-7.163 50.204-18.256 19.854-39.704-51.284-61.575-71.199-74.851-8.634-5.756-6.979-31.33-13.692-34.687-13.956-6.978-40.559 7.139-45.848 17.717-2.905 5.809 1.122 18.96-3.651 23.733" fill="#fff" stroke="#000"/><g transform="matrix(.1 0 0 -.1 0 2178)"><path d="m3995 21694c-22-2-80-8-130-14-49-6-146-15-215-20s-161-16-205-23c-275-48-349-99-803-557-428-430-500-510-595-656-208-321-235-371-297-551l-42-118 6-155c14-438 39-603 136-909 37-119 84-270 104-336 55-186 120-347 171-427 32-49 109-134 234-258 198-196 268-284 341-430 23-47 52-98 63-114s35-70 53-120c98-277 188-445 322-601 143-166 182-228 242-380 17-44 40-94 51-112 15-24 18-41 13-72-4-23-10-41-15-41s-9-7-9-16c0-33 28 6 40 55 10 43 9 54-8 87-10 22-36 83-56 136-56 144-102 214-257 395-99 114-224 361-294 580-13 39-37 92-55 118-17 25-45 76-62 113-51 112-149 242-271 357-168 159-291 298-330 373-47 89-104 242-161 434-25 86-69 225-97 310-76 233-110 465-126 874-5 115-4 124 26 214 62 183 88 235 257 500 107 166 161 237 269 345 50 49 122 126 160 170 86 98 551 550 620 603 28 21 74 52 103 70 55 33 209 82 259 82 15 0 53 7 83 15 31 8 101 15 160 15 58 1 125 5 150 10 25 6 103 14 175 19 112 8 132 7 147-6 19-17 35-68 68-218 13-55 31-119 42-142 32-68 112-135 224-187 207-98 185-79 220-181 45-132 65-165 167-273 111-118 135-168 143-306 5-74 0-116-21-226-22-110-28-172-32-336-5-187-4-205 17-275 20-66 24-103 29-331l6-257 30-31c38-40 93-73 177-104 36-14 91-41 121-60s115-64 188-100c74-35 162-84 195-109 34-25 77-53 95-63 19-9 62-35 96-58s81-53 105-68c88-56 191-146 298-261 101-109 114-128 174-251 40-82 77-176 95-242 40-147 53-183 111-299 49-98 123-286 141-355 5-19 9-122 9-228 0-138 4-209 14-245 32-112 46-380 27-497-23-139-24-220-6-290 9-36 23-75 31-88 34-52 144-80 394-101 116-10 166-30 241-99 31-29 83-67 114-84 47-27 66-46 97-98 64-105 83-125 158-164 82-43 238-74 285-56 15 6 41 10 58 10 18 1 50 9 72 20s44 19 49 20c4 0 24 14 44 31s52 38 71 46c20 9 53 30 73 49 20 18 56 38 79 44s52 22 64 34c24 24 55 111 55 151 0 55 101 192 190 256 26 19 88 47 147 65 102 33 258 110 343 170 25 17 72 46 105 65 33 18 137 83 231 145 145 96 179 122 219 176 63 82 110 186 136 295 13 55 37 119 65 170 24 44 44 87 44 94 0 24 111 179 138 193 15 7 52 19 82 26 89 20 205 68 230 95 36 39 40 120 7 176-24 41-80 185-107 274-27 88-83 169-186 271-81 79-104 108-108 135-14 94-35 206-41 220-4 12 1 18 18 23 14 3 48 22 77 41l52 35 50-41c60-50 191-246 211-315 11-40 19-50 39-52 14-2 31 4 38 12 7 9 27 16 46 16 48 0 91 43 142 142 46 90 50 116 37 236-8 71-7 74 20 102 20 21 31 47 40 92 10 59 35 93 35 49 0-49 28-90 79-115 67-34 118-80 142-129 18-34 20-55 17-141l-3-101-70-145c-60-125-70-153-73-210-3-55-1-69 18-92 37-48 47-44 261 99 78 52 148 73 249 73 62 0 86-5 136-29 65-30 104-70 104-105 0-17-31-35-183-106-210-99-213-103-158-187 44-66 41-87-15-123-26-16-76-39-113-50-36-12-91-38-121-58s-71-46-92-57c-37-20-171-134-307-260-42-39-114-103-161-142-156-131-179-162-315-433-99-197-120-253-130-337-4-32-18-77-31-99-36-63-163-194-288-296-134-110-293-264-348-336-103-137-278-301-473-441-33-24-94-77-135-117-83-81-93-86-223-114-71-16-119-35-223-91-130-69-187-116-260-211l-20-26-259-6-258-6-38-34c-43-40-84-49-204-44-75 3-81 5-92 29-29 59-27 83 8 120 18 18 46 49 63 67l29 33-54-31c-74-44-108-78-115-117-7-38-6-38-47-16-18 9-72 20-120 24-62 6-96 14-116 29-16 11-50 29-77 40-27 12-67 37-91 56-23 19-58 41-76 49-47 20-51 39-23 101 14 30 24 54 23 54-2 0-20-22-40-49-46-59-49-100-11-130 15-12 33-21 40-21s29-13 47-30c19-16 65-45 103-64s83-44 99-55c23-16 46-21 97-21 69 0 194-37 210-63 4-7 29-77 54-157 27-85 61-170 83-204l36-59 4-169c2-101-2-195-9-236-6-37-16-139-21-227-13-223-27-382-38-435-6-25-10-158-11-297 0-255 15-435 55-648 9-46 20-198 26-355 10-275 21-380 75-680 24-136 25-160 21-405-4-257-4-262-40-418-41-175-45-238-27-462 6-71 17-213 26-315 22-278 32-374 54-495 31-169 26-446-15-950-15-178-15-273-6-875 17-1048 19-1087 36-1175 9-44 20-136 25-205s13-156 19-195c5-38 10-119 10-178 0-60 3-112 6-117s9-82 15-172c10-179 16-201 96-385 25-59 55-139 66-178 44-159 163-354 284-464 66-61 94-76 274-149 130-52 139-54 265-63 79-5 159-16 205-29 41-12 113-28 159-36 138-22 194-60 265-178 25-42 36-72 36-99 0-22 14-91 31-153 22-80 29-124 25-148-9-46-59-111-116-151-25-17-56-48-69-69-25-37-25-37-77-30-37 4-79 0-147-16-89-21-113-22-393-18-326 4-326 4-419 68-25 17-69 39-99 50-29 10-116 47-192 83-77 36-170 74-209 86-98 30-258 51-399 51-163 1-187 7-253 72-80 78-208 252-232 316-17 42-40 73-94 126-82 81-127 161-172 311-15 50-42 138-61 196-38 122-48 162-74 309-10 58-30 159-44 225-18 89-29 188-40 383-9 145-19 269-23 275-4 7-11 199-14 427-6 316-11 433-23 488-43 202-204 710-276 867-68 147-170 277-229 290-42 9-93-16-137-69-27-33-60-57-111-81-78-37-119-81-147-158-17-47-49-324-68-588-12-174-11-178 12-260 32-114 34-164 15-320-21-175-28-202-81-336l-44-112v-166c0-157 1-169 30-257 27-81 32-115 40-260 5-92 11-171 13-175 3-4 10-60 17-123 14-135 28-197 80-345 59-168 137-500 150-640 6-66 17-144 25-173s19-85 24-125c19-136 86-282 226-497 57-85 119-189 140-230 50-101 106-172 185-235 101-80 130-94 216-105 44-6 113-21 154-35 41-13 107-31 146-39s107-33 153-55c51-25 104-42 139-46 31-4 81-13 111-22 66-18 225-97 301-148 149-103 290-194 338-220 67-36 89-73 140-230 22-66 62-166 89-222 68-136 74-193 38-329-15-55-33-109-41-122-8-12-43-36-77-52s-91-56-127-88c-90-81-114-92-206-92-68 0-87 5-180 45-56 25-105 45-108 45s-48 19-98 42c-82 36-105 42-194 49-64 5-114 14-135 25-19 9-86 37-149 61-256 99-384 143-458 157-81 15-147 38-297 102-88 37-93 38-198 36-139-2-174-12-235-67l-50-45h-133c-132 0-317 24-384 50-16 6-79 25-139 41-172 47-304 115-419 216-30 26-88 69-128 94-172 109-196 132-244 232-55 114-71 176-90 342-9 72-24 195-36 275-72 527-99 761-120 1080-16 240-7 553 20 695 18 97 77 285 125 398 9 20 30 97 46 169 28 125 30 146 30 344 0 167 4 236 20 325 43 244 60 375 60 461 0 83-3 96-42 186l-43 97 2 205c6 538 33 1142 63 1405 24 207 27 498 6 607-8 40-29 118-46 173-18 55-39 134-46 175-16 89-18 247-4 287 9 24 8 26-3 11-8-10-17-15-20-11-13 12-6 248 8 313 17 78 19 181 4 250-11 51-87 174-179 291l-42 54 5 80c3 44 12 116 21 160 21 108 20 224-3 320-10 44-22 100-26 125s-21 97-37 160l-31 115-7 390-7 390-45 130c-26 72-63 166-83 210-51 110-63 160-75 307-14 190-42 298-147 573-36 94-94 227-129 296s-64 133-64 142c0 8 21 39 46 69 101 118 191 282 239 435 28 90 81 171 133 202 23 14 45 34 51 45 9 21 10 21 10-1 1-31 17-29 23 2 4 18 1 25-10 25s-13 9-7 48c4 26 12 54 17 62 6 8-3 0-21-18-17-18-31-42-31-55 0-30-25-64-60-82-47-24-109-116-136-200-52-165-135-311-269-475-24-30-58-80-75-111-30-57-105-327-135-489-20-108-68-271-100-336-14-28-59-95-100-149-102-133-209-362-241-518-8-39-24-101-35-136-11-38-23-121-29-210-6-80-19-195-30-256-10-60-24-175-30-254-14-190-30-254-95-386-30-60-60-135-65-166-6-31-24-94-41-140s-48-131-69-189-45-123-54-145c-43-113 19-471 104-596 38-57 47-90 59-224 13-144 34-243 81-373 69-195 72-220 67-669-3-219-8-406-12-415-4-10-37-43-73-74-66-56-66-56-116-49-67 9-176 67-247 132-64 60-69 69-104 211-14 56-34 125-45 153-30 74-27 166 6 231 40 78 114 276 114 303 0 13-5 36-10 51-11 27-11 27-85 21-108-10-134-23-197-108-84-113-88-120-104-220-27-172-65-260-149-340-55-53-118-87-162-88-16-1-30 11-48 39-24 37-25 45-16 100 11 67 22 91 62 138 16 18 41 56 55 84 14 29 41 74 60 101 26 37 34 60 34 92 0 95-30 116-110 75-52-27-213-187-239-238-14-27-50-63-103-105-129-99-170-124-234-142-32-10-85-28-116-41-51-21-73-24-196-24-136 0-139 0-163 26-20 22-24 34-22 88 2 89 26 141 78 171 36 22 54 25 134 25 79 0 99 4 144 26 112 57 173 131 212 257 23 76 44 114 185 336 153 242 185 283 351 447 90 89 176 173 191 187 16 15 33 48 43 83 9 33 36 119 61 192 57 172 89 318 104 467 15 162 26 223 61 329 26 81 29 104 29 222 0 149-8 181-85 333-44 88-47 99-43 155 3 43 17 90 48 161 74 171 144 415 194 675 9 47 27 144 41 215 29 151 76 338 131 515l39 125-1 170c-1 165-2 175-43 333-33 133-41 180-41 255 0 115 16 264 35 342 23 91 86 212 149 289 32 38 71 97 88 130 17 34 48 84 69 112s52 79 68 115c16 35 46 86 65 113 19 26 43 71 52 100 9 28 23 61 30 73 8 12 30 66 49 119s49 122 68 153c143 235 161 258 395 501 164 170 241 258 266 302 20 37 52 124 75 207 41 144 50 204 31 216-6 4-10-11-10-38 0-60-63-266-108-352-31-58-75-108-260-295-196-197-234-241-310-355-105-160-153-249-182-340-13-38-29-79-36-90s-22-46-34-77c-12-32-37-81-57-109-19-28-48-81-64-116-16-36-43-81-59-100-17-19-46-64-64-101-19-38-63-104-98-148-75-94-141-230-163-334-10-45-18-148-21-255l-6-180 37-140c33-123 37-158 42-295 6-169 5-175-64-400-56-185-90-340-168-756-29-155-109-418-173-564-34-78-46-122-50-172-5-65-3-69 59-200l64-133 3-140c4-133 2-144-26-230-35-105-47-167-62-330-15-150-47-294-103-460-25-72-50-154-57-183-12-50-22-63-214-255l-201-202-131-205c-185-290-203-322-223-393-35-126-113-218-219-257-45-17-68-20-121-14-144 14-231-74-231-234 0-126 38-152 225-152 112 0 134 3 190 26 35 14 93 33 128 43 107 29 314 183 364 269 28 48 179 199 220 221 43 22 53 15 53-38 0-37-6-56-24-78-13-15-36-53-51-83s-47-80-70-110c-71-91-85-191-38-275l26-47 62 4c77 7 104 21 185 101 55 53 71 77 98 144 17 44 40 128 50 187 16 90 24 114 57 161 78 114 103 135 178 151 38 8 73 12 78 8 18-11 8-63-35-169-24-61-56-135-70-165-37-79-36-169 3-276 16-43 37-115 46-159 10-44 24-92 32-107 34-69 135-152 246-204 38-17 69-24 115-24 64 0 64 0 129 58 37 31 72 71 80 89 10 25 13 123 13 452 0 469 1 457-75 685-42 127-75 293-75 387-1 68-15 114-58 187-46 78-64 129-92 266-27 134-27 273 1 327 11 22 33 77 48 122 16 45 44 125 64 177 19 52 40 120 46 150s33 100 61 155c64 126 86 214 99 397 6 80 20 197 30 259 11 63 23 170 27 239 3 69 15 159 26 200s28 112 38 157c20 86 91 269 143 368 18 33 61 96 95 140 35 44 79 109 97 145 40 81 87 237 120 398 50 250 125 482 155 482 14 0 124-250 191-432 94-258 118-354 130-523 12-183 22-231 74-345 24-52 63-147 86-210l42-115 8-390c7-385 13-459 48-547 6-15 17-69 26-120s23-117 31-147c20-77 17-212-6-333-22-116-26-208-9-241 7-12 29-42 49-67 71-86 144-205 157-255 17-66 16-148-3-237-13-60-15-113-9-303 3-126 11-258 16-292 8-46 8-71-1-98-9-28-9-39 1-51 16-20 32-13 40 17 5 20 10 11 27-46 50-166 54-189 59-370 4-153 1-213-21-403-30-253-46-492-46-697 0-77-5-203-10-280s-10-257-11-400l-1-260 42-94 42-93-5-122c-4-116-10-157-56-420-17-95-21-160-21-328 0-270-7-305-138-678-28-80-58-188-68-240-22-125-31-547-15-748 27-344 75-753 121-1038 11-67 20-139 20-160 0-51 26-224 45-297 20-80 82-219 115-259 15-18 88-73 161-123 74-49 157-110 185-135 91-82 266-172 396-205 35-9 97-27 138-40 125-40 261-59 422-60h147l43 42c62 61 99 73 220 73 95 0 109-3 188-36 147-62 233-91 303-103 89-15 307-93 557-198 69-29 103-37 185-43 80-6 113-14 165-38 36-16 125-55 198-86 216-92 316-88 427 14 69 64 116 96 164 116 67 26 93 66 125 187 42 157 35 220-43 387-33 69-71 163-86 210-40 124-78 192-126 221-94 57-279 178-339 220-36 26-121 75-190 109-108 54-140 65-231 81-77 13-126 27-178 53-39 20-101 43-139 51-37 7-104 25-149 40-45 14-113 29-153 34-139 18-287 142-374 314-27 53-91 160-142 237-143 215-214 366-229 495-4 33-15 96-25 140s-22 123-25 175c-8 118-87 446-156 649-40 118-53 171-64 276-8 72-17 139-20 150s-10 94-15 185c-8 142-13 178-40 258-28 87-30 101-30 250 0 146 2 161 26 217 66 155 77 199 98 383 21 179 20 228-6 298-35 94-31 242 23 748 5 55 16 113 23 130 23 54 68 98 130 126 38 17 80 48 111 80 64 66 87 76 127 53 41-25 112-121 164-225 55-110 136-338 209-588 99-339 96-318 104-795 3-231 10-425 14-432 4-6 14-130 22-275 13-231 20-288 55-463 21-110 44-227 51-260 6-33 28-114 48-180 21-66 48-156 60-200 37-136 94-239 177-320 53-53 80-89 102-138 55-120 249-354 318-383 23-10 76-14 166-14 150 0 338-26 437-60 36-12 130-52 210-90 80-37 157-70 171-73 14-4 55-25 90-48 101-66 122-69 480-69 256 0 327 3 375 16 43 11 81 14 132 10 68-6 72-6 92 19 11 15 23 35 26 46 4 10 26 31 50 45 46 27 90 76 119 131 23 45 20 113-8 218-14 50-28 115-31 147-11 98-102 225-196 273-25 13-86 31-135 39-49 9-120 25-159 36-43 13-121 24-200 29-127 8-133 10-274 66-79 32-172 77-205 99-123 83-278 316-321 484-9 35-37 110-62 165-67 151-93 233-93 296 0 31-5 97-11 146-6 50-14 164-19 255-17 303-29 444-44 510-25 111-36 273-36 534 0 138-5 492-11 786-10 473-9 559 5 740 41 509 45 855 14 1040-30 172-51 411-84 935-5 79-1 110 31 255 60 273 70 587 26 850-11 63-29 168-40 233-22 122-41 386-41 567 0 58-7 148-16 200-49 301-54 368-54 669 0 163 5 314 10 336 24 96 53 553 54 841l1 231-33 54c-26 40-102 247-102 275 0 2 17 2 38-2 32-5 92 2 195 22 16 3 45 20 65 37 34 31 39 32 126 32 50 0 163 1 252 3l161 2 64 73c82 94 119 122 254 191 83 42 135 61 210 77 55 12 111 27 125 34 14 8 57 46 95 85 39 39 99 92 135 118 185 132 362 300 482 458 55 71 183 194 329 315 111 92 245 228 292 296 19 28 32 66 43 129 17 100 42 160 156 386 95 189 142 254 245 339 43 35 114 97 159 139 125 117 310 273 346 291 18 9 56 33 85 52 28 19 82 44 120 56 80 25 160 80 169 116 5 19-3 44-26 90-18 35-30 67-27 72s83 44 177 88 176 88 181 98c42 77-97 193-246 204-78 7-214-26-268-65-85-61-203-131-220-132-9 0-22 11-28 24-17 37 4 112 65 234 30 59 61 132 70 162 19 63 21 172 5 236-15 59-81 132-157 172-65 35-67 38-77 106-4 25-11 49-16 52-13 7-67-23-79-45-5-11-10-38-10-60 0-31-7-49-32-77-32-36-33-40-29-113 7-160 9-150-44-246-47-85-53-91-95-103-25-7-53-18-63-23-22-12-20-14-35 37-6 22-47 94-90 160-60 90-93 129-136 162-31 23-64 42-73 42-8 0-30-13-48-29s-55-37-81-46c-68-25-78-40-55-79 10-17 26-78 34-135 19-122 36-151 144-250 95-86 131-146 188-316 26-77 60-163 76-191 55-97 33-145-83-188-40-15-102-34-137-42s-74-22-86-30c-24-16-135-173-135-192 0-5-22-52-49-103-27-52-54-121-61-154-27-132-83-251-160-338-34-39-262-194-402-273-46-26-108-64-138-84-106-72-206-122-309-155-119-39-186-81-258-163-52-60-103-145-103-173 0-9-9-47-20-83-22-68-50-96-99-96-12 0-38-15-58-34-21-18-58-43-83-56-25-12-61-34-80-49-47-35-106-61-140-61-15 0-41-5-58-11-47-16-174 5-249 41-70 35-105 71-162 168-33 56-49 73-93 97-29 16-86 57-127 91-87 75-136 94-270 105-202 17-304 38-348 71-20 16-26 61-9 70 9 5 16 19 16 31 0 16-3 19-9 8-5-7-14-10-20-7-17 11-14 150 4 193 29 69 8 486-30 602-11 33-15 98-15 250-1 147-5 216-14 241-8 19-33 87-56 150s-59 147-81 187c-43 78-78 172-110 298-22 87-117 293-170 372-76 112-320 336-444 407-27 16-74 46-104 68-30 21-60 38-66 38-7 0-39 21-71 46-33 25-124 78-204 117-80 38-172 87-206 108-33 22-79 45-101 53-59 21-136 62-170 90l-30 26-5 237c-5 219-8 246-33 343-27 102-28 110-21 277 5 111 16 222 32 310 53 301 26 421-136 588-94 97-126 151-166 277-23 74-48 96-167 148-120 52-206 106-241 153-31 40-55 112-86 248-11 53-31 116-43 140l-22 44-70 1c-38 1-88 0-110-2z"/><path d="m3920 21480c-21-21-28-46-10-35 6 4-1-18-14-49-42-95-146-422-146-459 0-35-1-36-47-42-243-34-343-94-425-254-38-74-42-105-10-73 11 10 14 20 8 24-16 11 72 132 124 172 26 20 64 43 85 52 47 19 173 44 226 44h39v-252c0-227-9-402-26-510-5-31-3-38 10-38 9 0 16 6 16 13 1 6 8 62 16 122 9 64 18 225 21 387 4 188 9 281 17 287 15 13 417 80 494 82 85 3 76 23-13 27-64 3-246-22-398-54-89-18-87-19-87 14s107 357 152 459c26 60 29 75 18 88-17 20-26 19-50-5z"/><path d="m4703 18991c-104-40-238-113-227-124 3-3-3-18-14-34-36-52-91-171-113-245-18-62-22-107-26-298l-5-225 32-83c21-55 40-88 57-99 37-24 221-40 264-23 17 8 81 54 141 102l110 89 46-22c26-11 70-32 97-45 28-13 103-70 167-128 65-58 126-110 137-115 29-16 127-13 160 4 86 44 167 192 178 326 5 64 4 70-31 127-54 89-90 117-172 132-102 19-138 36-182 88-53 63-166 121-259 132-60 8-72 13-100 43-36 40-57 120-72 279-11 110-30 158-64 158-12 0-68-18-124-39zm149-128c19-197 50-287 113-329 14-9 56-20 94-24 83-9 181-60 244-127 53-56 73-67 170-87s119-34 162-108c41-69 44-107 15-199-45-148-144-238-235-215-14 4-78 54-143 112-96 86-135 114-218 155-96 46-156 61-169 40-8-15-197-166-224-180-27-15-178-6-218 12-15 6-33 35-53 83-30 73-30 73-30 272 0 227 12 309 60 426 49 116 77 149 172 198 133 67 220 97 237 82 8-7 17-51 23-111z"/></g></svg>