<svg preserveAspectRatio="xMidYMid meet" viewBox="0 0 1186 2311" xmlns="http://www.w3.org/2000/svg"><g stroke="#000"><path d="m838.176 244.502c-17.787-5.929-37.215-8.98-55.911-8.98-9.192 0-17.421-4.517-26.613-4.517-76.185 0 14.767-31.598 32.931-40.68 4.333-2.166 14.529-11.85 14.529-16.465 0-2.023-19.987-3.874-22.277-3.874-10.346 0-66.134-7.604-62.384-18.858 3.281-9.842 55.208-9.95 55.208-11.622 0-3.82-10.135-12.971-11.623-17.434-6.655-19.963-10.733-33.485-20.339-52.698-1.131-2.261-14.101-31.963-13.56-31.963 5.792 0 36.663 32.789 41.648 37.774.911.912 23.023 22.277 18.402 22.277-5.118 0-5.358-12.654-6.78-15.497-3.583-7.166-20.384-57.123-8.717-62.956 12.167-6.083 16.641 23.245 21.309 23.245 9.969 0 10.34-41.648 20.339-41.648 6.81 0 16.426 17.434 25.183 17.434 5.585 0 9.403-12.039 16.465-9.685 5.32 1.773 9.778 18.402 12.591 18.402 14.191 0 52.221-26.103 67.622-18.402 11.381 5.69-1.937 25.182-1.937 25.182s14.406-9.17 16.466-9.685c16.594-4.149 60.675-21.086 74.291-14.278 37.336 18.668-22.673 39.598-22.673 55.149 0 3.099 31.091-5.178 34.295-6.78 13.213-6.606 74.796-3.53 86.641 2.392 9.498 4.749-5.314 20.81-8.717 24.214-10.877 10.877-57.541 35.397-57.541 50.306 0 .362 20.347-.004 22.277-.969 10.218-5.109 38.341-6.613 44.553 5.811 11.321 22.639-34.394 35.127-44.553 50.365-11.078 16.616-35.379 27.683-41.648 46.491-.628 1.885-13.463 13.52-12.591 14.528 9.34 10.793 8.144 22.674 8.144 37.715 0 7.476-3.979 18.128-3.874 28.088.706 67.216 19.546 140.01 34.163 217.723 6.655 35.382 3.288 77.65-5.298 111.999-5.971 23.887 7.429 67.489 1.937 91.44-6.868 29.952-3.815 50.849-3.815 81.578 0 19.105-3.05 61.309-11.623 78.453-7.65 15.299-3.967 38.656-8.203 55.604-11.232 44.928-13.838 90.297-21.132 137.048-11.334 72.641-26.332 148.445-43.276 222.334-13.438 58.602-17.231 126.871-36.685 185.233-9.592 28.779-23.269 59.506-36.158 88.83-19.892 45.253-24.956 97.414-46.198 139.899-11.765 23.53-24.533 53.67-30.976 79.441-5.854 23.416.934 62.041-12.591 82.327-17.01 25.515-63.909 37.794-89.073 50.377-26.008 13.006-54.082 53.224-86.167 53.224-5.625 0 27.8-39.809 30.421-43.408 18.072-24.814 19.51-51.095 26.547-79.245 20.847-83.389 47.33-165.178 60.282-248.188 4.023-25.779 20.518-54.774 28.543-78.849 31.301-93.906 68.559-186.847 92.409-282.251 14.531-58.126 12.757-118.919 31.39-174.822 13.293-39.883-1.094-87.017 17.316-123.841 7.808-15.616 7.442-44.44 9.686-61.811 7.415-57.408 12.779-126.266 24.492-180.676 9.001-41.812 3.676-109.199-2.333-153.261-10.816-79.311 15.899-243.617-64.835-290.848-25.705-15.038-31.396-42.103-66.257-42.103" fill="#f2b600"/><path d="m78.944 1694.399c0-5.554 8.413-39.711 15.497-39.711 8.609 0 14.581 33.39 23.246 29.057 11.704-5.853 11.622-46.331 11.622-58.113 0-1.956 1.124-18.81 3.874-17.434 27.586 13.794 1.157 65.271 10.654 84.264 5.669 11.335 25.786 13.798 32.931 28.088 3.591 7.182-19.369 6.784-15.497 18.403 1.931 5.791 11.773 9.017 14.529 14.528 8.787 17.575-2.028 42.436 7.748 61.987 2.602 5.205-6.277 31.362-8.203 37.201-2.65 8.032-1.902 58.975-11.623 88.139-5.185 15.554-5.372 39.801-12.591 54.239-6.25 12.5.021 32.887-5.811 44.553-3.278 6.555 4.448 29.81 6.78 36.805 4.611 13.834-.493 33.574-10.654 40.679-78.095 54.61-76.679 69.792-101.64 82.723-10.199 5.284-19.535 20.834-23.245 31.963-5.68 17.04-27.03 49.929-.969 62.956 10.151 5.073 26.696 4.056 37.774 7.748 11.972 3.991 40.237-10.69 50.761-15.951 9.259-4.63 21.573-3.039 30.993-7.749 35.318-17.658 62.491-44.567 95.887-66.83 27.141-18.093 47.163-46.865 61.019-74.579 5.421-10.841-.78-24.778 2.906-35.836 2.862-8.586 6.185-36.059 1.937-44.554-10.691-21.381-20.664-78.491-12.532-102.886 23.605-70.817 42.556-190.927 7.748-260.541-3.825-7.65 1.314-27.039 2.847-33.723 8.965-39.095 15.421-71.746 32.931-106.76 4.646-9.292 35.044-27.516 45.522-22.277 55.666 27.835 32.406 115.649 36.805 164.654 3.711 41.348-14.681 89.113 4.842 128.818 5.718 11.628 6.007 36.619 11.624 47.855 13.765 27.536 15.58 53.786 23.068 83.735 3.263 13.052 5.9 43.764 11.623 55.207 14.217 28.434 33.81 54.517 47.914 82.723 12.086 24.171 18.194 51.022 33.899 74.579 10.012 15.018 32.45 18.552 45.742 31.845 14.397 14.398 37.014 42.91 62.779 30.025 8.104-4.053 37.687-8.69 41.075-18.857 11.275-33.828-17.35-67.673-34.868-93.95-46.834-70.253-107.889-137.704-134.629-217.925-7.136-21.411 5.124-48.95-1.937-70.132-4.273-12.819 4.05-31.611-1.937-43.585-11.427-22.855-11.283-106.472 0-129.037 6.59-13.179-.104-34.029 6.721-47.679 5.401-10.8-5.4-29.702 0-40.502 4.653-9.306 2.392-26.36 2.392-36.771 0-32.247 4.301-80.65-9.685-108.621-10.224-20.446 4.978-67.634 11.109-86.025 14.935-44.808-11.981-103.702 2.905-148.362 3.968-11.902 9.168-23.544 12.078-36.233 9.773-42.619 4.178-88.43 15.379-129.653 4.671-17.19-7.007-42.999.969-58.948 16.094-32.186 8.689-67.622 24.872-99.99 9.497-18.995 66.236-26.943 84.351-39.02 12.335-8.224 26.78-36.043 40.673-40.674 9.245-3.081 23.991-1.341 32.931-5.811 43.456-21.729 70.134-50.655 95.548-88.775 5.786-8.679 9.872-41.053 14.528-50.364 28.724-57.448 54.888-127.867 61.876-193.201 6.273-58.642 5.338-116.034 24.149-172.465 9.864-29.59 20.476-84.105 34.367-111.888 10.078-20.157 19.439-35.004 30.564-57.254 1.804-3.608-26.918-12.558-32.727-15.462-11.962-5.981-5.284-15.807-17.433-21.881-12.59-6.295-9.37-18.752-22.321-23.069-10.853-3.618-39.356 11.74-48.427 8.716-10.035-3.345-12.763-30.651-24.214-7.748-28.914 57.831 10.299 128.343-10.654 191.201-14.1 42.301-10.27 104.173-29.967 143.566-8.83 17.661-11.316 45.877-20.34 63.925-42.209 84.417-69.197 157.671-136.785 225.261-21.004 21.004-40.829 50.923-68.767 64.893-29.183 14.593-62.863 15.981-93.024 26.033-14.326 4.775-9.569-7.11-19.371-10.654-32.952-11.915-1.941-74.368-6.78-105.572-6.278-40.481 18.018-81.392 8.203-124.195-4.04-17.616 2.595-49.079 8.776-67.622 6.498-19.495-8.559-42.121-1.937-61.987 5.463-16.391-5.464-38.245 0-54.635 5.251-15.754 9.222-40.454 4.842-56.573-9.331-34.344-61.411-59.801-88.81-66.651-67.05-16.762-188.556-5.111-232.604 60.961-24.57 36.855-45.598 82.158-59.419 123.622-3.135 9.405-11.264 33.926-5.752 44.949 22.38 44.762 43.402 97.517 65.815 142.344 4.888 9.776-3.875 55.603-8.717 65.288-4.399 8.8.606 13.476 3.874 26.548 4.938 19.751.822 61.457-5.811 81.358-16.102 48.305-60.922 85.908-77.94 136.962-10.849 32.549 9.315 78.764-5.238 107.872-6.793 13.586-17.061 26.373-24.214 40.679-8.919 17.837-5.23 45.537-11.564 64.54-8.053 24.161-.465 59.439-11.623 81.755-7.888 15.776-19.445 50.215-8.717 71.673 4.394 8.787 16.784 17.399 19.313 27.515 7.261 29.046 12.096 58.072 19.371 87.17 5.409 21.637 19.274 44.154 8.921 64.859-5.711 11.422 2.505 31.281-3.361 43.013-5.427 10.854 9.543 31.421 4.843 45.522-7.036 21.109-22.731 46.99-22.731 69.163 0 22.699-5.71 68.457 4.329 88.534 6.219 12.44 20.23 11.733 29.056 2.906" fill="#ab20d6"/><path d="m247.215 329.464c-1.926 19.255-10.556 51.629-3.875 71.673 12.888 38.664 44.765 16.041 55.208-4.843 8.177-16.352 3.816-77.029-12.591-85.233-23.309-11.654-39.711 3-39.711 26.151" fill="#fff"/><path d="m370.9 329.395c-24.234 21.204-29.941 72.727-8.717 93.95 10.672 10.672 27.991 23.632 47.459 10.654 30.271-20.18 21.536-74.122 8.717-99.761-5.101-10.203-17.274-32.043-32.931-24.214-15.19 7.595-19.076 21.014-30.025 31.962" fill="#fff"/><path d="m252.705 576.38c4.875-9.749 31.196-69.635 44.553-62.956 6.822 3.411 10.435 12.482 16.466 15.497 10.243 5.122 29.841-6.387 44.553.969 6.67 3.334 13.719-18.323 21.308-14.529 14.764 7.382 30.769 67.427 12.592 76.516-4.824 2.412-45.02-3.623-49.397-5.811-6.888-3.444-4.89-19.371-12.591-19.371-7.109 0-9.965 10.794-15.497 13.559-10.946 5.474-12.323-17.523-18.402-15.496-9.286 3.095-38.019 18.039-43.981 12.077" fill="#fff"/></g><g transform="matrix(.1 0 0 -.1 0 2311)"><path d="m8524 23000c-101-119-113-122-178-44-61 73-163 121-203 96-7-4-31-61-53-126-55-158-74-196-103-196-31 0-58 20-153 112-82 79-105 89-145 68-58-31 19-385 146-672 25-56 44-103 42-104-6-7-341 314-445 424-105 113-188 171-225 156-23-9-21-21 9-57 39-46 73-120 179-387 117-294 131-322 234-480 45-68 81-128 81-132 0-5-10-2-22 6-57 41-283 8-432-63-105-49-148-85-144-120 3-25 7-27 93-38 50-6 167-19 260-28 174-17 399-54 493-81 59-16 67-36 30-71-39-36-169-108-324-179-82-38-221-105-309-149-126-63-161-85-163-102-6-40 24-44 351-54 172-4 332-11 357-15 208-28 273-34 353-33 90 0 91 1 55 14-93 34-475 74-796 83l-237 7 90 48c50 27 176 89 280 139 184 86 318 159 361 196 68 57 68 113 1 142-79 34-365 79-724 112-73 6-133 15-133 19 0 11 90 66 164 99 127 58 347 91 375 56 18-22 59-25 76-6 18 20 21 40 3 22-20-20-26-15-54 40-14 28-50 89-80 135-77 119-91 150-208 446-57 145-114 283-126 307-12 23-19 44-17 47 3 2 110-101 238-229 311-310 416-393 427-337 2 9-25 81-59 160-77 182-122 316-148 446-21 100-27 193-14 193 4 0 44-36 89-80 83-81 130-110 182-110 48 0 79 50 132 215 18 55 37 104 41 109 14 16 73-17 141-81 52-49 74-63 98-63 42 0 74 23 105 76 14 24 30 44 35 44 6 0 10 7 10 15s9 15 21 15c20 0 49-50 49-87 0-35 22-95 41-114 31-31 69-23 154 32 91 60 307 165 368 178 23 6 72 12 110 15l67 5v-32c0-18-13-66-30-107-37-95-38-117-3-131 42-16 108 4 281 82 285 130 389 159 567 159 142 0 175-17 175-89 0-44-49-103-252-302-200-195-212-213-155-233 30-11 22-12 342 58 404 89 847 112 917 49 27-24 22-74-11-119-75-102-149-165-431-366-113-80-229-167-257-195-46-42-53-54-53-87s4-39 38-53c59-25 220-21 385 11 144 27 227 33 227 16 0-26-42-67-295-288-299-263-378-339-406-394-23-45-25-101-4-122 16-16 115-49 122-42 3 2-6 7-19 11-46 15-78 45-78 75 0 52 65 124 306 338 369 329 390 348 409 388 13 28 15 42 6 60-10 22-16 24-84 24-41 0-134-11-208-25-130-24-254-31-318-19-70 14-31 56 224 239 308 222 418 316 473 403 39 61 47 101 29 144-26 61-65 73-265 76-254 5-512-28-831-104-79-19-153-34-165-34-15 0 21 42 143 163 91 89 184 188 208 221 38 52 43 64 43 113 0 47-4 59-28 83-42 41-99 54-214 46-184-12-273-38-529-155-169-77-263-110-276-97-3 3 8 43 26 89 23 60 31 96 29 128l-3 44-59 3c-104 5-176-12-324-81-77-35-171-85-210-111-38-25-81-46-95-46-27 0-37 19-57 107-13 57-43 103-67 103-14 0-13 3 1 25 32 48 6 24-70-65z"/><path d="m8655 22671c-133-130-170-178-198-257-13-38-32-90-43-117-18-46-18-50-1-115 9-37 50-134 92-217l75-150 1-160c2-160-7-226-39-289-10-21-12-46-8-85 11-109-23-488-54-606-10-38-21-92-24-120-4-27-22-102-40-165-19-63-42-173-51-245-11-83-31-174-55-250-64-201-79-273-115-546-15-114-81-343-176-612-28-78-81-232-118-342s-79-222-93-250c-14-27-46-103-72-167-25-64-58-138-74-165-15-26-56-100-90-163-35-63-87-144-118-180-119-141-334-411-374-470-23-34-69-108-102-163-33-56-81-129-107-162s-62-82-81-110c-85-125-342-367-545-515-120-87-270-210-370-303-121-111-249-192-365-227-100-31-101-32-283-27-114 3-233 12-317 25-74 12-138 21-141 22-4 0-21 40-39 89l-32 89 11 399c7 253 17 438 27 508 16 105 15 144-2 300-6 55-2 70 39 180 52 141 63 201 78 442 14 227 8 462-15 522-12 32-16 78-16 170 0 115 3 136 30 217 46 135 67 285 112 794 9 96 12 287 11 567-3 495-2 487-119 694-57 99-78 127-119 157-27 20-67 50-88 68s-59 37-85 44c-25 6-73 24-106 39-34 16-106 47-161 69-322 132-338 135-550 127-125-5-177-11-240-30-69-20-109-24-295-29-374-10-515-32-598-92-91-66-148-94-269-135-71-23-145-56-177-77-212-143-457-361-534-475-30-46-62-113-85-180-39-112-52-135-213-375-82-122-104-162-118-218-10-38-33-107-53-154-55-131-63-171-63-320 0-206 13-288 68-441 55-152 81-204 146-304 89-134 142-258 175-407 26-117 49-187 114-353 6-16 26-55 44-84 18-30 47-91 65-135 27-70 32-97 36-197 4-111 3-121-27-209-44-125-51-232-21-315 28-78 33-172 23-435-6-157-13-222-23-241-48-86-58-110-69-169-7-36-28-112-46-170s-36-116-39-131c-6-30-51-92-160-220-44-52-113-146-154-209s-94-145-118-181c-60-92-194-368-227-468-46-137-57-246-57-552 0-323 2-313-115-579-101-229-158-391-221-630-66-246-129-511-144-604-55-344-95-1010-72-1209 17-152 55-285 123-427 113-234 163-374 273-760 67-238 72-270 86-585 12-259 18-327 45-480 22-129 38-339 31-418-3-37-26-129-50-205-56-175-73-241-86-336-6-42-22-118-36-169-13-50-38-142-53-202-68-256-92-737-44-846 25-54 46-74 102-94 64-22 96-19 120 11 27 34 87 222 102 316 6 40 13 80 16 88 2 8 20-29 39-83 40-117 59-151 118-205 111-102 197-52 236 139 30 144 27 199-15 276-30 55-35 73-35 129 0 37 8 107 17 158l17 91 13-70c26-146 56-250 94-328 46-94 50-151 23-315-8-53-13-111-9-129 12-64 121-133 210-133 36 0 65-17 65-38 0-10 12-42 26-71 23-46 26-60 20-114-16-150-18-253-7-320 6-40 13-165 15-278 3-114 10-253 16-308 16-138 8-426-15-505-9-32-22-111-30-175-25-218-63-406-105-515-39-105-74-233-127-466-27-123-28-131-27-440 0-307 1-318 27-440 23-101 27-138 21-195-12-135-63-243-200-425-111-148-186-211-365-309-323-178-355-202-526-400-195-227-208-251-239-426-10-59-31-127-62-195-43-98-46-112-50-207-4-101-4-102 20-108 14-4 61 3 105 14 90 23 202 27 254 9 19-6 69-34 113-61l79-51 55 12c31 7 79 27 107 45 82 55 110 67 189 78 41 5 130 26 198 45 135 38 202 73 336 176 130 99 349 252 442 310 81 51 257 181 440 326 47 37 132 114 189 171 120 121 141 159 226 416 30 88 82 241 117 340l63 180-1 140c0 136-2 147-56 365-83 331-88 364-88 587 0 219 7 265 75 492 72 238 88 325 146 793 30 243 31 264 26 533-7 394-43 659-127 929-27 88-30 112-30 230 0 182 22 355 75 581 53 229 56 237 132 385 32 63 73 150 92 194 41 93 160 265 236 340 30 30 76 64 102 76 43 20 58 22 148 17 55-3 114-11 130-17 63-24 116-96 129-175 4-22 27-114 52-204l46-165-6-170c-2-94-9-256-15-361-12-241-13-959-1-1395 9-349 20-457 76-741 33-171 55-233 119-339 79-130 88-149 160-350 93-261 111-384 84-604-15-116-3-189 45-287 68-138 150-225 276-293 105-57 138-93 186-204 33-76 38-101 44-192 6-87 14-127 50-230 80-233 160-362 307-497 43-39 116-117 163-175 46-57 105-120 130-140 56-44 118-123 161-204 43-82 105-162 142-185 23-13 51-19 97-19 138-1 200-15 275-59 68-41 72-42 146-39 69 3 86 8 167 51 50 26 97 47 105 47 57 0 64 141 17 310-17 58-46 162-65 231-71 263-116 361-210 459-109 113-204 232-265 330-36 58-94 131-148 187-49 50-109 122-134 160-25 37-88 134-141 215-58 89-129 181-180 235-46 48-103 122-127 163s-65 103-91 138c-55 73-60 93-89 333-11 95-31 233-45 308-28 155-41 258-55 451-5 74-15 196-22 270-7 83-12 333-12 655l-1 520 28 165c37 210 42 320 27 550-21 337-23 570-6 825 9 132 21 278 27 325 19 139 6 342-30 490-46 189-55 303-56 715v370l37 215c20 118 42 251 47 295 16 119 31 498 31 768 0 370 30 774 85 1142 44 293 85 628 100 820 17 209 31 338 45 401 32 142 42 242 50 489 5 149 14 304 20 345 9 67 39 514 40 598 0 29 3 32 33 32 46 0 166 65 242 131 51 44 81 61 138 79 91 28 274 129 408 225 57 41 138 91 179 112 41 20 116 63 167 95s94 58 97 58c2 0 55 24 118 54 62 30 133 57 158 61 70 11 284 128 365 200 39 34 99 81 134 104s87 61 115 85 71 57 96 74c75 51 225 212 290 311 34 52 89 128 123 170 33 42 78 114 99 160 22 47 66 130 98 185 136 237 212 415 265 624 20 75 42 157 50 182s33 137 55 250 56 252 75 310c45 137 65 223 65 286 0 28 16 113 35 190 20 76 40 182 45 234 6 52 15 115 21 140 5 25 16 187 24 360 18 378 26 451 63 538 16 37 35 92 42 122s23 93 37 140c17 59 29 141 39 265 24 310 27 323 89 450 44 90 98 247 110 319 8 48 48 139 83 190 24 35 27 49 27 120 0 75 3 87 43 166 33 65 61 102 117 157 88 86 94 105 70 228-21 104-16 192 14 259 45 104 24 159-91 235-70 48-122 54-176 21-18-11-35-20-37-20-3 0-5 27-5 60s-6 76-14 94c-22 53-126 176-167 197-55 28-170 42-294 37-117-6-163-19-224-65l-34-26 7 24c4 13 10 45 13 70 7 62-18 89-79 89-40-1-49-6-133-89zm159 53c20-8 20-43 0-149-14-69-15-87-4-100 7-8 17-15 22-15 6 0 5 7-2 15-8 10-9 15-1 15 12 0 17-19 25-93 3-27 8-53 12-58 7-12 41-12 49 1 3 6 0 10-8 10-17 0-27 30-27 86 0 27-7 51-21 68-21 26-21 27-3 48 63 69 215 101 385 80 131-16 163-34 237-131l62-83v-71c-1-84-6-95-82-166-32-29-56-57-55-61s-26-31-60-59c-73-61-82-91-30-91 18 0 42 7 53 16 18 15 18 15-3 9-35-10-27 7 20 42 62 47 146 131 163 164 18 36 108 89 152 89 34 0 100-38 155-88 34-32 36-87 6-152-30-63-35-159-15-267 21-114 16-129-72-209-52-48-77-81-112-150-41-81-45-96-49-173-3-74-7-89-32-124-29-40-89-183-89-213 0-34-63-212-102-287-22-44-44-93-49-110-15-51-29-170-39-337-11-175-46-345-108-515-43-117-48-154-62-420-19-381-27-512-33-522-3-5-11-56-17-113-6-58-27-164-46-236-19-71-34-152-34-180 0-68-23-169-65-286-19-54-53-189-75-301-23-111-58-265-79-342s-44-162-50-188c-27-111-159-402-253-554-22-38-60-108-83-158-25-52-71-126-110-175-37-47-95-125-128-175-95-143-234-270-497-455-42-30-104-78-136-106-75-64-258-161-349-185-79-20-301-121-370-169-26-18-94-56-152-86-59-30-143-82-188-114-120-87-353-220-384-220-39 0-131-49-187-101-36-32-75-61-87-65s-34-15-49-26c-24-17-43-18-160-16l-133 3-90-54c-49-30-143-81-207-114-147-75-191-111-216-180-35-93 1-109 47-19 35 67 45 75 199 154 64 33 128 68 142 78 14 9 56 34 94 54 67 37 69 38 143 31l75-7-5-51c-2-29-12-149-21-267s-23-265-31-326c-9-61-20-225-24-365-8-217-14-277-39-409-29-152-37-213-67-550-14-158-31-293-76-605-11-77-26-183-34-235-40-279-57-514-65-910-15-686-26-828-95-1218-33-188-45-325-45-502 0-191 26-588 44-670 48-215 56-264 62-350 4-62 1-143-9-235-40-353-42-473-21-1260 5-206 4-231-21-385-37-231-48-467-41-855 6-338 10-414 46-832 19-225 29-299 64-493 8-41 24-156 36-255 26-224 38-266 94-338 24-32 65-92 89-135 25-43 85-121 138-177 82-89 211-271 304-429 16-27 72-94 125-150 59-62 130-152 182-231 56-84 127-173 201-252 147-156 182-225 260-518 14-49 39-139 58-200 37-126 47-262 19-275-8-3-57-28-109-55-74-37-107-49-157-53-61-4-66-3-134 38-80 48-112 56-263 65l-107 7-43 49c-23 26-65 90-92 141-39 73-69 112-141 183-50 50-130 137-178 195s-110 125-139 148c-128 108-222 263-298 491-33 101-42 143-47 225-4 85-10 114-38 179-52 122-80 155-175 211-46 27-99 59-117 71-53 36-134 144-177 235l-40 85 4 105c9 238 6 384-12 457-24 100-141 416-182 488-18 33-53 94-77 137-29 50-52 107-66 166-31 125-80 423-92 555-17 193-24 1328-9 1627 7 146 14 342 16 436l4 172-37 123c-20 68-47 168-59 221-36 160-91 218-224 239-211 32-301-12-462-227-85-113-116-168-158-269-18-44-59-130-91-190-53-99-64-130-105-305-68-282-75-332-82-566l-6-211 36-119c76-253 115-531 123-899 6-238 6-242-35-567-54-429-71-522-132-724-80-268-83-290-84-534 0-239-3-222 91-608 86-353 85-393-31-707-34-93-81-227-104-298-73-223-95-263-218-385-59-60-126-121-148-138-22-16-67-52-100-79-94-79-251-193-360-262-113-71-329-224-462-325-48-37-112-81-143-97-66-35-272-97-355-107-73-8-112-23-193-76-87-56-135-61-196-19-93 64-143 81-241 81-49 0-115-7-145-15s-66-15-79-15c-23 0-23 1-19 77 4 65 13 96 51 183 30 69 51 137 61 196 28 160 43 186 220 393 148 172 208 222 389 323 354 198 383 221 522 405 105 141 180 280 195 362 15 84 12 189-10 287-46 209-52 615-12 819 38 191 92 395 131 499 22 58 44 129 50 158 32 158 52 283 61 369 5 52 18 133 29 180 29 124 37 353 17 502-14 104-21 279-9 235 2-9 11-19 18-22 11-4 13-1 6 12-10 18-31 194-31 254 0 20 5 49 10 65l10 28-19-25c-19-24-20-24-28-5-10 26-9 257 1 365 8 81 7 88-18 137-33 66-33 79 2 95 33 16 87 113 102 183 5 28 21 163 34 300 22 226 24 281 19 570-5 268-3 342 11 458 16 120 16 146 4 210-8 43-13 138-12 237 1 138 5 187 29 300 23 114 28 168 32 346l5 211-35 89c-20 49-39 100-42 114-4 14-43 126-87 250-101 282-125 376-138 542-15 180-47 428-67 508-9 36-38 115-64 175-29 67-57 157-73 230-15 66-38 167-51 225-37 158-45 242-52 516-5 209-3 271 12 375 19 141 60 308 106 434 34 94 148 277 175 281 9 1 18 4 20 6 7 8-27 48-36 43-17-11-144-211-172-272-38-84-102-314-125-449-14-86-18-159-17-344 1-264 14-414 50-575 13-60 36-164 50-229 26-122 35-148 98-294 54-125 73-238 116-679 6-61 19-147 30-190 20-80 160-484 232-672l40-105-5-190c-4-154-10-217-33-326-23-115-27-160-27-310-1-96 3-225 7-286 6-78 5-136-4-195-8-56-11-170-9-344 6-409 4-456-20-700s-47-344-92-391c-33-35-40-29-23 18 20 58 10 59-26 1l-31-50-61 9c-67 9-141 46-159 80-8 16-9 48-3 112 5 50 9 136 9 192 0 93-2 105-31 160-17 32-38 82-47 109-18 53-77 342-77 374 0 21-17 37-27 27-4-3-7-21-8-39-1-17-12-83-24-146-23-128-27-235-8-267 52-89 57-105 57-168 0-71-22-203-41-238-37-72-87-86-150-44-80 55-159 241-159 374 0 65 5 87 30 140 18 38 30 80 30 104 0 37-2 39-27 36-22-2-29-12-45-58-11-30-23-95-28-145-15-165-41-309-77-415-47-142-55-154-103-147-61 8-92 29-118 79-36 71-41 262-13 517 23 201 38 281 91 461 17 58 37 148 46 200 19 121 36 186 84 335 21 66 44 147 51 180 15 78 5 309-21 459-30 177-39 266-50 511-13 302-20 346-91 597-100 354-149 492-254 714-139 291-158 422-136 927 12 277 49 640 83 802 33 163 153 631 193 755 43 132 93 262 158 405 25 55 60 141 78 190l33 90 1 305c2 344 12 432 69 580 42 108 175 374 225 448 20 31 62 97 92 145 30 49 105 152 166 229 175 218 190 247 248 477 22 85 41 141 54 155 44 46 51 102 51 402 0 259-2 285-21 340-29 82-22 187 21 309 30 86 31 95 27 210-5 131-28 217-85 318-16 29-39 70-51 92-38 71-99 257-131 394-33 148-82 258-182 412-73 111-71 108-129 266-41 112-53 161-65 258-26 226-17 320 47 474 22 52 48 126 58 166 15 59 36 98 117 219 157 232 179 272 214 378 43 134 104 222 236 345 58 54 129 115 157 136 29 21 85 64 125 95 89 70 149 102 260 137 127 40 168 60 244 116 106 79 189 94 608 108 212 8 253 12 305 30 78 28 359 41 445 21 61-14 437-161 486-190 17-10 57-25 88-34s71-29 88-44c18-16 54-43 79-61 60-42 161-210 201-333l28-88v-408c0-224-5-463-10-532-42-489-68-680-110-805-28-83-30-99-30-235 0-109 4-159 16-194 14-42 16-87 11-350-7-350-17-428-77-574l-41-102 7-178c4-112 3-203-4-247-6-38-16-252-22-475l-11-405 29-81 30-80-66 8c-44 5-71 14-79 25-12 15-13 15-13-5 0-24 32-42 73-42 53 0 95-21 116-55 11-20 27-38 35-41 7-3 37 6 65 20l52 25 117-20c75-12 166-19 252-19 122 0 145 3 244 32 91 26 127 43 213 100 57 37 138 101 181 140 86 81 252 214 372 298 190 134 439 374 550 530 29 41 68 93 86 115s54 78 81 125c101 175 286 422 455 609 27 30 66 79 87 110 63 93 198 350 235 447 19 50 48 118 65 152 33 65 166 444 287 817 85 263 100 316 109 400 24 215 61 404 110 555 25 77 65 298 65 361 0 19 15 80 34 136 18 55 37 124 41 154s18 97 31 149 24 121 24 155c0 33 5 78 10 101 5 22 12 124 15 226 3 103 10 199 16 215 24 62 35 172 32 315l-4 147-63 123c-66 130-106 235-106 278 0 14 13 57 30 95 16 39 30 80 30 92 0 27 70 112 180 220 82 80 100 90 134 77zm-3991-7224c22-1 22-1 3-15-26-20-33-19-47 7-10 18-9 20 6 15 9-4 26-7 38-7zm-3867-8657c-38-73-34-40 10 72 7 19 8 19 11-2 2-12-7-43-21-70zm821-1585c-2-13-4-5-4 17-1 22 1 32 4 23 2-10 2-28 0-40z"/><path d="m4294 20328c-30-59-109-131-281-260-169-126-204-143-231-116-9 9-12 8-12-8 0-11 5-25 10-30 7-7-2-20-27-40-62-50-65-49-43 6 46 117 87 180 140 216 42 29 19 32-27 4-48-29-97-102-145-215-23-55-54-112-69-126-40-37-207-163-269-201-37-23-48-34-36-36 18-4 100 47 230 141 45 32 66 43 61 31-79-191-114-434-81-564 20-75 87-218 144-307 45-69 95-104 195-135 97-30 110-24 230 106 111 120 143 173 191 318 49 144 61 451 22 530-47 95-177 195-331 254-41 16-75 31-74 34 0 3 48 39 106 80 219 154 343 274 343 332 0 29-28 21-46-14zm-270-502c130-65 186-109 226-180 29-50 30-54 30-196 0-208-20-306-94-462-32-68-208-266-244-275-37-9-157 33-198 69-51 45-138 199-175 308-30 91-31 100-26 210 7 130 37 264 87 384 31 74 36 80 119 143 79 59 89 64 125 60 21-3 89-30 150-61z"/><path d="m3883 19781c2-10-4-44-15-76-25-76-68-370-68-473 0-74 3-87 25-116 28-37 91-69 125-64 19 2 32 22 67 99 55 123 63 168 63 354 0 241-26 295-143 295-53 0-59-2-54-19zm122-35c13-13 28-41 34-62 13-48 14-288 1-367-8-51-70-208-91-231-12-14-66 13-94 46-21 25-25 40-25 100 0 74 34 354 51 423 22 87 30 104 52 108 42 8 48 7 72-17z"/><path d="m3926 19508c-17-28-25-102-11-106 10-4 43 78 44 111 1 24-16 21-33-5z"/><path d="m2303 20244c-8-21 3-30 170-138l128-82-77-100c-75-97-114-161-114-185 0-7 11-2 25 11 30 28 30 28 5-44-35-104-55-267-55-461v-180l33-67c57-116 126-158 258-158 62 0 76 4 133 38 77 45 128 106 180 216 73 153 86 211 85 386 0 134-4 168-26 250-14 52-24 96-23 98 10 11 48-68 61-125 22-94 31-113 53-113 25 0 37 17 44 65l6 40-23-29-24-29-11 53c-18 85-45 134-96 176-26 21-63 63-83 93-55 82-76 91-210 90l-113-1-117 75c-64 41-133 82-152 93l-35 18 35 7c30 5 31 7 8 8-14 0-33 4-42 7-10 4-18-1-23-12zm526-230c31-6 97-61 87-71-3-3-49 9-102 28-71 24-91 35-78 40 25 10 54 11 93 3zm-36-73c185-64 176-55 224-233 23-87 28-123 28-228 0-143-14-204-75-345-54-122-110-192-190-234-56-30-68-33-124-29-118 10-187 70-226 196-25 79-26 194-4 382 18 164 33 229 75 340 26 69 42 95 85 138 30 28 63 52 74 52s71-18 133-39z"/><path d="m2652 19865c-11-13-22-49-26-82-4-32-16-130-27-218s-23-219-26-291c-5-125-4-133 16-153 14-14 33-21 59-21 34 1 41 6 80 60 24 33 48 74 55 92 7 22 10 125 9 313l-2 280-26 23c-35 31-87 30-112-3zm96-17c15-19 25-491 12-558-7-39-23-70-53-109-23-30-47-56-53-58s-21 4-33 14c-20 16-23 28-23 98-1 123 50 575 67 602 17 26 66 32 83 11z"/><path d="m2686 19588c-17-24-21-48-8-48 4 0 7-14 7-32 0-64 35-29 60 61 12 41-33 56-59 19z"/><path d="m3782 17983c-23-5-61-39-144-131-59-65-79-66-136-7-24 25-55 48-68 51-14 4-73-7-140-25-165-45-165-45-242 39-53 57-71 70-95 70-44 0-89-33-161-115-107-123-185-248-241-388-24-60-40-85-59-95-31-15-36-64-10-100 24-35 68-28 169 28 135 75 175 93 225 98 60 5 93-21 131-105 18-40 34-63 45-63 9 0 53 34 97 76 113 105 146 117 161 59 4-14 16-51 27-81 35-94 92-103 298-47 109 29 146 26 208-18 47-33 83-37 106-11 16 18 87 240 87 273 0 45-73 299-106 370-50 107-85 135-152 122zm-802-41c0-4 26-35 58-70 56-60 59-62 109-62 28 0 94 11 147 25s107 25 119 25c14 0 40-18 67-45 39-40 49-45 88-45 40 0 48 5 90 52 109 120 119 128 149 128 39 0 65-29 103-114 36-80 90-283 90-342 0-37-17-101-57-211-8-24-21-43-28-43-8 0-36 14-62 30-60 38-117 39-249 5-113-29-180-32-206-8-10 9-27 47-38 85-38 124-81 127-213 12l-86-74-26 51c-43 84-66 99-148 99-67 0-75-3-203-70-73-38-140-70-148-70-26 0-29 26-8 67 11 21 41 82 66 135 64 140 146 259 245 360 67 68 93 88 114 88 15 0 27-3 27-8z"/><path d="m9880 21511c0-5 13-38 29-74s47-121 69-189c106-323 158-589 232-1168 73-580 90-692 169-1107 186-971 227-1442 218-2498-5-580-9-678-57-1300-71-913-176-1609-505-3360-51-275-139-756-195-1070-192-1084-290-1545-475-2255-155-594-262-939-581-1870-343-1003-431-1268-519-1563-99-331-150-528-159-607l-6-55 21 70c192 658 312 1032 526 1655 488 1417 619 1836 814 2610 150 596 243 1047 405 1960 57 327 156 874 219 1215 315 1711 412 2372 479 3245 59 760 61 811 61 1465-1 1022-39 1422-234 2440-59 310-89 497-136 865-71 555-112 798-170 1030-42 167-105 365-150 471-24 58-29 77-17 67 13-9 12-7-2 10-20 23-36 29-36 13z"/><path d="m9331 19822c-1-12 8-48 19-80 28-79 38-125 61-287 25-185 50-607 70-1210 5-170 14-366 20-435 5-69 12-402 15-740 7-684 3-765-61-1445-42-436-70-671-131-1085-54-368-161-1144-204-1475-68-526-195-1346-261-1683-109-559-282-1247-465-1852-41-135-180-560-309-945-528-1581-707-2187-955-3245-131-558-268-1066-367-1360-47-139-250-655-285-723-11-22-17-41-15-43 9-10 161 313 235 501 139 352 273 794 412 1365 369 1511 463 1836 1000 3455 131 396 264 801 294 900 184 598 392 1426 495 1970 69 361 180 1085 251 1636 56 438 130 975 205 1504 80 563 122 948 177 1620 20 245 17 1343-5 1685-9 146-19 353-22 460-19 650-61 1171-109 1344-25 89-65 192-65 168z"/><path d="m8091 4374c0-11 3-14 6-6 3 7 2 16-1 19-3 4-6-2-5-13z"/></g></svg>