<svg version="1" xmlns="http://www.w3.org/2000/svg" width="926.667" height="824" viewBox="0 0 695.000000 618.000000"><path d="M109.9 1.4c-.2.3-1.6.7-2.9.9-4.6.9-5.4 1.2-6.7 2.4-.7.6-1.3 1.6-1.3 2.1s-1.1 1.4-2.5 2c-1.4.6-2.5 1.6-2.5 2.1 0 .6-.7.8-1.5.5-.8-.4-1.5-.1-1.5.5 0 .5-1.9 2.7-4.2 4.8-5 4.5-21.9 21.4-23.3 23.4-3.3 4.5-5.6 8.2-9 14.4-2.1 3.8-5.6 10.1-7.9 13.8-2.2 3.8-5.3 9.2-6.8 12C37 85.8 32 99.9 32 102.4c0 .9-.7 3.6-1.5 6-2 5.8-1.3 8.1 4 13.8 2.3 2.6 4.5 5.1 4.7 5.5.8 2 7 5.5 8.8 5 2.3-.6 12.7 8.8 10.7 9.7-.7.3-.1.3 1.2 0 2.1-.5 2.3-.3 1.8 1.5-.4 1.7-.3 2 .7 1.1 1-.7 1.7-.6 2.6.5.7.8.8 1.5.3 1.5s-.9.9-.9 2 .4 2 .8 2 .8-.5.8-1c0-.6.4-1 1-1 1.1 0 2.4 4.5 2.2 7.5l-.1 2 1.6-2c1.5-2 1.5-2 1 .2-.3 1.3-.1 2.3.3 2.3.9 0 .3 3.5-1.2 6.7-1.3 2.6-.5 6.3 2.1 9.4 1.6 1.9 2.2 2.2 3.2 1.1.7-.6.9-1.2.3-1.2-.5 0-1.1-1.6-1.2-3.7-.2-2-.5-4-.8-4.4-.2-.4 0-1 .5-1.4.6-.3.8-1.2.4-2-.3-.8 0-1.5.7-1.5.6 0 .8-.5.3-1.3-.8-1.3-1.1-2.4-1.6-7-.2-1.6-1.6-3.9-3-5.2-1.5-1.2-2.7-2.9-2.7-3.8 0-.9-1.1-2.9-2.5-4.4-1.9-2.1-2.3-2.3-1.8-.8.6 1.7.5 1.8-.9.5-.8-.8-1.4-2-1.1-2.6.2-.7 0-1.5-.6-1.9-.7-.3-.8 0-.5.9.7 1.9-.9 2.1-2.5.3-.8-1-.7-1.7.2-2.7 1-1 .8-1.2-.6-.6-1.4.4-2 0-2.4-1.4-.3-1.1-.9-1.7-1.4-1.4-.5.3-.9-.2-.9-1s-.9-1.8-2.1-2.1c-1.1-.4-1.8-.9-1.5-1.2.3-.3-.1-1.8-1-3.4-.8-1.6-1.4-3.1-1.3-3.5 0-.3-.3-.9-.7-1.2-.4-.4-.4-.2 0 .5.8 1.4-1 2.7-2.4 1.8-1.1-.7.5-4.5 2.4-5.7 1.4-.9 2.8.1 2.2 1.7-.2.7.1 1.6.9 1.9 1 .3 1.2-.2.6-2.2-.4-1.5-.4-4.3 0-6.2.3-1.9.7-2.9.8-2.2 0 .7.6 1 1.2.7.6-.4.8-1.4.5-2.2-.3-.8-.1-1.1.4-.8.6.3 1-.1 1-1s.5-1.3 1-1c.5.3 1 0 1-.7 0-1.9 3.7-4.1 4.3-2.5.3.7.6-.7.6-3 .1-2.3.5-4.5 1.1-4.8.6-.4.7.1.3 1.1-1.5 3.9 2.1.5 4.8-4.5 1.5-3 4.1-6.8 5.7-8.5 3-3.1 4.3-5.4 8.3-13.8 1.2-2.6 4.6-7.8 7.6-11.5 6.7-8.5 17.5-24.7 20.8-31.3 2.2-4.3 2.8-4.8 4.3-3.9 1.9 1.2 2.2 8.9.4 11.1-1.1 1.4-1.2 1.7-1.2 4.5-.1 1.7-7.6 10.8-8.9 10.8-.3 0-.5.6-.3 1.2.2.7-.2 1.3-.8 1.3-.5 0-1 .5-1 1.1 0 .6-1.1 2.5-2.5 4.3-1.4 1.8-2.5 3.8-2.5 4.5 0 2.1-3.2 6.1-4.4 5.4-.8-.5-.8-.3.1.8s.5 2.8-2 8c-1.8 3.6-3.8 8.1-4.5 10-.7 1.9-1.8 4.2-2.3 5.1-3.4 6.3-4.7 45.8-1.5 45.8.6 0 .6.4-.1 1.1-.7.7-.8 2.1-.2 4.2.5 1.7.9 4.7.9 6.6 0 4.8.4 7.3 1.5 9 .5.9.4 1.2-.3.7-.7-.4-1.1.5-1.1 2.6 0 5.4-.6 10.2-1.4 11.5-.4.6-.1 1.8.8 2.6 1.2 1.3 1.2 1.6 0 2-.7.3-1.6.1-1.9-.6-.2-.7-.5-.4-.5.6-.1 1-.6 1.5-1.1 1.2-1.3-.8-4.2 1.4-3.4 2.6.3.5 1.6.9 3 .9 1.8 0 2.3-.4 1.8-1.3-.6-.9-.5-.9.8 0 1.2 1.1 2 .8 4.7-1.8 1.8-1.7 3-3.6 2.7-4.2-.3-.8-.5-.8-.5.1-.1.7-.5 1.1-1.1.7-1-.6 2-4.4 3.1-3.9.4.2.6-1.2.4-3.1-.1-1.9.1-3.2.6-3 1.6 1.1 1.8-2.9.2-4.7-1.1-1.2-1.3-2.2-.7-2.6 1.9-1.3 2.5-4.2.8-4.2-1 0-1.3-.8-1-2.5.3-1.4.1-2.3-.5-2-.5.4-.9-.1-.9-.9 0-.9.5-1.6 1-1.6.6 0 1-.7 1-1.6 0-.8-.5-1.2-1-.9-1 .6-1.4-1.3-1.3-6.3 0-1.5-.6-2.2-2.1-2.3-1.8-.1-1.8-.2-.3-.6 1.4-.4 1.6-.8.6-1.9-.6-.8-.9-1.4-.6-1.4.3 0 .1-1.6-.3-3.5-.5-2.1-.4-3.5.2-3.5.5 0 .7-.9.3-2-1.1-3.5 1.3-14.6 2.8-13 .3.3 0 2.8-.6 5.7-1 4.7-.8 5.7 1.3 10.2 1.2 2.8 2.9 5.2 3.7 5.5.8.3 1.1 1 .8 1.6-.3.5-.2 1 .3 1s2.6 3.4 4.6 7.5c2 4.1 4 7.5 4.4 7.5.4 0 1.6 1.5 2.7 3.2 1 1.8 2.6 4 3.5 4.8 1 .8 2.4 2.8 3.3 4.5 1.8 3.6 8.3 11 6.8 7.9-1-2.1-.6-3.4 1.1-3.4.5 0 .7.4.4.8-.2.4-.1 1.4.5 2.2.7 1.2.9 1.1.9-.5-.1-1.9-3.2-6.5-4.4-6.5-.3 0-.6.7-.6 1.5s.5 1.5 1.1 1.5c.5 0 .7.5.3 1.1-.3.6-1.4-.2-2.5-2-2.1-3.5-2.5-5.6-.7-4.5.7.4.8.3.4-.5-.4-.6-1.2-.9-1.7-.6-.5.4-.9-.3-.9-1.4 0-1.2-.4-2.1-1-2.1-.5 0-1-.7-1-1.5 0-2 1.9-1.9 2.7.1.3.9 1.9 3 3.5 4.7 3.9 4.2 8.4 10.7 9.2 13.3.4 1.2 1.8 3.4 3.2 5 2.1 2.5 2 1.8-1.2-4.1-2-3.9-4.7-8.4-5.9-10-4.1-5.4-12.5-14-11.9-12.3.3 1 .2 1.8-.2 1.7-.5 0-2.6-3.6-4.8-8-2.1-4.3-4.2-7.9-4.7-7.9s-.9-.6-.9-1.3c0-.8-.7-2.9-1.6-4.7-1.2-2.4-1.9-2.9-2.5-1.9-.7 1.2-.9 1.1-1-.1-.1-.8-.1-1.9 0-2.4.1-.4-.2-1.3-.7-2-1.2-1.4-2.6-7.3-2.5-10.6.1-6.1.4-7 2.4-8.1 1.6-.8 2.3-.8 2.9.1.5.8 1 .9 1.4.2.3-.6 0-1.3-.6-1.6-.8-.4-.9-.8-.3-1.1.6-.3.9-2.2.8-4.2-.1-2.1-.2-4.6-.2-5.6-.1-.9-.7-1.7-1.4-1.7-.8 0-1.4-1.5-1.5-3.7-.2-2.1-.5-3.9-.7-4.1-.7-.7 2.5-6.2 3.5-6.2.5 0 .7.7.4 1.5-.4.8-.1 1.5.5 1.5s1.1 1 1.1 2.2c0 1.2.3 1.8.6 1.5.4-.3 1.5.5 2.6 1.8 2.1 2.7 4.8 3.3 4.8 1.1 0-.8 1.6-1.6 4-2 2.3-.3 3.8-1.1 3.5-1.6-.4-.6-1.5-.6-3.1 0-1.4.6-3 .7-3.6.4-1.3-.8 3.6-5.4 5.8-5.4 1 0 1.4-.5 1.1-1.4-.7-1.8.9-2.4 8.6-3.1 3.4-.4 8.8-1.6 12-2.7l5.9-2.1 2.3 2.9c1.3 1.6 2.7 2.6 3.1 2.2.4-.4.1-1.4-.6-2.3-1.5-1.9-.9-2.8 1.3-1.9 2.2.8 3.1 4.2 1.7 5.9-.7.8-.8 1.5-.3 1.5s.7 1.6.5 3.5c-.4 3.5-1.6 4.5-2.6 2.2-.3-.6-.3.4 0 2.3.3 2.2 0 4.2-.9 5.5-1.3 1.7-1.3 2.4 0 5.7.8 2.1 1.3 4.4 1 5.2-.3.8 0 2 .8 2.6.8.6 1.1 1.8.8 2.6-.3.7.2 1.6 1 2 .9.3 1.4 1.1 1.1 1.9-.5 1.3 2.1 4.5 3.6 4.5.5 0 .7.6.5 1.2-.7 1.9 2.1 5.1 3.6 4.2.9-.5 1-.2.6 1-.4 1-.7 2.2-.7 2.7 0 .4-.7.6-1.5.3-.8-.4-1.5-.1-1.5.6 0 .6-.4.8-1 .5-.5-.3-1-.1-1 .5 0 .7-.7.9-1.6.6-.8-.3-1.2-.2-.9.4.3.6-.1 1-.9 1-1 0-1.3.6-1 1.5.4.8.2 1.5-.4 1.5-.6 0-1.3-.6-1.5-1.3-.3-.6-.6.5-.6 2.5-.1 2.1-.5 3.8-1.1 3.8-.5 0-.7-.8-.3-1.8 1.1-3.2-.5-.8-2.1 3.2-1.4 3.3-1.4 3.7-.1 3.2.9-.3 1.5 0 1.5 1 0 .8-.4 1.3-.8 1-2.3-1.4-3.8 7.1-1.8 10.3.6 1 .5 1.2-.2.7-.7-.4-1.2-.1-1.2.9 0 .9.5 1.3 1 1 .6-.3 1 .3 1 1.4 0 1.2.4 2.1.8 2.1.5 0 1.4 2.9 2.1 6.5.7 3.5 1.9 6.9 2.6 7.5.8.6 1.2 1.7.9 2.4-.3.7.1 2.6.7 4.2 1.2 2.9 1.5 3.8 1.7 6.1.1.7.9 1 1.7.7.9-.4 1.5 0 1.5.9 0 1-.6 1.3-2.1 1-1.9-.5-2-.4-.9 1.7 1 1.8.9 2.4-.1 3.1-.7.4-1.7.5-2.1.3-.4-.3-.8 0-.8.6 0 .7.7 1 1.5.6.8-.3 1.5 0 1.6.7 0 .7.4.3.9-.8s.9-1.4.9-.8c.1.8.9.5 2.1-.7 2.8-2.8 1.9-9.1-1.2-8.5-1.2.3-1.8-.1-1.5-.8.2-.7 1-1.2 1.8-1.2 1.7 0 1.4-5.2-.4-7.4-.7-.8-1.1-1.5-.9-1.5.2-.1-.1-1.4-.7-2.9-.6-1.6-1.6-2.5-2.1-2.2-.6.4-.8 1.1-.5 1.6.4.5.1.9-.5.9-1.3 0-.3-4.3 1.1-4.8 1.3-.5-.9-4.2-2.5-4.2-.8 0-1.6-.9-1.9-1.9-.3-1.4-.1-1.8.9-1.4.8.3 1.1 1 .7 1.6-.3.6-.1.7.5.3.9-.5.9-1.3.2-2.7-.6-1.1-1.5-1.7-2.1-1.4-.5.4-.9.1-.9-.4 0-.6.4-1.1.9-1.1.4 0 .4-1.7-.2-3.8-2.1-7.8 4.8-21.2 10.9-21.2 1.2 0 2.5-.7 2.8-1.6.4-.9.9-1.4 1.3-1.1.3.4 1.4.2 2.4-.4 2.3-1.2 2.5-4.9.3-4.9-.8 0-1.2-.5-.9-1 .3-.6.1-1-.5-1s-.8-.5-.5-1c.3-.6-.1-1-.9-1-.9 0-1.5-.3-1.5-.8.4-2.2-.3-3.4-1.5-2.9-1 .4-1.3 0-1.1-1.5.3-1.4-.2-2.2-1.5-2.5-2.2-.6-2.7-2.3-.7-2.3.6 0 .4-.5-.7-1.1-1.5-.9-1.6-1.3-.5-2 1-.6 1.1-.9.2-.9-.7 0-1.3-.9-1.3-1.9 0-1.1-.5-2.3-1-2.6-.6-.4-.7-1.1-.4-1.7.4-.6.1-1.4-.7-1.8-1-.7-1-1.1 0-2.4.7-.9 1.1-2.7.9-4.1-.3-1.4-.1-2.5.3-2.5.5 0 .9-.5.9-1.1 0-.5-.6-.7-1.2-.4-.7.4-.6.1.3-.7.8-.7 1.8-2.2 2.2-3.2.7-1.8.8-1.8 2.9.3 1.6 1.8 2.2 2 2.9.9.7-1 .9-1 .9 0 0 .7.4 1 1 .7.6-.4.7.1.3 1.1-.5 1.3-.2 1.5 1.5 1 2.7-.9 6.4 2.6 5.6 5.1-.5 1.4-.4 1.5.4.4s1.1-.9 1.7.8c.3 1.1.3 2.5 0 3.1-.3.5.1 1 .9 1 1.8 0 3.2 4.3 2 6.1-.4.8-.3.9.4.5.9-.5 1.2 1.1 1.2 5.6 0 3.5.4 6.7.8 7.3 1.2 1.7 6.8 3.3 8.5 2.4 1-.6 2.5 0 4.8 2.1 1.9 1.6 4 3 4.7 3 1.5 0 1.5.4-.3 7.4-.9 3.3-1.3 6.1-1.1 6.3.3.3.1 1.5-.3 2.7-1.3 3.3.4 6.6 3.4 6.6 1.4 0 2.5.5 2.5 1.1 0 .5.4.8.9.5.5-.3 1.1.4 1.4 1.6.4 1.5-.1 2.7-1.9 4-3.4 2.7-1.8 5.7 2.7 5l3.1-.5-.7 4.2c-1.2 7.1-1.2 9.1-.3 8.5.5-.4.8.4.6 1.6-.2 1.3.2 2.5.9 2.7 1.6.6 2.7-3.5 1.4-5.1-.6-.7-1-4.2-.9-7.7l.3-6.4-3 .3-3 .4 2.3-2.4c1.2-1.4 2.2-3.3 2.2-4.5 0-2.7-3.1-5.3-6.2-5.3-3.6 0-3.9-2.4-1.8-12.1l1.9-8.2-4-4c-3.5-3.6-4.5-4.1-8.9-4.2-2.8-.1-5.5-.6-6-1.1-.6-.6-1.2-4.3-1.5-8.2-.2-4-1-8.2-1.7-9.4-.7-1.3-1.3-2.5-1.3-2.8-.1-.3-.7-1.8-1.3-3.3-.7-1.6-1.2-3.4-1.2-4.1 0-1.8-1.9-3.2-5.3-4-4.5-1.1-9.5-6.2-8.9-9.1.3-2 .1-2.4-1.7-2-1.2.2-1.9 0-1.6-.6.6-.8-.8-1.3-2.8-1-.4 0-.6-.2-.6-.6.3-2-.2-2.9-1.8-3-1-.1-3.2-.2-4.8-.4-1.7-.1-4.1.1-5.4.6-1.3.4-2.1.3-1.8-.1.3-.5-.7-1-2.1-1.1-1.5 0-2.9.3-3.2.8-.3.5-2.6 1.1-4.9 1.4-2.4.3-4.8.8-5.2 1.1-.5.3-.9 0-.9-.7s-.6-.5-1.3.6c-1.1 1.4-1.6 1.5-2.2.5-.5-.9-.9-.9-1.5-.1-.4.7-1.7 1.3-2.8 1.4-1.2.1-2.2.4-2.2.7 0 .3-1.2.6-2.6.7-1.4 0-3.1.7-3.8 1.3-.8 1-.8 1.1.4.5 1.3-.8 1.3-.7.1.8-1.9 2.4-4.5 2.1-6.1-.7-1.1-2.2-1-3.2.9-7.8 4.2-10.3 12.4-19.8 17.2-19.8 1.6 0 2.9-.4 2.9-.9s-1.6-.9-3.6-.8c-3.1.1-4.4 1-8.8 5.9C105.3 53 100 62.3 100 65.7c0 1.1-.8 1.9-1.9 2-2.3.2-1.8-2.4.7-4.5.9-.6 1.3-1.2.9-1.2-1.6 0 6.6-13 11.9-19 2.9-3.3 6.4-10.5 6.9-14 .2-1.6.6-3.4.9-3.9.8-1.3-3.2-10.1-4.7-10.2-.7 0-.3-.4.8-.9s1.5-.9 1-.9c-.6-.1-.9-1.5-.7-3.4.5-4.4-1.3-8.7-3.6-8.7-1 0-2.1.2-2.3.4zm-1.1 4c-.7.8-1.5 1.2-1.7 1.1-.5-.6 1-2.5 2-2.5.5 0 .4.6-.3 1.4zm2.4 4.6c.4 2.3.1 3-.9 2.6-.8-.4-1.1-.1-.8.5.7 1-3.8 5.9-5.3 5.9-.4 0-1.3 1.4-1.9 3.1-.7 1.8-1.7 2.8-2.3 2.4-.6-.3-1-.3-.9.2.1.4-.1 1.6-.6 2.6-.5 1.3-1 1.5-1.5.7s-.9-.7-1.3.4c-.4 1-.1 1.6.9 1.6 1.4 0 1.4.2 0 1.6-.9.8-1.6 2.1-1.7 2.7 0 .7-.4.3-.9-.8s-.9-1.4-.9-.7c-.1.7-.5 1.1-.9.8-.5-.3-.9.1-.9.9s.4 1.2.9.9c.4-.3.8-.1.8.5 0 .5-.5 1.3-1 1.6-.6.4-.7 1.1-.4 1.7.5.7.2.8-.6.3-1-.6-1.2-.4-.7.8.3.9.3 1.6-.1 1.4-.4-.1-1.7.8-2.9 2C86 45 85.4 46 85.8 46c.4 0 1.3-.5 2-1.2s1.2-.8 1.2-.3c0 1.3-3.2 4.5-4.5 4.5-.7 0-1.1 1.1-1 2.5.2 1.4-.1 2.5-.6 2.5s-.9.9-.9 2.1c0 1.3-.4 1.8-1.2 1.3-.8-.5-.9-.2-.5 1 .4 1 .3 1.5-.3 1.1-.7-.5-3.7 3.5-3.2 4.2.8 1.2-.1 2.1-1.5 1.6-1.1-.4-1.4-.3-.9.5.4.7.2 1.2-.3 1.2-.6 0-1.2 1.2-1.2 2.7-.1 1.7-.3 2.1-.6 1-.7-2.6-2.1-2.1-1.6.6.3 1.4-.2 2.9-1.1 3.6-.9.8-1.6 2.2-1.6 3.2 0 1.1-.4 1.9-1 1.9-1.5 0-1.2-2.6.4-3.9 1.6-1.4 2.7-4.9 1.7-5.5-.4-.3-1.3.9-2 2.5-1.3 3.1-2.7 3.7-3.4 1.6-.2-.6-.2-.2 0 1.1.3 2.1-.1 3-3.4 6.6-.7.8-2.1 3.1-3.2 5.2-1.2 2.2-3.2 5.2-4.6 6.8-1.4 1.6-2.5 3.2-2.5 3.5 0 .3-1.8 2.6-4 5.1-2.6 2.8-4 3.8-4 2.8 0-.9.5-2 1-2.3.6-.4.7-1.2.3-1.8-1.6-2.6 1-11.9 3.6-12.9.5-.1 1.1-1.4 1.3-2.8.4-3 2.8-5.8 4.6-5.2.6.2 1.2 0 1.2-.6s-.5-1.2-1.2-1.4c-.8-.3-.5-1.1 1-2.3 2.5-2.2 2.9-4 .7-3.1-.8.3-1.5 0-1.5-.6s-.6-.5-1.7.3c-1.5 1.3-1.5 1.2-.2-1.1 2-3.4 3.6-5 5.1-5 1.1 0 1.1-.2 0-.9-1.1-.6-.8-1.3 1.2-2.9 1.4-1.1 2.6-2.5 2.6-3.1 0-.6.5-1.1 1.1-1.1.5 0 .8-.4.5-.9-.3-.5.1-1.2 1-1.5.8-.3 1.2-.2.9.3-.3.5 0 1.3.7 1.7.7.4 1 .4.6-.1-.4-.4-.3-1.7.3-2.8.6-1 .7-1.7.2-1.4-.5.4-1 0-1-.8s.3-1.3.6-1.1c.3.2 1.2-.2 1.9-1 1-1 1-1.4.1-1.4-.7 0-.9-.3-.5-.8 1.4-1.3 3.1-.8 3.7 1.3.4 1.4.7.7 1-2.2.2-2.3.1-3.9-.3-3.7-2.9 1.8 1.6-5 8-12.1.9-1.1 2.8-3.7 4.1-5.8 2.1-3.5 3.2-4.6 3-3-.1.5-.1 1.5 0 2.3.1 1.2.4 1.1 1.2-.3.8-1.3.7-2.2-.1-3.3-1.1-1.3-.7-1.8 1.3-1.5.4 0 .7-.5.7-1.2 0-1.6 4.7-3.7 6.8-3 1.4.5 1.5.3.5-.7-1-1.1-.8-1.7.9-3.2 1.2-1 3-1.9 4.2-2 1.2 0 2.6-.2 3.2-.2.6-.1 2.2-.9 3.5-1.8 1.3-.9 2.5-1.7 2.5-1.7.1-.1.4 1.3.6 2.9zm-.2 8.5c-2.7 7-12.4 22.7-13.5 21.7-.5-.4-.5-.2-.2.4.4.7-2.5 5.3-6.4 10.3-7.2 9.3-9.7 11.7-6.1 5.8C90.3 47.9 95 39.4 95 38.4c0-.6.9-2.2 2.1-3.5 1.1-1.3 3.5-5 5.2-8.1 2.2-3.9 3.8-5.8 5.1-5.8 1.1 0 1.6-.3 1.3-.7-.4-.3 0-1.5 1-2.5 2.2-2.4 2.4-2.3 1.3.7zM67.1 42.1c-.6 1.3-3.1 4.6-5.6 7.4-6 6.4-2.5-.8 3.9-8.2 2.3-2.8 3-2.4 1.7.8zm-11 15.2c-1 .9-1.1.8-.5-.6.3-1 .9-1.5 1.2-1.2.3.3 0 1.1-.7 1.8zm26 6c-1 .9-1.1.8-.5-.6.3-1 .9-1.5 1.2-1.2.3.3 0 1.1-.7 1.8zm-30.8 4.2c-.3.9-.8 1.4-1 1.1-.3-.3-.2-.9.2-1.5.9-1.6 1.5-1.3.8.4zM97 72.6c0 .8-.4 1.4-1 1.4-.5 0-1 .8-1 1.8 0 2.2-.9 3.4-2.1 2.7-.4-.3 0-2.3.8-4.5 1.5-3.7 3.3-4.5 3.3-1.4zm-21 2.8c0 .8-.7 1.6-1.5 2-1.3.4-1.4.2-.5-1.4 1.3-2.3 2-2.6 2-.6zm83.4-.6c.2.4-.4.8-1.4.8-1 0-1.6-.4-1.4-.8.3-.4.9-.8 1.4-.8.5 0 1.1.4 1.4.8zM49 78.9c0 .5-.6 1.4-1.4 2-1.2 1-1.3.8-.9-.8.5-2.1 2.3-3 2.3-1.2zm15.7 4.2c-.9.6-1.7 1.7-1.7 2.5s-.9 2.2-1.9 3.1c-1.1.9-1.8 2-1.5 2.5.3.4-.2 1.5-1.1 2.4-1.4 1.5-1.5 1.4-1.1-1 .2-1.4 1.4-3.5 2.5-4.8 1.2-1.2 2.1-2.6 2.1-3.1 0-1.2 3.3-3.7 4-3 .3.2-.3.9-1.3 1.4zm106.8-.1c.3.5.1 1-.4 1-.6 0-1.1-.5-1.1-1 0-.6.2-1 .4-1 .3 0 .8.4 1.1 1zm-80.9 3.2c-.1.7-.5 1.9-1 2.6-.4.7-.5 1.9-.2 2.7.3.8.1 1.7-.4 2-.6.4-1-.3-1-1.5s-.4-1.8-1-1.5c-.5.3-.2-.8.8-2.4 1.7-3.2 3.2-4.1 2.8-1.9zm59.7 5.3c-.3.9-.8 1.4-1 1.1-.3-.3-.2-.9.2-1.5.9-1.6 1.5-1.3.8.4zm-56.6 1.7c-.1 2.6-2.7 6-2.7 3.6s1.2-5.8 2.1-5.8c.4 0 .7 1 .6 2.2zm-40.6 7.1c-1.4 1.5-2.1 1.7-2.1.8 0-1.8 3.4-5.1 3.9-3.9.2.6-.6 2-1.8 3.1zM87.5 98c.3.5-.1 1-.9 1-.9 0-1.6-.5-1.6-1 0-.6.4-1 .9-1 .6 0 1.3.4 1.6 1zm-1.2 5.8c-.3 1.2-1 2.2-1.5 2.2s-.7-.3-.5-.8c.2-.4.7-1.6 1.1-2.6.9-2.5 1.7-1.6.9 1.2zm3.8 1.5c-1 .9-1.1.8-.5-.6.3-1 .9-1.5 1.2-1.2.3.3 0 1.1-.7 1.8zm-42.1 2c0 1.2-3.9 4.2-4.6 3.5-.5-.6 2.9-4.8 3.9-4.8.4 0 .7.6.7 1.3zm37 .7c0 .5-.2 1-.4 1-.3 0-.8-.5-1.1-1-.3-.6-.1-1 .4-1 .6 0 1.1.4 1.1 1zm-51.3 5c.1 1.1-.2 2-.8 2-.5 0-.9-.9-.9-2s.4-2 .8-2 .8.9.9 2zm69.1 24.5c-.3.3-.9-.2-1.2-1.2-.6-1.4-.5-1.5.5-.6.7.7 1 1.5.7 1.8zm4.6 7.4c-.6.7-2.6-1.2-3.4-3.3-1.3-3.6.2-4.1 2-.5.9 1.9 1.5 3.6 1.4 3.8zM93 159.6c0 .8-1.9 1.3-2.4.6-.3-.5.1-.9.9-.9s1.5.2 1.5.3zm63.6 16c-.1 3.2-2 2.5-2.3-.9-.1-1.8.2-2.4 1.2-2.1.7.3 1.2 1.6 1.1 3zm2.1 11.6c-.3.8-.6.5-.6-.6-.1-1.1.2-1.7.5-1.3.3.3.4 1.2.1 1.9z"/><path d="M89.5 20.7c-.3 1-.2 1.9.3 2.1.6.2.7 1.3.4 2.5-.3 1.2-.2 1.9.1 1.6.4-.3.9-2.2 1.2-4.2.6-3.8-.7-5.1-2-2zm-2 7.4c-.9 1.4-.2 2 1.4 1 .8-.6.9-1.1.3-1.5-.6-.3-1.4-.1-1.7.5zM82 30.6c0 2.1 1.7 2.5 2.2.6.3-1.1 0-1.9-.8-1.9s-1.4.6-1.4 1.3zM80.5 34c-.3.5.1 1 1 1s1.3-.5 1-1c-.3-.6-.8-1-1-1-.2 0-.7.4-1 1zM78 35.9c0 .6.4 1.3 1 1.6.6.3.7-.1.4-.9-.7-1.8-1.4-2.1-1.4-.7zm9.5 3.1c-.3.5-.1 1 .4 1 .6 0 1.1-.5 1.1-1 0-.6-.2-1-.4-1-.3 0-.8.4-1.1 1zm-13.1 1.2c.3 1 .1 1.8-.4 1.8-.6 0-1 .7-1 1.6 0 1.4.1 1.4 1.6 0 1.2-1.2 1.3-2 .4-3.3-1.1-1.7-1.1-1.7-.6-.1zm3.6 6.3c-1.1 1.3-1 1.4.4.9.9-.3 1.6-1 1.6-1.5 0-1.3-.6-1.1-2 .6zm-7 11.4c0 .5.7 1.1 1.5 1.5.8.3 1.5.1 1.5-.3 0-.5-.7-1.1-1.5-1.5-.8-.3-1.5-.1-1.5.3zM57 67c-.8.9-2.2 2.4-2.9 3.4-1.3 1.6-1.3 1.7.5 1.4 2.2-.4 4.7-3.3 4.2-5.1-.2-.9-.7-.8-1.8.3zm13.5-1.1c-.3.5-.1 1.2.4 1.5.5.3 1.1-.1 1.5-.9.6-1.6-.9-2.1-1.9-.6zM187 117.1c0 .5.5.7 1 .4.6-.3 1-.8 1-1.1 0-.2-.4-.4-1-.4-.5 0-1 .5-1 1.1zM52 126c0 .5.5 1 1.1 1 .5 0 .7-.5.4-1-.3-.6-.8-1-1.1-1-.2 0-.4.4-.4 1zm73.6 42.9c-.3.5.1 1.1.9 1.4.9.4 1.2.1.8-.9-.6-1.6-1-1.7-1.7-.5zm74.7 2.3c-.4.7-1.7 1.8-2.8 2.4-1.1.6-2.3 2.2-2.6 3.5-.5 1.7-.7 1.9-.8.6-.1-1-.6-1.5-1.2-1.1-.6.3-.8 1.6-.5 2.8.5 2 .4 2-.9.2-2.3-3.1-4.4-1.3-4.2 3.4.2 2.3 0 4.3-.4 4.6-1.5.9-.6 9.2 1.7 16.3 2.6 7.9 6.4 16.4 7.6 16.9.4.2.4 1 .1 1.8-.3.8.1 1.4.8 1.4.7 0 .9.3.6.7-.9.9 2.3 4.4 3.4 3.7.5-.3.6.1.3.9s.3 2 1.2 2.8c1.3 1 1.8 1.1 2.1.2.2-.6 1.5-.9 2.9-.7 2.9.5 3.2-1.2.4-2.1-1.1-.3-2-1.3-2-2 0-.8-1.1-2.2-2.4-3-2.1-1.4-6.3-9.9-5.8-11.8.1-.4-.2-.7-.8-.7-.5 0-1.2-1.6-1.6-3.5-.3-1.9-1-3.5-1.4-3.5-.5 0-1.2-.9-1.5-2-.4-1.2-1.6-2-2.8-2.1-2.1 0-2.1-.1-.2-.9 1.1-.5 1.5-.9.9-.9-1.7-.1-1.6-8.9.2-12.6.9-1.9 2.7-4.1 4-5 1.3-.8 2.4-2.2 2.4-3 0-.8.5-1.5 1-1.5.6 0 1-.4 1-1 0-.5-.8-.7-1.7-.4-1 .3-.7-.1.7-.9 1.4-.9 2.7-1.4 3-1.2.3.2.7-.5.7-1.6.2-2.2-.3-2.4-1.4-.7zm-72.5 5.3c-.3 1.6-.1 2.2.6 1.8.6-.3.5 0-.1.8-1.7 1.8-1.6 2.9.2 2.9.8 0 1.5.6 1.6 1.2.2 2.5-.3 6.3-1.1 7.8-.5.9-.5 2.2 0 3 1 1.8.1 7-1.2 7-.5 0-.6-.6-.2-1.3.5-.7.1-.6-1 .3-1.7 1.4-1.7 1.5.5 2.4 1.6.8 2.4.7 2.7-.2.2-.7.9-1.8 1.5-2.5.7-.6 1.3-2.3 1.4-3.7.3-2.5.3-2.5-.7-.3-.5 1.3-1.2 2.3-1.4 2.3-.6 0 2.4-10.3 3.2-11.2.4-.3 2.3.2 4.2 1.2 2.7 1.5 3 1.9 1.5 2-1.3.1-.8.5 1.5 1.4 4.2 1.5 4.8 1.2 2.6-1-1.4-1.3-1.4-1.9-.4-3.2 1-1.2 1-1.4.1-.8-.7.4-1.3.2-1.3-.3 0-.6-.6-1.1-1.2-1.1-1.9 0-10.8-7.9-10.8-9.6 0-2.4-1.7-1.6-2.2 1.1zm21.7 10.5c.3.5 1 1 1.6 1 .5 0 .9-.5.9-1 0-.6-.7-1-1.6-1-.8 0-1.2.4-.9 1zm-3 5c.4.6 1.1.8 1.6.5 1.4-.9 1.1-1.5-.7-1.5-.8 0-1.2.5-.9 1zm-44.9 6.4c-4.2 1.9-5.1 2.9-6.8 7.2-1 2.7-1.9 6.7-2 8.9 0 3.4.5 4.4 4.1 7.5 3.9 3.4 4 3.7 2.9 6.3-.9 1.8-2.1 2.7-3.7 2.7-1.3 0-4 1.4-6.2 3.1-2.1 1.6-4.4 2.9-5.1 2.8-3-.4-4.5.3-7.8 3.4-1.9 1.8-6.2 5.5-9.4 8.2-7.9 6.6-14.9 13.6-14.2 14.2.2.3 0 1.7-.6 3.2-.5 1.4-1.2 3.9-1.5 5.6-.5 3.3-3.4 8.5-5.8 10.5s-5.5 9.8-6.1 15.6c-.5 3.5-1.1 5.1-1.8 4.7-.6-.3-.8-.3-.4.1.8.9-1.1 6.6-2.2 6.6-1.6 0-6.2 8.5-6.6 12-.2 2.1-1.5 6.4-2.9 9.5-1.4 3.1-2.2 6.2-1.8 6.9.4.6.6 2.1.5 3.2-.2 1.2.4 2.4 1.3 2.8.9.3 1.4 1 1 1.5-.3.5-.1 1.2.5 1.6.5.3 1 .2 1-.4 0-.5.3-1.8.6-2.8.4-1.1.3-1.4-.3-.7-.6.9-1.1.8-2.1-.2-1.1-1.2-.9-1.4.8-1.4 1.1 0 2-.3 2.1-.8.4-3.4 1.2-6.8 1.9-8.2.6-1.1.5-2.1-.2-2.8-.9-.9-.9-1.2.1-1.2.7 0 1-.4.7-.9-.4-.5-.1-1.1.5-1.3 1.3-.4 4.1-8.8 3-8.8-.4 0-1.3.6-2 1.2-1.1 1.1-1.1.9-.1-.8.8-1.2 2-1.9 3-1.7 2.2.6 4.9-2.5 3.1-3.7-.9-.5-1-1-.2-1.4.6-.4 1.1-.2 1.1.4 0 .6.5.8 1 .5.6-.4.8-1.6.5-2.8-.5-1.7-.4-1.9.4-.7s1.1 1.1 1.6-.5c.4-1.1 1.1-2.8 1.6-3.7.5-1 .6-2.4.3-3.1-.3-.8.2-1.7 1.1-2.1.9-.3 1.3-1 1-1.6-1-1.6.5-5.1 1.8-4.3.7.4.5-.2-.3-1.2-1.4-1.7-1.3-1.8.4-1.2 1.4.6 1.7.4 1.2-.8-.3-.8-.1-1.5.5-1.5.5 0 .7-1.1.3-2.4-.4-1.6-.1-2.5 1-2.9.9-.4 1.6-1.7 1.6-3.1 0-1.4.7-3.1 1.5-4 .8-.8 1.5-2 1.5-2.7 0-.9.4-.8 1.5.1 1 .8 1.5.9 1.5.2 0-.6-.6-1.5-1.3-1.9-1-.6-.9-1.2.5-2.6 1.2-1.1 1.8-1.3 1.6-.5-.2.7.1 1.4.7 1.5.5.1 1.2 1 1.6 2 .7 1.6.8 1.5.8-.5.1-1.9.3-2.1 2.1-1 2.5 1.6 3.7.4 1.6-1.7-.9-.9-1.6-1.2-1.6-.7 0 1.3-3 1.1-3.2-.2-.4-3.2-.2-9.3.4-9 .4.2.9 0 1.3-.6s1.2-.7 1.8-.4c.7.4.9.4.5 0-.3-.4.7-2 2.4-3.6 1.6-1.6 2.7-3.3 2.4-3.8-.3-.6.2-1.6 1.1-2.3 1.3-1.1 1.5-1.1.9-.1s-.1 1.1 2.1.7c4.4-1 8.3-2.7 8.3-3.6 0-.5-.7-.6-1.5-.3-.8.4-1.5.1-1.5-.5s2-1.6 4.4-2.3c3.7-1 4.2-1.5 3.8-3.2-.5-1.9-.4-2 1.2-.7 1.3 1.1 1.9 1.2 2.9.2.9-1 .8-1.1-.8-.6-1.6.6-1.7.5-.5-.4.8-.6 1.1-1.1.6-1.1-.5 0-.3-.7.4-1.5 1.4-1.7 4-2 4-.5 0 .5-.3.9-.7.9-3-.5-3.7.2-2 1.8 1.6 1.6 1.9 1.6 3 .2.7-.8 2-1.8 3-2.2.9-.3 1.7-1.4 1.8-2.4 0-1 .6-.2 1.3 1.7.8 2.4.9 3.9.2 4.9-.7.9-1.2.9-1.4.2-.4-1.3-5.2-1.5-5.2-.2s2.6 2 5.5 1.5c1.7-.3 2.4-.1 2 .6-.3.5-1.3 1-2.1 1-1.3 0-1.3.2.1 1.7 1.4 1.4 1.8 1.4 2.6.2.7-1.1.9-1.1.9.3 0 .9.5 2.9 1.2 4.5.6 1.5 1.3 3.7 1.5 4.8.4 2.5 2.4 6.6 4.1 8.3 2 2.2 1.4 3.7-2 5.5-1.8.9-4.1 2.2-5 2.9-1.4 1-2.4.9-5.4-.5-4.4-2.1-5.8-1.3-8.6 5-1 2.3-2.3 4.5-2.8 4.8-.6.3-1 1.4-1 2.4 0 .9-1.7 3.5-3.7 5.7-3.9 4.1-5.9 8-2.9 5.4.9-.7 1.6-.8 1.6-.2 0 .5.7 1.3 1.6 1.6.8.3 1.3.2 1-.3-1.6-2.5 10.9-2.9 17.4-.6 2.3.8 4.7 1.5 5.2 1.5s.6-2.1.2-4.8c-.5-4.4-.4-4.8 2.3-6.3 1.5-.9 3.4-1.5 4.1-1.3.7.1.8 0 .2-.3-1.4-.7-.2-2.3 1.6-2.3.8 0 1.2.4.9 1-.3.6.1.7.9.4 1.8-.7 2 .4.6 4.1-.5 1.4-.6 2.4-.1 2.1.5-.3 1.1.1 1.5.9.3.9 0 1.5-.9 1.5-.8 0-1.6.6-1.7 1.2 0 .7-.2 1.7-.2 2.3-.1.5-.5 1.5-.9 2.2-1.1 1.7 2.4 3.3 7.3 3.3 4.8 0 7 1.7 5.9 4.5-.8 2-.8 2-.9 0-.1-1.8-.2-1.7-1.1.4-.7 1.7-.6 2.7.2 3.2 1.8 1.1 3.9-.1 3.9-2.2 0-1.1.5-2.8 1.2-3.9 1.6-2.6 1.1-2.9-5.8-3.8l-5.9-.8.3-3.4c.4-5.7 2.3-10.1 4.6-11 2-.8 1.9-.9-.6-.9-4-.1-5.8-1.1-5.8-3.3 0-2.3-1.7-2-9.3 1.8-7.8 3.9-9 4.9-7.5 6.6 2.9 3.1 2 3.7-5 3.2-9.3-.8-9.9-1-7.8-3.2.9-1 1.6-2.4 1.6-3 0-2.8 3.5-8.2 5.2-8.2 1.2 0 1.6-.4 1.2-1.2-.4-.7-.3-.8.4-.4s.9 1.8.6 3.2c-.4 1.5-.2 2.4.6 2.4.6 0 .8-.5.5-1-.4-.6.6-1 2.2-1 1.9 0 2.4-.3 1.5-.9-1.1-.7-1.1-.9.2-1.4.8-.3 1.8-.1 2.2.5.5.7 1 .3 1.6-1.1.4-1.2 1.2-2 1.8-1.6.5.3 1.8-.3 3-1.5 1.1-1.1 2.8-2 3.8-2s1.9-.7 1.9-1.5-.6-1.5-1.3-1.5c-.7 0-1.6-.5-2-1.2-.4-.7-.3-.8.4-.4s1.2.2 1.2-.3c0-.6-.6-1.1-1.2-1.1-1 0-1-.2 0-.9 1-.6.9-1-.7-1.4-2.1-.5-2.3-1.5-2.5-8.7 0-1.4-1-3.3-2.1-4.2-1.2-1.1-1.5-1.7-.7-1.8.9 0 1-.5.3-1.8-.8-1.4-.6-1.9.5-1.9.8 0 1.3.6 1 1.4-.3.7 0 1.3.8 1.3.7 0 1.3-.8 1.4-1.8.1-2.1-1.9-6.3-2.7-5.7-.4.2-.8-.5-.8-1.6-.1-1 .2-1.9.8-1.9.5 0 .9.5.9 1.1 0 .5.5.7 1.2.3.8-.5.6-1-.8-1.7-2.1-.9-5.1-7.3-4-8.4 1-1-1.5-3.3-3.5-3.3-1.1 0-1.9-.5-1.9-1 0-.6.5-1 1.1-1 .5 0 .8-.4.5-.9-.3-.5-1.5-.7-2.6-.4-1.8.5-1.9.2-1.2-1.8 1.2-3.6.9-5.3-1.1-5.7-1.4-.3-1.6 0-.8 2.1.7 1.9.6 2.9-.5 3.7-1.5 1.4-1.7 1-1.5-3.5.4-7.6 4.4-12.4 10.3-12.5 2.8 0 3.8.5 4.3 2 .3 1.1 1 2 1.4 2 .5 0 .9 2.4.9 5.4 0 4.3.8 7.2 4.1 14.1 2.2 4.7 4.1 9.1 4.1 9.6s.9 2.8 2 4.9c1.1 2.2 1.8 4 1.5 4-.2 0 .9 2.3 2.6 5.2 2.1 3.6 2.9 6 2.6 7.8-.5 2.2-.2 2.6 1.8 2.5 1.3 0 2.7-.4 3.2-.9s.1-.7-1-.3c-1 .4-1.6.3-1.2-.3.6-.9 7.3-2.6 8.8-2.2.4.1.7-.3.7-1 0-.6.3-.9.6-.5.4.3 1.9 0 3.4-.8s3-1.1 3.4-.8c.3.4.6.1.6-.6s.5-.9 1-.6c1.3.8 1.3-2.1 0-4.5-1-1.8.3-3.9 1.3-2.3.3.5 3.3.7 6.8.6 3.5-.1 7.7.4 9.5 1.2 3.3 1.4 6.8.5 4.3-1.1-.8-.5-1.6-.9-1.9-1-.3 0-1.6-.4-3-.7-1.4-.4-5.2-.9-8.5-1.1-3.3-.2-8-.8-10.4-1.2-4.2-.7-4.3-.6-3.2 1.4 1.9 3.5 1.4 6.9-1.1 7.6-1.3.3-2.3.4-2.4.3 0-.1-.8.4-1.6 1-.8.7-2.7 1.4-4.2 1.5-1.4.1-2.6.7-2.6 1.2s-.3.6-.6.3c-.4-.4-.1-1.3.6-2.2 1.2-1.5.4-2.1-2.3-1.6-.5.1-.6-.3-.2-.9.3-.6 1.1-.7 1.7-.4.7.4.8.2.4-.4-.4-.7-1.4-1.2-2.2-1.2-.9 0-1.4-.7-1.2-1.8.1-.9-.1-2.3-.5-3-.5-.6-.5-1.2 0-1.2.4 0-.3-.7-1.6-1.6-1.7-1.2-2.1-2.2-1.7-4 .4-1.4.1-2.6-.7-3.1-2.7-1.6-9-16.6-8.9-20.8.3-5.6-1.4-10-4.9-13-3.7-3-5-3.1-11.3-.1zm-33.1 54.3c-.2 1-.4 1.9-.4 2.1-.1.2-.6 0-1.1-.3-.8-.5-.7-1.1.1-2.1 1.5-1.8 1.8-1.8 1.4.3zm-40.2 84.8c.4.8.2 1.7-.3 2-.6.4-1-.3-1-1.4 0-2.5.6-2.7 1.3-.6z"/><path d="M124.5 204c-.3.5-.3 1 .1 1s-.1.6-1.1 1.4c-1.7 1.2-1.7 1.6-.5 3.1s1.4 1.5 2.2 0c1.4-2.4 1.8-5.4.8-6-.5-.3-1.1-.1-1.5.5zm-4.8 4.7c-1.1 1.1-.8 2 .7 2 .8 0 1.2-.6.9-1.4-.6-1.5-.7-1.5-1.6-.6zm-9.2 5.2c-.3.5-.1 1.2.5 1.6.5.3 1-.1 1-.9 0-1.8-.6-2.1-1.5-.7zm.3 10.8c-1.9.5-2.3 2-.9 4.1.6 1 1.1.6 1.9-1.7.6-1.7 1-3 .9-3-.1.1-1 .3-1.9.6zm391 3.3c1.8 2.1 1.4 3.2-.8 2-1.2-.6-2-.7-2-.1 0 .5.6 1.2 1.3 1.4.6.3.3.6-.8.7-2.7.1-6.1 3.1-7 6.1-.4 1.3-2.2 4.9-4 7.9-1.7 3.1-3.5 6.9-3.9 8.5-.9 3.5-4.5 12.2-9.2 22-1.8 3.8-3.6 8.6-4 10.5-.3 1.9-1.7 5.5-2.9 8s-2.5 5.7-2.9 7.2c-.3 1.5-2 5-3.6 7.8s-3.5 7.2-4.1 9.8c-.7 2.6-1.8 5.8-2.4 7.2-.7 1.4-1.5 3.9-1.8 5.5-.6 3.2-4.7 13.7-12.6 31.8-4.9 11.3-8.9 23.5-11.2 33.7-.6 3-1.6 6.6-2.2 8-.6 1.4-1 2.8-.9 3.2.1.5-.2.8-.8.8-.5 0-1 .6-1 1.3 0 .7-.9 2.9-2 5-1.1 2-2 3.9-2 4.2 0 .3 0 .6-.1.7 0 .2-.2 1.2-.4 2.3-.2 1.1-1.3 4.7-2.5 8-2.1 5.6-2.1 6.1-.5 9 .9 1.6 1 2.3.3 1.5-.7-.8-2-1.6-2.8-1.8-1.2-.3-1.2-.1-.3.9.9.9.7 1.6-.8 3.2-2.2 2.4-2.5 3.9-.6 3.1.8-.3 1.4.1 1.4.9 0 .9-.7 1.2-1.9.9-1-.2-1.8.1-1.8.7 0 .7.5.9 1 .6.6-.3 1-.2 1 .4 0 .5-.5 1.1-1.1 1.3-1.4.5-2.1 6.8-.8 6.8.8 0 1.3-1.5 1-3.3 0-.4.3-.7.9-.7 1.4 0 1.3.2-1.5 7.2-1.4 3.4-2.5 6.7-2.5 7.5 0 1.6-1.2 1.7-3 0-.8-.6-.7-.3.3.9 2.1 2.5 2.2 3.4.2 3.4-.8 0-1.5.5-1.5 1.1 0 .5.4.8.9.4.5-.3 1.2-.1 1.6.5.3.5-.1 1-1.1 1-1.2 0-1.5.6-1.1 2.1.4 1.5.2 1.8-.7 1-.8-.7-1.5-.4-2.4.9-.9 1.5-.9 1.8.1 1.4.8-.3 1.4.2 1.4 1 0 .9-.6 1.2-1.6.8-.9-.3-1.3-.2-.9.3.4.4 0 1.5-.9 2.3-1.1 1.2-1.2 1.7-.4 2 .8.3.5.9-.8 1.9-2.3 1.6-2.8 4.9-.8 5.6.7.3.4.6-.7.6-1.6.1-1.8.7-1.3 4.3.5 3.7.5 3.9-.5 1.8l-1-2.5-.9 2.9c-.4 1.6-.6 3.4-.2 3.9.3.5 0 1.3-.7 1.7-.7.4-.9 1.3-.5 2 .5.8 1.2.7 2.6-.6 1.5-1.3 1.9-1.4 1.9-.3 0 .8.7.1 1.5-1.5 1.9-3.5 1.9-4.6.1-2.1-.9 1.3-1.9 1.6-3.2 1.1-1.8-.7-1.7-.9.4-1.7 1.3-.5 2.6-1.8 2.9-3 .3-1.2 1.1-1.8 1.9-1.5 1 .4 1.4-.4 1.4-3 0-1.9.4-3.3.9-2.9 1.1.6 2.5-3.1 1.6-4.4-.3-.6.3-1.4 1.2-2 1.4-.9 1.5-1.2.5-1.9-1.1-.7-1-1 .3-1.6.9-.3 1.3-1.1 1-1.7-.4-.5.1-1.7 1.1-2.4 1.5-1.1 1.6-1.4.4-1.5-1.3 0-1.3-.2-.1-.9.8-.5 1.6-1.7 1.7-2.6.1-.9 1.3-3.7 2.5-6.3 1.2-2.6 2.4-6.3 2.6-8.2.2-1.9 1-5.3 1.7-7.5.8-2.2 1.9-6 2.6-8.5.7-2.5 1.6-5.3 2.1-6.2.5-1 .9-2.8.9-4.1 0-1.3.3-2.7.7-3.1.7-.7 1.2-2.5 1.6-6.8.1-1.4.5-2.4.9-2.2.6.4 2.9-5.3 2.7-7 0-.5.4-1.2.9-1.5.6-.4 1.3-2 1.6-3.6.2-1.7.5-3.2.6-3.5.1-.3.2-.8.1-1.2 0-.5.3-.8.8-.8s1.7-2.9 2.7-6.5c1-3.6 2.2-6.5 2.6-6.5.5 0 .8-.9.8-1.9 0-1.1.5-2.3 1-2.6.6-.3 1-1.7 1-2.9 0-1.3.6-2.9 1.4-3.5 1.8-1.5 2.6-6 1.3-6.8-.6-.4-.5-1 .4-1.7 2.2-1.7 3.9-7.3 2.3-7.3-.7 0-1.1.3-.9.7.2.3 0 1.2-.5 1.9-.5 1-1 .4-1.5-1.9-.5-2.4-.3-3.6 1-4.9 1-.9 1.5-1.1 1.1-.4-.3.6-.1 1.5.5 1.9.8.5 1-.1.7-2-.3-1.4-.2-2.6.2-2.6.5 0 .6-.8.3-1.8-.2-1 .7-4.7 2.1-8.2 1.4-3.5 2.6-7 2.6-7.7 0-.8.5-1.1 1.2-.7.7.5.9.2.5-.9-.3-.9 0-1.8.9-2.1.8-.3 1.4-.1 1.4.5s.5.7 1 .4c.6-.3 1-1.4 1-2.3 0-1.4-.2-1.5-1-.2-1.4 2.2-2.1-.7-1.2-5 .6-2.6 1.4-3.6 3-3.8 1.2-.2 2.2-.7 2.2-1.2s-.7-.7-1.5-.4c-1.8.7-1.9.1-.1-5.7 2-6.5 4.5-11.1 5.7-10.4.5.4.7 1.1.4 1.6-.4.5-.8 1.9-1 3.1-.3 1.2-1 2.5-1.7 2.9-1 .7-1 1.1.1 2.1.8.7 1.1.8.8.2-.4-.7 0-1.7.8-2.4s1.5-1.9 1.5-2.7c0-.7.7-1.6 1.5-1.9.8-.4 1.2-1 .9-1.5-.3-.6 0-1.6.6-2.4.7-.8.9-1.5.6-1.5-.4 0-.2-.9.4-2 .8-1.6.8-2-.2-1.8-1.6.4-1.4-5.5.2-6 .5-.2 1.3-2.1 1.6-4.3.4-2.1 1-3.9 1.4-3.9.3 0 .7-1.3.7-2.8 0-1.6 1.6-6.2 3.7-10.3 4.2-8.5 7.1-13.5 6-10.4-1.3 3.8-1.3 7.5.1 7.5.8 0 1.2.8 1 2-.6 3 1.4 3.4 2.5.5 1.2-3.2 1.2-3.8.2-3.1-.4.2-1.4.1-2.2-.5-1.2-.7-1.2-.9.3-.9 1.9 0 4.1-1.8 4.4-3.5.1-.6.5-1.8.8-2.8.4-.9.3-1.7-.3-1.7-1 0-2.5 3.2-2.7 5.4 0 .7-4.5 1.8-4.5 1.1 0-.1.9-1.2 2-2.5 1.1-1.2 1.7-2.6 1.5-3-.3-.5.1-1.1.7-1.3 1-.4 1-.6.1-.6-.7-.1-1.3-.6-1.3-1.3 0-.6.3-.9.6-.5 1 1 4.1-2.7 3.2-3.9-.5-.7-.2-1.6.7-2.4 1.3-1 1.5-.9 1.5.8 0 1.2.5 2.4 1.1 2.7.6.4.9.1.8-.6-.1-.8.8-3.7 2-6.4 1.2-2.8 2.3-5.5 2.4-6 .1-.6.5-1.2.8-1.5.4-.3 1.6-2.5 2.8-4.9l2.3-4.3 5.4.5c3.1.3 5.2.1 4.8-.4-.8-1.4.2-1.1 3.9 1.1 1.9 1.1 5.5 2.1 8.1 2.2 2.5.1 4.6.6 4.6 1.1 0 .4.4.6.9.3s3.1-.1 5.7.5c2.7.6 5.7 1.1 6.7 1.2.9.1 1.7.5 1.7.9s.8.8 1.8.8 2.3.5 3 1.2c.6.6 2.5 1.1 4.2 1 2.1 0 3 .4 3.1 1.6 0 1 .3 1.2.5.5.4-.8 1.1-.7 2.4.5 3.9 3.6 5 4.2 7.2 4.3 1.7.1 1.8.3.6.6-1 .2-1.8.8-1.8 1.3s.7.6 1.7.3c1.1-.4 1.4-.3.9.5-.4.7-.3 1.2.3 1.2.5 0 1.2-.6 1.4-1.3.3-.6.6.1.7 1.8.1 2.6.3 2.7 1 1l.9-2v2c.1 1.3.4 1.6.9.8.8-1.3 5.2-1.4 5.2-.1 0 .4.5.8 1.2.8 1.4 0-1.9-3.8-4.6-5.2-1.4-.7-1.7-.7-1.1.2.6.9.3.9-1.3.1-1.2-.6-2.4-1.7-2.8-2.4-.5-.7-.1-.7 1 .2 1.6 1.3 1.6 1.2.5-1.2-.8-1.8-2-2.7-3.6-2.7-1.4 0-2.3-.6-2.3-1.6 0-.8-.5-1.2-1.1-.9-.6.4-1.6-.1-2.3-1.1-.8-1-2.6-1.9-4.2-2.1-1.6-.3-3-.8-3.2-1.4-.2-.5-.8-.9-1.4-.9-.5 0-2.2-.8-3.6-1.8-4.4-3-18-6.3-16.6-4 .5.8.2.9-1 .5-1-.4-2.2-.7-2.7-.7s-.9-.7-.9-1.5-.6-1.2-1.4-.9c-.8.3-1.7 0-2.1-.5-.3-.6-1-.9-1.5-.6-.5.3-2 .1-3.4-.5-4-1.5-16.4-2.2-17.1-1-.5.8-1.2.7-2.3-.2-1.4-1-1.5-1-.4.2zm-.8 8.5c0 .8-.6 1.5-1.4 1.5-2 0-2.9-1.7-1.4-2.3 2.2-.9 2.8-.7 2.8.8zm-4.4 6.3c-.4.3-1.2 0-1.9-.8-.9-1-.9-1.1.1-.6.7.5 1.2.1 1.3-1.1.1-1.7.2-1.7.6 0 .3 1 .2 2.1-.1 2.5zm-1 2.8c-.3.9-.6 1.8-.6 2 0 .2-.8.4-1.7.4-1.7-.1-1.7-.1 0-1.1.9-.6 1.5-1.4 1.2-2-.4-.5-.1-.9.5-.9.7 0 .9.7.6 1.6zm-5 3c-.3.8-.2 1.2.4.9.5-.3 1.4.4 2 1.6.9 1.5.9 1.9.1 1.5-1.8-1.2-5.1.4-5.1 2.3 0 1-.7 2.4-1.5 3.1-.8.7-1.5 1.9-1.5 2.8 0 .8-.3 1.3-.6.9-.8-.8 1.4-7.2 3.8-11.4 2.1-3.4 3.5-4.5 2.4-1.7zm80.1 0c-.3.3-1.2.4-1.9.1-.8-.3-.5-.6.6-.6 1.1-.1 1.7.2 1.3.5zm-103 57.8c-.7 1.4-1.6 2.1-2.1 1.6s-.2-1.5.5-2.4c2.1-2.3 2.9-1.9 1.6.8zm-25 63.8c-.3.8-.6.5-.6-.6-.1-1.1.2-1.7.5-1.3.3.3.4 1.2.1 1.9zm-.4 2.1c.7-.4.4.5-.6 2-1.5 2.3-1.5 2.7-.2 2.7.8 0 1.5.4 1.5 1 0 .5-.5 1-1.1 1-.5 0-.8.4-.5.9.3.5-.1 1.2-1 1.5-.9.4-1.4 1.3-1 2.2.3.8.2 1.2-.4.9-.6-.3-1.1 0-1.1.7-.1.7-.2 1.9-.3 2.7-.1 1.7-2.6 2.8-2.6 1.1 0-.6.5-.8 1-.5.6.3 1 .2 1-.4 0-.5-.4-1.1-.9-1.3-.5-.2-.7-1.5-.4-3 .3-1.6 1-2.5 1.6-2.1.5.3.7.1.4-.4-.4-.6.1-3.5 1-6.4 1-3.2 1.8-4.7 2.1-3.6.2 1 .8 1.4 1.5 1zM433 403c0 .5-.4 1-1 1-.5 0-1-.5-1-1 0-.6.5-1 1-1 .6 0 1 .4 1 1zm-31.7 90.5c-.9 1.5-1.1 1.5-2.3 0-1.1-1.3-1-1.5.4-.9 1 .4 1.6.1 1.6-.7 0-.7.3-1 .6-.6.3.3.2 1.3-.3 2.2zM207.8 233.4c-2 .9-2.5 1.5-1.8 2.6.8 1.2 1 1.2 1 .1 0-.9.8-1.2 2.5-.9 1.4.3 2.5.1 2.5-.6s.3-.8.8-.1c1 1.5 6.1 1.3 6.7-.3.3-.7 0-1-.5-.7-.6.3-1 0-1-.7 0-1-.2-1-.9.1-.6.8-1.4 1-2.2.5-2.1-1.3-4.1-1.3-7.1 0zm13.6 3.1c1 .8 2.3 1.2 2.9.8 1.1-.7-1.2-2.3-3.3-2.3-1.2.1-1.1.4.4 1.5zm4.6 1.5c0 .5.6 1 1.4 1 .8 0 2.3.3 3.3.6 1.6.6 1.6.5-.2-.9-2.3-1.9-4.5-2.2-4.5-.7zm-112.2 7c-2.1 2.1-2.3 2.7-1 2.6 1.5-.1 4.9-4.3 4-5.1-.2-.1-1.5 1-3 2.5zm116.2-2.6c0 .2.7.7 1.6 1 .8.3 1.2.2.9-.4-.6-1-2.5-1.4-2.5-.6zm15 1c0 .2.9.6 2 .9 1.1.3 2 .1 2-.4s-.9-.9-2-.9-2 .2-2 .4zm-48.4 2.1c.4.8.8 1.5 1 1.5.2 0 .4-.7.4-1.5s-.4-1.5-1-1.5c-.5 0-.7.7-.4 1.5zm-26.9 2.1c.3.7.9 1.4 1.4 1.4 1.4 0 1-1.7-.5-2.3-1-.4-1.3-.1-.9.9zm24.8 1.3c-.3.5-.2 1.2.3 1.5.5.3.9-.1.9-.9 0-1.7-.3-1.9-1.2-.6zm-80 1.1c.4.6.2 1.6-.4 2.3-.6.7-.6 1.8-.1 2.6.4.8.6 1.9.4 2.5-.3.7.5 1.2 1.6 1.3 1.2.1 2-.4 2-1.3 0-.8-.4-1.3-.9-1-.5.3-.9 0-.8-.7.1-3.9-.4-6.7-1.4-6.7-.5 0-.7.5-.4 1zm73.9.2c.3 1.1-.3 1.8-2 2.2-1.3.4-2.4 1.3-2.4 2.1 0 .9-.6 1.2-1.5.9-1.6-.6-4.5 1.2-4.5 2.7 0 .5.5.9 1.1.9.5 0 .8-.4.5-.9-.3-.5.1-1.2 1-1.5 2.3-.9 2.4-.8 1.8 1.1-.5 1.5-.4 1.6.5.3.6-.8 1.1-1.1 1.1-.6 0 .5.9.1 2.1-1 1.2-1 2.3-1.8 2.6-1.6.3.2.8 0 1.1-.4.4-.4.1-.4-.5 0-.7.4-1.3.3-1.3-.3 0-.5.5-1.1 1.2-1.3.8-.3.8-.9-.1-2.4-.9-1.3-1.1-1.4-.7-.2zm-23 .7c.8 1.2-.4 4.2-1.4 3.6-.4-.3-1 .4-1.3 1.5-.3 1 0 2.1.7 2.4.6.2.3.5-.6.5-1 .1-2.5 1.2-3.4 2.6-1.5 2.3-4.3 3.8-2.9 1.6.3-.5-.2-1.7-1.1-2.5-1.4-1.5-1.8-1.5-4.3.4-1.6 1-3.5 3.4-4.4 5.2-1 1.9-1.7 2.6-1.7 1.6 0-1.5-.3-1.6-3.2-.4-3.4 1.5-4.9 3.6-2.6 3.6.9.1.7.5-.5 1.4-1.5 1.2-1.5 1.5-.2 2.6.8.7 1.5 2 1.6 2.9 0 1.5.1 1.5.7 0 .9-2.1 5.2-.7 5.2 1.7 0 1-.5 1.4-1.4 1.1-1.2-.5-1.5.3-1.3 3.4.1 2.1.5 3.9.9 3.9s.8.8.8 1.7c0 1.5.2 1.6 1 .3.6-.9.5-1.7-.3-2.2-.9-.6-.9-1.3.2-3 .7-1.2 1.5-4.1 1.7-6.4.3-3.9.1-4.2-2.1-4-2.8.4-4.3-3-1.6-3.9.9-.3 3.1-1.8 4.9-3.5 3.5-3.2 5.2-3.2 5.2.1 0 1 .5 1.9 1.1 1.9.5 0 .8.3.6.7-.3.5.1 1.4.9 2.1 1.1 1 1.5.9 2.3-.7.6-1 .7-2.1.3-2.5-.3-.4.1-.4 1-.1 1.4.6 1.6.2 1.2-2-.3-1.9.1-3.2 1.6-4.5 1.6-1.4 2-2.5 1.5-4.1-.6-1.7-.4-2.1.8-1.6 2.2.8 4.3-1.9 2.8-3.6-.6-.8-.8-1.7-.4-2 .3-.4-.1-.7-1.1-.7-.9 0-1.5.4-1.2.9zm2.6 3c0 .6-.4 1.3-1 1.6-.5.3-1-.1-1-.9 0-.9.5-1.6 1-1.6.6 0 1 .4 1 .9zm-48.3.5c-.4 1-.1 1.3.8.9.8-.3 1.2-.9.9-1.4-.7-1.2-1.1-1.1-1.7.5zm135.5.6c-1.6 2.6-1.5 3.3.3 2.6.9-.3 2 .3 2.7 1.4.7 1.1 1.9 2 2.6 2 .7 0 1 .4.7 1-.3.5.3 1 1.4 1 1.2 0 2.1.4 2.1 1 0 .5.6 1 1.4 1 .8 0 1.8.9 2.1 2 .4 1.1 1.1 1.8 1.6 1.5.5-.4.9-.1.9.5s.5.8 1 .5c1.3-.8 4.2 2 3.2 3-.4.5-.2.5.5.1 1.5-.8 2.9 1.4 1.5 2.3-.7.4-.8 1.2-.2 2.1.6.8 1 1.1 1 .6 0-.5 1.1.8 2.5 2.8 1.3 2 2.2 4.3 1.9 5.1-.4.8-.2 1.5.4 1.5.6 0 2 1.7 3.3 3.7 1.2 2.1 2.7 4.2 3.3 4.8 3 2.6 5.4 7.2 4.5 8.6-.5.7-.9 2.5-.9 3.8 0 2 .4 2.2 2.5 1.7 2-.5 2.5-.3 2.5 1.3 0 1.1.6 2.1 1.3 2.4.9.3.9.7-.2 2-.7 1-.9 1.7-.4 1.7s1.5 1.1 2.1 2.4c.8 1.9.7 2.9-.5 4.6-.9 1.3-1.1 2-.5 1.6.7-.4 1.2-.1 1.2.8 0 1 .6 1.3 1.5 1 1.1-.5 1.3-.2.9 1-.5 1.2-.2 1.5 1 1 2.1-.8 2 .5-.1 2.2-1.7 1.3-1.7 1.4 0 .8 1.9-.7 2.4 1.5.6 3.3-.8.8-.5 1.3 1 1.8 1.5.4 2.1 1.5 2.1 3.6 0 1.8.4 2.8 1 2.4.9-.6 1.5 2.2 1.1 5.4-.2.7.2 1 .7.7 1-.6 3 3.3 3.5 6.9.1 1.1.6 2.6 1.1 3.3.4.7.5 1.6.2 1.9-.3.3.5 1.4 1.7 2.5s1.6 1.7.9 1.3c-.9-.5-1.2.3-1 2.7.2 3.5 2.3 6.5 3.3 4.9.3-.6-.3-1.4-1.2-2-1-.6-1.3-1.1-.6-1.1 1.5 0 4.3 3.9 4.3 6.1 0 .9.6 1.9 1.4 2.2.8.3 1.9 3 2.5 5.9 1 4.5 2 6.1 6.6 10.4 3 2.9 5.5 5.7 5.5 6.4 0 .6.4.9.9.5.5-.3 1.6.3 2.3 1.3.7.9 2.4 2.5 3.8 3.4 1.4.9 5.2 4.2 8.5 7.2s8 6.6 10.5 7.8c4.9 2.5 10 7.1 10 9 0 .9.3.8 1-.2.8-1.2 1-1 1.1 1 .1 1.4.1 2.9 0 3.3-.1.5.4.5 1 .1.8-.5 1 .1.7 1.9-.3 1.5-.1 2.4.3 2.1 1.3-.8 1.1-3.8-.3-5.3-1.1-1.1-1-1.3.5-.8.9.4 1.7.2 1.7-.3 0-.6-.7-1-1.6-1-.8 0-1.2-.5-.9-1 .4-.7 1.2-.7 2.5 0 1 .5 2.1 1 2.5 1 1.1 0-3-3.7-4.7-4.3-1-.4-1.8-1.2-1.7-1.9 0-1 .2-1 .6-.1.6 1.6 3.3 1.7 3.3.2 0-2.5-2-4.7-4-4.2-1.1.3-2 .9-2 1.3s-.8 1.1-1.7 1.5c-1.4.5-1.5.4-.6-.6 1.5-1.5-.1-4.9-2.3-4.9-1.1 0-1.4-.6-1-1.6.3-.8.2-1.2-.4-.9-.6.3-1 .1-1-.6 0-1-.3-1-1.2 0-1 1.1-1 1.4 0 1.8.6.3 1.2 1.1 1.2 1.9 0 .8.5 1.4 1.2 1.4.6 0 .9.2.6.5-.6.6-6.6-2.3-7.4-3.7-.4-.6 0-1.4.7-1.9.7-.4 1-1.1.6-1.5-.3-.4-1.2-.2-2 .4-1.7 1.4-3.1.3-3.5-2.7-.2-2.4-4.2-7.2-4.2-5.1 0 1.8-2.7 1-5.4-1.6-1.4-1.5-2.6-2.3-2.6-1.9 0 1.3-8.9-8.8-12.8-14.5-2-3-4-5.7-4.3-6-1.1-.9-5.7-10.8-5.3-11.3.2-.2-.2-1.7-1-3.2-.8-1.6-1.2-3.3-.9-3.8.4-.6.1-.7-.7-.2-1 .6-1.2.4-.7-.9.5-1.1.3-1.5-.5-1-.7.5-.9 0-.6-1.4.4-1.2.2-2.5-.3-2.8-.5-.3-.7-1-.4-1.5.4-.5.2-.9-.4-.9-.5 0-1.4-2.3-2-5.2-.7-2.8-1.6-5.8-2.2-6.5-.6-.7-.9-2-.5-2.8.3-.9.2-1.4-.3-1.1-1.1.7-5.3-9.6-5.3-12.8 0-1.7-.5-2.3-1.4-1.9-.9.3-1.4-.2-1.4-1.7 0-1.2-.4-3-1-4-.5-1-1.4-4.3-1.8-7.2-.8-4.9-1-5.1-2-2.8l-1.1 2.5-.1-2.5c-.1-1.4-.4-3.6-.7-5-.2-1.4-.5-3-.7-3.5-.1-.6-.9-2.1-1.9-3.5-.9-1.3-1.7-3.2-1.7-4.2 0-.9-.9-2.2-2-2.8-1.1-.6-2-2-2-3 0-1.9-1-2.4-3.7-2.1-.7.1-1.3-.3-1.3-.9 0-.6.4-.9.9-.6 1.8 1.1.5-5.6-1.5-7.7-1.2-1.2-2.8-3.6-3.7-5.3-3.6-7-9.3-13-13.8-14.4-2.4-.7-4.8-1.7-5.3-2.2-1.8-1.5-5.1-.8-6.4 1.2zm13.8 4.1c1.9 1.2 4.2 3 5 4.1.8 1.1 2.5 3.2 3.8 4.8 3.4 4.2 2.6 4.6-1.7.9-5.5-4.8-8.2-6.9-11.8-9.1-1.8-1.1-3.3-2.2-3.3-2.4 0-1.2 5-.1 8 1.7zm15.5 18.9c1 1.1 1.3 2 .7 2-.6 0-1.6-.9-2.2-2-.6-1.1-.9-2-.7-2 .2 0 1.2.9 2.2 2zm9.3 18.5c-.3.3-.9-.2-1.2-1.2-.6-1.4-.5-1.5.5-.6.7.7 1 1.5.7 1.8zM296 307c0 1.1-.4 2-.8 2s-.8-.9-.9-2c-.1-1.1.2-2 .8-2 .5 0 .9.9.9 2zm7 18c0 .5-.2 1-.4 1-.3 0-.8-.5-1.1-1-.3-.6-.1-1 .4-1 .6 0 1.1.4 1.1 1zm76.8 99.5c-.3.3-.9-.2-1.2-1.2-.6-1.4-.5-1.5.5-.6.7.7 1 1.5.7 1.8zM247 256c0 .5.5 1 1 1 .6 0 1-.5 1-1 0-.6-.4-1-1-1-.5 0-1 .4-1 1zm-78.4 3.5c-.3.8-.3 1.5 0 1.5s1.2-.7 2-1.5c1.3-1.3 1.3-1.5.1-1.5-.8 0-1.7.7-2.1 1.5z"/><path d="M553 258.8c0 .6.5 1.4 1 1.7.6.4.8 1.4.5 2.3-.3 1.1.3 2.2 1.6 3 1.2.8 1.8.9 1.5.3-.4-.5-.2-1.2.3-1.5.5-.3.7-1.5.4-2.6-.3-1.2-.8-1.8-1.1-1.5-.3.3-1.4-.2-2.4-1.2-1-.9-1.8-1.1-1.8-.5zm3.7 5.4c-.3.8-.6.5-.6-.6-.1-1.1.2-1.7.5-1.3.3.3.4 1.2.1 1.9zm25.8-5.2c-.5.8 3.2 4 4.7 4 .5 0 .8-.8.8-1.8 0-1.4-.2-1.5-1-.2-.9 1.3-1.4.8-1.2-1.2.2-1-2.7-1.8-3.3-.8zm-92.8.7c-1.2 1.1-.8 2.3.8 2.3.8 0 1.5-.7 1.5-1.5 0-1.6-1.2-2-2.3-.8zm-312.1 1.8c-.3.8-.1 1.5.4 1.5.6 0 1-.7 1-1.5s-.2-1.5-.4-1.5-.6.7-1 1.5zm-4.6.5c0 .6.7 1 1.5 1s1.5-.2 1.5-.4-.7-.6-1.5-1c-.8-.3-1.5-.1-1.5.4zm416 1.1c0 1.2.4 1.7 1.1 1.4.6-.4.9 0 .7 1.1-.2 1.4.3 1.8 2 1.7 1.2-.2 2.2.2 2.2.9 0 .6.3.9.6.5.4-.3-1-2.2-3-4.1-3.1-3.1-3.6-3.3-3.6-1.5zm-347.4-.4c-1.1.3-2.6 1.1-3.4 1.9-.7.8-1.8 1.2-2.3.9-.5-.4-.9-.1-.9.5 0 .7.8.9 2.1.5 2-.7 2.1-.7.2 1.2-1 1.1-2.2 1.8-2.7 1.5-.5-.3-.6 0-.2.7.4.6.2 1.9-.6 2.8-1.1 1.4-1.1 1.6.1.8 1.1-.6 1.2-.5.5.6-1.5 2.4-1.2 6.2.6 8.1 1.5 1.7 1.8 1.7 2.3.4.4-.9.1-1.5-.6-1.3-.7.1-1.2-1-1.3-2.6-.1-1.5.3-2.7.8-2.7s.7-.4.4-.9c-.9-1.4.4-4.1 2-4.1.8 0 1.4-.7 1.4-1.6 0-.9 1.4-2.9 3.1-4.5 3-2.8 2.7-3.2-1.5-2.2zm260.2 1c-1 .2-1.8 1.1-1.8 1.9 0 1.3.2 1.3 1.6 0 .8-.9 2-1.3 2.6-1 .7.4.8.2.4-.4-.4-.7-.8-1.1-.9-1.1-.1.1-1 .3-1.9.6zm19.7.3c.3.5.1 1-.4 1-.6 0-1.1.8-1.1 1.7 0 1.5-.2 1.6-1 .3s-1-1.2-1 .4c0 1.3.5 1.7 2 1.3 1.7-.4 1.9-.1 1.4 2.1-.5 2.7-.5 2.7.8.4.8-1.2 1.7-1.9 2.1-1.6.4.4.7-.2.7-1.4 0-1.1.3-2.7.6-3.6.5-1.2 0-1.6-2.1-1.6-1.5 0-2.4.4-2 1zm2.5 1.5c0 .8-.7 1.5-1.5 1.5-1.3 0-1.4-.3-.3-1.5 1.6-1.8 1.8-1.8 1.8 0zm62.2.1c1 1 2 1.6 2.2 1.3.3-.3-.5-1.1-1.7-1.8-2.1-1.3-2.1-1.2-.5.5zm-516.7 5.3c-.3.6-1.4 1.1-2.4 1.1s-1.8.7-1.8 1.5.9 1.5 2 1.5 1.7.5 1.4 1.3c-.3.7.3 1.3 1.3 1.3 1.5 0 1.6-.4.9-1.8-.5-1-1.7-1.8-2.6-1.8-.9 0-1.4-.3-1-.6.9-1 5.9.5 5.2 1.6-.3.5-.1 1.1.5 1.5.5.3 1-.2 1-1.3 0-2.4-3.5-5.8-4.5-4.3zm528.5 2.2c0 .5.5.7 1 .4.6-.3 1-.8 1-1.1 0-.2-.4-.4-1-.4-.5 0-1 .5-1 1.1zm3.3-.4c.4.6.2 1.3-.5 1.5-.8.3-.6.6.4 1 1.7.7 1.9-1.5.3-2.9-.4-.4-.5-.3-.2.4zm-120.2 2.2c-.8.5-.9 1.1-.3 1.5.5.3 1.2-.1 1.6-.9.6-1.7.6-1.8-1.3-.6zm66 .7c0 1.1.3 1.4.6.6.3-.7.2-1.6-.1-1.9-.3-.4-.6.2-.5 1.3zm2.9.9c-.7.9-1.1 1.7-.9 2 .3.2 1-.5 1.7-1.5 1.4-2.4 1-2.6-.8-.5zm-32.5 1.5c-.3.5-.1 1 .4 1 .6 0 1.1-.5 1.1-1 0-.6-.2-1-.4-1-.3 0-.8.4-1.1 1zm-33.9 1.4c.4 1.2 0 1.6-1.7 1.7-1.8.1-1.9.3-.6.6.9.2 1.5 1 1.1 1.6-.3.7.2.3 1-.7 1.9-2.3 2-3.2.6-4.1-.6-.3-.7.1-.4.9zm-414 1.1c.4.8.8 1.5 1 1.5.2 0 .4-.7.4-1.5s-.4-1.5-1-1.5c-.5 0-.7.7-.4 1.5zM556 280c0 .5.5 1 1.1 1 .5 0 .7-.5.4-1-.3-.6-.8-1-1.1-1-.2 0-.4.4-.4 1zm49.5-.3c1.1.3 2.5 1 3 1.6.6.7 1.9 1.3 3 1.4 1.8.2 1.8.1-.2-.9-1.3-.6-2.3-1.5-2.3-2 0-.4-1.2-.7-2.7-.7-2.1.1-2.3.2-.8.6zm-528 1.4c-.4.6-.5 1.2-.2 1.5.2.3.7-.2 1-1.1.7-1.7.1-2-.8-.4zm-4.1 1.7c.3 1.8 1.8 2 2.4.4.1-.5-.4-1.2-1.2-1.5-.9-.4-1.3 0-1.2 1.1zm437.6-.7c0 .5.5.7 1 .4.6-.3 1-.8 1-1.1 0-.2-.4-.4-1-.4-.5 0-1 .5-1 1.1zm50 0c0 .5.5.7 1 .4.6-.3 1-.8 1-1.1 0-.2-.4-.4-1-.4-.5 0-1 .5-1 1.1zm-85.1 1.2c0 .7-.2 2-.4 3-.5 2.4 1.6 1.6 2.6-1 .5-1.5.3-2.3-.7-2.7-.8-.3-1.4 0-1.5.7zm-229.4 1.5c-.5.4-1 2.4-1 4.4-.1 2.7.4 3.8 1.7 4.1 1.4.4 1.6.1.9-1.1-.4-1-.6-3.2-.4-5 .4-3.4.4-3.6-1.2-2.4zm267.6 1c-1.7 3.1-1.3 4 .5 1.4.9-1.3 1.4-2.6 1.1-2.9-.3-.2-1 .4-1.6 1.5zm51.5-.9c-.3.5.1 1.1.9 1.5.8.3 1.5.1 1.5-.4 0-1.3-1.8-2.2-2.4-1.1zm46 .6c-.3.9 0 1.2.8.9.8-.3 1.7-.1 2.1.5.3.6.1 1.1-.5 1.1s-.8.5-.4 1.1c.9 1.5 2.4-.9 1.7-2.7-.7-1.9-3.1-2.5-3.7-.9zm-534.3 1c0 1.8 1.9 1.5 2.5-.3.2-.7-.3-1.2-1-1.2-.8 0-1.5.7-1.5 1.5zm158.6.2c-1.3 1.6-1.2 1.7.4.4.9-.7 1.7-1.5 1.7-1.7 0-.8-.8-.3-2.1 1.3zm272.3.3c-1.8 2.9-1.5 3.8.4 1.2.9-1.3 1.4-2.5 1.2-2.7-.2-.2-.9.5-1.6 1.5zm-217.1.6c0 1.1.3 1.4.6.6.3-.7.2-1.6-.1-1.9-.3-.4-.6.2-.5 1.3zm182.5 3.6c.3.5 1 .6 1.5.3 1.3-.9 1.1-1.2-.6-1.2-.8 0-1.2.4-.9.9zm3.7 1.3c-.9 1-1 1.6-.2 2.1.6.3 1.5 0 2-.7 1.8-2.9.4-4-1.8-1.4zm32.2-.5c-.3.6.1.7.9.4 1.8-.7 2.1-1.4.7-1.4-.6 0-1.3.4-1.6 1zm63.5-.1c0 .6.5 1.3 1 1.6.6.3 1-.1 1-.9 0-.9-.4-1.6-1-1.6-.5 0-1 .4-1 .9zm-430.6 1.8c.3.7.1 1.3-.4 1.3-1.5 0-1.2 2.6.5 4 1.1.9 1.5.9 1.5.1 0-.7.4-1 .9-.7.5.3 1.1 0 1.4-.7.4-1 2.1-1.3 5.6-1 4.5.2 5.1 0 5.1-1.7 0-1.6-.7-2-3.4-2-1.9 0-3.8.4-4.1 1-.9 1.5-4.5 1.2-4.5-.3 0-.8-.7-1.4-1.5-1.4-.9 0-1.4.6-1.1 1.4zm435.6.3c-1.3.8-1.2 1 .3 1 .9 0 1.7-.5 1.7-1 0-1.2-.1-1.2-2 0zm21.8-.3c.7.3 1.6.2 1.9-.1.4-.3-.2-.6-1.3-.5-1.1 0-1.4.3-.6.6zM472 295.2c0 .8.9 2.1 2 3.1 1.7 1.4 2 1.4 2 .2 0-.8-.7-1.5-1.6-1.5-.8 0-1.3-.4-.9-.9.3-.5.1-1.2-.5-1.6-.5-.3-1 0-1 .7zm-390 .3c0 1 2.9 2.4 3.4 1.7.3-.6-.3-1.2-1.4-1.5-1.1-.3-2-.4-2-.2zm499.4.9c.3 1.9 3.6 5.6 4.9 5.6.5 0-.2-.9-1.7-2.1-1.4-1.1-2.4-2.4-2.1-2.9.3-.5.1-1.1-.4-1.4-.5-.4-.8 0-.7.8zm43.1 1.6c-.3.5-.1 1 .4 1 .6 0 1.1-.5 1.1-1 0-.6-.2-1-.4-1-.3 0-.8.4-1.1 1zm-471.5.9c0 .5.6 1.2 1.3 1.4.7.4.6.6-.4.6-1.4.1-2.9 2-2.9 3.7 0 .2 1.8.2 4-.1 3.2-.4 4-.2 4 1.1 0 2-3.1 7.4-4.3 7.4-.4 0-2 .9-3.5 2-5.1 3.7-24.1 7.6-25.6 5.1-.9-1.4.6-2.1 2.1-.9 1.1.9 1.6.9 2.3-.2.6-.9.5-1.7-.2-2.1-.6-.4.2-1.4 2-2.3 3.5-1.8 4.6-2 3.7-.7-.3.5 0 1.3.6 1.6.5.4.8 1.3.5 2.1-.3.8 0 1.1 1 .7 1.7-.6 1.8-1.5.2-3.2-1.1-1-1-1.1.3-.6 1.2.5 1.6-.1 1.7-2.4 0-2.4-.3-2.9-1.6-2.4-.9.3-2.2 1-2.9 1.5-.8.6-1.6.3-2.5-1.1-.7-1.2-1.6-2.1-2-2.1-1 0-5.5 4.6-7.4 7.6-.9 1.3-2.7 2.7-4 3-1.8.5-2.3 1.1-1.9 2.8 1.5 7 2.7 11.2 3.5 12.1 1.2 1.5 6 14.9 6 16.8 0 .9.5 2.8 1.2 4.4.6 1.5 1.2 3.2 1.3 3.8 0 .5.5 1.9.9 3s1.5 3.8 2.3 6c2.4 6.2 10.2 23.7 11.8 26.5 6.1 10.8 7.3 13.8 10.1 23.9.8 3 2.1 6.8 2.8 8.5.7 1.7 2.6 6.5 4.1 10.6 1.6 4.1 3.7 9.4 4.7 11.7 1 2.3 1.8 4.7 1.8 5.3 0 .7 1.3 4.2 2.9 7.8 1.6 3.7 3.5 8.9 4.2 11.7.7 2.7 1.5 5.2 1.8 5.5.3.3 1.6 3.4 2.8 7 6.8 20.3 10.8 31.4 15.6 43 .6 1.4 1.1 2.9 1.3 3.5 1 4.2 8.6 19.5 9.7 19.5.5 0 .6.4.2.9-.3.5 0 1.5.7 2.3.7.7 2.8 4.3 4.5 8 4.4 9.1 13 22.1 19.2 28.8 2.7 3 5.7 6.3 6.6 7.3.9 1 2 1.6 2.3 1.2.4-.3.2-.9-.3-1.3-.6-.4-2.6-2.7-4.6-5.2-2-2.5-4.8-5.8-6.3-7.3-1.4-1.5-2.6-3.2-2.6-3.8 0-.5-1.1-2.2-2.5-3.7s-2.5-3.3-2.5-4.1c0-.8-.6-2.2-1.4-3-.7-.9-2.8-4.5-4.7-8.1-1.8-3.6-5.1-9.7-7.4-13.5-4.2-7.2-5.4-9.7-10-22-1.5-3.9-3.4-8.6-4.2-10.5-2.6-6.1-3.1-7.3-6.2-16.5-3.1-9.5-10-29-10.2-29 0 0-.2-.7-.4-1.6-.1-.9-1-3.2-1.8-5-1.8-4-1.9-4.3-6.7-17.9-5.3-14.9-7.4-20.4-8.1-21-.3-.3-.9-1.9-1.2-3.5-1-5.5-3.9-15-4.9-16.3-.8-.9-.7-2 .1-3.8.9-2.1.9-2.9-.3-3.8-.7-.6-1.7-1.8-2-2.6-.3-.8-.4-.5-.2.7.2 1.3 0 2.3-.5 2.3s-.9-.4-.9-1c0-.5-.8-1.9-1.7-3-1-1.1-1.8-2.4-1.8-2.8-.2-1.7-2-6.2-5.2-12.7-1.9-3.9-4.2-9.2-5-11.9-.8-2.7-2.1-6-3-7.2-.8-1.3-1.6-4.1-1.8-6.4-.1-2.3-.5-4.4-.9-4.7-.3-.4-.6-1.7-.6-2.9 0-1.3-.4-2.6-1-2.9-.5-.3-1-1.9-1-3.5 0-1.7-.7-3.3-1.7-3.9-1-.6-1.2-1.1-.5-1.1.6 0 1.2-.9 1.2-2.1 0-1.1.5-1.7 1-1.4.6.4.8 1 .5 1.5-.3.4.2 1.1 1 1.4 1.2.4 1.3.2.5-1.3-.8-1.6-.5-2 1.6-2.5 1.4-.4 2.9-.4 3.4-.1.6.4 1 .2 1-.3 0-1.6-3.1-2.3-4.6-1.1-1.1.9-1.4.8-1.4-.2 0-.9-.3-1-.8-.3-.4.6-2.2 1.1-3.9 1.2-3 .1-3.3-.2-3.3-2.9 0-1.6.6-2.9 1.3-3 .6 0 4.7-.1 8.9-.3 4.5-.1 8.3-.7 9-1.4.6-.6 2.2-1.2 3.5-1.2 3.5 0 8.5-2.9 14.5-8.3 1.1-1 2.1-1.7 2.2-1.5.8 1.1 3 7.4 2.8 8-.1.5.5.8 1.3.8s1.5.6 1.5 1.2c0 .9.3.9.9-.1.7-1.1 1.2-.7 2.4 1.6 2.6 4.9 5.7 13.6 5.2 14.4-.3.4.2 1 1.1 1.3 1.3.5 1.5 1.5 1.1 4.1-.3 2-.1 3.5.5 3.7.6.2 1.2 1.9 1.3 3.8.1 1.9.9 5.1 1.7 7.1 1.7 4 5.2 14.8 5.3 16.4 0 .5.2 1.2.5 1.5.5.4 6.6 19.1 9.1 27.6.5 1.7.9 4.5.9 6.2 0 1.8 1.4 5.8 3 8.9 1.7 3.1 3 6.4 3 7.3 0 1 1.3 5.4 2.9 9.8 2.1 6 2.6 8.4 1.7 9.3-.8.9-.8 1 0 .6s1.4.7 1.9 3.1c.3 2 1.2 4.6 1.9 5.7 2.7 4.3 6.6 17.4 8.6 29 .6 3.8 1.8 9.5 2.6 12.5s1.9 7.7 2.4 10.5c1.6 7.7 2 9.4 4.2 18 1.1 4.4 2.7 10.9 3.4 14.5.7 3.6 2.4 10.8 3.9 16 1.4 5.2 3.2 12.2 3.9 15.5 1.8 8.1 3.1 11.2 4 9.6.5-.7.3-2.4-.3-3.9s-1.5-4.5-2-6.7-1.9-7.3-3-11.3c-1.2-4-2.2-8.5-2.3-10-.1-1.5-.5-3.2-.8-3.7-.4-.6-1-3-1.3-5.5-.3-2.5-1.5-7.2-2.6-10.5-1-3.3-2.6-10.7-3.5-16.5-1-5.8-2.3-12.5-3.1-15-1.3-4.2-3.8-15.8-4.9-22.5-.9-5.6-2.5-11-4.1-14.2-1.3-2.5-1.4-3.7-.5-5.5 1.1-2.2 1-2.2-.4-.4-.9 1.1-1.6 1.6-1.7 1-.1-1.6-.7-3.6-3.9-12.9-1.7-5-3.1-10.4-3.3-12-.1-1.7-.6-3.3-1-3.6-.4-.3-1-1.8-1.3-3.4-.3-1.5-1.3-4.4-2.4-6.4-1-2.1-2.2-6.4-2.5-9.6-.4-3.3-1.3-7.6-2.1-9.7-.7-2.1-1.4-4.2-1.4-4.6-.2-1.5-1.2-5.8-1.7-7.2-.3-.8-.7-2-.9-2.5-.2-.6-2.4-6.9-4.8-14.2-2.5-7.2-4.8-14.8-5.2-16.8-.5-3.4-.4-3.6 1.4-2.6 2.8 1.5 3.7-2.2 1.1-4.5-1.7-1.6-1.9-1.6-1.9-.1 0 1-.4 1.7-1 1.7-.5 0-1-1-1-2.3 0-1.2-2.5-8.3-5.5-15.7-3.1-7.4-5.7-14-5.8-14.5-.1-.6-.6-1.3-1.2-1.7-.5-.4-1-2.9-1-5.5 0-3.9-.3-4.8-1.8-4.7-.9.1-1.7-.4-1.7-1.2 0-1.6-4.1-2.8-6.8-1.9-1.1.3-2.3.1-2.7-.5-.8-1.2-2.5-1.3-2.5-.1zm12 11.3c0 .4-.4.8-.9.8-.6 0-1.2-.4-1.5-.8-.3-.5.1-.9.9-.9s1.5.4 1.5.9zm-32.5 1.8c.3.5.1 1-.4 1-.6 0-1.1-.5-1.1-1 0-.6.2-1 .4-1 .3 0 .8.4 1.1 1zm113-13.1c-.3.5-.2 1.2.3 1.5.5.3.9-.1.9-.9 0-1.7-.3-1.9-1.2-.6zm-159.1 1.7c.3.9.6 1.9.6 2.4 0 .4.6 1 1.4 1.3 1.1.5 1.1.1-.1-2.4-1.5-3-3-4-1.9-1.3zM248 300c0 .5.5 1 1.1 1 .5 0 .7-.5.4-1-.3-.6-.8-1-1.1-1-.2 0-.4.4-.4 1zm377.7.7c-1 1-.8 2.3.4 2.3.5 0 .7-.5.3-1.2-.5-.8-.2-.9 1-.5 1 .4 1.5.3 1.1-.3-.7-1.2-1.9-1.3-2.8-.3zm-334.1 1.8c.4.8.8 1.5 1 1.5.2 0 .4-.7.4-1.5s-.4-1.5-1-1.5c-.5 0-.7.7-.4 1.5zm-44.6 1.2c0 1.6-.2 1.6-1.1.3-.9-1.3-1-1.3-.6 0 .2.8 1.3 1.6 2.5 1.8 2.4.4 2.5.2 1.6-2.2-.8-2.1-2.4-2-2.4.1zm341 .3c0 .5.7 1 1.6 1 .8 0 1.2-.5.9-1-.3-.6-1-1-1.6-1-.5 0-.9.4-.9 1zm-114.9 1.6c0 1.1.3 1.4.6.6.3-.7.2-1.6-.1-1.9-.3-.4-.6.2-.5 1.3zm156.5.3c-1 1-1.3 2.2-.8 2.5.5.3 1.4-.6 2-1.9 1.4-3 1.1-3.1-1.2-.6zm-433.9.2c.7.7 1.5 1 1.8.7.3-.3-.2-.9-1.2-1.2-1.4-.6-1.5-.5-.6.5z"/><path d="M151 307.8c0 1 .7 1.9 1.5 1.9s1.5-.2 1.5-.4c0-.3-.7-1.1-1.5-1.9-1.3-1.4-1.5-1.3-1.5.4zm2.8-1.1c.7.3 1.6.2 1.9-.1.4-.3-.2-.6-1.3-.5-1.1 0-1.4.3-.6.6zm438.2.3c0 .5.5 1 1 1 .6 0 1-.5 1-1 0-.6-.4-1-1-1-.5 0-1 .4-1 1zm-500.4 1.8c-.3.5.1.9.9.9s1.5-.4 1.5-.9c0-.4-.4-.8-.9-.8-.6 0-1.2.4-1.5.8zm412.2-.1c.7.3 1.6.2 1.9-.1.4-.3-.2-.6-1.3-.5-1.1 0-1.4.3-.6.6zm96.2 1.8c-.7.9-1.1 1.7-.9 2 .3.2 1-.5 1.7-1.5 1.4-2.4 1-2.6-.8-.5zm-114.8.4c-.8.5-1.2 1.6-1 2.4.2 1.1.7 1.4 1.6.8.8-.5 1.2-1.6 1-2.4-.2-1.1-.7-1.4-1.6-.8zm-332.4.8c.7.3 1.6.2 1.9-.1.4-.3-.2-.6-1.3-.5-1.1 0-1.4.3-.6.6zm97.7.3c-.4.6-1.1.8-1.6.5-.5-.4-.9-.2-.9.3s.9 1.2 1.9 1.5c1.5.3 1.9 0 1.8-1.4-.1-2.2-.3-2.3-1.2-.9zm-49.5 1.1c0 .6-.5.7-1.2.3-.7-.5-.9-.2-.5.9.4 1.2.2 1.4-1 1-1.1-.4-1.4-.2-1.1.8.3.8 1.2 1.3 2.2 1.1.9-.2 1.6.3 1.6 1 0 1.7 1.6-.2 2.4-2.8.4-1.5.2-2.4-.9-2.8-.8-.3-1.5-.1-1.5.5zm280.7.5c-.3.4-.1 1.6.4 2.7.6 1.1.7 2.2.3 2.6-1.6 1.1-1.4 3 .2 2.4 1.1-.4 1.4-1.3.9-3.2-.3-1.4-.6-3.2-.7-3.9-.2-1.4-.2-1.4-1.1-.6zm121.3 2.3c0 .5.5 1.3 1 1.6.6.3 1 .2 1-.4 0-.5-.4-1.3-1-1.6-.5-.3-1-.2-1 .4zm33.8 2.6c1 1.6 1.7 3.6 1.5 4.2-.3.7-.1 1.3.4 1.3s1-1.2 1.1-2.7c.1-1.4-.1-2.4-.4-2-.4.3-1.5-.4-2.6-1.6-2-2.2-2-2.2 0 .8zm-450.6.5c-.7 1.1-.8 2-.3 2 .9 0 2.4-3 1.8-3.6-.1-.2-.8.6-1.5 1.6zm65.1 0c.3 1.1.1 1.8-.4 1.4-.5-.3-.6.2-.3 1s1.1 1.3 1.8 1c1.5-.6.9-5.4-.6-5.4-.6 0-.8.9-.5 2zm-63.4 2.8c-.8 1.5-1.8 3-2.4 3.4-.6.5-.4.8.5.8s2.1-1.4 2.8-3.2c1.5-4 1-4.7-.9-1zm417.6-1.8c.4.6 1.1.8 1.6.5 1.4-.9 1.1-1.5-.7-1.5-.8 0-1.2.5-.9 1zm36.2 3c-1.1 4-.8 6 .9 6 .9 0 1.2.5.8 1.2-.5.9-.3.9.9-.1 1.9-1.5 1.3-3.3-.8-2.4-2.1.7-1.9-1.4.3-2.6.9-.6 1.2-1.1.5-1.1-.6 0-1.3-.8-1.5-1.8-.3-1.3-.5-1.1-1.1.8zm-548-.3c-.2.4-.7 2.1-1.1 3.8-.4 1.6-1.4 4.3-2.1 6-2.8 6.2-9.3 24.4-12.5 34.5-1.8 5.8-3.9 10.9-4.6 11.3-.8.4-1.4 1.8-1.4 3s-.7 4.7-1.6 7.7c-.9 3-2 7.7-2.5 10.5-2.1 11.8-3 15.5-4 15.5-.5 0-.9-.5-.9-1.1 0-.5-.4-.7-1-.4-.6.4-.9 6-.9 13.8.2 11.7-2.2 37.9-3.7 43.1-.4 1-.8 5.3-1 9.5-.4 9.6-1.3 13.9-5 26.3-1.6 5.2-1.6 5.8 0 7.3 2.4 2.4 2 3.7-2.2 6.6-3.6 2.5-12.2 5.4-12.2 4 0-.3-1.6-.6-3.5-.6-2.5-.1-3.4.3-3.1 1.2.3.7.1 1.3-.4 1.3-.6 0-1-.6-1-1.4 0-.7-1.1-1.6-2.5-1.8-1.3-.3-2.2-.1-1.9.3.3.5-.7 1.4-2.3 2.1l-2.8 1.2 2.7.4c1.6.2 2.8.8 2.8 1.3s.5.9 1.1.9c.5 0 .8-.4.4-.9-.3-.5-.1-1.2.5-1.6.5-.3 1-.1 1 .5s.4.9.9.6c.5-.4 1.2 0 1.4.6.4 1 .6 1 .6 0 .1-1 .6-1 2.1-.2 1.7.9 2 .8 2-.7.1-1.7.2-1.6 1.5.1 1.1 1.4 1.5 1.6 1.5.5 0-.8.3-1 .8-.4.9 1.2 5.3 2 5 .8-.2-.4 1-2 2.5-3.5s2.7-2.5 2.7-2.2c0 .2.9 0 1.9-.6 2.1-1.1 2.2-.9.5 5.4-.5 2-.3 2.7.4 2.2.6-.3 1.3-.2 1.7.4.3.5-.2 1-1.2 1-1.5 0-1.5.2-.4.9 1.3.8 1.3 1.2 0 2.7-.8 1-.9 1.5-.2 1.1.8-.5.7.3-.3 2.2-1 2-1.2 3.6-.5 5.2.5 1.4.5 3.4 0 4.8-.8 2.1-.7 2.2.6 1.1.9-.8 1.5-.8 1.5-.2 0 .9-3.1 2.5-5.2 2.7-.3 0-1 .4-1.5.9s-.2.6.6.1c1-.6 1.2-.4.7.4-.5.7-1.4 1-2.2.7-1.6-.6-6.4 1-6.4 2.1 0 .5 1.1.8 2.5.8s2.5-.6 2.5-1.3c0-1 .5-1 2.1-.2 1.7 1 2.1.8 2.6-.9.3-1.1.9-1.8 1.4-1.6.4.3.6 1.2.3 1.9-.3.8-.1 1.7.4 2 1.1.7 3.8-2.1 2.9-3-.3-.3-.2-1.7.3-3 .6-1.4.6-2.6 0-2.9-1.6-1-1.1-5.7.7-7.7.9-1 1.1-1.8.5-1.8-.6 0-.8-1.1-.5-2.8.4-1.5.6-4.2.6-6-.1-2.4.3-3.2 1.5-3.2 1.5 0 1.5-.2.2-1-1.3-.9-1.3-1.2.3-2.1.9-.5 1.7-1.5 1.7-2.2 0-.8-.3-.7-.9.2-.7 1-.9.7-.8-1.2.2-1.9.5-2.3 1.5-1.5 1.5 1.3 1.6.3.2-2.3-.6-1-.7-1.9-.2-1.9 1.7 0 1-3.9-.9-4.5-2.1-.7-2.3-2.3-.8-8 .6-2.2 1-4.8 1-5.8 0-.9.4-1.5.8-1.3.5.3.6-.5.4-1.7-.3-1.3.2-5 1-8.3.9-3.2 1.8-8.8 2.2-12.4.3-3.6.8-8.8 1.1-11.5.4-2.8.7-13.1.9-23 .2-15.9.4-18.5 2.3-22 1.1-2.2 2.3-5.7 2.7-7.8.4-2 1.1-4 1.6-4.3.5-.3.7-1 .3-1.5-.3-.5 0-2.5.6-4.4.6-1.9 1.3-5.3 1.5-7.5.5-5 1.1-6.1 3-5.3 1 .3 1.5 1.9 1.5 4.2 0 3.5 5.6 19.3 8.3 23.5 2.2 3.3 5.7 14.7 5.7 18.2 0 1.8.4 5.5.9 8.1.6 2.6 1.2 7.3 1.5 10.3.3 3 1.1 9.8 1.7 15 1.1 8.6 1.4 83.6.4 103-.6 13.2-1.8 23.5-2.7 24.7-1 1.2 0 6.3 1.2 6.3 1.1 0 2.9-8.6 2.3-10.9-.3-1.1.2-2.1 1.1-2.4 1.7-.7 2.3-3.7.8-3.7-1.1 0-.3-8.8.9-11.2.5-.9.9-2.8.9-4.1 0-4.6 6.7-22 8.2-21.1.4.3.5-.1.2-.9s1.8-3.7 4.8-6.9c2.9-3 6.4-6.9 7.7-8.6 1.3-1.8 2.8-2.9 3.4-2.5.6.3.7.1.3-.5-.4-.7-.1-1.2.9-1.2.9 0 1.4-.4 1.1-.9-.7-1.1 2.8-4.3 3.8-3.4.4.4.4 0 0-1-.3-.9-.2-1.7.3-1.7.4 0 1.7-1.6 2.7-3.5 1.1-1.9 2.3-3.5 2.7-3.5.5 0 1.3-.9 1.9-2 1.5-2.8 3.7-16.7 2.9-18.2-.3-.7-1-7.8-1.3-15.8-.4-8-.9-16.3-1.1-18.5-.1-2.2-.6-8.2-.9-13.4-.4-5.2-.9-9.8-1.2-10.3-.3-.5-1.4-.6-2.4-.3-1.3.4-2.7-.2-4.2-2.1-3.4-3.9-8.7-7-13.6-7.8-2.4-.3-6.7-2.2-9.7-4.2-2.9-2-7.1-3.8-9.2-4.1-3.5-.5-4-.9-5.1-4.4-2.6-8.3-1.1-14.9 5.6-24.6 4.6-6.8 4.7-6.8 5-16.3.1-5.2.4-10.9.4-12.5.3-4.6-2.4-12.5-4.2-12.5-1 0-1.1.3-.4.8 2 1.3 3.7 8.3 2.9 12.6-.3 2.2-.7 7.7-.8 12-.1 5.4-.6 8.1-1.5 8.4-.6.2-1 .8-.7 1.2.3.5.1 1.1-.5 1.5-.7.4-.8-1-.4-4.2.7-6 .7-13.3 0-19.8-.4-2.8-.7-8.8-.7-13.5-.1-4.7-.5-9-1-9.7-.7-.7-.6-1.4.1-1.8 1.5-.9 1.2-2.5-.5-2.5-1.2 0-1.3-.4-.6-1.9.8-1.4.7-2.2-.3-3-.8-.7-1.6-.8-1.9-.4zm2.3 25c.8 19.7.5 32.4-.9 33.2-.7.5-1.2 1.4-1.1 2.2.4 2.6 0 4-.9 3.5-.5-.3-.8.2-.7 1.2 0 .9-.4 1.6-1.1 1.5-.6-.2-1.8 1.3-2.4 3.2-.7 1.9-1.7 3.5-2.1 3.5-.4 0-.8-.2-.8-.4s-.3-1.2-.7-2.2c-.5-1.3-.3-1.6.9-1.1 2.2.8 3.2-2.1 1.3-3.9-.8-.9-1.5-2.4-1.5-3.3 0-1-.7-2.5-1.6-3.2-1.5-1.2-1.5-1-.1 2.3 1.6 3.8 1.4 5-.8 4.2-1-.4-1.2.1-.8 1.7.4 1.5.3 2-.5 1.5-1.5-.9-1.1-5.8.4-5.2.7.3 1-.3.7-1.5-.5-2-2.3-2.7-2.3-.9 0 .5-.4 1-1 1-2 0-.9-3 2.5-6.5 3.3-3.6 3.3-3.7.9-3.1-2 .5-2.4.4-1.8-.6.5-.7.9-2 1.1-2.8.1-.8.7-2.6 1.4-4 .6-1.4 1.5-3.4 1.9-4.5.4-1.1 1.7-4.1 2.9-6.6 1.1-2.5 2.1-5.2 2.1-5.9 0-.8.7-2.1 1.5-2.9.8-.9 1.5-3.4 1.6-5.6.2-3.7.6-5.5 1.3-5.5.1 0 .4 4.8.6 10.7zm-6.9 54.6c-.8.8-1.1.7-1.1-.4 0-2 1.3-3.4 1.8-1.9.3.7-.1 1.7-.7 2.3zm1.3 6.3c.3.8.2 1.2-.4.9-.6-.3-1-1-1-1.6 0-1.4.7-1.1 1.4.7zm9.6 8.4c1.2.8 1.2 1-.5 1-1.1 0-2.7-.5-3.5-1-1.2-.8-1.2-1 .5-1 1.1 0 2.7.5 3.5 1zm3.5 1c-.3.5-.1 1 .6 1s2.2.9 3.4 2c1.1 1 4.9 2.7 8.4 3.6 6.2 1.5 13.1 5.1 13.1 6.6 0 1.1.3 1.2-9.6-2.7-4.9-1.9-9.2-3.5-9.7-3.5-1.4 0-7.7-5.8-7.7-7.2 0-.4.5-.8 1.1-.8.5 0 .7.4.4 1zm-1.5 4c7.9 4.5 23.8 11.3 26.6 11.3 1.4 0 2.2 1.8 5.2 11.7 2.9 9.5 3.2 11 2.2 13.6-.5 1.3-.6 2.4-.2 2.4.6 0 .8 5.1.3 7.5-.2.5-.2 5.6-.2 11.2 0 5.7-.5 13.2-1.3 16.7-.8 4.1-1 6.9-.4 7.8.7 1 1.1 1 1.5 0 .2-.6.9-1.2 1.4-1.2 1.8 0 .8 2.4-2.8 6.6-10 11.6-16.9 19.3-21.3 23.9-5 5.1-11.6 17.6-13.1 24.5-.4 1.9-.6-9.1-.5-24.4.2-22 .5-28.1 1.5-28.4 1-.3 1-.6.1-1.2s-.9-1.2 0-3c.8-1.5.8-2 .1-1.6-.7.5-1.1-.7-1.1-3.6 0-3 .3-3.9 1-2.8.5.8 1.2 1.1 1.6.8.8-.8.8-20.8 0-26.3-1.3-8.7-3.5-20.6-4.1-21.5-.3-.6-.1-1 .6-1 .8 0 .8-.4.2-1.3-2-2.5-3.3-10-2-11.6.9-1.2.9-1.3 0-.7-1 .5-1.3-.3-1.3-2.9 0-2.2-.4-3.4-1-3-.5.3-1-.1-1-1 0-1 .5-1.3 1.2-.9.8.5.9 0 .6-1.4-.8-2.8 1.5-2.9 6.2-.2zm32.7 17.2c-.3.8-.6.5-.6-.6-.1-1.1.2-1.7.5-1.3.3.3.4 1.2.1 1.9zm-37 16c-.3.7-.5.2-.5-1.2s.2-1.9.5-1.3c.2.7.2 1.9 0 2.5zm-37 12c-.2 1.3-.4.5-.4-1.7-.1-2.2.1-3.2.4-2.3.2 1 .2 2.8 0 4zM139 482c0 .5-.2 1-.4 1-.3 0-.8-.5-1.1-1-.3-.6-.1-1 .4-1 .6 0 1.1.4 1.1 1zm-85.6 27.4c-.4 1-.1 2.2.6 2.6.7.4.9 1.3.5 2-1.1 1.8-3.1-3-2.7-6.4.3-2 .7-2.4 1.3-1.5.5.8.6 2.2.3 3.3zm.1 29.5c.3.5.1 1.2-.5 1.6-.5.3-1-.1-1-.9 0-1.8.6-2.1 1.5-.7z"/><path d="M89.5 359.1c-.4.6-.5 1.2-.2 1.5.2.3.7-.2 1-1.1.7-1.7.1-2-.8-.4zm7.9 63.4c-.3.8-.4 2-.2 2.7.3.7.7.1 1-1.5.6-2.9.1-3.6-.8-1.2zm2.8 5.3c3.2 4 4.4 4.8 5.4 3.8 1.3-1.4-1.2-4.1-4.4-4.9-2-.5-2.2-.3-1 1.1zm.8 5.3c0 .5.5.7 1 .4.6-.3 1-.8 1-1.1 0-.2-.4-.4-1-.4-.5 0-1 .5-1 1.1zm15 2.5c0 .8.4 1.3.9.9.5-.3 1.2-.1 1.6.5.3.5.1 1-.6 1s-1 .2-.7.5c.3.3 1.3.3 2.2-.1 1.6-.6 1.5-.8-.3-2.5-2.5-2.3-3.1-2.4-3.1-.3zm-17 3.3c.4 1.6.5 3.3.2 3.7-.4.5.1.3 1-.5 1.4-1 1.5-1.7.6-3.7-1.6-3.4-2.8-3-1.8.5zm6.3 6.6c0 .8.4 1.2.9.9.5-.3.6-1 .3-1.5-.9-1.3-1.2-1.1-1.2.6zm-3.2 8.1c0 1.1.3 1.4.6.6.3-.7.2-1.6-.1-1.9-.3-.4-.6.2-.5 1.3zm22.3 2.6c-.5.8-.2.9.9.5 1.4-.5 1.5-.2.6 2-.7 1.8-.6 3 .1 3.7.7.7 1 .5 1-.8 0-1.1.4-1.5 1.3-1 .8.5.7.2-.2-.9-1.2-1.5-1.2-1.7.4-1.1 1.5.6 1.6.5.4-1.5-1.5-2.3-3.4-2.7-4.5-.9zm1.1 28.9c-.4.6-.5 1.2-.2 1.5.2.3.7-.2 1-1.1.7-1.7.1-2-.8-.4zm.4 7.6c-1.3 1.6-1.2 1.7.4.4.9-.7 1.7-1.5 1.7-1.7 0-.8-.8-.3-2.1 1.3zm-2.5 19.7c-.3.8-.1 2.3.6 3.3.9 1.6 1 1.5.4-.6-.4-1.5-.1-2.7.7-3.2 1.1-.7 1.1-.9.1-.9-.7 0-1.5.6-1.8 1.4zm-12.9 17.5c-.3.5-.1 1.2.5 1.6.5.3 1-.1 1-.9 0-1.8-.6-2.1-1.5-.7zM252 324.1c0 .5-.5.7-1 .4-.7-.4-.8.3-.4 2.2.4 1.5 1.1 2.9 1.6 3.1.4.2.8 1.3.8 2.5s.9 4 2.1 6.1c1.3 2.5 1.8 4.7 1.4 6.6-.3 1.5-.2 3.1.3 3.4.5.3.9 1.9 1 3.6 0 1.7.6 4.7 1.2 6.6.7 1.9 1 4.4.7 5.5-.3 1-.1 2.1.3 2.4 1.9 1.2 4.3 17.7 5.5 37.5.2 4.1.7 11.3 1.1 16 .3 4.7.8 11.9 1 16 .2 4 .9 7.9 1.4 8.4.7.7 1 .6 1-.3 0-.7.5-.9 1-.6.8.5.8 1.1.1 1.9-.6.7-.8 1.6-.4 1.9.3.4.1.7-.7.7-1 0-1 .3-.1 1.4.8 1 1 3.3.6 6.8-.6 5.4-.6 8 0 20.3.4 9.2.4 9.2 1.4 7.7.5-.8.7-3.3.6-5.5-.2-2.3.2-5 .7-6.1.7-1.3.7-1.6-.1-1.1-.8.4-1-.5-.6-3.3.7-6.1.9-20.1.2-20.8-.3-.3-.1-1.8.4-3.2.7-1.7.6-2.9-.1-3.6-1.4-1.4-1.3-6.9.2-6 .8.5.8.3.2-.7-.5-.8-.9-5-1-9.4-.1-7.5-1-16-1.8-17.4-.3-.3-.7-3.8-1.1-7.6-.3-3.9-.8-8.8-1-11.1-.3-2.7.1-4.8 1.1-6 .8-1 1.3-1.5 1.3-.9-.5 2.4 2.2 10.7 6.2 19 1.6 3.3 2.7 7 2.5 8.2-.3 1.5-.1 2 .9 1.7.9-.4 1.3.1 1.1 1.2-.2 1 1.1 3.1 2.8 4.8 1.7 1.7 3.1 3.3 3 3.6-.1.9 2.3 2.9 2.9 2.3.8-.7 6.3 4.9 5.9 6-.1.5.2.6.7.3.5-.4 1.2-.2 1.6.4.4.6 1 .8 1.4.5 1.3-.7 4.4 3.2 3.6 4.6-.5.7-.3 1 .6.7.8-.3 3.7 1 6.5 2.7 2.8 1.8 6 3.6 7.2 3.9 1.1.4 3.7 1.8 5.8 3.2 2 1.4 4.3 2.3 5 2 .8-.3 1.4.1 1.4.9s.5 1.5 1.1 1.5c.6 0 1.7.7 2.6 1.5.8.9 2 1.4 2.7 1.2.6-.2 2.7 1.3 4.7 3.5 3.2 3.3 3.8 3.6 4.4 2.1.6-1.7.8-1.7 2.2.2 1.1 1.4 1.7 1.6 2 .7.3-.6.9-1.2 1.4-1.2.6 0 .7.4.4 1-.3.5-.2 1 .3 1 1.7 0 2.1-2.8.6-4.7-1.3-1.7-1.4-1.7-.8.2.5 2 .5 2-1 .1-.8-1-1.4-2.2-1.1-2.5.2-.4-.5-1.3-1.7-2-1.1-.7-1.8-.9-1.5-.4.3.5-1.2.9-3.3.8-2.1 0-3.6-.3-3.3-.8 1.2-2-1.1-4.5-5.2-5.7-2.4-.7-4.6-1.8-4.9-2.6-.3-.8-1.2-1.4-2.1-1.4-.8 0-1.5-.5-1.5-1 0-.6-1.2-1.6-2.7-2.3-1.6-.6-3.1-1.5-3.4-2-.3-.4-1.5-.9-2.7-1-1.2 0-2.4-.7-2.6-1.4-.3-.7-1.2-1.3-2.1-1.3-1.5 0-5.1-2.8-11.2-8.8-3.7-3.6-4.3-3.8-6.2-2-1.1 1.1-1.1.9-.2-1 1.1-2 .8-2.6-1.1-2.3-.5 0-.8-.3-.8-.8s-1.6-1.9-3.5-3.1c-1.9-1.2-3.5-2.8-3.5-3.6 0-.9-.5-1.2-1-.9-.6.4-.7 1.1-.4 1.7.4.6.2.8-.3.5-.6-.4-.8-1.8-.5-3.2.3-1.9.1-2.4-.9-2-.9.3-1.5-.3-1.6-2-.4-4.6-.6-5.5-1.5-5.5-.4 0-.8-.9-.8-2s-.4-2-1-2c-.5 0-.7-.7-.4-1.5.4-.8-.6-3.7-2-6.5-1.4-2.7-2.6-5.2-2.6-5.5.1-.3-.4-2.3-1-4.5-.5-2.2-1.5-5.8-2-8-.6-2.2-.8-4.5-.5-5 .3-.6.1-1-.6-1s-1-1.2-.6-3.3c.3-2.1-.4-4.9-1.8-8.2-4.4-9.5-7-19.1-5.4-20 1.4-.9 1.1-2.5-.6-2.5-1.4 0-2 2.6-1.8 7.7.1 1.7-1.2 1.6-2.7-.2-.9-1.1-1-1.8-.1-2.9.9-1.1.8-1.8-.5-3-1.3-1.3-1.4-1.9-.4-3.1.9-1.1 1-1.5.1-1.5-.7 0-.9-.5-.6-1 .3-.6-.1-1-.9-1-.9 0-1.6.5-1.6 1.1zm2 1.9c0 .5-.4 1-1 1-.5 0-1-.5-1-1 0-.6.5-1 1-1 .6 0 1 .4 1 1zm10 29.8c0 1.5-.2 1.5-1 .2-1.3-2-1.3-3.3 0-2.5.6.3 1 1.4 1 2.3zm1.8 13.6c0 4.2-1.9 1.5-2.5-3.5-.5-4.3-.4-4.3 1-1.8.8 1.5 1.5 3.9 1.5 5.3zm25.8 48.2c.2 1.2-.1 1.3-1.2.3-.7-.6-1.1-1.6-.8-2.1.7-1.1 1.7-.3 2 1.8zm-20.7 6.7c-.5 1.7-1 5.4-1.1 8.2l-.1 5-.6-5c-.6-5.3.6-12.8 1.9-12 .5.3.4 2-.1 3.8zm38 7.9c1.1 1.8 1.1 1.8-1.4.2-2.9-1.9-3-2.1-1.1-2.1.7 0 1.9.9 2.5 1.9zM319 437c0 .5-.7 1-1.6 1-.8 0-1.2-.5-.9-1 .3-.6 1-1 1.6-1 .5 0 .9.4.9 1zm8.7 6.2c-.3.8-.6.5-.6-.6-.1-1.1.2-1.7.5-1.3.3.3.4 1.2.1 1.9zm8.7 3.9c-.3.5-1 .7-1.5.3-.5-.3-.7-1-.3-1.5.3-.5 1-.7 1.5-.3.5.3.7 1 .3 1.5zm9.6 7.2c0 .8-.7 1.4-1.5 1.4-2.5 0-1.7-1.7 1.3-2.6.1-.1.2.5.2 1.2zm2.5-.4c.3.5.1 1.2-.5 1.6-.5.3-1-.1-1-.9 0-1.8.6-2.1 1.5-.7zM151 324.8c0 .7-.5 1-1.1.6-.8-.4-.9.1-.4 1.7 1.2 3.6 3.6 7 4.6 6.3.5-.3.6-1.1.2-1.7-.4-.7-.8-1.9-.8-2.7-.1-1.9-2.4-5.9-2.5-4.2zm410.6 1c-.4.7-.5 1.2-.3 1.2.3 0-1.4 1.9-3.7 4.3-3.5 3.6-4.3 4-5.3 2.8-1.1-1.3-1.3-1.2-1.3.3 0 1.1-.8 2.5-1.7 3.2-1.7 1.3-1.7 1.4.1.7 1.2-.4 1.7-.3 1.3.4-.4.6 0 1.6.8 2.3.8.7 1.5.9 1.5.4s.7 0 1.5 1c.8 1.1 1.5 1.4 1.5.8 0-.7.7-1.2 1.6-1.2 1 0 1.4.5 1 1.6-.3.8-.2 1.2.4.9 1.6-1 1.2-3.5-.5-3.5-2 0-1.1-6.1 1.1-7.3.8-.5 1.2-1.2 1-1.6-.3-.4.5-.8 1.7-.8 1.7-.2 1.9 0 .7.7-1.3.8-1.3 1 .1 1 .9 0 1.9-.9 2.2-2.1.5-1.8.2-2-1.9-1.6-1.9.3-2.2.2-1.3-.9.6-.7.9-1.9.7-2.6-.3-.9-.6-.9-1.2 0zm-7.2 12.7c-.4.8-1 1.2-1.5.9-1.4-.8-1-2.4.6-2.4.9 0 1.2.6.9 1.5zM183 327c0 .5.5 1 1.1 1 .5 0 .7-.5.4-1-.3-.6-.8-1-1.1-1-.2 0-.4.4-.4 1zm307.5 1c.3.5.8 1 1.1 1 .2 0 .4-.5.4-1 0-.6-.5-1-1.1-1-.5 0-.7.4-.4 1zm-31.4 1.6c0 1.1.3 1.4.6.6.3-.7.2-1.6-.1-1.9-.3-.4-.6.2-.5 1.3zm154.5 2.1c1.6 1.5 2.8 2.7 2.6 2.7-.2.1 0 .9.3 1.8.4 1 1.1 1.6 1.5 1.3.4-.2.8.6.8 2 0 1.3.7 3.1 1.5 4 .9.8 1.9 2.4 2.2 3.5.7 2.3 2.1 2.6 2.8.6.3-.8-.4-2.2-1.6-3.1-1.2-.9-1.5-1.3-.7-1 .8.4.5-.2-.7-1.3-1.3-1.1-2.3-2.7-2.3-3.5 0-.8-.7-2-1.5-2.7-.9-.7-1.3-2-1-2.8.3-.8-.3-1.6-1.5-1.9-1.1-.3-2-.9-2-1.4 0-.5-.7-.9-1.6-.9-1.3 0-.9.7 1.2 2.7zm31.4.4c0 .5-.5.7-1.2.3-.7-.5-.8-.3-.2.7.5.8.9 1.7.9 2.1 0 .3.4 1 .9 1.5s.6.3.2-.5c-.8-1.4.3-1.6 2.3-.3.9.6 1 1.1.2 1.5-.8.5-.8 1.3.1 2.9.6 1.2 1.1 2.3 1 2.4-.7 1 0 2.3 1.2 2.3.8 0 1.8.9 2.1 2 .3 1.1 1.1 2 1.6 2s.9 1.9 1 4.2c0 2.4.3 3.7.6 3 .2-.6 1.1-1.2 1.8-1.2s1.5-.6 1.7-1.2c.3-.7.7-.2 1.1 1.1.5 1.9.2 2.2-1.4 1.8-1.6-.4-1.8-.3-.8.9.6.7 1.6 1.1 2.1.8.6-.4.5.2-.1 1.4-.8 1.6-.7 2.1.5 2.6.9.3 1.4 1.3 1.1 2-.3.8.1 1.7.9 2 1.7.7 4.9 7.4 4.5 9.6-.1 1.2 0 1.2.7.1 1.3-1.8 2.4.2 1.5 2.6-.6 1.6-.5 1.6 1 .4 1.5-1.2 1.7-1.1 1.7.5 0 1.4.2 1.6.9.6.7-1.1.9-1.1 1.4.2 1 2.4.6 3.1-1.5 2.8-1-.2-1.8.1-1.8.7s.7.8 1.5.5c1-.4 1.5 0 1.5 1.1 0 1-.5 1.3-1.2.9-.6-.4-.4.3.5 1.7.9 1.3 1.7 3.3 1.7 4.4 0 1.7.2 1.8 1.1.5.8-1.2.9-1.1.4.6-.3 1.2.1 3.4 1 5 .8 1.6 1.5 3.5 1.5 4.2 0 .7.4 1.1.9.7 1.2-.7 1-4.5-.3-4.5-.5 0-.1-.8.8-1.9 1.6-1.7 1.6-2 .1-3.5-1.2-1.2-1.3-1.6-.3-1.6.9-.1.8-.5-.4-1.3-1.1-.9-1.4-1.8-.8-2.7 1-1.7.2-4-2.2-6.1-1-1-1.7-2.3-1.6-3 .2-.7-.4-1.3-1.2-1.4-.8 0-2.1-1.2-3-2.8-1.3-2.4-1.3-2.9 0-3.7 1.2-.8 1.2-1-.2-1.5-1-.4-2.3-.3-3 .1-1 .6-1 .4-.2-.7 1.1-1.6-.7-8.6-2.2-8.1-.4.1-.9-.5-1-1.4-.2-.9-.7-2-1.2-2.3-.5-.3-1.7-2.2-2.7-4.1-.9-1.9-2.4-4.3-3.3-5.3-.8-.9-1.2-1.7-.8-1.7.4 0 0-.7-.8-1.6-.9-.8-1.4-2-1.1-2.5.4-.5-.1-.6-.9-.3-1.1.4-1.6 0-1.6-1.2 0-1.5-.2-1.6-.9-.5-.6.9-1.1 1-1.5.2-.4-.6-.4-1.5-.1-2.1.7-1.1-.8-4.2-1.8-4.1-2.1.3-2.6-.1-2.1-1.4.4-.8.3-1.5 0-1.5s-.6.5-.6 1.1zm12.1 21.2c-1 .9-1.1.8-.5-.6.3-1 .9-1.5 1.2-1.2.3.3 0 1.1-.7 1.8zm9.9 12.9c0 .6-.6.5-1.5-.2-.8-.7-1.5-1.4-1.5-1.6 0-.2.7-.1 1.5.2.8.4 1.5 1.1 1.5 1.6zm10.2 22c-.7.7-1.2.8-1.2.2 0-1.4 1.2-2.6 1.9-1.9.2.3-.1 1.1-.7 1.7zM133 332.4c0 .2.8 1 1.8 1.7 1.5 1.3 1.6 1.2.3-.4s-2.1-2.1-2.1-1.3zm48 .7c0 .5.5.7 1 .4.6-.3 1-.8 1-1.1 0-.2-.4-.4-1-.4-.5 0-1 .5-1 1.1zm-48 4c0 .5-.4.8-.9.4-.5-.3-1.2-.1-1.6.5-.9 1.5 1.8 1.2 4.1-.5 1.7-1.3 1.7-1.4.2-1.5-1 0-1.8.5-1.8 1.1zm429.8 2.4c-.6 3-.2 3.2 1.2.6.6-1.1.6-2.2.1-2.5-.5-.3-1.1.5-1.3 1.9zM546 341c0 1.2.5 1.7 1.3 1.4.8-.3 2 .3 2.8 1.2 1.3 1.6 1.2 1.7-.8 1.2-2.5-.7-5.3 1.6-3.1 2.5.9.4 1 .6.1.6-.7.1-1 .9-.7 1.8.5 1.5.3 1.5-.7-.1-.9-1.5-.9-2.4 0-3.8.8-1.3.8-2.4.2-3.6-1-1.6-1-1.6-1.1.1 0 2.4-3.3 5.8-5.1 5.4-.8-.2-1.1-.2-.6 0 1.5.9.6 2.2-1 1.6-1.6-.6-1.6-.5-.4 1 .7.9.9 1.7.3 1.7-.5 0-.8.9-.5 2 .3 1.1 0 2-.6 2s-1.1.7-1.1 1.6c0 1.2.7 1.5 3 1.2 2.8-.4 2.9-.4 1.2 1.2-.9 1-2 1.3-2.3.8-.3-.5-.9 0-1.2 1.1-.3 1.2-.1 1.9.3 1.6.5-.3 1.1-.1 1.5.5.3.5-.3 1-1.5 1s-1.8.4-1.5 1c.3.5.2 1-.2 1-1.5 0-4 6.7-3.2 8.3.5.8.3 2.2-.6 3.3-1.3 1.8-1.4 1.8-.9-.6.4-2.1.3-2.2-.5-.5-1 2.2-.5 3.8 1 3 .5-.4.9.1.9.9 0 1.9 1.6 2.1 2.4.3.2-.6.4-.3.3.8-.2 1.1-.6 2.5-1 3.2-.4.6-.3 1.4.3 1.8.5.3 1-.1 1-.9 0-.9.9-1.6 2-1.6 2.3 0 2.5-1.2.9-4.2-.8-1.4-.8-2.3 0-3.1.8-.8 1.1-.5 1.1.9 0 1.1.4 2.4.9 3 .5.5 1.1 1.8 1.4 2.9.5 1.9.5 1.8 1.2-.4s.9-2.2 2.1-.7c1.1 1.6 1.3 1.6 2.6-.1.7-1 2.2-2.3 3.3-2.9 1.1-.6 2.1-2 2.2-3 .2-1.2-.1-1-.8.6-1 2.4-1.1 2.4-2.1.6-.8-1.5-.7-2.1.6-2.8.9-.5 1.6-1.6 1.6-2.5 0-1.4-.2-1.4-1.5.3-1.4 1.9-1.4 1.8-1.5-.4 0-1.2.5-2.2 1-2.2.6 0 .9-.6.8-1.3-.2-.6.4-1.1 1.3-.9 1 .1 1.9-.6 2.2-1.8.3-1.1.1-1.8-.3-1.5-.5.3-1.1.1-1.5-.5-.3-.5-.1-1 .4-1 .6 0 1-1 1-2.3-.1-1.6-.2-1.8-.6-.5-.5 1.9-4.3 2.5-4.3.7 0-.5-.4-.8-.9-.4-.5.3-1.2.1-1.5-.3-.3-.5.7-.8 2.2-.7 4 .2 5.8-1.9 5.7-6.8-.1-4.4 1.6-7.3 3.7-6.2.7.4.5 0-.6-.9-1.6-1.3-2-1.3-3.3 0-1.9 1.9-2.2 1.8-1.6-.6.4-1.4-.3-2.9-2.1-4.5-3.3-3-3.6-3.1-3.6-.5zm4.4 8.5c.3.8.1 1.5-.4 1.5-.6 0-1-.5-1-1.1 0-.5-.5-.7-1.2-.3-.7.4-.8.3-.4-.4 1-1.6 2.3-1.5 3 .3zm-7.9 2.5c-.3.5-1.1 1-1.6 1-.6 0-.7-.5-.4-1 .3-.6 1.1-1 1.6-1 .6 0 .7.4.4 1zm6.2 2c.1 1.1-.2 2-.8 2-.5 0-.9-.9-.9-2s.4-2 .8-2 .8.9.9 2zm3.3 2c0 1.3-.6 2-1.7 1.9-1.1 0-1.3-.3-.5-.6.6-.2 1.2-1.1 1.2-1.9 0-.8.2-1.4.5-1.4s.5.9.5 2zm-4 2.1c0 1.4-1.7 1-2.3-.5-.4-1-.1-1.3.9-.9.7.3 1.4.9 1.4 1.4zm1 8c0 .6-.4.8-.9.4-.5-.3-1.2-.1-1.6.5-.3.5-1.4 1-2.3 1-1.5-.1-1.5-.2.2-1.5 1-.7 1.5-1.9 1.1-2.5-.6-.9-.2-.9 1.4-.1 1.1.7 2.1 1.6 2.1 2.2zm-12.7 3.9c.3 1.1 0 2.3-.5 2.7-.6.3-.8.1-.4-.5.3-.6.2-1.3-.4-1.7-.6-.4-.8-1.1-.5-1.6.9-1.3 1.2-1.1 1.8 1.1zm9.7 0c0 .5-.4 1-1 1-.5 0-1-.5-1-1 0-.6.5-1 1-1 .6 0 1 .4 1 1zm-5 10.3c0 .5-.4.5-1 .2-.5-.3-1-1.4-1-2.3 0-1.5.2-1.5 1-.2.5.8 1 1.9 1 2.3zM454.5 344c-.9 1.6-2 3-2.5 3-.6 0-1 .5-1 1.1 0 .5.4.8.9.4.5-.3 1.3 0 1.6.6.4.6-.2 1.3-1.4 1.6-1.1.3-2.2 1.3-2.5 2.2-1.2 4.6-1.6 9-.7 9.5.6.4.8-.2.6-1.4-.2-1.1.2-2.5.9-3.2.7-.7 1.1-1.8.9-2.5-.2-.6.4-2.1 1.3-3.2 1-1.1 1.9-2.6 2-3.3.2-.7.7-2.8 1.3-4.6 1.2-4 .6-4.1-1.4-.2zm-431.8 3c-.3 1.1-.1 2.3.4 2.6.5.3.9-.6.9-2 0-3.1-.6-3.4-1.3-.6zm603.9 1.7c-1.2 1.2-.5 2.1 1.9 2.5 1.4.3 2.5.5 2.5.4 0-.7-4-3.3-4.4-2.9zm-24.6 1.4c0 .5.5.7 1 .4.6-.3 1-.8 1-1.1 0-.2-.4-.4-1-.4-.5 0-1 .5-1 1.1zm-578.9 3.5c0 1.1.3 1.4.6.6.3-.7.2-1.6-.1-1.9-.3-.4-.6.2-.5 1.3zm571.4-.6c-.3.5-.1 1 .4 1 .6 0 1.1-.5 1.1-1 0-.6-.2-1-.4-1-.3 0-.8.4-1.1 1zm34.1 1.1c2 2.2 3.4 2.4 3.4.5 0-.7-1.1-1.6-2.5-1.9-2.5-.4-2.5-.4-.9 1.4zm-40.2 1.4c-.4.8-1 1.2-1.5.9-.5-.3-.9 0-.9.5 0 1.3.3 1.3 2.4.5.9-.3 1.3-1.1 1-1.6-.4-.6.2-.7 1.6-.3 1.5.5 2 .4 1.6-.4-1-1.6-3.6-1.4-4.2.4zm14.1 1.5c1.2 1.9 1.6 6.2.5 5.5-.5-.3-1-1.3-1-2.1 0-1.2-.2-1.2-1.4-.2-.8.7-1.2 1.5-1 1.7.2.2-.1 1-.7 1.8-.8.9-.8 1.3-.1 1.3.6 0 1.4-.5 1.8-1.1.4-.8 1.1-.3 1.9 1.2 1.4 2.6-.2 7-1.7 4.6-.5-.7-.8-.3-.8 1.2 0 1.3-.3 2.2-.6 1.8-.4-.3-.3-1.8 0-3.4.6-2.1.9-2.4 1.7-1.2.7 1.1.9.9.9-.9 0-2.5-1.8-3-2.6-.7-.4.8-1 1.3-1.4 1-.5-.3-.7.9-.5 2.7.3 2.1.1 2.8-.4 1.9-.7-1.1-1.2-1.1-3.1.2-1.3.9-1.7 1.7-1.1 2.2.6.3 1.1.1 1.1-.4 0-.6.5-1.1 1-1.1 1.7 0 1.1 1.8-.9 2.5-1.9.6-2.3 3.5-.6 4.7 1.4 1 0 1.9-1.9 1.2-.9-.3-1.3-1.1-.9-1.7.3-.6.1-.7-.5-.3-.6.4-.9 1.3-.6 2.1.4.8 1 1.2 1.5.9 1.1-.6 1.2 1.6.1 3.3-.6.9-1.2.7-2.2-.8-3.9-5.6-3.7-5.3-3.7-3.5 0 .9.4 1.6.8 1.6.3 0 .9 1.4 1.1 3 .3 2.2-.2 3.7-1.7 5.4l-2.2 2.4 2.3.5c1.3.2 2.8-.1 3.5-.7.9-.8 1-.5.6 1.4l-.6 2.5 1.9-2.4c1.1-1.2 1.7-2.8 1.3-3.4-.3-.6-.1-.7.5-.3 1.2.7 6.1-4 6.2-5.9 0-.6-.5-.3-1 .5s-1 1.1-1 .6c0-.6-.7-.1-1.5 1-1.3 1.7-1.4 1.7-1.5.2 0-1 .8-2.7 1.7-3.8 1.6-1.9 1.8-1.9 3.7-.2 1.5 1.2 1.7 1.3.9.2-.9-1.2-.9-2.5.1-5.4 1.2-3.5 1.5-3.7 2.4-2 1.1 1.8 1.1 1.8 1.2-.4 0-1.3.4-2 1-1.7.6.3 1 .1 1-.5s.5-.8 1.2-.4c.8.5.9 0 .6-1.4-.4-1.2-.2-2.5.4-2.8.5-.3.8-1.5.5-2.5-.3-1.1-.2-1.9.2-1.9s.7-1.2.6-2.7c0-2.1-.8-3.2-3.2-4.5-3.8-2-4.7-2.2-3.8-.8zM590 390.3c0 1-.4 1.6-.9 1.2-.5-.3-1.1 0-1.4.7-.2.7-.2.4 0-.7.3-1.1.5-2.9.4-4 0-1.6.2-1.7.9-.5.5.8 1 2.3 1 3.3zM22.8 357.7c.6.2 1.8.2 2.5 0 .6-.3.1-.5-1.3-.5-1.4 0-1.9.2-1.2.5zm623.7.2c-.3.5-.2 1.2.3 1.5.5.3.9-.1.9-.9 0-1.7-.3-1.9-1.2-.6zm-65.8 2.2c.4 1.3.8 1.8 1.1 1 .2-.7-.1-1.8-.6-2.3-.8-.8-.9-.4-.5 1.3zm-2.7 2.3c0 .9-.4 1.4-1 1.1-.5-.3-1-.1-1 .4 0 1.3 1 1.4 3 .1 1.2-.7 1.2-1.2.2-2.2-.9-.9-1.2-.8-1.2.6zm57 .5c0 1.7 1.8 2.1 2.4.6.3-.9 0-1.5-.9-1.5-.8 0-1.5.4-1.5.9zm-64.4 3.5c.3.9 1.3 1.6 2.2 1.6.8 0 1.3-.1 1.1-.3-.2-.1-1.2-.9-2.2-1.6-1.5-1.2-1.7-1.2-1.1.3zm67.7-.6c-1.6 1-.5 5.2 1.3 5.2.8 0 1.4-.5 1.4-1 0-.6-.4-1-.9-1-.6 0-.8-.9-.6-2 .4-2.3.4-2.3-1.2-1.2zM22.5 368c-.3.6-.3 1.9 0 3 .4 1.1.2 2-.4 2-.6 0-1.1.4-1.1 1 0 .5.7.7 1.5.4 1-.4 1.5-1.7 1.3-4-.2-3.7-.4-3.9-1.3-2.4zm435.5 2.7c0 1 .4 2.4.9 3.1.7 1.1.9 1.1 1.4-.2.4-.9.2-1.6-.4-1.6-.6 0-.9-.7-.5-1.5.3-.8.1-1.5-.4-1.5-.6 0-1 .8-1 1.7zm101.5 1.2c-.8 2.1-.2 2.2 2.3.2 2.2-1.6 2.2-1.7.3-1.7-1.1 0-2.3.7-2.6 1.5z"/><path d="M590 372.5c-.7.9-.8 1.5-.2 1.5.5 0 1.2-.7 1.6-1.5.3-.8.4-1.5.2-1.5s-.9.7-1.6 1.5zm-34.9 2.1c-1.3 1.3-2.1 2.7-1.8 3.1.4.3.7.1.7-.6s.5-.9 1-.6c.6.3 1 .1 1-.5s.4-.9.8-.6c.4.2.9-.4.9-1.5.1-1 .1-1.9 0-1.8-.1.1-1.3 1.2-2.6 2.5zm74.8-1c-.7 2.9.1 5.5 1.4 4.8.7-.4.7-.2-.1.7-1.1 1.2-1.4 1.2-2.2-.1-.8-1.2-1-1-1 .8 0 1.9.4 2.1 2.5 1.6 1.6-.4 2.5-.2 2.5.5s-.8 1.1-1.7.9c-1-.2-1.8.3-1.9.9-.3 2.6-.5 2.8-1.4 1.3-.8-1.2-1-1-1 1 0 1.4-.6 3.6-1.3 5-.7 1.4-1.2 3.2-1.2 4 0 .8-.6 2-1.4 2.6-1 .8-1.1 1.3-.3 1.8.6.4.9 1.3.5 2.1-.3.8 0 1.5.5 1.5.6 0 1.3-.8 1.6-1.8.3-.9.2.3-.1 2.8-.6 5.4-1.3 6.7-2.4 4.9-1.2-1.9-1.1-3.2.1-2.4 1.3.8 1.3.2-.2-3-.6-1.4-1.5-2.5-1.9-2.5-1.1 0-2 3-1.2 4.2.3.7.1.8-.5.4-.7-.4-1.2-.2-1.2.3 0 .6-.7 1.1-1.6 1.1-1.4 0-1.4.3-.4 1.5.7.8.9 1.5.4 1.5s-.2.5.6 1c1.2.8 1 .9-.8.7-1.3-.2-2.8-1-3.2-1.7-.5-.8-1.2-1.1-1.7-.7-.4.5-.3 1.1.3 1.5.6.4 1.6 1.6 2.2 2.7.9 1.6.7 2.4-1 4.2-1.6 1.7-1.8 2.5-.9 4 .8 1.4 1.1 1.5 1.2.3.1-.8.1-1.8 0-2.3 0-.4.3-.7.9-.7 1.6 0 1.1 1.9-1.1 4.1-2.1 2.1-4.6 2.1-4.1 0 .1-.7-.2-1-.8-.6-.5.3-1 1.3-1 2.1s-.4 1.3-.8 1c-.5-.3-.9.1-.9.9s.4 1.2.9.9c.4-.3.8-.1.8.5 0 1.5-2.1 2.5-2.9 1.4-.3-.6-1.4-.7-2.6-.2-1.9.8-1.9.8.3 1.5 1.2.3 2.2 1 2.2 1.5s.5.9 1 .9c.6 0 1-.7 1-1.5s.5-1.5 1-1.5c.6 0 1 .7 1 1.6 0 1 .6 1.4 1.5 1 .8-.3 1.5-.1 1.5.4s-.7 1.5-1.5 2.4c-1.8 1.8-1.9 3.6-.2 3.6.7.1.4.7-.7 1.5-1.7 1.3-1.7 1.4.9 1.1 1.5-.2 3.1-.9 3.6-1.7.6-1 .9-.6.9 1.3 0 3.3 2.5 3.8 3.5.8.3-1.1 1.1-2 1.7-2 .6 0-.2 1.7-1.8 3.7-1.5 2.1-2 3.2-1 2.4 1.5-1.3 1.9-1.3 2.8 0 .7 1.1.9.9.5-.8-.3-1.2.1-3 .7-3.9 1.1-1.4.9-2.1-1.1-4.2-1.3-1.4-2.1-2.7-1.9-2.9.6-.7 5.4 4.5 5.9 6.4.4 1.7.5 1.7.6 0 0-.9.7-1.7 1.4-1.7 1.2-.1-2.2-2.4-3.5-2.5-.5 0-.8-.3-.8-.8V434c0-.6.5-1 1-1 .6 0 .9.6.8 1.2-.2.7.4 1.3 1.2 1.3.8 0 1.6-.9 1.8-2 .2-1.5.1-1.7-.6-.6-1.1 1.5-2.7-.2-1.8-1.8.4-.5.2-1.1-.3-1.3-.5-.1-.3-.9.4-1.5 1.1-1 1.7-1 2.7.1.9.8 2.1 1 3.3.5 1.4-.5 1.5-.8.4-.8-.8-.1-2.3-.7-3.3-1.4-1.6-1.2-1.6-1.3.3-1.3 1.1 0 1.7.4 1.5.8-.3.4.1.8.9.8s1.7-.7 2-1.4c.4-1 .1-1.3-.7-1-.7.3-2-.2-2.9-1-.8-.8-1.7-1.2-2.1-.9-.3.4-.6.1-.6-.5 0-.7.6-1.2 1.4-1.2.8 0 1.6-.3 1.9-.8.2-.4.3-.2.1.3-.1.6.7 1.2 1.7 1.2 1 .1 1.9-.3 1.9-.8 0-.6-.6-.7-1.2-.3-.9.6-.9.3.1-.9.7-.9 1.1-2.3.8-3.2-.4-.8-.2-1.7.3-2 .6-.4 1-.1 1 .6s.3.9.6.6c.4-.4.1-1.3-.6-2.2-.7-.8-.9-1.5-.4-1.5.4 0 .3-.5-.4-1.2-1.5-1.5-1.6-4.8-.2-4.8.6 0 .9.5.8 1.1-.2.6.2 1.3.9 1.6.7.3.9-.3.6-1.6-.3-1.2-.1-2.1.6-2.1.6 0 1.1-.7 1.1-1.6 0-.9-.5-1.2-1.2-.8-1 .5-1 .4-.1-.6.6-.7.9-1.9.6-2.8-.4-1-.2-1.3.5-.8.7.4 1.2.3 1.2-.2 0-.6-.7-1.2-1.5-1.6-.8-.3-1.5-1.1-1.5-1.8 0-.9.3-.8 1 .2.8 1.2 1 1.1 1-.8 0-1.2-.4-2.2-.9-2.2-1.2 0-1.1-8.9.2-9.7.5-.3 1.3.1 1.8.8.6.9.9 1 .9.2 0-.7-.7-1.6-1.6-2.1-1.1-.6-1.5-1.7-1.1-3.1.4-1.5 0-2.4-1.1-2.8-.9-.4-2.2-1.3-2.8-2.1-.9-1.3-1.2-1.2-1.5.4zm.1 14.4c0 .5-.4 1-1 1-.5 0-1-.5-1-1 0-.6.5-1 1-1 .6 0 1 .4 1 1zm3.5 10c.3.6-.1.7-.9.4-1.8-.7-2.1-1.4-.7-1.4.6 0 1.3.4 1.6 1zm-3 1c.3.5.1 1-.4 1-.6 0-1.1-.5-1.1-1 0-.6.2-1 .4-1 .3 0 .8.4 1.1 1zm1.6 3.3c-1 .9-1.1.8-.5-.6.3-1 .9-1.5 1.2-1.2.3.3 0 1.1-.7 1.8zM619 413.4c0 .3-.4.8-1 1.1-.5.3-1 .1-1-.4 0-.6.5-1.1 1-1.1.6 0 1 .2 1 .4zm7 .6c0 .5-.5 1-1.1 1-.5 0-.8.4-.4.9.3.5-.4 1.2-1.5 1.6-1.2.4-2 1.5-2 2.8-.1 2.2-.1 2.2-1.5.3-1.9-2.5-1.9-3.6 0-3.6.8 0 1.5-.9 1.5-2 0-1.5.7-2 2.5-2 1.4 0 2.5.4 2.5 1zm4.3 1c-.5 2-1.5 2.5-2.6 1.3-.8-.7 1.1-3.3 2.3-3.3.5 0 .6.9.3 2zm-12.9 9.3c-.3.9-1.5 1.7-2.5 1.7-3.4 0-1.7 3.1 1.9 3.6 2.5.4 2.3 1.1-.3 1.1-1.4 0-2.5-.4-2.5-.9s-.5-.6-1.2-.2c-.7.5-.5 1.1.7 2.1 1.1.7 1.3 1.3.6 1.3-1.9 0-3.7-2.3-3.7-4.7 0-1.2.3-2.1.6-2.1s1.5-.3 2.8-.7c2.1-.7 2.7-1.7 2.2-4-.1-.6.3-.6 1 .1.6.6.8 1.8.4 2.7zm5.7 0c-.1 1.2-1.5.9-1.9-.4-.3-.6.1-1 .8-.8.6.3 1.1.8 1.1 1.2zm-3.1 1.3c0 .8-.4 1.2-1 .9-.5-.3-1-1-1-1.6 0-.5.5-.9 1-.9.6 0 1 .7 1 1.6zM576.5 374c.4.6.1 1.9-.7 2.8-1.2 1.5-1.1 1.6.5.3 1.9-1.5 2.3-4.1.6-4.1-.5 0-.7.5-.4 1zm63.5 1.9c.1 2.3 2.7 5.5 3.5 4.2.3-.6.2-1.1-.3-1.1s-.8-1.1-.7-2.3c.2-1.5-.2-2.4-1.1-2.4-.8 0-1.4.7-1.4 1.6zm-52.4.5c.3.7 1.1 1.3 1.9 1.3 2.2 0 1.8-1.4-.4-2-1.3-.3-1.8 0-1.5.7zm23.4.6c-.9.6-1 1-.3 1 .6 0 1.5-.5 1.8-1 .8-1.2.4-1.2-1.5 0zm-153 1c-.9.6-1 1-.3 1 .6 0 1.5-.5 1.8-1 .8-1.2.4-1.2-1.5 0zm-274.7 2.7c0 .9.4 1 1.4.2.7-.6 1.3-1.2 1.3-1.4 0-.1-.6-.2-1.3-.2-.8 0-1.4.6-1.4 1.4zm418.5-1c.7.3 1.6.2 1.9-.1.4-.3-.2-.6-1.3-.5-1.1 0-1.4.3-.6.6zM21 382c0 .5.5 1 1.1 1 .5 0 .7-.5.4-1-.3-.6-.8-1-1.1-1-.2 0-.4.4-.4 1zm165.2 1c-.9 1.5-.9 2.1.1 2.6.6.4.9.4.5-.1-.4-.4-.3-1.4.4-2.2.6-.7.9-1.5.7-1.8-.3-.2-1 .4-1.7 1.5zm457.5-1.3c-.9 1.5 1.7 2.3 3.4 1.1 1.1-.8 1.1-.9-.3-.5-.9.3-1.8.1-2.1-.6-.2-.8-.5-.8-1 0zm-624.6 2.9c0 1.6.3 2.3.6 1.6.2-.6 1-.9 1.6-.5.7.4.5-.2-.3-1.3-.8-1-1.6-2.1-1.7-2.3-.2-.2-.3.9-.2 2.5zm592.2-1.6c.2.8 0 2.3-.5 3.2-.5 1-.6 1.8-.4 1.8 1.3 0 2.4-3.7 1.5-5.1-.9-1.2-1-1.2-.6.1zM172 384.5c-.7.9-1 1.8-.6 2.2.3.3.6.1.6-.6 0-.9.8-1.1 2.7-.6 2.3.5 2.5.4 1.4-.9-1.7-2-2.5-2-4.1-.1zm379-.1c0 .2.8 1 1.8 1.7 1.5 1.3 1.6 1.2.3-.4s-2.1-2.1-2.1-1.3zm4 2.7c0 .5.9.9 2 .9s2-.2 2-.4-.9-.6-2-.9c-1.1-.3-2-.1-2 .4zm-382.5.9c-.3.5-.1 1 .4 1 .6 0 1.1.5 1.1 1.1 0 .5-.6.7-1.2.3-.7-.4-.4.2.6 1.4 2.5 2.8 3 2.8 2.2-.3-.4-1.5-.2-2.5.4-2.5.6 0 .8-.5.5-1-.3-.6-1.2-1-2-1s-1.7.4-2 1zm354.2.4c-2.2 1.7-1 2.7 1.8 1.5 1.1-.4 1.4-.8.7-.8-.7-.1-1-.6-.7-1.1.8-1.3.4-1.2-1.8.4zm-508.2.6c-.3.6.1.7.9.4 1.8-.7 2.1-1.4.7-1.4-.6 0-1.3.4-1.6 1zm556.1.8c-.2.4.4.8 1.4.8 1 0 1.6-.4 1.4-.8-.3-.4-.9-.8-1.4-.8-.5 0-1.1.4-1.4.8zm34.8 1c.5 1.3.3 2.2-.3 2.2-1.5 0-1.4 1.7.2 1.7.6 0 2 .4 3 .8 2.5 1 2.1-.8-.9-4-2.3-2.5-2.6-2.6-2-.7zm36.6.1c0 .6.5 1.3 1 1.6.6.4 1.8 2.4 2.6 4.4.8 2.1 2.1 3.8 2.8 3.8 1.9 0 1.1-4.4-1.1-6.5-1-.9-1.4-1.5-.8-1.2.6.3.2-.3-.8-1.3-2.1-1.9-3.7-2.2-3.7-.8zm-493.3 1.5c-.3.8.3 3.2 1.4 5.3 1.1 2.1 1.7 4.3 1.5 5-.3.7-.1 1.5.4 1.8.6.4 1 .1 1-.5s.5-.8 1-.5c.6.3 1-.1 1-.9s-.5-1.8-1.1-2.1c-.6-.4-.8-1.3-.5-2 .3-.8 0-1.6-.7-1.9-.7-.4-.2-.4 1.1-.2 1.2.2 2.2 0 2.2-.5s-.4-.9-.9-.9-1.3-.9-1.6-2c-.7-2.3-4-2.7-4.8-.6zm368.3-.5c0 .6-.7 1.1-1.5 1.1-1.7 0-1.8.6-.5 3.5.5 1.1.9 1.4.9.7.1-.7.5-1.1 1-.7.5.3 1.3 0 1.7-.6.4-.8.3-.9-.4-.5s-1.2.1-1.2-.8c0-.8.5-1.6 1.2-1.8.9-.3.9-.6 0-1.2-.7-.4-1.2-.2-1.2.3zm5.6 1.3c-.9 1-1.6 2.2-1.6 2.6.1.4.9-.3 1.9-1.5 1-1.2 2.1-2 2.4-1.7.3.3.7.1 1.1-.4 1-1.7-2.2-.9-3.8 1zm140.8 1.4c.1 4.2 2.2 6.6 3.7 4.3 1.3-2 1.1-2.5-1.4-5.5l-2.4-2.7.1 3.9zm-154.5 1.5l-2.4 2 2.6-1.5c1.4-.9 2.9-1.3 3.4-.9.4.5.5.2.1-.5-.9-1.6-1-1.6-3.7.9zM15 396c0 .5.5 1 1.1 1 .5 0 .7-.5.4-1-.3-.6-.8-1-1.1-1-.2 0-.4.4-.4 1zm539.2 1c-1 1.6-1 2 .1 2 .7 0 1.3-.9 1.4-2 .1-1.1.1-2 0-2s-.8.9-1.5 2zm54.8 0c-.8.5-1 1-.5 1 .6 0 .3.5-.5 1-.9.6-1 1-.3 1 .6 0 1.3.7 1.5 1.5.2 1 .7 1.2 1.8.5 1.2-.8 1.3-1.2.2-1.9s-1-.9.3-1.5c.9-.3 1.3-1 1-1.6-.8-1.2-1.6-1.2-3.5 0zm-94 1.1c0 .5-.4.8-.9.4-.5-.3-1.3 0-1.7.6-.4.8-.3.9.4.5s1.2-.3 1.2.1c0 .5.7 1.8 1.6 2.9 1.4 1.8 1.4 1.8.3-.5-.9-2-.9-2.3.4-1.8 1.1.4 1.3 0 1-1.4-.6-2-2.3-2.7-2.3-.8zm166.5-.1c-.3.5-.1 1 .4 1 .6 0 1.1-.5 1.1-1 0-.6-.2-1-.4-1-.3 0-.8.4-1.1 1zm-667.2.8c-.5.4-.9 1.9-.9 3.4.1 2.1-.1 2.5-1.2 1.6-1-.9-1.2-.8-1 .3.2.8-.3 1.3-1.2 1.1-.8-.2-1.2 0-.7.4.4.4-.2 1.7-1.3 2.9-1.9 2-1.9 2.3-.5 2.9.9.3 1.3 1 1 1.6-.4.6-1.1.8-1.6.4-1.6-.9-3.9 5.8-2.7 8 .7 1.3.7 1.6-.1 1.2-.6-.4-1.1 0-1.1.8 0 .9-.6 1.6-1.2 1.6-.9 0-.8.4.2 1 1.3.8 1.3 1.1.1 1.9-.8.5-1 1.4-.5 2.2.4.7.7 3.7.6 6.6 0 2.9.4 5.5.9 5.9.6.4.6 1.1-.2 2-.6.8-.9 1.7-.5 2.1.3.3.6.1.6-.5 0-1.6 2.7-1.5 3.3 0 .3 1 1 .8 2.3-.5 1-.9 1.4-1.7.9-1.7-.6 0-1.1-1.6-1.3-3.6-.1-1.9-.7-4.4-1.2-5.4-.7-1.3-.7-2.1 0-2.5.5-.3 1-2 1-3.8 0-5.1.4-7.7 1.2-7.7.4 0 .7-.3.6-.8-.3-1.6 1.6-6.8 3.2-8.7 1-1.1 2-2.9 2.2-4 .1-1.1.6-2.2 1-2.5.4-.3.9-1.7 1.2-3.2.4-2.7-1.1-4.2-3.1-3zm-4 11.3c.4 1.6.3 1.8-.9.8-.7-.6-1.1-1.5-.8-2 .8-1.3 1.1-1.1 1.7 1.2zM8 415.4c0 .3-.4.8-1 1.1-.5.3-1 .1-1-.4 0-.6.5-1.1 1-1.1.6 0 1 .2 1 .4zm500.8-15.7c.7.3 1.6.2 1.9-.1.4-.3-.2-.6-1.3-.5-1.1 0-1.4.3-.6.6z"/><path d="M617.5 399.9c-.3.5-.2 1.2.3 1.5.5.3.9-.1.9-.9 0-1.7-.3-1.9-1.2-.6zm-12.8 2c-.4 1.7-.3 2.1.5 1.3.5-.5.8-1.6.6-2.3-.3-.8-.7-.3-1.1 1zm77.8.1c-.5 1.4-.8 2.9-.7 3.4.2.5-.4.6-1.2.3-1.3-.5-1.4-.3-.3 1.3.6 1.1 1.4 2 1.7 2 1.7-.1 3-2 3.4-4.8.2-1.7 0-2.9-.4-2.7-.5.3-1-.1-1.3-.7-.2-.7-.8-.2-1.2 1.2zm-175.5.5c0 .9.6 1.2 1.5.9.8-.4 1.5-1 1.5-1.5s-.7-.9-1.5-.9-1.5.7-1.5 1.5zm-3.9.4c-.9.6-.7 1 .8 1.4 1.2.3 2.1.1 2.1-.3 0-1.4-1.5-1.9-2.9-1.1zm36 .7c0 1.1.3 1.4.6.6.3-.7.2-1.6-.1-1.9-.3-.4-.6.2-.5 1.3zm113.7.6c.2 1.1 1.1 2.2 1.8 2.5.8.3 1.1.9.9 1.4-.7 1 2.3 5.9 3.6 5.9.5 0 .2-1.1-.7-2.5-.9-1.4-1.4-3.2-1-4 .3-.9.2-1.3-.4-1-.6.3-1-.3-1-1.3 0-1.1-.8-2.2-1.9-2.5-1.4-.3-1.7 0-1.3 1.5zm-376.8.4c0 .8.5 1.2 1 .9.6-.3 1-1 1-1.6 0-.5-.4-.9-1-.9-.5 0-1 .7-1 1.6zm285.1 1c0 1.1.3 1.4.6.6.3-.7.2-1.6-.1-1.9-.3-.4-.6.2-.5 1.3zm44.9-1.2c0 .2.6 1.6 1.4 3 1.3 2.6 1.4 2.7 1.9.4.4-1.2.4-2.4.2-2.7-.3-.2-.5.1-.5.8 0 .7-.5.9-1 .6-.6-.4-.8-1.1-.5-1.6.4-.5.1-.9-.4-.9-.6 0-1.1.2-1.1.4zm-41.2 3.5c-1.5 1.8-1.5 2.1 0 3.3 1.3 1.1 1.5 1.1.9-.4-.3-1 0-2.4.9-3.3.9-.8 1.2-1.5.7-1.5s-1.6.9-2.5 1.9zm-69.8.7c0 .9-.5 1.2-1.2.8-.7-.4-.8-.3-.4.4 1.1 1.9 3.2 1.4 3.3-.8.1-1.1-.2-2-.8-2-.5 0-.9.7-.9 1.6zm20.6-.8c-.3.5.1.9.9.9s1.2-.4.9-.9c-.3-.4-.7-.8-.9-.8-.2 0-.6.4-.9.8zm89.8 2.2c0 1.3.4 1.6 1 1 .7-.7.7-1.3 0-2-.6-.6-1-.3-1 1zm-64.7.4c-.3.8.2 1.6 1.4 1.9 1.7.5 1.8.3.7-1.1-.7-.9-1.3-1.8-1.4-2-.1-.2-.4.4-.7 1.2zm141.3.1c-.5.6-.5 1.6 0 2.5 1.3 2 1.2 3.3 0 2.5-1.3-.8-1.3-.3.1 3.2.8 2.3.8 2.6-.2 1.5-.7-.6-1.7-1.2-2.3-1.2-.5 0-.6.3-.3.7.4.3.1 1.3-.6 2.1-.8 1.1-.8 1.4 0 .9.6-.4 1.4-.1 1.6.5.4 1 .6 1 .6 0 .1-1 .4-1 1.6.2.8.8 1.5 1.7 1.5 2.1 0 .9-3.4.2-4.1-.9-.4-.5-1.2-.5-1.8-.1-.9.5-.9 1.1.1 2.3 1 1.2 1 1.4.1.8-.8-.4-1.3-.1-1.3.8s-.4 1.6-.8 1.6c-1.2 0-1.3 5.1-.2 6.5.8.9.6 1.4-.4 1.8-1 .4-1.3.1-.9-.9.7-1.8-.4-1.8-2.3 0-.8.8-1.1 2.2-.8 3 .3.9.1 1.6-.5 1.6s-1.1.8-1.1 1.7c0 1-.7 2.7-1.5 3.7-1.7 2.2-2 5.6-.6 5.6.5 0 1.3-.9 1.6-2 .4-1.1 1.1-1.7 1.7-1.4.6.4.8.2.4-.4-.3-.6.4-1.8 1.6-2.6 1.2-.9 1.6-1.6.9-1.6-1.1 0-1.1-.3-.1-1.5.7-.8.9-1.5.6-1.5-.4 0 .9-1.6 2.8-3.6 2.9-3 3.4-4.1 2.9-6.8-.3-2.1-.1-3.6.7-4.1.9-.5 1.1-.4.6.3-.4.7-.1 1.2.8 1.2 1.6 0 2.4-1.9 3.1-7.4.3-2.1.1-3.5-.4-3.2-.5.3-.8-.5-.7-1.8 0-1.3.4-2.2.7-2 .3.2.6-.9.5-2.5-.1-2.8-1.9-3.7-3.6-1.6zm-2.5 22.4c.3.5.2 1.2-.3 1.5-.5.3-.9-.1-.9-.9 0-1.7.3-1.9 1.2-.6zm-111-20.9c-.3.5.1 1 1 1s1.3-.5 1-1c-.3-.6-.8-1-1-1-.2 0-.7.4-1 1zm41.2.1c.7.7 1.5 1 1.8.7.3-.3-.2-.9-1.2-1.2-1.4-.6-1.5-.5-.6.5zm-2.7.9c0 .5.5 1 1.1 1 .5 0 .7-.5.4-1-.3-.6-.8-1-1.1-1-.2 0-.4.4-.4 1zm-120.9 1.6c0 1.1.3 1.4.6.6.3-.7.2-1.6-.1-1.9-.3-.4-.6.2-.5 1.3zM687 414c0 .5.7 1 1.5 1s1.5-.5 1.5-1c0-.6-.7-1-1.5-1s-1.5.4-1.5 1zm-75.9 1.6c0 1.1.3 1.4.6.6.3-.7.2-1.6-.1-1.9-.3-.4-.6.2-.5 1.3zm-152 1c0 1.1.3 1.4.6.6.3-.7.2-1.6-.1-1.9-.3-.4-.6.2-.5 1.3zm106.5-.7c-.4.5.3.7 1.4.4 2.3-.6 2.6-1.3.6-1.3-.8 0-1.7.4-2 .9zm23.9.1c-.3.5.1 1 .9 1s1.8-.5 2.1-1c.3-.6-.1-1-.9-1s-1.8.4-2.1 1zm71 .8c-.5.4-1.1 2.2-1.2 4.1-.1 1.9-.9 4.1-1.7 5-1.1 1.2-1.2 2.1-.5 3.1.9 1.3 1 1.2.6-.2-.3-.9.3-2.4 1.3-3.3 1-.9 1.6-2.3 1.3-3.1-.3-.8-.1-1.4.4-1.4s1-1.1 1.1-2.5c.2-2.7.2-2.8-1.3-1.7zm4 .2c-.3.5-.1 1 .4 1 .6 0 1.1-.5 1.1-1 0-.6-.2-1-.4-1-.3 0-.8.4-1.1 1zm-181.5.4c0 .2.7.7 1.6 1 .8.3 1.2.2.9-.4-.6-1-2.5-1.4-2.5-.6zm-6 3.1c1 1.2 1 1.5 0 1.5-.8 0-1.1.3-.7.6.3.3 1 .3 1.6 0 1.2-.8.3-3.6-1.1-3.6-.6 0-.5.6.2 1.5zm105-1.1c0 .2.7.7 1.6 1 .8.3 1.2.2.9-.4-.6-1-2.5-1.4-2.5-.6zm-77.3 1.3c-.4.3-.7 1.1-.7 1.7 0 .6.5.5 1.2-.2.6-.6.9-1.4.7-1.7-.3-.3-.9-.2-1.2.2zm87.3 1.4c0 .5.5.7 1 .4.6-.3 1-.8 1-1.1 0-.2-.4-.4-1-.4-.5 0-1 .5-1 1.1zm-121.1.6c-.1.5-.1 1.1 0 1.5 0 .5-.6.8-1.4.8-.8 0-1.5.7-1.5 1.6 0 .8-.4 1.3-.9.9-.5-.3-1.2-.1-1.6.4-.3.6-1.2.8-1.9.5-1.9-.7-3.1 1.5-1.7 2.9.8.8 1.1.6 1.2-.9 0-1 .3-1.3.6-.6.3.9 1.3.6 3.6-1 1.8-1.2 3.4-2.6 3.5-3 .2-.5.8-.6 1.2-.3.5.3 1.2 0 1.6-.6.5-.8.3-.9-.6-.4-1 .6-1.2.4-.7-.8.3-1 .2-1.7-.3-1.7-.6 0-1.1.3-1.1.7zm77.4 2.3c-.1 1.1.2 1.8.8 1.5 1.1-.7 1.2-3.5.1-3.5-.4 0-.8.9-.9 2zm-335.3.1c0 .5-.4.7-1 .4-.5-.3-1 .1-1 .9 0 2.3 2.5 1.9 2.7-.4.1-1.1 0-2-.3-2-.2 0-.4.5-.4 1.1zm-5.2.6c.7.3 1.6.2 1.9-.1.4-.3-.2-.6-1.3-.5-1.1 0-1.4.3-.6.6zm231.2-.3c0 .2.7.9 1.5 1.6 1.3 1.1 1.4 1 .9-.4-.5-1.4-2.4-2.3-2.4-1.2zm14.1.1c.1 1.9 1.8 5.1 1.8 3.5 0-.8-.4-2.2-.9-3-.5-.8-.9-1.1-.9-.5zm81.5 2c.4.8.8 1.5 1 1.5.2 0 .4-.7.4-1.5s-.4-1.5-1-1.5c-.5 0-.7.7-.4 1.5zm21.2.2c.7.3 1.6.2 1.9-.1.4-.3-.2-.6-1.3-.5-1.1 0-1.4.3-.6.6zm-543.7 2.2c-1.1.7-.9 1.1.8 2 1.4.8 2.1.8 2.1.1 0-.5-.5-1-1.1-1-.5 0-.7-.5-.4-1 .8-1.2.4-1.2-1.4-.1zm499.4.2c-.4.6-.5 1.2-.2 1.5.2.3.7-.2 1-1.1.7-1.7.1-2-.8-.4zm37-.1c-.3.5-.1 1 .4 1 .6 0 1.1-.5 1.1-1 0-.6-.2-1-.4-1-.3 0-.8.4-1.1 1z"/><path d="M458.2 430.9c-.8.4-1.4 1.2-1.3 1.7 0 .5-1.1.8-2.5.7-1.8-.1-2.4.3-2.4 1.8 0 1-.5 1.9-1.1 1.9-.5 0-.7-.5-.3-1.2.4-.6.3-.8-.4-.4-.5.3-1.3 0-1.5-.6-.4-.9-.6-1-.6-.1-.1.6.4 1.5.9 1.8.6.3 1 1.6 1 2.8 0 1.5-.3 1.8-.8.9-.7-.9-1.3-.8-2.6.7-1 1.1-1.5 2.5-1.1 3 1.1 1.9 2.4 1.2 2-1-.3-1.5 0-1.9 1.1-1.5.9.3 1.8.6 2 .6 1.5 0 0 2.2-2.1 3.2-1.5.7-2.4 1.7-2.1 2.5.3.8-.1 1.6-.9 1.9-.7.3-1.1 1.2-.8 2 .3.8-.2 2.3-1.1 3.3-1.6 1.7-1.6 1.9.4 2.4 1.1.3 1.7.1 1.4-.4-.3-.6.6-.8 2-.5 1.4.3 2.6 0 2.6-.5s-.5-.9-1.2-.9-.6-.5.4-1.3c.9-.6 1.9-2.5 2.2-4 .4-1.5 1.1-2.5 1.7-2.2.5.4 1.6.1 2.4-.5.8-.7 1.5-.9 1.5-.5s1.1-.4 2.5-1.9c2.5-2.7 4.9-3.4 6-1.7.3.6-.4.8-1.5.6-1.1-.2-2 0-2 .6 0 .5.5.9 1.1.9.5 0 .8.4.5.9-.4.5.3.7 1.3.4 1.1-.3 2.1-1.3 2.4-2.2.3-1.3 1.2-1.6 4.1-1.3 2 .2 3.9.8 4.2 1.4.3.5 1.2.4 2.2-.4 1.3-1.1 1.4-1.1.8 0-.6 1 0 1.2 2.8.7 2.3-.5 3.6-.3 3.6.4 0 .6-.7.8-1.5.5-1.8-.7-1.9.3-.2 2 1.4 1.4 2.4.8 4.5-2.9 1.1-1.9 1.1-1.9 1.2.2 0 1.3.5 2.3 1.1 2.3.6 0 .9.9.6 2-.4 1.6.2 2.2 2.6 2.9l3.2.8-2.4 1c-2.4 1-2.4 1 .7 1.6 1.8.4 3.2 1.1 3.2 1.7 0 .6-.6.8-1.2.4-.7-.4-.3.4 1 1.8 1.2 1.3 1.9 2.8 1.5 3.3-.5.4-.2.5.5.1s1-1.1.7-1.6c-.3-.5-.1-1.1.3-1.4.5-.3.7-1.7.5-3.1-.3-1.3-1-2.2-1.5-1.9-1.6 1-2.7-1.8-1.5-3.7 1.4-2.2 3.9-.6 3 1.8-.5 1.2-.1 1.4 1.5.9 2.7-.9 5.7 1.8 6.4 5.6.5 2.9-.8 3.9-1.8 1.4-.3-.8-1.2-1.2-2-.9-.8.3-1.4-.1-1.4-1.1s.6-1.3 1.8-.9c1.6.5 1.6.5 0-1.2-2.1-2.2-3.7-1.3-3 2 .3 1.6 1.1 2.5 2.3 2.5 1.1 0 2.2.7 2.5 1.5.4.8 1.1 1.2 1.7.8.6-.4.8 0 .4 1-.3.9-.1 1.9.5 2.3.6.4.8.3.4-.4-.3-.6 0-1.7.7-2.4 1.2-1 1.2-1.5 0-2.6-.7-.7-1.3-1.9-1.2-2.5 0-.9.2-.8.6 0 .2.7 1.1 1.3 1.9 1.3.8 0 1.4.5 1.4 1 0 .6 1.2 2.3 2.6 3.7 1.5 1.4 3.2 4 4 5.7.8 1.9 1.3 2.4 1.4 1.3 0-.9.8-1.8 1.8-1.9.9 0 2.3-.2 3.1-.2 2.7-.2 2.2-2.3-.9-3.6-1.6-.7-3-1.7-3-2.2 0-.5-.4-.6-1-.3-.6.4-1-.5-1-2 0-2-.4-2.6-1.5-2.1-.8.3-2.1-.2-3-1-.9-.9-2.2-1.3-3-1-.8.3-1.4.2-1.4-.2.4-2.7-.3-4.2-2.2-4.2-1.1 0-1.7-.5-1.4-1 .3-.6-.1-1-.9-1-.9 0-1.6-.5-1.6-1 0-.6-.6-1-1.4-1-.8 0-1.6-.7-2-1.5-.3-.8-1.1-1.4-1.8-1.3-.7.2-1.2-.2-1.1-.9.2-.7-.3-1-1.1-.7-.7.3-1.9-.2-2.6-1.1-1.5-1.8-3.4-2-2.5-.3.4.7 0 .5-.8-.5-.8-.9-2.4-1.7-3.6-1.7-1.2 0-3.1-.5-4.1-1-1-.6-3-1.1-4.4-1.2-1.5-.1-2.6-.7-2.6-1.3 0-.5-.5-.3-1.1.5-.7 1.1-1.2 1.2-1.5.3-.3-.7-1.2-.9-2.1-.6-1 .4-1.4.2-.9-.5.3-.6.1-1.4-.5-1.8-.7-.4-.9-.3-.6.3.8 1.2-1.7 2.5-2.8 1.5-.4-.4-1-.7-1.3-.7-.4-.1-2.3-.4-4.3-.8-3.1-.6-3.6-1.1-3.3-3.2.1-1.4.2-2.5.1-2.5s-.8.4-1.5.9zm1.6 5.7c3.4 1 2.6 1.9-1.5 1.7-5.1-.2-5-.2-3.3-1.3 1.8-1.1 1.8-1.1 4.8-.4zm-7.1 2.9c0 .8-.4 1.2-.9.9-.4-.3-.8-.9-.8-1.5 0-.5.4-.9.8-.9.5 0 .9.7.9 1.5zm17.3-.1c0 .2-.9.6-2 .9-1.1.3-1.8.1-1.4-.4.5-.9 3.4-1.3 3.4-.5zm-12 5.2c0 .2-.7.4-1.5.4s-1.5-.4-1.5-1c0-.5.7-.7 1.5-.4.8.4 1.5.8 1.5 1zm36.1 1.4c.6 0 .7.4.4 1-.6.9.8 1.4 2.8 1.1.4 0 .7.3.7.9 0 .5-.4 1-.9 1s-1.6.3-2.5.6c-1 .4-1.6.1-1.6-.9 0-.9-.8-2.4-1.7-3.3-1.7-1.7-1.7-1.8 0-1.1 1 .4 2.3.7 2.8.7zm-46.6 5c.3.5.1 1-.4 1-.6 0-1.1-.5-1.1-1 0-.6.2-1 .4-1 .3 0 .8.4 1.1 1zm70.8 10.7c-.7.2-1.3.9-1.3 1.4 0 .6.5.7 1 .4.6-.3 1-.1 1 .4 0 1.4-1.7 1.4-2.5.1-.8-1.3.3-3 1.8-2.9.9 0 .9.2 0 .6zm3.2 5.3c.3.5.1 1-.4 1-.6 0-1.1-.5-1.1-1 0-.6.2-1 .4-1 .3 0 .8.4 1.1 1zM385 432.1c0 .5.5.7 1 .4.9-.6 1.4.8 1.1 2.8-.1.5.3.6.9.2.5-.3 1-.1 1 .4 0 .6.9 1.1 2 1.1s2 .5 2 1.2c0 .6.3.9.6.5.3-.3 1.8.5 3.2 1.8 1.9 1.8 2.8 2.1 3.4 1.2.7-1 1.1-.5 1 1.3 0 .3.6 1 1.3 1.7 1 .9 1.7.8 3.4-.3 1.1-.8 2.1-2.1 2.1-2.7 0-.7-.4-.6-1 .3-.7 1.2-1.3.9-3.4-1.5-1.5-1.7-2.6-2.4-2.6-1.6 0 1-.5.8-1.7-.5-1-1.1-2.5-1.8-3.5-1.6-1 .2-1.9-.5-2.3-1.8-.3-1.1-1-1.8-1.4-1.5-.5.2-1.7-.2-2.7-1-2.3-1.7-4.4-1.9-4.4-.4zm215-.1c0 1.3 1.8 2.2 2.4 1.1.3-.5-.1-1.1-.9-1.5-.8-.3-1.5-.1-1.5.4zm27 .5c0 .8.2 1.5.4 1.5s.6-.7 1-1.5c.3-.8.1-1.5-.4-1.5-.6 0-1 .7-1 1.5zm30-.5c0 .5.5 1 1.1 1 .5 0 .7-.5.4-1-.3-.6-.8-1-1.1-1-.2 0-.4.4-.4 1zm-61 1.9c0 .6.4 1.3 1 1.6.6.3.7-.1.4-.9-.7-1.8-1.4-2.1-1.4-.7zm-215 1.9c0 1.5.4 2 1.6 1.5.9-.3 1.2-.9.7-1.2-.4-.3-1.1-1-1.5-1.5-.5-.5-.8 0-.8 1.2zm207.8-1.1c.7.3 1.6.2 1.9-.1.4-.3-.2-.6-1.3-.5-1.1 0-1.4.3-.6.6zm14.3.9c0 1.1.3 1.4.6.6.3-.7.2-1.6-.1-1.9-.3-.4-.6.2-.5 1.3zm60 1.1c1.2 1.5 1.2 1.6-.3 1-1-.3-2-.1-2.4.5-.4.7-.3.8.4.4.8-.5 1.2 0 1.2 1.3 0 1.4.5 1.9 1.5 1.5.8-.4 1.5-1.8 1.5-3.3.1-2.5.1-2.5 1.5-.7.8 1.1 1.5 1.5 1.5 1 0-1.6-2.3-3.4-4.3-3.4-1.7 0-1.8.2-.6 1.7zm-151.6.2c-.3.5 0 1.3.6 1.7.7.4.9.3.5-.4-.3-.5 0-1.3.6-1.5.9-.4 1-.6.1-.6-.6-.1-1.4.3-1.8.8zm75.1-.1c-.2.4-.1 1.4.5 2.2.7 1.2.9 1 .9-.8 0-2.3-.5-2.8-1.4-1.4zm-574.2 2.8c-.6 2.5 1.2 5.2 2.6 3.7.3-.3-.1-.8-.7-1-1.5-.5-1.7-3.3-.3-3.3.6 0 1-.5 1-1 0-2.1-2-.9-2.6 1.6zm557.6-1.5c0 .5.5.7 1 .4.6-.3 1-.8 1-1.1 0-.2-.4-.4-1-.4-.5 0-1 .5-1 1.1zm-189.4 1.8c-.3.5.1 1.2 1 1.5 2.2.8 2.5.4.9-1.1-.8-.7-1.6-.9-1.9-.4zm135.5 0c-.8.6-.9 1.1-.3 1.5.6.3 1.4.1 1.7-.5.9-1.4.2-2-1.4-1zm75.9.6c-.7.9-1.9 1.4-2.6 1.1-2.1-.8-2.5.9-.8 3 1 1.2 1.4 1.4 1.1.4-.2-.8.8-2.4 2.2-3.7 1.4-1.2 2.3-2.3 2-2.3-.4 0-1.2.7-1.9 1.5zm-367.4 2.2c-.6 1.4-.5 1.5.5.6.7-.7 1-1.5.7-1.8-.3-.3-.9.2-1.2 1.2zm280.9-.7c-.3.5.1 1 .9 1 .9 0 1.6-.5 1.6-1 0-.6-.4-1-.9-1-.6 0-1.3.4-1.6 1zm-128 1.1c-1.7.6-1.7.8-.2.8.9.1 1.7.6 1.7 1.2 0 .5-.3.8-.7.6-.5-.3-1.4.1-2.1.9-1 1.1-1 1.4.1 1.4 1.9 0 4-2.5 3.5-4.3-.2-1-.9-1.2-2.3-.6zm189.1.8c-.4.5.3.7 1.4.4 2.3-.6 2.6-1.3.6-1.3-.8 0-1.7.4-2 .9z"/><path d="M469.6 445.3c.3 1 .9 1.5 1.2 1.2.3-.3 0-1.1-.7-1.8-1-.9-1.1-.8-.5.6zm182.8-.5c.3.5 0 1.3-.6 1.5-.9.4-1 .6-.1.6 1.7.1 2.5-1.6 1.2-2.5-.7-.4-.9-.3-.5.4zM8.5 446.9c-.3.5-.1 1.2.5 1.6.5.3 1-.1 1-.9 0-1.8-.6-2.1-1.5-.7zm216.9.5c.4 1.1 0 2.4-1.1 3.3-1.6 1.3-1.6 1.3.5.3 2.5-1.2 2.6-1.8 1.1-4-.9-1.2-1-1.2-.5.4zm-212.4.7c0 .5.5.7 1 .4.6-.3 1-.8 1-1.1 0-.2-.4-.4-1-.4-.5 0-1 .5-1 1.1zm453 0c0 .5-.4.7-1 .4-.5-.3-1-.1-1 .4 0 1.2.6 1.3 3.7.5 1.3-.4 2-1 1.7-1.5-.7-1.3-3.4-1.1-3.4.2zm105.6-.3c.6.4 1.4 1.4 1.7 2.2.4 1 .6.8.6-.8.1-1.5-.5-2.2-1.6-2.2s-1.4.3-.7.8zm73.4.8c0 1 .5 2.6 1 3.4.8 1.1.9.7.4-1.5-.8-3.7-1.4-4.5-1.4-1.9zm-423.9 1c0 1.1.3 1.4.6.6.3-.7.2-1.6-.1-1.9-.3-.4-.6.2-.5 1.3zm253.9.6c0 1.7.2 1.8 1.5.8.8-.7 1.5-1.4 1.5-1.5 0-.2-.7-.5-1.5-.9-1-.4-1.5.1-1.5 1.6zm117.5-1.2c-.3.5-.2 1 .3 1 .6 0 .9.7.8 1.6-.1 1.9 3 2.8 4.1 1.2.3-.6.1-.8-.4-.5-.6.4-1.4-.4-1.7-1.8-.7-2.6-2-3.2-3.1-1.5zm24.5-.1c-2.4.7-2.4.7-.3 1.3 1.4.4 2.4.1 2.7-.8.3-.8.4-1.4.3-1.3-.1.1-1.3.4-2.7.8zM7 450.6c0 .8.5 1.2 1 .9.6-.4.8-1.1.5-1.6-.9-1.4-1.5-1.1-1.5.7zm366.7.5c-.4 1.3-1 1.8-1.8 1.3s-1-.3-.4.5c.8 1.3-.5 4.5-3.8 9.3l-1.8 2.7-2-2c-1.1-1.1-2.7-1.8-3.4-1.5-.9.3-1.2 0-.8-1 .4-1-.3-1.4-2.4-1.4-1.6 0-3 .6-3.1 1.2-.1.7-.5 2.8-.8 4.6-.6 2.9-.4 3.2 1.6 3 1.3-.2 2.5.3 2.8 1.1.3.9 0 1.1-.9.6-1.1-.6-1.1-.5-.2.5 1.4 1.5 9.9 2.1 13.1.9 1.7-.7 2.2-.5 2.3.9.1 1.1.4.8.9-.8.7-2.5-1.3-5.5-3.1-4.5-1.3.9-2.2-1.6-1-2.8.9-.9 1.4-.8 2.1.3.8 1.2 1 1 1-.8 0-1.5-.4-2.1-1.1-1.6-.7.4-1 .1-.7-.7.3-.8 1.4-1.3 2.4-1.1 1.4.2 1.5 0 .6-.6-1.9-1.3-.4-4.4 1.8-3.7 1.3.4 1.8.1 1.6-.9-.1-.9-.5-1.8-.8-2.2-.4-.3-.4-1.2-.1-2 .3-.8.1-1.4-.5-1.4-.5 0-1.2.9-1.5 2.1zM358 464.5c0 1.2-1.9 1.2-2.3 0-.4-.9-.1-1.2.9-.8.7.3 1.4.7 1.4.8zm5.5 1.5c.3.5.2 1-.4 1-.5 0-1.3-.5-1.6-1-.3-.6-.2-1 .4-1 .5 0 1.3.4 1.6 1zm3.5 1.4c0 .3-.4.8-1 1.1-.5.3-1 .1-1-.4 0-.6.5-1.1 1-1.1.6 0 1 .2 1 .4zm6 1.2c0 .2-.7.4-1.5.4s-1.5-.4-1.5-1c0-.5.7-.7 1.5-.4.8.4 1.5.8 1.5 1zm80.6-18c-.3.8-.2 1.2.4.9.6-.3 1 0 1 .9 0 .8-.6 1.7-1.2 1.9-.8.3-.7.6.4.6.9.1 2-.4 2.3-.9.4-.6 1.2-.7 1.8-.3.7.3.4-.3-.6-1.4-.9-1.1-1.4-2.3-1-2.6.3-.4-.1-.7-.9-.7-.9 0-1.9.7-2.2 1.6zm5.9-.6c.3.5.8 1 1.1 1 .2 0 .4-.5.4-1 0-.6-.5-1-1.1-1-.5 0-.7.4-.4 1zm26-.1c-.3.5-.2 1.2.3 1.5.5.3.9-.1.9-.9 0-1.7-.3-1.9-1.2-.6zm101.1 0c-.3.4.6 1.3 1.9 1.9 3 1.4 3.1 1.2.5-1-1-1-2.2-1.4-2.4-.9zm-115.8.8c.7.3 1.6.2 1.9-.1.4-.3-.2-.6-1.3-.5-1.1 0-1.4.3-.6.6zm139.8.9c-1 2.7-.7 4.4 1 4.4 1 0 1.4-.6 1.1-1.4-.3-.8-.1-1.6.5-1.8.6-.2.4-.9-.5-1.6-1.2-1-1.6-.9-2.1.4zm-403.9 1.1c.4 1.1.3 1.4-.5.9-.7-.4-1.2-.3-1.2.2 0 1.1 3 2.5 3.8 1.7.3-.3 0-.5-.7-.5-.9 0-.9-.5-.1-2 .8-1.6.8-2-.4-2-1 0-1.3.6-.9 1.7zm270.8-.8c.3.5-.2 1.2-1 1.4-1.2.4-1.2.5.1.3 1.9-.1 3.2-2.6 1.4-2.6-.6 0-.9.4-.5.9zm170.4 1.8c-1.3 1.6-1.2 1.7.4.4 1.6-1.3 2.1-2.1 1.3-2.1-.2 0-1 .8-1.7 1.7zM484 454c0 .5.5 1 1.1 1 .5 0 .7-.5.4-1-.3-.6-.8-1-1.1-1-.2 0-.4.4-.4 1zm91.5 0c-.3.6.1.7.9.4 1.8-.7 2.1-1.4.7-1.4-.6 0-1.3.4-1.6 1zm11.5.5c-1.4 1.6-.3 2 1.9.6.8-.5.9-1.1.3-1.5-.5-.3-1.5.1-2.2.9zm-575.4.8c.3 1 .9 1.5 1.2 1.2.3-.3 0-1.1-.7-1.8-1-.9-1.1-.8-.5.6zm580.4.1c0 .9-.4 1.5-.9 1.1-.5-.3-1.2-.1-1.6.5-.4.6.4 1 1.9 1 1.6 0 2.3-.5 2.2-1.5-.3-2.2-1.6-3.1-1.6-1.1zm74 0c0 .9 3 1.4 3.5.6.4-.6-.3-1-1.4-1-1.2 0-2.1.2-2.1.4zM478 457c0 .5.5 1 1.1 1 .5 0 .7-.5.4-1-.3-.6-.8-1-1.1-1-.2 0-.4.4-.4 1zm14.3.5c-1.7 1.9-1.6 2.1.7 2.1 1.3 0 2-.7 2-1.8 0-2.1-1-2.3-2.7-.3zm-297.7.3c-.2.4.4.8 1.5.8 1 0 1.9-.4 1.9-.8s-.6-.8-1.4-.8c-.8 0-1.7.4-2 .8zm22.4.7c0 .8.4 1.5 1 1.5.5 0 .7-.7.4-1.5-.4-.8-.8-1.5-1-1.5-.2 0-.4.7-.4 1.5zm265.4-.1c-.9 1-.7 1.6.8 2.5 1.2.7 1.7.8 1.3.2-.3-.6-.2-1.1.3-1.1s.9-.7.9-1.5c0-1.8-1.8-1.9-3.3-.1zm4.3-.8c-1.1 1.1.3 2.4 1.8 1.8.8-.4 1.2-1 .9-1.5-.6-1.1-1.8-1.2-2.7-.3zm97.3.2c0 1 2.9 4.9 3.1 4.2.9-2.9.4-5-1.2-5-1.1 0-1.9.4-1.9.8zm82 .3c0 .5-.4.7-1 .4-.5-.3-1-.1-1 .5s-.7 1.9-1.6 2.7c-.8.9-1.3 2.4-1.1 3.5.3 1 .2 1.6-.2 1.4-.3-.2-1.1.7-1.8 2-.6 1.3-.7 2.4-.3 2.4 1.3 0 .4 3.4-1.6 6.4-1.5 2.4-1.5 2.6 0 2 .9-.3 1.3-1 1-1.5-.3-.5 0-.9.5-.9.6 0 1.1-.7 1.1-1.5s.7-1.5 1.6-1.5c1.4 0 1.4-.3.4-1.5-.7-.9-.8-1.5-.2-1.5 1.1 0 4-5.7 4.5-8.8.2-1.2.6-2.5 1-2.8 1-1.1.9-2.4-.3-2.4-.5 0-1 .5-1 1.1zm-225 1.4c-.7.9-1.1 1.7-.9 2 .3.2 1-.5 1.7-1.5 1.4-2.4 1-2.6-.8-.5zm-263.5.3c1.5 1.1 1.4 5.1-.2 4.5-2.3-.9-1.4 1.2 1 2.3 1.9.9 2.4.8 2.4-.5 0-.9-.5-2.2-1.1-3-.9-1.2-.7-1.3.8-.8 1.4.6 1.7.4 1.2-.9-.3-.8-.6-1.8-.6-2 0-.2-1-.4-2.2-.4-1.3 0-1.8.4-1.3.8zm265 3.3c-.4.6-.4 1.3-.1 1.6.3.4.6.1.6-.6s.5-.9 1-.6c.6.3 1 .1 1-.4 0-1.4-1.7-1.4-2.5 0zm145.7-.2c-1.1.6-.9.9.6 1.3s1.9.2 1.5-.8c-.6-1.6-.4-1.6-2.1-.5zM235 464.1c0 .5.5.7 1 .4.6-.3 1-.8 1-1.1 0-.2-.4-.4-1-.4-.5 0-1 .5-1 1.1zm216.1.6c.7 1 1.4 2 1.6 2.2.1.2.1-.6 0-1.8-.1-1.1-.8-2.1-1.5-2.1-1.2 0-1.2.3-.1 1.7zm-441.1.4c0 .5.5.7 1 .4.6-.3 1-.8 1-1.1 0-.2-.4-.4-1-.4-.5 0-1 .5-1 1.1zm185 .2c0 1 .8 1.7 1.8 1.7.9 0 1.3-.4.7-.8-.5-.4-1.3-1.1-1.7-1.6-.5-.5-.8-.2-.8.7zm300-.3c2 1.3 4 1.3 4 0 0-.6-1.2-1-2.7-1-2.2 0-2.5.2-1.3 1z"/><path d="M446.8 466.6c2.4 1.7 3 3.9.8 3.1-.8-.3-1.7.1-2 .9-.3.8-1 1.4-1.5 1.4-.6 0-.8-.7-.5-1.5.4-.8.1-1.5-.5-1.5s-1.1-.7-1.1-1.5-.4-1.5-.8-1.5c-1.4 0-4.2 3.5-4.2 5.3 0 .9-1 2.6-2.2 3.8-1.3 1.2-1.7 1.9-1 1.5.6-.4 1.2-.2 1.2.3 0 .6.6 1.1 1.3 1.1 1.7 0 1.6 4.2-.3 6.6-1.4 1.9-1.4 1.9.8 0s2.2-1.9 2.3 0c0 1.6.2 1.5 1-.5.7-1.7.5-3.2-.6-5.4-1.7-3.4-2-5-.5-2.7.9 1.3 1 1.3 1 0s.1-1.3 1 0c.6.9 1 1 1 .3s1.3-1 3.5-.8c1.9.2 3.3-.1 3-.6-.3-.4.6-.2 2.1.6 1.5.7 3.3 1.1 4.2.8.8-.4 1.3-.2 1 .3-.4.5 1.5.9 4.2.9s5.7.6 6.7 1.4c1.7 1.3 1.7 1.3.1.8-2.1-.8-2.4.8-.4 1.6.8.3 2 0 2.6-.8 1.4-1.7 3.7-.9 4.3 1.3.3 1.3.6 1.2 1.4-.7.8-2 1.1-2.1 1.6-.8.4 1 1.6 1.7 2.7 1.7 1.7 0 2 .4 1.5 2-.3 1.1-.1 2.8.5 3.7.8 1.3 1 1.4.9.3-.3-2.8.1-3.8 1.6-4.4.8-.3 1.4 0 1.2.7-.1.7.4 1.1 1.2.9 1.1-.2 1.3.7.9 4.5-.3 2.6-.4 4.1-.1 3.2.2-1 1.4-2 2.6-2.3 3.3-.9 3.7-.8 3.8 1.1 0 1 .3 1.3.5.7.3-.7 2.5-.1 6.1 1.8 4.3 2.2 5.8 2.6 6.9 1.7.8-.6 1.4-1.6 1.4-2.1 0-.6-.7-.5-1.5.2-1.2 1-1.5 1-1.5-.2 0-1.8-3.3-4.6-6.5-5.4-2.2-.5-2.4-.9-1.3-2.2 1-1.2 1-1.4.1-.9-.7.5-2.5.1-4.1-.7-1.6-.8-3.3-1.2-3.7-.8-.5.4-.6 0-.2-.9.4-1.3.1-1.6-1.3-1.2-1.2.3-2.9-.5-4.4-2-1.4-1.4-2.6-2.1-2.8-1.7-.6 1.6-6-.3-6.8-2.4-.7-1.9-.9-1.9-1.5-.4-1 2.5-2.2 1.4-3-2.9-.4-2.4-.9-3.2-1.5-2.3-.6 1-1.3.9-3.1-.5-1.5-1-1.7-1.5-.7-1.2 1 .4 1.9.3 2.2-.1.3-.4-.9-.9-2.5-1-1.6-.1-2.9.3-2.9.8 0 .6-.4.9-.9.5-.6-.3-1.5.4-2.1 1.6-.7 1.1-1.4 1.8-1.7 1.5-.4-.3-1.2-.1-2 .5-1 .9-1.3.6-1.2-1.2 0-1.3.3-1.9.6-1.2.7 1.9 4.3-.7 4.3-3.1 0-1.1-.3-1.6-.7-1.2-.5.4-.8 1.3-.8 1.9 0 1.9-5.8 1.5-7.9-.5-1.1-1-2.4-1.8-3-1.8-.6 0 0 .7 1.2 1.6zm17.9 6.3c0 1.1-.5 1.7-.9 1.5-1.1-.7-1-3.4.1-3.4.6 0 .9.9.8 1.9zm4.3 1.1c0 1.1-.4 2-.9 2s-.7-.9-.4-2c.3-1.1.7-2 .9-2 .2 0 .4.9.4 2zm116-8c0 .5.5 1 1 1 .6 0 1 .5 1 1.1 0 .6-.6.7-1.2.2-.7-.4-.5.5.5 2 .9 1.4 1.7 2.9 1.7 3.3 0 .3-.8.3-1.7-.1-1.3-.4-1.5-.3-.7.5.7.7 1.9.7 3.4.2l2.4-.9-2.2-1.2c-1.2-.7-2-1.6-1.7-2.2.8-1.2-.4-4.9-1.6-4.9-.5 0-.9.4-.9 1zm57.2.2c-.7.7-1.2 1.6-1.2 2.1s.7.1 1.6-.8c.9-.9 1.4-1.8 1.2-2-.2-.3-1 .1-1.6.7zm-404.7.9c-.4.6-.5 1.2-.2 1.5.2.3.7-.2 1-1.1.7-1.7.1-2-.8-.4zm357.1 1.1c.9 1.6 2.4 2.8 3.3 2.7 1.3 0 1.3-.2.1-.6-.8-.4-2.3-1.6-3.3-2.7-1.8-2.1-1.8-2-.1.6zm8.4-.7c0 .8.4 1.5 1 1.5.5 0 .7-.7.4-1.5-.4-.8-.8-1.5-1-1.5-.2 0-.4.7-.4 1.5zm-594.5.6c-1.1 1.6-.1 1.9 1.3.3.7-.8.8-1.4.3-1.4s-1.3.5-1.6 1.1z"/><path d="M600.2 469.6c.2 1.9-.1 2.8-1 2.6-.6-.1-1.2.3-1.2.9 0 .6.8.9 1.8.7 1.8-.3 2.6-5.5.9-6.5-.5-.3-.7.8-.5 2.3zm-422.2-.1c.7.9 1.5 1.3 1.7 1.1.7-.7-.7-2.6-1.9-2.6-.6 0-.6.6.2 1.5zm-166.5.5c.3.5.8 1 1.1 1 .2 0 .4-.5.4-1 0-.6-.5-1-1.1-1-.5 0-.7.4-.4 1zm363.1-.2c-.9 1.5 1.9 3.9 3.9 3.2 1.9-.7 1.9-.7-.3-1.4-1.2-.4-2-1.2-1.7-1.7.4-.5.2-.9-.4-.9-.5 0-1.2.3-1.5.8zm142.4.2c0 .5.5 1 1.1 1 .5 0 .7-.5.4-1-.3-.6-.8-1-1.1-1-.2 0-.4.4-.4 1zm46 2.1c0 .5.5.7 1 .4.6-.3 1-.8 1-1.1 0-.2-.4-.4-1-.4-.5 0-1 .5-1 1.1zm46 0c0 .5.5.7 1 .4.6-.3 1-.8 1-1.1 0-.2-.4-.4-1-.4-.5 0-1 .5-1 1.1zm-15.1.6c0 .4-.2 1.6-.4 2.5-.2.9.3 1.9 1.1 2.2 1 .4 1.4-.2 1.4-1.9 0-2.2-1.9-4.7-2.1-2.8zM420 474c-.8.5-1 1-.3 1 1.5 0 .4 4-1.3 4.7-.8.3-1.4 1.3-1.3 2.2 0 1 .2 1.1.6.3.2-.6.9-1.2 1.4-1.2.6 0 .7.4.4 1-.9 1.4.8 1.3 2.3-.2 1.5-1.5 1.6-3.1 0-2.2-.8.5-.9.2-.4-1.2.5-1 .9-2.5.9-3.2 0-.7.6-1.1 1.4-.8.7.3 1.3.1 1.3-.4 0-1.3-3.1-1.3-5 0zm57 0c0 .5.5 1 1.1 1 .5 0 .7-.5.4-1-.3-.6-.8-1-1.1-1-.2 0-.4.4-.4 1zm161.5 0c.3.5.8 1 1.1 1 .2 0 .4-.5.4-1 0-.6-.5-1-1.1-1-.5 0-.7.4-.4 1zm-253.4.9c-.7.5-2.1.6-3.1.4-1-.3-2.1 0-2.4.6-.4.7.1 1.1 1.4 1.1 1.2 0 1.9.4 1.5.9-.3.5-.1 1.2.5 1.6.5.3 1-.1 1-1.1 0-1.3.3-1.4 1.4-.5 1.2 1 1.4.8 1-1.1-.4-2.1-.4-2.1.5-.3.5 1.3.5 2.5-.3 3.4-.8 1.1-.8 1.3.2.7.8-.5 1.2-.1 1.2 1.3 0 1.1.5 2.3 1.2 2.7.8.5.9.2.5-.9s-.1-1.7.7-1.7c.8 0 1.6.7 2 1.5.3.9 1.2 1.2 2.2.8 1.2-.4 1.5-.3 1 .5-.9 1.6.5 1.5 2.6-.2 2-1.5.6-3.6-2.4-3.6-1 0-1.8-.7-1.8-1.6 0-1.2-.7-1.5-2.5-1.2-1.3.3-2.2.2-2-.2.8-1.3-3-3.9-4.4-3.1zM7 476.3c0 .9.5 1.9 1 2.2.6.4.9 2 .6 3.6-.2 1.6 0 2.7.5 2.3.5-.3.9 0 .9.5 0 .6.5 1.1 1 1.1.7 0 .7-.7 0-2-.6-1.1-.8-2.5-.5-3 .4-.6-.3-2.2-1.4-3.6-1.5-1.9-2.1-2.2-2.1-1.1zm226.3.2c0 .8.3 1.3.5 1 .3-.3 1.1.3 1.9 1.3 1.3 1.5 1.3 1.5.3-.5-1.3-2.8-2.7-3.7-2.7-1.8zm350.7-.8c0 .6-.8 1.3-1.7 1.5-1.6.3-1.6.4-.2 1 2.3.9 4-.4 2.9-2.2-.6-.9-1-1-1-.3zm62 .1c0 .4 1.1.9 2.6 1 1.4.1 2.3-.2 1.9-.8-.7-1.2-4.5-1.4-4.5-.2zm-633.9 1.8c0 1.1.3 1.4.6.6.3-.7.2-1.6-.1-1.9-.3-.4-.6.2-.5 1.3zm631.7-.4c-.3.7.5 2.2 1.6 3.4l2.2 2.1 1.1-2.3c.8-1.8.8-2.1-.5-1.7-.8.4-2-.1-2.7-1.1-.9-1.2-1.4-1.3-1.7-.4zm-111.3.7c-.3.6 0 .8.9.5.8-.3 3.1.3 5.3 1.4 2.1 1.1 4.3 2.1 4.8 2.3.6.2.9 1 .9 1.6-.1.7.2 1.3.6 1.3.5 0 1.1-.6 1.3-1.3.3-.7.6-.4.6.6.1 1 .5 1.5 1.1 1.2 1.3-.8 7.1 2.6 6.4 3.7-.3.5-1.1.6-1.7.2-.7-.3-.4.1.5.9 1 .8 1.4 1.8 1 2.3-.4.4.1.2 1.1-.5 1.6-1.3 2.5-.2 1 1.3-1.2 1.2-1 3 .6 4.2 1.2.9 1.1 1.6-.2 4.5-.8 1.9-1.8 4.4-2.2 5.6-.3 1.3-1.2 2.3-2 2.3-1.8 0-7.5 5.5-7.5 7.3 0 1.7-1.6 2.5-4.7 2.2-1.8-.1-2 .1-1.2 1.2.7.8 1.7 1 2.7.4.8-.5 2.3-.6 3.2-.4 1.4.4 1.7 0 1.3-1.9-.4-2 0-2.3 2.8-2.5 3-.2 3.1-.2 1.3 1.3-1.8 1.4-1.8 1.5.4.4 1.5-.7 2.2-2 2.2-4 0-2.2.5-3 1.8-3 .9 0 2.3-.9 3-2 1.3-2.1 4.7-2.7 5.7-1 .4.6 1.1.7 1.7.4.6-.4.5-.9-.3-1.5-2.1-1.3-.4-2 2.3-1 1.7.6 2.7 2 3.1 4 .5 2.4 1 2.9 2.3 2.4 1.2-.4 1.5-.3 1 .5-.4.7-.2 1.2.4 1.2.7 0 1 .6.7 1.4-.3.8.1 1.7.9 2 2.4.9 2.7.7 1.4-.9-.6-.8-1-2-.7-2.7.4-.9.6-.8.6.3.1.9 1.7 2.7 3.6 4 1.9 1.3 3.8 3.2 4.1 4.1.3 1 .8 1.7 1.2 1.5 1-.3 5.2 4.1 5.2 5.4 0 .8.6.7 1.8-.2.9-.7 1.4-1 1-.5-.3.4.1 1.6 1 2.5 1 1 2.4 2.7 3.2 3.9.8 1.2 2 2.2 2.8 2.2.7 0 1.1.3.9.7-.2.5.6 1.9 2 3.3l2.4 2.5-.4-3.6c-.5-4.8-1.3-5.8-4-5.3-1.2.2-1.6.2-.9-.2.6-.3 1.2-1.3 1.2-2.2 0-1.5-.2-1.5-1-.2-.7 1.2-1 1.2-1 .1 0-.7-1.1-2.6-2.5-4.3-1.4-1.6-2.5-2.4-2.5-1.8 0 .6-.6 1-1.2.7-.7-.2-1.2-1-1-1.6.1-.7-.2-1-.8-.6-2 1.2-3.2-.7-1.3-2.1 1.7-1.2 1.6-1.4-1.4-2.6-1.8-.7-3.3-1.8-3.3-2.5 0-.6-.5-1.5-1.2-1.9-.8-.5-.9-.2-.5.9s.1 1.7-.8 1.7c-.8 0-1.2-.6-.9-1.4.5-1.3-4.1-7.6-5.4-7.5-2.1.3-3.3-.3-3-1.4.3-1.4-3.7-6.7-6.2-8.2-.8-.4-.4.4.9 1.8 1.9 2.1 2.1 2.7.9 2.7-.9 0-1.9-.7-2.2-1.6-.3-.8-1.1-1.2-1.7-.8-.8.4-.9.3-.5-.4.5-.8-.3-1.2-2.2-1.2-2.2 0-3.1-.6-3.5-2.3-.6-2.2-.6-2.2.9-.2 1.4 1.9 1.4 1.7 1-1.8-.3-2.1-1-4.4-1.6-5.2-.6-.7-1.3-2.3-1.5-3.6-.5-2.7-2.5-5-2.5-2.9 0 .9-.6.6-1.6-.8-.9-1.3-2.2-2.1-3-1.8-.8.3-1.4.1-1.4-.5s-.7-.8-1.6-.5c-1 .4-1.3.2-.8-.6s.2-.9-1.1-.5c-.9.4-2.4.2-3.2-.5-1.9-1.6-9.9-2.2-10.8-.9zm27.5 14.2c0 .5-.4.9-1 .9-.5 0-1-.7-1-1.6 0-.8.5-1.2 1-.9.6.3 1 1 1 1.6zm19 20.4c0 .8-.2 1.5-.4 1.5s-.6-.7-1-1.5c-.3-.8-.1-1.5.4-1.5.6 0 1 .7 1 1.5zM564.5 479c.3.5.8 1 1.1 1 .2 0 .4-.5.4-1 0-.6-.5-1-1.1-1-.5 0-.7.4-.4 1z"/><path d="M529 480.1c0 .5-.9.9-2 .9-1.4 0-1.8.5-1.4 1.7.5 1.5.3 1.5-1.1-.2-1.1-1.2-1.6-1.4-1.3-.5.6 1.8-1.9 3.9-4.7 4-1.6 0-1.7.2-.5.9.8.6 1.8.7 2.2.5.4-.3.8 0 .8.5 0 1-1.4 1.5-3.2 1.2-.5 0-.8.6-.8 1.5 0 .8-.4 1.2-1 .9-.5-.3-1-.2-1 .4 0 .5.5 1.1 1.1 1.3.8.3.6 1-.5 2-1.1 1.2-1.3 1.9-.5 2.4.6.3 1.5 0 2-.7.6-1 .9-1.1.9-.2 0 .7.8 1.3 1.8 1.3 1.4 0 1.5.2.2 1-2 1.3-.4 1.3 2.1-.1 1.3-.6 1.8-1.6 1.5-2.6-.4-.9-.2-2.1.2-2.7 1.1-1.4 2.3-4.6 1.7-4.6-1 0-3.3 6.3-2.8 7.7.4 1.1.3 1.4-.6.9-1.4-.9-1.1-6.7.3-7.8.6-.4.4-1.4-.5-2.4-1.3-1.6-1.2-1.6.8-.6 3.1 1.7 4.1 1.5 4.8-.8.3-1.1 1.3-2 2-2 .8 0 1.8-.8 2.4-1.7.7-1.3 1.2-1.4 2.3-.6 1.1 1 1.4.8 1.5-.7.1-1.4-.5-1.8-3.3-1.8-1.9 0-3.4.4-3.4.9zm52-.1c0 .5.5 1 1.1 1 .5 0 .7-.5.4-1-.3-.6-.8-1-1.1-1-.2 0-.4.4-.4 1zm-569 1.9c0 1.1.4 2.2.9 2.5.4.3.6-.6.3-1.9-.5-3-1.2-3.3-1.2-.6zm224.5.1c-.4.6-.1.9.7.8.7-.2 1.2.3 1 1-.1.8.2 1.1.8.7.5-.3 1-.1 1 .5s.4.9.8.6c.4-.2 1.6.8 2.7 2.4 1.1 1.6 2.8 3.3 4 3.9 1.1.6 3 1.8 4.3 2.7 2.3 1.7 2.3 1.7 1.1-.9-.7-1.6-2-2.7-3.1-2.7-1.2 0-1.7-.4-1.2-1.2.5-.7.2-.9-.7-.6-.8.3-2-.1-2.7-.8-.7-.8-1-1.4-.6-1.4s-.1-.9-1.1-2-2.4-2-3.2-2c-.7 0-1.3-.5-1.3-1 0-1.3-1.7-1.3-2.5 0zm351.7-.1c-1 .6-1 1 .2 2s1.5.9 1.3-.8c-.1-1.2-.1-2.1-.2-2.1 0 0-.6.4-1.3.9zm66.8 1.5c0 .8-.6 1.6-1.2 1.9-.7.2-1 .8-.5 1.2.4.5 1.4 0 2.2-1.1 1.7-2.3 1.9-3.4.5-3.4-.5 0-1 .6-1 1.4zm-189 .6c0 .5.5 1 1.1 1 .5 0 .7-.5.4-1-.3-.6-.8-1-1.1-1-.2 0-.4.4-.4 1zm111.8 1.5c-.4.4-.4 1.4-.1 2.3 1 2.7 4.3 4.4 4.3 2.2 0-.6-.5-.9-1.2-.8-.6.2-1.4-.7-1.7-2-.3-1.3-.9-2.1-1.3-1.7zm56.9 1.5c-.3 1.1-.2 2 .3 2 .4 0 1-.9 1.3-2 .3-1.1.2-2-.3-2-.4 0-1 .9-1.3 2zm-364.5 1.5c.3 1.4.2 2.5-.2 2.5s-.6 1-.5 2.2c.1 1.3-.4 3.8-1.1 5.7-1.6 3.8-1.7 4.4-.6 3.8 1.4-.9.5 16.9-1.1 21.9-1.7 5.2-3.5 14.2-4.2 20.9-1.3 11.9-1.7 14.4-3 19-.8 2.7-1.7 7.7-2.1 11-.4 3.3-1 7-1.5 8.2-.5 1.4-.5 2.3.1 2.3 1.6 0 2.1-1.8 2.6-9.2.3-4 1.3-9.3 2.1-11.8 1.7-4.9 1.9-5.9 3.2-17.6.5-4.4 2.1-12.5 3.4-18 1.6-6.3 2.7-14.5 3.2-22.4.3-6.9.8-14.4 1-16.8.2-2.5 0-4.2-.7-4.2-.6 0-.8 1.1-.6 2.5zm318.6-1.8c.7.3 1.6.2 1.9-.1.4-.3-.2-.6-1.3-.5-1.1 0-1.4.3-.6.6zM11.5 489c.3.9-.2 2.5-1.1 3.6-1.5 1.8-1.5 1.8-.4-.3.8-1.8.8-2.2-.4-1.7-.8.3-1.3 1.3-1.1 2.2.2.9.4 2.1.4 2.7.1.5 1 0 2.2-1.1 2.4-2.5 3.2-7.1 1.2-7.1-.8 0-1.1.7-.8 1.7zm425.5.5c0 .8.4 1.5 1 1.5.5 0 .7 1.3.4 3-.4 1.7-.2 3 .4 3 1.2 0 1.3 5.1 0 6.7-.5.7-.6 2.2-.2 3.5 1.1 3.3.6 17.1-.6 17.8-.6.4-.3 1.3.8 2.3 1.9 1.7 1.9 1.3 1.7-14.5-.2-24.1-.3-24.8-2-24.8-.8 0-1.5.7-1.5 1.5zm148 .5c-2.5 2.5-2.5 3.6-.2 4.5 3.5 1.6 4 1.3 3.6-1.3-.3-1.4-.8-3-1.1-3.6-.4-.6.1-.5 1 .3 1.5 1.2 1.7 1.2 1.1-.3-.8-2.1-2-2-4.4.4zm-9.7 1.9c-1 1.6-.9 1.9.5 1.7.9-.2 1.6-.6 1.5-1-.6-2.3-.9-2.4-2-.7zm-563.8 4.7c-1.7 1.3-1.8 1.6-.5 2.4.8.6 1 1 .3 1-1.4 0-.5 3.6 1.3 5.1 1.1.9 1.4.7 1.4-1.2s-.2-2.1-1-.9c-.8 1.3-1 1.2-1-.3 0-.9.5-1.7 1-1.7.6 0 .9-1.4.8-3-.1-1.7-.2-3-.3-3 0 0-.9.7-2 1.6zm472.2 1.8c-.3.8-.2 1.8.3 2.1 1.3.8 2-.9 1.1-2.4-.6-1-1-.9-1.4.3zm105.8 1.6c-.3.5-.1 1 .4 1 .6 0 1.1-.5 1.1-1 0-.6-.2-1-.4-1-.3 0-.8.4-1.1 1zm-71.8 2.1c.7.7 1.5 1 1.8.7.3-.3-.2-.9-1.2-1.2-1.4-.6-1.5-.5-.6.5zm-3.3 1.5c.9.8 1.4 2 1.1 2.5-.4.5.1.6 1 .2 1.3-.5 1.4-.7.3-1.4-.7-.5-.8-.9-.3-.9.6 0 .3-.5-.5-1-2.4-1.5-3.3-1.2-1.6.6zm-14.6 1.1c.7.3 1.6.2 1.9-.1.4-.3-.2-.6-1.3-.5-1.1 0-1.4.3-.6.6zm-485.4 2.4c-.3.6-.1 1.4.5 1.8.6.4.9 1.5.6 2.3-.4.9-.2 1.9.4 2.2 1.7 1.1 2.1-.9.6-3.7-.7-1.4-1.1-2.8-.7-3.1.3-.3.3-.6-.1-.6-.3 0-.9.5-1.3 1.1zm450.4.1c-.3.7-.1 2.4.3 3.8.6 2.2.7 2 .8-1.3.1-3.8-.3-4.7-1.1-2.5zm57.5 1.5c.5 2.2-.8 3.3-1.5 1.4-.1-.5-.8-.3-1.5.4-1.7 1.9.9 2.8 3.2 1.1 1.5-1.1 1.6-1.6.6-3.2-1.2-1.8-1.2-1.8-.8.3zm38.7.3c-.8.5-1.1 1.2-.7 1.6.4.4 1.3.2 1.9-.4 1.5-1.5.7-2.4-1.2-1.2z"/><path d="M265.2 514.5c0 1.6.2 2.2.5 1.2.2-.9.2-2.3 0-3-.3-.6-.5.1-.5 1.8zm260.3-.4c-.4.6-1.3.8-2.1.5-.7-.3-1.6-.2-1.8.3-.3.4 0 .8.7.8s2 .4 2.9.8c1.3.5 1.7.2 1.5-1.4-.1-2.4-.3-2.5-1.2-1zm-513.8 1.3l-2.8 1.2 3.1 4.2c1.6 2.3 3.2 4.2 3.5 4.2.2 0 1.4-1 2.5-2.3 2.1-2.2 2.2-2.2 3.6-.3 1 1.4 1.4 1.6 1.4.5 0-.8-1.4-2.2-3.1-3.2-1.9-1-2.9-2.3-2.6-3.1.4-1.1-1.6-3-2.6-2.5-.1 0-1.5.6-3 1.3zm3.3.6c0 .5-.5 1-1.1 1-.5 0-.7-.5-.4-1 .3-.6.8-1 1.1-1 .2 0 .4.4.4 1zm1.6 4.5c-1.1.8-1.5 1.9-1.1 2.7.7 1.1.6 1.1-.6 0s-1.1-1.5.5-2.8c1.1-.8 2.2-1.4 2.5-1.4.3 0-.2.7-1.3 1.5zm542.8-5c-1 .8-1.4 1.4-.9 1.5 1.5 0 4-1.8 3.4-2.4-.3-.3-1.4.1-2.5.9zm73.6-.5c0 .5.5 1 1.1 1 .5 0 .7-.5.4-1-.3-.6-.8-1-1.1-1-.2 0-.4.4-.4 1zm-141 2c.6 1.1 1.2 2 1.4 2 .2 0 .2-.9-.1-2-.3-1.1-.9-2-1.5-2-.5 0-.4.9.2 2zm71.2 0c-.6 1-.8 2.1-.3 2.4.5.3 1.1-.4 1.4-1.6.8-2.9.4-3.2-1.1-.8zm-97.7 3.5c0 1.9.5 3.5 1 3.5.6 0 1-.5.9-1-.1-.6-.2-2.1-.2-3.5-.3-3.8-1.7-3-1.7 1zM528 518c0 .6.3.9.8.9 1.9-.3 3.3.2 2.7 1.1-.8 1.2 2.5 1.3 4.4.1.8-.5.9-1.1.3-1.5-.6-.3-1.4-.1-1.8.5-.5.8-.9.8-1.4-.2-1-1.5-5-2.3-5-.9zm105 0c-.9.6-1 1-.3 1 .6 0 1.5-.5 1.8-1 .8-1.2.4-1.2-1.5 0zm-75.8 1.2c-1.5 1.5-1.6 3.5-.1 4 1.4.5.1 3.5-1.6 3.5-.8 0-1.7-.7-1.9-1.4-.3-.8-.2-1.2.2-.9.4.2.9-.5.9-1.7.2-2 .1-1.9-2.2.5-1.6 1.8-3.1 2.5-4.5 2.1-1.2-.3-2 0-2 .7s-.8 1-2 .7c-1.1-.3-1.7-.1-1.4.4.3.5 2.2.8 4.2.5 2-.2 4.9.3 6.3 1 1.5.7 2.9 1 3.3.7.3-.4.6-.1.6.6 0 .8.6 1.1 1.6.7.8-.3 1.3-.2 1 .3-.3.4.5 1.7 1.7 2.8 2.6 2.4 6.1 2.7 5.2.6-.3-.8-.5-1.7-.5-1.9 0-.3-.4-.3-.9 0-.5.4-.7-.2-.5-1.1.3-1.2-.3-2.2-1.8-2.8-1.3-.6-2.1-1.4-2-1.9.2-.5-.2-1.2-.9-1.6-.6-.4-1.2-2.2-1.3-3.9 0-1.7-.1-3.1-.1-3.1-.1 0-.6.5-1.3 1.2zm-76.7.8c-.3.6.1 1.3 1 1.6 2.1.9 2.6.2 1-1.3-.9-.8-1.6-.9-2-.3zm92.5-.1c0 .6.4 1.3 1 1.6.6.3.7-.1.4-.9-.7-1.8-1.4-2.1-1.4-.7zm55 .3c0 .4.4.8.9.8.6 0 1.2-.4 1.5-.8.3-.5-.1-.9-.9-.9s-1.5.4-1.5.9zm-210.9 1.4c0 1.1.3 1.4.6.6.3-.7.2-1.6-.1-1.9-.3-.4-.6.2-.5 1.3zM389 523c-.6 1.1-.8 2-.6 2 .3 0 1-.9 1.6-2 .6-1.1.8-2 .6-2-.3 0-1 .9-1.6 2zm98-.1c0 1.1-.6 2.2-1.2 2.4-.8.3-.6.6.5.6 1.2.1 1.7-.7 1.7-2.4 0-1.4-.2-2.5-.5-2.5s-.5.9-.5 1.9z"/><path d="M18.7 524.4c-.4 1-.1 1.3.8.9.8-.3 1.2-.9.9-1.4-.7-1.2-1.1-1.1-1.7.5zm543.9.2c-.8 2.1-.8 3.4.2 3.4.4 0 .9-1.1 1-2.5.2-2.8-.3-3.2-1.2-.9zm8-.1c-.3.9-1.1 1.3-1.7.9-.8-.5-.9-.3-.4.5.6 1 1.1.9 2.3-.3.9-.8 1.3-1.8 1-2.1-.3-.3-.8.1-1.2 1zm-522.4 1c-.7.8-.9 1.5-.4 1.5s1.5-.7 2.2-1.5c1.6-1.9-.1-1.9-1.8 0zm340.5 1.2c-.4.3-.7 1.1-.7 1.7 0 .6.5.5 1.2-.2.6-.6.9-1.4.7-1.7-.3-.3-.9-.2-1.2.2zm92.9.8c.4.9-.3 2.3-1.7 3.5-1.3 1-1.8 1.9-1.1 2 .6 0 1.2-.5 1.2-1 0-.6 1.2-.3 2.8.6 1.8 1.1 2.1 1.1 1 .2-1.7-1.4-1.7-1.6.1-2.4 1.9-.9 1.8-1-.5-2.7-1.9-1.4-2.3-1.5-1.8-.2zm-67.6.6c0 .5.5.7 1 .4.6-.3 1-.8 1-1.1 0-.2-.4-.4-1-.4-.5 0-1 .5-1 1.1zm154.8 0c-1 .5-1.8 2.1-1.8 3.4 0 2.6 1.5 4.1 2.4 2.6.4-.5.2-1.2-.4-1.6-1.6-1-1.2-2.5.5-1.9.8.4 1.5 1.4 1.6 2.3 0 1.2.2 1.2.9-.4.5-1.1.9-1.4.9-.8.1 2.1 3.1 1.4 3.1-.7 0-1.4-.5-1.8-1.7-1.3-1 .4-1.4.2-1-.4.4-.6 0-1.4-.9-1.7-1.9-.7-1.5-.8-3.6.5zm-552.5 2.7c0 1.2.5 2.2.9 2.2 1.1 0 1-1.2-.2-3-.7-1.2-.9-1-.7.8zm381.5-.3c.6 1.1 1.1 2.4 1.2 3 .3 1.7 1 1.9 1 .4 0-.9-.7-2.4-1.6-3.5-1.5-1.9-1.5-1.9-.6.1zm40.7 1.5c-.3.5-.2 1 .4 1 .5 0 1.3-.5 1.6-1 .3-.6.2-1-.4-1-.5 0-1.3.4-1.6 1zm151.1.7c-.6 1.4-.5 1.5.5.6.7-.7 1-1.5.7-1.8-.3-.3-.9.2-1.2 1.2zm-575.9 1.7c-.3.7.4 1.8 1.4 2.4 1.3.8 1.9.9 1.9.1 0-.5.5-.7 1-.4.6.3 1 .3 1-.2 0-.4-1.1-1.3-2.4-1.9-1.9-.9-2.6-.9-2.9 0zm379.5.6c0 1.4.2 1.9.5 1.2.2-.6.2-1.8 0-2.5-.3-.6-.5-.1-.5 1.3zm7.8-1.6c0 .2.8 1 1.8 1.7 1.5 1.3 1.6 1.2.3-.4s-2.1-2.1-2.1-1.3zm85.3.3c.4.3.2 1.2-.4 2-.9 1-.8 1.3.3 1.3.7 0 1.4-.9 1.5-2 .1-1.1-.3-2-.9-2-.6 0-.8.3-.5.7zm-47.6 1.7c-.3.8-.2 1.8.3 2.1 1.3.8 2.4-1.5 1.2-2.7-.6-.6-1.1-.4-1.5.6zm136.8.7c-.4.6-.5 1.2-.2 1.5.2.3.7-.2 1-1.1.7-1.7.1-2-.8-.4zm-191.4 1.5c0 1.1.3 1.4.6.6.3-.7.2-1.6-.1-1.9-.3-.4-.6.2-.5 1.3zm183 1c1.2 1.3 2.6 2.1 3.2 1.7.6-.3.7-.1.4.4-.9 1.4 3.2 6.5 4.5 5.7.7-.4.8-.2.4.4-.4.7 1.9 3.8 5.6 7.6 6.6 6.7 10 11 11.1 13.8.9 2.6 2.4 2.2 3.1-.7.4-1.4 1.1-2.3 1.6-2 .6.4.7-.1.3-1.1-.4-1.1-.8-1.3-1.1-.6-.6 2-2.2 1.3-2.3-1.1 0-1.2-.3-1.7-.5-1.1-.3.7-1.3 1-2.4.7-1.8-.5-1.8-.6.1-3.6 1-1.8 1.9-3.7 1.9-4.2-.1-.6-.7.1-1.4 1.4-.8 1.5-1.6 1.9-2 1.3-.4-.6-1.2-1-1.9-.8-.7.1-.9.1-.4-.1.4-.3.7-1.4.7-2.6 0-2 0-2-1.5-.1-1.3 1.6-1.4 1.6-.9.1.7-1.9-1.1-2.4-2-.5-.3.7-.4.4-.3-.7.1-1.2-.3-1.9-1.1-1.7-.8.1-1.1-.2-.7-.8.3-.5.1-1-.4-1-.6 0-1-.6-.8-1.3.1-.6-.4-1.1-1-.9-.7.1-1.2-.4-1-1 .1-.7-.6-1.2-1.5-1.2-1 .1-1.4-.4-1.1-1.2.3-.7-.3-2.1-1.3-3.1-1.7-1.7-1.7-1.7-1.2.4.3 1.3.2 2.3-.3 2.3s-.9-.8-.9-1.8c0-2.8-1.5-4.3-4.4-4.6l-2.7-.3 2.2 2.3zm-82.5.9c.4.9 1.3 1.4 2 1.1.8-.3 1.4-.1 1.4.5s.5.7 1 .4c1.7-1 1.1-2.6-.7-2.3-1 .1-2.4-.1-3-.5-.9-.6-1.1-.3-.7.8zm-468 .4c-.4.7-.5 1.5-.2 1.8.9.9 1.9-.4 1.4-1.8-.4-1.1-.6-1.1-1.2 0zm590.9.2c-.9 1.4-.2 2 1.4 1 .8-.6.9-1.1.3-1.5-.6-.3-1.4-.1-1.7.5zm-593.2 3c-.2 1.9 1.1 2.6 2.1 1 .3-.5 0-1.4-.7-1.9-1-.8-1.3-.6-1.4.9zm488.2-1c-.4.6-.5 1.2-.2 1.5.2.3.7-.2 1-1.1.7-1.7.1-2-.8-.4zM440 544c0 .5.5 1 1 1 .6 0 1-.5 1-1 0-.6-.4-1-1-1-.5 0-1 .4-1 1zm68.5 0c-.3.5-.1 1 .4 1 .6 0 1.1-.5 1.1-1 0-.6-.2-1-.4-1-.3 0-.8.4-1.1 1zm-492.1 1.6c-1 .8-1.4 1.3-.7 1 1.7-.9 2.7 1.2 1.3 2.9-.8 1-.9 1.9 0 3.5.6 1.1.9 2.4.6 2.8-.2.4.4.8 1.4.9 2.9.2 3.3-1.4.8-3.1-1.2-.9-1.8-1.6-1.3-1.6.6 0 1-1.8 1-4 0-4.5-.3-4.7-3.1-2.4zm582 1.5c-.3.6-.2 1.5.3 2s.9.1 1-1.1c.2-2.2-.2-2.5-1.3-.9zm-191.4 1c0 .5.5.7 1 .4.6-.3 1-.8 1-1.1 0-.2-.4-.4-1-.4-.5 0-1 .5-1 1.1zm194.7.3c-.4 1-.1 1.3.8.9.8-.3 1.2-.9.9-1.4-.7-1.2-1.1-1.1-1.7.5z"/><path d="M584.5 548.9c-.3.5-.1 1.2.4 1.5.5.3 1.1-.1 1.5-.9.6-1.6-.9-2.1-1.9-.6zm-145.5 2c0 .5.5 1.3 1 1.6.6.3 1 .2 1-.4 0-.5-.4-1.3-1-1.6-.5-.3-1-.2-1 .4zm55-.7c0 1.2 3.8 4.7 4.4 4.1.3-.3.6.1.6 1s.5 1.7 1 1.7c.6 0 1-.9 1-2 0-1.2-.7-2-1.7-2-.9 0-2.5-.7-3.5-1.7-1-.9-1.8-1.4-1.8-1.1zm-28 2.8c0 .5.5 1 1.1 1 .5 0 .7-.5.4-1-.3-.6-.8-1-1.1-1-.2 0-.4.4-.4 1zm130.6.3c.3 1 .9 1.5 1.2 1.2.3-.3 0-1.1-.7-1.8-1-.9-1.1-.8-.5.6zm-191.5 1.3c0 1.1.3 1.4.6.6.3-.7.2-1.6-.1-1.9-.3-.4-.6.2-.5 1.3zm163.5-.8c-.2.4-.1 1.4.3 2.1.6.9 1 .7 1.4-.8.5-2-.7-2.9-1.7-1.3zM35 555.5c-1.1 1.3-1.5 1.3-2.1.3-.5-.7-.9-.8-.9-.3 0 .6-2 1-4.5 1-2.5-.1-4.5.2-4.5.6 0 1.4 3.9 2 5.8 1 1.1-.6 2.4-.6 3.3 0 2 1.2 2.9 1.1 2.7-.4-.2-.6.3-1.1 1-1 .6.2 1.2-.4 1.2-1.2 0-1.9-.4-1.9-2 0zm566.7-.2c-.3.7-.2 1.9.3 2.6.5 1 .8.9 1.3-.2.3-.7.2-1.9-.3-2.6-.5-1-.8-.9-1.3.2zm-163 1.2c-.4.8-.3 1.6.1 1.9.4.3.9-.4.9-1.5.2-2.3-.3-2.5-1-.4zm154.6 1.4c-.9 1.4-.8 1.8.3 1.8 1.5 0 2.7-2.4 1.6-3.1-.5-.3-1.3.3-1.9 1.3zm-126.7.8c-.6 1.4-.5 1.5.5.6.7-.7 1-1.5.7-1.8-.3-.3-.9.2-1.2 1.2zm36.6-.2c.2 1.1-.2 1.9-.9 1.8-.7-.2-1 .4-.7 1.2.5 1.3.8 1.3 2.1 0 1.1-1.1 1.2-1.9.3-3.2-1-1.7-1-1.6-.8.2zm37.8-.5c0 .5.7.7 1.5.4.8-.4 1.5-.8 1.5-1 0-.2-.7-.4-1.5-.4s-1.5.4-1.5 1zm-140 4.5c0 .8.2 1.5.4 1.5s.6-.7 1-1.5c.3-.8.1-1.5-.4-1.5-.6 0-1 .7-1 1.5zm207 5.6c0 .5.5.7 1 .4.6-.3 1-.8 1-1.1 0-.2-.4-.4-1-.4-.5 0-1 .5-1 1.1zm-19 1.6c0 .7-.6 1.1-1.2.9-.7-.1-1-.1-.5.1.4.3.7 1.3.7 2.4 0 1 .7 1.9 1.5 1.9s1.5-.5 1.5-1.1c0-.5-.4-.7-1-.4-.5.3-1 .2-1-.4 0-.5.4-1.1 1-1.3.6-.2.6-.8 0-1.8-.6-.9-1-1-1-.3zm16 1.2c0 .5.7 1.1 1.5 1.5.8.3 1.5.1 1.5-.3 0-.5-.7-1.1-1.5-1.5-.8-.3-1.5-.1-1.5.3zm-170.5 3.7c-.9 1.5-1.2 2.3-.6 2 1.1-.7 3.5-4.6 2.8-4.6-.3 0-1.2 1.2-2.2 2.6zm149.9-1.8c-.9.5-.8 1 .1 1.9 1.1 1 1.3.9 1.2-.7-.1-1.1-.1-2-.2-2 0 0-.5.4-1.1.8zM370.5 581c.3.5.8 1 1.1 1 .2 0 .4-.5.4-1 0-.6-.5-1-1.1-1-.5 0-.7.4-.4 1zm202.2 6.1c-.3 1-.1 2.2.4 2.5.5.3.9 0 .9-.6s.3-.9.8-.7c.4.3 1.3-.1 2-.9s.9-1.4.5-1.5c-.4 0-1.5-.2-2.5-.4-.9-.2-1.8.5-2.1 1.6zm-198.2.9c-.3.5-.1 1 .4 1 .6 0 1.1-.5 1.1-1 0-.6-.2-1-.4-1-.3 0-.8.4-1.1 1zm158 14c.3.5.8 1 1.1 1 .2 0 .4-.5.4-1 0-.6-.5-1-1.1-1-.5 0-.7.4-.4 1zm18.5 2.1c0 .5.5.7 1 .4.6-.3 1-.8 1-1.1 0-.2-.4-.4-1-.4-.5 0-1 .5-1 1.1z"/></svg>