<svg version="1" xmlns="http://www.w3.org/2000/svg" width="926.667" height="824" viewBox="0 0 695.000000 618.000000"><path d="M109.9 1.4c-.2.3-1.6.7-2.9.9-4.6.9-5.4 1.2-6.7 2.4-.7.6-1.3 1.6-1.3 2.1s-1.1 1.4-2.5 2c-1.4.6-2.5 1.6-2.5 2.1 0 .6-.7.8-1.5.5-.8-.4-1.5-.1-1.5.5 0 .5-1.9 2.7-4.2 4.8-5 4.5-21.9 21.4-23.3 23.4-3.3 4.5-5.6 8.2-9 14.4-2.1 3.8-5.6 10.1-7.9 13.8-2.2 3.8-5.3 9.2-6.8 12C37 85.8 32 99.9 32 102.4c0 .9-.7 3.6-1.5 6-2 5.8-1.3 8.1 4 13.8 2.3 2.6 4.5 5.1 4.7 5.5.8 2 7 5.5 8.8 5 2.3-.6 12.7 8.8 10.7 9.7-.7.3-.1.3 1.2 0 2.1-.5 2.3-.3 1.8 1.5-.4 1.7-.3 2 .7 1.1 1-.7 1.7-.6 2.6.5.7.8.8 1.5.3 1.5s-.9.9-.9 2 .4 2 .8 2 .8-.5.8-1c0-.6.4-1 1-1 1.1 0 2.4 4.5 2.2 7.5l-.1 2 1.6-2c1.5-2 1.5-2 1 .2-.3 1.3-.1 2.3.3 2.3.9 0 .3 3.5-1.2 6.7-1.3 2.6-.5 6.3 2.1 9.4 1.6 1.9 2.2 2.2 3.2 1.1.7-.6.9-1.2.3-1.2-.5 0-1.1-1.6-1.2-3.7-.2-2-.5-4-.8-4.4-.2-.4 0-1 .5-1.4.6-.3.8-1.2.4-2-.3-.8 0-1.5.7-1.5.6 0 .8-.5.3-1.3-.8-1.3-1.1-2.4-1.6-7-.2-1.6-1.6-3.9-3-5.2-1.5-1.2-2.7-2.9-2.7-3.8 0-.9-1.1-2.9-2.5-4.4-1.9-2.1-2.3-2.3-1.8-.8.6 1.7.5 1.8-.9.5-.8-.8-1.4-2-1.1-2.6.2-.7 0-1.5-.6-1.9-.7-.3-.8 0-.5.9.7 1.9-.9 2.1-2.5.3-.8-1-.7-1.7.2-2.7 1-1 .8-1.2-.6-.6-1.4.4-2 0-2.4-1.4-.3-1.1-.9-1.7-1.4-1.4-.5.3-.9-.2-.9-1s-.9-1.8-2.1-2.1c-1.1-.4-1.8-.9-1.5-1.2.3-.3-.1-1.8-1-3.4-.8-1.6-1.4-3.1-1.3-3.5 0-.3-.3-.9-.7-1.2-.4-.4-.4-.2 0 .5.8 1.4-1 2.7-2.4 1.8-1.1-.7.5-4.5 2.4-5.7 1.4-.9 2.8.1 2.2 1.7-.2.7.1 1.6.9 1.9 1 .3 1.2-.2.6-2.2-.4-1.5-.4-4.3 0-6.2.3-1.9.7-2.9.8-2.2 0 .7.6 1 1.2.7.6-.4.8-1.4.5-2.2-.3-.8-.1-1.1.4-.8.6.3 1-.1 1-1s.5-1.3 1-1c.5.3 1 0 1-.7 0-1.9 3.7-4.1 4.3-2.5.3.7.6-.7.6-3 .1-2.3.5-4.5 1.1-4.8.6-.4.7.1.3 1.1-1.5 3.9 2.1.5 4.8-4.5 1.5-3 4.1-6.8 5.7-8.5 3-3.1 4.3-5.4 8.3-13.8 1.2-2.6 4.6-7.8 7.6-11.5 6.7-8.5 17.5-24.7 20.8-31.3 2.2-4.3 2.8-4.8 4.3-3.9 1.9 1.2 2.2 8.9.4 11.1-1.1 1.4-1.2 1.7-1.2 4.5-.1 1.7-7.6 10.8-8.9 10.8-.3 0-.5.6-.3 1.2.2.7-.2 1.3-.8 1.3-.5 0-1 .5-1 1.1 0 .6-1.1 2.5-2.5 4.3-1.4 1.8-2.5 3.8-2.5 4.5 0 2.1-3.2 6.1-4.4 5.4-.8-.5-.8-.3.1.8s.5 2.8-2 8c-1.8 3.6-3.8 8.1-4.5 10-.7 1.9-1.8 4.2-2.3 5.1-3.4 6.3-4.7 45.8-1.5 45.8.6 0 .6.4-.1 1.1-.7.7-.8 2.1-.2 4.2.5 1.7.9 4.7.9 6.6 0 4.8.4 7.3 1.5 9 .5.9.4 1.2-.3.7-.7-.4-1.1.5-1.1 2.6 0 5.4-.6 10.2-1.4 11.5-.4.6-.1 1.8.8 2.6 1.2 1.3 1.2 1.6 0 2-.7.3-1.6.1-1.9-.6-.2-.7-.5-.4-.5.6-.1 1-.6 1.5-1.1 1.2-1.3-.8-4.2 1.4-3.4 2.6.3.5 1.6.9 3 .9 1.8 0 2.3-.4 1.8-1.3-.6-.9-.5-.9.8 0 1.2 1.1 2 .8 4.7-1.8 1.8-1.7 3-3.6 2.7-4.2-.3-.8-.5-.8-.5.1-.1.7-.5 1.1-1.1.7-1-.6 2-4.4 3.1-3.9.4.2.6-1.2.4-3.1-.1-1.9.1-3.2.6-3 1.6 1.1 1.8-2.9.2-4.7-1.1-1.2-1.3-2.2-.7-2.6 1.9-1.3 2.5-4.2.8-4.2-1 0-1.3-.8-1-2.5.3-1.4.1-2.3-.5-2-.5.4-.9-.1-.9-.9 0-.9.5-1.6 1-1.6.6 0 1-.7 1-1.6 0-.8-.5-1.2-1-.9-1 .6-1.4-1.3-1.3-6.3 0-1.5-.6-2.2-2.1-2.3-1.8-.1-1.8-.2-.3-.6 1.4-.4 1.6-.8.6-1.9-.6-.8-.9-1.4-.6-1.4.3 0 .1-1.6-.3-3.5-.5-2.1-.4-3.5.2-3.5.5 0 .7-.9.3-2-1.1-3.5 1.3-14.6 2.8-13 .3.3 0 2.8-.6 5.7-1 4.7-.8 5.7 1.3 10.2 1.2 2.8 2.9 5.2 3.7 5.5.8.3 1.1 1 .8 1.6-.3.5-.2 1 .3 1s2.6 3.4 4.6 7.5c2 4.1 4 7.5 4.4 7.5.4 0 1.6 1.5 2.7 3.2 1 1.8 2.6 4 3.5 4.8 1 .8 2.4 2.8 3.3 4.5 1.8 3.6 8.3 11 6.8 7.9-1-2.1-.6-3.4 1.1-3.4.5 0 .7.4.4.8-.2.4-.1 1.4.5 2.2.7 1.2.9 1.1.9-.5-.1-1.9-3.2-6.5-4.4-6.5-.3 0-.6.7-.6 1.5s.5 1.5 1.1 1.5c.5 0 .7.5.3 1.1-.3.6-1.4-.2-2.5-2-2.1-3.5-2.5-5.6-.7-4.5.7.4.8.3.4-.5-.4-.6-1.2-.9-1.7-.6-.5.4-.9-.3-.9-1.4 0-1.2-.4-2.1-1-2.1-.5 0-1-.7-1-1.5 0-2 1.9-1.9 2.7.1.3.9 1.9 3 3.5 4.7 3.9 4.2 8.4 10.7 9.2 13.3.4 1.2 1.8 3.4 3.2 5 2.1 2.5 2 1.8-1.2-4.1-2-3.9-4.7-8.4-5.9-10-4.1-5.4-12.5-14-11.9-12.3.3 1 .2 1.8-.2 1.7-.5 0-2.6-3.6-4.8-8-2.1-4.3-4.2-7.9-4.7-7.9s-.9-.6-.9-1.3c0-.8-.7-2.9-1.6-4.7-1.2-2.4-1.9-2.9-2.5-1.9-.7 1.2-.9 1.1-1-.1-.1-.8-.1-1.9 0-2.4.1-.4-.2-1.3-.7-2-1.2-1.4-2.6-7.3-2.5-10.6.1-6.1.4-7 2.4-8.1 1.6-.8 2.3-.8 2.9.1.5.8 1 .9 1.4.2.3-.6 0-1.3-.6-1.6-.8-.4-.9-.8-.3-1.1.6-.3.9-2.2.8-4.2-.1-2.1-.2-4.6-.2-5.6-.1-.9-.7-1.7-1.4-1.7-.8 0-1.4-1.5-1.5-3.7-.2-2.1-.5-3.9-.7-4.1-.7-.7 2.5-6.2 3.5-6.2.5 0 .7.7.4 1.5-.4.8-.1 1.5.5 1.5s1.1 1 1.1 2.2c0 1.2.3 1.8.6 1.5.4-.3 1.5.5 2.6 1.8 2.1 2.7 4.8 3.3 4.8 1.1 0-.8 1.6-1.6 4-2 2.3-.3 3.8-1.1 3.5-1.6-.4-.6-1.5-.6-3.1 0-1.4.6-3 .7-3.6.4-1.3-.8 3.6-5.4 5.8-5.4 1 0 1.4-.5 1.1-1.4-.7-1.8.9-2.4 8.6-3.1 3.4-.4 8.8-1.6 12-2.7l5.9-2.1 2.3 2.9c1.3 1.6 2.7 2.6 3.1 2.2.4-.4.1-1.4-.6-2.3-1.5-1.9-.9-2.8 1.3-1.9 2.2.8 3.1 4.2 1.7 5.9-.7.8-.8 1.5-.3 1.5s.7 1.6.5 3.5c-.4 3.5-1.6 4.5-2.6 2.2-.3-.6-.3.4 0 2.3.3 2.2 0 4.2-.9 5.5-1.3 1.7-1.3 2.4 0 5.7.8 2.1 1.3 4.4 1 5.2-.3.8 0 2 .8 2.6.8.6 1.1 1.8.8 2.6-.3.7.2 1.6 1 2 .9.3 1.4 1.1 1.1 1.9-.5 1.3 2.1 4.5 3.6 4.5.5 0 .7.6.5 1.2-.7 1.9 2.1 5.1 3.6 4.2.9-.5 1-.2.6 1-.4 1-.7 2.2-.7 2.7 0 .4-.7.6-1.5.3-.8-.4-1.5-.1-1.5.6 0 .6-.4.8-1 .5-.5-.3-1-.1-1 .5 0 .7-.7.9-1.6.6-.8-.3-1.2-.2-.9.4.3.6-.1 1-.9 1-1 0-1.3.6-1 1.5.4.8.2 1.5-.4 1.5-.6 0-1.3-.6-1.5-1.3-.3-.6-.6.5-.6 2.5-.1 2.1-.5 3.8-1.1 3.8-.5 0-.7-.8-.3-1.8 1.1-3.2-.5-.8-2.1 3.2-1.4 3.3-1.4 3.7-.1 3.2.9-.3 1.5 0 1.5 1 0 .8-.4 1.3-.8 1-2.3-1.4-3.8 7.1-1.8 10.3.6 1 .5 1.2-.2.7-.7-.4-1.2-.1-1.2.9 0 .9.5 1.3 1 1 .6-.3 1 .3 1 1.4 0 1.2.4 2.1.8 2.1.5 0 1.4 2.9 2.1 6.5.7 3.5 1.9 6.9 2.6 7.5.8.6 1.2 1.7.9 2.4-.3.7.1 2.6.7 4.2 1.2 2.9 1.5 3.8 1.7 6.1.1.7.9 1 1.7.7.9-.4 1.5 0 1.5.9 0 1-.6 1.3-2.1 1-1.9-.5-2-.4-.9 1.7 1 1.8.9 2.4-.1 3.1-.7.4-1.7.5-2.1.3-.4-.3-.8 0-.8.6 0 .7.7 1 1.5.6.8-.3 1.5 0 1.6.7 0 .7.4.3.9-.8s.9-1.4.9-.8c.1.8.9.5 2.1-.7 2.8-2.8 1.9-9.1-1.2-8.5-1.2.3-1.8-.1-1.5-.8.2-.7 1-1.2 1.8-1.2 1.7 0 1.4-5.2-.4-7.4-.7-.8-1.1-1.5-.9-1.5.2-.1-.1-1.4-.7-2.9-.6-1.6-1.6-2.5-2.1-2.2-.6.4-.8 1.1-.5 1.6.4.5.1.9-.5.9-1.3 0-.3-4.3 1.1-4.8 1.3-.5-.9-4.2-2.5-4.2-.8 0-1.6-.9-1.9-1.9-.3-1.4-.1-1.8.9-1.4.8.3 1.1 1 .7 1.6-.3.6-.1.7.5.3.9-.5.9-1.3.2-2.7-.6-1.1-1.5-1.7-2.1-1.4-.5.4-.9.1-.9-.4 0-.6.4-1.1.9-1.1.4 0 .4-1.7-.2-3.8-2.1-7.8 4.8-21.2 10.9-21.2 1.2 0 2.5-.7 2.8-1.6.4-.9.9-1.4 1.3-1.1.3.4 1.4.2 2.4-.4 2.3-1.2 2.5-4.9.3-4.9-.8 0-1.2-.5-.9-1 .3-.6.1-1-.5-1s-.8-.5-.5-1c.3-.6-.1-1-.9-1-.9 0-1.5-.3-1.5-.8.4-2.2-.3-3.4-1.5-2.9-1 .4-1.3 0-1.1-1.5.3-1.4-.2-2.2-1.5-2.5-2.2-.6-2.7-2.3-.7-2.3.6 0 .4-.5-.7-1.1-1.5-.9-1.6-1.3-.5-2 1-.6 1.1-.9.2-.9-.7 0-1.3-.9-1.3-1.9 0-1.1-.5-2.3-1-2.6-.6-.4-.7-1.1-.4-1.7.4-.6.1-1.4-.7-1.8-1-.7-1-1.1 0-2.4.7-.9 1.1-2.7.9-4.1-.3-1.4-.1-2.5.3-2.5.5 0 .9-.5.9-1.1 0-.5-.6-.7-1.2-.4-.7.4-.6.1.3-.7.8-.7 1.8-2.2 2.2-3.2.7-1.8.8-1.8 2.9.3 1.6 1.8 2.2 2 2.9.9.7-1 .9-1 .9 0 0 .7.4 1 1 .7.6-.4.7.1.3 1.1-.5 1.3-.2 1.5 1.5 1 2.7-.9 6.4 2.6 5.6 5.1-.5 1.4-.4 1.5.4.4s1.1-.9 1.7.8c.3 1.1.3 2.5 0 3.1-.3.5.1 1 .9 1 1.8 0 3.2 4.3 2 6.1-.4.8-.3.9.4.5.9-.5 1.2 1.1 1.2 5.6 0 3.5.4 6.7.8 7.3 1.2 1.7 6.8 3.3 8.5 2.4 1-.6 2.5 0 4.8 2.1 1.9 1.6 4 3 4.7 3 1.5 0 1.5.4-.3 7.4-.9 3.3-1.3 6.1-1.1 6.3.3.3.1 1.5-.3 2.7-1.3 3.3.4 6.6 3.4 6.6 1.4 0 2.5.5 2.5 1.1 0 .5.4.8.9.5.5-.3 1.1.4 1.4 1.6.4 1.5-.1 2.7-1.9 4-3.4 2.7-1.8 5.7 2.7 5l3.1-.5-.7 4.2c-1.2 7.1-1.2 9.1-.3 8.5.5-.4.8.4.6 1.6-.2 1.3.2 2.5.9 2.7 1.6.6 2.7-3.5 1.4-5.1-.6-.7-1-4.2-.9-7.7l.3-6.4-3 .3-3 .4 2.3-2.4c1.2-1.4 2.2-3.3 2.2-4.5 0-2.7-3.1-5.3-6.2-5.3-3.6 0-3.9-2.4-1.8-12.1l1.9-8.2-4-4c-3.5-3.6-4.5-4.1-8.9-4.2-2.8-.1-5.5-.6-6-1.1-.6-.6-1.2-4.3-1.5-8.2-.2-4-1-8.2-1.7-9.4-.7-1.3-1.3-2.5-1.3-2.8-.1-.3-.7-1.8-1.3-3.3-.7-1.6-1.2-3.4-1.2-4.1 0-1.8-1.9-3.2-5.3-4-4.5-1.1-9.5-6.2-8.9-9.1.3-2 .1-2.4-1.7-2-1.2.2-1.9 0-1.6-.6.6-.8-.8-1.3-2.8-1-.4 0-.6-.2-.6-.6.3-2-.2-2.9-1.8-3-1-.1-3.2-.2-4.8-.4-1.7-.1-4.1.1-5.4.6-1.3.4-2.1.3-1.8-.1.3-.5-.7-1-2.1-1.1-1.5 0-2.9.3-3.2.8-.3.5-2.6 1.1-4.9 1.4-2.4.3-4.8.8-5.2 1.1-.5.3-.9 0-.9-.7s-.6-.5-1.3.6c-1.1 1.4-1.6 1.5-2.2.5-.5-.9-.9-.9-1.5-.1-.4.7-1.7 1.3-2.8 1.4-1.2.1-2.2.4-2.2.7 0 .3-1.2.6-2.6.7-1.4 0-3.1.7-3.8 1.3-.8 1-.8 1.1.4.5 1.3-.8 1.3-.7.1.8-1.9 2.4-4.5 2.1-6.1-.7-1.1-2.2-1-3.2.9-7.8 4.2-10.3 12.4-19.8 17.2-19.8 1.6 0 2.9-.4 2.9-.9s-1.6-.9-3.6-.8c-3.1.1-4.4 1-8.8 5.9C105.3 53 100 62.3 100 65.7c0 1.1-.8 1.9-1.9 2-2.3.2-1.8-2.4.7-4.5.9-.6 1.3-1.2.9-1.2-1.6 0 6.6-13 11.9-19 2.9-3.3 6.4-10.5 6.9-14 .2-1.6.6-3.4.9-3.9.8-1.3-3.2-10.1-4.7-10.2-.7 0-.3-.4.8-.9s1.5-.9 1-.9c-.6-.1-.9-1.5-.7-3.4.5-4.4-1.3-8.7-3.6-8.7-1 0-2.1.2-2.3.4zm-1.1 4c-.7.8-1.5 1.2-1.7 1.1-.5-.6 1-2.5 2-2.5.5 0 .4.6-.3 1.4zm2.4 4.6c.4 2.3.1 3-.9 2.6-.8-.4-1.1-.1-.8.5.7 1-3.8 5.9-5.3 5.9-.4 0-1.3 1.4-1.9 3.1-.7 1.8-1.7 2.8-2.3 2.4-.6-.3-1-.3-.9.2.1.4-.1 1.6-.6 2.6-.5 1.3-1 1.5-1.5.7s-.9-.7-1.3.4c-.4 1-.1 1.6.9 1.6 1.4 0 1.4.2 0 1.6-.9.8-1.6 2.1-1.7 2.7 0 .7-.4.3-.9-.8s-.9-1.4-.9-.7c-.1.7-.5 1.1-.9.8-.5-.3-.9.1-.9.9s.4 1.2.9.9c.4-.3.8-.1.8.5 0 .5-.5 1.3-1 1.6-.6.4-.7 1.1-.4 1.7.5.7.2.8-.6.3-1-.6-1.2-.4-.7.8.3.9.3 1.6-.1 1.4-.4-.1-1.7.8-2.9 2C86 45 85.4 46 85.8 46c.4 0 1.3-.5 2-1.2s1.2-.8 1.2-.3c0 1.3-3.2 4.5-4.5 4.5-.7 0-1.1 1.1-1 2.5.2 1.4-.1 2.5-.6 2.5s-.9.9-.9 2.1c0 1.3-.4 1.8-1.2 1.3-.8-.5-.9-.2-.5 1 .4 1 .3 1.5-.3 1.1-.7-.5-3.7 3.5-3.2 4.2.8 1.2-.1 2.1-1.5 1.6-1.1-.4-1.4-.3-.9.5.4.7.2 1.2-.3 1.2-.6 0-1.2 1.2-1.2 2.7-.1 1.7-.3 2.1-.6 1-.7-2.6-2.1-2.1-1.6.6.3 1.4-.2 2.9-1.1 3.6-.9.8-1.6 2.2-1.6 3.2 0 1.1-.4 1.9-1 1.9-1.5 0-1.2-2.6.4-3.9 1.6-1.4 2.7-4.9 1.7-5.5-.4-.3-1.3.9-2 2.5-1.3 3.1-2.7 3.7-3.4 1.6-.2-.6-.2-.2 0 1.1.3 2.1-.1 3-3.4 6.6-.7.8-2.1 3.1-3.2 5.2-1.2 2.2-3.2 5.2-4.6 6.8-1.4 1.6-2.5 3.2-2.5 3.5 0 .3-1.8 2.6-4 5.1-2.6 2.8-4 3.8-4 2.8 0-.9.5-2 1-2.3.6-.4.7-1.2.3-1.8-1.6-2.6 1-11.9 3.6-12.9.5-.1 1.1-1.4 1.3-2.8.4-3 2.8-5.8 4.6-5.2.6.2 1.2 0 1.2-.6s-.5-1.2-1.2-1.4c-.8-.3-.5-1.1 1-2.3 2.5-2.2 2.9-4 .7-3.1-.8.3-1.5 0-1.5-.6s-.6-.5-1.7.3c-1.5 1.3-1.5 1.2-.2-1.1 2-3.4 3.6-5 5.1-5 1.1 0 1.1-.2 0-.9-1.1-.6-.8-1.3 1.2-2.9 1.4-1.1 2.6-2.5 2.6-3.1 0-.6.5-1.1 1.1-1.1.5 0 .8-.4.5-.9-.3-.5.1-1.2 1-1.5.8-.3 1.2-.2.9.3-.3.5 0 1.3.7 1.7.7.4 1 .4.6-.1-.4-.4-.3-1.7.3-2.8.6-1 .7-1.7.2-1.4-.5.4-1 0-1-.8s.3-1.3.6-1.1c.3.2 1.2-.2 1.9-1 1-1 1-1.4.1-1.4-.7 0-.9-.3-.5-.8 1.4-1.3 3.1-.8 3.7 1.3.4 1.4.7.7 1-2.2.2-2.3.1-3.9-.3-3.7-2.9 1.8 1.6-5 8-12.1.9-1.1 2.8-3.7 4.1-5.8 2.1-3.5 3.2-4.6 3-3-.1.5-.1 1.5 0 2.3.1 1.2.4 1.1 1.2-.3.8-1.3.7-2.2-.1-3.3-1.1-1.3-.7-1.8 1.3-1.5.4 0 .7-.5.7-1.2 0-1.6 4.7-3.7 6.8-3 1.4.5 1.5.3.5-.7-1-1.1-.8-1.7.9-3.2 1.2-1 3-1.9 4.2-2 1.2 0 2.6-.2 3.2-.2.6-.1 2.2-.9 3.5-1.8 1.3-.9 2.5-1.7 2.5-1.7.1-.1.4 1.3.6 2.9zm-.2 8.5c-2.7 7-12.4 22.7-13.5 21.7-.5-.4-.5-.2-.2.4.4.7-2.5 5.3-6.4 10.3-7.2 9.3-9.7 11.7-6.1 5.8C90.3 47.9 95 39.4 95 38.4c0-.6.9-2.2 2.1-3.5 1.1-1.3 3.5-5 5.2-8.1 2.2-3.9 3.8-5.8 5.1-5.8 1.1 0 1.6-.3 1.3-.7-.4-.3 0-1.5 1-2.5 2.2-2.4 2.4-2.3 1.3.7zM67.1 42.1c-.6 1.3-3.1 4.6-5.6 7.4-6 6.4-2.5-.8 3.9-8.2 2.3-2.8 3-2.4 1.7.8zm-11 15.2c-1 .9-1.1.8-.5-.6.3-1 .9-1.5 1.2-1.2.3.3 0 1.1-.7 1.8zm26 6c-1 .9-1.1.8-.5-.6.3-1 .9-1.5 1.2-1.2.3.3 0 1.1-.7 1.8zm-30.8 4.2c-.3.9-.8 1.4-1 1.1-.3-.3-.2-.9.2-1.5.9-1.6 1.5-1.3.8.4zM97 72.6c0 .8-.4 1.4-1 1.4-.5 0-1 .8-1 1.8 0 2.2-.9 3.4-2.1 2.7-.4-.3 0-2.3.8-4.5 1.5-3.7 3.3-4.5 3.3-1.4zm-21 2.8c0 .8-.7 1.6-1.5 2-1.3.4-1.4.2-.5-1.4 1.3-2.3 2-2.6 2-.6zm83.4-.6c.2.4-.4.8-1.4.8-1 0-1.6-.4-1.4-.8.3-.4.9-.8 1.4-.8.5 0 1.1.4 1.4.8zM49 78.9c0 .5-.6 1.4-1.4 2-1.2 1-1.3.8-.9-.8.5-2.1 2.3-3 2.3-1.2zm15.7 4.2c-.9.6-1.7 1.7-1.7 2.5s-.9 2.2-1.9 3.1c-1.1.9-1.8 2-1.5 2.5.3.4-.2 1.5-1.1 2.4-1.4 1.5-1.5 1.4-1.1-1 .2-1.4 1.4-3.5 2.5-4.8 1.2-1.2 2.1-2.6 2.1-3.1 0-1.2 3.3-3.7 4-3 .3.2-.3.9-1.3 1.4zm106.8-.1c.3.5.1 1-.4 1-.6 0-1.1-.5-1.1-1 0-.6.2-1 .4-1 .3 0 .8.4 1.1 1zm-80.9 3.2c-.1.7-.5 1.9-1 2.6-.4.7-.5 1.9-.2 2.7.3.8.1 1.7-.4 2-.6.4-1-.3-1-1.5s-.4-1.8-1-1.5c-.5.3-.2-.8.8-2.4 1.7-3.2 3.2-4.1 2.8-1.9zm59.7 5.3c-.3.9-.8 1.4-1 1.1-.3-.3-.2-.9.2-1.5.9-1.6 1.5-1.3.8.4zm-56.6 1.7c-.1 2.6-2.7 6-2.7 3.6s1.2-5.8 2.1-5.8c.4 0 .7 1 .6 2.2zm-40.6 7.1c-1.4 1.5-2.1 1.7-2.1.8 0-1.8 3.4-5.1 3.9-3.9.2.6-.6 2-1.8 3.1zM87.5 98c.3.5-.1 1-.9 1-.9 0-1.6-.5-1.6-1 0-.6.4-1 .9-1 .6 0 1.3.4 1.6 1zm-1.2 5.8c-.3 1.2-1 2.2-1.5 2.2s-.7-.3-.5-.8c.2-.4.7-1.6 1.1-2.6.9-2.5 1.7-1.6.9 1.2zm3.8 1.5c-1 .9-1.1.8-.5-.6.3-1 .9-1.5 1.2-1.2.3.3 0 1.1-.7 1.8zm-42.1 2c0 1.2-3.9 4.2-4.6 3.5-.5-.6 2.9-4.8 3.9-4.8.4 0 .7.6.7 1.3zm37 .7c0 .5-.2 1-.4 1-.3 0-.8-.5-1.1-1-.3-.6-.1-1 .4-1 .6 0 1.1.4 1.1 1zm-51.3 5c.1 1.1-.2 2-.8 2-.5 0-.9-.9-.9-2s.4-2 .8-2 .8.9.9 2zm69.1 24.5c-.3.3-.9-.2-1.2-1.2-.6-1.4-.5-1.5.5-.6.7.7 1 1.5.7 1.8zm4.6 7.4c-.6.7-2.6-1.2-3.4-3.3-1.3-3.6.2-4.1 2-.5.9 1.9 1.5 3.6 1.4 3.8zM93 159.6c0 .8-1.9 1.3-2.4.6-.3-.5.1-.9.9-.9s1.5.2 1.5.3zm63.6 16c-.1 3.2-2 2.5-2.3-.9-.1-1.8.2-2.4 1.2-2.1.7.3 1.2 1.6 1.1 3zm2.1 11.6c-.3.8-.6.5-.6-.6-.1-1.1.2-1.7.5-1.3.3.3.4 1.2.1 1.9z"/><path d="M89.5 20.7c-.3 1-.2 1.9.3 2.1.6.2.7 1.3.4 2.5-.3 1.2-.2 1.9.1 1.6.4-.3.9-2.2 1.2-4.2.6-3.8-.7-5.1-2-2zM87.5 28.1c-.9 1.4-.2 2 1.4 1 .8-.6.9-1.1.3-1.5-.6-.3-1.4-.1-1.7.5zM82 30.6c0 2.1 1.7 2.5 2.2.6.3-1.1 0-1.9-.8-1.9s-1.4.6-1.4 1.3zM80.5 34c-.3.5.1 1 1 1s1.3-.5 1-1c-.3-.6-.8-1-1-1-.2 0-.7.4-1 1zM78 35.9c0 .6.4 1.3 1 1.6.6.3.7-.1.4-.9-.7-1.8-1.4-2.1-1.4-.7zM87.5 39c-.3.5-.1 1 .4 1 .6 0 1.1-.5 1.1-1 0-.6-.2-1-.4-1-.3 0-.8.4-1.1 1zM74.4 40.2c.3 1 .1 1.8-.4 1.8-.6 0-1 .7-1 1.6 0 1.4.1 1.4 1.6 0 1.2-1.2 1.3-2 .4-3.3-1.1-1.7-1.1-1.7-.6-.1zM78 46.5c-1.1 1.3-1 1.4.4.9.9-.3 1.6-1 1.6-1.5 0-1.3-.6-1.1-2 .6zM71 57.9c0 .5.7 1.1 1.5 1.5.8.3 1.5.1 1.5-.3 0-.5-.7-1.1-1.5-1.5-.8-.3-1.5-.1-1.5.3zM57 67c-.8.9-2.2 2.4-2.9 3.4-1.3 1.6-1.3 1.7.5 1.4 2.2-.4 4.7-3.3 4.2-5.1-.2-.9-.7-.8-1.8.3zM70.5 65.9c-.3.5-.1 1.2.4 1.5.5.3 1.1-.1 1.5-.9.6-1.6-.9-2.1-1.9-.6zM187 117.1c0 .5.5.7 1 .4.6-.3 1-.8 1-1.1 0-.2-.4-.4-1-.4-.5 0-1 .5-1 1.1zM52 126c0 .5.5 1 1.1 1 .5 0 .7-.5.4-1-.3-.6-.8-1-1.1-1-.2 0-.4.4-.4 1zM125.6 168.9c-.3.5.1 1.1.9 1.4.9.4 1.2.1.8-.9-.6-1.6-1-1.7-1.7-.5zM200.3 171.2c-.4.7-1.7 1.8-2.8 2.4-1.1.6-2.3 2.2-2.6 3.5-.5 1.7-.7 1.9-.8.6-.1-1-.6-1.5-1.2-1.1-.6.3-.8 1.6-.5 2.8.5 2 .4 2-.9.2-2.3-3.1-4.4-1.3-4.2 3.4.2 2.3 0 4.3-.4 4.6-1.5.9-.6 9.2 1.7 16.3 2.6 7.9 6.4 16.4 7.6 16.9.4.2.4 1 .1 1.8-.3.8.1 1.4.8 1.4.7 0 .9.3.6.7-.9.9 2.3 4.4 3.4 3.7.5-.3.6.1.3.9s.3 2 1.2 2.8c1.3 1 1.8 1.1 2.1.2.2-.6 1.5-.9 2.9-.7 2.9.5 3.2-1.2.4-2.1-1.1-.3-2-1.3-2-2 0-.8-1.1-2.2-2.4-3-2.1-1.4-6.3-9.9-5.8-11.8.1-.4-.2-.7-.8-.7-.5 0-1.2-1.6-1.6-3.5-.3-1.9-1-3.5-1.4-3.5-.5 0-1.2-.9-1.5-2-.4-1.2-1.6-2-2.8-2.1-2.1 0-2.1-.1-.2-.9 1.1-.5 1.5-.9.9-.9-1.7-.1-1.6-8.9.2-12.6.9-1.9 2.7-4.1 4-5 1.3-.8 2.4-2.2 2.4-3 0-.8.5-1.5 1-1.5.6 0 1-.4 1-1 0-.5-.8-.7-1.7-.4-1 .3-.7-.1.7-.9 1.4-.9 2.7-1.4 3-1.2.3.2.7-.5.7-1.6.2-2.2-.3-2.4-1.4-.7zM127.8 176.5c-.3 1.6-.1 2.2.6 1.8.6-.3.5 0-.1.8-1.7 1.8-1.6 2.9.2 2.9.8 0 1.5.6 1.6 1.2.2 2.5-.3 6.3-1.1 7.8-.5.9-.5 2.2 0 3 1 1.8.1 7-1.2 7-.5 0-.6-.6-.2-1.3.5-.7.1-.6-1 .3-1.7 1.4-1.7 1.5.5 2.4 1.6.8 2.4.7 2.7-.2.2-.7.9-1.8 1.5-2.5.7-.6 1.3-2.3 1.4-3.7.3-2.5.3-2.5-.7-.3-.5 1.3-1.2 2.3-1.4 2.3-.6 0 2.4-10.3 3.2-11.2.4-.3 2.3.2 4.2 1.2 2.7 1.5 3 1.9 1.5 2-1.3.1-.8.5 1.5 1.4 4.2 1.5 4.8 1.2 2.6-1-1.4-1.3-1.4-1.9-.4-3.2 1-1.2 1-1.4.1-.8-.7.4-1.3.2-1.3-.3 0-.6-.6-1.1-1.2-1.1-1.9 0-10.8-7.9-10.8-9.6 0-2.4-1.7-1.6-2.2 1.1zM149.5 187c.3.5 1 1 1.6 1 .5 0 .9-.5.9-1 0-.6-.7-1-1.6-1-.8 0-1.2.4-.9 1zM146.5 192c.4.6 1.1.8 1.6.5 1.4-.9 1.1-1.5-.7-1.5-.8 0-1.2.5-.9 1zM101.6 198.4c-4.2 1.9-5.1 2.9-6.8 7.2-1 2.7-1.9 6.7-2 8.9 0 3.4.5 4.4 4.1 7.5 3.9 3.4 4 3.7 2.9 6.3-.9 1.8-2.1 2.7-3.7 2.7-1.3 0-4 1.4-6.2 3.1-2.1 1.6-4.4 2.9-5.1 2.8-3-.4-4.5.3-7.8 3.4-1.9 1.8-6.2 5.5-9.4 8.2-7.9 6.6-14.9 13.6-14.2 14.2.2.3 0 1.7-.6 3.2-.5 1.4-1.2 3.9-1.5 5.6-.5 3.3-3.4 8.5-5.8 10.5s-5.5 9.8-6.1 15.6c-.5 3.5-1.1 5.1-1.8 4.7-.6-.3-.8-.3-.4.1.8.9-1.1 6.6-2.2 6.6-1.6 0-6.2 8.5-6.6 12-.2 2.1-1.5 6.4-2.9 9.5-1.4 3.1-2.2 6.2-1.8 6.9.4.6.6 2.1.5 3.2-.2 1.2.4 2.4 1.3 2.8.9.3 1.4 1 1 1.5-.3.5-.1 1.2.5 1.6.5.3 1 .2 1-.4 0-.5.3-1.8.6-2.8.4-1.1.3-1.4-.3-.7-.6.9-1.1.8-2.1-.2-1.1-1.2-.9-1.4.8-1.4 1.1 0 2-.3 2.1-.8.4-3.4 1.2-6.8 1.9-8.2.6-1.1.5-2.1-.2-2.8-.9-.9-.9-1.2.1-1.2.7 0 1-.4.7-.9-.4-.5-.1-1.1.5-1.3 1.3-.4 4.1-8.8 3-8.8-.4 0-1.3.6-2 1.2-1.1 1.1-1.1.9-.1-.8.8-1.2 2-1.9 3-1.7 2.2.6 4.9-2.5 3.1-3.7-.9-.5-1-1-.2-1.4.6-.4 1.1-.2 1.1.4 0 .6.5.8 1 .5.6-.4.8-1.6.5-2.8-.5-1.7-.4-1.9.4-.7s1.1 1.1 1.6-.5c.4-1.1 1.1-2.8 1.6-3.7.5-1 .6-2.4.3-3.1-.3-.8.2-1.7 1.1-2.1.9-.3 1.3-1 1-1.6-1-1.6.5-5.1 1.8-4.3.7.4.5-.2-.3-1.2-1.4-1.7-1.3-1.8.4-1.2 1.4.6 1.7.4 1.2-.8-.3-.8-.1-1.5.5-1.5.5 0 .7-1.1.3-2.4-.4-1.6-.1-2.5 1-2.9.9-.4 1.6-1.7 1.6-3.1 0-1.4.7-3.1 1.5-4 .8-.8 1.5-2 1.5-2.7 0-.9.4-.8 1.5.1 1 .8 1.5.9 1.5.2 0-.6-.6-1.5-1.3-1.9-1-.6-.9-1.2.5-2.6 1.2-1.1 1.8-1.3 1.6-.5-.2.7.1 1.4.7 1.5.5.1 1.2 1 1.6 2 .7 1.6.8 1.5.8-.5.1-1.9.3-2.1 2.1-1 2.5 1.6 3.7.4 1.6-1.7-.9-.9-1.6-1.2-1.6-.7 0 1.3-3 1.1-3.2-.2-.4-3.2-.2-9.3.4-9 .4.2.9 0 1.3-.6s1.2-.7 1.8-.4c.7.4.9.4.5 0-.3-.4.7-2 2.4-3.6 1.6-1.6 2.7-3.3 2.4-3.8-.3-.6.2-1.6 1.1-2.3 1.3-1.1 1.5-1.1.9-.1s-.1 1.1 2.1.7c4.4-1 8.3-2.7 8.3-3.6 0-.5-.7-.6-1.5-.3-.8.4-1.5.1-1.5-.5s2-1.6 4.4-2.3c3.7-1 4.2-1.5 3.8-3.2-.5-1.9-.4-2 1.2-.7 1.3 1.1 1.9 1.2 2.9.2.9-1 .8-1.1-.8-.6-1.6.6-1.7.5-.5-.4.8-.6 1.1-1.1.6-1.1-.5 0-.3-.7.4-1.5 1.4-1.7 4-2 4-.5 0 .5-.3.9-.7.9-3-.5-3.7.2-2 1.8 1.6 1.6 1.9 1.6 3 .2.7-.8 2-1.8 3-2.2.9-.3 1.7-1.4 1.8-2.4 0-1 .6-.2 1.3 1.7.8 2.4.9 3.9.2 4.9-.7.9-1.2.9-1.4.2-.4-1.3-5.2-1.5-5.2-.2s2.6 2 5.5 1.5c1.7-.3 2.4-.1 2 .6-.3.5-1.3 1-2.1 1-1.3 0-1.3.2.1 1.7 1.4 1.4 1.8 1.4 2.6.2.7-1.1.9-1.1.9.3 0 .9.5 2.9 1.2 4.5.6 1.5 1.3 3.7 1.5 4.8.4 2.5 2.4 6.6 4.1 8.3 2 2.2 1.4 3.7-2 5.5-1.8.9-4.1 2.2-5 2.9-1.4 1-2.4.9-5.4-.5-4.4-2.1-5.8-1.3-8.6 5-1 2.3-2.3 4.5-2.8 4.8-.6.3-1 1.4-1 2.4 0 .9-1.7 3.5-3.7 5.7-3.9 4.1-5.9 8-2.9 5.4.9-.7 1.6-.8 1.6-.2 0 .5.7 1.3 1.6 1.6.8.3 1.3.2 1-.3-1.6-2.5 10.9-2.9 17.4-.6 2.3.8 4.7 1.5 5.2 1.5s.6-2.1.2-4.8c-.5-4.4-.4-4.8 2.3-6.3 1.5-.9 3.4-1.5 4.1-1.3.7.1.8 0 .2-.3-1.4-.7-.2-2.3 1.6-2.3.8 0 1.2.4.9 1-.3.6.1.7.9.4 1.8-.7 2 .4.6 4.1-.5 1.4-.6 2.4-.1 2.1.5-.3 1.1.1 1.5.9.3.9 0 1.5-.9 1.5-.8 0-1.6.6-1.7 1.2 0 .7-.2 1.7-.2 2.3-.1.5-.5 1.5-.9 2.2-1.1 1.7 2.4 3.3 7.3 3.3 4.8 0 7 1.7 5.9 4.5-.8 2-.8 2-.9 0-.1-1.8-.2-1.7-1.1.4-.7 1.7-.6 2.7.2 3.2 1.8 1.1 3.9-.1 3.9-2.2 0-1.1.5-2.8 1.2-3.9 1.6-2.6 1.1-2.9-5.8-3.8l-5.9-.8.3-3.4c.4-5.7 2.3-10.1 4.6-11 2-.8 1.9-.9-.6-.9-4-.1-5.8-1.1-5.8-3.3 0-2.3-1.7-2-9.3 1.8-7.8 3.9-9 4.9-7.5 6.6 2.9 3.1 2 3.7-5 3.2-9.3-.8-9.9-1-7.8-3.2.9-1 1.6-2.4 1.6-3 0-2.8 3.5-8.2 5.2-8.2 1.2 0 1.6-.4 1.2-1.2-.4-.7-.3-.8.4-.4s.9 1.8.6 3.2c-.4 1.5-.2 2.4.6 2.4.6 0 .8-.5.5-1-.4-.6.6-1 2.2-1 1.9 0 2.4-.3 1.5-.9-1.1-.7-1.1-.9.2-1.4.8-.3 1.8-.1 2.2.5.5.7 1 .3 1.6-1.1.4-1.2 1.2-2 1.8-1.6.5.3 1.8-.3 3-1.5 1.1-1.1 2.8-2 3.8-2s1.9-.7 1.9-1.5-.6-1.5-1.3-1.5c-.7 0-1.6-.5-2-1.2-.4-.7-.3-.8.4-.4s1.2.2 1.2-.3c0-.6-.6-1.1-1.2-1.1-1 0-1-.2 0-.9 1-.6.9-1-.7-1.4-2.1-.5-2.3-1.5-2.5-8.7 0-1.4-1-3.3-2.1-4.2-1.2-1.1-1.5-1.7-.7-1.8.9 0 1-.5.3-1.8-.8-1.4-.6-1.9.5-1.9.8 0 1.3.6 1 1.4-.3.7 0 1.3.8 1.3.7 0 1.3-.8 1.4-1.8.1-2.1-1.9-6.3-2.7-5.7-.4.2-.8-.5-.8-1.6-.1-1 .2-1.9.8-1.9.5 0 .9.5.9 1.1 0 .5.5.7 1.2.3.8-.5.6-1-.8-1.7-2.1-.9-5.1-7.3-4-8.4 1-1-1.5-3.3-3.5-3.3-1.1 0-1.9-.5-1.9-1 0-.6.5-1 1.1-1 .5 0 .8-.4.5-.9-.3-.5-1.5-.7-2.6-.4-1.8.5-1.9.2-1.2-1.8 1.2-3.6.9-5.3-1.1-5.7-1.4-.3-1.6 0-.8 2.1.7 1.9.6 2.9-.5 3.7-1.5 1.4-1.7 1-1.5-3.5.4-7.6 4.4-12.4 10.3-12.5 2.8 0 3.8.5 4.3 2 .3 1.1 1 2 1.4 2 .5 0 .9 2.4.9 5.4 0 4.3.8 7.2 4.1 14.1 2.2 4.7 4.1 9.1 4.1 9.6s.9 2.8 2 4.9c1.1 2.2 1.8 4 1.5 4-.2 0 .9 2.3 2.6 5.2 2.1 3.6 2.9 6 2.6 7.8-.5 2.2-.2 2.6 1.8 2.5 1.3 0 2.7-.4 3.2-.9s.1-.7-1-.3c-1 .4-1.6.3-1.2-.3.6-.9 7.3-2.6 8.8-2.2.4.1.7-.3.7-1 0-.6.3-.9.6-.5.4.3 1.9 0 3.4-.8s3-1.1 3.4-.8c.3.4.6.1.6-.6s.5-.9 1-.6c1.3.8 1.3-2.1 0-4.5-1-1.8.3-3.9 1.3-2.3.3.5 3.3.7 6.8.6 3.5-.1 7.7.4 9.5 1.2 3.3 1.4 6.8.5 4.3-1.1-.8-.5-1.6-.9-1.9-1-.3 0-1.6-.4-3-.7-1.4-.4-5.2-.9-8.5-1.1-3.3-.2-8-.8-10.4-1.2-4.2-.7-4.3-.6-3.2 1.4 1.9 3.5 1.4 6.9-1.1 7.6-1.3.3-2.3.4-2.4.3 0-.1-.8.4-1.6 1-.8.7-2.7 1.4-4.2 1.5-1.4.1-2.6.7-2.6 1.2s-.3.6-.6.3c-.4-.4-.1-1.3.6-2.2 1.2-1.5.4-2.1-2.3-1.6-.5.1-.6-.3-.2-.9.3-.6 1.1-.7 1.7-.4.7.4.8.2.4-.4-.4-.7-1.4-1.2-2.2-1.2-.9 0-1.4-.7-1.2-1.8.1-.9-.1-2.3-.5-3-.5-.6-.5-1.2 0-1.2.4 0-.3-.7-1.6-1.6-1.7-1.2-2.1-2.2-1.7-4 .4-1.4.1-2.6-.7-3.1-2.7-1.6-9-16.6-8.9-20.8.3-5.6-1.4-10-4.9-13-3.7-3-5-3.1-11.3-.1zm-33.1 54.3c-.2 1-.4 1.9-.4 2.1-.1.2-.6 0-1.1-.3-.8-.5-.7-1.1.1-2.1 1.5-1.8 1.8-1.8 1.4.3zm-40.2 84.8c.4.8.2 1.7-.3 2-.6.4-1-.3-1-1.4 0-2.5.6-2.7 1.3-.6z"/><path d="M124.5 204c-.3.5-.3 1 .1 1s-.1.6-1.1 1.4c-1.7 1.2-1.7 1.6-.5 3.1s1.4 1.5 2.2 0c1.4-2.4 1.8-5.4.8-6-.5-.3-1.1-.1-1.5.5zM119.7 208.7c-1.1 1.1-.8 2 .7 2 .8 0 1.2-.6.9-1.4-.6-1.5-.7-1.5-1.6-.6zM110.5 213.9c-.3.5-.1 1.2.5 1.6.5.3 1-.1 1-.9 0-1.8-.6-2.1-1.5-.7zM110.8 224.7c-1.9.5-2.3 2-.9 4.1.6 1 1.1.6 1.9-1.7.6-1.7 1-3 .9-3-.1.1-1 .3-1.9.6zM501.8 228c1.8 2.1 1.4 3.2-.8 2-1.2-.6-2-.7-2-.1 0 .5.6 1.2 1.3 1.4.6.3.3.6-.8.7-2.7.1-6.1 3.1-7 6.1-.4 1.3-2.2 4.9-4 7.9-1.7 3.1-3.5 6.9-3.9 8.5-.9 3.5-4.5 12.2-9.2 22-1.8 3.8-3.6 8.6-4 10.5-.3 1.9-1.7 5.5-2.9 8s-2.5 5.7-2.9 7.2c-.3 1.5-2 5-3.6 7.8s-3.5 7.2-4.1 9.8c-.7 2.6-1.8 5.8-2.4 7.2-.7 1.4-1.5 3.9-1.8 5.5-.6 3.2-4.7 13.7-12.6 31.8-4.9 11.3-8.9 23.5-11.2 33.7-.6 3-1.6 6.6-2.2 8-.6 1.4-1 2.8-.9 3.2.1.5-.2.8-.8.8-.5 0-1 .6-1 1.3 0 .7-.9 2.9-2 5-1.1 2-2 3.9-2 4.2 0 .3 0 .6-.1.7 0 .2-.2 1.2-.4 2.3-.2 1.1-1.3 4.7-2.5 8-2.1 5.6-2.1 6.1-.5 9 .9 1.6 1 2.3.3 1.5-.7-.8-2-1.6-2.8-1.8-1.2-.3-1.2-.1-.3.9.9.9.7 1.6-.8 3.2-2.2 2.4-2.5 3.9-.6 3.1.8-.3 1.4.1 1.4.9 0 .9-.7 1.2-1.9.9-1-.2-1.8.1-1.8.7 0 .7.5.9 1 .6.6-.3 1-.2 1 .4 0 .5-.5 1.1-1.1 1.3-1.4.5-2.1 6.8-.8 6.8.8 0 1.3-1.5 1-3.3 0-.4.3-.7.9-.7 1.4 0 1.3.2-1.5 7.2-1.4 3.4-2.5 6.7-2.5 7.5 0 1.6-1.2 1.7-3 0-.8-.6-.7-.3.3.9 2.1 2.5 2.2 3.4.2 3.4-.8 0-1.5.5-1.5 1.1 0 .5.4.8.9.4.5-.3 1.2-.1 1.6.5.3.5-.1 1-1.1 1-1.2 0-1.5.6-1.1 2.1.4 1.5.2 1.8-.7 1-.8-.7-1.5-.4-2.4.9-.9 1.5-.9 1.8.1 1.4.8-.3 1.4.2 1.4 1 0 .9-.6 1.2-1.6.8-.9-.3-1.3-.2-.9.3.4.4 0 1.5-.9 2.3-1.1 1.2-1.2 1.7-.4 2 .8.3.5.9-.8 1.9-2.3 1.6-2.8 4.9-.8 5.6.7.3.4.6-.7.6-1.6.1-1.8.7-1.3 4.3.5 3.7.5 3.9-.5 1.8l-1-2.5-.9 2.9c-.4 1.6-.6 3.4-.2 3.9.3.5 0 1.3-.7 1.7-.7.4-.9 1.3-.5 2 .5.8 1.2.7 2.6-.6 1.5-1.3 1.9-1.4 1.9-.3 0 .8.7.1 1.5-1.5 1.9-3.5 1.9-4.6.1-2.1-.9 1.3-1.9 1.6-3.2 1.1-1.8-.7-1.7-.9.4-1.7 1.3-.5 2.6-1.8 2.9-3 .3-1.2 1.1-1.8 1.9-1.5 1 .4 1.4-.4 1.4-3 0-1.9.4-3.3.9-2.9 1.1.6 2.5-3.1 1.6-4.4-.3-.6.3-1.4 1.2-2 1.4-.9 1.5-1.2.5-1.9-1.1-.7-1-1 .3-1.6.9-.3 1.3-1.1 1-1.7-.4-.5.1-1.7 1.1-2.4 1.5-1.1 1.6-1.4.4-1.5-1.3 0-1.3-.2-.1-.9.8-.5 1.6-1.7 1.7-2.6.1-.9 1.3-3.7 2.5-6.3 1.2-2.6 2.4-6.3 2.6-8.2.2-1.9 1-5.3 1.7-7.5.8-2.2 1.9-6 2.6-8.5.7-2.5 1.6-5.3 2.1-6.2.5-1 .9-2.8.9-4.1 0-1.3.3-2.7.7-3.1.7-.7 1.2-2.5 1.6-6.8.1-1.4.5-2.4.9-2.2.6.4 2.9-5.3 2.7-7 0-.5.4-1.2.9-1.5.6-.4 1.3-2 1.6-3.6.2-1.7.5-3.2.6-3.5.1-.3.2-.8.1-1.2 0-.5.3-.8.8-.8s1.7-2.9 2.7-6.5c1-3.6 2.2-6.5 2.6-6.5.5 0 .8-.9.8-1.9 0-1.1.5-2.3 1-2.6.6-.3 1-1.7 1-2.9 0-1.3.6-2.9 1.4-3.5 1.8-1.5 2.6-6 1.3-6.8-.6-.4-.5-1 .4-1.7 2.2-1.7 3.9-7.3 2.3-7.3-.7 0-1.1.3-.9.7.2.3 0 1.2-.5 1.9-.5 1-1 .4-1.5-1.9-.5-2.4-.3-3.6 1-4.9 1-.9 1.5-1.1 1.1-.4-.3.6-.1 1.5.5 1.9.8.5 1-.1.7-2-.3-1.4-.2-2.6.2-2.6.5 0 .6-.8.3-1.8-.2-1 .7-4.7 2.1-8.2 1.4-3.5 2.6-7 2.6-7.7 0-.8.5-1.1 1.2-.7.7.5.9.2.5-.9-.3-.9 0-1.8.9-2.1.8-.3 1.4-.1 1.4.5s.5.7 1 .4c.6-.3 1-1.4 1-2.3 0-1.4-.2-1.5-1-.2-1.4 2.2-2.1-.7-1.2-5 .6-2.6 1.4-3.6 3-3.8 1.2-.2 2.2-.7 2.2-1.2s-.7-.7-1.5-.4c-1.8.7-1.9.1-.1-5.7 2-6.5 4.5-11.1 5.7-10.4.5.4.7 1.1.4 1.6-.4.5-.8 1.9-1 3.1-.3 1.2-1 2.5-1.7 2.9-1 .7-1 1.1.1 2.1.8.7 1.1.8.8.2-.4-.7 0-1.7.8-2.4s1.5-1.9 1.5-2.7c0-.7.7-1.6 1.5-1.9.8-.4 1.2-1 .9-1.5-.3-.6 0-1.6.6-2.4.7-.8.9-1.5.6-1.5-.4 0-.2-.9.4-2 .8-1.6.8-2-.2-1.8-1.6.4-1.4-5.5.2-6 .5-.2 1.3-2.1 1.6-4.3.4-2.1 1-3.9 1.4-3.9.3 0 .7-1.3.7-2.8 0-1.6 1.6-6.2 3.7-10.3 4.2-8.5 7.1-13.5 6-10.4-1.3 3.8-1.3 7.5.1 7.5.8 0 1.2.8 1 2-.6 3 1.4 3.4 2.5.5 1.2-3.2 1.2-3.8.2-3.1-.4.2-1.4.1-2.2-.5-1.2-.7-1.2-.9.3-.9 1.9 0 4.1-1.8 4.4-3.5.1-.6.5-1.8.8-2.8.4-.9.3-1.7-.3-1.7-1 0-2.5 3.2-2.7 5.4 0 .7-4.5 1.8-4.5 1.1 0-.1.9-1.2 2-2.5 1.1-1.2 1.7-2.6 1.5-3-.3-.5.1-1.1.7-1.3 1-.4 1-.6.1-.6-.7-.1-1.3-.6-1.3-1.3 0-.6.3-.9.6-.5 1 1 4.1-2.7 3.2-3.9-.5-.7-.2-1.6.7-2.4 1.3-1 1.5-.9 1.5.8 0 1.2.5 2.4 1.1 2.7.6.4.9.1.8-.6-.1-.8.8-3.7 2-6.4 1.2-2.8 2.3-5.5 2.4-6 .1-.6.5-1.2.8-1.5.4-.3 1.6-2.5 2.8-4.9l2.3-4.3 5.4.5c3.1.3 5.2.1 4.8-.4-.8-1.4.2-1.1 3.9 1.1 1.9 1.1 5.5 2.1 8.1 2.2 2.5.1 4.6.6 4.6 1.1 0 .4.4.6.9.3s3.1-.1 5.7.5c2.7.6 5.7 1.1 6.7 1.2.9.1 1.7.5 1.7.9s.8.8 1.8.8 2.3.5 3 1.2c.6.6 2.5 1.1 4.2 1 2.1 0 3 .4 3.1 1.6 0 1 .3 1.2.5.5.4-.8 1.1-.7 2.4.5 3.9 3.6 5 4.2 7.2 4.3 1.7.1 1.8.3.6.6-1 .2-1.8.8-1.8 1.3s.7.6 1.7.3c1.1-.4 1.4-.3.9.5-.4.7-.3 1.2.3 1.2.5 0 1.2-.6 1.4-1.3.3-.6.6.1.7 1.8.1 2.6.3 2.7 1 1l.9-2v2c.1 1.3.4 1.6.9.8.8-1.3 5.2-1.4 5.2-.1 0 .4.5.8 1.2.8 1.4 0-1.9-3.8-4.6-5.2-1.4-.7-1.7-.7-1.1.2.6.9.3.9-1.3.1-1.2-.6-2.4-1.7-2.8-2.4-.5-.7-.1-.7 1 .2 1.6 1.3 1.6 1.2.5-1.2-.8-1.8-2-2.7-3.6-2.7-1.4 0-2.3-.6-2.3-1.6 0-.8-.5-1.2-1.1-.9-.6.4-1.6-.1-2.3-1.1-.8-1-2.6-1.9-4.2-2.1-1.6-.3-3-.8-3.2-1.4-.2-.5-.8-.9-1.4-.9-.5 0-2.2-.8-3.6-1.8-4.4-3-18-6.3-16.6-4 .5.8.2.9-1 .5-1-.4-2.2-.7-2.7-.7s-.9-.7-.9-1.5-.6-1.2-1.4-.9c-.8.3-1.7 0-2.1-.5-.3-.6-1-.9-1.5-.6-.5.3-2 .1-3.4-.5-4-1.5-16.4-2.2-17.1-1-.5.8-1.2.7-2.3-.2-1.4-1-1.5-1-.4.2zm-.8 8.5c0 .8-.6 1.5-1.4 1.5-2 0-2.9-1.7-1.4-2.3 2.2-.9 2.8-.7 2.8.8zm-4.4 6.3c-.4.3-1.2 0-1.9-.8-.9-1-.9-1.1.1-.6.7.5 1.2.1 1.3-1.1.1-1.7.2-1.7.6 0 .3 1 .2 2.1-.1 2.5zm-1 2.8c-.3.9-.6 1.8-.6 2 0 .2-.8.4-1.7.4-1.7-.1-1.7-.1 0-1.1.9-.6 1.5-1.4 1.2-2-.4-.5-.1-.9.5-.9.7 0 .9.7.6 1.6zm-5 3c-.3.8-.2 1.2.4.9.5-.3 1.4.4 2 1.6.9 1.5.9 1.9.1 1.5-1.8-1.2-5.1.4-5.1 2.3 0 1-.7 2.4-1.5 3.1-.8.7-1.5 1.9-1.5 2.8 0 .8-.3 1.3-.6.9-.8-.8 1.4-7.2 3.8-11.4 2.1-3.4 3.5-4.5 2.4-1.7zm80.1 0c-.3.3-1.2.4-1.9.1-.8-.3-.5-.6.6-.6 1.1-.1 1.7.2 1.3.5zm-103 57.8c-.7 1.4-1.6 2.1-2.1 1.6s-.2-1.5.5-2.4c2.1-2.3 2.9-1.9 1.6.8zm-25 63.8c-.3.8-.6.5-.6-.6-.1-1.1.2-1.7.5-1.3.3.3.4 1.2.1 1.9zm-.4 2.1c.7-.4.4.5-.6 2-1.5 2.3-1.5 2.7-.2 2.7.8 0 1.5.4 1.5 1 0 .5-.5 1-1.1 1-.5 0-.8.4-.5.9.3.5-.1 1.2-1 1.5-.9.4-1.4 1.3-1 2.2.3.8.2 1.2-.4.9-.6-.3-1.1 0-1.1.7-.1.7-.2 1.9-.3 2.7-.1 1.7-2.6 2.8-2.6 1.1 0-.6.5-.8 1-.5.6.3 1 .2 1-.4 0-.5-.4-1.1-.9-1.3-.5-.2-.7-1.5-.4-3 .3-1.6 1-2.5 1.6-2.1.5.3.7.1.4-.4-.4-.6.1-3.5 1-6.4 1-3.2 1.8-4.7 2.1-3.6.2 1 .8 1.4 1.5 1zM433 403c0 .5-.4 1-1 1-.5 0-1-.5-1-1 0-.6.5-1 1-1 .6 0 1 .4 1 1zm-31.7 90.5c-.9 1.5-1.1 1.5-2.3 0-1.1-1.3-1-1.5.4-.9 1 .4 1.6.1 1.6-.7 0-.7.3-1 .6-.6.3.3.2 1.3-.3 2.2zM207.8 233.4c-2 .9-2.5 1.5-1.8 2.6.8 1.2 1 1.2 1 .1 0-.9.8-1.2 2.5-.9 1.4.3 2.5.1 2.5-.6s.3-.8.8-.1c1 1.5 6.1 1.3 6.7-.3.3-.7 0-1-.5-.7-.6.3-1 0-1-.7 0-1-.2-1-.9.1-.6.8-1.4 1-2.2.5-2.1-1.3-4.1-1.3-7.1 0zM221.4 236.5c1 .8 2.3 1.2 2.9.8 1.1-.7-1.2-2.3-3.3-2.3-1.2.1-1.1.4.4 1.5zM226 238c0 .5.6 1 1.4 1 .8 0 2.3.3 3.3.6 1.6.6 1.6.5-.2-.9-2.3-1.9-4.5-2.2-4.5-.7zM113.8 245c-2.1 2.1-2.3 2.7-1 2.6 1.5-.1 4.9-4.3 4-5.1-.2-.1-1.5 1-3 2.5zM230 242.4c0 .2.7.7 1.6 1 .8.3 1.2.2.9-.4-.6-1-2.5-1.4-2.5-.6zM245 243.4c0 .2.9.6 2 .9 1.1.3 2 .1 2-.4s-.9-.9-2-.9-2 .2-2 .4zM196.6 245.5c.4.8.8 1.5 1 1.5.2 0 .4-.7.4-1.5s-.4-1.5-1-1.5c-.5 0-.7.7-.4 1.5zM169.7 247.6c.3.7.9 1.4 1.4 1.4 1.4 0 1-1.7-.5-2.3-1-.4-1.3-.1-.9.9zM194.5 248.9c-.3.5-.2 1.2.3 1.5.5.3.9-.1.9-.9 0-1.7-.3-1.9-1.2-.6zM114.5 250c.4.6.2 1.6-.4 2.3-.6.7-.6 1.8-.1 2.6.4.8.6 1.9.4 2.5-.3.7.5 1.2 1.6 1.3 1.2.1 2-.4 2-1.3 0-.8-.4-1.3-.9-1-.5.3-.9 0-.8-.7.1-3.9-.4-6.7-1.4-6.7-.5 0-.7.5-.4 1zM188.4 250.2c.3 1.1-.3 1.8-2 2.2-1.3.4-2.4 1.3-2.4 2.1 0 .9-.6 1.2-1.5.9-1.6-.6-4.5 1.2-4.5 2.7 0 .5.5.9 1.1.9.5 0 .8-.4.5-.9-.3-.5.1-1.2 1-1.5 2.3-.9 2.4-.8 1.8 1.1-.5 1.5-.4 1.6.5.3.6-.8 1.1-1.1 1.1-.6 0 .5.9.1 2.1-1 1.2-1 2.3-1.8 2.6-1.6.3.2.8 0 1.1-.4.4-.4.1-.4-.5 0-.7.4-1.3.3-1.3-.3 0-.5.5-1.1 1.2-1.3.8-.3.8-.9-.1-2.4-.9-1.3-1.1-1.4-.7-.2zM165.4 250.9c.8 1.2-.4 4.2-1.4 3.6-.4-.3-1 .4-1.3 1.5-.3 1 0 2.1.7 2.4.6.2.3.5-.6.5-1 .1-2.5 1.2-3.4 2.6-1.5 2.3-4.3 3.8-2.9 1.6.3-.5-.2-1.7-1.1-2.5-1.4-1.5-1.8-1.5-4.3.4-1.6 1-3.5 3.4-4.4 5.2-1 1.9-1.7 2.6-1.7 1.6 0-1.5-.3-1.6-3.2-.4-3.4 1.5-4.9 3.6-2.6 3.6.9.1.7.5-.5 1.4-1.5 1.2-1.5 1.5-.2 2.6.8.7 1.5 2 1.6 2.9 0 1.5.1 1.5.7 0 .9-2.1 5.2-.7 5.2 1.7 0 1-.5 1.4-1.4 1.1-1.2-.5-1.5.3-1.3 3.4.1 2.1.5 3.9.9 3.9s.8.8.8 1.7c0 1.5.2 1.6 1 .3.6-.9.5-1.7-.3-2.2-.9-.6-.9-1.3.2-3 .7-1.2 1.5-4.1 1.7-6.4.3-3.9.1-4.2-2.1-4-2.8.4-4.3-3-1.6-3.9.9-.3 3.1-1.8 4.9-3.5 3.5-3.2 5.2-3.2 5.2.1 0 1 .5 1.9 1.1 1.9.5 0 .8.3.6.7-.3.5.1 1.4.9 2.1 1.1 1 1.5.9 2.3-.7.6-1 .7-2.1.3-2.5-.3-.4.1-.4 1-.1 1.4.6 1.6.2 1.2-2-.3-1.9.1-3.2 1.6-4.5 1.6-1.4 2-2.5 1.5-4.1-.6-1.7-.4-2.1.8-1.6 2.2.8 4.3-1.9 2.8-3.6-.6-.8-.8-1.7-.4-2 .3-.4-.1-.7-1.1-.7-.9 0-1.5.4-1.2.9zm2.6 3c0 .6-.4 1.3-1 1.6-.5.3-1-.1-1-.9 0-.9.5-1.6 1-1.6.6 0 1 .4 1 .9zM119.7 254.4c-.4 1-.1 1.3.8.9.8-.3 1.2-.9.9-1.4-.7-1.2-1.1-1.1-1.7.5zM255.2 255c-1.6 2.6-1.5 3.3.3 2.6.9-.3 2 .3 2.7 1.4.7 1.1 1.9 2 2.6 2 .7 0 1 .4.7 1-.3.5.3 1 1.4 1 1.2 0 2.1.4 2.1 1 0 .5.6 1 1.4 1 .8 0 1.8.9 2.1 2 .4 1.1 1.1 1.8 1.6 1.5.5-.4.9-.1.9.5s.5.8 1 .5c1.3-.8 4.2 2 3.2 3-.4.5-.2.5.5.1 1.5-.8 2.9 1.4 1.5 2.3-.7.4-.8 1.2-.2 2.1.6.8 1 1.1 1 .6 0-.5 1.1.8 2.5 2.8 1.3 2 2.2 4.3 1.9 5.1-.4.8-.2 1.5.4 1.5.6 0 2 1.7 3.3 3.7 1.2 2.1 2.7 4.2 3.3 4.8 3 2.6 5.4 7.2 4.5 8.6-.5.7-.9 2.5-.9 3.8 0 2 .4 2.2 2.5 1.7 2-.5 2.5-.3 2.5 1.3 0 1.1.6 2.1 1.3 2.4.9.3.9.7-.2 2-.7 1-.9 1.7-.4 1.7s1.5 1.1 2.1 2.4c.8 1.9.7 2.9-.5 4.6-.9 1.3-1.1 2-.5 1.6.7-.4 1.2-.1 1.2.8 0 1 .6 1.3 1.5 1 1.1-.5 1.3-.2.9 1-.5 1.2-.2 1.5 1 1 2.1-.8 2 .5-.1 2.2-1.7 1.3-1.7 1.4 0 .8 1.9-.7 2.4 1.5.6 3.3-.8.8-.5 1.3 1 1.8 1.5.4 2.1 1.5 2.1 3.6 0 1.8.4 2.8 1 2.4.9-.6 1.5 2.2 1.1 5.4-.2.7.2 1 .7.7 1-.6 3 3.3 3.5 6.9.1 1.1.6 2.6 1.1 3.3.4.7.5 1.6.2 1.9-.3.3.5 1.4 1.7 2.5s1.6 1.7.9 1.3c-.9-.5-1.2.3-1 2.7.2 3.5 2.3 6.5 3.3 4.9.3-.6-.3-1.4-1.2-2-1-.6-1.3-1.1-.6-1.1 1.5 0 4.3 3.9 4.3 6.1 0 .9.6 1.9 1.4 2.2.8.3 1.9 3 2.5 5.9 1 4.5 2 6.1 6.6 10.4 3 2.9 5.5 5.7 5.5 6.4 0 .6.4.9.9.5.5-.3 1.6.3 2.3 1.3.7.9 2.4 2.5 3.8 3.4 1.4.9 5.2 4.2 8.5 7.2s8 6.6 10.5 7.8c4.9 2.5 10 7.1 10 9 0 .9.3.8 1-.2.8-1.2 1-1 1.1 1 .1 1.4.1 2.9 0 3.3-.1.5.4.5 1 .1.8-.5 1 .1.7 1.9-.3 1.5-.1 2.4.3 2.1 1.3-.8 1.1-3.8-.3-5.3-1.1-1.1-1-1.3.5-.8.9.4 1.7.2 1.7-.3 0-.6-.7-1-1.6-1-.8 0-1.2-.5-.9-1 .4-.7 1.2-.7 2.5 0 1 .5 2.1 1 2.5 1 1.1 0-3-3.7-4.7-4.3-1-.4-1.8-1.2-1.7-1.9 0-1 .2-1 .6-.1.6 1.6 3.3 1.7 3.3.2 0-2.5-2-4.7-4-4.2-1.1.3-2 .9-2 1.3s-.8 1.1-1.7 1.5c-1.4.5-1.5.4-.6-.6 1.5-1.5-.1-4.9-2.3-4.9-1.1 0-1.4-.6-1-1.6.3-.8.2-1.2-.4-.9-.6.3-1 .1-1-.6 0-1-.3-1-1.2 0-1 1.1-1 1.4 0 1.8.6.3 1.2 1.1 1.2 1.9 0 .8.5 1.4 1.2 1.4.6 0 .9.2.6.5-.6.6-6.6-2.3-7.4-3.7-.4-.6 0-1.4.7-1.9.7-.4 1-1.1.6-1.5-.3-.4-1.2-.2-2 .4-1.7 1.4-3.1.3-3.5-2.7-.2-2.4-4.2-7.2-4.2-5.1 0 1.8-2.7 1-5.4-1.6-1.4-1.5-2.6-2.3-2.6-1.9 0 1.3-8.9-8.8-12.8-14.5-2-3-4-5.7-4.3-6-1.1-.9-5.7-10.8-5.3-11.3.2-.2-.2-1.7-1-3.2-.8-1.6-1.2-3.3-.9-3.8.4-.6.1-.7-.7-.2-1 .6-1.2.4-.7-.9.5-1.1.3-1.5-.5-1-.7.5-.9 0-.6-1.4.4-1.2.2-2.5-.3-2.8-.5-.3-.7-1-.4-1.5.4-.5.2-.9-.4-.9-.5 0-1.4-2.3-2-5.2-.7-2.8-1.6-5.8-2.2-6.5-.6-.7-.9-2-.5-2.8.3-.9.2-1.4-.3-1.1-1.1.7-5.3-9.6-5.3-12.8 0-1.7-.5-2.3-1.4-1.9-.9.3-1.4-.2-1.4-1.7 0-1.2-.4-3-1-4-.5-1-1.4-4.3-1.8-7.2-.8-4.9-1-5.1-2-2.8l-1.1 2.5-.1-2.5c-.1-1.4-.4-3.6-.7-5-.2-1.4-.5-3-.7-3.5-.1-.6-.9-2.1-1.9-3.5-.9-1.3-1.7-3.2-1.7-4.2 0-.9-.9-2.2-2-2.8-1.1-.6-2-2-2-3 0-1.9-1-2.4-3.7-2.1-.7.1-1.3-.3-1.3-.9 0-.6.4-.9.9-.6 1.8 1.1.5-5.6-1.5-7.7-1.2-1.2-2.8-3.6-3.7-5.3-3.6-7-9.3-13-13.8-14.4-2.4-.7-4.8-1.7-5.3-2.2-1.8-1.5-5.1-.8-6.4 1.2zm13.8 4.1c1.9 1.2 4.2 3 5 4.1.8 1.1 2.5 3.2 3.8 4.8 3.4 4.2 2.6 4.6-1.7.9-5.5-4.8-8.2-6.9-11.8-9.1-1.8-1.1-3.3-2.2-3.3-2.4 0-1.2 5-.1 8 1.7zm15.5 18.9c1 1.1 1.3 2 .7 2-.6 0-1.6-.9-2.2-2-.6-1.1-.9-2-.7-2 .2 0 1.2.9 2.2 2zm9.3 18.5c-.3.3-.9-.2-1.2-1.2-.6-1.4-.5-1.5.5-.6.7.7 1 1.5.7 1.8zM296 307c0 1.1-.4 2-.8 2s-.8-.9-.9-2c-.1-1.1.2-2 .8-2 .5 0 .9.9.9 2zm7 18c0 .5-.2 1-.4 1-.3 0-.8-.5-1.1-1-.3-.6-.1-1 .4-1 .6 0 1.1.4 1.1 1zm76.8 99.5c-.3.3-.9-.2-1.2-1.2-.6-1.4-.5-1.5.5-.6.7.7 1 1.5.7 1.8zM247 256c0 .5.5 1 1 1 .6 0 1-.5 1-1 0-.6-.4-1-1-1-.5 0-1 .4-1 1zM168.6 259.5c-.3.8-.3 1.5 0 1.5s1.2-.7 2-1.5c1.3-1.3 1.3-1.5.1-1.5-.8 0-1.7.7-2.1 1.5z"/><path d="M553 258.8c0 .6.5 1.4 1 1.7.6.4.8 1.4.5 2.3-.3 1.1.3 2.2 1.6 3 1.2.8 1.8.9 1.5.3-.4-.5-.2-1.2.3-1.5.5-.3.7-1.5.4-2.6-.3-1.2-.8-1.8-1.1-1.5-.3.3-1.4-.2-2.4-1.2-1-.9-1.8-1.1-1.8-.5zm3.7 5.4c-.3.8-.6.5-.6-.6-.1-1.1.2-1.7.5-1.3.3.3.4 1.2.1 1.9zM582.5 259c-.5.8 3.2 4 4.7 4 .5 0 .8-.8.8-1.8 0-1.4-.2-1.5-1-.2-.9 1.3-1.4.8-1.2-1.2.2-1-2.7-1.8-3.3-.8zM489.7 259.7c-1.2 1.1-.8 2.3.8 2.3.8 0 1.5-.7 1.5-1.5 0-1.6-1.2-2-2.3-.8zM177.6 261.5c-.3.8-.1 1.5.4 1.5.6 0 1-.7 1-1.5s-.2-1.5-.4-1.5-.6.7-1 1.5zM173 262c0 .6.7 1 1.5 1s1.5-.2 1.5-.4-.7-.6-1.5-1c-.8-.3-1.5-.1-1.5.4zM589 263.1c0 1.2.4 1.7 1.1 1.4.6-.4.9 0 .7 1.1-.2 1.4.3 1.8 2 1.7 1.2-.2 2.2.2 2.2.9 0 .6.3.9.6.5.4-.3-1-2.2-3-4.1-3.1-3.1-3.6-3.3-3.6-1.5zM241.6 262.7c-1.1.3-2.6 1.1-3.4 1.9-.7.8-1.8 1.2-2.3.9-.5-.4-.9-.1-.9.5 0 .7.8.9 2.1.5 2-.7 2.1-.7.2 1.2-1 1.1-2.2 1.8-2.7 1.5-.5-.3-.6 0-.2.7.4.6.2 1.9-.6 2.8-1.1 1.4-1.1 1.6.1.8 1.1-.6 1.2-.5.5.6-1.5 2.4-1.2 6.2.6 8.1 1.5 1.7 1.8 1.7 2.3.4.4-.9.1-1.5-.6-1.3-.7.1-1.2-1-1.3-2.6-.1-1.5.3-2.7.8-2.7s.7-.4.4-.9c-.9-1.4.4-4.1 2-4.1.8 0 1.4-.7 1.4-1.6 0-.9 1.4-2.9 3.1-4.5 3-2.8 2.7-3.2-1.5-2.2zM501.8 263.7c-1 .2-1.8 1.1-1.8 1.9 0 1.3.2 1.3 1.6 0 .8-.9 2-1.3 2.6-1 .7.4.8.2.4-.4-.4-.7-.8-1.1-.9-1.1-.1.1-1 .3-1.9.6zM521.5 264c.3.5.1 1-.4 1-.6 0-1.1.8-1.1 1.7 0 1.5-.2 1.6-1 .3s-1-1.2-1 .4c0 1.3.5 1.7 2 1.3 1.7-.4 1.9-.1 1.4 2.1-.5 2.7-.5 2.7.8.4.8-1.2 1.7-1.9 2.1-1.6.4.4.7-.2.7-1.4 0-1.1.3-2.7.6-3.6.5-1.2 0-1.6-2.1-1.6-1.5 0-2.4.4-2 1zm2.5 1.5c0 .8-.7 1.5-1.5 1.5-1.3 0-1.4-.3-.3-1.5 1.6-1.8 1.8-1.8 1.8 0zM586.2 265.6c1 1 2 1.6 2.2 1.3.3-.3-.5-1.1-1.7-1.8-2.1-1.3-2.1-1.2-.5.5zM69.5 270.9c-.3.6-1.4 1.1-2.4 1.1s-1.8.7-1.8 1.5.9 1.5 2 1.5 1.7.5 1.4 1.3c-.3.7.3 1.3 1.3 1.3 1.5 0 1.6-.4.9-1.8-.5-1-1.7-1.8-2.6-1.8-.9 0-1.4-.3-1-.6.9-1 5.9.5 5.2 1.6-.3.5-.1 1.1.5 1.5.5.3 1-.2 1-1.3 0-2.4-3.5-5.8-4.5-4.3zM598 273.1c0 .5.5.7 1 .4.6-.3 1-.8 1-1.1 0-.2-.4-.4-1-.4-.5 0-1 .5-1 1.1zM601.3 272.7c.4.6.2 1.3-.5 1.5-.8.3-.6.6.4 1 1.7.7 1.9-1.5.3-2.9-.4-.4-.5-.3-.2.4zM481.1 274.9c-.8.5-.9 1.1-.3 1.5.5.3 1.2-.1 1.6-.9.6-1.7.6-1.8-1.3-.6zM547.1 275.6c0 1.1.3 1.4.6.6.3-.7.2-1.6-.1-1.9-.3-.4-.6.2-.5 1.3zM550 276.5c-.7.9-1.1 1.7-.9 2 .3.2 1-.5 1.7-1.5 1.4-2.4 1-2.6-.8-.5zM517.5 278c-.3.5-.1 1 .4 1 .6 0 1.1-.5 1.1-1 0-.6-.2-1-.4-1-.3 0-.8.4-1.1 1zM483.6 279.4c.4 1.2 0 1.6-1.7 1.7-1.8.1-1.9.3-.6.6.9.2 1.5 1 1.1 1.6-.3.7.2.3 1-.7 1.9-2.3 2-3.2.6-4.1-.6-.3-.7.1-.4.9zM69.6 280.5c.4.8.8 1.5 1 1.5.2 0 .4-.7.4-1.5s-.4-1.5-1-1.5c-.5 0-.7.7-.4 1.5zM556 280c0 .5.5 1 1.1 1 .5 0 .7-.5.4-1-.3-.6-.8-1-1.1-1-.2 0-.4.4-.4 1zM605.5 279.7c1.1.3 2.5 1 3 1.6.6.7 1.9 1.3 3 1.4 1.8.2 1.8.1-.2-.9-1.3-.6-2.3-1.5-2.3-2 0-.4-1.2-.7-2.7-.7-2.1.1-2.3.2-.8.6zM77.5 281.1c-.4.6-.5 1.2-.2 1.5.2.3.7-.2 1-1.1.7-1.7.1-2-.8-.4zM73.4 282.8c.3 1.8 1.8 2 2.4.4.1-.5-.4-1.2-1.2-1.5-.9-.4-1.3 0-1.2 1.1zM511 282.1c0 .5.5.7 1 .4.6-.3 1-.8 1-1.1 0-.2-.4-.4-1-.4-.5 0-1 .5-1 1.1zM561 282.1c0 .5.5.7 1 .4.6-.3 1-.8 1-1.1 0-.2-.4-.4-1-.4-.5 0-1 .5-1 1.1zM475.9 283.3c0 .7-.2 2-.4 3-.5 2.4 1.6 1.6 2.6-1 .5-1.5.3-2.3-.7-2.7-.8-.3-1.4 0-1.5.7zM246.5 284.8c-.5.4-1 2.4-1 4.4-.1 2.7.4 3.8 1.7 4.1 1.4.4 1.6.1.9-1.1-.4-1-.6-3.2-.4-5 .4-3.4.4-3.6-1.2-2.4zM514.1 285.8c-1.7 3.1-1.3 4 .5 1.4.9-1.3 1.4-2.6 1.1-2.9-.3-.2-1 .4-1.6 1.5zM565.6 284.9c-.3.5.1 1.1.9 1.5.8.3 1.5.1 1.5-.4 0-1.3-1.8-2.2-2.4-1.1zM611.6 285.5c-.3.9 0 1.2.8.9.8-.3 1.7-.1 2.1.5.3.6.1 1.1-.5 1.1s-.8.5-.4 1.1c.9 1.5 2.4-.9 1.7-2.7-.7-1.9-3.1-2.5-3.7-.9zM77.3 286.5c0 1.8 1.9 1.5 2.5-.3.2-.7-.3-1.2-1-1.2-.8 0-1.5.7-1.5 1.5zM235.9 286.7c-1.3 1.6-1.2 1.7.4.4.9-.7 1.7-1.5 1.7-1.7 0-.8-.8-.3-2.1 1.3zM508.2 287c-1.8 2.9-1.5 3.8.4 1.2.9-1.3 1.4-2.5 1.2-2.7-.2-.2-.9.5-1.6 1.5zM291.1 287.6c0 1.1.3 1.4.6.6.3-.7.2-1.6-.1-1.9-.3-.4-.6.2-.5 1.3zM473.6 291.2c.3.5 1 .6 1.5.3 1.3-.9 1.1-1.2-.6-1.2-.8 0-1.2.4-.9.9zM477.3 292.5c-.9 1-1 1.6-.2 2.1.6.3 1.5 0 2-.7 1.8-2.9.4-4-1.8-1.4zM509.5 292c-.3.6.1.7.9.4 1.8-.7 2.1-1.4.7-1.4-.6 0-1.3.4-1.6 1zM573 291.9c0 .6.5 1.3 1 1.6.6.3 1-.1 1-.9 0-.9-.4-1.6-1-1.6-.5 0-1 .4-1 .9zM142.4 293.7c.3.7.1 1.3-.4 1.3-1.5 0-1.2 2.6.5 4 1.1.9 1.5.9 1.5.1 0-.7.4-1 .9-.7.5.3 1.1 0 1.4-.7.4-1 2.1-1.3 5.6-1 4.5.2 5.1 0 5.1-1.7 0-1.6-.7-2-3.4-2-1.9 0-3.8.4-4.1 1-.9 1.5-4.5 1.2-4.5-.3 0-.8-.7-1.4-1.5-1.4-.9 0-1.4.6-1.1 1.4zM578 294c-1.3.8-1.2 1 .3 1 .9 0 1.7-.5 1.7-1 0-1.2-.1-1.2-2 0zM599.8 293.7c.7.3 1.6.2 1.9-.1.4-.3-.2-.6-1.3-.5-1.1 0-1.4.3-.6.6zM472 295.2c0 .8.9 2.1 2 3.1 1.7 1.4 2 1.4 2 .2 0-.8-.7-1.5-1.6-1.5-.8 0-1.3-.4-.9-.9.3-.5.1-1.2-.5-1.6-.5-.3-1 0-1 .7zM82 295.5c0 1 2.9 2.4 3.4 1.7.3-.6-.3-1.2-1.4-1.5-1.1-.3-2-.4-2-.2zM581.4 296.4c.3 1.9 3.6 5.6 4.9 5.6.5 0-.2-.9-1.7-2.1-1.4-1.1-2.4-2.4-2.1-2.9.3-.5.1-1.1-.4-1.4-.5-.4-.8 0-.7.8zM624.5 298c-.3.5-.1 1 .4 1 .6 0 1.1-.5 1.1-1 0-.6-.2-1-.4-1-.3 0-.8.4-1.1 1zM153 298.9c0 .5.6 1.2 1.3 1.4.7.4.6.6-.4.6-1.4.1-2.9 2-2.9 3.7 0 .2 1.8.2 4-.1 3.2-.4 4-.2 4 1.1 0 2-3.1 7.4-4.3 7.4-.4 0-2 .9-3.5 2-5.1 3.7-24.1 7.6-25.6 5.1-.9-1.4.6-2.1 2.1-.9 1.1.9 1.6.9 2.3-.2.6-.9.5-1.7-.2-2.1-.6-.4.2-1.4 2-2.3 3.5-1.8 4.6-2 3.7-.7-.3.5 0 1.3.6 1.6.5.4.8 1.3.5 2.1-.3.8 0 1.1 1 .7 1.7-.6 1.8-1.5.2-3.2-1.1-1-1-1.1.3-.6 1.2.5 1.6-.1 1.7-2.4 0-2.4-.3-2.9-1.6-2.4-.9.3-2.2 1-2.9 1.5-.8.6-1.6.3-2.5-1.1-.7-1.2-1.6-2.1-2-2.1-1 0-5.5 4.6-7.4 7.6-.9 1.3-2.7 2.7-4 3-1.8.5-2.3 1.1-1.9 2.8 1.5 7 2.7 11.2 3.5 12.1 1.2 1.5 6 14.9 6 16.8 0 .9.5 2.8 1.2 4.4.6 1.5 1.2 3.2 1.3 3.8 0 .5.5 1.9.9 3s1.5 3.8 2.3 6c2.4 6.2 10.2 23.7 11.8 26.5 6.1 10.8 7.3 13.8 10.1 23.9.8 3 2.1 6.8 2.8 8.5.7 1.7 2.6 6.5 4.1 10.6 1.6 4.1 3.7 9.4 4.7 11.7 1 2.3 1.8 4.7 1.8 5.3 0 .7 1.3 4.2 2.9 7.8 1.6 3.7 3.5 8.9 4.2 11.7.7 2.7 1.5 5.2 1.8 5.5.3.3 1.6 3.4 2.8 7 6.8 20.3 10.8 31.4 15.6 43 .6 1.4 1.1 2.9 1.3 3.5 1 4.2 8.6 19.5 9.7 19.5.5 0 .6.4.2.9-.3.5 0 1.5.7 2.3.7.7 2.8 4.3 4.5 8 4.4 9.1 13 22.1 19.2 28.8 2.7 3 5.7 6.3 6.6 7.3.9 1 2 1.6 2.3 1.2.4-.3.2-.9-.3-1.3-.6-.4-2.6-2.7-4.6-5.2-2-2.5-4.8-5.8-6.3-7.3-1.4-1.5-2.6-3.2-2.6-3.8 0-.5-1.1-2.2-2.5-3.7s-2.5-3.3-2.5-4.1c0-.8-.6-2.2-1.4-3-.7-.9-2.8-4.5-4.7-8.1-1.8-3.6-5.1-9.7-7.4-13.5-4.2-7.2-5.4-9.7-10-22-1.5-3.9-3.4-8.6-4.2-10.5-2.6-6.1-3.1-7.3-6.2-16.5-3.1-9.5-10-29-10.2-29 0 0-.2-.7-.4-1.6-.1-.9-1-3.2-1.8-5-1.8-4-1.9-4.3-6.7-17.9-5.3-14.9-7.4-20.4-8.1-21-.3-.3-.9-1.9-1.2-3.5-1-5.5-3.9-15-4.9-16.3-.8-.9-.7-2 .1-3.8.9-2.1.9-2.9-.3-3.8-.7-.6-1.7-1.8-2-2.6-.3-.8-.4-.5-.2.7.2 1.3 0 2.3-.5 2.3s-.9-.4-.9-1c0-.5-.8-1.9-1.7-3-1-1.1-1.8-2.4-1.8-2.8-.2-1.7-2-6.2-5.2-12.7-1.9-3.9-4.2-9.2-5-11.9-.8-2.7-2.1-6-3-7.2-.8-1.3-1.6-4.1-1.8-6.4-.1-2.3-.5-4.4-.9-4.7-.3-.4-.6-1.7-.6-2.9 0-1.3-.4-2.6-1-2.9-.5-.3-1-1.9-1-3.5 0-1.7-.7-3.3-1.7-3.9-1-.6-1.2-1.1-.5-1.1.6 0 1.2-.9 1.2-2.1 0-1.1.5-1.7 1-1.4.6.4.8 1 .5 1.5-.3.4.2 1.1 1 1.4 1.2.4 1.3.2.5-1.3-.8-1.6-.5-2 1.6-2.5 1.4-.4 2.9-.4 3.4-.1.6.4 1 .2 1-.3 0-1.6-3.1-2.3-4.6-1.1-1.1.9-1.4.8-1.4-.2 0-.9-.3-1-.8-.3-.4.6-2.2 1.1-3.9 1.2-3 .1-3.3-.2-3.3-2.9 0-1.6.6-2.9 1.3-3 .6 0 4.7-.1 8.9-.3 4.5-.1 8.3-.7 9-1.4.6-.6 2.2-1.2 3.5-1.2 3.5 0 8.5-2.9 14.5-8.3 1.1-1 2.1-1.7 2.2-1.5.8 1.1 3 7.4 2.8 8-.1.5.5.8 1.3.8s1.5.6 1.5 1.2c0 .9.3.9.9-.1.7-1.1 1.2-.7 2.4 1.6 2.6 4.9 5.7 13.6 5.2 14.4-.3.4.2 1 1.1 1.3 1.3.5 1.5 1.5 1.1 4.1-.3 2-.1 3.5.5 3.7.6.2 1.2 1.9 1.3 3.8.1 1.9.9 5.1 1.7 7.1 1.7 4 5.2 14.8 5.3 16.4 0 .5.2 1.2.5 1.5.5.4 6.6 19.1 9.1 27.6.5 1.7.9 4.5.9 6.2 0 1.8 1.4 5.8 3 8.9 1.7 3.1 3 6.4 3 7.3 0 1 1.3 5.4 2.9 9.8 2.1 6 2.6 8.4 1.7 9.3-.8.9-.8 1 0 .6s1.4.7 1.9 3.1c.3 2 1.2 4.6 1.9 5.7 2.7 4.3 6.6 17.4 8.6 29 .6 3.8 1.8 9.5 2.6 12.5s1.9 7.7 2.4 10.5c1.6 7.7 2 9.4 4.2 18 1.1 4.4 2.7 10.9 3.4 14.5.7 3.6 2.4 10.8 3.9 16 1.4 5.2 3.2 12.2 3.9 15.5 1.8 8.1 3.1 11.2 4 9.6.5-.7.3-2.4-.3-3.9s-1.5-4.5-2-6.7-1.9-7.3-3-11.3c-1.2-4-2.2-8.5-2.3-10-.1-1.5-.5-3.2-.8-3.7-.4-.6-1-3-1.3-5.5-.3-2.5-1.5-7.2-2.6-10.5-1-3.3-2.6-10.7-3.5-16.5-1-5.8-2.3-12.5-3.1-15-1.3-4.2-3.8-15.8-4.9-22.5-.9-5.6-2.5-11-4.1-14.2-1.3-2.5-1.4-3.7-.5-5.5 1.1-2.2 1-2.2-.4-.4-.9 1.1-1.6 1.6-1.7 1-.1-1.6-.7-3.6-3.9-12.9-1.7-5-3.1-10.4-3.3-12-.1-1.7-.6-3.3-1-3.6-.4-.3-1-1.8-1.3-3.4-.3-1.5-1.3-4.4-2.4-6.4-1-2.1-2.2-6.4-2.5-9.6-.4-3.3-1.3-7.6-2.1-9.7-.7-2.1-1.4-4.2-1.4-4.6-.2-1.5-1.2-5.8-1.7-7.2-.3-.8-.7-2-.9-2.5-.2-.6-2.4-6.9-4.8-14.2-2.5-7.2-4.8-14.8-5.2-16.8-.5-3.4-.4-3.6 1.4-2.6 2.8 1.5 3.7-2.2 1.1-4.5-1.7-1.6-1.9-1.6-1.9-.1 0 1-.4 1.7-1 1.7-.5 0-1-1-1-2.3 0-1.2-2.5-8.3-5.5-15.7-3.1-7.4-5.7-14-5.8-14.5-.1-.6-.6-1.3-1.2-1.7-.5-.4-1-2.9-1-5.5 0-3.9-.3-4.8-1.8-4.7-.9.1-1.7-.4-1.7-1.2 0-1.6-4.1-2.8-6.8-1.9-1.1.3-2.3.1-2.7-.5-.8-1.2-2.5-1.3-2.5-.1zm12 11.3c0 .4-.4.8-.9.8-.6 0-1.2-.4-1.5-.8-.3-.5.1-.9.9-.9s1.5.4 1.5.9zm-32.5 1.8c.3.5.1 1-.4 1-.6 0-1.1-.5-1.1-1 0-.6.2-1 .4-1 .3 0 .8.4 1.1 1zM245.5 298.9c-.3.5-.2 1.2.3 1.5.5.3.9-.1.9-.9 0-1.7-.3-1.9-1.2-.6zM86.4 300.6c.3.9.6 1.9.6 2.4 0 .4.6 1 1.4 1.3 1.1.5 1.1.1-.1-2.4-1.5-3-3-4-1.9-1.3zM248 300c0 .5.5 1 1.1 1 .5 0 .7-.5.4-1-.3-.6-.8-1-1.1-1-.2 0-.4.4-.4 1zM625.7 300.7c-1 1-.8 2.3.4 2.3.5 0 .7-.5.3-1.2-.5-.8-.2-.9 1-.5 1 .4 1.5.3 1.1-.3-.7-1.2-1.9-1.3-2.8-.3zM291.6 302.5c.4.8.8 1.5 1 1.5.2 0 .4-.7.4-1.5s-.4-1.5-1-1.5c-.5 0-.7.7-.4 1.5zM247 303.7c0 1.6-.2 1.6-1.1.3-.9-1.3-1-1.3-.6 0 .2.8 1.3 1.6 2.5 1.8 2.4.4 2.5.2 1.6-2.2-.8-2.1-2.4-2-2.4.1zM588 304c0 .5.7 1 1.6 1 .8 0 1.2-.5.9-1-.3-.6-1-1-1.6-1-.5 0-.9.4-.9 1zM473.1 305.6c0 1.1.3 1.4.6.6.3-.7.2-1.6-.1-1.9-.3-.4-.6.2-.5 1.3zM629.6 305.9c-1 1-1.3 2.2-.8 2.5.5.3 1.4-.6 2-1.9 1.4-3 1.1-3.1-1.2-.6zM195.7 306.1c.7.7 1.5 1 1.8.7.3-.3-.2-.9-1.2-1.2-1.4-.6-1.5-.5-.6.5z"/><path d="M151 307.8c0 1 .7 1.9 1.5 1.9s1.5-.2 1.5-.4c0-.3-.7-1.1-1.5-1.9-1.3-1.4-1.5-1.3-1.5.4zM153.8 306.7c.7.3 1.6.2 1.9-.1.4-.3-.2-.6-1.3-.5-1.1 0-1.4.3-.6.6zM592 307c0 .5.5 1 1 1 .6 0 1-.5 1-1 0-.6-.4-1-1-1-.5 0-1 .4-1 1zM91.6 308.8c-.3.5.1.9.9.9s1.5-.4 1.5-.9c0-.4-.4-.8-.9-.8-.6 0-1.2.4-1.5.8zM503.8 308.7c.7.3 1.6.2 1.9-.1.4-.3-.2-.6-1.3-.5-1.1 0-1.4.3-.6.6zM600 310.5c-.7.9-1.1 1.7-.9 2 .3.2 1-.5 1.7-1.5 1.4-2.4 1-2.6-.8-.5zM485.2 310.9c-.8.5-1.2 1.6-1 2.4.2 1.1.7 1.4 1.6.8.8-.5 1.2-1.6 1-2.4-.2-1.1-.7-1.4-1.6-.8zM152.8 311.7c.7.3 1.6.2 1.9-.1.4-.3-.2-.6-1.3-.5-1.1 0-1.4.3-.6.6zM250.5 312c-.4.6-1.1.8-1.6.5-.5-.4-.9-.2-.9.3s.9 1.2 1.9 1.5c1.5.3 1.9 0 1.8-1.4-.1-2.2-.3-2.3-1.2-.9zM201 313.1c0 .6-.5.7-1.2.3-.7-.5-.9-.2-.5.9.4 1.2.2 1.4-1 1-1.1-.4-1.4-.2-1.1.8.3.8 1.2 1.3 2.2 1.1.9-.2 1.6.3 1.6 1 0 1.7 1.6-.2 2.4-2.8.4-1.5.2-2.4-.9-2.8-.8-.3-1.5-.1-1.5.5zM481.7 313.6c-.3.4-.1 1.6.4 2.7.6 1.1.7 2.2.3 2.6-1.6 1.1-1.4 3 .2 2.4 1.1-.4 1.4-1.3.9-3.2-.3-1.4-.6-3.2-.7-3.9-.2-1.4-.2-1.4-1.1-.6zM603 315.9c0 .5.5 1.3 1 1.6.6.3 1 .2 1-.4 0-.5-.4-1.3-1-1.6-.5-.3-1-.2-1 .4zM636.8 318.5c1 1.6 1.7 3.6 1.5 4.2-.3.7-.1 1.3.4 1.3s1-1.2 1.1-2.7c.1-1.4-.1-2.4-.4-2-.4.3-1.5-.4-2.6-1.6-2-2.2-2-2.2 0 .8zM186.2 319c-.7 1.1-.8 2-.3 2 .9 0 2.4-3 1.8-3.6-.1-.2-.8.6-1.5 1.6zM251.3 319c.3 1.1.1 1.8-.4 1.4-.5-.3-.6.2-.3 1s1.1 1.3 1.8 1c1.5-.6.9-5.4-.6-5.4-.6 0-.8.9-.5 2zM187.9 321.8c-.8 1.5-1.8 3-2.4 3.4-.6.5-.4.8.5.8s2.1-1.4 2.8-3.2c1.5-4 1-4.7-.9-1zM605.5 320c.4.6 1.1.8 1.6.5 1.4-.9 1.1-1.5-.7-1.5-.8 0-1.2.5-.9 1zM641.7 323c-1.1 4-.8 6 .9 6 .9 0 1.2.5.8 1.2-.5.9-.3.9.9-.1 1.9-1.5 1.3-3.3-.8-2.4-2.1.7-1.9-1.4.3-2.6.9-.6 1.2-1.1.5-1.1-.6 0-1.3-.8-1.5-1.8-.3-1.3-.5-1.1-1.1.8zM93.7 322.7c-.2.4-.7 2.1-1.1 3.8-.4 1.6-1.4 4.3-2.1 6-2.8 6.2-9.3 24.4-12.5 34.5-1.8 5.8-3.9 10.9-4.6 11.3-.8.4-1.4 1.8-1.4 3s-.7 4.7-1.6 7.7c-.9 3-2 7.7-2.5 10.5-2.1 11.8-3 15.5-4 15.5-.5 0-.9-.5-.9-1.1 0-.5-.4-.7-1-.4-.6.4-.9 6-.9 13.8.2 11.7-2.2 37.9-3.7 43.1-.4 1-.8 5.3-1 9.5-.4 9.6-1.3 13.9-5 26.3-1.6 5.2-1.6 5.8 0 7.3 2.4 2.4 2 3.7-2.2 6.6-3.6 2.5-12.2 5.4-12.2 4 0-.3-1.6-.6-3.5-.6-2.5-.1-3.4.3-3.1 1.2.3.7.1 1.3-.4 1.3-.6 0-1-.6-1-1.4 0-.7-1.1-1.6-2.5-1.8-1.3-.3-2.2-.1-1.9.3.3.5-.7 1.4-2.3 2.1l-2.8 1.2 2.7.4c1.6.2 2.8.8 2.8 1.3s.5.9 1.1.9c.5 0 .8-.4.4-.9-.3-.5-.1-1.2.5-1.6.5-.3 1-.1 1 .5s.4.9.9.6c.5-.4 1.2 0 1.4.6.4 1 .6 1 .6 0 .1-1 .6-1 2.1-.2 1.7.9 2 .8 2-.7.1-1.7.2-1.6 1.5.1 1.1 1.4 1.5 1.6 1.5.5 0-.8.3-1 .8-.4.9 1.2 5.3 2 5 .8-.2-.4 1-2 2.5-3.5s2.7-2.5 2.7-2.2c0 .2.9 0 1.9-.6 2.1-1.1 2.2-.9.5 5.4-.5 2-.3 2.7.4 2.2.6-.3 1.3-.2 1.7.4.3.5-.2 1-1.2 1-1.5 0-1.5.2-.4.9 1.3.8 1.3 1.2 0 2.7-.8 1-.9 1.5-.2 1.1.8-.5.7.3-.3 2.2-1 2-1.2 3.6-.5 5.2.5 1.4.5 3.4 0 4.8-.8 2.1-.7 2.2.6 1.1.9-.8 1.5-.8 1.5-.2 0 .9-3.1 2.5-5.2 2.7-.3 0-1 .4-1.5.9s-.2.6.6.1c1-.6 1.2-.4.7.4-.5.7-1.4 1-2.2.7-1.6-.6-6.4 1-6.4 2.1 0 .5 1.1.8 2.5.8s2.5-.6 2.5-1.3c0-1 .5-1 2.1-.2 1.7 1 2.1.8 2.6-.9.3-1.1.9-1.8 1.4-1.6.4.3.6 1.2.3 1.9-.3.8-.1 1.7.4 2 1.1.7 3.8-2.1 2.9-3-.3-.3-.2-1.7.3-3 .6-1.4.6-2.6 0-2.9-1.6-1-1.1-5.7.7-7.7.9-1 1.1-1.8.5-1.8-.6 0-.8-1.1-.5-2.8.4-1.5.6-4.2.6-6-.1-2.4.3-3.2 1.5-3.2 1.5 0 1.5-.2.2-1-1.3-.9-1.3-1.2.3-2.1.9-.5 1.7-1.5 1.7-2.2 0-.8-.3-.7-.9.2-.7 1-.9.7-.8-1.2.2-1.9.5-2.3 1.5-1.5 1.5 1.3 1.6.3.2-2.3-.6-1-.7-1.9-.2-1.9 1.7 0 1-3.9-.9-4.5-2.1-.7-2.3-2.3-.8-8 .6-2.2 1-4.8 1-5.8 0-.9.4-1.5.8-1.3.5.3.6-.5.4-1.7-.3-1.3.2-5 1-8.3.9-3.2 1.8-8.8 2.2-12.4.3-3.6.8-8.8 1.1-11.5.4-2.8.7-13.1.9-23 .2-15.9.4-18.5 2.3-22 1.1-2.2 2.3-5.7 2.7-7.8.4-2 1.1-4 1.6-4.3.5-.3.7-1 .3-1.5-.3-.5 0-2.5.6-4.4.6-1.9 1.3-5.3 1.5-7.5.5-5 1.1-6.1 3-5.3 1 .3 1.5 1.9 1.5 4.2 0 3.5 5.6 19.3 8.3 23.5 2.2 3.3 5.7 14.7 5.7 18.2 0 1.8.4 5.5.9 8.1.6 2.6 1.2 7.3 1.5 10.3.3 3 1.1 9.8 1.7 15 1.1 8.6 1.4 83.6.4 103-.6 13.2-1.8 23.5-2.7 24.7-1 1.2 0 6.3 1.2 6.3 1.1 0 2.9-8.6 2.3-10.9-.3-1.1.2-2.1 1.1-2.4 1.7-.7 2.3-3.7.8-3.7-1.1 0-.3-8.8.9-11.2.5-.9.9-2.8.9-4.1 0-4.6 6.7-22 8.2-21.1.4.3.5-.1.2-.9s1.8-3.7 4.8-6.9c2.9-3 6.4-6.9 7.7-8.6 1.3-1.8 2.8-2.9 3.4-2.5.6.3.7.1.3-.5-.4-.7-.1-1.2.9-1.2.9 0 1.4-.4 1.1-.9-.7-1.1 2.8-4.3 3.8-3.4.4.4.4 0 0-1-.3-.9-.2-1.7.3-1.7.4 0 1.7-1.6 2.7-3.5 1.1-1.9 2.3-3.5 2.7-3.5.5 0 1.3-.9 1.9-2 1.5-2.8 3.7-16.7 2.9-18.2-.3-.7-1-7.8-1.3-15.8-.4-8-.9-16.3-1.1-18.5-.1-2.2-.6-8.2-.9-13.4-.4-5.2-.9-9.8-1.2-10.3-.3-.5-1.4-.6-2.4-.3-1.3.4-2.7-.2-4.2-2.1-3.4-3.9-8.7-7-13.6-7.8-2.4-.3-6.7-2.2-9.7-4.2-2.9-2-7.1-3.8-9.2-4.1-3.5-.5-4-.9-5.1-4.4-2.6-8.3-1.1-14.9 5.6-24.6 4.6-6.8 4.7-6.8 5-16.3.1-5.2.4-10.9.4-12.5.3-4.6-2.4-12.5-4.2-12.5-1 0-1.1.3-.4.8 2 1.3 3.7 8.3 2.9 12.6-.3 2.2-.7 7.7-.8 12-.1 5.4-.6 8.1-1.5 8.4-.6.2-1 .8-.7 1.2.3.5.1 1.1-.5 1.5-.7.4-.8-1-.4-4.2.7-6 .7-13.3 0-19.8-.4-2.8-.7-8.8-.7-13.5-.1-4.7-.5-9-1-9.7-.7-.7-.6-1.4.1-1.8 1.5-.9 1.2-2.5-.5-2.5-1.2 0-1.3-.4-.6-1.9.8-1.4.7-2.2-.3-3-.8-.7-1.6-.8-1.9-.4zm2.3 25c.8 19.7.5 32.4-.9 33.2-.7.5-1.2 1.4-1.1 2.2.4 2.6 0 4-.9 3.5-.5-.3-.8.2-.7 1.2 0 .9-.4 1.6-1.1 1.5-.6-.2-1.8 1.3-2.4 3.2-.7 1.9-1.7 3.5-2.1 3.5-.4 0-.8-.2-.8-.4s-.3-1.2-.7-2.2c-.5-1.3-.3-1.6.9-1.1 2.2.8 3.2-2.1 1.3-3.9-.8-.9-1.5-2.4-1.5-3.3 0-1-.7-2.5-1.6-3.2-1.5-1.2-1.5-1-.1 2.3 1.6 3.8 1.4 5-.8 4.2-1-.4-1.2.1-.8 1.7.4 1.5.3 2-.5 1.5-1.5-.9-1.1-5.8.4-5.2.7.3 1-.3.7-1.5-.5-2-2.3-2.7-2.3-.9 0 .5-.4 1-1 1-2 0-.9-3 2.5-6.5 3.3-3.6 3.3-3.7.9-3.1-2 .5-2.4.4-1.8-.6.5-.7.9-2 1.1-2.8.1-.8.7-2.6 1.4-4 .6-1.4 1.5-3.4 1.9-4.5.4-1.1 1.7-4.1 2.9-6.6 1.1-2.5 2.1-5.2 2.1-5.9 0-.8.7-2.1 1.5-2.9.8-.9 1.5-3.4 1.6-5.6.2-3.7.6-5.5 1.3-5.5.1 0 .4 4.8.6 10.7zm-6.9 54.6c-.8.8-1.1.7-1.1-.4 0-2 1.3-3.4 1.8-1.9.3.7-.1 1.7-.7 2.3zm1.3 6.3c.3.8.2 1.2-.4.9-.6-.3-1-1-1-1.6 0-1.4.7-1.1 1.4.7zm9.6 8.4c1.2.8 1.2 1-.5 1-1.1 0-2.7-.5-3.5-1-1.2-.8-1.2-1 .5-1 1.1 0 2.7.5 3.5 1zm3.5 1c-.3.5-.1 1 .6 1s2.2.9 3.4 2c1.1 1 4.9 2.7 8.4 3.6 6.2 1.5 13.1 5.1 13.1 6.6 0 1.1.3 1.2-9.6-2.7-4.9-1.9-9.2-3.5-9.7-3.5-1.4 0-7.7-5.8-7.7-7.2 0-.4.5-.8 1.1-.8.5 0 .7.4.4 1zm-1.5 4c7.9 4.5 23.8 11.3 26.6 11.3 1.4 0 2.2 1.8 5.2 11.7 2.9 9.5 3.2 11 2.2 13.6-.5 1.3-.6 2.4-.2 2.4.6 0 .8 5.1.3 7.5-.2.5-.2 5.6-.2 11.2 0 5.7-.5 13.2-1.3 16.7-.8 4.1-1 6.9-.4 7.8.7 1 1.1 1 1.5 0 .2-.6.9-1.2 1.4-1.2 1.8 0 .8 2.4-2.8 6.6-10 11.6-16.9 19.3-21.3 23.9-5 5.1-11.6 17.6-13.1 24.5-.4 1.9-.6-9.1-.5-24.4.2-22 .5-28.1 1.5-28.4 1-.3 1-.6.1-1.2s-.9-1.2 0-3c.8-1.5.8-2 .1-1.6-.7.5-1.1-.7-1.1-3.6 0-3 .3-3.9 1-2.8.5.8 1.2 1.1 1.6.8.8-.8.8-20.8 0-26.3-1.3-8.7-3.5-20.6-4.1-21.5-.3-.6-.1-1 .6-1 .8 0 .8-.4.2-1.3-2-2.5-3.3-10-2-11.6.9-1.2.9-1.3 0-.7-1 .5-1.3-.3-1.3-2.9 0-2.2-.4-3.4-1-3-.5.3-1-.1-1-1 0-1 .5-1.3 1.2-.9.8.5.9 0 .6-1.4-.8-2.8 1.5-2.9 6.2-.2zm32.7 17.2c-.3.8-.6.5-.6-.6-.1-1.1.2-1.7.5-1.3.3.3.4 1.2.1 1.9zm-37 16c-.3.7-.5.2-.5-1.2s.2-1.9.5-1.3c.2.7.2 1.9 0 2.5zm-37 12c-.2 1.3-.4.5-.4-1.7-.1-2.2.1-3.2.4-2.3.2 1 .2 2.8 0 4zM139 482c0 .5-.2 1-.4 1-.3 0-.8-.5-1.1-1-.3-.6-.1-1 .4-1 .6 0 1.1.4 1.1 1zm-85.6 27.4c-.4 1-.1 2.2.6 2.6.7.4.9 1.3.5 2-1.1 1.8-3.1-3-2.7-6.4.3-2 .7-2.4 1.3-1.5.5.8.6 2.2.3 3.3zm.1 29.5c.3.5.1 1.2-.5 1.6-.5.3-1-.1-1-.9 0-1.8.6-2.1 1.5-.7z"/><path d="M89.5 359.1c-.4.6-.5 1.2-.2 1.5.2.3.7-.2 1-1.1.7-1.7.1-2-.8-.4zM97.4 422.5c-.3.8-.4 2-.2 2.7.3.7.7.1 1-1.5.6-2.9.1-3.6-.8-1.2zM100.2 427.8c3.2 4 4.4 4.8 5.4 3.8 1.3-1.4-1.2-4.1-4.4-4.9-2-.5-2.2-.3-1 1.1zM101 433.1c0 .5.5.7 1 .4.6-.3 1-.8 1-1.1 0-.2-.4-.4-1-.4-.5 0-1 .5-1 1.1zM116 435.6c0 .8.4 1.3.9.9.5-.3 1.2-.1 1.6.5.3.5.1 1-.6 1s-1 .2-.7.5c.3.3 1.3.3 2.2-.1 1.6-.6 1.5-.8-.3-2.5-2.5-2.3-3.1-2.4-3.1-.3zM99 438.9c.4 1.6.5 3.3.2 3.7-.4.5.1.3 1-.5 1.4-1 1.5-1.7.6-3.7-1.6-3.4-2.8-3-1.8.5zM105.3 445.5c0 .8.4 1.2.9.9.5-.3.6-1 .3-1.5-.9-1.3-1.2-1.1-1.2.6zM102.1 453.6c0 1.1.3 1.4.6.6.3-.7.2-1.6-.1-1.9-.3-.4-.6.2-.5 1.3zM124.4 456.2c-.5.8-.2.9.9.5 1.4-.5 1.5-.2.6 2-.7 1.8-.6 3 .1 3.7.7.7 1 .5 1-.8 0-1.1.4-1.5 1.3-1 .8.5.7.2-.2-.9-1.2-1.5-1.2-1.7.4-1.1 1.5.6 1.6.5.4-1.5-1.5-2.3-3.4-2.7-4.5-.9zM125.5 485.1c-.4.6-.5 1.2-.2 1.5.2.3.7-.2 1-1.1.7-1.7.1-2-.8-.4zM125.9 492.7c-1.3 1.6-1.2 1.7.4.4.9-.7 1.7-1.5 1.7-1.7 0-.8-.8-.3-2.1 1.3zM123.4 512.4c-.3.8-.1 2.3.6 3.3.9 1.6 1 1.5.4-.6-.4-1.5-.1-2.7.7-3.2 1.1-.7 1.1-.9.1-.9-.7 0-1.5.6-1.8 1.4zM110.5 529.9c-.3.5-.1 1.2.5 1.6.5.3 1-.1 1-.9 0-1.8-.6-2.1-1.5-.7zM252 324.1c0 .5-.5.7-1 .4-.7-.4-.8.3-.4 2.2.4 1.5 1.1 2.9 1.6 3.1.4.2.8 1.3.8 2.5s.9 4 2.1 6.1c1.3 2.5 1.8 4.7 1.4 6.6-.3 1.5-.2 3.1.3 3.4.5.3.9 1.9 1 3.6 0 1.7.6 4.7 1.2 6.6.7 1.9 1 4.4.7 5.5-.3 1-.1 2.1.3 2.4 1.9 1.2 4.3 17.7 5.5 37.5.2 4.1.7 11.3 1.1 16 .3 4.7.8 11.9 1 16 .2 4 .9 7.9 1.4 8.4.7.7 1 .6 1-.3 0-.7.5-.9 1-.6.8.5.8 1.1.1 1.9-.6.7-.8 1.6-.4 1.9.3.4.1.7-.7.7-1 0-1 .3-.1 1.4.8 1 1 3.3.6 6.8-.6 5.4-.6 8 0 20.3.4 9.2.4 9.2 1.4 7.7.5-.8.7-3.3.6-5.5-.2-2.3.2-5 .7-6.1.7-1.3.7-1.6-.1-1.1-.8.4-1-.5-.6-3.3.7-6.1.9-20.1.2-20.8-.3-.3-.1-1.8.4-3.2.7-1.7.6-2.9-.1-3.6-1.4-1.4-1.3-6.9.2-6 .8.5.8.3.2-.7-.5-.8-.9-5-1-9.4-.1-7.5-1-16-1.8-17.4-.3-.3-.7-3.8-1.1-7.6-.3-3.9-.8-8.8-1-11.1-.3-2.7.1-4.8 1.1-6 .8-1 1.3-1.5 1.3-.9-.5 2.4 2.2 10.7 6.2 19 1.6 3.3 2.7 7 2.5 8.2-.3 1.5-.1 2 .9 1.7.9-.4 1.3.1 1.1 1.2-.2 1 1.1 3.1 2.8 4.8 1.7 1.7 3.1 3.3 3 3.6-.1.9 2.3 2.9 2.9 2.3.8-.7 6.3 4.9 5.9 6-.1.5.2.6.7.3.5-.4 1.2-.2 1.6.4.4.6 1 .8 1.4.5 1.3-.7 4.4 3.2 3.6 4.6-.5.7-.3 1 .6.7.8-.3 3.7 1 6.5 2.7 2.8 1.8 6 3.6 7.2 3.9 1.1.4 3.7 1.8 5.8 3.2 2 1.4 4.3 2.3 5 2 .8-.3 1.4.1 1.4.9s.5 1.5 1.1 1.5c.6 0 1.7.7 2.6 1.5.8.9 2 1.4 2.7 1.2.6-.2 2.7 1.3 4.7 3.5 3.2 3.3 3.8 3.6 4.4 2.1.6-1.7.8-1.7 2.2.2 1.1 1.4 1.7 1.6 2 .7.3-.6.9-1.2 1.4-1.2.6 0 .7.4.4 1-.3.5-.2 1 .3 1 1.7 0 2.1-2.8.6-4.7-1.3-1.7-1.4-1.7-.8.2.5 2 .5 2-1 .1-.8-1-1.4-2.2-1.1-2.5.2-.4-.5-1.3-1.7-2-1.1-.7-1.8-.9-1.5-.4.3.5-1.2.9-3.3.8-2.1 0-3.6-.3-3.3-.8 1.2-2-1.1-4.5-5.2-5.7-2.4-.7-4.6-1.8-4.9-2.6-.3-.8-1.2-1.4-2.1-1.4-.8 0-1.5-.5-1.5-1 0-.6-1.2-1.6-2.7-2.3-1.6-.6-3.1-1.5-3.4-2-.3-.4-1.5-.9-2.7-1-1.2 0-2.4-.7-2.6-1.4-.3-.7-1.2-1.3-2.1-1.3-1.5 0-5.1-2.8-11.2-8.8-3.7-3.6-4.3-3.8-6.2-2-1.1 1.1-1.1.9-.2-1 1.1-2 .8-2.6-1.1-2.3-.5 0-.8-.3-.8-.8s-1.6-1.9-3.5-3.1c-1.9-1.2-3.5-2.8-3.5-3.6 0-.9-.5-1.2-1-.9-.6.4-.7 1.1-.4 1.7.4.6.2.8-.3.5-.6-.4-.8-1.8-.5-3.2.3-1.9.1-2.4-.9-2-.9.3-1.5-.3-1.6-2-.4-4.6-.6-5.5-1.5-5.5-.4 0-.8-.9-.8-2s-.4-2-1-2c-.5 0-.7-.7-.4-1.5.4-.8-.6-3.7-2-6.5-1.4-2.7-2.6-5.2-2.6-5.5.1-.3-.4-2.3-1-4.5-.5-2.2-1.5-5.8-2-8-.6-2.2-.8-4.5-.5-5 .3-.6.1-1-.6-1s-1-1.2-.6-3.3c.3-2.1-.4-4.9-1.8-8.2-4.4-9.5-7-19.1-5.4-20 1.4-.9 1.1-2.5-.6-2.5-1.4 0-2 2.6-1.8 7.7.1 1.7-1.2 1.6-2.7-.2-.9-1.1-1-1.8-.1-2.9.9-1.1.8-1.8-.5-3-1.3-1.3-1.4-1.9-.4-3.1.9-1.1 1-1.5.1-1.5-.7 0-.9-.5-.6-1 .3-.6-.1-1-.9-1-.9 0-1.6.5-1.6 1.1zm2 1.9c0 .5-.4 1-1 1-.5 0-1-.5-1-1 0-.6.5-1 1-1 .6 0 1 .4 1 1zm10 29.8c0 1.5-.2 1.5-1 .2-1.3-2-1.3-3.3 0-2.5.6.3 1 1.4 1 2.3zm1.8 13.6c0 4.2-1.9 1.5-2.5-3.5-.5-4.3-.4-4.3 1-1.8.8 1.5 1.5 3.9 1.5 5.3zm25.8 48.2c.2 1.2-.1 1.3-1.2.3-.7-.6-1.1-1.6-.8-2.1.7-1.1 1.7-.3 2 1.8zm-20.7 6.7c-.5 1.7-1 5.4-1.1 8.2l-.1 5-.6-5c-.6-5.3.6-12.8 1.9-12 .5.3.4 2-.1 3.8zm38 7.9c1.1 1.8 1.1 1.8-1.4.2-2.9-1.9-3-2.1-1.1-2.1.7 0 1.9.9 2.5 1.9zM319 437c0 .5-.7 1-1.6 1-.8 0-1.2-.5-.9-1 .3-.6 1-1 1.6-1 .5 0 .9.4.9 1zm8.7 6.2c-.3.8-.6.5-.6-.6-.1-1.1.2-1.7.5-1.3.3.3.4 1.2.1 1.9zm8.7 3.9c-.3.5-1 .7-1.5.3-.5-.3-.7-1-.3-1.5.3-.5 1-.7 1.5-.3.5.3.7 1 .3 1.5zm9.6 7.2c0 .8-.7 1.4-1.5 1.4-2.5 0-1.7-1.7 1.3-2.6.1-.1.2.5.2 1.2zm2.5-.4c.3.5.1 1.2-.5 1.6-.5.3-1-.1-1-.9 0-1.8.6-2.1 1.5-.7zM151 324.8c0 .7-.5 1-1.1.6-.8-.4-.9.1-.4 1.7 1.2 3.6 3.6 7 4.6 6.3.5-.3.6-1.1.2-1.7-.4-.7-.8-1.9-.8-2.7-.1-1.9-2.4-5.9-2.5-4.2zM561.6 325.8c-.4.7-.5 1.2-.3 1.2.3 0-1.4 1.9-3.7 4.3-3.5 3.6-4.3 4-5.3 2.8-1.1-1.3-1.3-1.2-1.3.3 0 1.1-.8 2.5-1.7 3.2-1.7 1.3-1.7 1.4.1.7 1.2-.4 1.7-.3 1.3.4-.4.6 0 1.6.8 2.3.8.7 1.5.9 1.5.4s.7 0 1.5 1c.8 1.1 1.5 1.4 1.5.8 0-.7.7-1.2 1.6-1.2 1 0 1.4.5 1 1.6-.3.8-.2 1.2.4.9 1.6-1 1.2-3.5-.5-3.5-2 0-1.1-6.1 1.1-7.3.8-.5 1.2-1.2 1-1.6-.3-.4.5-.8 1.7-.8 1.7-.2 1.9 0 .7.7-1.3.8-1.3 1 .1 1 .9 0 1.9-.9 2.2-2.1.5-1.8.2-2-1.9-1.6-1.9.3-2.2.2-1.3-.9.6-.7.9-1.9.7-2.6-.3-.9-.6-.9-1.2 0zm-7.2 12.7c-.4.8-1 1.2-1.5.9-1.4-.8-1-2.4.6-2.4.9 0 1.2.6.9 1.5zM183 327c0 .5.5 1 1.1 1 .5 0 .7-.5.4-1-.3-.6-.8-1-1.1-1-.2 0-.4.4-.4 1zM490.5 328c.3.5.8 1 1.1 1 .2 0 .4-.5.4-1 0-.6-.5-1-1.1-1-.5 0-.7.4-.4 1zM459.1 329.6c0 1.1.3 1.4.6.6.3-.7.2-1.6-.1-1.9-.3-.4-.6.2-.5 1.3zM613.6 331.7c1.6 1.5 2.8 2.7 2.6 2.7-.2.1 0 .9.3 1.8.4 1 1.1 1.6 1.5 1.3.4-.2.8.6.8 2 0 1.3.7 3.1 1.5 4 .9.8 1.9 2.4 2.2 3.5.7 2.3 2.1 2.6 2.8.6.3-.8-.4-2.2-1.6-3.1-1.2-.9-1.5-1.3-.7-1 .8.4.5-.2-.7-1.3-1.3-1.1-2.3-2.7-2.3-3.5 0-.8-.7-2-1.5-2.7-.9-.7-1.3-2-1-2.8.3-.8-.3-1.6-1.5-1.9-1.1-.3-2-.9-2-1.4 0-.5-.7-.9-1.6-.9-1.3 0-.9.7 1.2 2.7zM645 332.1c0 .5-.5.7-1.2.3-.7-.5-.8-.3-.2.7.5.8.9 1.7.9 2.1 0 .3.4 1 .9 1.5s.6.3.2-.5c-.8-1.4.3-1.6 2.3-.3.9.6 1 1.1.2 1.5-.8.5-.8 1.3.1 2.9.6 1.2 1.1 2.3 1 2.4-.7 1 0 2.3 1.2 2.3.8 0 1.8.9 2.1 2 .3 1.1 1.1 2 1.6 2s.9 1.9 1 4.2c0 2.4.3 3.7.6 3 .2-.6 1.1-1.2 1.8-1.2s1.5-.6 1.7-1.2c.3-.7.7-.2 1.1 1.1.5 1.9.2 2.2-1.4 1.8-1.6-.4-1.8-.3-.8.9.6.7 1.6 1.1 2.1.8.6-.4.5.2-.1 1.4-.8 1.6-.7 2.1.5 2.6.9.3 1.4 1.3 1.1 2-.3.8.1 1.7.9 2 1.7.7 4.9 7.4 4.5 9.6-.1 1.2 0 1.2.7.1 1.3-1.8 2.4.2 1.5 2.6-.6 1.6-.5 1.6 1 .4 1.5-1.2 1.7-1.1 1.7.5 0 1.4.2 1.6.9.6.7-1.1.9-1.1 1.4.2 1 2.4.6 3.1-1.5 2.8-1-.2-1.8.1-1.8.7s.7.8 1.5.5c1-.4 1.5 0 1.5 1.1 0 1-.5 1.3-1.2.9-.6-.4-.4.3.5 1.7.9 1.3 1.7 3.3 1.7 4.4 0 1.7.2 1.8 1.1.5.8-1.2.9-1.1.4.6-.3 1.2.1 3.4 1 5 .8 1.6 1.5 3.5 1.5 4.2 0 .7.4 1.1.9.7 1.2-.7 1-4.5-.3-4.5-.5 0-.1-.8.8-1.9 1.6-1.7 1.6-2 .1-3.5-1.2-1.2-1.3-1.6-.3-1.6.9-.1.8-.5-.4-1.3-1.1-.9-1.4-1.8-.8-2.7 1-1.7.2-4-2.2-6.1-1-1-1.7-2.3-1.6-3 .2-.7-.4-1.3-1.2-1.4-.8 0-2.1-1.2-3-2.8-1.3-2.4-1.3-2.9 0-3.7 1.2-.8 1.2-1-.2-1.5-1-.4-2.3-.3-3 .1-1 .6-1 .4-.2-.7 1.1-1.6-.7-8.6-2.2-8.1-.4.1-.9-.5-1-1.4-.2-.9-.7-2-1.2-2.3-.5-.3-1.7-2.2-2.7-4.1-.9-1.9-2.4-4.3-3.3-5.3-.8-.9-1.2-1.7-.8-1.7.4 0 0-.7-.8-1.6-.9-.8-1.4-2-1.1-2.5.4-.5-.1-.6-.9-.3-1.1.4-1.6 0-1.6-1.2 0-1.5-.2-1.6-.9-.5-.6.9-1.1 1-1.5.2-.4-.6-.4-1.5-.1-2.1.7-1.1-.8-4.2-1.8-4.1-2.1.3-2.6-.1-2.1-1.4.4-.8.3-1.5 0-1.5s-.6.5-.6 1.1zm12.1 21.2c-1 .9-1.1.8-.5-.6.3-1 .9-1.5 1.2-1.2.3.3 0 1.1-.7 1.8zm9.9 12.9c0 .6-.6.5-1.5-.2-.8-.7-1.5-1.4-1.5-1.6 0-.2.7-.1 1.5.2.8.4 1.5 1.1 1.5 1.6zm10.2 22c-.7.7-1.2.8-1.2.2 0-1.4 1.2-2.6 1.9-1.9.2.3-.1 1.1-.7 1.7zM133 332.4c0 .2.8 1 1.8 1.7 1.5 1.3 1.6 1.2.3-.4s-2.1-2.1-2.1-1.3zM181 333.1c0 .5.5.7 1 .4.6-.3 1-.8 1-1.1 0-.2-.4-.4-1-.4-.5 0-1 .5-1 1.1zM133 337.1c0 .5-.4.8-.9.4-.5-.3-1.2-.1-1.6.5-.9 1.5 1.8 1.2 4.1-.5 1.7-1.3 1.7-1.4.2-1.5-1 0-1.8.5-1.8 1.1zM562.8 339.5c-.6 3-.2 3.2 1.2.6.6-1.1.6-2.2.1-2.5-.5-.3-1.1.5-1.3 1.9zM546 341c0 1.2.5 1.7 1.3 1.4.8-.3 2 .3 2.8 1.2 1.3 1.6 1.2 1.7-.8 1.2-2.5-.7-5.3 1.6-3.1 2.5.9.4 1 .6.1.6-.7.1-1 .9-.7 1.8.5 1.5.3 1.5-.7-.1-.9-1.5-.9-2.4 0-3.8.8-1.3.8-2.4.2-3.6-1-1.6-1-1.6-1.1.1 0 2.4-3.3 5.8-5.1 5.4-.8-.2-1.1-.2-.6 0 1.5.9.6 2.2-1 1.6-1.6-.6-1.6-.5-.4 1 .7.9.9 1.7.3 1.7-.5 0-.8.9-.5 2 .3 1.1 0 2-.6 2s-1.1.7-1.1 1.6c0 1.2.7 1.5 3 1.2 2.8-.4 2.9-.4 1.2 1.2-.9 1-2 1.3-2.3.8-.3-.5-.9 0-1.2 1.1-.3 1.2-.1 1.9.3 1.6.5-.3 1.1-.1 1.5.5.3.5-.3 1-1.5 1s-1.8.4-1.5 1c.3.5.2 1-.2 1-1.5 0-4 6.7-3.2 8.3.5.8.3 2.2-.6 3.3-1.3 1.8-1.4 1.8-.9-.6.4-2.1.3-2.2-.5-.5-1 2.2-.5 3.8 1 3 .5-.4.9.1.9.9 0 1.9 1.6 2.1 2.4.3.2-.6.4-.3.3.8-.2 1.1-.6 2.5-1 3.2-.4.6-.3 1.4.3 1.8.5.3 1-.1 1-.9 0-.9.9-1.6 2-1.6 2.3 0 2.5-1.2.9-4.2-.8-1.4-.8-2.3 0-3.1.8-.8 1.1-.5 1.1.9 0 1.1.4 2.4.9 3 .5.5 1.1 1.8 1.4 2.9.5 1.9.5 1.8 1.2-.4s.9-2.2 2.1-.7c1.1 1.6 1.3 1.6 2.6-.1.7-1 2.2-2.3 3.3-2.9 1.1-.6 2.1-2 2.2-3 .2-1.2-.1-1-.8.6-1 2.4-1.1 2.4-2.1.6-.8-1.5-.7-2.1.6-2.8.9-.5 1.6-1.6 1.6-2.5 0-1.4-.2-1.4-1.5.3-1.4 1.9-1.4 1.8-1.5-.4 0-1.2.5-2.2 1-2.2.6 0 .9-.6.8-1.3-.2-.6.4-1.1 1.3-.9 1 .1 1.9-.6 2.2-1.8.3-1.1.1-1.8-.3-1.5-.5.3-1.1.1-1.5-.5-.3-.5-.1-1 .4-1 .6 0 1-1 1-2.3-.1-1.6-.2-1.8-.6-.5-.5 1.9-4.3 2.5-4.3.7 0-.5-.4-.8-.9-.4-.5.3-1.2.1-1.5-.3-.3-.5.7-.8 2.2-.7 4 .2 5.8-1.9 5.7-6.8-.1-4.4 1.6-7.3 3.7-6.2.7.4.5 0-.6-.9-1.6-1.3-2-1.3-3.3 0-1.9 1.9-2.2 1.8-1.6-.6.4-1.4-.3-2.9-2.1-4.5-3.3-3-3.6-3.1-3.6-.5zm4.4 8.5c.3.8.1 1.5-.4 1.5-.6 0-1-.5-1-1.1 0-.5-.5-.7-1.2-.3-.7.4-.8.3-.4-.4 1-1.6 2.3-1.5 3 .3zm-7.9 2.5c-.3.5-1.1 1-1.6 1-.6 0-.7-.5-.4-1 .3-.6 1.1-1 1.6-1 .6 0 .7.4.4 1zm6.2 2c.1 1.1-.2 2-.8 2-.5 0-.9-.9-.9-2s.4-2 .8-2 .8.9.9 2zm3.3 2c0 1.3-.6 2-1.7 1.9-1.1 0-1.3-.3-.5-.6.6-.2 1.2-1.1 1.2-1.9 0-.8.2-1.4.5-1.4s.5.9.5 2zm-4 2.1c0 1.4-1.7 1-2.3-.5-.4-1-.1-1.3.9-.9.7.3 1.4.9 1.4 1.4zm1 8c0 .6-.4.8-.9.4-.5-.3-1.2-.1-1.6.5-.3.5-1.4 1-2.3 1-1.5-.1-1.5-.2.2-1.5 1-.7 1.5-1.9 1.1-2.5-.6-.9-.2-.9 1.4-.1 1.1.7 2.1 1.6 2.1 2.2zm-12.7 3.9c.3 1.1 0 2.3-.5 2.7-.6.3-.8.1-.4-.5.3-.6.2-1.3-.4-1.7-.6-.4-.8-1.1-.5-1.6.9-1.3 1.2-1.1 1.8 1.1zm9.7 0c0 .5-.4 1-1 1-.5 0-1-.5-1-1 0-.6.5-1 1-1 .6 0 1 .4 1 1zm-5 10.3c0 .5-.4.5-1 .2-.5-.3-1-1.4-1-2.3 0-1.5.2-1.5 1-.2.5.8 1 1.9 1 2.3zM454.5 344c-.9 1.6-2 3-2.5 3-.6 0-1 .5-1 1.1 0 .5.4.8.9.4.5-.3 1.3 0 1.6.6.4.6-.2 1.3-1.4 1.6-1.1.3-2.2 1.3-2.5 2.2-1.2 4.6-1.6 9-.7 9.5.6.4.8-.2.6-1.4-.2-1.1.2-2.5.9-3.2.7-.7 1.1-1.8.9-2.5-.2-.6.4-2.1 1.3-3.2 1-1.1 1.9-2.6 2-3.3.2-.7.7-2.8 1.3-4.6 1.2-4 .6-4.1-1.4-.2zM22.7 347c-.3 1.1-.1 2.3.4 2.6.5.3.9-.6.9-2 0-3.1-.6-3.4-1.3-.6zM626.6 348.7c-1.2 1.2-.5 2.1 1.9 2.5 1.4.3 2.5.5 2.5.4 0-.7-4-3.3-4.4-2.9zM602 350.1c0 .5.5.7 1 .4.6-.3 1-.8 1-1.1 0-.2-.4-.4-1-.4-.5 0-1 .5-1 1.1zM23.1 353.6c0 1.1.3 1.4.6.6.3-.7.2-1.6-.1-1.9-.3-.4-.6.2-.5 1.3zM594.5 353c-.3.5-.1 1 .4 1 .6 0 1.1-.5 1.1-1 0-.6-.2-1-.4-1-.3 0-.8.4-1.1 1zM628.6 354.1c2 2.2 3.4 2.4 3.4.5 0-.7-1.1-1.6-2.5-1.9-2.5-.4-2.5-.4-.9 1.4zM588.4 355.5c-.4.8-1 1.2-1.5.9-.5-.3-.9 0-.9.5 0 1.3.3 1.3 2.4.5.9-.3 1.3-1.1 1-1.6-.4-.6.2-.7 1.6-.3 1.5.5 2 .4 1.6-.4-1-1.6-3.6-1.4-4.2.4zM602.5 357c1.2 1.9 1.6 6.2.5 5.5-.5-.3-1-1.3-1-2.1 0-1.2-.2-1.2-1.4-.2-.8.7-1.2 1.5-1 1.7.2.2-.1 1-.7 1.8-.8.9-.8 1.3-.1 1.3.6 0 1.4-.5 1.8-1.1.4-.8 1.1-.3 1.9 1.2 1.4 2.6-.2 7-1.7 4.6-.5-.7-.8-.3-.8 1.2 0 1.3-.3 2.2-.6 1.8-.4-.3-.3-1.8 0-3.4.6-2.1.9-2.4 1.7-1.2.7 1.1.9.9.9-.9 0-2.5-1.8-3-2.6-.7-.4.8-1 1.3-1.4 1-.5-.3-.7.9-.5 2.7.3 2.1.1 2.8-.4 1.9-.7-1.1-1.2-1.1-3.1.2-1.3.9-1.7 1.7-1.1 2.2.6.3 1.1.1 1.1-.4 0-.6.5-1.1 1-1.1 1.7 0 1.1 1.8-.9 2.5-1.9.6-2.3 3.5-.6 4.7 1.4 1 0 1.9-1.9 1.2-.9-.3-1.3-1.1-.9-1.7.3-.6.1-.7-.5-.3-.6.4-.9 1.3-.6 2.1.4.8 1 1.2 1.5.9 1.1-.6 1.2 1.6.1 3.3-.6.9-1.2.7-2.2-.8-3.9-5.6-3.7-5.3-3.7-3.5 0 .9.4 1.6.8 1.6.3 0 .9 1.4 1.1 3 .3 2.2-.2 3.7-1.7 5.4l-2.2 2.4 2.3.5c1.3.2 2.8-.1 3.5-.7.9-.8 1-.5.6 1.4l-.6 2.5 1.9-2.4c1.1-1.2 1.7-2.8 1.3-3.4-.3-.6-.1-.7.5-.3 1.2.7 6.1-4 6.2-5.9 0-.6-.5-.3-1 .5s-1 1.1-1 .6c0-.6-.7-.1-1.5 1-1.3 1.7-1.4 1.7-1.5.2 0-1 .8-2.7 1.7-3.8 1.6-1.9 1.8-1.9 3.7-.2 1.5 1.2 1.7 1.3.9.2-.9-1.2-.9-2.5.1-5.4 1.2-3.5 1.5-3.7 2.4-2 1.1 1.8 1.1 1.8 1.2-.4 0-1.3.4-2 1-1.7.6.3 1 .1 1-.5s.5-.8 1.2-.4c.8.5.9 0 .6-1.4-.4-1.2-.2-2.5.4-2.8.5-.3.8-1.5.5-2.5-.3-1.1-.2-1.9.2-1.9s.7-1.2.6-2.7c0-2.1-.8-3.2-3.2-4.5-3.8-2-4.7-2.2-3.8-.8zM590 390.3c0 1-.4 1.6-.9 1.2-.5-.3-1.1 0-1.4.7-.2.7-.2.4 0-.7.3-1.1.5-2.9.4-4 0-1.6.2-1.7.9-.5.5.8 1 2.3 1 3.3zM22.8 357.7c.6.2 1.8.2 2.5 0 .6-.3.1-.5-1.3-.5-1.4 0-1.9.2-1.2.5zM646.5 357.9c-.3.5-.2 1.2.3 1.5.5.3.9-.1.9-.9 0-1.7-.3-1.9-1.2-.6zM580.7 360.1c.4 1.3.8 1.8 1.1 1 .2-.7-.1-1.8-.6-2.3-.8-.8-.9-.4-.5 1.3zM578 362.4c0 .9-.4 1.4-1 1.1-.5-.3-1-.1-1 .4 0 1.3 1 1.4 3 .1 1.2-.7 1.2-1.2.2-2.2-.9-.9-1.2-.8-1.2.6zM635 362.9c0 1.7 1.8 2.1 2.4.6.3-.9 0-1.5-.9-1.5-.8 0-1.5.4-1.5.9zM570.6 366.4c.3.9 1.3 1.6 2.2 1.6.8 0 1.3-.1 1.1-.3-.2-.1-1.2-.9-2.2-1.6-1.5-1.2-1.7-1.2-1.1.3zM638.3 365.8c-1.6 1-.5 5.2 1.3 5.2.8 0 1.4-.5 1.4-1 0-.6-.4-1-.9-1-.6 0-.8-.9-.6-2 .4-2.3.4-2.3-1.2-1.2zM22.5 368c-.3.6-.3 1.9 0 3 .4 1.1.2 2-.4 2-.6 0-1.1.4-1.1 1 0 .5.7.7 1.5.4 1-.4 1.5-1.7 1.3-4-.2-3.7-.4-3.9-1.3-2.4zM458 370.7c0 1 .4 2.4.9 3.1.7 1.1.9 1.1 1.4-.2.4-.9.2-1.6-.4-1.6-.6 0-.9-.7-.5-1.5.3-.8.1-1.5-.4-1.5-.6 0-1 .8-1 1.7zM559.5 371.9c-.8 2.1-.2 2.2 2.3.2 2.2-1.6 2.2-1.7.3-1.7-1.1 0-2.3.7-2.6 1.5z"/><path d="M590 372.5c-.7.9-.8 1.5-.2 1.5.5 0 1.2-.7 1.6-1.5.3-.8.4-1.5.2-1.5s-.9.7-1.6 1.5zM555.1 374.6c-1.3 1.3-2.1 2.7-1.8 3.1.4.3.7.1.7-.6s.5-.9 1-.6c.6.3 1 .1 1-.5s.4-.9.8-.6c.4.2.9-.4.9-1.5.1-1 .1-1.9 0-1.8-.1.1-1.3 1.2-2.6 2.5zM629.9 373.6c-.7 2.9.1 5.5 1.4 4.8.7-.4.7-.2-.1.7-1.1 1.2-1.4 1.2-2.2-.1-.8-1.2-1-1-1 .8 0 1.9.4 2.1 2.5 1.6 1.6-.4 2.5-.2 2.5.5s-.8 1.1-1.7.9c-1-.2-1.8.3-1.9.9-.3 2.6-.5 2.8-1.4 1.3-.8-1.2-1-1-1 1 0 1.4-.6 3.6-1.3 5-.7 1.4-1.2 3.2-1.2 4 0 .8-.6 2-1.4 2.6-1 .8-1.1 1.3-.3 1.8.6.4.9 1.3.5 2.1-.3.8 0 1.5.5 1.5.6 0 1.3-.8 1.6-1.8.3-.9.2.3-.1 2.8-.6 5.4-1.3 6.7-2.4 4.9-1.2-1.9-1.1-3.2.1-2.4 1.3.8 1.3.2-.2-3-.6-1.4-1.5-2.5-1.9-2.5-1.1 0-2 3-1.2 4.2.3.7.1.8-.5.4-.7-.4-1.2-.2-1.2.3 0 .6-.7 1.1-1.6 1.1-1.4 0-1.4.3-.4 1.5.7.8.9 1.5.4 1.5s-.2.5.6 1c1.2.8 1 .9-.8.7-1.3-.2-2.8-1-3.2-1.7-.5-.8-1.2-1.1-1.7-.7-.4.5-.3 1.1.3 1.5.6.4 1.6 1.6 2.2 2.7.9 1.6.7 2.4-1 4.2-1.6 1.7-1.8 2.5-.9 4 .8 1.4 1.1 1.5 1.2.3.1-.8.1-1.8 0-2.3 0-.4.3-.7.9-.7 1.6 0 1.1 1.9-1.1 4.1-2.1 2.1-4.6 2.1-4.1 0 .1-.7-.2-1-.8-.6-.5.3-1 1.3-1 2.1s-.4 1.3-.8 1c-.5-.3-.9.1-.9.9s.4 1.2.9.9c.4-.3.8-.1.8.5 0 1.5-2.1 2.5-2.9 1.4-.3-.6-1.4-.7-2.6-.2-1.9.8-1.9.8.3 1.5 1.2.3 2.2 1 2.2 1.5s.5.9 1 .9c.6 0 1-.7 1-1.5s.5-1.5 1-1.5c.6 0 1 .7 1 1.6 0 1 .6 1.4 1.5 1 .8-.3 1.5-.1 1.5.4s-.7 1.5-1.5 2.4c-1.8 1.8-1.9 3.6-.2 3.6.7.1.4.7-.7 1.5-1.7 1.3-1.7 1.4.9 1.1 1.5-.2 3.1-.9 3.6-1.7.6-1 .9-.6.9 1.3 0 3.3 2.5 3.8 3.5.8.3-1.1 1.1-2 1.7-2 .6 0-.2 1.7-1.8 3.7-1.5 2.1-2 3.2-1 2.4 1.5-1.3 1.9-1.3 2.8 0 .7 1.1.9.9.5-.8-.3-1.2.1-3 .7-3.9 1.1-1.4.9-2.1-1.1-4.2-1.3-1.4-2.1-2.7-1.9-2.9.6-.7 5.4 4.5 5.9 6.4.4 1.7.5 1.7.6 0 0-.9.7-1.7 1.4-1.7 1.2-.1-2.2-2.4-3.5-2.5-.5 0-.8-.3-.8-.8V434c0-.6.5-1 1-1 .6 0 .9.6.8 1.2-.2.7.4 1.3 1.2 1.3.8 0 1.6-.9 1.8-2 .2-1.5.1-1.7-.6-.6-1.1 1.5-2.7-.2-1.8-1.8.4-.5.2-1.1-.3-1.3-.5-.1-.3-.9.4-1.5 1.1-1 1.7-1 2.7.1.9.8 2.1 1 3.3.5 1.4-.5 1.5-.8.4-.8-.8-.1-2.3-.7-3.3-1.4-1.6-1.2-1.6-1.3.3-1.3 1.1 0 1.7.4 1.5.8-.3.4.1.8.9.8s1.7-.7 2-1.4c.4-1 .1-1.3-.7-1-.7.3-2-.2-2.9-1-.8-.8-1.7-1.2-2.1-.9-.3.4-.6.1-.6-.5 0-.7.6-1.2 1.4-1.2.8 0 1.6-.3 1.9-.8.2-.4.3-.2.1.3-.1.6.7 1.2 1.7 1.2 1 .1 1.9-.3 1.9-.8 0-.6-.6-.7-1.2-.3-.9.6-.9.3.1-.9.7-.9 1.1-2.3.8-3.2-.4-.8-.2-1.7.3-2 .6-.4 1-.1 1 .6s.3.9.6.6c.4-.4.1-1.3-.6-2.2-.7-.8-.9-1.5-.4-1.5.4 0 .3-.5-.4-1.2-1.5-1.5-1.6-4.8-.2-4.8.6 0 .9.5.8 1.1-.2.6.2 1.3.9 1.6.7.3.9-.3.6-1.6-.3-1.2-.1-2.1.6-2.1.6 0 1.1-.7 1.1-1.6 0-.9-.5-1.2-1.2-.8-1 .5-1 .4-.1-.6.6-.7.9-1.9.6-2.8-.4-1-.2-1.3.5-.8.7.4 1.2.3 1.2-.2 0-.6-.7-1.2-1.5-1.6-.8-.3-1.5-1.1-1.5-1.8 0-.9.3-.8 1 .2.8 1.2 1 1.1 1-.8 0-1.2-.4-2.2-.9-2.2-1.2 0-1.1-8.9.2-9.7.5-.3 1.3.1 1.8.8.6.9.9 1 .9.2 0-.7-.7-1.6-1.6-2.1-1.1-.6-1.5-1.7-1.1-3.1.4-1.5 0-2.4-1.1-2.8-.9-.4-2.2-1.3-2.8-2.1-.9-1.3-1.2-1.2-1.5.4zm.1 14.4c0 .5-.4 1-1 1-.5 0-1-.5-1-1 0-.6.5-1 1-1 .6 0 1 .4 1 1zm3.5 10c.3.6-.1.7-.9.4-1.8-.7-2.1-1.4-.7-1.4.6 0 1.3.4 1.6 1zm-3 1c.3.5.1 1-.4 1-.6 0-1.1-.5-1.1-1 0-.6.2-1 .4-1 .3 0 .8.4 1.1 1zm1.6 3.3c-1 .9-1.1.8-.5-.6.3-1 .9-1.5 1.2-1.2.3.3 0 1.1-.7 1.8zM619 413.4c0 .3-.4.8-1 1.1-.5.3-1 .1-1-.4 0-.6.5-1.1 1-1.1.6 0 1 .2 1 .4zm7 .6c0 .5-.5 1-1.1 1-.5 0-.8.4-.4.9.3.5-.4 1.2-1.5 1.6-1.2.4-2 1.5-2 2.8-.1 2.2-.1 2.2-1.5.3-1.9-2.5-1.9-3.6 0-3.6.8 0 1.5-.9 1.5-2 0-1.5.7-2 2.5-2 1.4 0 2.5.4 2.5 1zm4.3 1c-.5 2-1.5 2.5-2.6 1.3-.8-.7 1.1-3.3 2.3-3.3.5 0 .6.9.3 2zm-12.9 9.3c-.3.9-1.5 1.7-2.5 1.7-3.4 0-1.7 3.1 1.9 3.6 2.5.4 2.3 1.1-.3 1.1-1.4 0-2.5-.4-2.5-.9s-.5-.6-1.2-.2c-.7.5-.5 1.1.7 2.1 1.1.7 1.3 1.3.6 1.3-1.9 0-3.7-2.3-3.7-4.7 0-1.2.3-2.1.6-2.1s1.5-.3 2.8-.7c2.1-.7 2.7-1.7 2.2-4-.1-.6.3-.6 1 .1.6.6.8 1.8.4 2.7zm5.7 0c-.1 1.2-1.5.9-1.9-.4-.3-.6.1-1 .8-.8.6.3 1.1.8 1.1 1.2zm-3.1 1.3c0 .8-.4 1.2-1 .9-.5-.3-1-1-1-1.6 0-.5.5-.9 1-.9.6 0 1 .7 1 1.6zM576.5 374c.4.6.1 1.9-.7 2.8-1.2 1.5-1.1 1.6.5.3 1.9-1.5 2.3-4.1.6-4.1-.5 0-.7.5-.4 1zM640 375.9c.1 2.3 2.7 5.5 3.5 4.2.3-.6.2-1.1-.3-1.1s-.8-1.1-.7-2.3c.2-1.5-.2-2.4-1.1-2.4-.8 0-1.4.7-1.4 1.6zM587.6 376.4c.3.7 1.1 1.3 1.9 1.3 2.2 0 1.8-1.4-.4-2-1.3-.3-1.8 0-1.5.7zM611 377c-.9.6-1 1-.3 1 .6 0 1.5-.5 1.8-1 .8-1.2.4-1.2-1.5 0zM458 378c-.9.6-1 1-.3 1 .6 0 1.5-.5 1.8-1 .8-1.2.4-1.2-1.5 0zM183.3 380.7c0 .9.4 1 1.4.2.7-.6 1.3-1.2 1.3-1.4 0-.1-.6-.2-1.3-.2-.8 0-1.4.6-1.4 1.4zM601.8 379.7c.7.3 1.6.2 1.9-.1.4-.3-.2-.6-1.3-.5-1.1 0-1.4.3-.6.6zM21 382c0 .5.5 1 1.1 1 .5 0 .7-.5.4-1-.3-.6-.8-1-1.1-1-.2 0-.4.4-.4 1zM186.2 383c-.9 1.5-.9 2.1.1 2.6.6.4.9.4.5-.1-.4-.4-.3-1.4.4-2.2.6-.7.9-1.5.7-1.8-.3-.2-1 .4-1.7 1.5zM643.7 381.7c-.9 1.5 1.7 2.3 3.4 1.1 1.1-.8 1.1-.9-.3-.5-.9.3-1.8.1-2.1-.6-.2-.8-.5-.8-1 0zM19.1 384.6c0 1.6.3 2.3.6 1.6.2-.6 1-.9 1.6-.5.7.4.5-.2-.3-1.3-.8-1-1.6-2.1-1.7-2.3-.2-.2-.3.9-.2 2.5zM611.3 383c.2.8 0 2.3-.5 3.2-.5 1-.6 1.8-.4 1.8 1.3 0 2.4-3.7 1.5-5.1-.9-1.2-1-1.2-.6.1zM172 384.5c-.7.9-1 1.8-.6 2.2.3.3.6.1.6-.6 0-.9.8-1.1 2.7-.6 2.3.5 2.5.4 1.4-.9-1.7-2-2.5-2-4.1-.1zM551 384.4c0 .2.8 1 1.8 1.7 1.5 1.3 1.6 1.2.3-.4s-2.1-2.1-2.1-1.3zM555 387.1c0 .5.9.9 2 .9s2-.2 2-.4-.9-.6-2-.9c-1.1-.3-2-.1-2 .4zM172.5 388c-.3.5-.1 1 .4 1 .6 0 1.1.5 1.1 1.1 0 .5-.6.7-1.2.3-.7-.4-.4.2.6 1.4 2.5 2.8 3 2.8 2.2-.3-.4-1.5-.2-2.5.4-2.5.6 0 .8-.5.5-1-.3-.6-1.2-1-2-1s-1.7.4-2 1zM526.7 388.4c-2.2 1.7-1 2.7 1.8 1.5 1.1-.4 1.4-.8.7-.8-.7-.1-1-.6-.7-1.1.8-1.3.4-1.2-1.8.4zM18.5 389c-.3.6.1.7.9.4 1.8-.7 2.1-1.4.7-1.4-.6 0-1.3.4-1.6 1zM574.6 389.8c-.2.4.4.8 1.4.8 1 0 1.6-.4 1.4-.8-.3-.4-.9-.8-1.4-.8-.5 0-1.1.4-1.4.8zM609.4 390.8c.5 1.3.3 2.2-.3 2.2-1.5 0-1.4 1.7.2 1.7.6 0 2 .4 3 .8 2.5 1 2.1-.8-.9-4-2.3-2.5-2.6-2.6-2-.7zM646 390.9c0 .6.5 1.3 1 1.6.6.4 1.8 2.4 2.6 4.4.8 2.1 2.1 3.8 2.8 3.8 1.9 0 1.1-4.4-1.1-6.5-1-.9-1.4-1.5-.8-1.2.6.3.2-.3-.8-1.3-2.1-1.9-3.7-2.2-3.7-.8zM152.7 392.4c-.3.8.3 3.2 1.4 5.3 1.1 2.1 1.7 4.3 1.5 5-.3.7-.1 1.5.4 1.8.6.4 1 .1 1-.5s.5-.8 1-.5c.6.3 1-.1 1-.9s-.5-1.8-1.1-2.1c-.6-.4-.8-1.3-.5-2 .3-.8 0-1.6-.7-1.9-.7-.4-.2-.4 1.1-.2 1.2.2 2.2 0 2.2-.5s-.4-.9-.9-.9-1.3-.9-1.6-2c-.7-2.3-4-2.7-4.8-.6zM521 391.9c0 .6-.7 1.1-1.5 1.1-1.7 0-1.8.6-.5 3.5.5 1.1.9 1.4.9.7.1-.7.5-1.1 1-.7.5.3 1.3 0 1.7-.6.4-.8.3-.9-.4-.5s-1.2.1-1.2-.8c0-.8.5-1.6 1.2-1.8.9-.3.9-.6 0-1.2-.7-.4-1.2-.2-1.2.3zM526.6 393.2c-.9 1-1.6 2.2-1.6 2.6.1.4.9-.3 1.9-1.5 1-1.2 2.1-2 2.4-1.7.3.3.7.1 1.1-.4 1-1.7-2.2-.9-3.8 1zM667.4 394.6c.1 4.2 2.2 6.6 3.7 4.3 1.3-2 1.1-2.5-1.4-5.5l-2.4-2.7.1 3.9zM512.9 396.1l-2.4 2 2.6-1.5c1.4-.9 2.9-1.3 3.4-.9.4.5.5.2.1-.5-.9-1.6-1-1.6-3.7.9zM15 396c0 .5.5 1 1.1 1 .5 0 .7-.5.4-1-.3-.6-.8-1-1.1-1-.2 0-.4.4-.4 1zM554.2 397c-1 1.6-1 2 .1 2 .7 0 1.3-.9 1.4-2 .1-1.1.1-2 0-2s-.8.9-1.5 2zM609 397c-.8.5-1 1-.5 1 .6 0 .3.5-.5 1-.9.6-1 1-.3 1 .6 0 1.3.7 1.5 1.5.2 1 .7 1.2 1.8.5 1.2-.8 1.3-1.2.2-1.9s-1-.9.3-1.5c.9-.3 1.3-1 1-1.6-.8-1.2-1.6-1.2-3.5 0zM515 398.1c0 .5-.4.8-.9.4-.5-.3-1.3 0-1.7.6-.4.8-.3.9.4.5s1.2-.3 1.2.1c0 .5.7 1.8 1.6 2.9 1.4 1.8 1.4 1.8.3-.5-.9-2-.9-2.3.4-1.8 1.1.4 1.3 0 1-1.4-.6-2-2.3-2.7-2.3-.8zM681.5 398c-.3.5-.1 1 .4 1 .6 0 1.1-.5 1.1-1 0-.6-.2-1-.4-1-.3 0-.8.4-1.1 1zM14.3 398.8c-.5.4-.9 1.9-.9 3.4.1 2.1-.1 2.5-1.2 1.6-1-.9-1.2-.8-1 .3.2.8-.3 1.3-1.2 1.1-.8-.2-1.2 0-.7.4.4.4-.2 1.7-1.3 2.9-1.9 2-1.9 2.3-.5 2.9.9.3 1.3 1 1 1.6-.4.6-1.1.8-1.6.4-1.6-.9-3.9 5.8-2.7 8 .7 1.3.7 1.6-.1 1.2-.6-.4-1.1 0-1.1.8 0 .9-.6 1.6-1.2 1.6-.9 0-.8.4.2 1 1.3.8 1.3 1.1.1 1.9-.8.5-1 1.4-.5 2.2.4.7.7 3.7.6 6.6 0 2.9.4 5.5.9 5.9.6.4.6 1.1-.2 2-.6.8-.9 1.7-.5 2.1.3.3.6.1.6-.5 0-1.6 2.7-1.5 3.3 0 .3 1 1 .8 2.3-.5 1-.9 1.4-1.7.9-1.7-.6 0-1.1-1.6-1.3-3.6-.1-1.9-.7-4.4-1.2-5.4-.7-1.3-.7-2.1 0-2.5.5-.3 1-2 1-3.8 0-5.1.4-7.7 1.2-7.7.4 0 .7-.3.6-.8-.3-1.6 1.6-6.8 3.2-8.7 1-1.1 2-2.9 2.2-4 .1-1.1.6-2.2 1-2.5.4-.3.9-1.7 1.2-3.2.4-2.7-1.1-4.2-3.1-3zm-4 11.3c.4 1.6.3 1.8-.9.8-.7-.6-1.1-1.5-.8-2 .8-1.3 1.1-1.1 1.7 1.2zM8 415.4c0 .3-.4.8-1 1.1-.5.3-1 .1-1-.4 0-.6.5-1.1 1-1.1.6 0 1 .2 1 .4zM508.8 399.7c.7.3 1.6.2 1.9-.1.4-.3-.2-.6-1.3-.5-1.1 0-1.4.3-.6.6z"/><path d="M617.5 399.9c-.3.5-.2 1.2.3 1.5.5.3.9-.1.9-.9 0-1.7-.3-1.9-1.2-.6zM604.7 401.9c-.4 1.7-.3 2.1.5 1.3.5-.5.8-1.6.6-2.3-.3-.8-.7-.3-1.1 1zM682.5 402c-.5 1.4-.8 2.9-.7 3.4.2.5-.4.6-1.2.3-1.3-.5-1.4-.3-.3 1.3.6 1.1 1.4 2 1.7 2 1.7-.1 3-2 3.4-4.8.2-1.7 0-2.9-.4-2.7-.5.3-1-.1-1.3-.7-.2-.7-.8-.2-1.2 1.2zM507 402.5c0 .9.6 1.2 1.5.9.8-.4 1.5-1 1.5-1.5s-.7-.9-1.5-.9-1.5.7-1.5 1.5zM503.1 402.9c-.9.6-.7 1 .8 1.4 1.2.3 2.1.1 2.1-.3 0-1.4-1.5-1.9-2.9-1.1zM539.1 403.6c0 1.1.3 1.4.6.6.3-.7.2-1.6-.1-1.9-.3-.4-.6.2-.5 1.3zM652.8 404.2c.2 1.1 1.1 2.2 1.8 2.5.8.3 1.1.9.9 1.4-.7 1 2.3 5.9 3.6 5.9.5 0 .2-1.1-.7-2.5-.9-1.4-1.4-3.2-1-4 .3-.9.2-1.3-.4-1-.6.3-1-.3-1-1.3 0-1.1-.8-2.2-1.9-2.5-1.4-.3-1.7 0-1.3 1.5zM276 404.6c0 .8.5 1.2 1 .9.6-.3 1-1 1-1.6 0-.5-.4-.9-1-.9-.5 0-1 .7-1 1.6zM561.1 405.6c0 1.1.3 1.4.6.6.3-.7.2-1.6-.1-1.9-.3-.4-.6.2-.5 1.3zM606 404.4c0 .2.6 1.6 1.4 3 1.3 2.6 1.4 2.7 1.9.4.4-1.2.4-2.4.2-2.7-.3-.2-.5.1-.5.8 0 .7-.5.9-1 .6-.6-.4-.8-1.1-.5-1.6.4-.5.1-.9-.4-.9-.6 0-1.1.2-1.1.4zM564.8 407.9c-1.5 1.8-1.5 2.1 0 3.3 1.3 1.1 1.5 1.1.9-.4-.3-1 0-2.4.9-3.3.9-.8 1.2-1.5.7-1.5s-1.6.9-2.5 1.9zM495 408.6c0 .9-.5 1.2-1.2.8-.7-.4-.8-.3-.4.4 1.1 1.9 3.2 1.4 3.3-.8.1-1.1-.2-2-.8-2-.5 0-.9.7-.9 1.6zM515.6 407.8c-.3.5.1.9.9.9s1.2-.4.9-.9c-.3-.4-.7-.8-.9-.8-.2 0-.6.4-.9.8zM605.4 410c0 1.3.4 1.6 1 1 .7-.7.7-1.3 0-2-.6-.6-1-.3-1 1zM540.7 410.4c-.3.8.2 1.6 1.4 1.9 1.7.5 1.8.3.7-1.1-.7-.9-1.3-1.8-1.4-2-.1-.2-.4.4-.7 1.2zM682 410.5c-.5.6-.5 1.6 0 2.5 1.3 2 1.2 3.3 0 2.5-1.3-.8-1.3-.3.1 3.2.8 2.3.8 2.6-.2 1.5-.7-.6-1.7-1.2-2.3-1.2-.5 0-.6.3-.3.7.4.3.1 1.3-.6 2.1-.8 1.1-.8 1.4 0 .9.6-.4 1.4-.1 1.6.5.4 1 .6 1 .6 0 .1-1 .4-1 1.6.2.8.8 1.5 1.7 1.5 2.1 0 .9-3.4.2-4.1-.9-.4-.5-1.2-.5-1.8-.1-.9.5-.9 1.1.1 2.3 1 1.2 1 1.4.1.8-.8-.4-1.3-.1-1.3.8s-.4 1.6-.8 1.6c-1.2 0-1.3 5.1-.2 6.5.8.9.6 1.4-.4 1.8-1 .4-1.3.1-.9-.9.7-1.8-.4-1.8-2.3 0-.8.8-1.1 2.2-.8 3 .3.9.1 1.6-.5 1.6s-1.1.8-1.1 1.7c0 1-.7 2.7-1.5 3.7-1.7 2.2-2 5.6-.6 5.6.5 0 1.3-.9 1.6-2 .4-1.1 1.1-1.7 1.7-1.4.6.4.8.2.4-.4-.3-.6.4-1.8 1.6-2.6 1.2-.9 1.6-1.6.9-1.6-1.1 0-1.1-.3-.1-1.5.7-.8.9-1.5.6-1.5-.4 0 .9-1.6 2.8-3.6 2.9-3 3.4-4.1 2.9-6.8-.3-2.1-.1-3.6.7-4.1.9-.5 1.1-.4.6.3-.4.7-.1 1.2.8 1.2 1.6 0 2.4-1.9 3.1-7.4.3-2.1.1-3.5-.4-3.2-.5.3-.8-.5-.7-1.8 0-1.3.4-2.2.7-2 .3.2.6-.9.5-2.5-.1-2.8-1.9-3.7-3.6-1.6zm-2.5 22.4c.3.5.2 1.2-.3 1.5-.5.3-.9-.1-.9-.9 0-1.7.3-1.9 1.2-.6zM568.5 412c-.3.5.1 1 1 1s1.3-.5 1-1c-.3-.6-.8-1-1-1-.2 0-.7.4-1 1zM609.7 412.1c.7.7 1.5 1 1.8.7.3-.3-.2-.9-1.2-1.2-1.4-.6-1.5-.5-.6.5zM607 413c0 .5.5 1 1.1 1 .5 0 .7-.5.4-1-.3-.6-.8-1-1.1-1-.2 0-.4.4-.4 1zM486.1 414.6c0 1.1.3 1.4.6.6.3-.7.2-1.6-.1-1.9-.3-.4-.6.2-.5 1.3zM687 414c0 .5.7 1 1.5 1s1.5-.5 1.5-1c0-.6-.7-1-1.5-1s-1.5.4-1.5 1zM611.1 415.6c0 1.1.3 1.4.6.6.3-.7.2-1.6-.1-1.9-.3-.4-.6.2-.5 1.3zM459.1 416.6c0 1.1.3 1.4.6.6.3-.7.2-1.6-.1-1.9-.3-.4-.6.2-.5 1.3zM565.6 415.9c-.4.5.3.7 1.4.4 2.3-.6 2.6-1.3.6-1.3-.8 0-1.7.4-2 .9zM589.5 416c-.3.5.1 1 .9 1s1.8-.5 2.1-1c.3-.6-.1-1-.9-1s-1.8.4-2.1 1zM660.5 416.8c-.5.4-1.1 2.2-1.2 4.1-.1 1.9-.9 4.1-1.7 5-1.1 1.2-1.2 2.1-.5 3.1.9 1.3 1 1.2.6-.2-.3-.9.3-2.4 1.3-3.3 1-.9 1.6-2.3 1.3-3.1-.3-.8-.1-1.4.4-1.4s1-1.1 1.1-2.5c.2-2.7.2-2.8-1.3-1.7zM664.5 417c-.3.5-.1 1 .4 1 .6 0 1.1-.5 1.1-1 0-.6-.2-1-.4-1-.3 0-.8.4-1.1 1zM483 417.4c0 .2.7.7 1.6 1 .8.3 1.2.2.9-.4-.6-1-2.5-1.4-2.5-.6zM477 420.5c1 1.2 1 1.5 0 1.5-.8 0-1.1.3-.7.6.3.3 1 .3 1.6 0 1.2-.8.3-3.6-1.1-3.6-.6 0-.5.6.2 1.5zM582 419.4c0 .2.7.7 1.6 1 .8.3 1.2.2.9-.4-.6-1-2.5-1.4-2.5-.6zM504.7 420.7c-.4.3-.7 1.1-.7 1.7 0 .6.5.5 1.2-.2.6-.6.9-1.4.7-1.7-.3-.3-.9-.2-1.2.2zM592 422.1c0 .5.5.7 1 .4.6-.3 1-.8 1-1.1 0-.2-.4-.4-1-.4-.5 0-1 .5-1 1.1zM470.9 422.7c-.1.5-.1 1.1 0 1.5 0 .5-.6.8-1.4.8-.8 0-1.5.7-1.5 1.6 0 .8-.4 1.3-.9.9-.5-.3-1.2-.1-1.6.4-.3.6-1.2.8-1.9.5-1.9-.7-3.1 1.5-1.7 2.9.8.8 1.1.6 1.2-.9 0-1 .3-1.3.6-.6.3.9 1.3.6 3.6-1 1.8-1.2 3.4-2.6 3.5-3 .2-.5.8-.6 1.2-.3.5.3 1.2 0 1.6-.6.5-.8.3-.9-.6-.4-1 .6-1.2.4-.7-.8.3-1 .2-1.7-.3-1.7-.6 0-1.1.3-1.1.7zM548.3 425c-.1 1.1.2 1.8.8 1.5 1.1-.7 1.2-3.5.1-3.5-.4 0-.8.9-.9 2zM213 425.1c0 .5-.4.7-1 .4-.5-.3-1 .1-1 .9 0 2.3 2.5 1.9 2.7-.4.1-1.1 0-2-.3-2-.2 0-.4.5-.4 1.1zM207.8 425.7c.7.3 1.6.2 1.9-.1.4-.3-.2-.6-1.3-.5-1.1 0-1.4.3-.6.6zM439 425.4c0 .2.7.9 1.5 1.6 1.3 1.1 1.4 1 .9-.4-.5-1.4-2.4-2.3-2.4-1.2zM453.1 425.5c.1 1.9 1.8 5.1 1.8 3.5 0-.8-.4-2.2-.9-3-.5-.8-.9-1.1-.9-.5zM534.6 427.5c.4.8.8 1.5 1 1.5.2 0 .4-.7.4-1.5s-.4-1.5-1-1.5c-.5 0-.7.7-.4 1.5zM555.8 427.7c.7.3 1.6.2 1.9-.1.4-.3-.2-.6-1.3-.5-1.1 0-1.4.3-.6.6zM12.1 429.9c-1.1.7-.9 1.1.8 2 1.4.8 2.1.8 2.1.1 0-.5-.5-1-1.1-1-.5 0-.7-.5-.4-1 .8-1.2.4-1.2-1.4-.1zM511.5 430.1c-.4.6-.5 1.2-.2 1.5.2.3.7-.2 1-1.1.7-1.7.1-2-.8-.4zM548.5 430c-.3.5-.1 1 .4 1 .6 0 1.1-.5 1.1-1 0-.6-.2-1-.4-1-.3 0-.8.4-1.1 1z"/><path d="M458.2 430.9c-.8.4-1.4 1.2-1.3 1.7 0 .5-1.1.8-2.5.7-1.8-.1-2.4.3-2.4 1.8 0 1-.5 1.9-1.1 1.9-.5 0-.7-.5-.3-1.2.4-.6.3-.8-.4-.4-.5.3-1.3 0-1.5-.6-.4-.9-.6-1-.6-.1-.1.6.4 1.5.9 1.8.6.3 1 1.6 1 2.8 0 1.5-.3 1.8-.8.9-.7-.9-1.3-.8-2.6.7-1 1.1-1.5 2.5-1.1 3 1.1 1.9 2.4 1.2 2-1-.3-1.5 0-1.9 1.1-1.5.9.3 1.8.6 2 .6 1.5 0 0 2.2-2.1 3.2-1.5.7-2.4 1.7-2.1 2.5.3.8-.1 1.6-.9 1.9-.7.3-1.1 1.2-.8 2 .3.8-.2 2.3-1.1 3.3-1.6 1.7-1.6 1.9.4 2.4 1.1.3 1.7.1 1.4-.4-.3-.6.6-.8 2-.5 1.4.3 2.6 0 2.6-.5s-.5-.9-1.2-.9-.6-.5.4-1.3c.9-.6 1.9-2.5 2.2-4 .4-1.5 1.1-2.5 1.7-2.2.5.4 1.6.1 2.4-.5.8-.7 1.5-.9 1.5-.5s1.1-.4 2.5-1.9c2.5-2.7 4.9-3.4 6-1.7.3.6-.4.8-1.5.6-1.1-.2-2 0-2 .6 0 .5.5.9 1.1.9.5 0 .8.4.5.9-.4.5.3.7 1.3.4 1.1-.3 2.1-1.3 2.4-2.2.3-1.3 1.2-1.6 4.1-1.3 2 .2 3.9.8 4.2 1.4.3.5 1.2.4 2.2-.4 1.3-1.1 1.4-1.1.8 0-.6 1 0 1.2 2.8.7 2.3-.5 3.6-.3 3.6.4 0 .6-.7.8-1.5.5-1.8-.7-1.9.3-.2 2 1.4 1.4 2.4.8 4.5-2.9 1.1-1.9 1.1-1.9 1.2.2 0 1.3.5 2.3 1.1 2.3.6 0 .9.9.6 2-.4 1.6.2 2.2 2.6 2.9l3.2.8-2.4 1c-2.4 1-2.4 1 .7 1.6 1.8.4 3.2 1.1 3.2 1.7 0 .6-.6.8-1.2.4-.7-.4-.3.4 1 1.8 1.2 1.3 1.9 2.8 1.5 3.3-.5.4-.2.5.5.1s1-1.1.7-1.6c-.3-.5-.1-1.1.3-1.4.5-.3.7-1.7.5-3.1-.3-1.3-1-2.2-1.5-1.9-1.6 1-2.7-1.8-1.5-3.7 1.4-2.2 3.9-.6 3 1.8-.5 1.2-.1 1.4 1.5.9 2.7-.9 5.7 1.8 6.4 5.6.5 2.9-.8 3.9-1.8 1.4-.3-.8-1.2-1.2-2-.9-.8.3-1.4-.1-1.4-1.1s.6-1.3 1.8-.9c1.6.5 1.6.5 0-1.2-2.1-2.2-3.7-1.3-3 2 .3 1.6 1.1 2.5 2.3 2.5 1.1 0 2.2.7 2.5 1.5.4.8 1.1 1.2 1.7.8.6-.4.8 0 .4 1-.3.9-.1 1.9.5 2.3.6.4.8.3.4-.4-.3-.6 0-1.7.7-2.4 1.2-1 1.2-1.5 0-2.6-.7-.7-1.3-1.9-1.2-2.5 0-.9.2-.8.6 0 .2.7 1.1 1.3 1.9 1.3.8 0 1.4.5 1.4 1 0 .6 1.2 2.3 2.6 3.7 1.5 1.4 3.2 4 4 5.7.8 1.9 1.3 2.4 1.4 1.3 0-.9.8-1.8 1.8-1.9.9 0 2.3-.2 3.1-.2 2.7-.2 2.2-2.3-.9-3.6-1.6-.7-3-1.7-3-2.2 0-.5-.4-.6-1-.3-.6.4-1-.5-1-2 0-2-.4-2.6-1.5-2.1-.8.3-2.1-.2-3-1-.9-.9-2.2-1.3-3-1-.8.3-1.4.2-1.4-.2.4-2.7-.3-4.2-2.2-4.2-1.1 0-1.7-.5-1.4-1 .3-.6-.1-1-.9-1-.9 0-1.6-.5-1.6-1 0-.6-.6-1-1.4-1-.8 0-1.6-.7-2-1.5-.3-.8-1.1-1.4-1.8-1.3-.7.2-1.2-.2-1.1-.9.2-.7-.3-1-1.1-.7-.7.3-1.9-.2-2.6-1.1-1.5-1.8-3.4-2-2.5-.3.4.7 0 .5-.8-.5-.8-.9-2.4-1.7-3.6-1.7-1.2 0-3.1-.5-4.1-1-1-.6-3-1.1-4.4-1.2-1.5-.1-2.6-.7-2.6-1.3 0-.5-.5-.3-1.1.5-.7 1.1-1.2 1.2-1.5.3-.3-.7-1.2-.9-2.1-.6-1 .4-1.4.2-.9-.5.3-.6.1-1.4-.5-1.8-.7-.4-.9-.3-.6.3.8 1.2-1.7 2.5-2.8 1.5-.4-.4-1-.7-1.3-.7-.4-.1-2.3-.4-4.3-.8-3.1-.6-3.6-1.1-3.3-3.2.1-1.4.2-2.5.1-2.5s-.8.4-1.5.9zm1.6 5.7c3.4 1 2.6 1.9-1.5 1.7-5.1-.2-5-.2-3.3-1.3 1.8-1.1 1.8-1.1 4.8-.4zm-7.1 2.9c0 .8-.4 1.2-.9.9-.4-.3-.8-.9-.8-1.5 0-.5.4-.9.8-.9.5 0 .9.7.9 1.5zm17.3-.1c0 .2-.9.6-2 .9-1.1.3-1.8.1-1.4-.4.5-.9 3.4-1.3 3.4-.5zm-12 5.2c0 .2-.7.4-1.5.4s-1.5-.4-1.5-1c0-.5.7-.7 1.5-.4.8.4 1.5.8 1.5 1zm36.1 1.4c.6 0 .7.4.4 1-.6.9.8 1.4 2.8 1.1.4 0 .7.3.7.9 0 .5-.4 1-.9 1s-1.6.3-2.5.6c-1 .4-1.6.1-1.6-.9 0-.9-.8-2.4-1.7-3.3-1.7-1.7-1.7-1.8 0-1.1 1 .4 2.3.7 2.8.7zm-46.6 5c.3.5.1 1-.4 1-.6 0-1.1-.5-1.1-1 0-.6.2-1 .4-1 .3 0 .8.4 1.1 1zm70.8 10.7c-.7.2-1.3.9-1.3 1.4 0 .6.5.7 1 .4.6-.3 1-.1 1 .4 0 1.4-1.7 1.4-2.5.1-.8-1.3.3-3 1.8-2.9.9 0 .9.2 0 .6zm3.2 5.3c.3.5.1 1-.4 1-.6 0-1.1-.5-1.1-1 0-.6.2-1 .4-1 .3 0 .8.4 1.1 1zM385 432.1c0 .5.5.7 1 .4.9-.6 1.4.8 1.1 2.8-.1.5.3.6.9.2.5-.3 1-.1 1 .4 0 .6.9 1.1 2 1.1s2 .5 2 1.2c0 .6.3.9.6.5.3-.3 1.8.5 3.2 1.8 1.9 1.8 2.8 2.1 3.4 1.2.7-1 1.1-.5 1 1.3 0 .3.6 1 1.3 1.7 1 .9 1.7.8 3.4-.3 1.1-.8 2.1-2.1 2.1-2.7 0-.7-.4-.6-1 .3-.7 1.2-1.3.9-3.4-1.5-1.5-1.7-2.6-2.4-2.6-1.6 0 1-.5.8-1.7-.5-1-1.1-2.5-1.8-3.5-1.6-1 .2-1.9-.5-2.3-1.8-.3-1.1-1-1.8-1.4-1.5-.5.2-1.7-.2-2.7-1-2.3-1.7-4.4-1.9-4.4-.4zM600 432c0 1.3 1.8 2.2 2.4 1.1.3-.5-.1-1.1-.9-1.5-.8-.3-1.5-.1-1.5.4zM627 432.5c0 .8.2 1.5.4 1.5s.6-.7 1-1.5c.3-.8.1-1.5-.4-1.5-.6 0-1 .7-1 1.5zM657 432c0 .5.5 1 1.1 1 .5 0 .7-.5.4-1-.3-.6-.8-1-1.1-1-.2 0-.4.4-.4 1zM596 433.9c0 .6.4 1.3 1 1.6.6.3.7-.1.4-.9-.7-1.8-1.4-2.1-1.4-.7zM381 435.8c0 1.5.4 2 1.6 1.5.9-.3 1.2-.9.7-1.2-.4-.3-1.1-1-1.5-1.5-.5-.5-.8 0-.8 1.2zM588.8 434.7c.7.3 1.6.2 1.9-.1.4-.3-.2-.6-1.3-.5-1.1 0-1.4.3-.6.6zM603.1 435.6c0 1.1.3 1.4.6.6.3-.7.2-1.6-.1-1.9-.3-.4-.6.2-.5 1.3zM663.1 436.7c1.2 1.5 1.2 1.6-.3 1-1-.3-2-.1-2.4.5-.4.7-.3.8.4.4.8-.5 1.2 0 1.2 1.3 0 1.4.5 1.9 1.5 1.5.8-.4 1.5-1.8 1.5-3.3.1-2.5.1-2.5 1.5-.7.8 1.1 1.5 1.5 1.5 1 0-1.6-2.3-3.4-4.3-3.4-1.7 0-1.8.2-.6 1.7zM511.5 436.9c-.3.5 0 1.3.6 1.7.7.4.9.3.5-.4-.3-.5 0-1.3.6-1.5.9-.4 1-.6.1-.6-.6-.1-1.4.3-1.8.8zM586.6 436.8c-.2.4-.1 1.4.5 2.2.7 1.2.9 1 .9-.8 0-2.3-.5-2.8-1.4-1.4zM12.4 439.6c-.6 2.5 1.2 5.2 2.6 3.7.3-.3-.1-.8-.7-1-1.5-.5-1.7-3.3-.3-3.3.6 0 1-.5 1-1 0-2.1-2-.9-2.6 1.6zM570 438.1c0 .5.5.7 1 .4.6-.3 1-.8 1-1.1 0-.2-.4-.4-1-.4-.5 0-1 .5-1 1.1zM380.6 439.9c-.3.5.1 1.2 1 1.5 2.2.8 2.5.4.9-1.1-.8-.7-1.6-.9-1.9-.4zM516.1 439.9c-.8.6-.9 1.1-.3 1.5.6.3 1.4.1 1.7-.5.9-1.4.2-2-1.4-1zM592 440.5c-.7.9-1.9 1.4-2.6 1.1-2.1-.8-2.5.9-.8 3 1 1.2 1.4 1.4 1.1.4-.2-.8.8-2.4 2.2-3.7 1.4-1.2 2.3-2.3 2-2.3-.4 0-1.2.7-1.9 1.5zM224.6 442.7c-.6 1.4-.5 1.5.5.6.7-.7 1-1.5.7-1.8-.3-.3-.9.2-1.2 1.2zM505.5 442c-.3.5.1 1 .9 1 .9 0 1.6-.5 1.6-1 0-.6-.4-1-.9-1-.6 0-1.3.4-1.6 1zM377.5 443.1c-1.7.6-1.7.8-.2.8.9.1 1.7.6 1.7 1.2 0 .5-.3.8-.7.6-.5-.3-1.4.1-2.1.9-1 1.1-1 1.4.1 1.4 1.9 0 4-2.5 3.5-4.3-.2-1-.9-1.2-2.3-.6zM566.6 443.9c-.4.5.3.7 1.4.4 2.3-.6 2.6-1.3.6-1.3-.8 0-1.7.4-2 .9z"/><path d="M469.6 445.3c.3 1 .9 1.5 1.2 1.2.3-.3 0-1.1-.7-1.8-1-.9-1.1-.8-.5.6zM652.4 444.8c.3.5 0 1.3-.6 1.5-.9.4-1 .6-.1.6 1.7.1 2.5-1.6 1.2-2.5-.7-.4-.9-.3-.5.4zM8.5 446.9c-.3.5-.1 1.2.5 1.6.5.3 1-.1 1-.9 0-1.8-.6-2.1-1.5-.7zM225.4 447.4c.4 1.1 0 2.4-1.1 3.3-1.6 1.3-1.6 1.3.5.3 2.5-1.2 2.6-1.8 1.1-4-.9-1.2-1-1.2-.5.4zM13 448.1c0 .5.5.7 1 .4.6-.3 1-.8 1-1.1 0-.2-.4-.4-1-.4-.5 0-1 .5-1 1.1zM466 448.1c0 .5-.4.7-1 .4-.5-.3-1-.1-1 .4 0 1.2.6 1.3 3.7.5 1.3-.4 2-1 1.7-1.5-.7-1.3-3.4-1.1-3.4.2zM571.6 447.8c.6.4 1.4 1.4 1.7 2.2.4 1 .6.8.6-.8.1-1.5-.5-2.2-1.6-2.2s-1.4.3-.7.8zM645 448.6c0 1 .5 2.6 1 3.4.8 1.1.9.7.4-1.5-.8-3.7-1.4-4.5-1.4-1.9zM221.1 449.6c0 1.1.3 1.4.6.6.3-.7.2-1.6-.1-1.9-.3-.4-.6.2-.5 1.3zM475 450.2c0 1.7.2 1.8 1.5.8.8-.7 1.5-1.4 1.5-1.5 0-.2-.7-.5-1.5-.9-1-.4-1.5.1-1.5 1.6zM592.5 449c-.3.5-.2 1 .3 1 .6 0 .9.7.8 1.6-.1 1.9 3 2.8 4.1 1.2.3-.6.1-.8-.4-.5-.6.4-1.4-.4-1.7-1.8-.7-2.6-2-3.2-3.1-1.5zM617 448.9c-2.4.7-2.4.7-.3 1.3 1.4.4 2.4.1 2.7-.8.3-.8.4-1.4.3-1.3-.1.1-1.3.4-2.7.8zM7 450.6c0 .8.5 1.2 1 .9.6-.4.8-1.1.5-1.6-.9-1.4-1.5-1.1-1.5.7zM373.7 451.1c-.4 1.3-1 1.8-1.8 1.3s-1-.3-.4.5c.8 1.3-.5 4.5-3.8 9.3l-1.8 2.7-2-2c-1.1-1.1-2.7-1.8-3.4-1.5-.9.3-1.2 0-.8-1 .4-1-.3-1.4-2.4-1.4-1.6 0-3 .6-3.1 1.2-.1.7-.5 2.8-.8 4.6-.6 2.9-.4 3.2 1.6 3 1.3-.2 2.5.3 2.8 1.1.3.9 0 1.1-.9.6-1.1-.6-1.1-.5-.2.5 1.4 1.5 9.9 2.1 13.1.9 1.7-.7 2.2-.5 2.3.9.1 1.1.4.8.9-.8.7-2.5-1.3-5.5-3.1-4.5-1.3.9-2.2-1.6-1-2.8.9-.9 1.4-.8 2.1.3.8 1.2 1 1 1-.8 0-1.5-.4-2.1-1.1-1.6-.7.4-1 .1-.7-.7.3-.8 1.4-1.3 2.4-1.1 1.4.2 1.5 0 .6-.6-1.9-1.3-.4-4.4 1.8-3.7 1.3.4 1.8.1 1.6-.9-.1-.9-.5-1.8-.8-2.2-.4-.3-.4-1.2-.1-2 .3-.8.1-1.4-.5-1.4-.5 0-1.2.9-1.5 2.1zM358 464.5c0 1.2-1.9 1.2-2.3 0-.4-.9-.1-1.2.9-.8.7.3 1.4.7 1.4.8zm5.5 1.5c.3.5.2 1-.4 1-.5 0-1.3-.5-1.6-1-.3-.6-.2-1 .4-1 .5 0 1.3.4 1.6 1zm3.5 1.4c0 .3-.4.8-1 1.1-.5.3-1 .1-1-.4 0-.6.5-1.1 1-1.1.6 0 1 .2 1 .4zm6 1.2c0 .2-.7.4-1.5.4s-1.5-.4-1.5-1c0-.5.7-.7 1.5-.4.8.4 1.5.8 1.5 1zM453.6 450.6c-.3.8-.2 1.2.4.9.6-.3 1 0 1 .9 0 .8-.6 1.7-1.2 1.9-.8.3-.7.6.4.6.9.1 2-.4 2.3-.9.4-.6 1.2-.7 1.8-.3.7.3.4-.3-.6-1.4-.9-1.1-1.4-2.3-1-2.6.3-.4-.1-.7-.9-.7-.9 0-1.9.7-2.2 1.6zM459.5 450c.3.5.8 1 1.1 1 .2 0 .4-.5.4-1 0-.6-.5-1-1.1-1-.5 0-.7.4-.4 1zM485.5 449.9c-.3.5-.2 1.2.3 1.5.5.3.9-.1.9-.9 0-1.7-.3-1.9-1.2-.6zM586.6 449.9c-.3.4.6 1.3 1.9 1.9 3 1.4 3.1 1.2.5-1-1-1-2.2-1.4-2.4-.9zM470.8 450.7c.7.3 1.6.2 1.9-.1.4-.3-.2-.6-1.3-.5-1.1 0-1.4.3-.6.6zM610.6 451.6c-1 2.7-.7 4.4 1 4.4 1 0 1.4-.6 1.1-1.4-.3-.8-.1-1.6.5-1.8.6-.2.4-.9-.5-1.6-1.2-1-1.6-.9-2.1.4zM206.7 452.7c.4 1.1.3 1.4-.5.9-.7-.4-1.2-.3-1.2.2 0 1.1 3 2.5 3.8 1.7.3-.3 0-.5-.7-.5-.9 0-.9-.5-.1-2 .8-1.6.8-2-.4-2-1 0-1.3.6-.9 1.7zM477.5 451.9c.3.5-.2 1.2-1 1.4-1.2.4-1.2.5.1.3 1.9-.1 3.2-2.6 1.4-2.6-.6 0-.9.4-.5.9zM647.9 453.7c-1.3 1.6-1.2 1.7.4.4 1.6-1.3 2.1-2.1 1.3-2.1-.2 0-1 .8-1.7 1.7zM484 454c0 .5.5 1 1.1 1 .5 0 .7-.5.4-1-.3-.6-.8-1-1.1-1-.2 0-.4.4-.4 1zM575.5 454c-.3.6.1.7.9.4 1.8-.7 2.1-1.4.7-1.4-.6 0-1.3.4-1.6 1zM587 454.5c-1.4 1.6-.3 2 1.9.6.8-.5.9-1.1.3-1.5-.5-.3-1.5.1-2.2.9zM11.6 455.3c.3 1 .9 1.5 1.2 1.2.3-.3 0-1.1-.7-1.8-1-.9-1.1-.8-.5.6zM592 455.4c0 .9-.4 1.5-.9 1.1-.5-.3-1.2-.1-1.6.5-.4.6.4 1 1.9 1 1.6 0 2.3-.5 2.2-1.5-.3-2.2-1.6-3.1-1.6-1.1zM666 455.4c0 .9 3 1.4 3.5.6.4-.6-.3-1-1.4-1-1.2 0-2.1.2-2.1.4zM478 457c0 .5.5 1 1.1 1 .5 0 .7-.5.4-1-.3-.6-.8-1-1.1-1-.2 0-.4.4-.4 1zM492.3 457.5c-1.7 1.9-1.6 2.1.7 2.1 1.3 0 2-.7 2-1.8 0-2.1-1-2.3-2.7-.3zM194.6 457.8c-.2.4.4.8 1.5.8 1 0 1.9-.4 1.9-.8s-.6-.8-1.4-.8c-.8 0-1.7.4-2 .8zM217 458.5c0 .8.4 1.5 1 1.5.5 0 .7-.7.4-1.5-.4-.8-.8-1.5-1-1.5-.2 0-.4.7-.4 1.5zM482.4 458.4c-.9 1-.7 1.6.8 2.5 1.2.7 1.7.8 1.3.2-.3-.6-.2-1.1.3-1.1s.9-.7.9-1.5c0-1.8-1.8-1.9-3.3-.1zM486.7 457.6c-1.1 1.1.3 2.4 1.8 1.8.8-.4 1.2-1 .9-1.5-.6-1.1-1.8-1.2-2.7-.3zM584 457.8c0 1 2.9 4.9 3.1 4.2.9-2.9.4-5-1.2-5-1.1 0-1.9.4-1.9.8zM666 458.1c0 .5-.4.7-1 .4-.5-.3-1-.1-1 .5s-.7 1.9-1.6 2.7c-.8.9-1.3 2.4-1.1 3.5.3 1 .2 1.6-.2 1.4-.3-.2-1.1.7-1.8 2-.6 1.3-.7 2.4-.3 2.4 1.3 0 .4 3.4-1.6 6.4-1.5 2.4-1.5 2.6 0 2 .9-.3 1.3-1 1-1.5-.3-.5 0-.9.5-.9.6 0 1.1-.7 1.1-1.5s.7-1.5 1.6-1.5c1.4 0 1.4-.3.4-1.5-.7-.9-.8-1.5-.2-1.5 1.1 0 4-5.7 4.5-8.8.2-1.2.6-2.5 1-2.8 1-1.1.9-2.4-.3-2.4-.5 0-1 .5-1 1.1zM441 459.5c-.7.9-1.1 1.7-.9 2 .3.2 1-.5 1.7-1.5 1.4-2.4 1-2.6-.8-.5zM177.5 459.8c1.5 1.1 1.4 5.1-.2 4.5-2.3-.9-1.4 1.2 1 2.3 1.9.9 2.4.8 2.4-.5 0-.9-.5-2.2-1.1-3-.9-1.2-.7-1.3.8-.8 1.4.6 1.7.4 1.2-.9-.3-.8-.6-1.8-.6-2 0-.2-1-.4-2.2-.4-1.3 0-1.8.4-1.3.8zM442.5 463.1c-.4.6-.4 1.3-.1 1.6.3.4.6.1.6-.6s.5-.9 1-.6c.6.3 1 .1 1-.4 0-1.4-1.7-1.4-2.5 0zM588.2 462.9c-1.1.6-.9.9.6 1.3s1.9.2 1.5-.8c-.6-1.6-.4-1.6-2.1-.5zM235 464.1c0 .5.5.7 1 .4.6-.3 1-.8 1-1.1 0-.2-.4-.4-1-.4-.5 0-1 .5-1 1.1zM451.1 464.7c.7 1 1.4 2 1.6 2.2.1.2.1-.6 0-1.8-.1-1.1-.8-2.1-1.5-2.1-1.2 0-1.2.3-.1 1.7zM10 465.1c0 .5.5.7 1 .4.6-.3 1-.8 1-1.1 0-.2-.4-.4-1-.4-.5 0-1 .5-1 1.1zM195 465.3c0 1 .8 1.7 1.8 1.7.9 0 1.3-.4.7-.8-.5-.4-1.3-1.1-1.7-1.6-.5-.5-.8-.2-.8.7zM495 465c2 1.3 4 1.3 4 0 0-.6-1.2-1-2.7-1-2.2 0-2.5.2-1.3 1z"/><path d="M446.8 466.6c2.4 1.7 3 3.9.8 3.1-.8-.3-1.7.1-2 .9-.3.8-1 1.4-1.5 1.4-.6 0-.8-.7-.5-1.5.4-.8.1-1.5-.5-1.5s-1.1-.7-1.1-1.5-.4-1.5-.8-1.5c-1.4 0-4.2 3.5-4.2 5.3 0 .9-1 2.6-2.2 3.8-1.3 1.2-1.7 1.9-1 1.5.6-.4 1.2-.2 1.2.3 0 .6.6 1.1 1.3 1.1 1.7 0 1.6 4.2-.3 6.6-1.4 1.9-1.4 1.9.8 0s2.2-1.9 2.3 0c0 1.6.2 1.5 1-.5.7-1.7.5-3.2-.6-5.4-1.7-3.4-2-5-.5-2.7.9 1.3 1 1.3 1 0s.1-1.3 1 0c.6.9 1 1 1 .3s1.3-1 3.5-.8c1.9.2 3.3-.1 3-.6-.3-.4.6-.2 2.1.6 1.5.7 3.3 1.1 4.2.8.8-.4 1.3-.2 1 .3-.4.5 1.5.9 4.2.9s5.7.6 6.7 1.4c1.7 1.3 1.7 1.3.1.8-2.1-.8-2.4.8-.4 1.6.8.3 2 0 2.6-.8 1.4-1.7 3.7-.9 4.3 1.3.3 1.3.6 1.2 1.4-.7.8-2 1.1-2.1 1.6-.8.4 1 1.6 1.7 2.7 1.7 1.7 0 2 .4 1.5 2-.3 1.1-.1 2.8.5 3.7.8 1.3 1 1.4.9.3-.3-2.8.1-3.8 1.6-4.4.8-.3 1.4 0 1.2.7-.1.7.4 1.1 1.2.9 1.1-.2 1.3.7.9 4.5-.3 2.6-.4 4.1-.1 3.2.2-1 1.4-2 2.6-2.3 3.3-.9 3.7-.8 3.8 1.1 0 1 .3 1.3.5.7.3-.7 2.5-.1 6.1 1.8 4.3 2.2 5.8 2.6 6.9 1.7.8-.6 1.4-1.6 1.4-2.1 0-.6-.7-.5-1.5.2-1.2 1-1.5 1-1.5-.2 0-1.8-3.3-4.6-6.5-5.4-2.2-.5-2.4-.9-1.3-2.2 1-1.2 1-1.4.1-.9-.7.5-2.5.1-4.1-.7-1.6-.8-3.3-1.2-3.7-.8-.5.4-.6 0-.2-.9.4-1.3.1-1.6-1.3-1.2-1.2.3-2.9-.5-4.4-2-1.4-1.4-2.6-2.1-2.8-1.7-.6 1.6-6-.3-6.8-2.4-.7-1.9-.9-1.9-1.5-.4-1 2.5-2.2 1.4-3-2.9-.4-2.4-.9-3.2-1.5-2.3-.6 1-1.3.9-3.1-.5-1.5-1-1.7-1.5-.7-1.2 1 .4 1.9.3 2.2-.1.3-.4-.9-.9-2.5-1-1.6-.1-2.9.3-2.9.8 0 .6-.4.9-.9.5-.6-.3-1.5.4-2.1 1.6-.7 1.1-1.4 1.8-1.7 1.5-.4-.3-1.2-.1-2 .5-1 .9-1.3.6-1.2-1.2 0-1.3.3-1.9.6-1.2.7 1.9 4.3-.7 4.3-3.1 0-1.1-.3-1.6-.7-1.2-.5.4-.8 1.3-.8 1.9 0 1.9-5.8 1.5-7.9-.5-1.1-1-2.4-1.8-3-1.8-.6 0 0 .7 1.2 1.6zm17.9 6.3c0 1.1-.5 1.7-.9 1.5-1.1-.7-1-3.4.1-3.4.6 0 .9.9.8 1.9zm4.3 1.1c0 1.1-.4 2-.9 2s-.7-.9-.4-2c.3-1.1.7-2 .9-2 .2 0 .4.9.4 2zM585 466c0 .5.5 1 1 1 .6 0 1 .5 1 1.1 0 .6-.6.7-1.2.2-.7-.4-.5.5.5 2 .9 1.4 1.7 2.9 1.7 3.3 0 .3-.8.3-1.7-.1-1.3-.4-1.5-.3-.7.5.7.7 1.9.7 3.4.2l2.4-.9-2.2-1.2c-1.2-.7-2-1.6-1.7-2.2.8-1.2-.4-4.9-1.6-4.9-.5 0-.9.4-.9 1zM642.2 466.2c-.7.7-1.2 1.6-1.2 2.1s.7.1 1.6-.8c.9-.9 1.4-1.8 1.2-2-.2-.3-1 .1-1.6.7zM237.5 467.1c-.4.6-.5 1.2-.2 1.5.2.3.7-.2 1-1.1.7-1.7.1-2-.8-.4zM594.6 468.2c.9 1.6 2.4 2.8 3.3 2.7 1.3 0 1.3-.2.1-.6-.8-.4-2.3-1.6-3.3-2.7-1.8-2.1-1.8-2-.1.6zM603 467.5c0 .8.4 1.5 1 1.5.5 0 .7-.7.4-1.5-.4-.8-.8-1.5-1-1.5-.2 0-.4.7-.4 1.5zM8.5 468.1c-1.1 1.6-.1 1.9 1.3.3.7-.8.8-1.4.3-1.4s-1.3.5-1.6 1.1z"/><path d="M600.2 469.6c.2 1.9-.1 2.8-1 2.6-.6-.1-1.2.3-1.2.9 0 .6.8.9 1.8.7 1.8-.3 2.6-5.5.9-6.5-.5-.3-.7.8-.5 2.3zM178 469.5c.7.9 1.5 1.3 1.7 1.1.7-.7-.7-2.6-1.9-2.6-.6 0-.6.6.2 1.5zM11.5 470c.3.5.8 1 1.1 1 .2 0 .4-.5.4-1 0-.6-.5-1-1.1-1-.5 0-.7.4-.4 1zM374.6 469.8c-.9 1.5 1.9 3.9 3.9 3.2 1.9-.7 1.9-.7-.3-1.4-1.2-.4-2-1.2-1.7-1.7.4-.5.2-.9-.4-.9-.5 0-1.2.3-1.5.8zM517 470c0 .5.5 1 1.1 1 .5 0 .7-.5.4-1-.3-.6-.8-1-1.1-1-.2 0-.4.4-.4 1zM563 472.1c0 .5.5.7 1 .4.6-.3 1-.8 1-1.1 0-.2-.4-.4-1-.4-.5 0-1 .5-1 1.1zM609 472.1c0 .5.5.7 1 .4.6-.3 1-.8 1-1.1 0-.2-.4-.4-1-.4-.5 0-1 .5-1 1.1zM593.9 472.7c0 .4-.2 1.6-.4 2.5-.2.9.3 1.9 1.1 2.2 1 .4 1.4-.2 1.4-1.9 0-2.2-1.9-4.7-2.1-2.8zM420 474c-.8.5-1 1-.3 1 1.5 0 .4 4-1.3 4.7-.8.3-1.4 1.3-1.3 2.2 0 1 .2 1.1.6.3.2-.6.9-1.2 1.4-1.2.6 0 .7.4.4 1-.9 1.4.8 1.3 2.3-.2 1.5-1.5 1.6-3.1 0-2.2-.8.5-.9.2-.4-1.2.5-1 .9-2.5.9-3.2 0-.7.6-1.1 1.4-.8.7.3 1.3.1 1.3-.4 0-1.3-3.1-1.3-5 0zM477 474c0 .5.5 1 1.1 1 .5 0 .7-.5.4-1-.3-.6-.8-1-1.1-1-.2 0-.4.4-.4 1zM638.5 474c.3.5.8 1 1.1 1 .2 0 .4-.5.4-1 0-.6-.5-1-1.1-1-.5 0-.7.4-.4 1zM385.1 474.9c-.7.5-2.1.6-3.1.4-1-.3-2.1 0-2.4.6-.4.7.1 1.1 1.4 1.1 1.2 0 1.9.4 1.5.9-.3.5-.1 1.2.5 1.6.5.3 1-.1 1-1.1 0-1.3.3-1.4 1.4-.5 1.2 1 1.4.8 1-1.1-.4-2.1-.4-2.1.5-.3.5 1.3.5 2.5-.3 3.4-.8 1.1-.8 1.3.2.7.8-.5 1.2-.1 1.2 1.3 0 1.1.5 2.3 1.2 2.7.8.5.9.2.5-.9s-.1-1.7.7-1.7c.8 0 1.6.7 2 1.5.3.9 1.2 1.2 2.2.8 1.2-.4 1.5-.3 1 .5-.9 1.6.5 1.5 2.6-.2 2-1.5.6-3.6-2.4-3.6-1 0-1.8-.7-1.8-1.6 0-1.2-.7-1.5-2.5-1.2-1.3.3-2.2.2-2-.2.8-1.3-3-3.9-4.4-3.1zM7 476.3c0 .9.5 1.9 1 2.2.6.4.9 2 .6 3.6-.2 1.6 0 2.7.5 2.3.5-.3.9 0 .9.5 0 .6.5 1.1 1 1.1.7 0 .7-.7 0-2-.6-1.1-.8-2.5-.5-3 .4-.6-.3-2.2-1.4-3.6-1.5-1.9-2.1-2.2-2.1-1.1zM233.3 476.5c0 .8.3 1.3.5 1 .3-.3 1.1.3 1.9 1.3 1.3 1.5 1.3 1.5.3-.5-1.3-2.8-2.7-3.7-2.7-1.8zM584 475.7c0 .6-.8 1.3-1.7 1.5-1.6.3-1.6.4-.2 1 2.3.9 4-.4 2.9-2.2-.6-.9-1-1-1-.3zM646 475.8c0 .4 1.1.9 2.6 1 1.4.1 2.3-.2 1.9-.8-.7-1.2-4.5-1.4-4.5-.2zM12.1 477.6c0 1.1.3 1.4.6.6.3-.7.2-1.6-.1-1.9-.3-.4-.6.2-.5 1.3zM643.8 477.2c-.3.7.5 2.2 1.6 3.4l2.2 2.1 1.1-2.3c.8-1.8.8-2.1-.5-1.7-.8.4-2-.1-2.7-1.1-.9-1.2-1.4-1.3-1.7-.4zM532.5 477.9c-.3.6 0 .8.9.5.8-.3 3.1.3 5.3 1.4 2.1 1.1 4.3 2.1 4.8 2.3.6.2.9 1 .9 1.6-.1.7.2 1.3.6 1.3.5 0 1.1-.6 1.3-1.3.3-.7.6-.4.6.6.1 1 .5 1.5 1.1 1.2 1.3-.8 7.1 2.6 6.4 3.7-.3.5-1.1.6-1.7.2-.7-.3-.4.1.5.9 1 .8 1.4 1.8 1 2.3-.4.4.1.2 1.1-.5 1.6-1.3 2.5-.2 1 1.3-1.2 1.2-1 3 .6 4.2 1.2.9 1.1 1.6-.2 4.5-.8 1.9-1.8 4.4-2.2 5.6-.3 1.3-1.2 2.3-2 2.3-1.8 0-7.5 5.5-7.5 7.3 0 1.7-1.6 2.5-4.7 2.2-1.8-.1-2 .1-1.2 1.2.7.8 1.7 1 2.7.4.8-.5 2.3-.6 3.2-.4 1.4.4 1.7 0 1.3-1.9-.4-2 0-2.3 2.8-2.5 3-.2 3.1-.2 1.3 1.3-1.8 1.4-1.8 1.5.4.4 1.5-.7 2.2-2 2.2-4 0-2.2.5-3 1.8-3 .9 0 2.3-.9 3-2 1.3-2.1 4.7-2.7 5.7-1 .4.6 1.1.7 1.7.4.6-.4.5-.9-.3-1.5-2.1-1.3-.4-2 2.3-1 1.7.6 2.7 2 3.1 4 .5 2.4 1 2.9 2.3 2.4 1.2-.4 1.5-.3 1 .5-.4.7-.2 1.2.4 1.2.7 0 1 .6.7 1.4-.3.8.1 1.7.9 2 2.4.9 2.7.7 1.4-.9-.6-.8-1-2-.7-2.7.4-.9.6-.8.6.3.1.9 1.7 2.7 3.6 4 1.9 1.3 3.8 3.2 4.1 4.1.3 1 .8 1.7 1.2 1.5 1-.3 5.2 4.1 5.2 5.4 0 .8.6.7 1.8-.2.9-.7 1.4-1 1-.5-.3.4.1 1.6 1 2.5 1 1 2.4 2.7 3.2 3.9.8 1.2 2 2.2 2.8 2.2.7 0 1.1.3.9.7-.2.5.6 1.9 2 3.3l2.4 2.5-.4-3.6c-.5-4.8-1.3-5.8-4-5.3-1.2.2-1.6.2-.9-.2.6-.3 1.2-1.3 1.2-2.2 0-1.5-.2-1.5-1-.2-.7 1.2-1 1.2-1 .1 0-.7-1.1-2.6-2.5-4.3-1.4-1.6-2.5-2.4-2.5-1.8 0 .6-.6 1-1.2.7-.7-.2-1.2-1-1-1.6.1-.7-.2-1-.8-.6-2 1.2-3.2-.7-1.3-2.1 1.7-1.2 1.6-1.4-1.4-2.6-1.8-.7-3.3-1.8-3.3-2.5 0-.6-.5-1.5-1.2-1.9-.8-.5-.9-.2-.5.9s.1 1.7-.8 1.7c-.8 0-1.2-.6-.9-1.4.5-1.3-4.1-7.6-5.4-7.5-2.1.3-3.3-.3-3-1.4.3-1.4-3.7-6.7-6.2-8.2-.8-.4-.4.4.9 1.8 1.9 2.1 2.1 2.7.9 2.7-.9 0-1.9-.7-2.2-1.6-.3-.8-1.1-1.2-1.7-.8-.8.4-.9.3-.5-.4.5-.8-.3-1.2-2.2-1.2-2.2 0-3.1-.6-3.5-2.3-.6-2.2-.6-2.2.9-.2 1.4 1.9 1.4 1.7 1-1.8-.3-2.1-1-4.4-1.6-5.2-.6-.7-1.3-2.3-1.5-3.6-.5-2.7-2.5-5-2.5-2.9 0 .9-.6.6-1.6-.8-.9-1.3-2.2-2.1-3-1.8-.8.3-1.4.1-1.4-.5s-.7-.8-1.6-.5c-1 .4-1.3.2-.8-.6s.2-.9-1.1-.5c-.9.4-2.4.2-3.2-.5-1.9-1.6-9.9-2.2-10.8-.9zm27.5 14.2c0 .5-.4.9-1 .9-.5 0-1-.7-1-1.6 0-.8.5-1.2 1-.9.6.3 1 1 1 1.6zm19 20.4c0 .8-.2 1.5-.4 1.5s-.6-.7-1-1.5c-.3-.8-.1-1.5.4-1.5.6 0 1 .7 1 1.5zM564.5 479c.3.5.8 1 1.1 1 .2 0 .4-.5.4-1 0-.6-.5-1-1.1-1-.5 0-.7.4-.4 1z"/><path d="M529 480.1c0 .5-.9.9-2 .9-1.4 0-1.8.5-1.4 1.7.5 1.5.3 1.5-1.1-.2-1.1-1.2-1.6-1.4-1.3-.5.6 1.8-1.9 3.9-4.7 4-1.6 0-1.7.2-.5.9.8.6 1.8.7 2.2.5.4-.3.8 0 .8.5 0 1-1.4 1.5-3.2 1.2-.5 0-.8.6-.8 1.5 0 .8-.4 1.2-1 .9-.5-.3-1-.2-1 .4 0 .5.5 1.1 1.1 1.3.8.3.6 1-.5 2-1.1 1.2-1.3 1.9-.5 2.4.6.3 1.5 0 2-.7.6-1 .9-1.1.9-.2 0 .7.8 1.3 1.8 1.3 1.4 0 1.5.2.2 1-2 1.3-.4 1.3 2.1-.1 1.3-.6 1.8-1.6 1.5-2.6-.4-.9-.2-2.1.2-2.7 1.1-1.4 2.3-4.6 1.7-4.6-1 0-3.3 6.3-2.8 7.7.4 1.1.3 1.4-.6.9-1.4-.9-1.1-6.7.3-7.8.6-.4.4-1.4-.5-2.4-1.3-1.6-1.2-1.6.8-.6 3.1 1.7 4.1 1.5 4.8-.8.3-1.1 1.3-2 2-2 .8 0 1.8-.8 2.4-1.7.7-1.3 1.2-1.4 2.3-.6 1.1 1 1.4.8 1.5-.7.1-1.4-.5-1.8-3.3-1.8-1.9 0-3.4.4-3.4.9zM581 480c0 .5.5 1 1.1 1 .5 0 .7-.5.4-1-.3-.6-.8-1-1.1-1-.2 0-.4.4-.4 1zM12 481.9c0 1.1.4 2.2.9 2.5.4.3.6-.6.3-1.9-.5-3-1.2-3.3-1.2-.6zM236.5 482c-.4.6-.1.9.7.8.7-.2 1.2.3 1 1-.1.8.2 1.1.8.7.5-.3 1-.1 1 .5s.4.9.8.6c.4-.2 1.6.8 2.7 2.4 1.1 1.6 2.8 3.3 4 3.9 1.1.6 3 1.8 4.3 2.7 2.3 1.7 2.3 1.7 1.1-.9-.7-1.6-2-2.7-3.1-2.7-1.2 0-1.7-.4-1.2-1.2.5-.7.2-.9-.7-.6-.8.3-2-.1-2.7-.8-.7-.8-1-1.4-.6-1.4s-.1-.9-1.1-2-2.4-2-3.2-2c-.7 0-1.3-.5-1.3-1 0-1.3-1.7-1.3-2.5 0zM588.2 481.9c-1 .6-1 1 .2 2s1.5.9 1.3-.8c-.1-1.2-.1-2.1-.2-2.1 0 0-.6.4-1.3.9zM655 483.4c0 .8-.6 1.6-1.2 1.9-.7.2-1 .8-.5 1.2.4.5 1.4 0 2.2-1.1 1.7-2.3 1.9-3.4.5-3.4-.5 0-1 .6-1 1.4zM466 484c0 .5.5 1 1.1 1 .5 0 .7-.5.4-1-.3-.6-.8-1-1.1-1-.2 0-.4.4-.4 1zM577.8 485.5c-.4.4-.4 1.4-.1 2.3 1 2.7 4.3 4.4 4.3 2.2 0-.6-.5-.9-1.2-.8-.6.2-1.4-.7-1.7-2-.3-1.3-.9-2.1-1.3-1.7zM634.7 487c-.3 1.1-.2 2 .3 2 .4 0 1-.9 1.3-2 .3-1.1.2-2-.3-2-.4 0-1 .9-1.3 2zM270.2 488.5c.3 1.4.2 2.5-.2 2.5s-.6 1-.5 2.2c.1 1.3-.4 3.8-1.1 5.7-1.6 3.8-1.7 4.4-.6 3.8 1.4-.9.5 16.9-1.1 21.9-1.7 5.2-3.5 14.2-4.2 20.9-1.3 11.9-1.7 14.4-3 19-.8 2.7-1.7 7.7-2.1 11-.4 3.3-1 7-1.5 8.2-.5 1.4-.5 2.3.1 2.3 1.6 0 2.1-1.8 2.6-9.2.3-4 1.3-9.3 2.1-11.8 1.7-4.9 1.9-5.9 3.2-17.6.5-4.4 2.1-12.5 3.4-18 1.6-6.3 2.7-14.5 3.2-22.4.3-6.9.8-14.4 1-16.8.2-2.5 0-4.2-.7-4.2-.6 0-.8 1.1-.6 2.5zM588.8 486.7c.7.3 1.6.2 1.9-.1.4-.3-.2-.6-1.3-.5-1.1 0-1.4.3-.6.6zM11.5 489c.3.9-.2 2.5-1.1 3.6-1.5 1.8-1.5 1.8-.4-.3.8-1.8.8-2.2-.4-1.7-.8.3-1.3 1.3-1.1 2.2.2.9.4 2.1.4 2.7.1.5 1 0 2.2-1.1 2.4-2.5 3.2-7.1 1.2-7.1-.8 0-1.1.7-.8 1.7zM437 489.5c0 .8.4 1.5 1 1.5.5 0 .7 1.3.4 3-.4 1.7-.2 3 .4 3 1.2 0 1.3 5.1 0 6.7-.5.7-.6 2.2-.2 3.5 1.1 3.3.6 17.1-.6 17.8-.6.4-.3 1.3.8 2.3 1.9 1.7 1.9 1.3 1.7-14.5-.2-24.1-.3-24.8-2-24.8-.8 0-1.5.7-1.5 1.5zM585 490c-2.5 2.5-2.5 3.6-.2 4.5 3.5 1.6 4 1.3 3.6-1.3-.3-1.4-.8-3-1.1-3.6-.4-.6.1-.5 1 .3 1.5 1.2 1.7 1.2 1.1-.3-.8-2.1-2-2-4.4.4zM575.3 491.9c-1 1.6-.9 1.9.5 1.7.9-.2 1.6-.6 1.5-1-.6-2.3-.9-2.4-2-.7zM11.5 496.6c-1.7 1.3-1.8 1.6-.5 2.4.8.6 1 1 .3 1-1.4 0-.5 3.6 1.3 5.1 1.1.9 1.4.7 1.4-1.2s-.2-2.1-1-.9c-.8 1.3-1 1.2-1-.3 0-.9.5-1.7 1-1.7.6 0 .9-1.4.8-3-.1-1.7-.2-3-.3-3 0 0-.9.7-2 1.6zM483.7 498.4c-.3.8-.2 1.8.3 2.1 1.3.8 2-.9 1.1-2.4-.6-1-1-.9-1.4.3zM589.5 500c-.3.5-.1 1 .4 1 .6 0 1.1-.5 1.1-1 0-.6-.2-1-.4-1-.3 0-.8.4-1.1 1zM517.7 502.1c.7.7 1.5 1 1.8.7.3-.3-.2-.9-1.2-1.2-1.4-.6-1.5-.5-.6.5zM514.4 503.6c.9.8 1.4 2 1.1 2.5-.4.5.1.6 1 .2 1.3-.5 1.4-.7.3-1.4-.7-.5-.8-.9-.3-.9.6 0 .3-.5-.5-1-2.4-1.5-3.3-1.2-1.6.6zM499.8 504.7c.7.3 1.6.2 1.9-.1.4-.3-.2-.6-1.3-.5-1.1 0-1.4.3-.6.6zM14.4 507.1c-.3.6-.1 1.4.5 1.8.6.4.9 1.5.6 2.3-.4.9-.2 1.9.4 2.2 1.7 1.1 2.1-.9.6-3.7-.7-1.4-1.1-2.8-.7-3.1.3-.3.3-.6-.1-.6-.3 0-.9.5-1.3 1.1zM464.8 507.2c-.3.7-.1 2.4.3 3.8.6 2.2.7 2 .8-1.3.1-3.8-.3-4.7-1.1-2.5zM522.3 508.7c.5 2.2-.8 3.3-1.5 1.4-.1-.5-.8-.3-1.5.4-1.7 1.9.9 2.8 3.2 1.1 1.5-1.1 1.6-1.6.6-3.2-1.2-1.8-1.2-1.8-.8.3zM561 509c-.8.5-1.1 1.2-.7 1.6.4.4 1.3.2 1.9-.4 1.5-1.5.7-2.4-1.2-1.2z"/><path d="M265.2 514.5c0 1.6.2 2.2.5 1.2.2-.9.2-2.3 0-3-.3-.6-.5.1-.5 1.8zM525.5 514.1c-.4.6-1.3.8-2.1.5-.7-.3-1.6-.2-1.8.3-.3.4 0 .8.7.8s2 .4 2.9.8c1.3.5 1.7.2 1.5-1.4-.1-2.4-.3-2.5-1.2-1zM11.7 515.4l-2.8 1.2 3.1 4.2c1.6 2.3 3.2 4.2 3.5 4.2.2 0 1.4-1 2.5-2.3 2.1-2.2 2.2-2.2 3.6-.3 1 1.4 1.4 1.6 1.4.5 0-.8-1.4-2.2-3.1-3.2-1.9-1-2.9-2.3-2.6-3.1.4-1.1-1.6-3-2.6-2.5-.1 0-1.5.6-3 1.3zm3.3.6c0 .5-.5 1-1.1 1-.5 0-.7-.5-.4-1 .3-.6.8-1 1.1-1 .2 0 .4.4.4 1zm1.6 4.5c-1.1.8-1.5 1.9-1.1 2.7.7 1.1.6 1.1-.6 0s-1.1-1.5.5-2.8c1.1-.8 2.2-1.4 2.5-1.4.3 0-.2.7-1.3 1.5zM559.4 515.5c-1 .8-1.4 1.4-.9 1.5 1.5 0 4-1.8 3.4-2.4-.3-.3-1.4.1-2.5.9zM633 515c0 .5.5 1 1.1 1 .5 0 .7-.5.4-1-.3-.6-.8-1-1.1-1-.2 0-.4.4-.4 1zM492 517c.6 1.1 1.2 2 1.4 2 .2 0 .2-.9-.1-2-.3-1.1-.9-2-1.5-2-.5 0-.4.9.2 2zM563.2 517c-.6 1-.8 2.1-.3 2.4.5.3 1.1-.4 1.4-1.6.8-2.9.4-3.2-1.1-.8zM465.5 520.5c0 1.9.5 3.5 1 3.5.6 0 1-.5.9-1-.1-.6-.2-2.1-.2-3.5-.3-3.8-1.7-3-1.7 1zM528 518c0 .6.3.9.8.9 1.9-.3 3.3.2 2.7 1.1-.8 1.2 2.5 1.3 4.4.1.8-.5.9-1.1.3-1.5-.6-.3-1.4-.1-1.8.5-.5.8-.9.8-1.4-.2-1-1.5-5-2.3-5-.9zM633 518c-.9.6-1 1-.3 1 .6 0 1.5-.5 1.8-1 .8-1.2.4-1.2-1.5 0zM557.2 519.2c-1.5 1.5-1.6 3.5-.1 4 1.4.5.1 3.5-1.6 3.5-.8 0-1.7-.7-1.9-1.4-.3-.8-.2-1.2.2-.9.4.2.9-.5.9-1.7.2-2 .1-1.9-2.2.5-1.6 1.8-3.1 2.5-4.5 2.1-1.2-.3-2 0-2 .7s-.8 1-2 .7c-1.1-.3-1.7-.1-1.4.4.3.5 2.2.8 4.2.5 2-.2 4.9.3 6.3 1 1.5.7 2.9 1 3.3.7.3-.4.6-.1.6.6 0 .8.6 1.1 1.6.7.8-.3 1.3-.2 1 .3-.3.4.5 1.7 1.7 2.8 2.6 2.4 6.1 2.7 5.2.6-.3-.8-.5-1.7-.5-1.9 0-.3-.4-.3-.9 0-.5.4-.7-.2-.5-1.1.3-1.2-.3-2.2-1.8-2.8-1.3-.6-2.1-1.4-2-1.9.2-.5-.2-1.2-.9-1.6-.6-.4-1.2-2.2-1.3-3.9 0-1.7-.1-3.1-.1-3.1-.1 0-.6.5-1.3 1.2zM480.5 520c-.3.6.1 1.3 1 1.6 2.1.9 2.6.2 1-1.3-.9-.8-1.6-.9-2-.3zM573 519.9c0 .6.4 1.3 1 1.6.6.3.7-.1.4-.9-.7-1.8-1.4-2.1-1.4-.7zM628 520.2c0 .4.4.8.9.8.6 0 1.2-.4 1.5-.8.3-.5-.1-.9-.9-.9s-1.5.4-1.5.9zM417.1 521.6c0 1.1.3 1.4.6.6.3-.7.2-1.6-.1-1.9-.3-.4-.6.2-.5 1.3zM389 523c-.6 1.1-.8 2-.6 2 .3 0 1-.9 1.6-2 .6-1.1.8-2 .6-2-.3 0-1 .9-1.6 2zM487 522.9c0 1.1-.6 2.2-1.2 2.4-.8.3-.6.6.5.6 1.2.1 1.7-.7 1.7-2.4 0-1.4-.2-2.5-.5-2.5s-.5.9-.5 1.9z"/><path d="M18.7 524.4c-.4 1-.1 1.3.8.9.8-.3 1.2-.9.9-1.4-.7-1.2-1.1-1.1-1.7.5zM562.6 524.6c-.8 2.1-.8 3.4.2 3.4.4 0 .9-1.1 1-2.5.2-2.8-.3-3.2-1.2-.9zM570.6 524.5c-.3.9-1.1 1.3-1.7.9-.8-.5-.9-.3-.4.5.6 1 1.1.9 2.3-.3.9-.8 1.3-1.8 1-2.1-.3-.3-.8.1-1.2 1zM48.2 525.5c-.7.8-.9 1.5-.4 1.5s1.5-.7 2.2-1.5c1.6-1.9-.1-1.9-1.8 0zM388.7 526.7c-.4.3-.7 1.1-.7 1.7 0 .6.5.5 1.2-.2.6-.6.9-1.4.7-1.7-.3-.3-.9-.2-1.2.2zM481.6 527.5c.4.9-.3 2.3-1.7 3.5-1.3 1-1.8 1.9-1.1 2 .6 0 1.2-.5 1.2-1 0-.6 1.2-.3 2.8.6 1.8 1.1 2.1 1.1 1 .2-1.7-1.4-1.7-1.6.1-2.4 1.9-.9 1.8-1-.5-2.7-1.9-1.4-2.3-1.5-1.8-.2zM414 528.1c0 .5.5.7 1 .4.6-.3 1-.8 1-1.1 0-.2-.4-.4-1-.4-.5 0-1 .5-1 1.1zM568.8 528.1c-1 .5-1.8 2.1-1.8 3.4 0 2.6 1.5 4.1 2.4 2.6.4-.5.2-1.2-.4-1.6-1.6-1-1.2-2.5.5-1.9.8.4 1.5 1.4 1.6 2.3 0 1.2.2 1.2.9-.4.5-1.1.9-1.4.9-.8.1 2.1 3.1 1.4 3.1-.7 0-1.4-.5-1.8-1.7-1.3-1 .4-1.4.2-1-.4.4-.6 0-1.4-.9-1.7-1.9-.7-1.5-.8-3.6.5zM16.3 530.8c0 1.2.5 2.2.9 2.2 1.1 0 1-1.2-.2-3-.7-1.2-.9-1-.7.8zM397.8 530.5c.6 1.1 1.1 2.4 1.2 3 .3 1.7 1 1.9 1 .4 0-.9-.7-2.4-1.6-3.5-1.5-1.9-1.5-1.9-.6.1zM438.5 532c-.3.5-.2 1 .4 1 .5 0 1.3-.5 1.6-1 .3-.6.2-1-.4-1-.5 0-1.3.4-1.6 1zM589.6 532.7c-.6 1.4-.5 1.5.5.6.7-.7 1-1.5.7-1.8-.3-.3-.9.2-1.2 1.2zM13.7 534.4c-.3.7.4 1.8 1.4 2.4 1.3.8 1.9.9 1.9.1 0-.5.5-.7 1-.4.6.3 1 .3 1-.2 0-.4-1.1-1.3-2.4-1.9-1.9-.9-2.6-.9-2.9 0zM393.2 535c0 1.4.2 1.9.5 1.2.2-.6.2-1.8 0-2.5-.3-.6-.5-.1-.5 1.3zM401 533.4c0 .2.8 1 1.8 1.7 1.5 1.3 1.6 1.2.3-.4s-2.1-2.1-2.1-1.3zM486.3 533.7c.4.3.2 1.2-.4 2-.9 1-.8 1.3.3 1.3.7 0 1.4-.9 1.5-2 .1-1.1-.3-2-.9-2-.6 0-.8.3-.5.7zM438.7 535.4c-.3.8-.2 1.8.3 2.1 1.3.8 2.4-1.5 1.2-2.7-.6-.6-1.1-.4-1.5.6zM575.5 536.1c-.4.6-.5 1.2-.2 1.5.2.3.7-.2 1-1.1.7-1.7.1-2-.8-.4zM384.1 537.6c0 1.1.3 1.4.6.6.3-.7.2-1.6-.1-1.9-.3-.4-.6.2-.5 1.3zM567.1 538.6c1.2 1.3 2.6 2.1 3.2 1.7.6-.3.7-.1.4.4-.9 1.4 3.2 6.5 4.5 5.7.7-.4.8-.2.4.4-.4.7 1.9 3.8 5.6 7.6 6.6 6.7 10 11 11.1 13.8.9 2.6 2.4 2.2 3.1-.7.4-1.4 1.1-2.3 1.6-2 .6.4.7-.1.3-1.1-.4-1.1-.8-1.3-1.1-.6-.6 2-2.2 1.3-2.3-1.1 0-1.2-.3-1.7-.5-1.1-.3.7-1.3 1-2.4.7-1.8-.5-1.8-.6.1-3.6 1-1.8 1.9-3.7 1.9-4.2-.1-.6-.7.1-1.4 1.4-.8 1.5-1.6 1.9-2 1.3-.4-.6-1.2-1-1.9-.8-.7.1-.9.1-.4-.1.4-.3.7-1.4.7-2.6 0-2 0-2-1.5-.1-1.3 1.6-1.4 1.6-.9.1.7-1.9-1.1-2.4-2-.5-.3.7-.4.4-.3-.7.1-1.2-.3-1.9-1.1-1.7-.8.1-1.1-.2-.7-.8.3-.5.1-1-.4-1-.6 0-1-.6-.8-1.3.1-.6-.4-1.1-1-.9-.7.1-1.2-.4-1-1 .1-.7-.6-1.2-1.5-1.2-1 .1-1.4-.4-1.1-1.2.3-.7-.3-2.1-1.3-3.1-1.7-1.7-1.7-1.7-1.2.4.3 1.3.2 2.3-.3 2.3s-.9-.8-.9-1.8c0-2.8-1.5-4.3-4.4-4.6l-2.7-.3 2.2 2.3zM484.6 539.5c.4.9 1.3 1.4 2 1.1.8-.3 1.4-.1 1.4.5s.5.7 1 .4c1.7-1 1.1-2.6-.7-2.3-1 .1-2.4-.1-3-.5-.9-.6-1.1-.3-.7.8zM16.6 539.9c-.4.7-.5 1.5-.2 1.8.9.9 1.9-.4 1.4-1.8-.4-1.1-.6-1.1-1.2 0zM607.5 540.1c-.9 1.4-.2 2 1.4 1 .8-.6.9-1.1.3-1.5-.6-.3-1.4-.1-1.7.5zM14.3 543.1c-.2 1.9 1.1 2.6 2.1 1 .3-.5 0-1.4-.7-1.9-1-.8-1.3-.6-1.4.9zM502.5 542.1c-.4.6-.5 1.2-.2 1.5.2.3.7-.2 1-1.1.7-1.7.1-2-.8-.4zM440 544c0 .5.5 1 1 1 .6 0 1-.5 1-1 0-.6-.4-1-1-1-.5 0-1 .4-1 1zM508.5 544c-.3.5-.1 1 .4 1 .6 0 1.1-.5 1.1-1 0-.6-.2-1-.4-1-.3 0-.8.4-1.1 1zM16.4 545.6c-1 .8-1.4 1.3-.7 1 1.7-.9 2.7 1.2 1.3 2.9-.8 1-.9 1.9 0 3.5.6 1.1.9 2.4.6 2.8-.2.4.4.8 1.4.9 2.9.2 3.3-1.4.8-3.1-1.2-.9-1.8-1.6-1.3-1.6.6 0 1-1.8 1-4 0-4.5-.3-4.7-3.1-2.4zM598.4 547.1c-.3.6-.2 1.5.3 2s.9.1 1-1.1c.2-2.2-.2-2.5-1.3-.9zM407 548.1c0 .5.5.7 1 .4.6-.3 1-.8 1-1.1 0-.2-.4-.4-1-.4-.5 0-1 .5-1 1.1zM601.7 548.4c-.4 1-.1 1.3.8.9.8-.3 1.2-.9.9-1.4-.7-1.2-1.1-1.1-1.7.5z"/><path d="M584.5 548.9c-.3.5-.1 1.2.4 1.5.5.3 1.1-.1 1.5-.9.6-1.6-.9-2.1-1.9-.6zM439 550.9c0 .5.5 1.3 1 1.6.6.3 1 .2 1-.4 0-.5-.4-1.3-1-1.6-.5-.3-1-.2-1 .4zM494 550.2c0 1.2 3.8 4.7 4.4 4.1.3-.3.6.1.6 1s.5 1.7 1 1.7c.6 0 1-.9 1-2 0-1.2-.7-2-1.7-2-.9 0-2.5-.7-3.5-1.7-1-.9-1.8-1.4-1.8-1.1zM466 553c0 .5.5 1 1.1 1 .5 0 .7-.5.4-1-.3-.6-.8-1-1.1-1-.2 0-.4.4-.4 1zM596.6 553.3c.3 1 .9 1.5 1.2 1.2.3-.3 0-1.1-.7-1.8-1-.9-1.1-.8-.5.6zM405.1 554.6c0 1.1.3 1.4.6.6.3-.7.2-1.6-.1-1.9-.3-.4-.6.2-.5 1.3zM568.6 553.8c-.2.4-.1 1.4.3 2.1.6.9 1 .7 1.4-.8.5-2-.7-2.9-1.7-1.3zM35 555.5c-1.1 1.3-1.5 1.3-2.1.3-.5-.7-.9-.8-.9-.3 0 .6-2 1-4.5 1-2.5-.1-4.5.2-4.5.6 0 1.4 3.9 2 5.8 1 1.1-.6 2.4-.6 3.3 0 2 1.2 2.9 1.1 2.7-.4-.2-.6.3-1.1 1-1 .6.2 1.2-.4 1.2-1.2 0-1.9-.4-1.9-2 0zM601.7 555.3c-.3.7-.2 1.9.3 2.6.5 1 .8.9 1.3-.2.3-.7.2-1.9-.3-2.6-.5-1-.8-.9-1.3.2zM438.7 556.5c-.4.8-.3 1.6.1 1.9.4.3.9-.4.9-1.5.2-2.3-.3-2.5-1-.4zM593.3 557.9c-.9 1.4-.8 1.8.3 1.8 1.5 0 2.7-2.4 1.6-3.1-.5-.3-1.3.3-1.9 1.3zM466.6 558.7c-.6 1.4-.5 1.5.5.6.7-.7 1-1.5.7-1.8-.3-.3-.9.2-1.2 1.2zM503.2 558.5c.2 1.1-.2 1.9-.9 1.8-.7-.2-1 .4-.7 1.2.5 1.3.8 1.3 2.1 0 1.1-1.1 1.2-1.9.3-3.2-1-1.7-1-1.6-.8.2zM541 558c0 .5.7.7 1.5.4.8-.4 1.5-.8 1.5-1 0-.2-.7-.4-1.5-.4s-1.5.4-1.5 1zM401 562.5c0 .8.2 1.5.4 1.5s.6-.7 1-1.5c.3-.8.1-1.5-.4-1.5-.6 0-1 .7-1 1.5zM608 568.1c0 .5.5.7 1 .4.6-.3 1-.8 1-1.1 0-.2-.4-.4-1-.4-.5 0-1 .5-1 1.1zM589 569.7c0 .7-.6 1.1-1.2.9-.7-.1-1-.1-.5.1.4.3.7 1.3.7 2.4 0 1 .7 1.9 1.5 1.9s1.5-.5 1.5-1.1c0-.5-.4-.7-1-.4-.5.3-1 .2-1-.4 0-.5.4-1.1 1-1.3.6-.2.6-.8 0-1.8-.6-.9-1-1-1-.3zM605 570.9c0 .5.7 1.1 1.5 1.5.8.3 1.5.1 1.5-.3 0-.5-.7-1.1-1.5-1.5-.8-.3-1.5-.1-1.5.3zM434.5 574.6c-.9 1.5-1.2 2.3-.6 2 1.1-.7 3.5-4.6 2.8-4.6-.3 0-1.2 1.2-2.2 2.6zM584.4 572.8c-.9.5-.8 1 .1 1.9 1.1 1 1.3.9 1.2-.7-.1-1.1-.1-2-.2-2 0 0-.5.4-1.1.8zM370.5 581c.3.5.8 1 1.1 1 .2 0 .4-.5.4-1 0-.6-.5-1-1.1-1-.5 0-.7.4-.4 1zM572.7 587.1c-.3 1-.1 2.2.4 2.5.5.3.9 0 .9-.6s.3-.9.8-.7c.4.3 1.3-.1 2-.9s.9-1.4.5-1.5c-.4 0-1.5-.2-2.5-.4-.9-.2-1.8.5-2.1 1.6zM374.5 588c-.3.5-.1 1 .4 1 .6 0 1.1-.5 1.1-1 0-.6-.2-1-.4-1-.3 0-.8.4-1.1 1zM532.5 602c.3.5.8 1 1.1 1 .2 0 .4-.5.4-1 0-.6-.5-1-1.1-1-.5 0-.7.4-.4 1zM551 604.1c0 .5.5.7 1 .4.6-.3 1-.8 1-1.1 0-.2-.4-.4-1-.4-.5 0-1 .5-1 1.1z"/></svg>