<svg preserveAspectRatio="xMidYMid meet" viewBox="0 0 1351 1775" xmlns="http://www.w3.org/2000/svg"><path d="m293.606 1719.509c0-14.649-3.927-20.334 2.226-32.64 11.026-22.054-5.832-67.422 24.525-82.6 10.542-5.271 37.139-8.832 47.753-14.14 23.658-11.829 38.606.017 62.287-11.823 4.252-2.127 13.963-27.621 17.803-33.382 9.803-14.705 17.633-29.045 27.448-43.768 10.757-16.136 29.71-24.283 41.541-40.058 9.245-12.325 24.233-20.029 32.64-32.64 11.276-16.912 31.078-44.971 50.05-54.456 6.033-3.015 25.243-2.181 29.673 6.677 1.923 3.844-10.037 10.511-12.172 11.824-12.891 7.924-29.182 12.371-37.091 28.189-20.173 40.344-59 72.4-79.33 113.059-14.24 28.481-26.935 58.552-37.09 89.019-6.128 18.382-.631 40.769-6.677 58.906-1.562 4.687.121 50.074-3.315 51.793-3.862 1.93-11.126-.742-15.14-.742-38.861 0-12.551-50.93-4.844-74.047 2.008-6.025 2.069-18.994-4.451-22.254-4.776-2.388-23.594 5.982-26.267 9.992-12.271 18.405-15.511 56.344-39.317 68.247-4.992 2.496-.741-24.224-.741-25.222 0-17.38 22.778-44.987-2.968-57.862-7.74-3.871-17.609 5.741-22.254 10.386-16.79 16.79 3.17 51.774-8.509 69.292-2.924 4.387-31.843 3.709-37.832 3.709" fill="#d8d8d8" stroke="#000"/><path d="m634.102 1708.753c6.299-25.198 24.107-29.674 34.865-51.186 5.523-11.045-.188-21.134 5.193-31.898 3.401-6.802 4.718-26.913 1.922-32.505-8.832-17.663 7.924-45.958 1.484-65.28-2.004-6.011-6.231-15.728-2.968-22.254 3.799-7.598 0-28.58 0-37.395 0-24.055 5.541-43.663 5.541-67.099 0-7.246-.072-34.902 14.837-27.448 7.902 3.952 10.422 46.846 13.307 55.502 15.377 46.125 1.784 98.807 23.694 142.63 4.052 8.106-1.157 20.683 2.967 28.931 5.567 11.134 40.357 14.221 43.632 25.918 7.95 28.394 30.631 37.411 46.147 64.695 2.887 5.077 11.869 12.877 11.869 18.545 0 3.662-33.912 2.854-36.653 1.484-20.212-10.106-37.138-37.139-51.927-51.928-1.877-1.876-8.902-20.029-8.902-20.029s4.405 14.785 4.755 16.185c2.019 8.078 18.859 46.032 8.901 52.669-3.184 2.123-7.609 2.531-11.127 3.709-43.744 14.645-14.021-45.991-33.685-63.796-3.969-3.594-12.35 11.883-16.623 13.308-12.695 4.231-61.571 45.188-61.571 58.603" fill="#d8d8d8" stroke="#000"/><path d="m937.887 1379.96c-5.664 34.34-5.102 68.96-5.102 103.92 0 13.04-3.445 28.242.741 40.8 6.3 18.898-3.724 42.868.742 62.346 3.003 13.097 14.836 60.409 5.541 74.35-4.995 7.493-20.648 8.536-23.738 17.803-4.205 12.614-13.506 28.943-21.119 40.362-1.838 2.757-19.905 20.277-19.287 21.513 1.355 2.71 22.82 13.635 26.705 15.578.959.479.742-8.345.742-9.644 0-5.207 2.942-9.578 4.799-14.398 5.884-15.269 19.404-24.713 26.706-39.316 2.521-5.043 4.746-13.353 10.385-13.353 1.263 0 .742 15.873.742 17.804 0 13.068 4.17 34.966 0 47.476-.882 2.645-3.63 13.022 0 14.836 6.941 3.47 4.405-14.002 5.934-17.061 5.078-10.155 14.515-16.099 18.546-28.189 1.365-4.096-7.662-20.278-3.709-22.255 32.569-16.287 26.575 40.886 36.942 56.435 8.265 12.398 15.972 5.557 25.963 3.709 7.607-1.407 20.141-5.231 23.3-14.71 3.205-9.618-12.717-40.019-19.939-44.59-10.92-6.911 3.933-25.418-11.915-45.161-40.219-50.105-23.15-108.853-38.787-158.04-6.132-19.29-10.107-41.593-18.984-59.345-8.426-16.851-1.487-38.296-9.643-54.608-5.553-11.106-11.195.893-17.804.893" fill="#d8d8d8" stroke="#000"/><path d="m987.178 1398.799c33.111 26.016 27.409 61.707 55.198 88.973 24.264 23.807 50.402 37.807 64.358 64.01 13.747 25.81 32.932 29.912 45.203 54.453 13.942 27.881-11.869 79.234-11.869 110.531 0 9-1.839 30.978 7.419 35.608 36.536 18.271 17.3-75.915 39.664-87.096 8.255-4.127 14.282 10.479 20.029 13.352 20.061 10.033 34.947 36.842 47.477 55.637 3.384 5.076 29.552 9.884 32.64 3.709 1.2-2.4-8.218-16.378-10.386-18.546-14.634-14.633-25.63-29.002-34.865-47.476-1.714-3.428-23.793-17.034-19.287-19.287 31.272-15.638 46.808-6.024 74.485 7.812 13.672 6.835 13.064 32.351 22.996 42.283 3.494 3.494 18.944 5.138 21.513 0 1.789-3.579-20.753-31.121-22.997-35.607-5.916-11.832-15.824-33.767-29.279-39.62-38.301-16.662-98.418 3.172-120.781-39.665-4.686-8.977-11.956-26.021-20.771-31.898-7.443-4.962-18.354-20.129-22.558-28.537-8.892-17.787-26.564-25.381-37.832-42.284-4.88-7.32-19.055-8.436-22.997-16.32-11.884-23.765-35.571-46.091-50.05-67.808-7.186-10.779-31.46-19.062-31.46-1.878" fill="#d8d8d8" stroke="#000"/><path d="m560.794 1336.892c0 3.756-3.153 20.4-.742 25.222 2.218 4.434 17.73.352 22.255 1.483 24.584 6.147 53.336 7.419 79.678 7.419 6.104 0 44.113 2.275 46.734-2.968 3.175-6.349-1.6-34.182-7.418-37.09-24.838-12.417-74.478 5.192-101.191 5.192-9.818 0-36.349-5.456-36.349 7.418" fill="#989898" stroke="#000"/><path d="m900.662 1331.46c3.452 8.811-1.279 25.979 1.832 32.201 3.31 6.621 16.802-1.242 22.255 1.484 19.098 9.548 43.839 10.905 64.538 17.804 4.112 1.37 17.46 7.961 21.512 5.934 4.754-2.377.537-48.321-3.709-50.444-6.814-3.406-34.78-1.526-40.8 1.484-15.277 7.64-50.665-4.799-67.808-4.799" fill="#989898" stroke="#000"/><path d="m601.2 903.828h77.517v422.98h-77.517z" fill="#786969"/><path d="m395.126 917.074h56.782v422.655h-56.782z" fill="#786969" transform="matrix(.998451 .055643 .061215 1.004963 447.828888 -6.791683)"/><g stroke="#000"><path d="m583.866 883.843c-5.486 49.368 41.079 21.111 68.989 30.414 14.79 4.93 33.944 4.913 46.734-1.483 6.813-3.407 5.193-18.658 5.193-25.222 0-25.222 0-50.444 0-75.666 0-9.877 11.398-50.785-.393-56.681-5.123-2.562-17.081-.742-22.997-.742-6.846 0-20.32-5.418-26.705-2.225-7.545 3.772-3.466 25.952-1.484 31.898 6.384 19.152 7.397 68.65-3.709 85.309-4.099 6.148-19.805-3.226-23.738-5.193-19.028-9.515-40.8 6.084-40.8 22.255" fill="#8d8d8d"/><path d="m858.639 780.52c8.609 37.043 4.321 94.97 6.722 124.826.705 8.77 6.499 25.134 15.578 29.673 11.715 5.858 26.825-4.451 38.574-4.451 18.367 0 35.46-2.225 54.321-2.225 1.319 0 17.268 1.543 18.41-.742 2.404-4.809 2.968-15.237 2.968-20.771 0-11.781 10.229-23.999-.742-31.156-15.155-9.887-85.562-23.392-63.055-12.612 7.694 3.685-25.447-42.929-18.694-71.956 6.522-28.036-35.205-2.967-56.971-2.967" fill="#8d8d8d"/><path d="m428.171 483.887c0 30.104-13.685 69.547-22.862 97.075-8.774 26.323-1.146 75.194 6.677 98.662 8.105 24.316.233 48.683 11.869 71.957 4.426 8.852 16.99 7.418 25.222 7.418 22.958 0 47.138 4.177 69.731 0 7.661-1.417 20.074 3.399 26.873 0 22.189-11.094 60.569-5.44 86.16-5.44 57.056 0 116.892-3.376 169.167 14.05 19.455 6.485 43.635-1.134 62.616 5.193 29.666 9.888 97.8 6.649 112.622-22.997 4.31-8.622-2.325-21.955.741-31.156 11.825-35.477-5.934-80.472-5.934-114.24 0-16.202 6.257-47.573-.742-61.571-7.678-15.355 4.444-42.045-15.927-52.23-49.325-24.662-109.193-28.506-156.556-52.186-8.87-4.435-37.87 34.513-45.993 38.575-24.541 12.271-65.98 2.967-93.469 2.967-20.266 0-43.908-11.962-61.435-20.726-9.635-4.817-25.396-3.077-35.472-8.115-7.529-3.764-5.334-14.165-12.611-17.803-16.48-8.241-29.542 7.869-42.587 12.217-30.352 10.117-56.205 19.856-77.891 41.542" fill="#d8d8d8"/><path d="m579.76 363.821c-7.679 3.072-20.236 5.606-24.48 14.095-8.4 16.798-.315 66.905 19.287 73.44 42.281 14.095 81.835 30.021 129.379 30.021 10.109 0 26.481 3.784 35.608.742 11.553-3.851 27.253-5.457 37.394-12.218 32.797-21.864 42.613-95.16 2.967-114.981-27.897-13.948-84.746-5.935-117.207-5.935-10.385 0-25.628-6.541-36.349-2.967-11.585 3.861-37.696 20.771-48.522 20.771" fill="#494949"/><path d="m614.294 375.893c-25.235 15.684-25.127 48.766 5.632 64.144 18.112 9.056 69.082 22.208 91.243 11.128 29.016-14.509 37.47-42.266 23.738-69.731-3.192-6.385-19.96-10.352-25.963-13.353-27.115-13.556-69.311 6.676-94.211 6.676" fill="#b9b9b9"/><path d="m593.944 298.749c22.913-4.825 55.326-14.136 79.408-8.115 17.122 4.28 47.388-4.124 61.571 2.967 24.604 12.302 26.105 21.053 38.574 45.993 1.606 3.211 9.566 20.81 3.709 23.738-1.681.84-33.032-5.76-36.349-7.418-6.634-3.318-17.395 1.839-24.041-1.484-19-9.5-47.14-8.16-69.731-8.16-21.414 0-54.25 17.755-73.44 8.16-5-2.5-20.933 6.353-21.513 5.193-1.555-3.111 9.49-11.244 10.386-14.095 6.064-19.301 33.584-45.869 34.865-48.96" fill="#d8d8d8"/><path d="m523.046 35.717c0 31.629 2.184 65.608-7.439 94.477-3.354 10.06 2.634 23.341-.744 33.476-2.981 8.943-4.216 39.177 0 47.61 7.465 14.931 22.348 26.099 29.757 40.915 8.591 17.182 22.686 31.801 39.427 40.172 5.724 2.862 3.18 10.235 8.183 11.902 18.718 6.24 41.321-5.951 60.257-5.951 28.447 0 57.202 7.394 87.646 7.394 2.823 0 24.669 4.223 26.037 1.488 5.811-11.622-5.557-47.054-5.557-62.353 0-56.744 3.72-110.514 3.72-167.381 0-11.801 8.952-60.616-2.232-66.208-8.261-4.131-37.969 13.39-52.074 13.39-48.736 0-91.34-8.927-139.112-8.927-19.986 0-46.866-.688-46.866 24.549" fill="#877777"/><path d="m140.831 86.669c-34.588 39.53 56.275 86.817 77.367 44.635 2.179-4.359-6.223-12.985-9.671-14.134-12.001-4-37.397 9.268-45.379-6.695-6.432-12.864 19.172-6.525 23.805-11.159 6.205-6.204-20.628-11.018-17.854-19.342 7.315-21.944 21.826-4.217 32.733-9.671 6.414-3.207-1.118-22.504-5.208-24.549-4.769-2.384-14.207 2.64-17.854 4.464-25.067 12.533-39.427 20.075-39.427 49.842" fill="#877777"/><path d="m148.552 136.517c3.75 1.499 18.08 5.659 20.085 9.67 7.779 15.558-8.078 43.357 0 59.513 5.082 10.164 10.271 20.542 15.623 31.245 9.775 19.55 51.625 57.361 69.747 66.422 29.038 14.518 49.814 48.712 78.855 63.232 38.56 19.281 66.976 51.843 101.78 75.045 21.628 14.419 41.986 30.966 63.537 45.334 23.719 15.813 35.202 36.52 60.965 49.403 19.098 9.549 48.316 38.499 65.7 50.089 8.945 5.963 24.04 45.633 8.183 53.561-2.716 1.358-24.594-26.803-29.013-29.012-20.611-10.306-24.592-30.032-44.87-40.172-12.741-6.37-27.546-25.793-44.399-34.22-27.585-13.792-48.446-34.529-74.696-52.028-6.677-4.452-31.109-25.428-38.656-29.201-15.497-7.749-9.471-7.137-24.576-14.69-42.778-21.389-80.72-59.971-108.127-101.082-9.668-14.502-28.55-24.241-42.403-33.476-7.97-5.314-11.539-18.044-20.085-22.317-9.668-4.834-22.614-7.028-28.573-18.948-21.929-43.857-27.131-74.148-27.131-123.049" fill="#3b3b3b"/><path d="m495.987 63.002c-1.642 1.876-8.86 8.317-6.695 12.647 2.061 4.123 14.729 2.529 18.597 4.463 14.307 7.154 46.184 12.647 62.489 12.647 8.88 0 23.881 4.311 29.013-5.952 1.815-3.631-1.655-9.259-2.976-11.902-11.447-22.897-35.557-2.976-55.05-2.976-4.535 0-15.344 1.999-19.341 0-7.557-3.778-26.226-10.225-32.732-3.719" fill="#575757"/><path d="m519.974 84.438c7.966 9.958 8.737 43.423 18.598 48.354 7.169 3.584 24.767-41.224 22.317-46.123-3.348-6.695-31.52-.744-37.196-.744" fill="#ed3f3f"/><path d="m518.931 209.685c6.76 13.521 18.083 24.263 24.549 37.195 1.695 3.39 2.002 12.57 6.695 14.135 13.708 4.569 58.227-6.515 72.16-11.159 8.981-2.994 41.042 4.954 45.378-3.72 2.604-5.207-4.73-52.579-9.67-55.049-7.83-3.915-20.467 2.975-28.269 2.975-26.762 0-68.518-6.827-93.462 1.488-4.95 1.65-35.326 22.318-14.878 22.318" fill="#23bf2a"/><path d="m149.682 64.409c-64.621 28.721-85.57 91.88-106.858 155.743-40.019 120.057-49.694 259.086-8.273 383.35 10.294 30.882 17.809 62.165 32.542 91.631 26.631 53.264 54.316 76.319 81.459 130.606 7.322 14.642 57.398 69.687 70.002 78.089 44.339 29.561 71.538 75.72 120.23 91.952 12.677 4.226 44.471 31.736 58.802 22.182 6.89-4.593 23.57-28.221 23.57-35.651 0-30.497-10.209-35.869-19.763-64.53-10.191-30.571-48.307-55.574-72.235-73.521-18.653-13.991-44.424-28.215-63.796-41.13-16.768-11.178-24.96-18.796-41.937-30.115-12.448-8.299-23.563-10.55-31.988-21.784-7.681-10.241-38.819-59.751-42.885-71.949-10.519-31.557-24.525-45.924-40.925-75.555-23.081-41.701-31.471-90.449-46.522-135.602-5.884-17.651 4.505-41.22 0-59.242-13.019-52.074 11.462-117.356 23.715-166.366 4.456-17.824 16.896-36.63 24.898-52.633 5.357-10.715 13.641-35.587 23.343-42.055 7.318-4.879 14.202-4.417 14.202-13.212 0-2.419-9.105-6.308-10.415-8.927-6.539-13.078-9.778-59.242 5.952-59.242" fill="#f3bf4e"/></g><g transform="matrix(.1 0 0 -.1 0 1775)"><path d="m7495 17603c-16-2-143-26-280-54-138-27-256-49-262-49s-13 10-17 23c-5 22-6 21-35-10l-29-33-174 5c-224 6-248 8-338 33-127 35-188 43-405 53-566 26-574 25-625-17-22-19-30-34-30-60 0-28-7-39-44-66-25-18-48-40-52-48-5-12-16-162-23-317-1-8-16-13-42-13-32 0-53 8-90 36-65 47-80 43-97-29-11-44-18-57-33-57-25 0-24-16 1-30 11-6 20-19 20-30 0-28 17-33 34-9 14 21 17 21 96 9 52-8 84-18 87-27 3-8 0-85-8-171-7-91-13-339-14-587l-2-430 37-55c20-30 55-93 78-140 45-94 97-172 186-280 61-74 63-88 11-91-11 0-29-5-40-10-14-6 0-8 47-5 62 3 67 2 86-23 10-14 50-60 87-101s85-108 107-148c51-92 111-169 145-185 21-9 27-8 38 6 10 14 30 17 117 17 89 0 122 5 228 35 140 40 222 44 355 20 44-8 123-14 175-15 52 0 129-7 170-16 45-10 160-19 290-23 281-10 292-14 372-131 103-151 179-303 192-387 2-15 7-47 11-70l7-43-34 6c-18 3-64 17-103 29-116 39-217 55-340 55-63 0-115 3-115 6 0 16 24 46 43 54 21 8 21 8 3 16-19 7-44-14-71-61-10-16-18-16-157 0-121 13-202 15-450 10-269-5-314-9-403-30-55-12-134-28-175-35s-106-23-145-36c-54-18-92-24-162-24-51 0-93 3-93 6 0 11 62 96 106 146 63 70 86 110 155 266 33 75 67 150 75 166s14 34 14 40c0 27-34-33-106-187-53-113-95-187-126-225-98-117-159-203-156-220 3-15 19-17 121-20 102-2 128 1 195 22 42 13 100 27 127 31 28 4 97 17 155 30s124 26 146 29l42 6 11-44c17-70 15-85-16-92-16-4-40-13-55-20l-26-14-7 51c-9 62-25 47-17-16 4-39 1-47-24-69-16-14-35-26-42-26-14 0-48 70-58 119-4 17-11 31-17 31-15 0-2-75 22-123 12-23 17-43 12-45-6-2-28-17-51-33-61-44-80-96-83-218-2-98-2-99-22-83-11 9-23 22-27 27-4 6-14 19-22 30-15 18-15 18-9 1 6-18-2-18-183-15-165 4-189 2-192-12-2-13 22-16 200-18 125-1 207-6 215-13 43-35-18-87-169-143-120-44-158-74-158-122 0-35 6-38 50-22 21 7 20 8-9 4-32-5-33-4-26 23 9 37 34 54 128 85 114 38 188 78 215 117 12 18 22 28 22 23 0-6 16-34 35-61 19-28 31-53 26-56-13-8-101-221-101-245 0-31 12-26 39 17 22 34 22 36 3 18-16-14-8 10 30 91l51 110 55-44c30-25 70-52 88-61 19-8 34-20 34-26s-11-46-25-89c-26-82-34-160-14-140 6 6 13 29 14 50 4 48 48 169 61 166 5-1 37-14 71-28 79-32 146-45 240-45 66 0 74-2 69-17-4-9-9-66-13-127-6-104-5-110 11-97 12 10 14 16 5 22-9 5-8 30 5 106 9 54 16 102 16 106s23 7 51 7c74 0 282 28 367 50l74 18-6-31c-3-18-6-96-7-174l-1-143-46-1c-618-11-711-8-698 27 3 9 1 12-4 9-15-9-12 75 4 126 19 59 27 119 16 119-5 0-12-12-15-27-3-16-12-56-20-90s-15-80-15-102v-41l-52 20c-29 12-89 29-134 40s-123 38-175 61-126 54-166 69c-151 58-278 145-336 233-60 89-77 149-77 271 0 169 39 244 166 316 43 25 63 30 125 31 121 2 138 17 20 18-98 1-106-1-163-31-83-44-132-95-158-164-19-52-21-75-18-189 3-126 4-132 39-206l37-76-47 5c-59 5-145-20-366-109-93-37-219-82-279-99-118-34-156-49-156-61 0-4-8-9-17-11-26-5-134 71-233 162-130 121-339 302-400 347-30 22-80 62-110 90-66 59-193 156-275 209-33 22-98 68-145 104s-132 97-190 136-136 92-175 118c-38 26-95 69-125 96s-80 71-111 97-112 100-180 163c-118 110-185 165-287 238-41 28-46 37-19 33 4 0 7 4 7 10 0 7-11 9-27 6-24-4-39 4-93 53-63 56-64 58-51 86l12 29-22-22-23-22-68 66c-45 45-65 70-58 77 15 15 12 30-3 17-11-8-23-3-53 22-68 56-191 183-206 213-8 16-38 72-66 124s-53 106-56 120c-2 14-7 32-10 40s-8 38-10 65c-18 188-27 265-36 300-14 58-12 85 5 85 8 0 15 6 15 14s-8 13-17 12c-22-1-31 32-32 122-1 99-20 91-23-10l-3-83-48 64c-26 35-47 56-47 48 0-7 24-45 52-83 50-65 54-75 70-169 18-106 23-185 11-185-18 0-69 42-100 81-27 34-33 50-33 88l1 46 22-26c27-33 71-61 80-52 12 11 8 23-6 18-19-8-108 88-118 126-8 32-8 31-3-6 3-22 6-66 5-97-1-53 2-61 42-110 24-29 62-63 85-76 34-19 42-29 42-53 0-32-7-34-63-18-24 6-41 19-47 32l-9 22v-22c-1-26 33-46 92-57 33-6 37-10 37-36 0-15 3-36 6-45 6-14 1-15-32-9-22 4-42 12-46 18-5 7-8 5-8-5 0-20 20-29 61-29 30 0 34-6 53-67 6-18 1-25-23-37-17-9-49-16-72-16h-41l5 38c3 20 3 29 1 20-10-33-21-18-47 60-42 126-49 192-54 489l-5 283 73-31c41-17 106-37 144-44 39-8 98-19 132-26 58-12 69-11 140 11 95 29 119 44 140 84 23 44 30 195 10 221-21 27-103 23-228-11-139-37-140-37-166 16-43 90-43 90 27 90 118 0 161 41 123 117-23 47-70 72-140 73-29 0-53 3-53 8 1 4 29 38 64 77l64 69 96-18c122-23 131-18 123 69-7 73-32 158-53 180-22 21-154 21-197-1-55-29-146-93-219-156-66-57-73-61-131-65-101-7-136-33-327-243-124-136-164-186-237-295-133-199-258-444-399-783-188-452-231-615-318-1202-59-398-61-433-61-975 0-527 5-604 56-960 86-599 256-1170 518-1745 172-377 472-895 715-1233 196-273 379-493 677-812 519-556 784-769 1264-1016 280-144 382-180 540-193l70-6-95 21c-152 33-233 64-435 168-517 266-760 458-1288 1015-497 526-779 903-1125 1506-640 1116-922 2254-874 3533 19 484 111 1119 212 1445 124 405 410 1017 595 1277 113 158 362 428 423 459 34 17 132 39 140 32 2-3-21-32-53-65-36-38-62-58-72-54-11 4-14-1-11-23 2-23 8-29 26-28 25 1 28-8 7-26-31-26-55-117-55-213 0-85 2-97 29-139 16-25 39-52 51-61l22-16-44-58c-51-65-185-266-242-360-64-108-172-342-230-503-31-85-90-240-131-345-111-285-143-410-182-710-26-205-27-975 0-1180 50-381 117-674 236-1035 281-847 628-1473 1098-1978 244-263 431-401 822-607 274-144 370-221 583-467 66-76 121-138 124-138 8 0-75 108-171 224-151 182-255 262-550 421-301 163-431 252-615 420-367 335-738 866-981 1405-208 462-384 996-463 1405-112 579-116 1326-10 1829 25 119 52 200 183 551 198 528 268 671 476 966 92 131 94 133 102 125 5-4 11-143 14-309 7-324 15-389 65-514 14-36 42-92 61-126s59-109 88-167c48-93 69-121 186-245 73-77 193-204 267-283 86-92 165-164 221-204 126-89 178-135 185-163 4-16 16-27 36-32s109-83 255-223c124-118 225-218 225-222s5-8 10-8c6 0 76-56 156-124 80-69 191-156 247-195 56-38 113-78 125-88 13-10 36-27 50-39 65-50 358-258 472-334 126-84 340-246 340-258 0-3-9-15-19-26-39-41-135-301-162-436-4-25-13-103-18-175-5-71-23-200-40-285-38-194-48-283-56-485-3-88-13-225-22-305-19-175-13-493 13-640 20-115 76-315 104-370 37-72 42-73 288-67 185 4 234 9 332 31 66 15 126 35 140 46s36 25 50 31c35 15 259 32 485 36 512 9 750 20 825 38 63 15 83 16 130 7 31-7 83-12 116-12l59 1-24 19c-13 11-34 20-46 20-13 0-51 7-85 16-50 13-73 13-132 4-39-6-76-14-82-18-14-9-509-24-716-22-100 1-189-4-250-14-52-9-121-16-154-16-69 0-167-24-216-52-19-11-86-31-150-44-98-20-143-24-307-24-157 0-194 3-207 15-31 32-95 240-121 400-25 148-30 435-12 625 9 91 19 235 22 320 7 179 17 266 51 440 14 69 34 206 45 305 30 272 99 515 167 587l25 27 46-34c25-20 143-105 261-191 118-85 289-214 380-285 91-72 255-199 365-284 110-84 209-160 220-169 11-8 117-86 235-172 118-87 242-179 275-206 62-49 79-56 91-36 4 6 3 8-4 5-5-4-44 22-86 58s-129 104-192 152c-97 74-112 89-92 91 29 5 46 19 68 55l17 28 7-59c12-106 63-136 111-65 14 21 25 43 25 50 0 24 22 13 79-42 49-47 91-70 91-49 0 19-64 83-143 143-51 38-134 115-185 171-52 55-119 118-150 139-32 22-104 87-162 146-80 81-139 129-245 199-77 52-155 101-173 110-62 32-238 150-404 272-37 27-98 71-136 99l-69 50 53 27c30 16 61 28 69 28 9 0 23 4 33 9 9 5 47 18 83 30 37 11 134 48 215 82 269 112 386 142 400 104 4-8 11-12 16-9 5 4 24-7 41-24 49-46 177-126 253-157 38-15 119-50 179-78 61-27 151-60 200-72 50-13 131-38 180-56l90-33 450 3 450 3 75 25c41 14 120 48 175 76 169 86 316 249 386 431 55 142 72 227 67 340-3 88-8 110-36 170-32 68-88 131-163 182-31 21-38 33-52 97-21 87-96 247-164 348-71 105-69 101-38 87 42-19 51 0 32 75-9 35-26 179-38 318-20 240-21 296-15 1004 3 413 5 779 5 815s-1 220-2 410l-2 345-55 1c-30 1-68-1-85-3zm99-100c3-38 2-81-3-98l-8-30-12 28c-6 16-11 35-11 43 0 19-36 18-44-1-3-8-12-15-21-15-11 0-15 11-15 41 0 51-21 48-33-4-13-56-27-44-27 22v60l58 6c31 4 62 8 67 10 36 13 42 5 49-62zm-2098-4c-32-68-36-70-38-18l-1 44-6-45c-6-44-7-45-46-51-43-6-33-14 27-22 21-3 40-1 43 4 8 12 741 10 820-2 33-5 195-14 360-19s325-14 356-20c94-17 350-25 392-11 24 8 63 10 115 6l79-7 1-207c1-113 2-246 3-296 1-49-2-427-6-840-7-654-5-778 9-965 9-118 21-242 26-275 6-33 10-65 10-72 0-18-59 4-92 35-23 21-28 23-28 9 0-20 1-20-75-2-40 10-116 15-227 15-106 0-195 5-245 15-43 8-118 15-167 15s-134 7-190 16c-138 22-245 15-366-24-82-27-114-31-237-35l-142-5-29 32c-15 18-47 67-70 109-24 43-81 121-128 174-46 53-81 100-77 104 5 3 64 19 133 34s135 31 147 36c14 5 23 4 27-4 3-8 9-7 19 5 23 29 97 36 415 43l302 6v-26c0-33 27-33 40 1 6 14 8 42 5 62-11 82-16 166-22 344l-6 188-86-6c-47-3-122-13-166-21-59-11-155-16-365-17-232-2-312-6-430-24-80-12-199-25-265-30s-126-11-134-13c-28-8-24 832 5 1114l6 58 87-3c86-4 267-40 284-57 5-5-22-76-67-172-42-90-76-167-76-171s6-8 14-8 46 69 91 168l77 167h185c102 0 186 2 188 5s-2 71-8 150c-10 118-15 145-28 148-9 1-59-9-112-23-52-14-131-27-174-30s-116-10-163-15-132-12-188-14c-91-5-103-3-98 10 3 9 7 25 7 37 1 17 3 15 9-8 7-27 8-25 10 20 2 28 2 92 0 144l-2 93 56 52c41 38 56 59 56 79 0 38 55 64 137 66l42 1zm247 35c48-4 87-9 87-12 0-11-44-52-56-52-6 0-14 7-18 15-8 22-24 18-51-11l-24-26-3 39c-4 54-30 55-65 4-15-22-32-39-38-37-5 1-11 24-13 51l-3 48 48-6c26-4 87-9 136-13zm-203-38c0-37-4-45-22-49-12-4-24-5-26-3-4 4 38 96 44 96 2 0 4-20 4-44zm1850 37c-1-5-9-37-19-72-19-68-27-68-39 1-9 52-31 60-55 18-10-16-22-30-26-30-9 0-25 50-18 56 2 2 35 10 73 18 89 18 84 17 84 9zm-1420-13c0-13-41-50-57-50-11 0-33 37-33 56 0 2 20 4 45 4s45-4 45-10zm166-5c64-9 122-19 128-23 17-11-76-19-100-9-20 8-65 2-131-18-21-7-23-4-23 29 0 20 2 36 4 36 3 0 58-7 122-15zm-260-40 12-35h-50-49l33 39c18 22 35 38 37 35 3-2 10-20 17-39zm-219-22c-3-2-15-3-27-1l-22 3 24 30 23 30 3-29c2-15 1-30-1-33zm1531 22c-13-29-38-33-38-6 0 19 12 29 37 30 10 1 10-5 1-24zm-1198-9c0-18-5-23-25-23-32 0-42 14-15 22 11 3 20 11 20 16s5 9 10 9c6 0 10-11 10-24zm-246-1c4-10-1-15-16-15-17 0-18 2-8 15 7 8 14 15 15 15 2 0 5-7 9-15zm646-13c8-3 31-7 50-9 19-1 67-7 105-12 59-8 48-9-65-5-292 11-425 19-409 27 18 9 53 10 139 4 34-3 62 1 73 8 17 12 51 8 107-13zm710 23c0-17-32-65-40-60-14 9-12 52 3 58 17 7 37 8 37 2zm56-52c11-4 24 2 36 18 18 21 21 22 29 6 14-24 45-21 63 5s19 25 33-31l11-44-116 7c-64 4-118 9-120 10-1 2 5 20 15 40 16 34 18 35 25 16 4-11 15-23 24-27zm-166 31c0-13-21-44-30-44-15 0-12 37 3 43 17 8 27 8 27 1zm-67-24c5-18 0-20-50-20-33 0-52 4-48 10 3 6 18 10 33 10s34 5 42 10 16 10 16 10c1 0 4-9 7-20zm476-34c-14-16-20 0-13 30l8 29 6-25c4-14 3-29-1-34zm-369 19c0-8-6-12-14-9s-12 12-9 20c6 17 23 9 23-11zm-353 9c-3-3-12-4-19-1-8 3-5 6 6 6 11 1 17-2 13-5zm108-4c8-13-35-13-55 0-11 7-7 10 17 10 17 0 35-4 38-10zm762-26c-2-2-12-2-21 2-13 5-14 9-5 21 11 12 14 12 22-2 5-9 7-19 4-21zm-72 16c3-5-1-10-10-10s-13 5-10 10c3 6 8 10 10 10s7-4 10-10zm-5513-197c10-29 21-71 24-94l7-42-49 7c-27 4-73 10-102 13l-54 6-74-79c-59-63-74-85-74-110 0-45 19-56 77-48 59 7 107-13 125-52s-1-49-103-53c-62-2-92-7-95-16-6-15 20-106 44-154 9-19 28-42 42-53 24-18 27-17 98 8 67 23 203 54 238 54 11 0 14-16 14-69 0-121-10-133-142-176-54-18-61-18-130-3-40 9-92 19-114 22-41 6-214 73-214 83 0 3 8 12 18 20 16 13 15 14-5 8-19-5-22 0-33 52-16 81-17 83-41 83-20 0-21-3-14-46 3-26 9-54 12-63s-10-1-27 18l-32 34 4 111c4 123 13 149 75 217 41 45 100 79 137 79 19 0 26-6 29-27 4-21 4-19 3 7-1 32-4 35-36 38-22 2-52-6-81-21l-47-23 57 63c74 85 211 196 286 234 47 24 70 29 110 27l50-3zm3968-200c0-49 3-98 6-110 6-22 4-23-64-23-39 0-92-5-119-11-31-7-64-8-92-2-39 7-46 13-53 40-5 18-12 34-17 37s-32-2-61-11c-46-15-59-15-109-3-31 7-94 16-141 19s-84 9-82 14c1 4 2 16 2 26 0 23 20 27 205 41 271 21 352 30 420 49 111 31 105 34 105-66zm-888 31c21-15 57-29 83-32 39-4 45-8 45-28 0-13-3-24-7-24-19 0-176 30-181 34-6 7 7 76 15 76 4 0 24-12 45-26zm538-139c0-17-2-18-25-9-13 5-14 8-3 15 19 13 28 11 28-6zm1016-1425c-2-9-10 1-20 23-18 42-30 46-46 17-13-24-36-26-44-4-3 9-6 69-6 135 0 73-4 119-10 119-12 0-12-7-11-120 1-70-1-81-11-62-14 28-47 29-81 2-14-11-28-20-31-20s-7 30-9 68l-3 67-2-81c-2-66-6-84-21-98-46-42-91 23-91 129 0 37-4 65-10 65-5 0-10-25-10-55 0-47-3-55-19-55-10 0-29-11-42-25-13-13-27-25-30-25-5 0-13 58-22 153-1 9-5 17-10 17s-7-13-4-30c4-16 9-59 13-95 6-55 4-68-11-85-10-11-28-20-41-20-21 0-23 6-29 85-4 46-5 100-3 119s0 32-4 30c-4-3-8-47-9-97-1-79-3-87-11-59-15 44-42 42-67-5l-20-38-3 75c-1 41-2 87-2 103-1 15-5 27-10 27s-7-50-4-118c8-160-13-190-67-97-20 32-25 56-25 105 0 35-3 60-7 56-5-4-6-34-5-67 3-48 1-59-12-59-25 0-51-36-71-97l-19-58-9 120c-5 66-10 132-11 148 0 15-5 27-9 27-8 0-5-79 9-252 4-47 2-68-6-68-6 0-25 30-42 68-18 37-39 72-47 78-9 7-16 35-19 75-2 35-9 69-14 74-7 7-8-17-3-74 5-65 3-98-11-147-9-35-21-64-25-64-14 0-36 42-55 105-10 33-23 67-30 75s-15 41-19 73c-11 87-22 77-21-21 1-52-4-99-12-117l-13-30-47 90c-26 50-55 102-65 116-23 35-19 36 140 44 70 4 187 16 258 27 101 15 194 20 420 23 181 2 309 8 340 15 28 7 88 15 135 19l85 6 7-160c5-88 6-167 4-175zm-407 78c4-13 11-65 15-117s11-102 16-111c8-15-2-18-106-24-63-3-136-11-162-17-33-7-48-7-50 1-2 5-8 8-13 4-16-10-10 150 7 192 9 22 21 50 26 64 9 24 10 24 33-25 17-35 25-70 27-122 2-43 7-72 13-71 6 2 9 31 7 71l-4 67h31c16 0 33 6 38 13s10-22 13-67c3-44 10-81 16-83 7-2 9 26 6 88l-5 90 34 35c39 40 47 42 58 12zm250-25c12-25 26-79 30-119 5-39 11-76 15-82 3-5-4-12-17-16-36-10-107-7-107 5 0 5-4 7-10 4-6-4-10 14-10 47 0 29-3 69-6 89-5 32-2 41 31 78 21 22 40 41 44 41s17-21 30-47zm-4674-50c60-116 59-111 24-128-43-23-82-16-90 15l-7 25-1-26c-2-42 22-55 72-40 23 6 49 14 57 16 9 3 34-19 64-56 26-33 47-61 45-63-19-17-57-26-103-26-42 0-57 4-65 18-6 9-11 13-11 7 0-5-12 13-26 40-14 28-48 92-75 143l-50 92h33c18 0 47 9 63 19 17 11 32 20 35 20 3 1 19-25 35-56zm3997-73c2-85 6-105 18-105 8 0 16 9 18 20 3 16 1 17-7 5-8-11-11 8-11 68v83l26-20c15-12 35-21 44-21 15 0 17-10 16-87l-1-88-162-41-162-42-59 73c-35 41-63 86-67 106-3 19-9 43-11 54-3 12 2 8 12-10 31-55 68-61 88-14 13 30 13 28 20-50 3-44 9-88 12-96 8-21 28-14 32 11 3 16 1 16-7 4-9-12-11-9-11 15-1 17-5 68-10 115-4 47-7 86-5 88 1 1 16-27 34-62 18-37 40-68 51-71 15-5 20-15 20-41 0-41 15-74 34-74 14 0 27 22 25 43 0 7-5 1-10-12-6-15-13-21-19-15-15 16-14 88 2 119 8 17 23 55 33 85 37 114 53 102 57-40zm-383 26c6-33 9-61 7-63s-14 12-26 32c-17 28-21 44-15 72 8 46 19 33 34-41zm912 48 28 5 3-89 3-90h-39c-29 0-37 3-33 14 4 10 1 13-9 9s-14 2-14 19c0 14-3 53-7 88l-6 62 23-12c12-7 35-9 51-6zm319-113c0-61-1-63-22-57-13 3-35 6-50 6-21 0-26 4-21 17 4 10 2 14-4 10-13-8-23 25-23 80 0 38 2 42 28 45 15 2 41-6 59-17 31-19 32-23 33-84zm-4550-251c0-11-57-30-91-30-18 0-29 6-32 18-3 10-5 6-6-10-1-26 2-28 34-28 20 0 52 7 72 15 36 15 37 15 70-17 38-36 42-58 13-58-24 0-84-29-77-37 8-7 67 7 67 17 0 18 51 17 75-2 34-26 32-34-15-58-48-25-77-26-84-2-4 13-4 13-3-3 3-29 55-31 107-5l41 21 62-49c34-27 63-55 65-63 4-24-66-99-94-99-21 0-23 3-18 33 4 24 3 28-5 17-6-8-11-27-11-42 0-25 4-28 32-28 26 0 41 10 80 52 40 43 51 50 58 38 11-17 5-58-16-107-14-36-30-42-38-15-3 10-4 6-3-8 1-18 8-25 22-25 23 0 59 85 53 127-5 33 6 28 72-29 25-21 63-52 85-68 53-39 125-106 125-115 0-5-22-30-50-56-27-26-50-54-50-62s27 12 59 45l59 59 54-51c30-27 79-72 111-98 66-55 65-60-15-120-54-39-78-46-78-22 0 17-17 20-22 4-2-6-34 17-71 51l-67 62 50 45c65 58 58 67-11 14-59-48-47-51-156 45l-70 61 56 51c30 28 52 54 48 58s-25-9-46-30c-21-20-44-38-52-39-8-2-20-6-26-10-19-12-17 67 1 82 15 13 28 51 17 51-8 0-50-79-53-103-5-32-96 42-239 194-74 78-185 197-248 263l-113 121 54 5c30 3 65 12 79 21 23 16 26 15 81-28 32-24 58-48 58-53zm485-730c3-5 1-10-4-10-6 0-11 5-11 10 0 6 2 10 4 10 3 0 8-4 11-10zm425-121c-8-17-25-45-38-61s-22-32-18-35c10-10 44 27 67 74 19 40 23 43 37 30 13-14 12-20-8-62-12-26-34-57-47-70-17-15-21-25-13-30 17-10 43 18 70 75 13 28 28 50 34 50s35-16 63-35l52-35-36-62c-20-35-46-73-57-85-36-42-75-24-77 37-2 30-3 31-6 8-2-16-7-28-11-28s-47 39-95 88l-87 87 30 13c16 8 51 33 77 57 41 37 50 41 62 30 12-12 12-19 1-46zm3578-149c17-56 17-56-34-70-36-10-47-11-54-1-5 9-9 8-14-5-9-24-21-8-35 48-16 69-18 68 57 68h67zm172 0v-40h-70c-69 0-70 0-84 33-7 17-11 35-9 40 2 4 40 7 84 7h79zm120 23c0-10 3-28 6-40 6-22 4-23-50-23h-56v40 40h50c41 0 50-3 50-17zm148-32 3-44-57 7c-63 7-74 16-74 59v28l63-3 62-3zm-3717-13 76-52-38-57c-21-31-45-59-54-63-32-12-56-6-65 17-10 22-10 22-7-3 1-17 11-28 30-34 34-12 67 10 113 75 21 30 37 43 50 41 11-2 53-30 94-63s118-88 170-123c136-91 357-268 359-288 1-6-13-29-71-120-15-24-25-44-22-47 8-9 41 30 74 89 18 33 38 60 43 60 18 0 78-51 72-61-4-5-1-9 4-9 14 0 14-65 1-91-15-26-57-46-109-50-41-4-46-2-52 21-7 21-8 20-6-10 2-32 5-35 34-38 41-4 105 13 133 36 12 10 28 40 34 66l13 48 58-54 58-54-43-57c-23-32-53-60-67-63-23-6-27-24-6-31 15-5 71 45 99 89 13 21 28 38 33 38 15 0 71-51 71-64 0-6-20-34-45-61l-44-50-1 30-2 30-10-28c-7-20-7-32 1-40 18-18 56 7 91 62l33 51 76-72c42-40 77-73 79-74s-7-13-20-27c-13-13-38-43-56-66-39-48-51-51-53-13-2 23-2 24-6 5-2-13-7-23-9-23-3 0-42 28-87 63s-149 109-232 165c-82 56-165 114-184 129l-33 29 34 54c29 46 58 110 58 128 0 2-7-1-15-8s-15-18-15-25c0-18-78-135-90-135-5 0-10 10-10 23 0 14-3 18-8 10-6-9-16-7-39 9l-31 22 43 41c27 27 50 63 64 100 33 87 19 90-21 5-51-111-111-152-143-100-3 5 15 52 40 103 30 60 45 102 42 118-3 21-6 19-23-21-32-77-79-164-89-167-6-2-19 3-29 10-17 13-17 15-2 43 9 16 28 44 41 63 16 22 23 41 19 56-3 12 2 39 10 60 9 21 14 40 11 43-12 12-34-24-55-90-27-87-68-135-100-118-25 13-26 35-2 50 14 8 12 9-10 4-16-3-28-2-28 3s22 38 50 74c32 41 50 74 50 91 0 26-2 28-37 24-21-2-46-7-57-11-16-7-17-6-7 13 17 32-4 27-24-5-24-39-67-83-79-83-5 0 4 15 21 33 38 40 53 69 52 99 0 18-4 15-19-17-9-22-32-53-49-69l-31-30v35l-1 34-14-40c-8-22-13-46-10-52 7-21 56-15 92 13 18 14 33 22 33 19 0-4 14 5 31 19s34 26 37 27c4 0 15 2 24 4 34 6 28-13-27-88-30-41-55-83-55-92 0-12-14-6-57 25-75 53-343 281-343 291 0 8 75 158 93 187 12 18 15 17 98-40zm3844 41 76-12-7-31c-3-17-8-33-10-35-1-2-39 0-83 4-76 7-81 9-81 30 0 13-3 30-6 39-8 20 7 20 111 5zm432-25c42-8 104-26 137-38 86-32 155-40 176-21 16 14 22 11 74-32 139-117 169-279 95-511-53-164-116-267-232-381-52-50-49-52-92 62-13 34-44 105-69 157-43 87-45 96-29 107 15 12 15 13-5 13-32 0-28-33 14-126 34-75 104-258 104-273 0-13-154-89-243-120-68-24-106-31-163-31h-74v165c0 189-3 183 97 234 71 36 183 147 217 217 51 102 44 258-15 348l-31 46 48 54c48 56 69 71 85 60 5-3 9 2 9 10 0 35-45 15-100-44l-56-60-24 25c-12 13-44 32-69 42-25 9-48 18-49 19-6 4 32 64 40 64 4 0 8 5 8 10 0 23-27 7-50-30-15-24-30-38-38-35s-38 5-67 5h-54l9 30c5 16 11 34 15 40 10 16 245 12 332-6zm-550-110c12-16 14-16 26-2 11 15 26 15 145 5 72-6 132-15 132-20 0-4 5-5 10-2 17 11 105-24 130-50 18-20 21-28 12-37-17-17-15-33 3-18 12 10 18 10 29 0 60-49 78-233 31-326-30-60-146-177-196-197l-37-15 45 76c81 141 86 155 78 242-6 66-10 79-27 83-12 4-18 1-15-6s10-11 16-9c6 1 11-9 11-23 0-21-3-24-18-16-30 16-50 44-71 102-20 52-56 96-111 132-27 19-80 23-80 7 0-5 12-10 26-10 32 0 75-30 110-76 41-53 22-51-29 3-54 57-71 52-29-9 47-69 64-109 60-139-4-24-2-27 10-17 9 8 12 24 9 48-6 34-5 34 10 13 8-13 22-23 29-23 24 0 15-20-8-21-18-1-17-3 8-10 27-8 32-14 37-51 10-76-14-160-62-215-28-33-32-29-29 25 2 31 7 46 16 45 6-2 12 6 12 17s-7 20-15 20c-23 0-45-54-45-114 0-30-4-58-10-61-19-12-10-25 18-25l27-1-25-13c-31-17-187-51-301-65-132-17-375-14-440 5-74 22-149 55-149 65 0 5-8 9-18 9-29 0-132 72-185 129-74 79-91 126-83 229 7 92 31 150 74 178 23 15 23 15 8-9-17-24-13-37 11-37 7 0 46 26 86 59 92 75 120 89 206 101 38 5 91 19 118 30 44 19 64 20 237 17 169-4 191-6 203-23zm383-391c0-57-5-53-14 11-5 33-4 46 3 41 6-3 11-27 11-52zm-2775-567c26-17 27-19 9-29-10-6-23-16-27-24-4-7-33-31-62-53-53-39-56-40-80-24l-25 16 39 43c21 23 46 54 56 69 20 30 46 31 90 2zm89-72 29-25-44-45c-26-26-46-40-50-33-3 6-9-2-12-18-3-15-3-30-1-32 3-3 31 22 64 54 55 54 61 58 82 46 20-10 145-100 286-203 24-19 42-40 42-51 0-30-77-97-112-97-25 0-28 4-30 33-1 29-2 28-7-9l-6-42-90 65c-49 35-146 105-214 156-104 77-120 93-105 100 11 5 41 36 67 68s53 59 60 59 25-12 41-26zm486-345c25-16 72-44 105-61 33-16 83-47 110-67 28-21 77-52 110-71 38-22 104-78 180-155 66-67 141-135 166-153 61-41 319-301 319-321 0-29-39-81-60-81-25 0-35 24-50 114-6 39-14 74-17 79-8 12-23-13-23-39 0-29-37-74-60-74-11 0-26 12-35 28l-16 27 7-34 6-33-58 43c-33 23-61 44-63 45-2 2 14 23 36 47 39 42 61 83 50 93-3 3-14-10-25-28-28-45-78-92-91-84-5 4-8 23-5 44l4 37-10-33c-7-22-15-30-23-25-34 21-787 612-787 618 0 3 6 2 13-1 33-12 147 68 147 103 0 21 22 15 70-18z"/><path d="m5220 16876c0-22 84-272 124-366 32-78 62-111 60-67 0 9-1 34-2 55-2 26-5 33-11 23-15-24-69 108-146 357-6 17-25 15-25-2z"/><path d="m4111 13314c-32-56-40-79-32-87s11-8 11 0c0 6 18 41 40 77s40 70 40 76c0 26-19 4-59-66z"/><path d="m4440 13131c0-19-63-82-76-77-9 3-14-2-14-14 0-27 12-25 50 6 37 32 64 80 50 89-6 3-10 2-10-4z"/><path d="m7783 14000c-62-28-210-159-196-173 3-4 36 22 72 56 59 56 133 101 198 121 16 5 23 2 27-11 3-11 4-8 3 7-3 35-30 35-104 0z"/><path d="m7700 13738c-14-5-37-11-53-12-15-1-26-6-25-11 4-12 27-11 100 6 47 10 72 11 128 1 81-14 170-16 170-4 0 11-169 32-242 31-29 0-64-5-78-11z"/><path d="m7620 13563c0-19 37-39 115-62 47-14 85-33 113-57 50-43 95-117 60-99-7 4-4-1 6-9 28-23 38-1 20 43-32 78-98 124-219 156-50 13-64 20-50 25 16 6 14 8-13 12-22 3-32 1-32-9z"/><path d="m7500 13382c0-20 11-85 24-144s27-137 31-173 12-65 18-65c16 0 2 121-27 235-28 109-33 171-13 178 6 3 2 6-10 6-20 1-23-4-23-37z"/><path d="m7380 13190c0-184 18-184 22 0 2 107 0 140-9 140-10 0-13-35-13-140z"/><path d="m6908 13985c-3-3-47-7-99-9-103-5-233-29-255-47-29-24-16-39 34-39 26 0 63-4 82-10 37-11 189 4 222 21 24 12 138 11 138-1 0-5-9-10-20-10s-48-8-81-17c-56-15-60-18-54-41 4-17 2-22-6-16-16 10-74 7-113-6-17-5-50-15-73-20-30-8-43-16-43-28 0-10-13-25-28-34-51-31-112-105-112-137 0-30 31-64 70-76 12-4 26-30 42-77 22-68 26-73 75-101 74-40 165-42 240-4 29 15 59 24 67 21s31 10 54 31c27 24 42 32 45 23 3-7 6-1 6 13 1 14 12 36 26 49 24 23 57 111 70 185 10 63-10 99-114 210-10 11-21 30-25 42-10 30-42 37-132 29-41-4-74-3-74 1s22 18 48 30c26 11 40 22 31 22-9 1-18-1-21-4zm-78-54c0-5-7-12-16-15-24-9-28-7-14 9 14 17 30 20 30 6zm183-87c-21-9-15-22 15-38 62-32 91-114 39-112-21 1-22-2-23-111-1-101-3-114-25-141-29-37-40-38-125-10-65 21-66 22-40 35 37 19 46 43 46 117 0 53-4 70-20 86-58 58-170-18-170-115 0-18-5-25-20-25-11 0-20 5-20 11 0 5-4 7-10 4-15-9-12 2 8 33l17 27-32-23c-18-13-33-30-33-38s-4-14-10-14c-5 0-10 19-11 43-1 36-2 38-9 17l-8-25-1 26c-2 64 42 117 78 94 6-3 11 0 11 8 0 37 82 68 119 45 14-9 24-10 29-3 4 6 19 16 35 22 17 8 27 20 27 33 0 12 4 19 9 16 5-4 7 3 4 13-4 15 1 20 19 23 42 6 113 7 101 2zm-173-54c0-5-12-10-26-10s-23 4-19 10c3 6 15 10 26 10 10 0 19-4 19-10zm329-114c-1-45-1-44-23 34l-16 55 20-24c13-15 20-37 19-65zm-36-61c1-30-2-56-6-57-4-2-9 30-11 71-2 49 0 68 6 57 5-9 10-41 11-71zm-53 46c0-6-4-13-10-16-5-3-10 1-10 9 0 9 5 16 10 16 6 0 10-4 10-9zm-215-22c9-27 1-34-18-14-9 8-20 15-26 15-5 0-13 5-16 10-4 6 6 10 24 10 21 0 32-6 36-21zm-300-31c0-24 6-43 13-46 7-2 10-8 7-13-8-12-55 20-55 38 0 11 28 63 34 63 1 0 1-19 1-42zm526-21c-8-8-11-5-11 9 0 27 14 41 18 19 2-9-1-22-7-28zm-250 3c22-12 25-38 6-64-12-17-18-17-51-6-29 9-36 16-33 33 6 46 35 60 78 37zm249-58c0-9-5-24-10-32-7-11-10-5-10 23 0 23 4 36 10 32 6-3 10-14 10-23zm-377-32c6-23-10-26-35-6-20 14-14 26 13 26 9 0 19-9 22-20zm-96-12c-3-8-6-5-6 6-1 11 2 17 5 13 3-3 4-12 1-19zm196 5c-7-2-21-2-30 0-10 3-4 5 12 5 17 0 24-2 18-5zm-39-68c110-22 126-34 47-35-48 0-62 3-58 13 3 9-3 12-22 9-20-3-36 4-57 23-19 17-22 23-9 16 11-5 56-17 99-26zm286 6c0-12-31-43-37-37s20 46 29 46c5 0 8-4 8-9zm-365-49c-3-3-11 0-18 7-9 10-8 11 6 5 10-3 15-9 12-12zm105-28c0-2-16-4-36-4-19 0-33 4-30 8 5 8 66 4 66-4zm125-4c-28-13-62-18-115-18-75 0-75 0-25 9 28 5 70 13 95 18 74 14 89 11 45-9z"/><path d="m6322 13855c-11-13-25-39-32-57s-20-41-29-51c-13-16-13-29-2-105 14-101 28-122 83-122 30 0 38-4 38-18 0-10 6-26 14-37 7-11 15-46 18-78 4-48 10-64 34-88 35-34 104-52 104-26 0 8-6 17-12 20-22 8-84 120-70 125 10 3 10 7-1 16-8 6-17 23-21 38-5 20-2 28 11 31 17 4 17 5 1 6-21 1-21 2-7 74 7 31 17 57 23 57s5 4-3 9c-10 7-11 13-2 30 7 12 8 21 2 21-5 0-13-9-16-20-6-18-25-29-25-14 0 12 117 127 143 140 46 25 20 33-35 12-33-12-72-38-105-71-51-49-53-50-68-32-30 40-19 58 58 97 93 48 55 51-43 4-74-36-84-33-49 16 15 20 28 28 40 25 23-6 25 8 3 17-25 10-31 7-52-19zm-3-117c0-7-7-29-14-48l-13-35-1 32c-1 17 2 38 5 47 7 19 24 21 23 4zm24-80c-15-15-29-26-31-23-3 2 1 25 8 51l13 46 18-23c17-23 17-25-8-51zm59 30c-7-7-12-8-12-2 0 14 12 26 19 19 2-3-1-11-7-17zm-12-35c0-31-16-46-39-38-27 8-27 20 1 39 29 21 38 20 38-1zm47-40c-3-10-5-4-5 12 0 17 2 24 5 18 2-7 2-21 0-30zm-90-15c25-9 33-17 31-33-4-30-63-34-78-5-11 21-8 50 6 50 4 0 23-5 41-12zm60-95c-3-10-5-4-5 12 0 17 2 24 5 18 2-7 2-21 0-30zm61-166c20-34 20-37 3-28-20 11-31 32-31 58 0 19 0 19 28-30z"/><path d="m4825 12819c-9-14-86-69-97-69-4 0-8 10-8 23 0 18-2 19-10 7-36-56 25-69 88-17 49 40 69 67 48 67-8 0-18-5-21-11z"/><path d="m4918 12725c-34-56-58-59-59-7-1 37-1 37-9 7-12-48-11-62 6-69 23-9 50 9 83 58 27 39 30 56 12 56-3 0-18-20-33-45z"/><path d="m5256 12537c-3-14-22-31-51-45-58-28-65-28-66 6l-1 27-8-29c-16-54 12-60 89-21 47 23 61 40 61 71 0 23-17 16-24-9z"/><path d="m5340 12408-35-41-6 29c-5 23-7 26-13 12-11-25-3-52 17-56 19-4 111 81 100 92-13 12-29 3-63-36z"/><path d="m5402 12279c-2-41 1-47 20-52 23-6 38 2 93 48 44 36 7 33-39-4-45-36-64-31-69 17-3 34-4 33-5-9z"/><path d="m5612 12195c-38-52-52-56-53-17l-1 27-9-30c-10-35 1-50 29-41 24 8 98 106 79 106-6-1-27-21-45-45z"/><path d="m5728 12178c-7-12-20-36-28-52s-19-28-24-27c-5 2-13-3-17-11-26-41 13-37 44 5 24 32 51 97 43 104-2 3-10-6-18-19z"/><path d="m7235 14568c-27-5-107-6-176-3-94 5-149 3-215-9-57-10-191-19-374-23-383-11-380-27 5-31 237-2 303 1 360 14 51 11 108 15 210 13 140-3 292 7 315 21 22 14 0 30-38 29-20-1-59-5-87-11z"/><path d="m6855 14409c-33-5-165-13-293-18-128-4-235-11-238-14-29-29 152-36 386-15 69 6 203 11 299 12 168 1 186 4 182 31-2 9-275 13-336 4z"/><path d="m5900 13963c0-3 11-26 25-50 27-45 69-74 107-72 19 1 18 2-8 10-37 10-78 49-96 90-12 26-28 39-28 22z"/><path d="m5690 13840c0-5 10-10 23-10 31 0 180-51 244-84 57-29 63-30 63-17 0 14-141 80-217 101-81 22-113 25-113 10z"/><path d="m8087 13321c-39-26-40-28-25-50 33-47 77-70 355-182 65-26 116-38 376-84 48-8 161-40 250-69 89-30 214-70 277-90 179-56 252-88 275-123 52-76 128-454 155-775 6-70 18-162 26-205 26-136 53-662 56-1083 3-442-18-536-130-598-53-29-384-112-479-119-63-5-73-4-73 11 0 20-38 22-46 1-5-13-42-15-244-15-209 0-255 3-372 24-73 14-169 29-213 36-180 24-286 43-395 70-158 40-220 48-405 55-88 3-218 15-290 25-100 15-185 20-365 20-129 0-264 5-300 10s-119 12-185 16l-120 6-24-26-24-26h84c80 0 238-14 287-25 22-5 22-8 22-145 0-100-10-217-35-416-25-198-35-316-35-418 0-77-4-148-10-156-8-12-14-12-46 4-46 22-187 46-270 46-47 0-79-7-132-30-39-16-76-30-82-30s-44-14-85-32c-89-38-95-49-95-184 0-84-2-93-20-99-26-8-28-55-2-61 9-3 25-19 35-35 22-40 45-35 73 15l22 39 179-2c165-2 318-21 283-34-8-3-60-20-115-37-80-26-111-31-154-27-49 5-63 13-75 42-6 17-41-11-38-31 2-11 7-41 13-69 30-162 61-750 40-788-12-23-6-103 20-267 15-89 18-953 5-1435-6-238-5-339 5-435 8-76 14-263 15-480 1-195 3-436 4-535l3-180-106-5c-58-3-109-8-112-12-4-4-23-1-42 7-20 8-51 15-70 15-30 0-36-5-50-37-8-21-18-74-20-118-3-44-9-85-14-91s3-21 21-39c28-27 31-28 68-16s135 6 265-17l37-7-107-95c-177-156-258-241-742-773-45-51-136-153-201-227-64-74-173-193-240-265-162-172-276-315-363-455-70-113-189-278-211-292-6-4-68-8-137-8-144 0-175-7-361-85-163-69-479-157-550-153l-51 3-33-61c-30-54-37-83-64-260-17-109-51-282-76-384-31-121-49-221-55-290-4-58-11-121-14-142-11-57 12-62 115-29 47 16 112 41 145 56s85 30 115 34c53 6 55 7 54 36-1 17-9 59-19 95-14 51-16 89-12 185 5 128 23 199 82 315 40 79 39 79 85 68 31-8 54-7 98 6 105 29 186 16 198-31 8-29-27-218-68-372-62-235-71-313-39-330 10-6 22-22 25-36 4-15 12-25 19-22 21 6 86 135 169 332 135 323 183 405 236 405 15 0 64 9 110 21 45 12 84 20 86 18s0-89-6-194c-9-197-29-330-78-524-16-62-26-120-23-128 4-10 14-13 32-9 73 17 101 17 151 1 49-16 208-24 229-11 4 3 11 119 14 258 12 482 64 858 153 1113 7 22 20 75 28 118 14 70 25 93 112 230 115 181 188 279 357 486 70 85 175 222 233 305 171 241 262 359 430 555 87 101 189 231 228 290l71 106 40-3c38-3 39-2 19 12-15 11-20 23-17 41 5 23 2 25-30 25-34 0-57 19-57 48 0 12 97 20 320 27 91 3 206 13 255 22 84 15 98 15 195 0 58-9 137-17 175-17 39 1 84-1 100-2 28-3 30-1 28 27 0 17-8 57-17 90-9 34-16 101-16 156 0 128-5 135-102 131-40-1-138-9-217-17s-237-15-351-15c-200 0-211-1-306-29-54-16-99-29-99-28s2 56 5 122c5 120 5 120 22 89 9-17 33-45 53-63 30-26 44-31 85-31 42 0 55 5 82 31l33 31-35-27c-29-23-41-26-78-22-55 6-89 30-127 92l-30 48-7 431c-3 237-10 555-13 706-5 191-3 327 5 445 8 106 12 327 11 590-1 421-12 656-32 712-5 17-9 56-7 88l3 57 120-138c155-180 218-244 238-244 24 0 21 13-10 41-14 13-23 18-19 12 22-39-22 3-119 113-60 69-131 148-156 177l-46 52-6 195c-4 142-3 187 5 165 6-16 38-79 72-140 44-79 81-130 131-181 69-70 193-150 217-141 7 3 0 10-16 16-52 21-166 104-209 151-50 57-166 248-182 302-6 21-14 36-17 33-5-6-13 40-23 155l-7 65 40-80c45-90 131-181 217-230 28-16 97-60 155-98 74-49 96-60 76-38-16 17-66 54-110 82-45 29-104 67-132 85-74 47-144 121-181 190-36 69-67 169-57 185 3 6 2 14-4 18s-14 25-18 47l-6 40h79c63 0 96 7 172 33 90 32 99 33 217 29 135-3 149-9 184-78 44-87 45-111 43-987-1-773-10-1167-34-1453-5-63-12-257-16-430-5-259-3-350 12-513 17-192 17-260-1-518-7-94 3-129 36-129 11 0 26 12 35 30 21 40 19 47-5 19l-21-24 6 105c16 295 16 351 1 511-18 189-21 562-6 799 5 85 15 238 21 340s15 568 19 1035l7 850 45 215c25 118 43 219 40 224-8 14-16-13-52-186-19-87-35-156-37-155-1 2-7 43-13 93-15 135-35 191-86 243l-44 43 149-7 149-7 16 24c41 62 93 280 120 498 21 172 34 954 16 975-20 24-42 17-82-26-28-31-33-41-22-46 9-3 26-1 40 5l24 12-1-138c0-75-4-281-9-457-7-276-11-340-34-465-25-145-43-217-73-298l-15-44-62 6c-33 3-162 10-286 15s-243 14-265 19c-22 6-122 12-222 12-101 1-195 5-210 9-25 7-28 12-27 47 1 21 2 66 3 99l1 60 60 28c33 15 65 27 70 27 6 0 51 17 101 37l90 37 119-17c71-10 136-25 160-37 56-28 88-26 101 6 5 15 12 106 15 203s15 262 27 366c16 136 22 248 22 394v203l270-5c186-4 295-10 350-21 44-9 150-18 235-21 189-7 285-19 410-52 119-30 206-47 390-72 80-12 191-30 248-41 86-17 143-20 356-20h254l7-37c3-21 9-207 13-413 6-322 9-379 23-401 19-28 116-55 258-70 47-4 127-18 176-29 50-11 124-20 165-20 122 0 122-1 116-79-16-173-30-302-36-311-4-7-92-12-231-15-315-7-491-20-576-44-101-29-144-27-213 10-80 43-95 59-119 131-29 89-38 187-56 573-8 187-22 385-31 440s-19 133-23 173c-3 40-10 73-16 75-17 4-17-85 0-205 9-62 22-287 30-503 16-415 22-486 55-580 24-69 46-96 116-135l51-30 47-162c44-150 72-240 109-343 16-45 32-259 18-235-13 21-227 654-242 713-14 57-34 64-25 8 10-65 214-669 246-730 28-54 30-66 45-281 8-124 20-261 25-305s11-120 15-170c3-49 10-124 15-165s16-169 25-285c8-115 22-273 30-350 9-77 33-304 55-505 21-201 44-435 50-520 14-212 27-337 55-525 13-88 26-186 30-217l6-58-97 7c-86 5-98 4-110-12-11-14-10-25 7-67 11-27 23-73 27-101 5-36 12-52 22-52 17 0 20 70 6 144l-8 44 58-7c33-4 84-14 115-22 39-9 113-14 231-14 124 0 178-4 186-12 10-10 17-10 32 0 14 8 73 12 188 12h169l7-181c4-100 10-194 13-210 5-27 4-29-27-29-18 0-82 23-143 51s-152 62-201 75c-50 14-120 34-156 44-36 11-121 28-190 40-69 11-149 25-179 30-30 6-85 10-123 10-54 0-68-3-68-15 0-11 13-15 54-15 30 0 83-6 118-14s80-17 102-21l39-6-7-152c-3-84-9-218-12-299-6-126-4-151 10-172 14-22 17-96 26-573 10-512 16-683 40-1023 11-154 13-486 4-543-6-32-13-40-48-56-58-26-114-86-219-236-104-149-237-326-326-435-76-92-77-115-11-146 27-13 76-54 121-103 42-44 82-81 88-81 21 0 24 31 7 66-9 19-16 45-16 57 0 35 59 215 91 279 28 55 144 197 252 306l52 54 3-48c2-27-2-78-9-114-12-65-28-565-19-580 9-13 128-62 138-56 5 3 12 67 15 143 6 157 25 255 68 369 60 154 69 184 69 214 0 34 19 40 46 13 10-10 41-49 70-88 29-38 88-114 132-167 78-96 80-99 86-165 10-97 51-262 70-281 14-15 18-14 43 4 16 12 46 27 68 34s60 26 85 41c57 35 115 48 211 49 119 0 124 19 43 165-145 263-215 433-304 737-28 97-76 244-106 325-95 256-233 819-275 1122-11 80-40 232-64 336-24 105-51 231-60 280-9 50-27 137-40 195s-28 168-34 245-16 157-22 178c-6 22-9 41-7 43 7 6 185-44 239-67 27-12 47-24 43-28-3-3-36-8-72-11-92-7-92-22-2-125 110-126 163-199 221-308 30-56 79-139 110-186 30-48 63-99 73-115 37-59 222-283 306-371 47-49 139-157 205-240 140-177 209-251 326-351 48-40 120-115 160-166s99-125 130-165c32-40 60-87 64-105s18-71 31-117c18-63 24-108 24-186 0-100-22-222-48-272-7-12-29-65-49-120l-38-98 1-345 1-345 29 3c16 2 67 5 113 7 115 5 114 4 106 67-5 41-2 65 14 106 18 44 21 75 21 185 0 73 4 159 10 192 10 66 63 219 85 248 8 11 45 26 91 38 99 25 116 18 168-63 22-33 56-73 75-89 20-15 61-48 91-72 71-56 163-162 281-326 106-147 109-149 239-160 47-4 92-11 100-14 8-4 21-3 29 2 23 15 4 59-48 115-58 61-135 182-184 289-41 88-150 218-333 397l-107 105 34 7c136 32 440 48 496 27 37-13 225-199 272-269 21-30 61-96 90-147s72-119 97-153c40-55 47-60 81-60 21 0 74 9 118 18 74 17 80 20 83 44 4 32-13 66-89 180-31 48-72 125-89 170-17 46-53 119-79 163-25 44-55 101-64 127-20 52-82 114-124 124-16 4-48 26-73 49-77 73-99 80-228 77-107-2-120 0-225 34-96 31-129 37-233 41-67 3-159 0-205-6l-83-11-69 67c-38 38-100 111-140 163-39 52-111 149-161 215-178 238-343 432-475 560-380 367-452 445-884 963l-128 152h55c45 0 56-3 61-19 8-28 34-34 62-16 32 21 27 55-12 75-16 8-32 16-34 18-3 1-9 102-15 225l-11 222-190 3c-104 1-193 6-196 10-7 7-12 50-39 314-6 57-22 171-36 253-43 260-54 359-80 780-25 407-25 418-22 1590 3 1106 2 1182-14 1219-10 21-18 40-18 42s56 4 124 4h124l25 29c20 24 25 44 31 122 4 52 11 139 16 194 5 61 5 106-1 117-13 23-70 38-154 38-38 0-110 9-159 20s-128 24-175 30c-108 13-219 39-229 54-4 6-10 180-14 386-3 206-8 386-10 400-3 24-1 25 77 32 87 7 378 76 462 109 55 22 109 73 139 130 9 18 25 87 35 153 15 102 17 163 13 391-8 453-35 946-59 1071-8 43-22 151-31 239-21 226-58 443-99 584-39 138-64 191-97 213-37 24-162 72-283 108-60 17-185 56-277 86-121 39-206 59-310 74-174 25-251 44-343 82-38 16-105 43-148 59-99 37-127 52-151 78-21 24-17 31 29 55 17 9 23 16 15 15-8 0-27-8-43-18zm-2317-4691c0-5-4-10-10-10-5 0-10 5-10 10 0 6 5 10 10 10 6 0 10-4 10-10zm80-19c-16-32-30-34-30-7 0 19 5 26 20 26 17 0 19-3 10-19zm3387-157c-3-3-12-4-19-1-8 3-5 6 6 6 11 1 17-2 13-5zm-64-11c-7-2-21-2-30 0-10 3-4 5 12 5 17 0 24-2 18-5zm360-11c37-41 38-99 32-1272-6-993-5-1180 9-1405 38-605 38-611 87-910 16-99 36-249 44-335 8-85 18-176 21-202l6-48h-164c-89 0-180 5-200 11-38 10-38 10-38 62 0 29-7 97-15 152-23 166-44 380-55 565-9 150-40 477-105 1110-8 80-20 215-25 300-6 85-17 225-25 310-24 255-43 485-55 660-19 284-28 455-25 458 2 2 28-33 60-78l57-81-12-51c-28-117-5-185 166-486 88-155 139-215 177-210 18 2 22 10 24 43 1 35 1 36-5 10-18-76-69-25-194 196-147 261-152 273-156 367-6 128 0 129 73 19 71-106 127-167 153-167 11 0 5 9-19 30-44 35-307 419-326 474-16 46-3 91 29 102 11 3 17 8 14 11s-16-1-30-10l-24-16-6 107c-3 59-9 132-14 163l-8 57 46 6c25 4 95 13 155 21 61 8 135 23 165 34 73 26 161 27 183 3zm-597-85c7-27 15-119 18-205l6-157-21 65c-11 36-38 126-61 200-22 74-43 140-45 145-2 7 13 9 44 5 46-5 47-5 59-53zm-1826-4009c0-61 14-174 26-225l7-25-119 6c-66 3-160 8-210 12-61 4-103 2-130-7-21-6-122-15-224-20-102-4-223-10-270-14-59-5-122-3-205 9-66 8-158 19-204 22l-83 7 6 74c12 125 28 143 97 107 24-12 37-13 61-5 17 6 68 11 113 11 66 0 105 7 196 35 112 34 117 35 294 35 99 0 232 5 295 11s151 14 195 18c44 5 97 9 118 10l37 1zm-1020-345c0-9 9-27 21-39l20-22-34-48c-18-27-50-76-70-109-19-33-108-146-197-250-164-193-295-363-452-586-48-68-153-204-233-303-162-199-234-298-355-495-70-112-85-145-96-205-8-39-20-91-28-116-49-152-78-270-96-380-27-176-59-545-67-780l-6-200h-59c-33 0-84 9-119 21-40 14-75 20-100 16-22-3-39-3-39 0 0 2 9 40 20 84 54 211 79 423 80 687v62h-46c-26 0-78-9-115-20-50-15-74-18-88-11-16 9-26 3-63-37-54-59-107-160-193-372-89-218-119-276-146-283-21-6-22-4-15 56 3 34 17 102 31 152 33 123 85 387 85 436 0 44-23 74-65 85-25 6-116 1-202-12-46-7-49-4-32 29 11 21 11 21-7 5-12-11-28-15-42-11-32 8-55-16-101-111-66-136-86-220-84-366 1-83 6-142 17-175 8-27 14-50 13-51-1 0-24-7-52-13-27-7-81-26-120-43-38-17-96-39-129-49l-58-18 6 22c4 12 10 69 15 127s20 148 34 200c42 152 65 265 97 475 24 159 35 204 56 240 25 44 27 45 76 45 88 0 421 96 577 167 124 57 200 73 339 73 123 0 124 0 150 29 44 46 121 155 194 272 104 169 178 262 383 484 66 72 189 209 272 305s219 249 303 340 203 224 265 295c62 72 130 146 151 166 112 102 147 130 160 125 8-3 14-1 14 4 0 6-5 10-12 10-17 0 30 47 81 81 51 33 61 35 61 12zm3441-69c56-10 71-56 89-274 6-74 22-182 35-240 14-58 34-154 46-215 11-60 38-184 59-275 22-91 46-219 55-285 42-306 183-873 284-1145 32-85 82-236 111-335 90-311 147-450 308-746l42-76-88-6c-94-7-144-21-207-58-22-13-61-31-87-40l-48-16-9 36c-13 48-38 175-46 233-5 40-20 64-103 166-53 65-119 148-147 183-61 77-92 97-132 83-24-8-29-17-35-60-4-28-28-103-53-166-25-64-52-148-60-187-13-64-35-254-35-309 0-22-1-22-29-8l-29 15 5 203c3 112 11 248 19 302 19 134 19 290 0 305-12 10-18 8-33-10-10-12-43-47-73-78-31-31-67-72-82-91-14-19-53-65-87-102s-78-93-97-125c-35-59-104-257-104-300 0-12-3-23-6-23-4 0-27 18-51 41-24 22-57 46-73 53l-30 12 61 75c92 111 194 248 303 404 122 174 175 230 237 250l47 16 7 117c8 128 2 328-20 637-16 213-31 599-44 1120-8 315-8 320 13 345 11 14 14 19 6 13-8-7-18-13-24-13-10 0-1 554 9 571 7 10 44 11 96 3zm594-292c375-466 509-618 790-897 156-154 323-329 372-390 109-135 288-371 368-485 33-46 106-131 162-188 98-100 103-104 135-98 18 4 101 10 183 12l150 6 120-39c113-36 128-38 245-38 142 0 153-4 226-82 22-23 50-43 61-43 35 0 72-39 111-118 21-42 58-115 83-163 24-47 55-111 68-144 14-32 53-101 88-153 35-51 63-98 63-102 0-9-87-30-126-30-20 0-35 16-82 90-31 50-79 129-107 177-60 104-255 315-320 344-70 32-303 25-554-18-96-17-82-62 63-206 178-176 274-291 314-377 47-102 130-237 169-276 38-38 30-48-30-39-97 14-90 9-199 158-115 158-233 288-321 352-53 39-147 145-147 166 0 18-82 51-114 46-175-30-190-41-237-161-45-117-58-191-65-371-4-90-13-177-20-199-8-21-14-56-14-77v-39h-69-69l-7 153c-4 84-5 222-3 307 4 151 6 158 43 255 21 55 44 109 51 121 24 36 37 116 41 261 4 133 3 148-26 252-34 129-35 131-164 294-108 139-147 181-294 315-61 55-155 159-236 260-75 92-177 212-229 267-200 212-348 415-473 645-67 123-129 212-202 292-29 32-53 62-53 67 0 7 85 27 130 29 8 1 65-60 125-136z"/><path d="m9087 8293c-26-25 13-208 74-350 48-112 123-192 194-209 27-6 25-3-16 23-59 39-100 90-143 177-45 93-96 256-96 306 0 38 1 40 33 41 27 0 29 2 12 9-25 11-50 12-58 3z"/><path d="m9095 7250c-21-42-19-126 6-180 15-31 21-68 23-120 1-69 5-85 53-182 54-111 150-278 181-314 24-28 67-55 75-47 11 10 8 25-3 18-19-12-74 61-160 211-105 185-132 250-128 311l3 47 61-85c90-123 139-171 172-167 22 2 27 9 29 33 2 27 2 28-7 8-21-50-54-24-177 141-42 56-72 105-69 113s1 11-4 8-19 9-30 27c-22 37-28 154-10 189 6 10 8 19 6 19-3 0-12-13-21-30z"/><path d="m9153 6494c3-53 10-74 51-145 151-261 276-416 276-341 0 18-35 82-45 82-4 0 1-10 9-22 9-12 16-29 16-37 0-27-50 31-125 144-120 182-158 254-172 319l-12 61z"/><path d="m9185 6209c-13-25-16-49-13-100 4-56 15-88 65-191 50-102 58-128 51-148-5-14-8-55-6-92 3-56 11-82 51-160 59-115 138-232 160-236 14-3 17 4 16 40l-2 43-6-35-7-35-56 85c-30 47-74 122-97 168-36 73-42 91-42 153-1 39 1 72 3 74s27-31 56-75c51-77 110-128 133-114 7 4 0 12-19 20-37 15-81 74-163 218-93 162-120 234-120 312 0 36 5 72 12 80 6 8 9 17 6 20s-13-9-22-27z"/><path d="m9290 5455c-7-99 10-152 91-280l45-70-18-35c-11-21-18-57-18-92 0-49 7-71 48-150 58-114 136-218 163-218 28 0 24 38-11 93-38 60-46 61-14 2 43-76 25-88-27-20-97 128-149 234-149 305 0 40 17 100 29 100 4 0 29-30 55-66 96-130 146-166 146-105 0 18-16 50-43 88-46 61-75 86-117 96-18 4-40 31-77 89-78 126-86 147-93 228-5 54-8 64-10 35zm239-401c39-35 96-132 85-143-7-7-77 70-124 136-40 55-18 59 39 7z"/><path d="m9334 4814c-7-38 2-125 22-223 6-28 117-147 156-167 42-22 58-9 57 45l-2 46-6-39c-5-36-31-65-31-35 0 7-3 9-7 5-4-3-29 17-56 45-52 55-114 170-101 190 4 7 3 9-4 5-14-8-27 90-17 133 4 17 4 31 1 31s-8-16-12-36z"/><path d="m7056 13189c-3-17-6-70-6-116 0-63 3-84 13-80 9 3 11 31 9 106l-2 101h27c31 0 28 5-8 13-24 6-27 3-33-24z"/><path d="m6911 13177c-12-30-42-239-36-246 14-13 26 24 35 105 14 126 19 144 38 144 15 0 15 2 2 10-22 15-30 12-39-13z"/><path d="m4622 12296c-16-18-51-64-77-102-27-38-52-73-56-77-4-5-23 25-43 67s-42 76-48 76c-13 0-9-13 32-110l32-76-67-109c-36-61-71-111-76-113-15-6-10-32 6-32 8 0 44 45 80 100s68 100 69 100c2 0 19-61 37-135 20-82 38-135 45-135s14-12 16-27c2-23 11-31 43-41 50-17 166-3 204 26 60 44 88 143 59 206-10 24-79 66-107 66-6 0-25 7-41 15-37 19-39 48-6 96 47 69 184 134 207 98 7-11 9-9 9 7s-8 23-29 27c-90 18-235-88-248-181-7-51 15-74 93-97 81-23 94-37 94-98 0-44-4-54-38-87-31-32-47-39-93-45-32-4-72-2-96 4-41 11-42 13-53 69-6 31-25 106-42 165l-31 108 49 71c27 39 71 93 98 119 31 31 46 54 42 64-9 24-32 18-64-19z"/><path d="m6927 8553c-3-4-13-62-22-128-17-126-34-227-90-515-40-206-52-305-37-314 6-3 14 26 21 77 7 45 25 150 41 232 45 230 78 429 90 544 10 96 10 125-3 104z"/><path d="m6130 8401c0-21 6-43 13-49 10-8 12-2 9 31-3 40-2 39 31-36 39-87 86-163 119-195 33-30 91-52 135-51 38 0 37 0-15 14-28 8-63 22-76 30-41 27-91 100-137 199-31 67-49 96-61 96-14 0-18-8-18-39z"/><path d="m6117 7413c-4-3-7-21-7-39 0-23 12-48 42-86 62-78 269-288 301-305 31-15 54-8 25 8-75 42-343 324-353 371-4 17-2 35 5 43 12 15 0 22-13 8z"/><path d="m6130 7119c-19-34-2-70 72-159 39-47 101-128 138-180 74-103 120-153 120-129-1 16-25 51-31 45-2-3-32 35-66 82-34 48-98 131-142 184-67 80-81 102-81 131 0 20 6 38 13 40 9 4 9 6 0 6-7 1-17-8-23-20z"/><path d="m6167 6883c-4-3-7-29-7-57 0-42 6-61 35-103 75-111 250-273 296-273 26 0 24 12-8 41-25 22-26 22-9 2 33-39 0-25-61 25-81 68-186 182-218 236-21 36-26 56-23 91 2 25 3 45 2 45 0 0-4-3-7-7z"/><path d="m6152 6572c-2-86 8-109 106-252 85-124 137-187 185-221 51-37 79-25 40 18-10 10-14 13-9 6 5-8 6-17 2-21-13-12-138 128-212 238-96 141-97 144-104 230l-7 75z"/><path d="m6100 6341c0-29 12-56 48-112 92-141 293-389 314-389 16 0 8 29-14 52-13 13-17 16-9 6s12-21 9-24-28 23-54 58c-27 35-80 101-117 148-137 171-190 269-156 291 11 7 11 9-3 9s-18-8-18-39z"/><path d="m6132 6068c-24-24-13-89 28-164 23-43 36-75 30-79-6-3-10-29-10-56 0-97 175-434 273-526 26-25 51-43 54-39 3 3-9 17-26 32-81 68-281 434-289 529-2 29 0 55 6 59 5 3 22-13 37-37 76-115 171-217 201-217 17 0 18 26 2 36-7 4-8 3-4-4 12-19-7-13-35 11-33 28-91 100-166 207-98 139-119 192-93 241 12 22 9 24-8 7z"/><path d="m6158 5370c-12-41-9-77 11-130l19-50h-24c-59 0-72-125-24-220 72-141 247-345 291-338 12 2 24 8 26 14 2 7-5 10-20 7-30-6-100 62-189 182-93 123-118 180-118 265 0 55 3 72 16 77 31 12 63-18 147-139 98-140 139-188 161-188 26 0 19 38-16 88-18 26-76 92-129 147s-105 116-115 135c-11 20-21 65-24 105-4 52-7 63-12 45zm257-424c20-30 35-60 33-66-4-12-136 153-172 215-27 45 95-86 139-149z"/><path d="m6436 4687c3-10 9-15 12-12s0 11-7 18c-10 9-11 8-5-6z"/><path d="m6932 4015c-23-7-54-20-67-29-25-16-25-17-25-187 0-94-4-168-9-165-15 10-21-205-9-319 8-74 12-383 13-935 1-603 5-834 13-860 14-41 16-112 3-126-5-5-26-40-47-79-48-90-99-166-194-290-100-130-127-171-189-283-53-95-60-119-39-140 9-9 9-23-1-63-14-53-7-75 20-64 8 3 31 38 52 79 43 84 58 100 163 169 61 41 93 73 153 150 43 56 98 115 127 135 29 21 89 71 134 112s85 76 89 78c11 4 49-129 62-218 15-99 57-325 70-372 14-53 38-56 94-14 53 41 152 74 238 79 32 2 62 8 68 14s-1 33-21 76c-30 63-53 159-79 330-7 43-23 110-37 149-13 39-24 81-24 92 0 18 2 18 14 6 8-8 51-67 96-130 153-213 307-394 412-481l58-48 70 6c75 6 106-2 225-59 91-44 105-26 60 77-33 74-85 149-178 256-41 47-102 126-137 175-34 49-85 118-113 153-27 35-64 94-82 130-22 44-49 79-77 102-85 69-255 186-350 242-54 32-102 65-107 75-5 9-12 46-16 82-3 36-22 184-41 330-31 245-46 387-89 815-19 195-42 313-95 481-32 101-40 144-40 204 0 75-23 250-35 270-9 14-81 11-133-5zm105-120c6-44 12-115 12-158 1-62 10-106 45-220 54-174 79-322 106-627 12-129 39-377 61-550s45-358 51-410c5-52 16-106 23-120 8-15 50-47 100-75 82-48 254-164 357-242 38-29 58-55 83-108 19-38 49-88 67-110 19-22 73-94 120-160 48-66 125-165 172-220 71-82 159-215 143-215-2 0-35 14-73 32-58 26-82 32-147 32-74 1-79 3-122 38-25 20-82 76-126 125-71 78-126 148-335 428-29 39-66 83-83 99-25 24-33 27-46 16-20-17-12-93 26-230 16-58 36-151 44-208 19-130 30-179 54-242l19-50h-30c-50 0-150-30-206-61-37-21-54-26-57-17-5 17-51 272-65 368-20 130-71 260-101 260-5 0-51-39-101-86-51-48-123-108-160-135-44-33-91-81-138-144-58-76-87-104-153-148-45-30-97-70-114-91-18-20-35-36-38-36-8 0 72 145 119 215 22 33 74 105 117 160 89 117 151 211 204 313 36 70 37 75 31 145-3 39-10 99-15 132s-10 368-10 745c-1 377-6 756-11 843-9 139-8 164 6 205 13 37 18 102 23 302l6 255 50 17c76 25 78 24 92-67z"/></g></svg>