<svg version="1" xmlns="http://www.w3.org/2000/svg" width="154.667" height="150.667" viewBox="0 0 116.000000 113.000000"><path d="M21.5 2c1.1.5 1.4.9.7.9-.7.1-1 .5-.7 1.1.3.5.1 1-.5 1s-1.3-.7-1.6-1.5C18.3.9 10.6 1.6 6.1 4.7 1.9 7.6 1 10 3.4 11.9c2.3 1.9 3.7 13.3 2.2 17.7-.6 1.7-.3 2.2 1.6 2.7 2.1.6 2.2.5.5-.8-1.5-1.1-1.6-1.7-.8-3.4C7.5 27 8 25.3 8 24.2c0-2.9 2.4-4.6 4-2.7.7.8 1.8 1.5 2.6 1.5.7 0 1.8.9 2.4 2 .6 1.1 1.9 2 2.8 2 1 0 2.3.5 3 1.2.9.9 1.2.9 1.2 0 0-.7.7-1.2 1.5-1.2s1.5.6 1.5 1.4c0 1.8-2.7 3.9-4.3 3.3-.7-.2-1.8.6-2.4 1.9-.6 1.3-.7 2.4-.2 2.4.5 0 .9-.6 1-1.3 0-.6.5.3 1 2 .5 1.8 1.4 3.3 1.9 3.3.6 0 1 .7 1 1.5 0 1.7 1.8 1.9 4 .4 1.2-.8 1-.9-.8-.4-1.9.5-2.3.2-2.9-2.5-.3-1.9-.9-2.7-1.3-2-.5.7-.9.2-1.2-1.4-.4-1.8-.1-2.6.8-2.6.8 0 1.4.4 1.4 1 0 .5.8.2 1.9-.9 2.5-2.5 1.7-6.5-1.7-8.1-1.8-.8-2.2-1.4-1.3-1.8.7-.2 1.6 0 2 .6.5.8 1.4.7 3-.1 3.8-1.9 4.7-4.2 3.4-7.8l-1.2-3.2 2.6 2.4 2.7 2.4-1.6-2.5c-.8-1.4-2.9-3-4.7-3.6-1.7-.5-3.7-1.6-4.4-2.3-1-1.1-.9-1.3.6-.7 1 .3 2.5.6 3.3.6.8 0 2.3.9 3.5 2.1 2.4 2.4 3.4 1.9 2.5-1.4-.3-1.4-2.4-3.6-4.8-5.1-2.7-1.7-3.4-1.9-1.9-.7 1.7 1.6 1.9 2.1.8 2.1-.9 0-1.9-.5-2.2-1-.3-.6-1.2-1-1.8-1-2.2.1 2.6 3 4.9 3 1.2 0 2.8.8 3.5 1.7 1.2 1.5 1.2 1.6-.6.9-1.1-.4-3.3-1.3-5-1.9-3.5-1.2-4.5-2.4-4-4.9.3-1.4-.2-1.8-2.3-1.7-2.4 0-2.5.1-.7.9zM12 5c-.6 1.1-.8 2.6-.4 3.3.4.6-.1.5-1-.4C8.7 6.2 9.4 3 11.6 3c1.2 0 1.2.4.4 2zm6-1.6c0 .2-.7.6-1.5 1-.8.3-1.5.1-1.5-.4 0-.6.7-1 1.5-1s1.5.2 1.5.4zm4.8 4.5c1.1 1.4.8 1.7-3 2.3-2.4.4-4.8 1.5-5.5 2.4-.8 1.1-2 1.4-3.7 1-3.7-.9-3.4-3.6.4-3.6 2.1 0 3.5-.8 4.6-2.5 1.8-2.8 4.8-2.7 7.2.4zM8 7.6c0 .8-.5 1.2-1 .9-.6-.4-.8-1.1-.5-1.6.9-1.4 1.5-1.1 1.5.7zm7-.6c0 .5-.2 1-.4 1-.3 0-.8-.5-1.1-1-.3-.6-.1-1 .4-1 .6 0 1.1.4 1.1 1zm-8.4 3.8c-.9.9-3.7-.8-3.1-1.8.5-.8 1.1-.7 2.1.1.8.6 1.2 1.4 1 1.7zm18.6 4.7c1.6 3.3 1.9 4.8 1.1 5.6-1.5 1.5-2.9.5-5.8-4.2-3.1-4.9-3.1-5.9 0-5.9 2 0 3 .9 4.7 4.5zm6.5 1.2c.7 1.8-1.3 6.3-2.7 6.3-.7 0-.7-.6 0-2 1.4-2.6.3-7-1.2-4.9-.8 1.2-.9 1.1-.5-.1.2-.8-.3-2.4-1.2-3.4-1.3-1.6-1-1.6 1.7.3 1.9 1.3 3.6 3 3.9 3.8zm-12.7.2c0 .8.7 2.3 1.7 3.3 1.5 1.7 1.5 1.8 0 1.8-1 0-1.7.7-1.7 1.5s.5 1.5 1.1 1.5c.5 0 .7-.5.4-1-.3-.6-.1-1 .4-1 .6 0 1.1.7 1.1 1.5 0 2.2-3.8 1.8-4.5-.5-.3-1.1-.3-2.5 0-3 .8-1.3-1.4-4.2-2.6-3.4-.5.3-.9 1.3-.9 2.2 0 1.5.2 1.5 1 .2s1-1.2 1 .3c0 3-3.5 1.6-3.8-1.6-.3-2.5-1.3-3.1-4.9-3-.7.1-1.3-.3-1.3-.8 0-1.1 1.2-1.1 4.3 0 1.9.8 2.9.6 4.3-.8 1.7-1.6 2-1.6 3.1-.2.7.9 1.3 2.2 1.3 3zM10 18c0 .5-.7 1-1.5 1S7 18.5 7 18c0-.6.7-1 1.5-1s1.5.4 1.5 1z"/><path d="M36.8 15.7c1.6 2.9 1.5 3.4-.5 2.6-1.1-.4-1.4-.3-.9.5 1 1.6-2.2 8-4.6 9.3-1 .5-1.6 1.5-1.2 2 .8 1.4 2.9.6 2.9-1.2.1-.8.6-1.3 1.2-1.2 2 .4 5.3-4.8 5.3-8.2 0-1.8-.7-3.9-1.7-4.6-1.5-1.3-1.5-1.2-.5.8zm.1 8.4c-1.3 2.6-2 2.1-1.2-.9.3-1.2.9-1.9 1.4-1.6.5.3.4 1.4-.2 2.5zM53.4 17.5c-1.7 1.3-1.7 1.4-.1 1.5.9 0 1.7-.4 1.7-.9s.8-1.2 1.8-1.4c1.3-.4 1.4-.5.1-.6-.8 0-2.4.6-3.5 1.4zM71.8 16.7c1.2.2 3 .2 4 0 .9-.3-.1-.5-2.3-.4-2.2 0-3 .2-1.7.4zM81.3 17.7c.9.2 2.3.2 3 0 .6-.3-.1-.5-1.8-.5-1.6 0-2.2.2-1.2.5zM88.3 17.7c1.5.2 3.9.2 5.5 0 1.5-.2.2-.4-2.8-.4s-4.3.2-2.7.4zM104.9 19.8c-.3.8-2 1.7-3.9 2.2-2.5.6-2.8.8-1.2.9 1.6.1 2.1.5 1.5 1.3-.4.7-.7 2.2-.8 3.3 0 1.2-1.3 2.6-3.5 3.7-2.8 1.3-3.1 1.6-1.2 1.5 2.9-.2 7.9-5.7 6.2-6.7-.8-.5-.2-1.4 1.6-2.7 1.5-1.1 2.5-2.6 2.2-3.4-.4-1.1-.6-1.1-.9-.1zM58.1 20.7c-.1.6-1.3 1.6-2.8 2.2-2.4.8-2.1.9 1.7.4l4.5-.6-1.9 2.1c-1 1.2-4 2.5-7 3.1l-5.1 1 4.4-.2c3.6-.1 4.6.2 5.2 1.8.4 1.1.8 1.4.8.7.1-1.5 2.7-1.6 3.7-.1.3.6.1 1.5-.6 1.9-.7.4-.1.7 1.6.7 1.6 0 2.3-.2 1.7-.4-2.7-1-1.1-3.1 3.2-4.2 2.5-.6 4.5-1.5 4.5-1.9 0-.5.9-1.8 2-3l2-2.1-3.3-.6c-1.7-.3-5.6-.4-8.4-.2-3 .1-5.5-.2-5.7-.8-.3-.6-.5-.5-.5.2zm14.6 2.7c.4.3-.2 1.5-1.3 2.6-1.4 1.4-3.9 2.2-8.4 2.6l-6.5.5 2.8-2.1c1.5-1.2 2.7-2.7 2.7-3.3 0-1.3 9.5-1.6 10.7-.3zM79.8 21.7c.6.2 1.8.2 2.5 0 .6-.3.1-.5-1.3-.5-1.4 0-1.9.2-1.2.5zM85.8 21.7c.7.3 1.6.2 1.9-.1.4-.3-.2-.6-1.3-.5-1.1 0-1.4.3-.6.6zM89.8 23.7c.5 2.1.7 2.3 1 .9.2-1 0-2.2-.6-2.8-.6-.6-.7 0-.4 1.9zM10.6 25.5c-.4 1.1.2 1.5 1.9 1.5 3 0 3.2-.6.6-1.9-1.4-.8-2-.7-2.5.4zM47.8 24.7c.6.2 1.8.2 2.5 0 .6-.3.1-.5-1.3-.5-1.4 0-1.9.2-1.2.5zM42.3 28.7c-.3 1-.8 2.2-1.1 2.7-.3.5 0 .6.5.3 1.1-.7 2.5-4.7 1.7-4.7-.3 0-.7.8-1.1 1.7zM88 28c-1.2.8-1 1 .8 1 1.3 0 2-.4 1.7-1-.7-1.2-.6-1.2-2.5 0z"/><path d="M93.5 28c-1.3.6-1.5.9-.5.9.8 0 2.2-.4 3-.9 1.8-1.2.2-1.2-2.5 0zM79.3 32.5c-.3.9-.3 1.8-.1 2.1.3.3.8-.4 1.1-1.6.6-2.3-.1-2.7-1-.5zM68.8 32.7c.7.3 1.6.2 1.9-.1.4-.3-.2-.6-1.3-.5-1.1 0-1.4.3-.6.6zM72.8 32.7c.6.2 1.8.2 2.5 0 .6-.3.1-.5-1.3-.5-1.4 0-1.9.2-1.2.5zM46 34c-.9.6-1 1-.3 1 .6 0 1.5-.5 1.8-1 .8-1.2.4-1.2-1.5 0zM50.7 35.6c-.3 1.8-.1 2.2.6 1.5 1.6-1.6 3.7-1.4 3.7.3 0 2-.9 2.4-6.1 3.1-4.3.6-4.4.6-1.9-1 1.5-1 1.8-1.4.7-1.1-1 .3-3.5.7-5.5.7-3.5.1-3.6.2-.8.8 2.4.5 2.7.8 1.5 1.7-.8.7-2.3 1.4-3.4 1.8-1.1.3-.6.4 1 .2 1.7-.2 4-.7 5.3-1.1 1.6-.5 2.2-.3 2.2.7 0 .8-1 2-2.2 2.6-1.9.9-1.4 1.1 3.2 1 3-.1 4.3-.3 2.8-.5-1.9-.3-2.8-1-2.8-2.3 0-2.6 1.2-3.1 9.3-4 5-.5 5.9-.8 3.1-.9-2.8-.1-4.4-.6-4.8-1.7-.8-2.2-.8-2.2 1.2-2.8.9-.2-.1-.2-2.3 0-3 .4-3.6.3-2.5-.5 1.3-.9 1.3-1.1-.1-1.1-1 0-1.9 1.1-2.2 2.6zM82.8 33.7c.7.3 1.6.2 1.9-.1.4-.3-.2-.6-1.3-.5-1.1 0-1.4.3-.6.6zM89.8 33.7c.7.3 1.6.2 1.9-.1.4-.3-.2-.6-1.3-.5-1.1 0-1.4.3-.6.6zM77.5 36.9c-.6 1.1 1.3 2.6 2.2 1.7.4-.3.1-.6-.6-.6s-.9-.5-.6-1c.3-.6.4-1 .1-1-.3 0-.7.4-1.1.9zM7.1 38.6c0 1.1.3 1.4.6.6.3-.7.2-1.6-.1-1.9-.3-.4-.6.2-.5 1.3zM91.6 37.9c-1.2.5-1.5 1-.9 1.4.6.4 1.6 0 2.3-.8 1.4-1.7 1.3-1.7-1.4-.6zM72.8 38.7c.6.2 1.8.2 2.5 0 .6-.3.1-.5-1.3-.5-1.4 0-1.9.2-1.2.5zM11 40c-1.3.8-1.2 1 .3 1 .9 0 1.7.6 1.7 1.2 0 .9.3.8.9-.2 1.7-2.5-.1-3.8-2.9-2zM67.9 39.7c1.8.4 2.2 1 1.9 2.8-.4 1.8 0 2.5 1.6 2.9 3.2.9 4.4.6 1.9-.4-1.6-.6-2.3-1.8-2.3-3.5 0-2.1-.4-2.5-2.7-2.4-2.6.2-2.6.2-.4.6zM83.3 39.7c.9.2 2.3.2 3 0 .6-.3-.1-.5-1.8-.5-1.6 0-2.2.2-1.2.5zM89.9 42.7c-1.3 1.6-1.2 1.7.4.4.9-.7 1.7-1.5 1.7-1.7 0-.8-.8-.3-2.1 1.3zM13.1 45.6c0 1.1.3 1.4.6.6.3-.7.2-1.6-.1-1.9-.3-.4-.6.2-.5 1.3zM60 45.9c-4.4.6-4.4.7-1.2 1.2 2 .3 4 0 5-.7.9-.8 1.5-1.3 1.2-1.2-.3 0-2.5.4-5 .7zM79 47.5c0 1.3-.8 2.9-1.7 3.5-1.2.8-1.3 1-.3.7.8-.2 2-1.4 2.7-2.7.6-1.2 1.7-2.7 2.5-3.1.9-.6.7-.9-.9-.9-1.8 0-2.3.6-2.3 2.5zM31 48.9c.7 1.3 1 4.2.8 6.6-.2 3.2 0 4.2 1.2 4.1.9-.1 1.6 1 1.8 2.7.2 1.5.7 2.5 1.1 2.2 1-.5 6.8 2.2 7.6 3.6.8 1.2 2.5 1.2 2.5 0 0-.5-1.8-1.6-4-2.5-4.8-1.9-5.2-3-.7-2.2l3.2.6-3.1-1.3c-4.2-1.7-8.4-5.2-8.4-7 0-1 1.1-1.7 2.8-1.9 2.1-.2 2.8-.9 3-3 .2-1.8 1-2.8 2.5-3.1 1.2-.2.4-.5-1.7-.6-3.1-.1-3.7.2-2.8 1.1 2.2 2.2 1.4 4.8-1.3 4.8-1.4 0-2.5-.6-2.5-1.3 0-.7-.7-2.2-1.6-3.3-1.4-1.8-1.5-1.8-.4.5zM37.5 62c.3.5.1 1-.4 1-.6 0-1.1-.5-1.1-1 0-.6.2-1 .4-1 .3 0 .8.4 1.1 1zM10.9 50.7c-2.2 4.6-2.2 5 .1 1.5 1.3-1.8 2-3.5 1.8-3.7-.3-.3-1.1.7-1.9 2.2zM60 49c.8.5 2 1 2.5 1 .6 0 .3-.5-.5-1s-1.9-1-2.5-1c-.5 0-.3.5.5 1z"/><path d="M41.7 50.1c.7.7 1.5 1 1.8.7.3-.3-.2-.9-1.2-1.2-1.4-.6-1.5-.5-.6.5zM52 50.4c0 .2.9.6 2 .9 1.1.3 2 .1 2-.4s-.9-.9-2-.9-2 .2-2 .4zM45.8 51.7c.6.2 1.8.2 2.5 0 .6-.3.1-.5-1.3-.5-1.4 0-1.9.2-1.2.5zM68.1 52.6c.6.7 1.7 1 2.5.7 2-.7 1.8-1-1.1-1.5-2-.4-2.3-.2-1.4.8zM56 54.5c0 .8-.6 1.5-1.2 1.5-.7.1-.2 1 1.1 2 1.3 1.2 2.1 2.6 1.7 3.5-.8 2.1.7 1.9 2.1-.4 1-1.7.9-2-1.3-2.5-2-.5-2.3-1.1-1.8-3.1.3-1.4.3-2.5 0-2.5s-.6.7-.6 1.5zM43 56.2c3.6 1.9 4.5 2.9 4.5 5-.1 1.5.3 2.5.6 2.2.4-.2 1.1.1 1.5.7.5.8.9.8 1.4-.1.4-.7-.3-2.3-1.7-3.8l-2.5-2.7 2.8-.6c2.4-.5 2.1-.6-2.1-1-2.7-.3-5.9-.9-7-1.3-1.1-.4 0 .4 2.5 1.6zM5.5 57c-1.7 1.8-1.7 2-.1 2 .9 0 1.9-.7 2.3-1.5.9-2.5-.2-2.7-2.2-.5zM67.6 57.6c-1.1.8-1.6 1.4-1 1.4 1.3 0 3.9-1.8 3.4-2.4-.3-.2-1.4.2-2.4 1zM16.5 60c.1 1.1.4 2.3.8 2.6.4.4.7 2.3.8 4.3 0 2 .8 5.8 1.8 8.6 1.7 4.8 1.7 5.1-.3 10-2.7 6.6-2.4 6.4-5.2 3-3.3-4.1-3.1-2.2.2 2.1l2.7 3.4-3.7 3.5c-3.8 3.6-5.6 4.3-5.6 2.4 0-.8-.5-.8-1.5.1-.8.7-1.5 2.5-1.5 4.1 0 3.4-1.7 3.9-2.3.7l-.4-2.3-.2 2.2c0 1.3-.5 2.3-1.1 2.3-1.8 0-1.1 3.8.7 4.2 3 .6 6.3-.4 6.3-1.8 0-.8.5-1.4 1.1-1.4.6 0 .9.6.6 1.4-.4 1 .5 1.5 3.4 1.8 3 .3 3.9 0 4-1.2 0-1 .2-1.1.6-.3.6 1.5 3.3 1.7 3.3.3 0-2-.2-2.5-1.1-2.3-1 .3-.1-5.3 1.3-7.9.8-1.6 1.2-1.6 4.8.8 3.4 2.3 3.8 3 3.3 5.5-.5 2.6-.3 2.9 2.1 2.9 1.5 0 2.5-.4 2.2-.8-.3-.5.4-2.3 1.5-4.1 1.9-3.1 2.1-3.2 3.8-1.7 1 .9 2.4 1.6 3.2 1.5.8 0 .4-.5-.8-1.1-1.3-.6-2.3-1.5-2.3-2.1 0-.5-.8-.6-1.7-.2-3.7 1.4-6.9 1.3-10-.3-3.9-2-4.3-4.2-.9-4.2 1.7 0 2.7-.7 3.2-2.3.3-1.2 1.2-2.9 1.8-3.7 1.9-2.4 4.8-11.8 4.1-13-.4-.6-1.6-1-2.8-.8-1.9.3-2.3-.3-2.8-3.7-.4-2.5-.5-1.6-.3 2.2.4 5.1.2 6.3-1 6.3-.9 0-2 .9-2.6 1.9-1.6 3.1-1.2 3.1 2.1 0 1.7-1.6 3.6-2.9 4.1-2.9.6 0 .8-.7.4-1.5-.3-.9 0-1.5.9-1.5 2.4 0 1.7 2.7-1.1 4.9-1.5 1.2-2.2 2.1-1.5 2.1 1.6 0 1.4 4.5-.4 6-.8.6-1.8.9-2.3.6-.6-.3-1.5.1-2.1.8-1 1.1-.8 1.7.6 2.5 1.7 1 1.6 1-.4 1.1-1.8 0-7.2 4.9-7.4 6.8-.5 4.9-2 6.4-5.9 5.8-1.4-.3-3.5-.5-4.7-.5-1.8-.1-2.3-.7-2.3-2.6 0-2.5 1.8-3.1 7-2.6 1.1.1 1.2 0 .2-.7-.9-.6-.6-1.3 1.2-2.9 1.3-1.1 3.3-5 4.5-8.5 1.2-3.6 2.8-7.4 3.6-8.4 1.6-2.1 2-3.8.6-3-1.1.7-4.1-7.7-4.1-11.7 0-2.6.2-2.8 1.6-1.6.9.7.4-.4-1-2.6-3.4-5-3.3-4.9-3.1-2.5zM29 93c0 .5-.7.7-1.5.4-.8-.4-1.2-1-.9-1.5.6-1.1 2.4-.2 2.4 1.1zm5 10.3c0 1.9-2.7 5.3-3.6 4.5-.9-1 1.2-5.8 2.6-5.8.5 0 1 .6 1 1.3zM3 109c0 .5-.5 1-1.1 1-.5 0-.7-.5-.4-1 .3-.6.8-1 1.1-1 .2 0 .4.4.4 1z"/><path d="M3.4 63.5c.1 2.9.6 3.9 1.7 3.8 1.1-.2 1.6.8 1.7 3.4.2 2 .5 4 .8 4.4.3.5-.4 1.4-1.6 2.1-2.6 1.6-2.5 2.4.3 3.9 2.1 1.2 2.1 1.1.7-.6-1.4-1.7-1.3-1.8.8-1.3 1.8.5 2.2.2 2.2-1.7 0-1.3-.4-2.7-1-3-1.5-.9-1.3-6.5.3-5.9.7.2 2.1-.3 3.2-1.1 1.9-1.5 1.9-1.6-.4-.5-1.9 1-2.8.9-5-.7-1.4-1.1-2.9-3.1-3.2-4.4-.5-1.7-.7-1.3-.5 1.6zM28.6 63.6c-.4.9-.4 1.9-.1 2.2.3.3.5-.1.5-.9 0-1.1.2-1.1 1 .1.8 1.2 1 1.1 1-.8 0-2.6-1.5-2.9-2.4-.6zM33.7 66.1c.7.7 1.5 1 1.8.7.3-.3-.2-.9-1.2-1.2-1.4-.6-1.5-.5-.6.5zM33 69.7c0 .5.9 1.9 2 3.1 2.1 2.2 3.6 3 2.6 1.3-.4-.5 0-1.2.6-1.4 1-.4.9-.6-.1-.6-.8-.1-2.3-.8-3.3-1.8-1-.9-1.8-1.2-1.8-.6zM42 72.6c-1.7.9-2 1.4-.9 1.4.9 0 2.2-.7 2.9-1.5 1.5-1.8 1.3-1.8-2 .1zM50 74c-1 .6-.2.7 2.5.3 4.9-.7 5.8-1.3 1.9-1.3-1.6 0-3.6.5-4.4 1zM62 74.7c.8.3 2.4 1 3.5 1.5 2 .9 2 .9.1-.6-1.1-.9-2.7-1.6-3.5-1.5-1.4 0-1.4.1-.1.6zM40.8 75.7c1.2.2 3.2.2 4.5 0 1.2-.2.2-.4-2.3-.4s-3.5.2-2.2.4zM84.8 76.8c2.3 1.5-3.5 3.4-6.1 2.1-1.2-.7-1.9-.8-1.5-.4 1 1-2.8 4.9-4.1 4.1-.5-.4.4 2.1 2.2 5.5 1.7 3.3 3.3 5.6 3.5 5 .2-.6 1.7-1.1 3.2-1.1 1.6 0 3.2-.4 3.5-1 .3-.6-.2-1-1.2-1-1.7-.1-1.7-.1 0-1.1.9-.5 2.3-.7 2.9-.2.7.4 2.7.6 4.4.4 2.4-.2 3.6.4 5.3 2.5 1.1 1.5 2.1 2.2 2.1 1.7 0-2.2-5.1-5.6-8.7-5.8-5.1-.3-5-.3-2.7-1.9 2.1-1.5 2.5-4 1-6.4-1.2-2 .1-1.4 2.4 1 1.6 1.8 2 1.9 1.4.5-.7-1.8-5.3-4.7-7.6-4.7-1 0-1.1.2 0 .8zm2.6 3.7c.3.8 0 1.5-.7 1.6-.9 0-.9.2.1.6 1.6.6 1.6 2.6 0 2.1-.7-.3-1.4-1.7-1.5-3.1-.2-2.9 1.1-3.7 2.1-1.2zm-7.9 1.4c-.3.5 0 1.1.7 1.4.7.2.5.3-.5.1-.9-.1-2.1.5-2.7 1.4-.8 1.5-.9 1.4-1-.4 0-1.1.3-2.4.7-2.7 1-1.1 3.5-.8 2.8.2zm4.2 2.8c-.4.3-.3 1.1.2 1.7.6.7.1 1.1-1.5 1.2-2.8.2-3.3-2.2-.6-2.9.9-.3 1.9-.5 2.1-.6.2 0 .1.2-.2.6zm-2.2 6.1c-.3.3-1.1 0-1.8-.7-.9-1-.8-1.1.6-.5 1 .3 1.5.9 1.2 1.2zM69.5 79c1 1.1 2 2 2.3 2 .3 0-.3-.9-1.3-2s-2-2-2.3-2c-.3 0 .3.9 1.3 2zM9.4 88.3l-.1 6.2 1.3-4.9c.7-2.6 1-5.5.7-6.2-1.1-2.9-1.8-1.2-1.9 4.9zM41 84.5c-1.3 1.4-2.2 2.7-1.9 2.9.2.2 1.4-1 2.7-2.5 2.9-3.6 2.4-3.8-.8-.4zM101.9 89.5c1.7 3.3 3.1 5.1 3.1 4 0-.6-1-2.1-2.1-3.5-1.3-1.7-1.7-1.8-1-.5zM38.1 92.5c-.1 4.6 1.9 8.2 5.6 9.6 1.3.5 2.2 1.3 1.9 1.8-.4.5.8.4 2.5-.2l3.1-1.2-4.3-.7c-5.5-1-7.2-2.7-8-8.5l-.6-4.8-.2 4zM65.1 92c0 1.5.4 3.1 1.1 3.8.8.8.8 1.2.1 1.2-.6 0-1.4.7-1.7 1.5-.5 1.4-.4 1.4 1.6 0 3.1-2.1 4.5-1.9 2.5.3-2.7 3-1.9 3.7.9.9 1.5-1.5 3-2.4 3.4-2.2 1.2.8 2.4-3.5 1.3-4.6-1.3-1.3-4.3 0-4.3 1.7 0 3.1-3.3.7-4.3-3.1-.4-1.6-.5-1.5-.6.5zm8.9 2c0 .5-.2 1-.4 1-.3 0-.8-.5-1.1-1-.3-.6-.1-1 .4-1 .6 0 1.1.4 1.1 1zM8.1 96.6c0 1.1.3 1.4.6.6.3-.7.2-1.6-.1-1.9-.3-.4-.6.2-.5 1.3zM80 97c.6 1.1 1.3 2 1.6 2 .2 0 0-.9-.6-2s-1.3-2-1.6-2c-.2 0 0 .9.6 2zM98.9 98.2c-.3 2.2-.1 3.4.4 2.9s.7-2.1.5-3.7c-.3-2.7-.4-2.6-.9.8zM105.1 97.7c0 1.3-.5 2.3-1.1 2.3-.5 0-1 1-1 2.2 0 2 .1 2.1 1.6.6 1-.9 1.4-2.6 1.1-4.4-.3-2.2-.4-2.3-.6-.7zM70.2 101.7c-1.3 1.9-2.1 4-1.8 4.6.2.7.5.5.5-.4.1-.9.8-2.2 1.6-2.9 1.2-1 1.5-.9 1.5.5 0 1-.7 2.7-1.7 3.7-1.5 1.7-1.5 1.8.3 1.8 1.4 0 2-.8 2.1-3.1.1-1.8.5-3.4.8-3.7.8-.8 5.5 3.9 5.5 5.5 0 .7.7 1.3 1.5 1.3 1.3 0 1.2-.6-.4-3.8-3.6-7.1-6.9-8.2-9.9-3.5zM54 101c-2.1.7-2.1.8-.5.9 1.1 0 2.7-.4 3.5-.9 1.8-1.1.5-1.1-3 0zM99.7 107.4c-1.1.8-1.4 1.7-.8 2 .5.4 1.5-.3 2.1-1.4 1.3-2.3 1.1-2.4-1.3-.6zM39.8 108.7c.7.3 1.6.2 1.9-.1.4-.3-.2-.6-1.3-.5-1.1 0-1.4.3-.6.6zM49.3 108.7c3.7.2 9.6.2 13 0 3.4-.2.4-.3-6.8-.3s-9.9.1-6.2.3zM105.5 109.1c-1.6.6-1.4.8 1.3.8 3.3.1 4.1-.4 2-1.2-.7-.2-2.2-.1-3.3.4zM113.2 110.4c.7.8 1.5 1.2 1.7 1.1.5-.6-1-2.5-2-2.5-.5 0-.4.6.3 1.4zM38.3 111.7c5.4.2 13.9.2 19 0 5.1-.1.7-.3-9.8-.3-10.4 0-14.6.2-9.2.3z"/></svg>