<svg height="100" preserveAspectRatio="xMidYMid meet" viewBox="0 0 100 100" width="100" xmlns="http://www.w3.org/2000/svg"><g transform="matrix(.1 0 0 -.1 0 100)"><path d="m700 959c-25-4-81-13-125-19s-87-13-95-17c-8-3-100-9-205-12l-190-6-3-175c-2-141 0-186 14-231 14-47 15-79 10-180-4-68-8-146-9-174l-2-50 126 1c80 0 137 5 157 13 26 11 62 11 190 3 86-7 204-13 262-14 103-3 105-3 108 20 2 13-4 40-14 60-13 26-20 72-24 157-3 75-10 129-19 145-16 28-18 143-6 328 6 95 5 116-9 137-14 22-23 25-69 24-28-1-72-5-97-10zm126-64c3-14 4-54 1-88-18-195-20-207-33-207-7 0-21-12-31-27-9-16-41-56-71-91-111-128-177-135-371-39-68 34-139 70-158 80l-33 19v159 159h144c79 0 183 7 232 15s121 19 159 26c39 6 75 13 80 14 6 2 25 4 42 4 27 1 34-4 39-24zm-6-387c1-13 7-34 15-48 10-17 15-59 15-130 1-60 7-121 14-142l14-38-102 1c-86 0-215 14-163 18 41 3 156 211 182 329 8 37 25 43 25 10zm-522-112c113-56 134-63 212-71 59-6 69-4 103 19 21 14 41 26 44 26 4 0 14 7 24 16 16 15 17 13 9-19-16-71-114-177-164-177-8 0-18-4-21-10-3-5-35-10-70-10-62 0-64 1-102 44-35 40-140 226-127 226 3 0 44-20 92-44zm-71-126c10-20 33-54 50-77 40-49 34-53-69-53-68 0-70 1-63 23 3 12 9 69 12 126l6 104 23-44c12-24 31-60 41-79z"/><path d="m557 844c-4-4-7-44-7-89 0-89 27-175 56-175 22 0 29 29 14 64-7 17-16 69-19 116-5 66-10 85-21 88-9 1-19 0-23-4z"/><path d="m235 807c-3-6 6-46 20-87 15-41 32-97 38-125 10-39 17-50 32-50 18 0 20 6 17 59-1 33-7 65-12 71-6 7-17 37-26 66-9 30-21 60-26 67-13 16-37 16-43-1z"/></g></svg>
