<svg height="100" preserveAspectRatio="xMidYMid meet" viewBox="0 0 100 100" width="100" xmlns="http://www.w3.org/2000/svg"><g transform="matrix(.1 0 0 -.1 0 100)"><path d="m800 913c-75-2-126-9-147-18-23-11-96-18-275-24-134-5-253-13-265-16-20-6-23-4-23 19 0 27-25 46-40 30-13-14 6-813 21-830 15-18 61-18 124 2 40 13 107 16 345 16 193 1 312-3 344-11 61-15 76-4 76 54 0 23 6 80 14 126 19 115 28 287 15 310-18 35-28 157-17 230 13 84 2 120-34 117-13-1-75-4-138-5zm119-112c-12-63 1-223 20-260 10-18-3-210-18-290-6-29-11-69-11-88 0-32-2-34-27-29-16 3-93 8-173 11l-145 7 3 106 4 107-32 40c-36 45-76 65-132 65-31 0-41-4-45-20-3-11-10-20-17-20-19-1-63-43-81-79-22-43-13-109 21-169l25-42h-44c-24 0-67-7-96-16-29-8-55-13-58-10s-8 138-11 300l-5 296h23c18 0 65-22 98-46 2-1-2-11-9-22s-9-27-6-36c9-23 48-20 54 4 7 25 18 25 51 1 39-27 102-45 114-33 19 19 4 46-31 55-19 5-46 17-59 28l-24 18 36 22c23 13 36 28 34 38-5 26-41 24-82-4l-38-26-49 26c-27 14-62 25-79 25-23 0-30 5-30 19 0 27 86 39 330 45 123 3 206 9 225 17 22 9 252 29 272 23 2 0-2-28-8-63zm-419-436c15-24 20-50 20-99 0-81-19-106-80-106-54 0-96 23-114 63-26 59-26 77 0 118 21 33 29 39 60 39 27 0 37 5 41 19 4 17 8 18 29 9 14-6 33-26 44-43z"/><path d="m778 761c-15-9-39-30-53-45-30-32-61-31-130 4-47 24-74 25-81 5-8-20 13-45 37-45 10 0 32-8 48-18l29-17-39-39c-22-21-39-47-39-57 0-39 29-31 85 25l57 56 32-17c17-10 41-26 53-37 26-22 53-15 53 13 0 21-44 61-67 61-25 0-9 23 36 54 31 20 41 34 39 49-4 28-26 31-60 8z"/></g></svg>
