<svg version="1" xmlns="http://www.w3.org/2000/svg" width="794.667" height="1650.667" viewBox="0 0 596.000000 1238.000000"><path d="M92 5.8c0 1 .5 2.3 1.2 3 .9.9.9 1.2 0 1.2-.7 0-1.2 1-1.2 2.2.1 2.2.1 2.2 1.5.5 1.3-1.8 1.4-1.7 3 .7 1 1.4 2.1 2.6 2.5 2.6 1.1 0-.8-6.8-2.7-9.7-1.8-2.7-4.3-3-4.3-.5zM75.3 16.2c-1.8 3-1 41.5 1 43.4 1.3 1.3 1.4 0 .8-8.6-.9-12.6-.2-27.2 1.2-26.7.7.3 1.1 1 .9 1.7-.2.7.4 2 1.2 2.9.8.9 1.8 2.8 2.1 4.3.4 1.6 1.2 2.8 1.7 2.8.6 0 .7-1 .4-2.3-.4-1.2-1.4-4.7-2.3-7.7-1.5-5.7-4.2-11-5.5-11-.4 0-1 .6-1.5 1.2zM92 16.4c0 .8.5 1.8 1 2.1.6.3 1-.1 1-.9s-.4-1.8-1-2.1c-.5-.3-1 .1-1 .9zM99 19.6c0 .8.5 1.2 1 .9.6-.4.8-1.1.5-1.6-.9-1.4-1.5-1.1-1.5.7z"/><path d="M100.2 24.2c-.1.7-.4 3.2-.6 5.5-.4 3.2-.2 4.3.8 4.3.9 0 1.5 2.4 2 8.2 1.1 12.6 1.2 20 .6 22.8-.6 2.4-.7 2.4-1.8-1.1-.7-1.9-1.3-7.2-1.5-11.7-.1-5.6-.6-8.3-1.5-8.7-.7-.3-1-.1-.7.4.3.5.1 1.2-.4 1.6-.6.3-.8 1.1-.5 1.8.4 1.1.7 5.4 1.3 20.9.1 2.2.6 2.8 2.3 2.8 2.7 0 1.5 1.3-1.5 1.5-1.2.1-2.9.4-3.7.7-.8.3-1.2.3-.9.1 1.1-.7-2.1-16.8-4.1-20.4-1.1-2-2.2-5.1-2.4-7-1.2-8.6-1.8-9.8-4.1-7.9-1.3 1-1.4 2.8-1 8.9.3 4.2 1 8.9 1.5 10.6.5 1.6 1.6 7 2.5 12 .8 4.9 2.1 11.2 2.9 14 .8 2.7 1.7 7.6 2.1 10.8l.7 5.9-4.4-.3c-3.2-.3-4.3 0-4.4 1.1-.1.8-.2 2.1-.3 2.7-.2 2.3-1.8 1.3-2.5-1.5-.3-1.5-.9-3.8-1.2-5.1-.7-2.2-.5-2.3 2-1.7 2.1.5 2.7.3 2.3-.6-.2-.7-1.4-1.2-2.5-1.1-2.5.3-3.7-1.6-4.6-7.2-1.1-6.4-8.4-28.7-10.6-32.3-1.1-1.8-3.1-3.7-4.5-4.2-1.7-.6-2.7-2-3.1-3.9-.7-3.4-3.3-5.5-8.2-6.5-3.6-.8-3.8-.3-2.2 5.4.5 1.9 1.1 5.5 1.4 8 .3 2.5.8 6.5 1.2 8.9.6 3.6.4 4.4-1.5 5.7-1.8 1.3-1.9 1.8-.9 3.7.7 1.2 1.3 2.4 1.3 2.7.6 3.4 1.9 7.7 2.4 8.5.4.5 1.4 4.8 2.1 9.5.7 4.7 1.6 9.4 2.1 10.6.4 1.1 1 3.6 1.3 5.5.3 1.9 1.4 6.4 2.5 9.9 1.2 3.6 2.1 7.4 2.1 8.5 0 1.1.7 3.8 1.5 6s1.4 5.3 1.5 6.9c0 3.3 2.9 10.6 4.2 10.6.5 0 .6-1.1.2-2.5-.5-1.9-.2-2.5 1.1-2.5 1.1 0 1.5.5 1.1 1.5-.3.9.8 5 2.5 9.3 4.4 10.8 8.6 24.2 10.3 32.4.8 3.8 1.9 7.5 2.6 8.2.6.8 1 1.8.8 2.2-.3 1.4 1.1 8.2 3.3 15.3 2.2 7.4 2.2 7.1.9 7.1-.6 0-2.4-3-4.1-6.8-1.6-3.7-3.4-7.4-3.9-8.2-2.3-3.7-4.9-10.3-4.8-11.8.5-6.3-.3-12-1.8-12.6-1.1-.4-1.8.1-2.1 1.4-.8 3.2-2.6 1.8-4.4-3.4-.9-2.7-2.2-5.2-3-5.7-.7-.4-1.1-1.1-.7-1.4.3-.4-.5-2.3-1.8-4.2-1.3-2-2.4-4.2-2.4-5 0-.7-.4-2.1-1-3.1-.9-1.7-2.4-5.4-5.3-12.7-3.9-10.1-4.7-12.7-4.2-13.5.3-.5.1-1.2-.5-1.5-.6-.4-.8-1.5-.5-2.5.3-1 0-2-.8-2.3-.8-.3-1.4-2-1.5-3.9-.1-1.9-.8-4.7-1.7-6.4-.8-1.6-1.5-3.5-1.5-4.2 0-.8-.8-2.6-1.9-4-1-1.5-2.4-4.4-3-6.4-.8-2.5-1.9-3.8-3.4-4-1.6-.2-2.7-1.9-4.7-7-1.4-3.6-2.8-7-3.3-7.4-.4-.4-.7-1.8-.7-3.1 0-1.4-.5-3.3-1-4.4-1.2-2.2-4-2.6-4-.5 0 2 4 14.6 5.5 17.6 3.8 7.2 10.2 28 11.9 38.8 1.2 7.2 1.1 8.4-.1 8.9-1.4.6-4.2-2.3-4.3-4.3 0-1.7-3.7-4.7-4.9-4-2.2 1.4 1 9.6 3.7 9.6 1.5 0 7.5 10.1 9.6 16 2.2 6.3 2.8 8.6 5.4 19.3 1.8 7.1 1.8 7.8.3 7.5-.9-.2-1.6-1-1.7-1.8 0-2.2-3.3-8-4.4-8-.6 0-1 .2-1 .5 0 .7 3 8.5 5.1 13.1 1 2.3 2.1 5.4 2.5 6.8.3 1.4 1 2.6 1.5 2.6s.6.7.3 1.5c-.4.8-.1 1.5.5 1.5s1.1.7 1.1 1.5c0 .9.9 3.5 2 5.7 1.1 2.3 2 4.8 2 5.6 0 .8.8 2.6 1.9 4 1 1.5 2.4 4.5 3.1 6.7.7 2.2 2.1 6 3.2 8.5s2.6 5.8 3.3 7.5c.8 1.6 2.3 5.2 3.5 8 1.2 2.7 3.7 8.2 5.6 12.2 1.9 3.9 3.4 7.6 3.4 8.2 0 .8 4.7 10.8 7.1 15.1 5.8 10.2 5 11.7-2.2 4.2-4-4.2-15.5-20.6-18.9-27.2-.7-1.3-2.7-3.8-4.4-5.6-4-4-5.6-6.1-5.6-7.2 0-.5-1.1-1.9-2.5-3.2-1.4-1.3-2.3-2.6-2-2.8.3-.3-.3-1.5-1.4-2.6-2.3-2.6-6.1-8.9-10.6-17.9-4.1-8.3-5.2-9.7-7.7-9.7-1.1 0-1.6-.4-1.3-1.1.4-.6-.3-1.7-1.5-2.6-1.2-.8-1.9-2.1-1.6-2.9.3-.8.2-1.4-.2-1.4-.5 0-1.6-1.7-2.6-3.8-1-2-4.2-7.4-7.2-12-3-4.5-5.4-8.7-5.4-9.3 0-.6-.8-2.5-1.8-4.2-.9-1.8-1.7-3.3-1.7-3.3 0-.1-1.5-.5-3.2-.9-4-.8-4.3.5-.9 4.9 1.3 1.7 3.8 6.5 5.6 10.6 1.8 4.1 3.7 7.7 4.1 7.8.5.2.7.8.4 1.2-.3.5.1 2.6 1 4.6 1.4 3.3 1.4 3.8 0 4.8-1.3.9-1.4 1.7-.4 4.4.6 1.7 1.4 3.2 1.8 3.2 1.1 0 8.1 14.7 8.1 16.9 0 1.1.4 2.2.9 2.5.5.3 2.4 3.6 4.2 7.3 1.9 3.8 3.8 7.1 4.2 7.4.5.3.8.9.8 1.3-.1.5 2.9 7.7 6.1 14.3.6 1.1.7 2.6.4 3.2-.4.6-.3 1.1.1 1.1.5 0 1.6 1.8 2.6 4 .9 2.2 2.1 4 2.6 4s.7 1 .3 2.2c-.4 1.7-.2 2 1.2 1.5 1.2-.5 2.4 0 3.7 1.5 2.2 2.8 2.3 3.5.5 5.4-2 1.9.1 6.4 2.8 6.1 1.4-.1 2.7 1.1 4.3 4l2.2 4.3h-2.4c-3.1 0-3.4 3.2-.5 5.7 1.1 1 2 2.3 2 3 0 .7.5 1.3 1 1.3 1.3 0 1.3-1.3-.1-2.7-.7-.7-.6-1.2.6-1.7 1-.3 1.8.1 2.2 1.2.4.9 1.6 3 2.8 4.7 1.3 1.6 3.4 5.2 4.7 8 2.9 5.9 13.3 25.6 17.6 33.5 6.2 11.5 8.2 15.5 8.2 16.7 0 .7.4 1.3.9 1.3s2.1 2.4 3.6 5.2c1.5 2.9 3.2 6 3.9 6.8 1.8 2.5 3.6 5.9 3.6 7.1 0 .5 1.1 2.5 2.5 4.3 1.4 1.8 2.5 3.7 2.5 4.3 0 .5.9 1.8 2 2.8 1.1 1 2 2.3 2 2.9 0 .6 1.8 3 3.9 5.4 3.5 3.8 3.8 4.5 2.7 6.7-.6 1.4-1.7 2.5-2.3 2.5-.7 0-1.3.7-1.3 1.6 0 1.1-.6 1.4-2 .9-1.7-.6-1.9-.2-1.6 2.7.3 2.6-.5 4.5-3.8 9.3-2.4 3.3-5.7 9.4-7.5 13.5-1.8 4.1-4 9.1-4.9 11-.9 1.9-1.7 3.9-1.7 4.5-.2 2.4-2.9 10.6-3.6 11.1-.5.3-.9 1.8-.9 3.4 0 1.6-.4 3.2-1 3.5-.5.3-1 1.6-1 2.8 0 4.2-.3 6.2-1.1 7.3-.9 1.1-2.5 18.6-2.2 24.4.1 1.9.2 6.5.2 10.1 0 7.5 3.4 25 5.6 29 .8 1.4 1.2 2.9.9 3.2-.3.3.4 2.7 1.6 5.4 5.9 12.7 8.6 17.5 11.2 20 1.5 1.5 2.8 3.1 2.8 3.5 0 1.3 8.6 9.8 9.8 9.8.6 0 1.3.8 1.7 1.7.3 1 2 2.5 3.8 3.4 1.7.9 7.3 3.7 12.2 6.3 5 2.6 12.2 5.6 16 6.6 15.1 4.2 22.5 6.7 21.9 7.3-.4.4-.8 2.4-.9 4.4-.1 2.1-.7 6.3-1.4 9.3-.6 3-1.3 9.3-1.5 14-.2 4.7-.7 10.1-1 12-.3 1.9-.8 8.9-1.1 15.4-.4 6.6-.8 12.3-1 12.7-.3.3-.7 5.3-1 11-.3 5.7-.8 11.4-1 12.6-.3 1.2-.7 9.3-1 18-.3 8.7-.8 19.8-1.1 24.8-.3 4.9-.8 16.4-1 25.5-1.1 36.6-.8 33.5-3.2 33.8-2.5.4-4.4 2.5-4.8 5.5-.1 1.2-1 4.7-1.8 7.7-.9 3-2.5 9.5-3.6 14.5-1.2 4.9-2.5 9.9-3 11-.8 1.8-3.2 12.1-4.7 20-.3 1.6-.9 3.4-1.3 4-.3.5-.5 2.2-.4 3.8.2 1.5-.1 2.7-.5 2.7s-.8 2.4-.9 5.2c-.1 2.9-.4 8-.7 11.3-.4 3.6 0 9.3.9 14 1.9 10.3 1.2 47.2-1 50.6-.5.8-1 4.1-1.1 7.4-.1 3.3-.7 8.9-1.3 12.5-.6 3.6-1.3 7.7-1.6 9.2-.2 1.5 0 3 .6 3.3 1 .6 1.5-1.3 1.2-4.8-.1-.9.2-1.7.7-1.7.4 0 1.1-2.4 1.5-5.3.4-2.8.8-5.9 1-6.7.5-2.9 1.8-5 3.2-5 2.1 0 1.7-2-.3-2-1.6-.1-1.6-.2.1-1.5 1.9-1.4 1.9-1.5.2-1.5-1.5 0-1.6-.3-.7-1.4.7-.8 1.4-7.5 1.7-16.7.3-8.4.9-17.3 1.4-19.7.4-2.5.4-5.7 0-7.2-.5-1.6-.6-3.1-.2-3.4.3-.4.7-1.6.8-2.9.7-6.4 2.4-18.2 3.8-26.2.8-5 1.5-11.9 1.5-15.5 0-3.6.1-9.1.3-12.2.2-4.2-.1-5.9-1.1-6.3-.9-.4-1-.9-.3-1.8.8-1 1.9-5.8 2.3-10.7.1-.8.6-2.1 1.2-2.8.5-.7 1.1-2.8 1.3-4.8.2-1.9 1.3-6.2 2.4-9.5 1.2-3.3 1.9-6.3 1.6-6.6-.8-.8 1.3-4.3 2.5-4.3.6 0 .9 1.6.7 3.7-.4 4.7 1.9 5.7 2.7 1.1.5-2.6 1.4-20 1.6-29 0-.9.8-1.9 1.7-2.2 1.4-.5 1.7-2 1.7-9.3 0-4.9.3-12.2.7-16.3 1.9-21.1 2-24 .9-24-1.5 0-1.4-1.6.2-3.2.7-.7 1.3-2.2 1.3-3.3.2-4 1.5-21.1 2-25.3.3-2.4.7-14.3.9-26.3.4-21.2.9-27.9 2.3-27.9.4 0 .8-4.7.9-10.5.1-5.7.6-11.2 1.1-12.2.5-1 1.3-3.7 1.7-6l.7-4.2 8.6.2c16 .3 30-2.3 47.5-8.7 5.4-1.9 11.2-4.7 13.1-6.1 1.8-1.4 3.7-2.5 4.3-2.5.5 0 1.8-.9 2.8-2 1-1.1 2.2-2 2.8-2 3.7 0 22.2-19.4 30.6-32 6.9-10.4 15.1-25.7 15.1-28 0-.5.7-2.9 1.4-5.2 1.7-4.9 2.5-8.2 3.6-15.5.4-2.8 1.1-5.7 1.5-6.2.8-1.4.9-25.3.1-31.6-.4-2.8-1.1-7.9-1.7-11.5-.6-3.6-1.2-7.9-1.4-9.7-.2-1.7-1-4.4-1.8-6-.8-1.5-1.7-4.4-2-6.4-.2-1.9-.9-4.5-1.6-5.6-1.6-3.1-1.5-3.5 1.9-7.3 1.7-1.8 3-3.6 3-3.9 0-.3 1.5-2.2 3.3-4.1 1.7-2 5.3-6.3 7.9-9.5 4.6-5.8 13.6-16.9 22.6-27.8 6.6-8 11.8-17.7 9.4-17.7-.5 0-2.4 2.1-4.2 4.7-1.8 2.7-4.9 6.5-6.9 8.5-1.9 2.1-3.2 3.8-2.9 3.8.3 0-1.1 1.7-3.1 3.8-2 2.2-5.4 6.2-7.6 9-2.2 2.9-4.3 5.2-4.7 5.2-.5 0-.8.4-.8.9 0 .6-1.4 2.5-3 4.3-1.7 1.8-3 3.7-3 4.3-.1.5-1.4 2.1-3 3.5-1.7 1.3-3 2.9-3 3.5 0 .6-1.4 2.5-3 4.3-1.7 1.8-3 3.7-3 4.2 0 .4-.7 1.1-1.6 1.4-2.3.9-5.1-1.9-6.5-6.3-.7-2-1.8-4-2.5-4.4-1.6-.9-1.9-4.7-.5-4.7 1.8 0 1.7-3.5-.1-7.9-1-2.4-1.7-4.6-1.4-4.8.4-.4 4.2 4.1 4.8 5.7.2.4 1.4 1 2.6 1.2 2.2.3 2.4-.1 2.8-4.7.2-2.9 1-5.5 1.9-6.1.8-.6 1.5-1.6 1.5-2.2 0-.6.9-1.6 2-2.2 1-.6 3.2-3.6 4.8-6.8 1.5-3.1 4.4-8.3 6.5-11.5 4.1-6.3 4.5-8 2-7.5-1.6.3-4.8 5-7.5 11-.7 1.6-1.6 2.8-2 2.8-.4 0-1.5 1.4-2.4 3.2-.9 1.7-2 3.6-2.5 4.2-.6.6-1.6 2-2.4 3.1-.7 1.1-1.6 1.7-2 1.3-1.3-1.3 1.6-7.7 4.6-10.2 1.6-1.4 2.9-2.8 2.9-3.2 0-.4 1.1-2.2 2.5-4 1.4-1.8 2.5-3.7 2.5-4.2 0-1.8 4.9-5.4 6.7-5 3 .8 6.1-4 4-6.1-.8-.8-.5-1.1 1.1-1.1 1.2 0 2.2-.6 2.2-1.3 0-.8 1.4-3.3 3.1-5.6 1.7-2.4 3.8-5.7 4.8-7.4 2.1-3.8 4.6-4.6 6-1.9.8 1.5.2 3.5-2.8 9.5-2.1 4.2-4.4 8.3-5.1 9.2-.8 1-3.7 6.1-6.5 11.4-9.5 18.5-12.5 23.6-17 29.1-2.5 3-4.5 5.8-4.5 6.2 0 .5-.9 1.7-2 2.8-2.3 2.3-1.9 4 1.1 4 2.2 0 13.9-11.4 13.9-13.6 0-.8.5-1.4 1-1.4.6 0 1.3-.8 1.7-1.8.3-.9 1.4-2.8 2.3-4.2.9-1.4 3.4-5.7 5.5-9.5 2-3.9 5.5-9.4 7.6-12.2 2.2-2.9 4.3-6.1 4.6-7 .8-2.3 4.1-7 7.3-10.5l2.6-2.9 3.2 3.2c2.6 2.6 3 3.4 2.1 5.1-.7 1.2-.7 2.4-.2 2.9.6.6 3.3-1.3 7-4.8 3.3-3.2 6.8-6.5 7.9-7.4 2.7-2.3 24.5-25.7 26.9-28.8 4.4-5.7 35.2-36.9 47-47.6 14.1-12.7 18-17.5 14.1-17.5-2.1 0-9.9 6.6-22.3 18.8-6.3 6.3-11.7 11.1-12 10.8-.7-.7 2.5-4.6 17.2-21.1 1.1-1.2 4.5-5.1 7.5-8.6s8.7-9.8 12.6-14c14.3-15.4 26.6-31.9 23.8-31.9-.7 0-11.4 11.2-11.4 12 0 .3-1.4 1.9-3 3.7-1.7 1.8-3 3.5-3 3.8 0 .4-1.9 2.6-4.3 4.9-6.3 6.4-18.1 19.5-19.1 21.4-.5.9-3.6 4.5-6.9 8-3.4 3.4-5.9 6.2-5.5 6.2.7 0-3.5 4.4-6.5 6.8-5.7 4.7 19.7-35.2 25.9-40.7 2.1-1.8 5.8-5.9 8.2-9 2.3-3.1 6.3-7.5 8.8-9.8 2.5-2.3 4.3-4.6 4-5.2-.8-1.3.5-2 5-2.6 3.7-.4 5.4-1.8 5.4-4.3 0-.6.7-1.2 1.5-1.2.9 0 3-1 4.7-2.3 2.2-1.6 3.2-1.8 3.5-1 .3.7 1.1 1.3 2 1.3 2 0 1.1-2.4-1.2-2.9-1.7-.3-4.5-2.4-4.5-3.4 0-.5 13-10.5 18.8-14.4 1.7-1.2 3.2-2 3.2-1.7 0 1.2-6.4 8.3-7.1 7.9-.8-.6-2.4 3.4-1.6 4.1.2.3 3.7-2.8 7.6-6.7 4.7-4.8 7.1-8.1 7.1-9.6 0-1.3-.3-2.3-.7-2.3-3.4.2-23.7 14-32.3 22-3.4 3.2-4.6 3.6-5.2 2-.4-1.3-7.7-.3-9.8 1.3-.8.7-4.4 5-8 9.7-3.5 4.7-7.1 9.4-8 10.4-3.3 4.3-9.8 10-14.2 12.8-2.7 1.7-4.5 3.4-4.2 4.2.3.7-1.7 3.2-4.3 5.5-2.6 2.4-6.1 5.5-7.8 7.1-7.1 6.7-16.5 12.6-16.5 10.4 0-1.6 8.2-11.2 13.6-15.9 3.2-2.8 6.9-6.3 8.3-7.9 1.4-1.6 3.3-3.6 4.2-4.5.8-.9 3.1-3.7 4.9-6.4 1.8-2.6 3.7-4.7 4.1-4.7.5 0 1.5-1.3 2.3-2.9.9-1.6 3.1-4.5 5.1-6.5 1.9-2 3.5-3.9 3.5-4.2 0-.2.9-1.4 2-2.6 1-1.2 1.7-2.5 1.4-3-.3-.4 0-.8.6-.8.7 0 1-.7.6-1.5-.3-.8 0-1.5.7-1.5s2.9-1.9 4.8-4.3c10.2-12.3 16.9-20.7 16.9-21.1 0-.2-1-.2-2.2.1-1.9.4-2 .3-.8-.6.8-.6 2.2-1.1 3-1.1 3.3-.1 9.6-9 6.4-9-1.2 0-.8-.8 1.2-2.8 3.9-3.8 9.4-10.5 9.4-11.4 0-.5.7-.8 1.5-.8s1.5-.6 1.5-1.3c.1-.6 1.7-3 3.6-5.2 7.4-8.4 19.1-23 23.7-29.5.9-1.4 3.3-4.5 5.2-7 1.9-2.5 4.4-6.2 5.6-8.3 1.3-2 2.6-3.7 3-3.7.5 0 2.2-2.1 4-4.8 1.8-2.6 5-6.5 7.1-8.6 2.1-2.2 3.8-4.5 3.8-5.2 0-.7.4-1.4.8-1.6.4-.2 2.3-2.3 4.2-4.8 1.9-2.5 4-4.8 4.5-5.2.7-.5.7-.8 0-.8-1.7.1-4.5 2.7-3.7 3.5.6.7-4.9-.2-5.5-.9-.2-.1 1-2.5 2.4-5.3 1.5-2.9 2.4-5.5 2-5.9-1.1-1.1-3 1.2-6.3 7.6-1.6 3-4 6.6-5.4 8-1.4 1.4-3.5 4.2-4.5 6.2-1.1 2.1-2.3 3.8-2.7 3.8-.5 0-.8.4-.8.9s-1.6 3.3-3.5 6.2c-1.9 3-3.5 5.7-3.5 6.2 0 .9-4.4 7.1-7.5 10.4-1.1 1.2-2.4 2.6-3 3.3-.5.6-2.1 1.9-3.4 3-2.8 2.3-2.3 3.7.8 2.1 1.8-1 2-.9 1.4.6-.4 1-1.7 2.7-3 3.8-1.3 1.1-2.3 2.5-2.3 3.1 0 .6-1.4 2.3-3 3.9-2.2 2.1-3.3 2.6-4.1 1.8-.8-.8.4-2.5 4.1-6.1 2.9-2.9 4.7-5.3 4.1-5.7-.6-.3-2.1.3-3.3 1.4-1.2 1.2-1.8 2.1-1.4 2.1.7 0-1.8 2.5-6.4 6.3-1.2 1-2.4 1.6-2.7 1.4-.7-.8 6.7-10.9 10.4-14.2 1.9-1.7 4.1-4.4 5.1-6.1 4.4-8.2 17.2-25.6 24.3-33.3 2.3-2.4 5.2-6 6.6-7.9 1.3-2 2.7-3.9 3.1-4.2.4-.3 2-2.2 3.5-4.2 1.7-2.3 3.3-3.5 4.2-3.2.9.4 2.3-.9 4.1-3.8 2.2-3.7 12.3-11.8 14.7-11.8.6 0-1.2 4.3-4.4 10.2-1.1 2.1-1.6 3.8-1.3 3.8 1.2 0 6.6-6.3 8.1-9.5.8-1.7 2-4.1 2.8-5.4 4.2-7.5-6.8-4-20 6.3-15.6 12.2-19.1 15.1-19.8 16.3-.4.7-2.2 2-4 2.9-1.7.9-7 5.2-11.7 9.6-12.5 11.6-14.2 13.1-16.6 14.8-1.2.8-5.4 4.5-9.2 8.2-3.9 3.7-8.3 7.3-10 8.2-1.6.8-19.3 17.9-39.3 38-20 20.1-36.9 36.6-37.6 36.6-.6 0-2.5 1.1-4.1 2.5-5 4.2-6.9 3-3.1-1.9 1.1-1.4 1.7-3.1 1.3-3.7-.3-.6-.1-1.5.7-1.9 1-.7 1-1.2 0-2.3-.9-1.2-.8-2.2 1-5.3 1.2-2.2 2.9-4.9 3.8-6 .9-1.2 2.3-3.2 3.1-4.5.8-1.2 2.9-3.8 4.6-5.7 1.8-1.9 4-4.9 5-6.8 1-1.9 2.2-3.4 2.6-3.4.5 0 .8-.6.8-1.4 0-.8.3-1.6.8-1.8.4-.2 2.5-2.6 4.7-5.3 2.2-2.8 4.5-5.6 5.2-6.3.7-.7 1.3-1.7 1.3-2.1 0-.5 1.3-2.4 3-4.2 1.6-1.9 3-3.7 3-4.2 0-.4 1.9-3.1 4.2-6 2.4-3 5.7-7.1 7.3-9.2 9.4-12.2 22.6-24.8 24.2-23.1 1.1 1 3.3-2.3 2.7-4.1-.4-1.2-.3-1.4.3-.6.6.9 2.4-.4 6.2-4.8 5.1-5.8 6-8.9 2.7-8.9-1.5 0-12.8 8.6-13.4 10.2-.2.4-1.1.8-1.9.8-.8 0-1.3-.6-1-1.3 1.9-4.5 3.3-6.7 4.3-6.7s3.8-3.7 7.9-10.1c1.8-2.8 6.5-11.8 6.5-12.4 0-2.5-10.8 3.1-16 8.3-5.6 5.6-9.1 7.6-11 6.4-2.6-1.6-5.1-.5-8.5 3.7-25.8 32.7-33.4 41.1-37 41.1-2.5 0-3.2.6-17.8 14.8-7.2 7-19.9 23.3-21.6 27.7-.2.5-2.8 4.3-5.8 8.2-2.9 4-5.3 7.6-5.3 7.9 0 1.2-10.4 16.4-11.2 16.4-.4 0-.8.5-.8 1 0 .6-2.2 4-5 7.5-2.7 3.5-5 6.7-5 7 0 .6-1.3 2.4-4.2 5.6-1 1-1.8 2.1-1.8 2.4 0 .4-9.3 14.6-11.2 17-4.3 5.5-7.6 10.4-7.2 10.7.2.3-.5 1.3-1.6 2.3-1.1 1-2 2.2-2 2.6 0 .4-2 4-4.5 8.1-5.8 9.5-11.5 20.4-11.5 22 0 .7-2.1 5.3-4.6 10.3-5.8 11.4-8.4 16.5-11.9 23.7-1.5 3.1-3.3 6.2-4.1 6.9-.8.6-1.4 1.9-1.4 2.9 0 .9-.8 2.8-1.7 4.1-2.2 3-2.7 3.9-10.4 18.5-3.4 6.6-6.7 13-7.5 14.4-.7 1.4-1.8 3.6-2.4 5-.5 1.4-1.8 3.8-2.8 5.5-3.7 6.1-10.8 20.1-12.5 24.6-3 7.8-3.5 8.2-8.4 6.3-2.5-1-4.9-1.3-6-.9-2.8 1.2-10.2 1.5-10.8.5-.3-.5-1.2-.7-1.9-.4-.8.3-3.7-.1-6.5-1-2.9-.8-4.9-1.1-4.6-.6.4.6 1.4 1 2.3 1 1.6.1 1.6.1 0 1-1.6 1-8.8-.7-13-3-1-.6-2.4-1-3.2-1-.7 0-2.5-.9-3.9-2s-3.5-2-4.6-2c-1.5 0-2.1-.6-2.1-2.1 0-1.7.5-2 2.8-1.5 5.6 1.1 16.5 1.1 16.9 0 .6-1.7-10-4.5-14.9-3.9-12.4 1.6-11.5 1.7-12.3-1.2-.8-3.2-3.2-5.2-6.2-5.3-1.3 0-2.3-.5-2.3-1 0-.6-.5-1-1.1-1-.6 0-.9.7-.5 1.5.4 1.1-.1 1.5-1.9 1.5-1.4 0-2.5-.5-2.5-1 0-1.3-3.3-1.3-4.7.1-.8.8-2.2-.4-5.2-4.3-2.3-3-4.1-6.1-4.1-6.9 0-.8-.4-1.9-.9-2.5-1.3-1.2-11.1-30.7-11.1-33.1 0-1.1-.7-2.8-1.5-3.9-.8-1-1.5-2.9-1.5-4.2 0-1.8.5-2.3 2.1-2 1.8.2 2.5 1.7 4.4 9.3 4.7 18.9 7.5 25.3 9.1 21.1.5-1.3-.5-5.2-5.8-22.4-2.1-6.7-1.8-9.6.8-9 1.5.3 6.1 11.5 8.2 20.2.4 1.6 1.3 3.1 2 3.4 1.7.5 1.5-.2-1.3-8.6-1.4-4.1-2.5-8.2-2.5-9.3 0-1-.4-1.9-1-1.9-.5 0-1-1.7-1-3.8 0-2.5-.7-4.3-2-5.5-1.1-.9-2-1.3-2-.8 0 1.2-2.7 2.1-4.4 1.5-.8-.3-1.7-2.3-2.1-4.5-.4-2.1-1.1-4.1-1.6-4.5-.5-.3-.6-1-.3-1.6.4-.6.1-1.3-.5-1.7-.6-.4-1.2-2.5-1.4-4.7-.2-3.8-.1-3.9 3-3.8 1.8.1 3-.2 2.7-.7-.9-1.6-1.8-6.5-2.3-13.2-.1-1.3-.6-1.7-2-1.2-2 .6-5.6-3.6-4.8-5.8.2-.7-.1-1.7-.8-2.2-.6-.6-2.2-4.8-3.5-9.5-1.3-4.7-2.8-9.6-3.3-11-.5-1.4-1.1-3.2-1.3-4-.3-1.6-2.9-10.8-6.4-22.9-1.2-4-2-8.8-1.7-10.5.3-1.7-.1-4.5-.8-6.1-.7-1.7-2.2-6.4-3.4-10.5-1.2-4.1-2.8-9.5-3.6-12-2.9-9.4-5.7-22.3-5.1-24.4.3-1.2-.2-5.3-1-9.1-.8-3.9-1.7-9.3-2-12-.3-2.8-.9-6.4-1.4-8-.9-3.2-1.7-11.4-2.6-25.5-.3-4.7-.7-9.6-.9-11-.2-1.4 0-4.3.4-6.5.5-3 1.1-3.9 2.4-3.7 1 .2 1.7-.4 1.7-1.3 0-.8-.4-1.5-.9-1.5s-.8-.8-.7-1.8c0-1-.6-1.6-1.6-1.6-1 .1-1.8-.2-1.8-.7 0-.5.7-.9 1.6-.9 1.7 0 1.7 0-.5-16.5-2-14.4-2.6-17-4.2-17.3-.9-.1-1.6.3-1.7 1zM499 47.5c0 2.1-3.4 6.5-5 6.5-1 0-3.9 1.3-6.3 3-5.4 3.6-8.5 4-3.6.5 1.9-1.4 3.9-3.1 4.4-3.8 3-3.7 10.5-8.1 10.5-6.2zM57 50.9c0 .5.3 1.8.7 2.8.6 1.6.5 1.6-1 .4-1.9-1.5-2.3-4.1-.7-4.1.6 0 1 .4 1 .9zm8.3 9.3c2.5 6.9 4.5 13.6 7.2 24.3 1.4 5.5 3.6 14 4.9 18.8 1.3 4.9 2.1 9.7 1.9 10.8-1 3.6-3 1.9-4.1-3.4-.6-2.8-1.8-8.1-2.7-11.7-.9-3.6-1.9-7.7-2.2-9.3-.3-1.5-1.1-2.7-1.8-2.7-1.9 0-3.6-5.5-2.2-7 .9-.9.9-1.1-.2-.8-1 .2-1.5-.6-1.5-2.6-.1-1.6-.7-3.1-1.3-3.4-.7-.2-1.3-.8-1.3-1.4 0-.6.7-.7 1.6-.4 1.4.5 1.5.1.9-3.1-.3-2.1-1.1-4.2-1.6-4.8-1.1-1.2-1.2-7.5 0-7.5.4 0 1.5 1.9 2.4 4.2zm422.4 1.1c-.3.7-3 5.2-6 9.9-4.2 6.4-7.5 10.1-12.9 14.4-4 3.2-9.8 7.9-12.8 10.4s-7 5.6-8.8 6.8l-3.2 2.3 1.7-2.9c2-3.3 8.6-11.1 15.4-18.3 2.5-2.7 4.2-4.9 3.8-4.9-1.9 0-.7-1.9 1.4-2.2 1.5-.2 2.1-.9 1.9-2.2-.2-1.3.1-1.7 1.1-1.3.7.3 2 .1 2.8-.4 1.1-.7 1.1-.9-.3-.9-2.5 0-2.2-1 1.1-4.5 3.6-3.9 7.7-7.4 6.7-5.8-1.6 2.8.6 3.3 3.6.8 3.2-2.7 5.3-3.3 4.5-1.2zM57.5 69.1c0 1.6-.5 2.9-1.2 2.9-1 0-1.1-.9-.4-6.4.2-2.1 1.6.8 1.6 3.5zm1.2 5.5c-.3.3-1.2.4-1.9.1-.8-.3-.5-.6.6-.6 1.1-.1 1.7.2 1.3.5zm43.7 1.8c-.4 1.1 1.6 16.3 3.1 23.6.2 1.4.6 4.6.6 7.2.2 3.1.7 4.9 1.7 5.3 1 .4 1.1.9.4 1.8-.5.6-.8 1.9-.7 2.7.2.8.6 3.2 1 5.2.5 2.5.3 3.8-.3 3.8-1.5 0-2.2-1.4-3.2-6.8-2-10.3-3.1-15.8-3.7-17.2-.8-2.1-1.2-5.3-1.5-13.9-.3-7-.5-7.7-2.8-8.8l-2.5-1.1 2.8-.1c3.2-.1 3.7-2.1.5-2.2-2.2-.1-2.2-.1.2-.8 3.1-.9 5-.3 4.4 1.3zM59 78.5c0 .8-.4 1.5-1 1.5-.5 0-1-.7-1-1.5s.5-1.5 1-1.5c.6 0 1 .7 1 1.5zm471 6.2c0 .9-5 7.5-7.9 10.3-4.5 4.4-16.6 18.1-17 19.3-.2.7-1.5 2.6-2.8 4.3-1.2 1.7-2.3 3.4-2.3 3.9 0 1.4-3.4 3.4-5.8 3.5-2 0-7.4 4.6-10.7 9.1-1.1 1.6-12 15.2-14.7 18.4-.9 1.1-2.8 3.3-4.2 5-1.4 1.6-2.6 3.3-2.6 3.6 0 1.2-13.1 12.2-13.7 11.5-.7-.7 1.5-5.3 3.5-7.5 1.1-1.2 1.1-1.5 0-2.3-1-.6-.7-1.3 1.5-2.9 1.7-1.3 2.7-3 2.7-4.6 0-1.6.7-2.7 2-3 1.1-.3 2-.9 2-1.4 0-1.4 9.7-11.7 27.5-29.1 8.8-8.6 18.5-18.1 21.5-21.1 6.8-6.8 19.2-17.6 20.3-17.7.4 0 .7.3.7.7zm-64.9 10.6c-1 .9-1.1.8-.5-.6.3-1 .9-1.5 1.2-1.2.3.3 0 1.1-.7 1.8zM65 101c0 .5-.4 1-1 1-.5 0-1-.5-1-1 0-.6.5-1 1-1 .6 0 1 .4 1 1zm391.7.8c-1 1-1.7 2.4-1.7 3 0 .7-.8 1.2-1.8 1.2s-2.7.8-3.8 1.8c-3.1 2.8-9.3 6.2-9.8 5.3-1-1.5 1.9-4.1 9.4-8.5 8.3-4.8 10.1-5.5 7.7-2.8zm-367.1 1.4c1.2 1.9 4.5 15.9 4.8 20.8.2 2.5.5 5.2.7 6 .3 1-.3 1.5-1.8 1.4-2.8-.1-3 2.6-.8 7.9 1.8 4.4 1.8 4.7.1 4.7-1.4 0-1.7-.8-4.2-9-1.8-6-1.7-6.2.6-5.5 2.2.7 2.5-.2 1-4-.5-1.4-1.4-2.4-2-2-1.3.8-4.3-4.2-3.6-6 .3-.8.2-1.5-.2-1.5s-.8-1.1-.8-2.5c-.2-3.3 2-2.7 2.4.6.2 1.3.8 2.8 1.3 3.4 1.3 1.3.9-6.4-.4-8.6-1.1-1.8-.2-6.9 1.3-6.9.5 0 1.2.5 1.6 1.2zm-22 12c-.2 1 0 1.8.4 1.8 1.4 0 2.3 4.1 1.1 5.3-.8.8-1.1.7-1.1-.4 0-.8-.5-2-1.2-2.7-.6-.6-1.2-3-1.2-5.2-.1-3.6 0-3.9 1.2-2.3.7 1 1.1 2.6.8 3.5zm381.4-2.6c0 1.6-23.5 23.4-24.7 23-2.3-.9 4.3-10.2 11-15.4 8-6.1 13.7-9.3 13.7-7.6zm-22.1 3.5c-1.6 1-2.3.4-1.4-1 .3-.6 1.1-.8 1.7-.5.6.4.5.9-.3 1.5zm-2.6 3.9c-.3 1-1.4 2.2-2.4 2.5-1 .4-1.9 1.2-1.9 2 0 1.2-2.9 3-3.7 2.1-.5-.5 6.8-8.6 7.8-8.6.4 0 .5.9.2 2zM82 122.3c0 1.3.3 2.7.7 3.1 1.1 1.1 3.2 10.9 2.6 11.9-1.3 2.2-3.4-3-5.2-13.1-.6-3.2-.5-4.2.6-4.2.7 0 1.3 1 1.3 2.3zm-11 4.1c0 .8.5 2.7 1.2 4.3.6 1.5 1 3.2.9 3.7-.1.4.3 1.4.9 2.1.6.8.7 1.6.2 1.9-1.2.7-2.2-.3-2.2-2.4 0-1-.6-2.3-1.4-2.9-.7-.6-1.1-2.2-.8-3.6.2-1.5 0-2.5-.7-2.5-.6 0-1.1-.5-1.1-1 0-.6.7-1 1.5-1s1.5.6 1.5 1.4zm18 .6c0 .5-.4 1-1 1-.5 0-1-.5-1-1 0-.6.5-1 1-1 .6 0 1 .4 1 1zm331 1.8c0 .4-2.5 3.7-5.5 7.2-3 3.6-5.5 7.2-5.5 8.1 0 1.9-5 9.9-7.5 11.9-1.4 1.1-1.9 1.2-2.2.2-.8-2.2-3.2-1.2-6 2.5-1.5 2.1-3.1 3.9-3.5 4.1-.5.2-.8 1-.8 1.8 0 .7-1.6 3.8-3.5 6.8s-3.5 6-3.5 6.5c0 .6-.6 1.4-1.3 1.8-.7.4-2.1 2.4-3.1 4.3-.9 1.9-2.8 5.3-4.1 7.5-1.3 2.2-3.6 6.5-5.1 9.5-1.5 3-3.3 6.2-4 7-.6.8-4.1 7.3-7.8 14.4-4.5 8.7-8.3 14.5-11.9 18.3-2.8 3-5.6 6.3-6.2 7.3-1 1.7-3.7 5.1-12 15-2.2 2.6-5.8 7-8 9.9-4.6 5.9-6.7 6.8-3.4 1.4 3.6-5.7 7.8-14.6 7.9-16.3 0-.9 1.1-3.2 2.5-5.2s2.5-4 2.5-4.3c0-.4 1.3-2.5 2.8-4.8 1.5-2.3 3.4-5.6 4.1-7.2.7-1.7 4.2-7.3 7.7-12.6s6.4-10.1 6.4-10.6c0-.6.7-1.7 1.6-2.4.9-.7 3.6-4.3 6-7.9 13.3-19.9 16.7-24.7 22.3-31.4 3.3-4.1 6.1-7.7 6.1-7.9 0-.3 1.2-1.9 2.8-3.5 3.7-4.1 5-5.6 10.5-13.2 2.6-3.6 7-8.6 9.7-11.2 6-5.6 12-9.2 12-7zm92.5 5.1c-.3 1.2-1.2 2.7-1.8 3.4-.7.7-2.7 3.4-4.6 6.1-1.9 2.6-5.6 6.9-8.2 9.5-2.7 2.7-4.9 5.3-4.9 5.9 0 .7-.4 1.2-1 1.2-.5 0-1 .7-1 1.5s-.5 1.5-1 1.5c-.6 0-1.3.6-1.6 1.4-.3.8-3.4 4.5-7 8.2-3.5 3.7-6.4 7.2-6.4 7.6 0 .4-.8 1.6-1.7 2.6-1 1-3.8 4.2-6.3 7.1-2.5 3-5.5 6.5-6.7 7.9-1.3 1.4-2.3 2.8-2.3 3.1 0 .3-2 2.6-4.5 5.1-2.4 2.5-4.4 5.1-4.5 5.7 0 .7-.4 1.3-.9 1.3-.8 0-12 14.2-14 17.8-.5.9-1.3 1.4-1.6 1-.4-.4.5-2.2 1.9-4.1 1.4-1.9 2.6-3.9 2.6-4.4 0-.6.7-1.6 1.5-2.3 1.3-1.1 14.3-20 15.5-22.6 1.4-3 5-6.4 6.8-6.4 2.3 0 6.9-5.3 12.2-14 2.9-4.8 6.2-9.9 12-18.4 6.8-10.1 18-22.6 22.9-25.7 5-3.1 5.6-3.1 4.6 0zm-415.4 3.2c1.6 1.7 2.9 3.3 2.9 3.5 0 .2-1.2.4-2.7.4-1.4 0-2.3-.3-2-.6.3-.4 0-1.6-.8-2.8-3.2-4.5-1.4-4.8 2.6-.5zm323.9 1.3c0 .3-.4.8-1 1.1-.5.3-1 .1-1-.4 0-.6.5-1.1 1-1.1.6 0 1 .2 1 .4zm-343.6 6.8c1.9 3.8 2 5.8.3 5.8-1.3 0-3.6-5.9-2.9-7.8.6-1.8.9-1.5 2.6 2zm339.6-2.5c-.1 1.5-3 4.6-3.7 4-.3-.4.2-1.6 1.2-2.7 1.9-2.1 2.5-2.4 2.5-1.3zm-316.2 4.2c.7 1.7 1.2 3.6 1.1 4.3-.1.7.4 2.6 1.1 4.3 1.1 2.7 1.6 5.7 2.3 14.5.1 1.5-.4 2.6-1.4 2.8-1.6.3-1.8-.8-3.3-13.8-.5-4-1.7-11.3-2.2-13.3-.9-2.8 1-1.9 2.4 1.2zM97 155c0 1.5.5 3.1 1 3.6 1.1 1.1.3 4.4-1.1 4.4-.9 0-3-6.8-3.1-10.4-.1-1.1-.6-2.7-1.1-3.3-.5-.7-.6-2.1-.2-3 .6-1.5 1.1-1.1 2.6 2.2 1 2.2 1.9 5.1 1.9 6.5zm328.5-3c-.3.5-1.2 1-1.8 1-.7 0-.6-.4.3-1 1.9-1.2 2.3-1.2 1.5 0zM80 153.4c0 .3-.4.8-1 1.1-.5.3-1 .1-1-.4 0-.6.5-1.1 1-1.1.6 0 1 .2 1 .4zm-27.5 4.8c.4 1.8 1.4 4.4 2.2 5.7 1.8 2.8.3 5.1-1.7 2.6-.7-.8-1-1.5-.7-1.5.3 0-.2-1.9-1.3-4.2-1-2.3-1.6-4.6-1.4-5 1.1-1.7 2.3-.7 2.9 2.4zm422.5 4.3c-5.1 9-10.7 16.5-12.5 16.5-1.1 0-.4-2.8 1-4 .9-.7 1.4-1.9 1.1-2.6-.3-.8.1-1.9.8-2.6.7-.7 1.1-1.9.8-2.6-.2-.6.4-1.2 1.2-1.2.9 0 3-1.6 4.7-3.5 4-4.5 5.4-4.5 2.9 0zm-59.7 2.1c-.9 1.5-1.9 2.2-2.1 1.6-.2-.6.3-1.8 1-2.6 2.2-2.5 3-1.8 1.1 1zm-20.3 2.9c-.7.9-1.5 1.3-1.7 1.1-.7-.7.7-2.6 1.9-2.6.6 0 .6.6-.2 1.5zm42.3 6.7c-5.2 7.2-6.7 10.3-6 12.7.6 2.4-2.7 5.9-3.8 4.1-.4-.7-1.8-.9-3.1-.6-2.9.8-2.9.4-.3-5.3 1.9-4.1 13.9-16 16.2-16.1.4 0-.9 2.4-3 5.2zm9.2-3.2c-.3.5-1.1 1-1.6 1-.6 0-.7-.5-.4-1 .3-.6 1.1-1 1.6-1 .6 0 .7.4.4 1zm-1.5 2.9c0 .4-.8 1.9-1.8 3.2-1 1.3-2.4 3.6-3.1 5.1-1.6 3.1-3.1 3.7-3.1 1.2 0-2.4 5.2-10.4 6.8-10.4.6 0 1.2.4 1.2.9zm-54 .6c0 .3-.4 1.3-.9 2.3-.5.9-2 3.9-3.2 6.7-3.9 8.2-17.8 28.4-17.9 25.8 0-.6.5-1.5 1-1.8.6-.3 1-1.3 1-2.1s3-6.2 6.8-12c3.7-5.8 7.7-12.5 9-15 2-3.7 4.2-5.8 4.2-3.9zm11.9 6.7c-.6 1.2-1.5 2.5-1.9 2.8-1.1.8-2 6.5-1.2 7.6.4.6 1.5 1.4 2.6 1.7 1.7.7 1.7.9.2 3.2-.9 1.3-1.6 3.1-1.6 4 0 .8-.7 1.5-1.6 1.5-1.4 0-1.5-.7-1.1-3.8.4-2.4.3-3.2-.3-2.2-1.4 2.3-2.4.3-1.2-2.5.6-1.4.9-3.1.6-3.9-.6-1.5 1.7-6.2 4.5-9.8 2-2.3 2.6-1.5 1 1.4zm57.7-2.1c.3.6-.5 2.3-2 3.7-2.1 2.2-2.6 2.3-2.6.9 0-.9.5-1.7 1-1.7.6 0 1-.9 1-2 0-2.2 1.5-2.7 2.6-.9zm-403.6.3c0 .3-.4.8-1 1.1-.5.3-1 .1-1-.4 0-.6.5-1.1 1-1.1.6 0 1 .2 1 .4zm426 0c0 .2-.7.9-1.5 1.6-1.3 1.1-1.4 1-.9-.4.5-1.4 2.4-2.3 2.4-1.2zm-73.6 5.5c-1 1.7-2.5 3.1-3.2 3.1-1.5 0-1.2-.6 2.7-5.3 2.2-2.6 2.5-1.2.5 2.2zm-346.7 8c2.5 5.3 5 11.2 5.7 13.1.7 1.9 3.1 8.4 5.4 14.5 7 18.7 13.2 36.3 13.2 37.5 0 .6 1.1 1.5 2.4 2 3 1.1 4.2 6 1.5 6-.9 0-1.9.6-2.2 1.2-.2.7-.8.1-1.2-1.4-.4-1.5-1.3-2.9-2.1-3.2-.8-.3-1.4-1.4-1.4-2.3 0-1-1.3-4.5-3-7.8-1.6-3.3-3-6.8-3-7.7 0-.9-.4-1.9-.9-2.3-.5-.3-1.2-1.9-1.6-3.5-.4-1.7-1.1-3-1.6-3s-.9-1.3-.9-2.9c0-1.7-.4-3.3-1-3.6-.5-.3-1-1.7-1-3.1 0-1.3-.3-2.4-.8-2.4-.7 0-2.1-2.7-4.1-8.3-.6-1.5-1.6-2.7-2.3-2.7-.8 0-.9-.3-.1-1.1 1.1-1.1.6-5.6-.8-6.5-.5-.3-.9-1.4-.9-2.5 0-1-.4-1.9-1-1.9-.5 0-1-.8-1-1.8 0-.9-.6-2.9-1.4-4.4-1-1.9-1.1-2.9-.3-3.7.8-.8.8-1.1-.1-1.1-.7 0-1.2-.9-1.2-2s-.4-2-.9-2-.7-.9-.4-2c.8-3.2 2.2-1.4 7 8.9zm392.3-5.6c0 .2-1 1.2-2.2 2.3l-2.3 1.9 1.9-2.3c1.8-2.1 2.6-2.7 2.6-1.9zm-38.5 3.9c-.4 1.1-2.1 4.4-3.8 7.2-1.6 2.8-4.6 8.2-6.5 12.1-2 3.8-4.2 7.6-4.9 8.3-.7.7-1.3 1.9-1.3 2.6 0 1.5-5.4 7.9-15.3 18.1-7.2 7.5-12.3 14.2-11.4 15.1.2.2 2.9-2.1 6-5.3 3.2-3.1 6-5.4 6.3-5.1.4.5-3.8 9.1-8.6 17.2-1 1.7-3 5.2-4.3 7.7-2.6 4.7-6.6 11.9-7.4 13.2-.2.4-1.4.1-2.5-.7-1.1-.8-2.7-1.2-3.5-.9-.9.4.2-2.8 3-8.3 2.5-4.9 6-12.1 7.9-15.9 1.8-3.9 3.6-7.2 4.1-7.3.4-.2.7-1 .7-1.8 0-2.2 10.5-18.6 15.3-23.9 1-1.1 2-3 2.3-4.2.4-1.3.9-2.3 1.4-2.3.4 0 1.5-1.6 2.6-3.5 1-1.9 2.2-3.5 2.5-3.5.8 0 10.9-14.9 10.9-16.1 0-1 5-4.9 6.2-4.9.5 0 .6 1 .3 2.2zm21.5-.8c0 .7-.7 1.9-1.5 2.6-.8.7-1.5 1.9-1.5 2.7 0 .8-.5 1.1-1.2.7-.8-.5-.9-.2-.5.9.5 1.2.1 1.7-1.3 1.7-2.2 0-2.7 1.6-.7 2.3.6.3-.3.6-2.2.6-2.9.1-3.2.3-2.1 1.6 1 1.2 1 1.5-.2 1.5-2.1 0-6.5 5-7.3 8.2-.4 1.6-1.1 2.8-1.6 2.8s-.9.7-.9 1.6c0 .9-.9 1.8-2 2.1-1.1.3-2 .9-2 1.3 0 .5-.7 1.6-1.6 2.4-.9.9-1.7 2.7-1.8 4-.4 2.9-7.9 13.6-14.3 20.3-2.9 3-2.9 4.9-.1 5.6 2 .6 2 .7.4 2.9-.9 1.3-1.9 3-2.3 3.8-.4.8-1.2 2-1.7 2.6-.6.6-2.4 2.8-4.1 4.9-1.6 2.1-3.7 4.6-4.6 5.5-3.5 3.8-9.6 12.6-9.3 13.5.2.5-.8 1.8-2.1 2.8-2.2 1.5-2.5 1.6-2.5.2 0-.8.5-1.5 1-1.5.6 0 1-.5 1-1.1 0-.6.9-2.2 2-3.6s2-3.3 2-4.2c0-.9 1.4-3.2 3.1-5.1 3.1-3.6 12.9-16.5 14.3-18.8.4-.7.2-1.9-.4-2.7-.9-1.1-.8-2.1.3-4.2.8-1.5 2.7-5 4.1-7.7 1.4-2.7 4-5.9 5.8-7.2 2.2-1.7 2.7-2.4 1.5-2.4-.9 0-1.7-.4-1.7-.9 0-1.1 5-8.5 6.1-8.9.5-.2.9-.8.9-1.3 0-1.3 9-12.9 10.1-12.9.5 0 .9-.6.9-1.4 0-.7.9-1.6 2.1-1.9 1.1-.3 2.3-1.5 2.6-2.6.3-1.2 1.1-2.1 1.7-2.1 1.3 0 7.6-6.7 7.6-8 0-.8 1.6-1.8 3.3-1.9.4-.1.7.5.7 1.3zM111 193c0 .5-.4 1-1 1-.5 0-1-.5-1-1 0-.6.5-1 1-1 .6 0 1 .4 1 1zm278.2 5.2c-.7.7-1.2 2.2-1.2 3.5 0 1.2-.8 2.6-1.7 3.2-1 .5-1.5 1.3-1.1 1.7.5.4.3 1.2-.2 1.9-.5.6-2.1 4.3-3.6 8.1-1.4 3.8-2.9 7.3-3.4 7.9-.9 1.2-9.7 17.7-9.9 18.7-.3 1.6-1.5 4.5-3.7 9.5-1.9 4.2-3 5.4-5.4 6-2.2.6-3.7 2-5.2 4.8-1.1 2.2-2.5 4.7-2.9 5.5-.5.8-1.3 2.4-1.8 3.5-.5 1.2-1.6 2.7-2.6 3.5-.9.7-2.5 3-3.5 4.9-1 2-3 4.7-4.4 6-3.1 2.9-3.4 4.6-.6 3.1 1.7-.9 2-.8 2 1 0 2.1-2.4 2.8-3.5.9-.4-.6-1.3-.8-2.1-.5-.8.3-1.4.1-1.4-.4 0-.6.4-1 .9-1s1.3-1.5 1.6-3.3c.4-1.7 1.1-3.4 1.4-3.7.4-.3 1.8-2.8 3.1-5.5 2.8-5.8 9.3-15 11.6-16.3.9-.5 1.7-2.1 1.7-3.5.2-2.7 2.7-4.8 2.7-2.3 0 2.8 3.9.4 5.3-3.3.9-2 2.2-4.3 3.1-5 2.2-1.8 2-3-.6-4.1-2.1-.8-2.1-.9-.3-.9 2-.1 4.8-3.7 7.4-9.6.7-1.7 1.9-4.3 2.7-5.8.8-1.6 1.4-3.3 1.4-3.9 0-1.8 10.1-22.2 11.9-24 .9-.9 2-1.7 2.6-1.7.5-.1.4.4-.3 1.1zm-365.3 2.4c1.2 1.5 2.1 3.3 2.1 4 0 .7.6 1.7 1.3 2.1 1.5.9 11.7 21.4 11.7 23.5 0 .8.7 2.3 1.5 3.4.8 1 1.5 2.7 1.5 3.7s.7 2.9 1.6 4.2c.9 1.4 1.3 2.5.9 2.5-.9 0-3-2.2-3.8-4-.4-.8-2.7-5.1-5.2-9.5-2.4-4.4-5.7-10.5-7.3-13.5-1.5-3-3.7-7.1-4.7-9-1-1.9-1.8-4.2-1.7-5.2.2-.9-.2-1.9-.8-2.3-.5-.3-1-1-1-1.6 0-1.7 1.8-.9 3.9 1.7zm99.5 5.6c-.3.5 0 1.5.6 2.3 1 1.2 1 1.5-.1 1.5-1 0-1 .3-.2 1.1.6.6.9 1.8.6 2.5-.3.8 0 1.4.7 1.4s1 .7.6 1.5c-.3.8-.1 1.5.4 1.5 1.3 0 1.3 3.7 0 4.5-.7.4-.6 1.4.2 2.8.6 1.2 1.1 2.3 1 2.4-.7 1 .1 2.3 1.3 2.3 2 0 1.9 1.6-.1 2.4-2 .8-.9 2.5 2.4 3.7l2.7 1.1-2.4 1.9c-1.3 1.1-2.1 2.3-1.7 2.6.4.4 1.1.1 1.5-.6.6-.9 1.1-1 1.5-.2.8 1.3-3.7 2.6-6 1.7-.8-.3-1.2-1.1-.9-1.7.4-.5 0-1.8-.9-2.8-.9-1-1.4-2.5-1-3.5.3-.9.2-1.6-.3-1.6-.6 0-1-1.2-1.1-2.8 0-1.5-.7-5.5-1.6-9-.8-3.4-1.4-6.3-1.4-6.5 0-.1-.5-2.2-1.2-4.7-.9-3.3-.9-4.5 0-4.8.6-.2 1.6-1 2.3-1.7 1-1.2 1.4-1.1 2.4.2.7.9 1 2 .7 2.5zm273.5-1.5c-.7 1-1.5 2-1.6 2.2-.2.2-.3-.5-.3-1.7 0-1.4.6-2.2 1.6-2.2 1.4 0 1.5.3.3 1.7zM81 210c0 .5-.2 1-.4 1-.3 0-.8-.5-1.1-1-.3-.6-.1-1 .4-1 .6 0 1.1.4 1.1 1zm3 7c0 .5-.2 1-.4 1-.3 0-.8-.5-1.1-1-.3-.6-.1-1 .4-1 .6 0 1.1.4 1.1 1zm1.6 3.4c1.5 1.6 1.9 3.6.6 3.6-1.2 0-3.2-2.3-3.2-3.7 0-1.7.8-1.6 2.6.1zm284.2 4.8c-1.2 2.4-2.4 5.3-2.7 6.4-.5 1.8-1 2-2.9 1.3-2.2-.8-2.2-.9-.5-3.5 2.3-3.6 6.6-8.4 7.4-8.4.4 0-.2 1.9-1.3 4.2zm-280.4 2c1.8 2.5 2.1 6.4.7 7.2-.8.5-2.1-1.4-2.6-4-.2-.6-.6-2.1-1-3.3-.8-2.8 1-2.7 2.9.1zm355.1-1.2c-.3.5-1 1-1.6 1-.5 0-.9-.5-.9-1 0-.6.7-1 1.6-1 .8 0 1.2.4.9 1zm-314 1c.3.6-.1.7-.9.4-1.8-.7-2.1-1.4-.7-1.4.6 0 1.3.4 1.6 1zm293.1 1.8c-1.7 1.6-1.8 1.6-.5-.5.7-1.2 1.5-2 1.8-1.7.3.2-.3 1.2-1.3 2.2zm-7.6-1c0 1.2-2.8 4.8-3.3 4.2-.8-.8 1.1-5 2.3-5 .5 0 1 .4 1 .8zm5.4 5.7c-.4.8-.8 1.5-1 1.5-.2 0-.4-.7-.4-1.5s.4-1.5 1-1.5c.5 0 .7.7.4 1.5zm-9.4.6c0 1.2-6 10.3-7.2 10.7-.4.2-.8 1-.8 1.7 0 .8-.9 1.9-2 2.5-2.4 1.3-2.7-.2-.5-2 .9-.7 3.2-4.2 5.1-7.7 3.3-5.8 5.4-7.9 5.4-5.2zm-312 7.8c1.4 4.9 1.3 6.1-.5 6.1-.8 0-1.5-.9-1.5-2s-.4-2-.9-2c-1 0-2.1-6-1.4-7.3.9-1.4 3.2 1.4 4.3 5.2zm316.6-.7c-2.8 4.6-5.7 6.8-3.6 2.7 1.2-2.4 5-6.9 5.7-6.9.2 0-.7 1.9-2.1 4.2zM106 242c0 .5-.2 1-.4 1-.3 0-.8-.5-1.1-1-.3-.6-.1-1 .4-1 .6 0 1.1.4 1.1 1zm248.8 3c-.7 1.1-1.5 1.5-1.7.9-.2-.6.3-1.5 1-2 2-1.2 2.1-1.1.7 1.1zM51 245c0 .5-.7.7-1.5.4-.8-.4-1.5-.8-1.5-1 0-.2.7-.4 1.5-.4s1.5.4 1.5 1zm82.4 2.4c-.3 1.3-.1 2.7.5 3.1.6.3.9 1.1.5 1.6-.3.5-.1 1.6.6 2.4.6.7 1.3 2.4 1.4 3.7.2 1.3.8 3.6 1.5 5.1.6 1.6 1.1 3.3 1.1 3.9 0 2 2.4 7.8 3.2 7.8.4 0 .8 1.4.8 3.1 0 1.7.5 3.9 1.1 5 .6 1.1 1.6 4.3 2.4 7.1 1 4.2 1 5-.1 5.5-2.3.9-4.3-.5-5-3.4-.3-1.5-2.1-7.5-4-13.3-2-5.8-3.6-11.2-3.8-12-.1-.8-.9-3.1-1.7-5-.7-1.9-1.2-3.9-1.1-4.4.2-.5-.5-1.7-1.4-2.7-1-1.1-1.4-2.2-1.1-2.6.4-.3.2-1.2-.4-1.9-1.3-1.6 1.7-5.4 4.3-5.4 1.4 0 1.7.5 1.2 2.4zm-80.3 4.2c.9 2.8 2.2 4.9 3.3 5.4 1.4.5 1.6.9.7 1.4-.9.6-.8 1.4.4 3.3.9 1.4 1.3 2.8.9 3.1-.4.4-.9 0-1.2-.8-.3-.8-1.8-2.7-3.4-4.2-1.6-1.5-2.7-3.2-2.3-3.8.3-.5.2-1-.3-1-1.1 0-2.4-5.8-1.6-7.1 1.1-1.9 2.2-.7 3.5 3.7zm49.7.2c.2.7-.3 1.2-1.2 1.2-.9 0-1.6-.7-1.6-1.6 0-1.7 2.2-1.4 2.8.4zM358 251c0 .5-.8 1-1.7 1-1.5 0-1.6-.2-.3-1 1.9-1.2 2-1.2 2 0zm50.6 3.9c-.9 1.7-1.5 3.3-1.4 3.7.4.7-3.2 2.7-3.8 2.2-.2-.3 1-2.6 2.7-5.2 3.3-5.2 5-5.7 2.5-.7zm-68.6.8c0 1.7-8.4 13.3-9.6 13.3-.8 0-1.4.5-1.4 1.1 0 .6.9.8 2 .4 1.7-.5 1.2 1-3.3 9.9-3 5.8-5.9 11.1-6.4 11.8-.6.7-2.5 4-4.3 7.3-4.4 8.2-5.1 9-6.4 7.3-.6-.7-2.4-1.9-3.9-2.6-3.4-1.5-3.3-2 2-9.9 2.1-3.1 4.3-6.3 4.8-7.1 1.8-2.7 3.9-5.4 7.3-9 1.7-1.9 3.2-4 3.2-4.6 0-.7 2.1-3.4 4.6-6.1 2.5-2.8 5.7-6.7 7.1-8.8 2.3-3.4 4.3-4.8 4.3-3zM104.5 261c.3.5-.1 1-1 1s-1.3-.5-1-1c.3-.6.8-1 1-1 .2 0 .7.4 1 1zm-40.2 2.7c6.2 11.9 7.7 15 7.7 16.7 0 4.1-4.1-2.3-9.4-14.7-1.9-4.4-1.9-4.7-.7-4.7.5 0 1.6 1.2 2.4 2.7zm55.2 15.4c.4 1.9 1.3 4.3 2.1 5.4.7 1.1 1.6 3.7 1.9 5.8.4 2 1.1 4 1.6 4.3 1.8 1 .9 2.5-1.3 2.2-1.8-.2-2.5-1.3-3.3-4.3-.5-2.2-1.2-4.2-1.6-4.5-.3-.3-.6-1.2-.7-2-.1-.8-.8-4-1.7-7-.8-3-1.5-6.8-1.5-8.5 0-3 .1-3 1.9 1.1 1 2.3 2.2 5.6 2.6 7.5zM411 268.8c0 1.3-1.2 2.2-2.2 1.6-1-.6-.1-2.4 1.3-2.4.5 0 .9.4.9.8zM92 274c0 1.1.7 2.3 1.5 2.6 1.7.7 2.1 2.4.5 2.4-.5 0-1.6-1.3-2.5-3-1.8-3.4-1.8-4-.5-4 .6 0 1 .9 1 2zm314-1c0 .5-.7 1-1.6 1-.8 0-1.2-.5-.9-1 .3-.6 1-1 1.6-1 .5 0 .9.4.9 1zm-8 4c-1 1.9-3 2.8-3 1.4 0-.6 3-3.3 3.8-3.4.1 0-.2.9-.8 2zm-43-.3c-.1 1.8-3 4.4-4 3.8-.8-.5-.6-1.3.6-2.6 1.7-1.9 3.4-2.5 3.4-1.2zm63 .3c0 .5-.4 1-1 1-.5 0-1 .6-1 1.3 0 1.9-19.7 23.4-20.6 22.5-.8-.9 6.2-10.3 13.4-17.9 7.3-7.6 9.2-9.1 9.2-6.9zm12.2 2.2c-.7.7-1.2.8-1.2.2 0-1.4 1.2-2.6 1.9-1.9.2.3-.1 1.1-.7 1.7zM394 281c0 .5-.4 1-1 1-.5 0-1-.5-1-1 0-.6.5-1 1-1 .6 0 1 .4 1 1zm35 1.2c0 .5-.9.7-1.9.3-2.1-.6-4.7 2.7-3.6 4.5.3.5.1 1.1-.5 1.5-.6.4-.8 1-.5 1.4.2.5-.6.6-1.9.4-1.7-.4-2.9.2-4.2 2.2-7.3 10.4-30.3 34.2-39.8 41.1-3.3 2.4-6.1 4.2-6.4 4-1.6-1.7 14.1-21.5 18.6-23.5 1.7-.8 3.2-2.1 3.2-2.8 0-.7.6-1.3 1.3-1.3 1.6 0 12.1-10.1 21.9-21.1 7-7.8 7.9-8.5 10.7-8.1 1.7.2 3.1.9 3.1 1.4zm-327.7 1.5c.3 1.6 1.2 4.8 2.2 7.2 1.8 4.9 1.7 7.5-.2 6.3-.7-.5-1.7-3.2-2.3-6.2-.6-3-1.5-5.9-2-6.4-1.5-1.5-1.2-3.6.4-3.6.7 0 1.6 1.2 1.9 2.7zm300.8-1c-.5 1-3.1 3.8-5.6 6.3-5.8 5.5-4.3 1.8 1.6-4.1 4.2-4.2 5.5-4.9 4-2.2zm-51.6.3c-.3.5-1 1-1.6 1-.5 0-.9-.5-.9-1 0-.6.7-1 1.6-1 .8 0 1.2.4.9 1zM79 284c0 .5-.7 1-1.5 1s-1.5-.5-1.5-1c0-.6.7-1 1.5-1s1.5.4 1.5 1zm308.3.7c-.7 2.2-10.4 12.3-11.6 12.3-1.1 0 3.2-6 7.6-10.8 3.4-3.5 5-4.1 4-1.5zm-24.5 1.5c-1.5 2.3-3.5 6-4.8 8.8-.9 2-8.2 15.6-9.5 17.8-.6.9-2.8 4.8-4.9 8.5-2.1 3.7-4 6.7-4.2 6.5-.8-.8 1.8-9 4.6-14.2 1.6-3.2 3-6.4 3-7 0-2.4 6.2-12.6 10.6-17.5 4.7-5.2 7.8-6.9 5.2-2.9zm63.4 0c-.7.7-1.2.8-1.2.2 0-1.4 1.2-2.6 1.9-1.9.2.3-.1 1.1-.7 1.7zm-317.2.9c0 .6 1.4 3.1 3.1 5.6 3 4.4 3.1 4.5.8 4.1-1.7-.2-2.5-1.2-3.2-3.8-.5-1.9-1.3-3.9-1.8-4.5-1.2-1.2-1.2-2.5.1-2.5.6 0 1 .5 1 1.1zm-29.3 2.5c-.9.9-2.8-.6-2.1-1.8.4-.6 1-.6 1.7.1.6.6.8 1.3.4 1.7zM59 289c0 .5-.2 1-.4 1-.3 0-.8-.5-1.1-1-.3-.6-.1-1 .4-1 .6 0 1.1.4 1.1 1zm11.4 1.6c.3.8.2 1.2-.4.9-.6-.3-1-1-1-1.6 0-1.4.7-1.1 1.4.7zm17.8 4.4c1.6 1.6 2.4 3.2 1.8 3.5-.5.3-1.7-.3-2.7-1.4-.9-1.1-2-1.8-2.5-1.5-.4.3-1.1-.2-1.4-1-.3-.9-1.2-1.6-2-1.6s-1.4-.5-1.4-1.1c0-2 5.3.1 8.2 3.1zm301.8 1.8c0 .9-10.5 12.7-11.6 13-.7.2 0-2 1.7-5.2 1.7-3.1 2.7-5.6 2.3-5.6-.4 0 .1-.7 1.2-1.4 1.6-1.3 6.4-1.9 6.4-.8zM79 298c0 .5-.2 1-.4 1-.3 0-.8-.5-1.1-1-.3-.6-.1-1 .4-1 .6 0 1.1.4 1.1 1zm257-.1c0 1.7-3.9 9.7-6.4 13-1.5 1.9-2.6 4.3-2.6 5.2 0 2.5-2.6 3-4.5.9-1.6-1.7-1.4-2.2 2.6-8.7 5-8 10.9-13.7 10.9-10.4zm-207.9 6.2c1.5 3.1 2.8 6.6 3.9 10.4.6 2.2 1.5 4.9 2 6 1.5 3.4 3.2 9.6 2.8 10-.5.6-4.1-6.7-7.8-16-1.8-4.4-3.7-8.5-4.2-9.2-1.1-1.4-.1-3.6 1.5-3 .6.2 1.4 1 1.8 1.8zm-11-.1c1 .6 1.9 1.5 1.9 2s1.1 3.3 2.4 6.2c1.3 2.9 5.8 14.4 10 25.6 4.2 11.2 8.1 21.1 8.5 22 2 4 3.4 10 3.2 13.4-.1 2.8.2 3.8 1.3 3.8.9 0 1.2.7.9 2-.3 1.3.1 2.2 1.2 2.6 2.7 1.1 3.7-.9 2-4.2-2-3.8-1.9-5.1.3-6.3 1.7-.9 1.8-1.7 1.1-6.8-2.3-16-2.3-15.6-.8-15.1.8.3 1.8 2 2.4 3.9.5 1.9 1.3 3.8 1.6 4.4.4.5 1 2.6 1.4 4.5.4 1.9 1.2 4.4 1.8 5.5.6 1.1 1.2 3.5 1.4 5.4.1 1.8.9 4.1 1.8 5 2.7 3.1 1.8 5.5-3 8.1-2.5 1.4-4.5 2.8-4.5 3.2 0 .4-3.4 4.1-7.7 8.2-7.2 7.2-9.7 8.4-9.1 4.8.3-2.4-5-13.2-6.6-13.2-2 0-2.6 1.1-1.7 2.9.5.9 1.1 2.8 1.5 4.3 1 4.3-1.5 3.4-4.5-1.5-6.1-10-7.3-15.6-2.9-14.2 2.4.8 2.5.1.3-3.6-1.4-2.4-1.5-3.1-.4-4.1 1.1-1 1.4-1 1.8-.1.3.7 1.2 1.3 2.1 1.3 1.5 0 1.5.2.2 1-1.2.8-1.2 1 .3 1.5.9.4 3.9 2.9 6.5 5.6 6.1 6.1 9.1 5.7 8.3-1.1-.1-.8-.3-4.4-.6-8.1-.4-5.9-2.1-11.3-4.2-12.8-1.2-.9-5.3-9.6-5.3-11.3 0-3-3.1-11.7-5.4-15.1-1.3-1.9-2.2-3.7-2-4 .2-.2-.7-3.9-2.1-8.1-1.4-4.3-2.3-8.2-2-8.7.4-.5.1-.9-.5-.9-1.1 0-4-5.8-4-8 0-1.3.6-1.3 3.1 0zm260.9-.4c0 .3-.7 1.3-1.6 2.1-.8.9-1.3 2.4-1.1 3.4.3 1-.2 2-1 2.3-.8.3-2.5 3-3.9 6-1.3 3-3.1 6-3.9 6.6-.8.7-1.5 1.7-1.5 2.2 0 .5-1.1 2-2.4 3.4-2 2.2-2.6 2.4-4.3 1.3-2.1-1.3-5.3-.7-5.3 1 0 .6.7.8 1.5.5.8-.4 1.5-.1 1.5.5s-.4 1.1-.8 1.1-1.6 1.3-2.5 2.9c-1.6 2.7-2 2.9-4.7 1.9-2.8-.9-2.9-1.1-1.5-3.1 1.8-2.7 8.8-10.8 13.3-15.4 1.7-1.8 3.2-3.7 3.2-4.1 0-.9 13.2-13.2 14.3-13.2.4 0 .7.3.7.6zm17.5.4c-.3.5-1.1 1-1.6 1-.6 0-.7-.5-.4-1 .3-.6 1.1-1 1.6-1 .6 0 .7.4.4 1zm20.5-.3c0 .5-1.2 2.1-2.8 3.8-1.5 1.6-4.7 5.5-7.2 8.5-2.4 3-7.1 8.3-10.3 11.7-3.3 3.3-7.1 7.8-8.6 9.9-1.4 2-4.9 6-7.7 8.8-2.8 2.8-5.3 5.9-5.7 6.8-.3.9-1.8 2.4-3.2 3.4-2.1 1.4-3.1 1.5-5.1.6-5.8-2.7-4.1-5.4 10.6-16.8 4.9-3.8 15.6-13.8 23.7-22.2 13.7-14.1 16.3-16.4 16.3-14.5zm-331.8 2c.9 1 1.9 2.8 2.2 4 .4 1.3 1.1 2.3 1.6 2.3.4 0 1.1 1.5 1.4 3.4.4 1.9 1.3 3.9 2.1 4.6.8.7 1.5 2.1 1.5 3.1 0 1.1.4 1.9.8 1.9 2 0 1.9-1.4-.4-4.7-2.4-3.6-3.1-6.3-1.6-6.3.4 0 2.8 3 5.2 6.7 2.4 3.8 4.6 7 5 7.3.5.5 3.3 6 3.5 7 0 .3 1.3 2.5 2.7 5 3.7 6.2 7.5 15.1 8.9 20.5.6 2.5 1.5 4.8 2 5 .4.3.6 1.2.3 1.9-.3.8-.1 1.7.5 2.1 1.9 1.1 1.2 2.7-1.1 2.3-1.8-.3-7.7-8-10.4-13.8-.4-.8-1.7-2.9-3-4.5-2.7-3.8-7-11.5-14.1-25.7-3.1-6.2-6.1-11.9-6.6-12.7-.6-.7-1.2-1.9-1.3-2.7-.1-.7-.9-2.7-1.7-4.3-2.1-4.2-.4-5.7 2.5-2.4zm15.5.2c2.2 2.6 6.3 12.8 6.3 15.7 0 1.5-.5 2.1-1.2 1.8-1.1-.4-12.6-16.2-13.6-18.6-.8-1.8 6.9-.7 8.5 1.1zm10 1.8c2.9 5.1 6.3 14.4 5.7 15.4-.2.4 0 1 .6 1.4 1.3.8 1.3 2.5 0 2.5-.6 0-1.5-1.2-2.1-2.8-.6-1.5-2.5-5.9-4.3-9.7-4.4-9.2-4.8-10.5-3.3-10.5.8 0 2.3 1.7 3.4 3.7zm194.7.6c.8 1.2.8 2 .1 2.5-1.4.9-9.7 18.3-14.1 29.5-1 2.7-4 7.4-6.6 10.5-7 8.4-8.3 11.1-6.5 12.9 1.2 1.2.7 2.7-3.6 11.4l-5 9.9h-4.4c-4.6 0-5.4-1.1-2.5-3.2.9-.7 2.6-3.1 3.8-5.3 3.1-6 8.6-15.9 9.4-17 .4-.6 1.1-2.5 1.5-4.2.3-1.8 1-3.5 1.5-3.8.9-.5 12-22.5 12-23.7 0-.3 1.5-3.3 3.4-6.7 1.9-3.3 3.8-7 4.2-8.3 1.1-3.5 3.6-6.9 4.7-6.5.6.2 1.5 1.1 2.1 2zm2.6 7.7c-1.8 2.5-4 4-4 2.6 0-1.1 3.1-6 4.2-6.7 2.2-1.4 2.1.9-.2 4.1zm15.5 5.9c.8 1.3-11.5 24.9-17.6 33.8-1.6 2.3-2.9 4.5-2.9 5 0 .4-1.4 2.4-3 4.3l-2.9 3.5-.1-2.8c0-1.5.4-2.7.9-2.7.4 0 1.9-2.3 3.2-5.1 1.3-2.9 4.3-8.8 6.6-13.3 2.4-4.5 5.6-10.8 7.3-14.1 1.6-3.3 3.5-6.8 4.2-7.8 1.4-1.9 3.3-2.2 4.3-.8zm-169.9 14.2c.7.8 1.5 3 1.9 4.9.4 1.9 1.8 5.4 3.1 7.7 3 5.2 12.8 15.3 14.9 15.3.8 0 1.5.4 1.5 1 0 .5-2.3 1-5.1 1s-6 .5-7.1 1.1c-1.9 1-2 .9-1.4-1.5.5-1.9.2-2.6-.8-2.6-1.5 0-10.1-24.4-9.1-26 .3-.5.1-1.1-.5-1.5-.5-.3-1-1.8-.9-3.3l.1-2.7 1.1 2.6c.7 1.4 1.7 3.2 2.3 4zm-36.8-2c.7 1.2 1.1 2.4.8 2.7-.6.6-3.5-2.7-3.6-4.1 0-1.4 1.5-.7 2.8 1.4zm242 5.9c-.7 1.1-1.6 2-2 2-.5 0-.3-.9.4-2s1.6-2 2-2c.5 0 .3.9-.4 2zM141 342.6c0 .8-.4 1.2-1 .9-.5-.3-1-1.3-1-2.1s.5-1.2 1-.9c.6.3 1 1.3 1 2.1zm-18.9 8.1c3.9 5.1 11.9 20.1 11.9 22.1 0 .5.5 1.3 1.2 2 1.3 1.3 2 6.2.9 6.2-.8 0-9.1-9.5-9.1-10.4 0-.3-1.3-2.8-3-5.6-1.6-2.8-3-5.6-3-6.3 0-.7-.7-2.5-1.5-4-1.5-2.9-3.1-9.7-2.2-9.7.2 0 2.4 2.6 4.8 5.7zm192.9 3.5c0 1.9-1.8 4.3-2.5 3.6-.9-.9.4-4.8 1.6-4.8.5 0 .9.6.9 1.2zm-2.6 7c-.4 1.3-1 3.9-1.3 5.8-.7 3.9-2.1 4.3-3.7 1.1-1.5-2.9 1.2-9.1 3.9-9.1 1.5 0 1.7.5 1.1 2.2zm-125.6.1c1.5 1.8 2.6 6.7 1.5 6.7-3.5 0-12.3-2.5-12-3.4.4-1.2 6.5-4.6 8.3-4.6.6 0 1.6.6 2.2 1.3zm107.2-.8c0 1.7-4.6 9.3-6.6 11-1.5 1.2-2.5 3.3-2.6 5.2-.1 1.9-.8 3.3-1.5 3.3s-1.3 1-1.3 2.2c0 6-3.1 9.3-4.3 4.8-.8-3.2 1.9-12.9 4.2-15.1 1.1-1.1 2.1-2.4 2.1-2.8 0-.5 1.2-2.8 2.7-5 1.8-2.9 3.4-4.1 5-4.1 1.3 0 2.3.2 2.3.5zm-98.6 8.6c-.8 1.3-2.1 1.1-2.7-.5-.4-1 0-1.2 1.4-.9 1 .3 1.6.9 1.3 1.4zm-21.6 3.4c.2 2.5-.2 3.2-2.9 4.4-2.6 1.2-3.2 1.2-4 0-.5-.8-.9-2-.9-2.7 0-.6-.4-1.2-1-1.2-.5 0-1 .4-1 1 0 .5-.4 1-1 1-1 0-.3-2.7 1.3-4.8.6-.8 2.6-1.2 5.1-1 3.7.3 4.1.6 4.4 3.3zm6.6-.4c-.7 1.2-4.4 1.2-4.4 0 0-.5.6-1.1 1.3-1.4 1.7-.6 3.8.3 3.1 1.4zm10 .9c1.7.5 5.7 1.7 8.9 2.6 3.1.9 5.7 2.1 5.7 2.5 0 .5-3.7.9-8.2 1-4.6.1-9.4.4-10.8.8-1.4.4-3.8.4-5.4 0-2.8-.8-6.1 1-6.1 3.5 0 .6-1.9 1.4-4.2 1.9-2.4.4-4.3 1.3-4.3 1.9 0 .7 1.2.8 3.3.3 1.7-.3 6-1 9.4-1.5 3.4-.4 6.6-1 7.1-1.4.5-.3 2.6-.6 4.8-.7 2.1-.1 4.7-.9 5.7-1.8 1.6-1.3 1.9-1.3 2.7-.1.6.8 1 1 1 .4s1.7-1.1 4-1.1c3.2 0 3.8.2 2.9 1.3-1.1 1.3.2 1.7 9.1 2.7 3.7.4 11.4 3 16.7 5.6 2.5 1.2 3 1.8 2.1 2.8-.7.9-2.1 1.2-3.8.8-1.9-.4-3.4 0-5.1 1.4l-2.4 2 4.6.1c5.2 0 10.9-2.4 10.9-4.6 0-2.3-2.7-4.5-6.9-5.8-4-1.1-5.1-3.3-1.6-2.9 1.1.1 6.1.6 11.1 1.1 5 .5 9.6 1.2 10.3 1.7.9.5 1.1 2 .7 4.6-.8 5 .7 5.7 3.3 1.5 2.2-3.4 5.7-5.1 8.5-4 1.9.7 2.1 2.1.4 2.7-1 .3-1 .7-.1 1.7s1.6.9 3.3-.3c2-1.4 2.5-1.3 5.1.1 1.6 1 2.9 2.3 2.9 3 0 .7-1.4 3.7-3.1 6.8-2.1 3.6-2.8 5.9-2.2 6.5 1 1 4.6-3 7.2-7.9 1.2-2.3 5.1-3.1 5.1-.9 0 .6 1.7 3 3.8 5.3 4.2 4.6 6.2 7.7 6.2 9.7 0 .7 1.6 3.2 3.5 5.4 1.9 2.3 3.5 4.8 3.5 5.7 0 .8 1.1 3.2 2.5 5.2 3.4 5 3.2 7.2-1.5 12.7-1 1.2-4.1 5.1-6.9 8.6-2.8 3.5-6 7-7.1 7.8-1.1.8-2 1.9-2 2.4 0 1.9 4.3-1.4 10.4-7.9 3.4-3.6 7.3-7.8 8.8-9.4 1.4-1.5 3-2.8 3.5-2.8s1.6 3.7 2.6 8.2c.9 4.6 2.2 10.3 2.8 12.8 1.7 7.2 3.2 22.7 3.1 32.5-.3 21.1-5.8 42-15.7 59-1.6 2.7-3.2 5.2-3.5 5.5-.3.3-2.6 3.6-5.2 7.5-14 20.9-36.7 37-61.3 43.6-24.8 6.7-42.1 5.9-67-3-2.7-1-7-2.5-9.5-3.2-2.5-.7-7.9-3.3-12.1-5.6-4.2-2.4-8.1-4.3-8.6-4.3-.4 0-1.4-.9-2.1-2-.7-1.1-1.6-2-2.2-2-.9 0-7.2-6.1-12.5-12.3-5.2-6-13.7-23.7-11.5-23.7.6 0 1-.7 1-1.5s-.6-1.2-1.4-.9c-.9.3-1.5-.4-1.9-2.3-.8-4.4-1.2-5.7-1.8-6.8-2.5-4.2-4.5-38.4-2.7-45.5 1.1-3.9 1.5-6.4 2.2-12.7.3-2.4.8-4.8 1.2-5.4.4-.7.7-1.9.8-2.8.2-2.4 3.8-13.5 4.8-14.6.4-.5.8-1.9.8-3.1 0-1.3.4-2.5.9-2.9 1.9-1.1 6.1-9.9 5.6-11.6-.3-1 0-2.1.7-2.6.7-.4 2.4-2.9 3.7-5.6 1.3-2.6 3-5.2 3.8-5.8.7-.6 1.3-1.8 1.3-2.5 0-.8.3-1.4.8-1.4.4 0 1.6-1.9 2.7-4.1 1-2.3 2.5-4.4 3.2-4.6.7-.3 1.3-1.1 1.3-1.9 0-.7.9-1.8 2-2.4 1.1-.6 2-1.7 2-2.5 0-1.7 5.8-8.7 14.3-17.3 4.1-4.2 7.4-6.6 9.9-7.3 2.1-.5 3.8-1.5 3.8-2.2 0-1.7 4.5-5.7 6.3-5.7.8 0 1.8-.7 2.1-1.6.3-.8 1-1.2 1.6-.9.5.3 2.1-.5 3.5-1.9 4.7-4.7 7.2-5.4 12.9-3.6zm109.6.4c0 .8-.5 1.6-1.2 1.8-.7.3-.9 1.2-.5 2.3.7 1.7 1 1.6 3.7-1 3.6-3.4 4.2-3.1 3 1.6-.5 1.8-1.2 4.9-1.7 6.8-.5 2.1-1.6 3.7-3 4.2-1.3.5-2.2.5-2.1.1.1-.4-.6-2.1-1.5-3.9-2.1-4-2.2-8.2-.1-11.1 1.7-2.5 3.4-2.9 3.4-.8zM191 381c0 .5-.4 1-1 1-.5 0-1-.5-1-1 0-.6.5-1 1-1 .6 0 1 .4 1 1zm98 5.6c0 .9.9 2.9 2.1 4.5 2.8 3.9 3.7 9.9 1.6 9.9-1.2 0-1.6-.8-1.3-2.9.2-2.3-.4-3.7-2.5-5.7-2.8-2.7-3.7-5.3-2.2-6.7 1.1-1.2 2.3-.7 2.3.9zm-2.6 6.9c1.8 1.4 1.7 4.5-.2 4.5-1.5 0-4.4-3.8-3.7-4.9.8-1.4 1.6-1.3 3.9.4zm9.9 11.2c-.5 1.2-.7 1.2-1.4.1-1.3-2-1.1-2.8.5-2.2.8.3 1.2 1.2.9 2.1zm-164.8 2.8c0 1-.6 2-1.3 2.3-.7.2-1-.2-.6-1.1.3-.8-.2-1.7-1-2-.9-.4-1.6-1.1-1.6-1.6 0-.7.9-.7 2.3-.2 1.2.5 2.2 1.6 2.2 2.6zm24 456.6c-.2 2.8-.8 5.6-1.4 6.3-.6.7-.8 1.5-.6 1.8.3.3.1 2.5-.5 4.9-.6 2.4-1.3 5.7-1.5 7.3-.5 3.6-1.2 4.3-2.6 2.9-.7-.7-.8-1.7-.3-2.5.5-.7 1-2.2 1.1-3.3.2-1.1.8-4 1.4-6.4.7-2.4 1.3-5.3 1.4-6.5.4-4.4 1.8-9.6 2.6-9.6.4 0 .6 2.3.4 5.1z"/><path d="M474.8 67.8c-2.8 1.7-3.6 3.2-1.9 3.2.6 0 2.3-1.1 3.8-2.5 3.2-2.8 2.1-3.3-1.9-.7zM88 121c0 .5.5 1 1.1 1 .5 0 .7-.5.4-1-.3-.6-.8-1-1.1-1-.2 0-.4.4-.4 1zM88 261.9c0 .5.5 1.3 1 1.6.6.3 1 .2 1-.4 0-.5-.4-1.3-1-1.6-.5-.3-1-.2-1 .4zM322.9 279.7c-.8 1.6-1.9 3.2-2.5 3.8-.7.5-2.7 3.7-4.5 7-1.8 3.3-4 7.4-5 9.2-1 1.7-1.5 3.4-1.2 3.7 1 1 6.3-7.3 6.3-9.9 0-.8.4-1.5.9-1.5s1.4-1.5 2.2-3.3c.7-1.7 1.6-3.4 1.9-3.7 1.5-1.2 5.1-8 4.3-8-.6 0-1.6 1.2-2.4 2.7zM123 384c0 .5 1.4 1.5 3 2.4 1.7.8 3 1 3 .5s-.4-.9-1-.9c-.5 0-1-.6-1-1.3 0-.7-.9-1.3-2-1.4-1.1-.1-2 .2-2 .7zM360 323c-.6 1.1-.7 2-.2 2 .6 0 1.2-.9 1.5-2 .3-1.1.3-2 .1-2-.2 0-.8.9-1.4 2zM96.3 328.2c2.7 7 5.3 11.8 6.3 11.8 1.5 0-4.5-12.9-6-13-.4 0-.6.6-.3 1.2zM103 342c0 .5.5 1 1.1 1 .5 0 .7-.5.4-1-.3-.6-.8-1-1.1-1-.2 0-.4.4-.4 1zM104.8 345.7c.7.3 1.6.2 1.9-.1.4-.3-.2-.6-1.3-.5-1.1 0-1.4.3-.6.6zM106.5 349c.3.5.8 1 1.1 1 .2 0 .4-.5.4-1 0-.6-.5-1-1.1-1-.5 0-.7.4-.4 1zM107.5 352c.3.5.8 1 1.1 1 .2 0 .4-.5.4-1 0-.6-.5-1-1.1-1-.5 0-.7.4-.4 1zM195 393c0 .5.7 1 1.5 1s1.5-.5 1.5-1c0-.6-.7-1-1.5-1s-1.5.4-1.5 1zM167.8 395.1c-.6 1.9 1.6 9.9 2.7 9.5.5-.2.9-.9.7-1.7-.2-.7-.5-2.9-.6-4.8-.4-3.5-2-5.3-2.8-3zM215 397.1c0 .5.5.7 1 .4.6-.3 1-.8 1-1.1 0-.2-.4-.4-1-.4-.5 0-1 .5-1 1.1zM266 398c-.8.5-1.2 1.1-.9 1.4.2.3 1.1.1 1.9-.4.8-.5 1.2-1.1.9-1.4-.2-.3-1.1-.1-1.9.4z"/><path d="M178.5 399.7c1.5 3.5 2.5 10.7 1.6 11.2-.9.6-.8 4.7.1 5.6.3.4.4 1.4.1 2.4-.3 1.3-1.1 1.7-2.4 1.4-1.4-.4-1.9 0-1.9 1.6 0 1.1.5 2.1 1.1 2.1.5 0 .7.5.3 1.1-.3.6-1.5.8-2.6.6-1.3-.4-2.2.1-2.8 1.6-.6 1.6-.8 1-.6-2.3.2-2.5.4-7.1.4-10.3.2-4.3.6-5.7 1.7-5.7.8 0 1.5-.4 1.5-1 0-.5-.6-.7-1.4-.4-.8.3-1.7.1-2.1-.5-.4-.7-1.4-.5-3.1.6-2.1 1.3-2.9 1.4-4.9.3-3.2-1.7-4-.8-4.2 4.8 0 2.6-.6 6.9-1.3 9.7-.7 2.7-1.3 12.3-1.5 21.2-.1 8.8-.6 16.6-1 17.3-.4.7-.4 1.5.1 1.9.5.3 1 1.7 1 3.1.9 13.7 1.6 18.6 3.5 23 2.6 6 4.1 7 10.8 7 5.7 0 7.8-1.5 8.5-6.3 3.5-21.5 3.8-24.2 5.3-38.2 1.4-12.4.7-33.1-1.4-46.5-.4-2.5-.7-5-.8-5.5 0-.6-1.1-1.2-2.4-1.3-2-.3-2.3-.1-1.6 1.5zm-10 14.6c.3.7.1 3.2-.4 5.7s-1.7 8.4-2.7 13.2c-1 4.9-2.2 8.8-2.6 8.8-1 0-.2-22.7.8-25.5 1.2-3.3 4.1-4.6 4.9-2.2zm3.6 26c-.6 1.6-1.1 7.2-1.1 12.2 0 10.6-.8 15.7-2.4 15.2-.6-.2-1.1-1.9-1.1-3.8-.1-1.9-.3-3.9-.6-4.4-.7-1.3-.3-4.5 2.1-19 1.6-9.6 2.1-10.7 3.2-6.6.6 2.2.5 4.4-.1 6.4zm5.9-5.3c0 .5-.5 1-1.1 1-.5 0-.7-.5-.4-1 .3-.6.8-1 1.1-1 .2 0 .4.4.4 1zm.4 15.7c-.2 6.1-.2 6.1-1.8 4-.7-.9-1.1-2.9-.8-4.5.4-2.2.9-3 2.7-4.2 0 0 0 2.1-.1 4.7zm-1.4 15.9c0 .8-.5 1.2-1 .9-.6-.4-.8-1.1-.5-1.6.9-1.4 1.5-1.1 1.5.7zm-11 13c0 1.3.4 2.5.8 2.8 1.1.7.7 5.9-.5 6.3-2.3.8-5.6-12.1-3.6-14.1 1.1-1 3.3 2.4 3.3 5zm6.1-3.9c.2 2.3.1 7.4-.1 9.3-.3 1.9-2.8-5.8-2.9-8.8-.1-2.6 2.8-3.1 3-.5zm2.6 2.5c-.3.8-.6.5-.6-.6-.1-1.1.2-1.7.5-1.3.3.3.4 1.2.1 1.9zM240.5 403c-.3.5-.3 1 .2 1 .4 0 .2.4-.6.9-1.2.8-1.2 1.2.2 2.6 2.6 2.5 2 3.5-1.2 2.2-1.6-.6-3.2-1.9-3.5-3-.6-2.4-3-1.7-3.2.9-.1 1-.2 2.7-.3 3.6-.1 1-.5 1.8-.9 1.8s-.8-.8-.9-1.8c-.3-3.8-2.2-7.2-3.8-6.6-.8.4-2.2.1-3.1-.6-1.6-1.4-3.5-.3-4 2.2-.2.7-.6 2.4-1 3.8-1.7 6.5-2.2 47.9-.6 53.5.6 2.2 1.3 5.6 1.6 7.5 1.1 9 1.9 13.1 2.7 13.6.5.3.6 1 .3 1.6-.4.5.3 2.3 1.5 3.9 1.5 2 1.7 2.7.6 2.3-1.1-.5-1.3-.2-.9 1 .8 2.1 4.3 2 7.1-.2 2.9-2.3 7.3-9.1 7.3-11.2 0-1 .9-3.9 1.9-6.6 4.6-11.5 8.5-37.4 7.2-47.4-.5-3.6-.7-6.8-.4-7.2.6-1.2-1.8-13-3.4-16.1-1.5-3-1.9-3.2-2.8-1.7zm-2.4 12.2c.1 1.3.2 4 .3 6 .1 2 .8 4.3 1.5 5.1.7.9.8 1.8.3 2.1-.5.3-.8 2-.6 3.8.1 1.8.3 3.9.3 4.5.1.7.8 1.3 1.6 1.3 1.4 0 2.2 3.8 1.4 6.5-.1.5-.3 2.1-.4 3.5-.1 1.4-.7 3.6-1.4 4.9-.8 1.4-.9 2.1-.2 1.7 1.2-.8 1.3-.1.5 3.1-.5 1.7-1.2 2.1-2.8 1.7-1.6-.4-2.4.2-3.5 2.6-1.2 2.9-1.4 3-2.6 1.3-2.6-3.8-2.2-33.2.6-43.8 1.7-6.2 4.8-8.9 5-4.3zm-15.6 3.8c.3.5-.1 1-.9 1-.9 0-1.6-.5-1.6-1 0-.6.4-1 .9-1 .6 0 1.3.4 1.6 1zm1.8 10.7c.9 8.2.6 43-.4 40.5-1.5-3.9-3.5-42.4-2.3-44.4 1.2-1.9 2.2-.5 2.7 3.9zm18.9 3.5c-.7.7-1.2.8-1.2.2 0-1.4 1.2-2.6 1.9-1.9.2.3-.1 1.1-.7 1.7zm-3.6 32c-1.4 9-2.5 11.5-5.1 12-2.4.5-3.4-.5-1.6-1.6.5-.3.7-1.4.4-2.4-.2-1 .7-2.9 2.1-4.5 1.4-1.6 2.6-3.6 2.6-4.6 0-1.7.8-3.1 1.8-3.1.2 0 .2 1.9-.2 4.2zm-6.3 14.4c.9.9-2.3 5.4-3.9 5.4-1.9 0-1.8-1.6.1-2.4.8-.3 1.5-1.2 1.5-2.1 0-1.5 1.2-2 2.3-.9zM211.7 403.7c-.4.3-.7 1.1-.7 1.7 0 .6.5.5 1.2-.2.6-.6.9-1.4.7-1.7-.3-.3-.9-.2-1.2.2zM249.5 405c-.3.5-.1 1 .4 1 .6 0 1.1-.5 1.1-1 0-.6-.2-1-.4-1-.3 0-.8.4-1.1 1zM187.5 449c-.3.5.1 1 .9 1 .9 0 1.6-.5 1.6-1 0-.6-.4-1-.9-1-.6 0-1.3.4-1.6 1zM145.4 519.5c-.3.8.3 2.7 1.5 4.3 2.3 3.3 1.8 4.7-.9 2.9-1.4-.8-2.5-.8-4.4.1-2.3 1-2.4 1.4-1.4 4.4.6 1.8 3 5.8 5.3 8.8 2.2 3 4.9 6.8 6 8.5 3.7 5.9 23.8 24.7 29 27.2 2.8 1.2 5.8 2.9 6.8 3.5 1.5 1.1 2 1 3-.2.7-.9 3.2-1.6 6.2-1.8 3.2-.1 5.9-1 7.5-2.2 1.4-1.1 5-3.3 8-4.9 4.8-2.6 9.1-6 18.6-15 1.8-1.7 3-1.9 7.1-1.4 5.9.7 7.5-.7 4.5-4-2.5-2.8-5.2-8.1-5.2-10.4 0-1-.7-2.6-1.4-3.6-.8-1-1.2-2.7-.9-3.7.3-1.1.2-3.1-.1-4.5-.8-3-4.9-3.5-6.5-.8-.9 1.7-1.1 1.6-3.4-.6-2.8-2.6-6.2-2.2-7.2.8-.3 1-3.4 4.9-6.8 8.6-5.3 5.6-6.9 6.8-9.8 7-1.9.1-5.2.9-7.3 1.9-3.7 1.6-4.3 1.7-9.6.2-3.1-.9-6.5-1.6-7.6-1.6-3.6 0-14.5-7.3-17.2-11.4-1.3-2.2-3.3-4.9-4.3-6-1.1-1.1-1.9-2.3-1.9-2.8 0-1.4-3.9-4.8-5.5-4.8-.9 0-1.8.7-2.1 1.5zm-1.7 9.1c-.3.3-1.2.4-1.9.1-.8-.3-.5-.6.6-.6 1.1-.1 1.7.2 1.3.5zm82.8 1.4c.3.5-.1 1-1 1s-1.3-.5-1-1c.3-.6.8-1 1-1 .2 0 .7.4 1 1zm-77.4 5c.5 0 .9.6.9 1.3 0 .7 1 2.3 2.3 3.7 5.3 5.9 9.7 11.4 9.7 12.2 0 1.2-4.1-1.1-6-3.3-3.8-4.4-8.9-11.2-10.5-13.8-.6-1.1-.4-1.3.9-.8 1 .4 2.2.7 2.7.7zm68.8 6.1c-1.5.9-3.2.2-2.4-1.1.3-.5 1.3-.6 2.1-.3 1.2.4 1.3.8.3 1.4zm-7.6 6.1c1.7 4.6-4.2 7.6-11.6 5.9-5-1.2-5.5-1.8-3.1-3.6 1.9-1.5 3.6-1.9 6.6-1.6 1 .1 2.6-.2 3.5-.8 2.4-1.4 4-1.3 4.6.1zm5.7.3c1.7 2.1.5 3.1-1.5 1.2-.8-.9-1.5-1.8-1.5-2.1 0-1.1 1.8-.6 3 .9zm-34.2 4c2.4.9 4.7 1.3 5.2 1 1.2-.8 5.2 1.4 4.6 2.4-.3.4-2.1.7-4.1.6-1.9 0-3.5.3-3.5.7 0 .4-.4.8-1 .8-.5 0-.7-.7-.4-1.5.4-1 0-1.5-1.3-1.5-1.1 0-2.8-.9-3.8-2-2.2-2.4-1.4-2.5 4.3-.5zm4.7 7.5c.3.5-.1 1-.9 1-.9 0-1.6-.5-1.6-1 0-.6.4-1 .9-1 .6 0 1.3.4 1.6 1zm16.8 3.8c2.6.9 4.7 2 4.7 2.3 0 1.7-4.6 1.6-8.7-.2-2.4-1-5.3-1.9-6.3-1.9-2.8 0-3.4-1.8-.8-2.3 2.7-.5 4.5-.1 11.1 2.1zM207.8 576.7c.7.3 1.6.2 1.9-.1.4-.3-.2-.6-1.3-.5-1.1 0-1.4.3-.6.6zM76 63.4c0 1.4.5 2.8 1.1 3.1 1.5 1 1.8.4 1.2-2.8-.7-3.4-2.3-3.6-2.3-.3zM77.6 69.9c-.4.5-.2 1.2.3 1.5.5.4 1.2.2 1.5-.3.4-.5.2-1.2-.3-1.5-.5-.4-1.2-.2-1.5.3zM110 71.7c0 1.9 1.1 4.3 2.1 4.3 1.3 0 1.1-1.4-.6-3.6-.8-1-1.5-1.4-1.5-.7zM78 74c0 .5.5 1 1.1 1 .5 0 .7-.5.4-1-.3-.6-.8-1-1.1-1-.2 0-.4.4-.4 1zM79.4 81.5c.7 3.7 1.6 4.4 1.6 1.2 0-1.4-.5-2.9-1-3.2-.7-.4-.9.3-.6 2zM112 80c0 .5.5 1 1.1 1 .5 0 .7-.5.4-1-.3-.6-.8-1-1.1-1-.2 0-.4.4-.4 1zM112.6 86.5c-.3.9 0 1.5.9 1.5s1.2-.6.9-1.5c-.4-.8-.7-1.5-.9-1.5-.2 0-.5.7-.9 1.5zM81.1 87.6c0 1.1.3 1.4.6.6.3-.7.2-1.6-.1-1.9-.3-.4-.6.2-.5 1.3zM113 91c0 .5.4 1 .9 1 .6 0 1.3-.5 1.6-1 .3-.6-.1-1-.9-1-.9 0-1.6.4-1.6 1zM114.6 93.8c-.2.4-.1 1.4.5 2.2.7 1.2.9 1 .9-.8 0-2.3-.5-2.8-1.4-1.4zM116.5 108c.3.5 1 1 1.6 1 .5 0 .9-.5.9-1 0-.6-.7-1-1.6-1-.8 0-1.2.4-.9 1zM119 121c0 .5.5 1 1 1 .6 0 1-.5 1-1 0-.6-.4-1-1-1-.5 0-1 .4-1 1zM125.6 153.8c-.2.4-.1 1.4.5 2.2.7 1.2.9 1 .9-.8 0-2.3-.5-2.8-1.4-1.4zM430 156c0 .5.5 1 1 1 .6 0 1-.5 1-1 0-.6-.4-1-1-1-.5 0-1 .4-1 1zM126 159c0 .5.5 1 1.1 1 .5 0 .7-.5.4-1-.3-.6-.8-1-1.1-1-.2 0-.4.4-.4 1zM426.5 161c-.3.5-.1 1 .4 1 .6 0 1.1-.5 1.1-1 0-.6-.2-1-.4-1-.3 0-.8.4-1.1 1zM39.2 161.9c.2.7.7 1.2 1.1 1.2 1.2-.1.9-1.5-.3-2-.7-.2-1.1.2-.8.8zM126.5 163c-.3.5.1 1 .9 1 .9 0 1.6-.5 1.6-1 0-.6-.4-1-.9-1-.6 0-1.3.4-1.6 1zM41 168c0 2 .5 3 1.5 3 .9 0 1.5-.9 1.5-2.4 0-1.3-.7-2.6-1.5-3-1.1-.4-1.5.2-1.5 2.4zM127.7 168.7c-.3.5-.2 1.5.4 2.3.5.8.9 3 .9 4.7 0 2.3.5 3.3 1.6 3.3.9 0 1.2-.5.8-1.1-.4-.7-.8-2.8-1-4.7-.3-3.7-1.8-6-2.7-4.5zM43 172.9c0 .6.5 1.3 1 1.6.6.3 1-.1 1-.9 0-.9-.4-1.6-1-1.6-.5 0-1 .4-1 .9zM72 173c0 .5.5 1 1.1 1 .5 0 .7-.5.4-1-.3-.6-.8-1-1.1-1-.2 0-.4.4-.4 1zM74 176.9c0 1 3 2.4 3.7 1.7.3-.3.2-.9-.2-1.5-.8-1.3-3.5-1.5-3.5-.2zM130.6 182.7c.4 1.6 1.1 3.2 1.7 3.8.6.7.8.2.3-1.5-.3-1.4-.6-3.1-.6-3.8 0-.6-.5-1.2-1-1.2-.6 0-.8 1.1-.4 2.7zM32.1 189.1c-1.3 3.7-1.4 5.9-.3 5.9 1.1 0 3.2-7.4 2.3-8.3-.5-.5-1.4.6-2 2.4zM133.1 193.6c0 1.1.3 1.4.6.6.3-.7.2-1.6-.1-1.9-.3-.4-.6.2-.5 1.3zM134.2 200.7c.2 1-.3 2.3-1 2.9-1.2.9-1.2 1.1-.1 1.1.8 0 2.3.4 3.4.8 1.8.6 1.9.5.3-.7-1.1-.9-1.4-1.9-.8-2.8 1-1.6.4-3-1.1-3-.6 0-.9.8-.7 1.7zM135 208c0 .5.7 1 1.5 1s1.5-.5 1.5-1c0-.6-.7-1-1.5-1s-1.5.4-1.5 1zM497.1 210.9c-2.9 4-2.6 4.5.9 1.9 1.7-1.2 3-2.8 3-3.5 0-2.2-1.7-1.5-3.9 1.6zM134.7 210.6c-.3.3.3 2.1 1.3 3.9 1 1.8 1.6 3.6 1.3 3.9-.3.3.2 1.7 1.1 3.1 1 1.5 1.8 3.7 1.9 5.1.1 1.3.7 2.3 1.2 2.2.6-.2.9-1 .8-1.8-.4-2.3-1.1-5.5-1.4-5.8-.1-.1-.2-.5-.3-1-.1-.4-.5-1.2-.9-1.9s-.8-2.8-.9-4.8c-.1-2.5-.6-3.5-1.8-3.5-.9 0-1.9.3-2.3.6zM141.2 230.7c-1 .4-1 .8-.1 1.9.6.8.8 1.4.4 1.4s0 1.1.8 2.4c1.2 1.7 1.3 2.6.4 3.5-.8.8-.5 1.1 1.2 1.1 1.3 0 1.9-.4 1.6-1-.4-.6-.8-2.7-1-4.6-.4-4-1.3-5.4-3.3-4.7zM144 246.2c0 2.8 2.7 10.2 3.8 10.6 1.4.4 1.6-2 .3-3.4-.5-.5-1.1-2.4-1.3-4.3-.3-3.2-2.8-5.9-2.8-2.9zM151.6 277.9c-.4.5-.1 1.3.5 1.6.5.4.8 1.3.5 2.1-.3.7-.1 1.6.4 1.9.6.4 1-.7 1-2.4 0-3.1-1.4-4.9-2.4-3.2zM51.7 282c.3 1.1 1.2 2 2 2 1 0 1.3-.6.9-1.6-.3-.9-.6-1.8-.6-2 0-.2-.6-.4-1.4-.4-.9 0-1.2.7-.9 2zM58 293.7c0 .5.7 1.8 1.5 2.9 1.3 1.8 1.4 1.8.8-.4-.5-2.2-2.3-4.1-2.3-2.5zM66.2 313.9c.1 1.7.7 3.2 1.4 3.5.6.2 1.5 2 1.9 3.8.4 1.8 1.5 4.4 2.5 5.8.9 1.4 2.7 5.2 3.9 8.5 2.3 5.9 4.7 11.3 13.1 29 10.3 21.8 13.4 27.5 14.5 26.3.7-.7-5.5-12.8-6.6-12.8-.5 0-.6-.6-.3-1.4.3-.7-.9-3.7-2.5-6.5-1.7-2.9-3.1-5.5-3.1-5.9 0-1.1-6.2-13.6-7-14.2-.4-.3-1-2.2-1.4-4.3-.4-2-1.2-3.7-1.8-3.7-.5 0-.8-.6-.5-1.4.3-.8 0-2-.8-2.6-.8-.6-2.1-3.3-3-5.9-.8-2.6-2.4-5.7-3.5-6.8-1-1.2-1.6-2.3-1.3-2.6.7-.7-1.9-7.7-2.9-7.7-.4 0-.8-.6-.8-1.4 0-.8-.4-1.7-.9-2.1-.5-.3-.9.8-.9 2.4zM167.5 329.1c.4 1.9 1.3 4.1 2.1 4.9 1.2 1.2 1.4 1.1 1.4-1.3 0-1.5-.9-3.6-2.1-4.8l-2.1-2.1.7 3.3zM171.2 342.1c.2.7 1 1.5 1.7 1.7.8.3 1.2-.1.9-.9-.2-.7-1-1.5-1.7-1.7-.8-.3-1.2.1-.9.9zM174 347.9c0 2.5.6 2.7 1.3.6.4-.8.2-1.7-.3-2-.6-.4-1 .3-1 1.4zM170 355c0 .5.5 1 1 1 .6 0 1-.5 1-1 0-.6-.4-1-1-1-.5 0-1 .4-1 1zM356.7 361.7c-.4.3-.7 1.2-.7 2 0 1.1.4 1.1 2 .3 1.1-.6 1.8-1.5 1.5-2.1-.7-1.1-1.9-1.2-2.8-.2zM220 369.3c0 2.5 4.4 7.7 6.5 7.7 2.3 0 1.8-1.8-1.6-6.1-3.5-4.4-4.9-4.9-4.9-1.6zM104 393.2c0 2.4 10.5 20.8 14 24.5 4.2 4.5 3.9 2.1-.5-4.4-2.5-3.7-4.5-7.3-4.5-8 0-.7-.4-1.3-.9-1.3s-1.2-.8-1.5-1.8c-1.3-3.2-3.1-6.2-3.8-6.2-.5 0-.8-.6-.8-1.4 0-.8-.4-1.8-1-2.1-.5-.3-1 0-1 .7zM166.8 831.7c-.2 8-.3 9.1-1.1 14.8-.9 6.4-1.6 24.5-2.1 56-.4 24.3-1.6 35.5-3.9 38.4-1 1.1-.8 1.3.9.7 1.9-.6 2.2-.2 2.6 2.9.2 2 .2 3.7 0 3.9-.2.2-.5 6.9-.7 14.8-.2 7.8-.6 17-.9 20.3-.4 3.3-.8 7.7-1 9.8-.2 2.2-1 4.6-1.9 5.4-1.3 1.3-1.3 1.8 0 4.5 1.2 2.3 1.3 3.2.3 4.1-.9.9-1.9.4-4.3-2.4-2.6-3-3.3-4.7-3.5-9-.2-3-.7-5.8-1.2-6.3s-.7.8-.5 3.2c.2 2.9-.1 4.2-1.1 4.6-1.3.5-1.2 1 .1 4.2.8 2 1.5 4.8 1.5 6.2 0 2 .3 2.3 1.2 1.4.9-.9 1.7-.7 3.5 1 1.3 1.2 2.3 3 2.3 4 0 1.7-.2 1.7-2.5.2-1.3-.8-2.9-1.3-3.5-.9-1.7 1.1-4 7.4-5.1 14.5-.9 5.9-2 8.2-9.2 19.3-4.5 6.9-10 15.4-12.2 18.9-4.4 7.1-13.5 24.6-13.5 26.2 0 .6-1.2 2.2-2.5 3.5-1.4 1.3-2.3 2.6-2 2.9.3.3-.3 1.5-1.3 2.6-2.3 2.5-8.2 12.3-8.2 13.5 0 .4-1.3 2.7-3 4.9-1.6 2.3-3 4.6-3 5 0 .5-1.1 1.9-2.5 3.2-1.3 1.2-2.2 2.6-2 3 .2.4-.8 2.2-2.3 4.1-1.5 1.9-3.4 4.7-4.2 6.4-.8 1.6-3.2 5.4-5.2 8.4-2.1 3-3.8 5.9-3.8 6.4s-1.2 2.2-2.8 3.6c-3 2.9-3.1 3.2-3.9 6.1-.3 1.1-1.3 2-2.3 2-1 0-2.1.8-2.4 1.7-1.3 3.8-6.3 12.1-9.3 15.8-1.8 2.2-3.3 4.5-3.3 5.1 0 .7-.3 1.4-.7 1.6-2.2.9-7.8 10.3-7.4 12.2.1.5-.7 1.5-1.9 2.3-1.1.8-2 2.5-2 3.7 0 1.3-.7 2.9-1.5 3.6-.8.7-1.5 1.6-1.5 2.1 0 3.2 6.8-3 9.4-8.6.9-1.9 2.2-3.7 2.8-4.1.7-.4.2-1.3-1.3-2.5l-2.4-1.8 2.3.6c2.8.7 5.4-1.5 13.2-11.7 8.5-11 10.3-12.8 13.3-13.5 1.5-.4 2.7-1.1 2.7-1.7 0-.5.5-1.4 1-2.1.6-.7 4-6.2 7.6-12.2 3.6-6.1 7.2-11.7 7.9-12.5.7-.8 1-2.1.7-2.9-.3-1 0-1.2 1.2-.8 1.4.5 1.6.3 1.1-1.3-.7-2.2.1-3.8 10.3-21.5 7.5-13 12.5-20.8 14.9-23.3.8-.8 2-2.7 2.8-4.3.9-1.6 2-2.9 2.5-2.9.6 0 1-.5 1-1.1 0-.7 1.9-3.3 4.3-5.9 2.3-2.6 5.9-7.1 8-10 2-2.9 7.1-8.9 11.3-13.3l7.5-8.1-.6 11.5c-.4 6.3-.9 13-1.2 14.9-.9 6.1-1 95.1-.2 105 .4 5.2 1.1 17.1 1.4 26.4.6 16.5 1.4 21.6 3.4 21.6 1.9 0 3.3-7.8 2.1-11.5-1.3-3.9-.7-20.2.9-25.4.6-1.9.9-3.7.6-3.9-.3-.3-.1-1 .4-1.6.6-.7.2-2.6-1.1-5.1-2.1-4.3-2.4-9.1-2-33.5.2-6.9 0-13.6-.3-15-.9-4.1-.6-39.5.4-53 .6-6.9 1.3-17 1.6-22.5.8-13.1 1.4-16.5 3.1-16.5 1.3 0 12.4 14 12.4 15.6 0 .4 1.7 2.6 3.8 4.9 2 2.3 5.5 6.6 7.7 9.5 5.4 7.2 16.4 20.9 19.2 24 1.3 1.4 2.3 2.8 2.3 3.3 0 .4 1.9 2.9 4.3 5.5s7.9 9.2 12.3 14.7c4.3 5.5 8.2 10.1 8.6 10.3.5.2.8.8.8 1.4 0 .6 1.5 2.7 3.3 4.7 3.9 4.5 5.3 6.2 21.6 28.1 7.2 9.6 12.9 18 12.7 18.6-.6 1.5 4 5.8 5.2 5 .6-.3.8.2.5 1.4-.4 1.4 0 2 1.1 2 2.1 0 3.3-3 1.6-4-.7-.5-1.4-2.8-1.5-5.3-.2-4.7-1.5-6.9-13.2-21.7-3.4-4.4-6.7-8.9-7.4-10.2-.7-1.3-3-4.6-5.1-7.4-2.1-2.8-3.8-5.4-3.8-5.7 0-.8-13.8-19.8-17-23.5-1.1-1.3-2-2.8-2-3.3 0-.6-.5-1.5-1-2.2-3-3.6-6.9-9.1-10-14.1-1.9-3.2-4.6-7.2-6-9.1-1.4-1.8-3.1-4.1-3.8-5.1-.7-1.1-3.5-5.1-6.2-8.9-2.7-3.9-6.6-9.5-8.7-12.5-3.9-6-11.5-16-14.9-19.7-1.2-1.3-3.4-4.2-5-6.5-1.6-2.4-3.1-4.5-3.4-4.8-2.8-2.8-5-7.4-4.4-9.2.4-1.3.2-1.8-.4-1.4-.6.4-1.9-.5-2.8-2-1.4-2.1-1.5-3-.6-4.5 1.5-2.3 1.5-5.6.2-6.4-.6-.4-.8-1.6-.4-2.8.4-1.2.9-4.2 1.1-6.7.2-2.5.5-7.2.8-10.5.3-3.3.7-15.8.9-27.7.3-11.9.7-22.2 1.1-22.7.7-1.2 1.4-20.5 1.9-52.6.2-11.6.7-24.3 1.1-28.4 1.1-10.6 1.2-22.3.3-24.4-1.6-3.3-2.8-1.7-3 4zm-14 191c-.5 2.5-2.8 2.8-2.8.4 0-1.2.6-2.1 1.6-2.1.9 0 1.4.7 1.2 1.7zm13.6 3.7c1.4 2.5 3.2 5.1 3.9 5.8.7.7 2.8 3.3 4.7 5.8 1.9 2.5 4 5.2 4.7 6 .7.8 3.9 5.4 7.1 10.3 3.3 4.8 7 9.9 8.3 11.5 1.3 1.5 4 4.9 5.9 7.7 1.9 2.7 4.1 5.6 4.8 6.3.6.7 1.2 1.9 1.2 2.6 0 .7 1 2.4 2.3 3.8 2.9 3.1 8.7 12.2 8.7 13.6 0 .6.6 1.5 1.3 1.9.6.4 2.2 2.3 3.5 4 1.8 2.6 1.9 3.3.7 3.3-.8 0-1.5-.5-1.5-1 0-.6-1.1-2.1-2.5-3.4-1.4-1.3-2.5-2.8-2.5-3.5 0-.6-.4-1.1-1-1.1-.5 0-1-.5-1-1.1 0-.6-1.2-2.3-2.8-3.7-1.5-1.5-4.1-4.5-5.7-6.6-7.5-9.8-16.6-20.4-23-27-3.9-3.9-8.1-9.4-9.5-12.1-4.3-8.8-6.4-11.5-8.7-11.5-1.9 0-2.3-.5-2.3-3.3 0-2-.8-3.9-2-5-1.3-1.1-1.8-2.2-1.3-3 .8-1.2.9-1.7 1.2-3.7.3-2.4 3.1-.6 5.5 3.4zm-12.9 8.3c-1.5 7.3-1.5 9.4 0 9.9 2.3.9 1.8 2.4-.8 2.4-1.6 0-4.2 2.2-8.4 6.7-6.9 7.7-10.3 11.8-10.3 12.7 0 1.3-11 13.6-12.1 13.6-1 0 2.2-6.1 5.6-10.6 2.7-3.5 13.5-21.3 13.5-22.3.1-1.2 4.5-5.8 6.3-6.4.9-.4 1.7-1.4 1.7-2.4 0-1.4 3.6-6.3 4.7-6.3.2 0 .1 1.2-.2 2.7zM77 1156.5c-.7.8-1.9 1.5-2.7 1.5-1.1 0-.9-.7.8-2.5 2.5-2.5 4.1-1.6 1.9 1zm-4.6 5.7c-1.7 2.9-10.8 13.8-11.6 13.8-1.5 0-.8-1.5 2.2-4.7 1.7-1.8 3-3.6 3-4.2 0-1.3 4.8-6.1 6.1-6.1.6 0 .7.6.3 1.2z"/><path d="M156 944c0 .5.5 1 1 1 .6 0 1-.5 1-1 0-.6-.4-1-1-1-.5 0-1 .4-1 1zM148.4 979.1c-.3.6-.1 1.6.5 2.2.8.8 1.1.5 1.1-1.1 0-2.4-.5-2.8-1.6-1.1zM148 985c0 .5.7 1 1.5 1s1.5-.5 1.5-1c0-.6-.7-1-1.5-1s-1.5.4-1.5 1zM166 1012.2c0 .9.5 2 1 2.3 1.3.8 1.3-.5 0-2.5-.8-1.3-1-1.3-1 .2zM267 1179.4c0 .2.7.9 1.5 1.6.9.7 1.5.8 1.5.2 0-.5-.7-1.2-1.5-1.6-.8-.3-1.5-.4-1.5-.2z"/></svg>